<svg xmlns="http://www.w3.org/2000/svg" viewBox="0 0 450 15.6"><path class="st0" d="M274.4 14.4c1.6-.2 4.5.4 5-.4-1.5-.1-3.9.3-4.4-.4.4 1-.8-.1-.6.8zm-204.9-.5c-.1.5-.8.5-1.7.4-.2-.7 1.2-.7 1.7-.4zm13.4-.2c-.3.8-2.4.6-3.7.4.9-.3 2.2-.4 3.7-.4zm155.9 0c.1 1.3-3.8.9-4.7.4.9-.5 3.6.1 4.7-.4zm9.4.7c-.8 0-1.6 0-2-.2.3-.5 1.9-.5 2 .2zm5.7-.5c.1 1.1-2.3.1-4 .4.7-.7 1.8-.3 4-.4zm-34.6.5c-1.2.8-3.8.2-4.7-.2 1.1-.2 3.4-.1 4.7.2zm13.8.2c-.6-.4-2.2-.2-3.4-.2.5-.6 2.9-.6 3.4.2zm61.4-.4c-1.3 1.1-5.1.5-7.1.2 1.2-.8 5.5-.4 7.1-.2zm-110.5.2c-.5.2-.8.6-1.7.6v-.6c1.1-.2.7-.2 1.7 0zm15.5-.2c.7-.1.9.1 1.3.2-.1.4-.6.5-1.3.4v-.6zm103.4 0c1.3-.1 2.5 0 3 .4-.6.1-2.5.4-3-.4zm12.8.6c-.9.2-.9-.3-1.7-.2.1-.7 1.8-.5 1.7.2zm11.7-.4c.3.8-1.6.3-2.3.4.5-.7 1.1-.1 2.3-.4zm-116.5-.7c-.6-.3-2.1-.1-2.4-.6-.5.3-.3.9-1.7.6-.2-.4.5-.4 1-.4-.6-.6-2.4-.1-2.3.4-1.2.1-1-.6-2-.6-.5.1.1.3 0 .6-.4-.2-.7-.6-1.3-.6.2 1.1-1.4.1-3 0-.5.1.1.3 0 .6-1.3-.4-1.4-.2-2.7-.6-.7 0-.2.7-.3 1 .4 0 .3-.4.3-.6.5.3.4.8 1.3.8-1.5.8-3.3 0-4.4.4 0-.9 2.7-.1 2-1.5-2.8.2-4.3 1.5-5.7 0-1.7 1.1-3.7-.7-4 .8-1-.2-1.9-.5-2.7-.8-1.1-.2-.4.9-1.7.6.1-.6-2.7-.3-3.4-.6-.5.1.1.3 0 .6-2-1.5-4.1 1-5.7-.6-.4 0-.3.4-.3.6-1.6-1.2-4 .6-4.4-.6-.5.5-1.7.6-2.7.8-.7.1-.6-.3-.7-.6-.9.5-2.3-.5-2 .6-1.4-1.6-4.3.9-5-.6-1.3 1-5.3-.8-5.7.6-.9.1-.6-.4-1-.6-3.3.9-7.8-.6-11.1.8-1-.5-3.2-.7-3.7.2-1.1-.6-2 0-2.7-.6-1.3.3-2.2.3-2.3.8-.6 0-.2-.7-.7-.8-1.3 1-4.8-.9-7.1.6-.7.1-.6-.3-.7-.6-1.1-.2-.5.7-1 .8-1.2-.8-3.6.4-4.4-.8-1.3 0-1 .4-1.3.6-1.1-.7-2.2-.2-3.4.2-.9-.9-2.4-.6-4.7 0-.4-.3-.1-.3 0-.6-4.3-.4-5.7 1.7-7.7 0 .1.9-.2.5-.7.2-.8.1.4.3-.3.6-.6 0-.2-.7-.7-.8-.6.1-1.4.1-1.3.6-.9.1-.7-.4-1-.6-.7 0-1.1.2-1 .6-.3-.2-1.2-.1-1-.6-.3.2-.5.4-.7.6-.8-.1-1.1-.6-2-.6-1.2 0 .7.7-.3.6-1.4.1-.8-.1-.7-.6-1.2 0-.8.3-.7.8-.9.1-1.1-.3-1-.8-1.2-.1-.8.7-2 .6-.2-.6.6-.6.3-1.3 1.3.2 3.3-.3 5-.4-8.2-.8-14.9-.6-20.2-.6-.1.5-2.6-1.1-2.3.4-.7 0-1.1-.2-1-.6-9.7-.2-20-.4-26.2.2-10.7-.5-21-1.8-32.2-1.9.4-.7 0-.5 0-1.3-3.8.8-4.4-1.1-6.6-1-.1-.9 1.6-.6 1.7-1.3-1.4-.2-4.1.5-4-.6 1.7.1 2.6-.2 4-.2-.6-.8-3.1-.4-4-1 0-1.1 1.4-1.4-.7-1.7 18.7-1.5 45.3-.8 67.2-1.5 6.1-.2 11.8-.6 15.8 0 28.7-1.1 63-.6 93.4-1C211.5.3 245.7-.3 279.2.4c10.6.2 21.1-.3 31.6 0 41.8 1.2 84.4.2 125.9 3.6 3.6 1.7 9.5 1.9 13.4 3.4-11.1.4-15.1 6.3-26.2 5.9-1.4.6-3.6 1.1-5.7.6 1.5 1 5.2.7 7.4 1.3-6.8.8-13.7.6-20.5.4-35.7-1.1-69.7-2.2-101.1-1.9-1.6-.6-3.5-.2-5.4-.4-4.5-.4-9.7.4-14.4.2-5.2-.2-11.2-.1-18.5-.4.1.2.6.2 1 .2-1 .1-3.1.7-2.4-.2-4.6 0-11.1-.2-12.8.4-1.2-.5-6-.7-7.1.2-.4 0-.3-.4-.3-.6-1.4.5-8-.3-9.7.2-1.9-.2-3.5.6-5.7.2-.7.1-.1.9-.7 1.1-2.2-.5-5.9.7-8.4 0 .3-.6.5-.2 1.3-.2 0-.8-1.3-.7-1.7-1.3-1.1 0-.1 1.2-1.7.8 1.2-.9-2.6-.5-3.7 0 .8-.7-2.8-1.3-2.9-.2zm11.8-.4v.8c2-.3 2.6-.3 5-.2-.1-1-1.8-.1-2.3-1-.7.5-2 .4-2.7.4z"/></svg>