<?xml version="1.0" standalone="yes"?>
<?xml-stylesheet type="text/css" href="/d0/css/bo-ke.css" ?>
<svg id="svg--blog" class="svg-container" viewBox="0 0 500 500" xmlns="http://www.w3.org/2000/svg">
    <g>
        <path d="M62.835 145.838c.119-.02.483-.32.212-.182l-.212.182zm5.114-2.877c1.044-.432 2.02-.957 3.299-1.445-1.01.521-2.292 1.009-3.655 1.836l2.266-1.147c.665-.272 1.838-.801 2.819-1.14.022.032-.18.079-.251.117.079.052.45-.134.553-.101-.506.243-1.119.502-1.648.769l.52-.183c-.698.366-1.696.737-2.466 1.203l-.686.464c-.831.479-1.724.89-2.642 1.436-1.18.7-2.451 1.529-3.722 2.396l.562-.339-3.026 2.243c-.951.721-1.865 1.463-2.764 2.22-1 .845-1.965 1.696-2.984 2.634-.527.483-.998.995-1.507 1.5-2.66 2.64-5.142 5.409-7.224 8.135-.628.821-1.239 1.711-1.846 2.49l-1.513 1.913c-.224.29-.458.635-.814 1.013-.397.423-.777.721-1.135 1.244l.138-.235-.61.555.104-.193c-.133.124-.348.314-.198.053-.195.195-.359.308-.601.639l.01-.336c.913-1.901 2.521-3.903 3.887-5.771.792-1.088 1.798-2.275 2.73-3.434 1.055-1.318 2.507-2.958 3.809-4.331.77-.815 1.583-1.66 2.389-2.436.654-.631 1.439-1.384 2.039-1.933 1.249-1.147 2.698-2.247 4.081-3.371.939-.763 1.836-1.456 2.668-2.057l-.124.111 1.593-1.099c-.382.184.105-.111.356-.264l.05.074c1.177-.733 2.678-1.777 3.789-2.284l.174-.142.009.016-.048.028.057-.012c1.684-.95 3.71-1.993 5.595-2.685l-.717.3c-.97.389-2.24 1.001-3.316 1.549zm-5.702 4.265c-.205.154-.55.355-.662.483.203-.156.548-.357.662-.483zM76.922 162.025c.199-.077.905-.619.413-.324l-.413.324zm9.146-6.259c1.772-1.178 3.412-2.47 5.464-4.029-1.625 1.4-3.733 2.887-6.117 4.729 1.415-.983 3.025-2.235 3.848-2.883 1.104-.791 3.009-2.303 4.534-3.531.038.019-.281.243-.391.347.128-.006.707-.535.873-.585-.787.713-1.756 1.526-2.617 2.252.142-.054.689-.56.838-.627-1.12.999-2.761 2.191-4.08 3.282-.458.382-.767.693-1.192 1.029-1.448 1.133-3.011 2.184-4.681 3.365-2.147 1.521-4.536 3.181-6.99 4.821l1.063-.674c-1.898 1.336-3.794 2.628-5.971 4.086l-5.639 3.828c-2.073 1.426-4.101 2.845-6.259 4.403-1.114.807-2.16 1.633-3.256 2.472-5.731 4.368-11.134 9.065-15.593 13.902-1.346 1.456-2.671 3.037-3.903 4.474-.911 1.052-2.049 2.402-2.994 3.593-.439.548-.908 1.195-1.552 1.952-.714.849-1.35 1.498-2.031 2.502.03-.086.173-.286.275-.441l-1.027 1.179.214-.357c-.226.26-.583.673-.284.181-.333.408-.591.672-1.035 1.323.08-.232.023-.239.14-.542 1.907-3.507 4.963-7.396 7.83-10.791 1.656-1.982 3.727-4.146 5.735-6.174 2.27-2.315 5.393-5.134 8.194-7.44 1.655-1.37 3.411-2.772 5.12-4.061 1.388-1.047 3.059-2.286 4.319-3.191 2.625-1.891 5.542-3.763 8.343-5.673l5.3-3.584c-.002.027-.15.119-.251.189.91-.658 1.704-1.062 3.055-2.027-.694.389.219-.184.685-.483l.05.074c2.212-1.423 4.999-3.456 6.925-4.699l.32-.271.011.014-.085.061.096-.046c2.983-2.111 6.39-4.697 9.343-7.031l-1.136.918c-1.543 1.21-3.642 2.832-5.491 4.164zm-10.684 8.287c-.401.284-1.056.68-1.296.892.402-.283 1.056-.68 1.296-.892zM55.271 255.449c-.249.506-.017 2.686.163 1.283l-.163-1.283zm-.945 27.159c-.548 5.212-.354 10.333-.677 16.662-.38-5.263.171-11.587-.201-18.975-.215 4.221-.086 9.224-.051 11.794-.221 3.33-.206 9.298-.377 14.104-.193.043-.04-.911-.088-1.282-.388.252-.197 2.172-.537 2.564-.222-2.604-.273-5.705-.438-8.465-.234.355.041 2.177-.181 2.565-.349-3.673.033-8.638-.327-12.827-.126-1.459-.459-2.523-.52-3.851-.202-4.499.154-9.102.176-14.108.025-6.438-.006-13.558.138-20.78-.248.501.016 2.553-.222 3.077-.139-5.683-.172-11.296-.071-17.706l.195-16.678.289-18.733c.064-3.365-.101-6.636-.085-10.021.064-17.685.894-35.207.274-51.343-.175-4.864-.625-9.917-.757-14.537-.092-3.398-.131-7.697-.314-11.383-.084-1.703-.308-3.63-.208-6.037.108-2.687.547-4.894.106-7.797.15.199.196.793.283 1.234.009-1.593.353-2.145.365-3.814.167.02.139.841.277.982.066-.842.193-2.172.545-.814.04-1.295.271-2.156-.024-4.076.409.53.647.433 1.133 1.15 1.635 4.654 2.552 10.087 3.111 15.663.563 5.583.779 11.327 1.115 16.773.395 6.329.238 13.651.336 20.63.122 7.928-.153 18.174-.383 26.981l-.308 15.839c-.102 4.23-.149 9.272-.2 13.051-.117 7.869-.809 16.292-.853 24.567l-.126 15.625c-.103-.043-.067-.469-.076-.771.158 2.745-.393 4.9-.226 8.964.35-1.937.144.695.059 2.05l-.445-.006c-.356 6.43.012 14.884-.562 20.497l.17 1.026c-.019.291-.09.142-.089-.001l.002-.256c-.076-.048-.084.1-.091.256-.117 8.959-.042 19.461-.373 28.711l.002-3.59.234-16.914zm-3.074-33.109c-.041-1.203.161-3.07-.034-3.85.04 1.203-.16 3.07.034 3.85zM69.026 118.035c.384.014 1.236-.96.486-.594l-.486.594zm13.33-8.615c2.84-1.22 5.263-2.991 8.645-4.549-2.478 1.853-5.921 3.307-9.278 6.034 2.145-1.206 4.535-2.868 5.796-3.682 1.764-.832 4.765-2.596 7.33-3.75.112.159-.451.285-.619.429.312.272 1.209-.42 1.568-.227-1.232.904-2.792 1.797-4.09 2.74l1.379-.571c-1.68 1.332-4.339 2.458-6.187 4.058-.644.554-.976 1.17-1.583 1.631-2.046 1.581-4.417 2.778-6.752 4.451-3 2.149-6.206 4.671-9.48 7.195l1.5-.943c-2.438 2.16-4.86 4.261-7.669 6.612-2.458 2.061-4.81 4.176-7.152 6.295-2.608 2.362-5.14 4.719-7.863 7.258-1.406 1.312-2.602 2.769-3.969 4.137-7.137 7.149-14.17 14.271-20.496 21.214-1.907 2.093-3.791 4.421-5.788 6.262-1.466 1.354-3.432 2.948-5.111 4.35-.775.646-1.589 1.479-2.866 2.159-1.427.762-2.807 1.051-4.119 2.223.029-.182.317-.386.505-.581-.847.437-1.339.295-2.249.719-.076-.148.384-.337.389-.492-.491.166-1.276.392-.723-.252-.716.291-1.306.306-2.189.974.079-.466-.094-.649.047-1.223 3.39-4.886 8.836-8.969 13.095-13.517 2.468-2.629 5.563-5.377 8.264-8.291 3.07-3.303 7.181-7.425 10.755-10.982 2.117-2.104 4.304-4.343 6.476-6.386l5.42-5.187c3.293-3.11 7.253-5.973 10.812-9.171 2.417-2.171 4.715-4.173 6.857-5.917.047.096-.164.229-.292.349 1.112-1.161 2.412-1.546 4.132-3.178-1.086.445.22-.374.887-.803l.273.352c3.112-2.079 6.811-5.375 9.826-6.797l.39-.488c.149-.083.119.026.051.073l-.123.085c.021.078.096.036.174-.012 4.321-2.938 9.488-6.321 14.427-8.635l-1.843 1.025c-2.523 1.29-5.77 3.299-8.557 5.009zm-13.503 13.941c-.506.468-1.45 1.002-1.67 1.438.503-.473 1.446-1.005 1.67-1.438z"/>
    </g>
    <g>
        <path d="M416.837 325.806c-.664 1.272-1.259 7.198-.236 3.493-.531.223.792-3.723.236-3.493zm-59.647 35.213c-13.405-1.216-26.405-1.476-42.255-2.104 6.589-.409 13.89-.178 21.911.116 8.021.284 16.784.644 26.306.259-10.884-.404-23.621-.587-30.128-.647-8.434-.658-23.442-.902-35.396-.489-.129-.379 2.261-.211 3.184-.343-.669-.767-5.433-.096-6.458-.697 6.461-.925 14.258-1.251 21.223-1.583-.901-.475-5.49.116-6.475-.299 9.256-.904 21.828.163 32.494-.273 3.715-.159 6.438-.76 9.815-.815 5.727-.099 11.516.031 17.478.073 2.989.013 5.992.027 9.097-.066 3.057-.118 6.172-.197 9.383-.45 2.064-.174 4.177-.396 6.32-.911 2.127-.51 4.345-1.393 6.141-2.945 1.808-1.535 3.068-3.566 3.988-5.636.927-2.084 1.573-4.247 2.125-6.43 2.349-8.606 3.604-17.763 4.417-26.925-.568 1.237-.511 6.495-1.156 7.778.659-7.217.946-14.396 1.188-21.8l.373-11.315c.061-1.925.179-3.878.229-5.848-.001-1.979.059-3.984.126-6.021.245-7.126.505-14.224-.131-21.238-.324-3.5-.868-6.982-1.87-10.323-.998-3.344-2.495-6.505-4.768-9.151-1.184-1.499-2.596-2.801-4.193-3.812-1.601-1.008-3.371-1.728-5.215-2.188-3.699-.926-7.6-.923-11.495-.743-3.907.189-7.857.59-11.905.751l-12.225.391c-8.547.297-16.812 1.095-25.394 1.555-22.401 1.205-44.698 2.521-66.536 3.911l-32.377 2.139c-5.34.352-10.547.763-15.918 1.08-5.324.309-10.596.512-15.803.664-12.561.37-25.59.743-37.427.456-8.707-.22-19.662-.711-29.017-.708-4.322-.001-9.219.274-15.272-.045-6.754-.336-12.286-1.247-19.572-.194.501-.318 1.991-.441 3.101-.63-3.993.052-5.366-.602-9.546-.451.05-.346 2.106-.367 2.464-.657-2.11-.062-5.446-.15-2.035-1.015-1.607.025-2.979-.04-4.539-.002-1.583.043-3.244.167-5.683.65 1.32-.914 1.091-1.398 2.855-2.476 11.711-4.079 25.646-5.97 39.868-6.654 14.25-.706 28.857-.305 42.655-.37 16.019-.087 34.484.834 51.798-.397 19.974-1.426 45.891-2.932 68.306-4.178 13.271-.732 27.155-1.583 40.408-2.112l33.296-1.384 7.404-.216 7.521-.392c2.68-.127 5.538-.233 8.668-.093 3.121.151 6.564.537 10.226 1.701 3.643 1.139 7.458 3.252 10.415 6.108.744.704 1.434 1.446 2.073 2.208.325.379.625.767.923 1.155l.434.586.026.037-.208-.274.01.012.038.049.075.099.151.196.426.57c.161.223.359.491.484.681.273.403.542.809.79 1.217.502.815.959 1.639 1.366 2.459 1.642 3.294 2.632 6.54 3.341 9.657.704 3.123 1.117 6.139 1.403 9.074.747 7.954.479 15.225.309 21.85l-.107 4.775-.024 2.741-.108 2.375-.385 9.236c-.204-.113-.098-1.2-.091-1.965.052 3.495-.242 6.639-.588 10.229-.351 3.594-.731 7.628-.997 12.995 1.089-5.055.186 1.85-.395 5.442l-.884-.104c-.642 4.236-1.372 8.841-2.385 13.608-.252 1.191-.525 2.393-.817 3.601l-.882 3.442c-.65 2.531-1.42 5.182-2.743 8.051-.672 1.434-1.496 2.929-2.598 4.418-1.096 1.483-2.498 2.947-4.098 4.136-1.596 1.196-3.334 2.086-4.951 2.697-1.626.617-3.14.987-4.524 1.247-2.773.506-5.104.633-7.239.711-2.13.067-4.057.052-5.847.008-.956.139-1.62.344-2.562.487-.727.004-.366-.159-.01-.178l.642-.034c.109-.158-.261-.154-.65-.145-23.678.94-50.257-1.117-73.22-1.019 2.968-.092 5.946-.136 8.937-.146 12.017.123 28.476.797 42.891 1.21zm53.276-51.471c.139-3.063.77-7.8.459-9.795-.039 3.064-.7 7.792-.459 9.795zM383.904 189.041c.093.514.993.164.54-.257l-.54.257zm9.776 3.178c1.776 1.334 3.742 1.184 6.021 2.096-2.066.534-4.276-.857-7.154-.466 1.52.618 3.434.611 4.405.647 1.188.597 3.429.823 5.194 1.36-.025.385-.351.041-.501.122.009.78.773.481.85 1.173-1.031.33-2.219.311-3.306.511.078.479.836.019.931.473-1.483.533-3.273-.451-4.969.067-.592.185-1.095.79-1.621.842-1.787.185-3.44-.751-5.348-1.048-2.457-.373-5.198-.685-7.917-1.331.094.512.987.095 1.095.592-2.238-.02-4.421-.234-6.854-.747-2.132-.443-4.26-.777-6.38-1.148-2.358-.421-4.686-.819-7.178-1.301-1.287-.249-2.664-.018-3.99-.161-6.928-.733-13.8-1.55-20.551-1.023-2.034.157-4.276.718-6.122.537-1.357-.134-2.994-.569-4.441-.817-.668-.115-1.497-.019-2.278-.707-.871-.77-1.345-2.122-2.564-2.101.158-.229.38-.152.578-.194-.515-.456-.482-1.265-1.004-1.802.111-.311.354-.005.485-.224-.228-.378-.563-1.042.082-1.279-.374-.484-.517-1.188-1.259-1.321.414-.582.536-1.065 1.053-1.725 4.847-2.938 9.296-1.494 13.807-1.881 2.619-.225 5.386.368 8.212.283 3.209-.095 7.186.316 10.582.728 2.012.244 4.133.417 6.084.798 1.586.314 3.515.553 4.935.786 2.958.49 5.831 2.162 8.938 2.62 2.105.31 4.065.607 5.815.96-.06.2-.203.109-.32.112 1.094-.186 1.671 1.006 3.257.872-.582-.778.317-.25.788-.017l-.177.873c2.269 1.021 5.548.696 7.438 2.114l.438-.289c.102.051.022.184-.03.175l-.095-.015c-.042.147.01.171.065.191 3.301.668 7.21 1.007 10.564 2.046l-1.333-.157c-1.761-.439-4.184-.699-6.225-1.224zm-13.609 4.406c-.479.019-1.114-.466-1.493-.128.478-.014 1.115.468 1.493.128zM333.244 197.498c.801.511 4.299.1 2.062-.293l-2.062.293zm43.422 3.077c8.291 1.443 16.504 1.449 26.586 2.695-8.455.262-18.512-1.379-30.359-1.086 6.73.68 14.736.81 18.852.949 5.299.715 14.838 1.229 22.49 2.109.041.39-1.461-.021-2.061.036.35.801 3.441.629 4.02 1.35-4.184.156-9.137-.069-13.561-.003.539.498 3.477.133 4.068.614-5.896.325-13.77-.884-20.488-.479-2.34.141-4.068.729-6.189.756-7.188.098-14.494-.891-22.48-1.162-10.266-.351-21.621-.511-33.137-.912.791.505 4.072.006 4.9.497-9.066.169-18.018.178-28.236-.014-8.951-.168-17.775-.178-26.592-.212l-29.869-.077c-5.366-.019-10.576.447-15.972.54-28.174.493-56.1.814-82.065 1.952-3.904.171-7.943.438-11.876.648l-.739.039-.185.01h-.011l.458.014h-.007l-.027.002-.055.005-.11.01-.43.037-1.625.12c-1.052.069-2.065.121-3.066.161-1.999.079-3.937.109-5.827.086-5.553-.071-12.502-.502-18.482-.734-2.761-.108-5.917.005-9.767-.684-4.297-.769-7.734-2.153-12.438-2.022.351-.247 1.302-.189 2.024-.247-2.523-.422-3.318-1.251-5.915-1.712.069-.329 1.341-.058 1.598-.293-1.305-.353-3.335-.952-1.143-1.294-.994-.214-1.826-.486-2.766-.691-.468-.102-.965-.187-1.495-.23-.263-.022-.537-.033-.785-.027-.214-.008-.561.059-.23.003l.064-.083-.13-.029c-.141-.014-.079-.066-.112-.102-.008-.079.004-.161.031-.241.045-.161.113-.317.19-.476.161-.318.381-.654.953-1.055 3.725-1.077 7.949-1.61 12.204-1.986 4.279-.361 8.696-.503 13.159-.555 8.921-.109 18.06.172 26.673-.177l7.818-.315 8.182-.017c5.535 0 11.202-.007 16.739-.208 12.572-.447 28.837-.604 42.895-.75 8.322-.08 17.031-.275 25.328-.231 6.743.036 14.818-.065 20.845-.076 12.568-.023 26.029 1.152 39.26 1.159 8.98.008 17.385.049 24.992.218-.072.206-.752.131-1.234.147 4.398-.305 7.832.824 14.34.555-3.088-.73 1.119-.279 3.285-.083l-.025.89c10.271.84 23.828.388 32.775 1.84l1.656-.29c.463.054.221.187-.008.178l-.41-.017c-.082.149.154.174.402.195 14.332.694 31.156 1.325 45.912 2.96l-5.742-.369c-7.693-.705-18.114-1.217-27.05-1.836zm-53.076 4.843c-1.92.065-4.891-.365-6.139.016 1.918-.067 4.891.362 6.139-.016zM90.912 322.801c-.505.273-.087 1.63.301.803l-.301-.803zm-3.016 16.321c-1.434 3.017-1.451 6.16-2.705 9.866-.24-3.276 1.394-6.925 1.109-11.476-.675 2.49-.811 5.524-.955 7.082-.713 1.935-1.24 5.515-2.12 8.316-.384-.045.022-.557-.032-.796-.79.01-.625 1.221-1.335 1.326-.15-1.625.084-3.477.019-5.166-.493.133-.13 1.302-.61 1.455-.317-2.28.888-5.097.486-7.682-.137-.898-.723-1.616-.75-2.413-.097-2.702.876-5.335 1.136-8.301.332-3.81.461-8.035.811-12.303-.501.268.009 1.517-.475 1.798-.209-3.386-.26-6.709-.145-10.497.103-3.318.038-6.594-.023-9.863-.067-3.642-.19-7.223-.307-11.076-.063-1.99-.615-3.926-.804-5.927-.995-10.455-2.038-20.812-4.087-30.601-.618-2.95-1.649-6.07-1.839-8.919-.14-2.094-.019-4.737-.017-7.03.003-1.059-.23-2.289.338-3.739.636-1.623 1.92-2.836 1.745-4.698.247.165.2.532.268.819.387-.949 1.21-1.196 1.684-2.181.325.062.047.542.282.667.352-.483.977-1.221 1.292-.318.44-.737 1.133-1.163 1.181-2.312.631.422 1.13.443 1.851.993 3.478 6.238 2.798 13.21 4.113 19.672.761 3.735.806 8.002 1.565 12.099.857 4.647 1.466 10.647 1.929 15.853.272 3.081.644 6.312.75 9.397.087 2.506.318 5.517.417 7.769.206 4.698-.813 9.729-.706 14.708.069 3.383.084 6.559-.042 9.436-.206-.036-.136-.29-.154-.474.33 1.681-.781 2.93-.485 5.413.719-1.136.281.441.095 1.254l-.888-.06c-.799 3.843-.328 9.048-1.768 12.344l.287.659c-.053.172-.186.067-.176-.02l.017-.155c-.148-.044-.173.043-.194.137-.681 5.404-1.339 11.811-2.985 17.273l.376-2.163c.705-2.868 1.237-6.811 1.851-10.166zm-4.927-20.393c-.075-.719.342-1.805-.046-2.287.078.718-.338 1.803.046 2.287zM235.989 321.825c-.165.412-.222 2.242-.021 1.079l.021-1.079zm-2.302 22.652c-.532 4.342-.643 8.628-.928 13.914-.091-4.406.397-9.686.61-15.871-.338 3.523-.483 7.712-.546 9.863-.229 2.781-.365 7.774-.456 11.795-.098.036-.017-.762-.038-1.073-.198.21-.107 1.817-.276 2.146-.112-2.181-.107-4.78-.135-7.095-.124.295-.019 1.824-.133 2.148-.128-3.083.198-7.24.188-10.759-.004-1.226-.125-2.127-.092-3.24.108-3.779.551-7.626.895-11.816.44-5.39.978-11.346 1.652-17.378-.167.408-.203 2.135-.364 2.563.394-4.757.864-9.45 1.465-14.803l1.498-13.933c.532-5.146 1.027-10.209 1.502-15.663.244-2.816.342-5.556.517-8.389.925-14.784 1.099-29.5-.276-42.944-.405-4.053-1.051-8.239-1.576-12.086-.378-2.83-.878-6.414-1.425-9.48-.251-1.416-.611-3.014-.885-5.03-.31-2.253-.4-4.116-1.047-6.524.106.16.216.654.321 1.02-.226-1.332-.135-1.806-.376-3.198.087.011.195.696.286.81-.093-.704-.221-1.816.154-.696-.167-1.067-.189-1.815-.618-3.383.285.428.391.342.743.922 3.073 7.63 4.865 17.669 6.198 26.711.802 5.258 1.27 11.402 1.652 17.264.461 6.657.536 15.311.298 22.77-.131 4.416-.33 9.032-.643 13.42-.25 3.566-.569 7.829-.848 11.006-.575 6.625-1.592 13.675-2.316 20.604l-1.403 13.071c-.048-.04.006-.395.028-.647-.155 2.303-.616 4.081-.871 7.483.335-1.604.014.588-.139 1.716l-.221-.023c-.712 5.357-1.158 12.432-1.793 17.101l.021.863c-.027.241-.053.115-.044-.004l.017-.214c-.035-.043-.048.08-.061.21-.623 7.482-1.046 16.257-1.295 23.981l.054-2.999c.135-4.024.356-9.465.706-14.133zm.787-27.793c.08-1.007.338-2.559.308-3.219-.083 1.007-.341 2.56-.308 3.219zM338.898 266.382c.609.083 3.176-.199 1.51-.181l-1.51.181zm32-1.762c6.127-.296 12.113-.993 19.43-2.056-6.033 1.228-13.453 1.813-22.098 2.73 4.965-.302 10.809-.982 13.797-1.39 3.891-.368 10.832-1.364 16.258-2.667.072.083-1.021.274-1.438.394.334.133 2.475-.505 2.955-.473-2.885.921-6.447 1.674-9.629 2.29.432.051 2.514-.462 2.98-.445-4.203 1.002-10.025 1.615-14.908 2.328-1.703.251-2.934.544-4.488.726-5.273.614-10.705.854-16.6 1.244l-24.475 1.532c.6.104 3-.176 3.629-.111-6.672.586-13.326.523-20.859-.173-6.6-.597-13.084-1.451-19.604-1.678-3.627-.131-7.23-.073-10.869.221-3.633.284-7.303.874-11.117 1.354-3.934.539-7.715 1.242-11.643 1.93-5.131.871-10.211 1.952-15.4 2.55-2.594.29-5.22.395-7.823.271-2.604-.12-5.177-.444-7.705-.862-5.059-.85-9.968-2.018-14.789-3.187-2.419-.576-4.786-1.227-7.123-1.73-2.347-.515-4.683-.94-7.001-1.26-5.597-.789-11.439-.82-16.695-.205-3.874.403-8.721 1.451-12.786 2.843-1.881.632-3.979 1.475-6.634 2.456-2.966 1.104-5.432 1.924-8.537 3.551.198-.173.838-.482 1.308-.736-1.737.764-2.38.863-4.193 1.681.002-.095.896-.483 1.033-.622-.922.381-2.375.975-.946.128-1.393.609-2.386.943-4.391 2.022.524-.466.397-.541 1.113-1.136 4.831-3.107 10.471-6.224 16.6-8.729 6.115-2.522 12.792-4.261 19.279-4.812 3.762-.347 7.864-.266 12.009.198 4.148.457 8.337 1.276 12.374 2.232 4.549 1.131 9.688 2.442 15.003 3.565 5.308 1.119 10.737 1.985 15.701 1.81 5.869-.177 12.168-1.626 18.266-2.608 4.949-.846 10.902-1.768 15.355-2.344l3.471-.454c1.221-.158 2.426-.288 3.656-.393 2.453-.208 4.945-.312 7.447-.313 5.01-.012 10.043.413 14.941.886 6.652.657 12.738 1.314 18.25 1.485-.049.052-.543.016-.893.009 3.178.016 5.686.344 10.381.031-2.25-.064.799-.099 2.367-.181l.016.223c7.633-.429 17.568-1.12 24.191-1.332l1.197-.172c.344-.015.172.033.004.045l-.301.021c-.053.042.121.034.305.023 10.52-.727 22.859-1.807 33.416-3.813-1.357.283-2.727.542-4.102.779-5.538.917-13.13 1.808-19.685 2.324zm-38.818 4.235c-1.414.085-3.617.016-4.531.108 1.416-.012 3.621.03 4.531-.108zM323.855 312.226c.57.062 2.936-.335 1.393-.243l-1.393.243zm29.641-3.712c5.695-.699 11.215-1.819 18.039-3.139-5.607 1.421-12.484 2.484-20.469 3.992 4.602-.646 10.002-1.701 12.77-2.271 3.615-.584 10.033-1.942 15.18-3.123.068.084-.969.255-1.359.373.314.127 2.342-.467 2.801-.407-2.748.8-6.066 1.602-9.018 2.323.408.034 2.336-.534 2.775-.522-3.902 1.069-9.299 1.985-13.801 3.002-1.568.357-2.693.728-4.129 1.013-4.867.961-9.908 1.588-15.371 2.366-7.027 1.001-14.816 1.994-22.744 2.759.566.067 2.797-.31 3.389-.256-6.219.759-12.379 1.378-19.43 1.906-6.176.458-12.268.857-18.359 1.153-6.785.329-13.463.555-20.654.634-1.857-.012-3.662.131-5.506.201-1.834.071-3.674.103-5.551.036-4.875-.159-9.867-.889-14.384-2.929-2.255-.986-4.363-2.176-6.491-3.211-2.124-1.043-4.286-1.938-6.503-2.651-8.898-2.832-18.212-3.345-26.908-2.547-5.265.481-10.663 1.586-15.585 2.739-3.623.834-8.189 2.058-12.061 3.335-1.789.586-3.796 1.337-6.34 2.139-2.841.902-5.202 1.506-8.193 2.843.193-.151.809-.403 1.262-.613-1.668.604-2.278.648-4.019 1.295.006-.092.862-.4.998-.523-.884.295-2.277.752-.897.044-1.336.479-2.286.72-4.214 1.615.51-.415.393-.502 1.088-1.026 9.322-5.354 21.915-9.958 33.661-12.646 6.812-1.606 14.944-2.562 22.755-2.427 4.433.059 9.538.555 14.681 1.761 2.563.602 5.148 1.382 7.627 2.376 2.482.98 4.83 2.2 6.969 3.313 2.537 1.33 5.013 2.459 7.672 3.134 2.65.693 5.438 1.018 8.203 1.174 2.248.129 4.75.13 7.201.047l1.824-.075.449-.022.549-.009.896-.011 3.34-.052c8.652-.152 17.945-.249 27.035-.846 6.168-.402 11.932-.865 17.145-1.319-.041.056-.51.082-.84.115 2.998-.359 5.393-.309 9.828-.865-2.141.053.752-.15 2.238-.273l.023.222c7.059-.586 16.252-1.974 22.398-2.616l1.104-.252c.316-.039.16.021.006.044l-.279.041c-.045.045.115.026.285.003 9.754-1.41 21.105-3.501 31.023-5.646l-3.844.865c-5.173 1.083-12.193 2.454-18.265 3.414zm-35.889 6.422c-1.314.159-3.375.266-4.219.445 1.319-.148 3.38-.258 4.219-.445z"/>
    </g>
    <g>
        <path d="M195.538 405.271c-.006.131.229.093.144-.034l-.144.034zm2.2 1.271c.367.416.857.473 1.373.809l-1.731-.465c.341.228.811.318 1.047.375.263.204.803.369 1.213.587-.025.094-.089-.007-.13.006-.035.191.168.156.152.329-.27.03-.562-.032-.839-.036l.206.161-1.226-.227c-.154.016-.308.141-.439.127-.449-.044-.809-.356-1.262-.526-.583-.217-1.238-.439-1.866-.748l.234.205c-.545-.13-1.068-.305-1.631-.577l-1.479-.684c-.545-.256-1.078-.519-1.646-.817-.291-.156-.64-.206-.947-.346-1.611-.726-3.166-1.552-4.807-2.149-.495-.181-1.081-.302-1.495-.557-.306-.187-.64-.48-.949-.71-.142-.107-.346-.188-.45-.438-.116-.285-.078-.652-.356-.799l.153.028-.008-.519.133.01c-.005-.11.001-.297.171-.271-.024-.151.028-.323-.119-.441l.438-.253c1.418-.055 2.231.763 3.286 1.148l1.815.875c.732.278 1.593.718 2.332 1.084.437.219.907.419 1.324.651.339.189.765.38 1.076.531.645.314 1.198.896 1.901 1.191.477.198.92.383 1.315.563l-.083.01c.27.015.338.336.725.388-.095-.22.09-.044.189.038l-.091.203c.487.369 1.296.457 1.682.897l.121-.049-.016.042-.022-.009.006.05c.768.328 1.708.601 2.485 1.02l-.321-.104c-.41-.192-.993-.374-1.464-.603zm-3.547.371c-.118-.022-.246-.176-.357-.115.117.023.246.176.357.115z"/>
        <path d="M248.926 430.64c-.016.128.201.086.133-.036l-.133.036zm1.902 1.208c.309.399.744.445 1.188.763l-1.527-.419c.293.222.713.295.92.35.227.192.701.343 1.061.544-.025.094-.08-.004-.117.01-.037.19.145.149.127.321-.244.039-.504-.017-.754-.011l.18.153-1.096-.195-.406.134c-.404-.036-.715-.337-1.117-.499-.518-.206-1.104-.412-1.656-.708l.201.197c-.492-.118-.959-.283-1.457-.54l-1.318-.635c-.486-.238-.965-.474-1.471-.747-.262-.139-.58-.177-.859-.298-1.455-.635-2.871-1.336-4.389-1.781-.458-.135-1.003-.202-1.385-.409-.281-.151-.59-.398-.876-.589-.131-.088-.322-.145-.415-.372-.103-.255-.057-.602-.321-.717l.146.014-.011-.495.127-.004c-.005-.104.001-.282.162-.274-.022-.142.028-.31-.11-.407l.415-.282c1.344-.193 2.105.513 3.093.798.57.163 1.089.514 1.69.706.683.219 1.477.593 2.153.912.4.191.834.363 1.211.575.307.17.693.341.975.479.582.286 1.061.839 1.688 1.112.426.186.82.355 1.17.525l-.076.012c.244.01.285.323.635.367-.072-.214.084-.045.17.033l-.098.201c.42.352 1.143.431 1.465.851l.111-.049-.018.041-.02-.009.002.05c.672.308 1.498.555 2.17.942l-.281-.091c-.36-.18-.87-.345-1.282-.559zm-3.24.423c-.105-.021-.213-.169-.318-.108.105.022.212.17.318.108z"/>
        <path d="M315.451 403.375c-.043.127.223.201.166.035l-.166-.035zm1.822 2.454c.172.616.613.995.896 1.669-.494-.366-.713-1.088-1.402-1.575.232.41.631.796.82 1.011.143.354.539.883.758 1.377-.078.057-.072-.073-.115-.094-.146.13.051.253-.068.38-.254-.174-.455-.442-.699-.633l.086.275c-.367-.22-.529-.757-.955-.989l-.463-.146c-.383-.291-.574-.758-.936-1.139-.469-.482-1.031-.969-1.568-1.493l.172.283c-.504-.323-.973-.666-1.486-1.082-.449-.367-.926-.686-1.396-1.005-.531-.35-1.061-.683-1.637-1.025-.297-.18-.656-.245-.973-.393-1.66-.763-3.354-1.408-5.082-1.641-.521-.071-1.111-.045-1.57-.176-.336-.099-.734-.279-1.092-.404-.166-.058-.381-.069-.555-.273-.193-.226-.264-.58-.578-.625.049-.051.104-.022.154-.024l-.203-.492.133-.035c-.047-.104-.115-.284.061-.315-.082-.137-.098-.318-.287-.383l.328-.387c1.357-.533 2.48.032 3.678.176.697.085 1.402.389 2.152.551.852.181 1.885.567 2.76.949.52.224 1.07.455 1.561.733l1.246.689c.744.437 1.348 1.169 2.1 1.682.51.351.98.694 1.379 1.04l-.094-.022c.299.121.305.477.713.697-.053-.263.109-.006.195.124l-.152.162c.426.58 1.25 1.098 1.475 1.748l.143.025-.033.03-.018-.021-.016.051c.65.757 1.445 1.65 1.896 2.618l-.232-.334c-.267-.483-.732-1.05-1.096-1.564zm-3.687-1.394c-.111-.062-.197-.258-.324-.236.111.063.195.258.324.236z"/>
        <path d="M175.776 434.239c-.001.134.271.12.166-.02l-.166.02zm2.554 1.601c.41.481.967.626 1.534 1.063-.609-.069-1.128-.609-1.954-.768.382.283.912.453 1.18.553.287.252.891.52 1.336.821-.037.09-.1-.024-.147-.02-.057.188.177.19.144.362-.308-.021-.629-.142-.941-.194l.219.2c-.442-.012-.86-.413-1.359-.439-.174-.009-.352.095-.498.062-.498-.109-.888-.477-1.392-.704-.648-.293-1.382-.581-2.093-.945l.269.228c-.612-.174-1.198-.388-1.84-.688-.562-.262-1.13-.493-1.694-.731l-1.913-.809c-.342-.148-.729-.184-1.088-.306-1.87-.643-3.72-1.3-5.6-1.65-.569-.103-1.21-.131-1.712-.313-.368-.132-.804-.372-1.196-.55-.181-.082-.418-.125-.603-.358-.198-.261-.254-.634-.587-.727.055-.043.112-.007.167-.001l-.176-.526.143-.018c-.042-.111-.097-.303.09-.31-.075-.149-.076-.335-.27-.428l.377-.343c1.47-.337 2.595.362 3.837.586.719.134 1.445.471 2.217.646.878.194 1.946.562 2.861.893.542.194 1.119.378 1.641.606l1.332.53c.801.323 1.525.94 2.371 1.278.573.229 1.108.447 1.581.67l-.096.003c.316.037.418.375.869.467-.123-.237.103-.037.222.058l-.096.2c.58.429 1.518.621 1.964 1.129l.14-.032-.019.04-.025-.012.007.052c.881.446 1.955.887 2.812 1.468l-.359-.168c-.461-.275-1.117-.567-1.655-.875zm-4.024-.033c-.132-.031-.28-.199-.402-.144.132.032.281.2.402.144z"/>
        <path d="M333.127 429.362c-.441.213.129.277.385.021l-.385-.021zm-.369 3.424c-.816.896-.234 1.345-.627 2.248-.92-.383-.104-1.401-1.152-1.966-.213.573.229 1.04.4 1.304-.295.491-.049 1.148-.23 1.788-.371.105-.105-.082-.211-.099-.74.232-.311.347-.953.566-.514-.172-.705-.488-1.117-.692-.436.165.15.212-.264.374-.791-.202-.227-.942-1.086-1.168-.299-.076-.977.012-1.145-.087-.572-.33-.092-1.004-.297-1.509-.266-.646-.711-1.305-.889-2.064l-.229.43c-.609-.435-1.031-.922-1.301-1.553-.236-.554-.6-1.053-.936-1.56l-1.178-1.71c-.209-.308-.873-.444-1.199-.716-1.709-1.42-3.441-2.827-6.357-3.867-.877-.314-2.195-.545-2.707-.982-.377-.317-.584-.809-.889-1.2-.141-.182-.529-.333-.193-.73.377-.461 1.42-1.033.963-1.296.264-.042.273.031.385.068.225-.267.982-.479 1.287-.745.322-.072.129.065.373.024.266-.156.754-.417 1.193-.366.312-.216.904-.453.768-.633.674-.096 1.156-.217 1.938-.316 4.359.059 4.611 1.229 6.559 1.835 1.129.338 1.576.968 2.65 1.365 1.217.448 2.244 1.186 3.053 1.857.477.397 1.055.789 1.375 1.245.26.372.695.776.957 1.104.545.683-.01 1.838.551 2.592.377.512.711 1.009.908 1.5-.197.065-.158.001-.195-.021.492.149-.41.725.164 1.005.535-.418.318-.028.242.161l-.842.291c-.283.857.896 1.486.072 2.445l.375.003c-.021.043-.162.07-.168.055l-.01-.028c-.146.042-.156.063-.16.084.219 1.016.803 2.149.477 3.418l-.117-.42c.049-.624-.232-1.347-.238-2.034zm-7.588-1.357c-.154-.084.109-.389-.307-.331.153.084-.109.388.307.331z"/>
        <path d="M324.918 371.927c.67.491 3.564.002 1.703-.341l-1.703.341zm36.244 2.372c3.48.72 6.951 1.113 10.639 1.559 3.689.452 7.592.931 11.951 2.008-7.42-.505-15.824-2.286-25.779-1.948 5.623.632 12.361.855 15.863 1.145 2.234.447 5.375.895 8.814 1.552 3.445.671 7.174 1.496 10.701 3.017-.076.375-1.375-.425-1.941-.491.064.426.811.769 1.596 1.16.785.386 1.621.851 1.762 1.298-2.014-.721-4.031-1.212-6.049-1.617-2.014-.398-4.016-.685-5.902-.84.395.527 2.949.457 3.383 1.02-5.053-.398-11.551-1.906-17.191-1.608-1.959.104-3.414.676-5.174.692-5.967.064-12.02-.839-18.645-.977-8.516-.174-17.922-.052-27.461-.2.662.487 3.371-.082 4.064.389-7.504.368-14.912.589-23.379.475-3.709-.032-7.383-.179-11.049-.142l-10.967.07-24.73.326c-4.443.062-8.752.61-13.22.786-23.331.934-46.465 1.657-68.12 2.746-6.527.332-13.39.996-19.666.778-4.612-.159-10.441-.708-15.479-1.144-2.325-.197-5.009-.208-8.224-1.088-3.595-.993-6.362-2.577-10.406-2.861.331-.214 1.14-.075 1.763-.073-2.114-.63-2.681-1.523-4.867-2.267.11-.313 1.171.094 1.421-.116-1.07-.477-2.749-1.327-.803-1.402-1.653-.65-2.709-1.478-5.221-1.854.873-.527.876-1.033 2.022-1.618 6.726-.911 13.944-.817 21.314-.572 7.364.247 14.874.649 22.03.438 8.304-.241 17.849.174 26.993-.271 10.376-.485 23.789-.807 35.399-1.147 6.873-.193 14.068-.521 20.933-.606 5.579-.068 12.262-.296 17.256-.396 10.416-.21 21.598.782 32.6.687l20.6.057c-.057.207-.615.145-1.012.168 3.609-.378 6.451.683 11.826.271-2.562-.662.922-.303 2.717-.156l-.006.891c8.508.605 19.781-.164 27.271 1.163l1.385-.312c.387.047.184.184-.006.178l-.344-.012c-.068.15.129.172.338.19 5.992.254 12.525.52 19.178 1.103 6.672.617 13.395 1.422 20.084 3.42-1.76-.45-3.467-.803-5.156-1.109-6.762-1.464-15.59-2.145-23.106-2.76zm-44.109 5.764c-1.588.105-4.055-.262-5.082.142 1.588-.103 4.054.261 5.082-.142zM197.669 458.59c-.773-.494-4.109-.013-1.964.336l1.964-.336zm-41.546-2.121c-7.952-1.235-15.795-1.026-25.456-1.981 8.07-.504 17.712.858 29.026.282-6.445-.518-14.098-.44-18.031-.468-5.079-.571-14.202-.816-21.534-1.45-.05-.389 1.395-.026 1.966-.102-.355-.789-3.303-.52-3.876-1.221 3.993-.292 8.731-.214 12.956-.412-.526-.483-3.325-.026-3.902-.493 5.626-.503 13.18.486 19.593-.096 2.232-.199 3.872-.835 5.898-.914 6.87-.276 13.876.536 21.515.633 9.821.121 20.681.05 31.696.228-.764-.489-3.893.071-4.693-.401 8.666-.35 17.224-.524 26.999-.527 8.56 0 16.998-.153 25.427-.288l28.557-.521c5.143-.129 10.172-.499 15.338-.472 13.467.079 26.895.354 39.555-1.343 6.283-.864 12.42-2.243 17.551-4.645 2.551-1.196 4.805-2.664 6.506-4.341.242-.218.352-.38.529-.56l.74-.815.025-.027.012-.014-.375.376.029-.043.059-.088.117-.173.225-.352c.145-.238.283-.478.414-.721.521-.973.928-1.999 1.232-3.076.742-2.596.83-5.598.568-8.702-.258-3.108-.852-6.316-1.416-9.472-.809-4.636-2.145-10.764-3.635-16.154-.68-2.489-1.723-5.283-2.211-9.054-.533-4.24-.244-7.85-1.527-12.6.324.304.504 1.283.748 1.987-.23-2.646.375-3.635.332-6.48.332.021.311 1.419.6 1.633.068-1.432.33-3.681 1.047-1.432.08-2.146.484-3.655.346-6.891.342.421.641.655.953.915.316.251.643.527 1.068 1.127 1.289 3.814 2.773 7.499 4.223 11.341 1.457 3.828 2.904 7.772 4.273 11.82 2.73 8.102 5.207 16.553 6.816 25.109.902 4.966 1.324 10.645.098 16.733-.621 3.027-1.723 6.149-3.436 9.05-.426.725-.889 1.434-1.385 2.12-.248.342-.504.682-.77 1.013l-1.062 1.142-.18.189-.25.238-.502.474c-.352.335-.637.565-.957.85-.627.536-1.266 1.05-1.918 1.527-2.957 2.195-6.387 3.93-9.969 5.268-3.59 1.342-7.342 2.306-11.111 3.031-7.547 1.438-15.16 1.941-22.113 2.167-8.234.257-16.721.2-24.615-.037-3.205-.095-6.695-.157-10.02-.142-1.676.007-3.242.038-4.832.087l-4.641.124c-12.029.284-24.928-.632-37.58-.391-8.588.16-16.625.275-23.9.252.064-.208.716-.146 1.177-.171-4.198.389-7.5-.676-13.716-.279 2.964.671-1.065.301-3.139.147l.009-.891c-9.834-.639-22.778.096-31.356-1.149l-1.576.327c-.444-.043-.215-.183.003-.178l.393.008c.074-.151-.15-.171-.389-.187-13.706-.366-29.787-.57-43.917-1.749l5.493.196c7.363.477 17.328.713 25.878 1.109zm50.633-5.988c1.834-.102 4.683.271 5.87-.134-1.834.104-4.683-.267-5.87.134zM118.275 421.75c.498.054.189-.606-.23-.407l.23.407zm3.888-5.273c1.491-.567 1.717-1.791 3.038-2.665.01 1.406-1.669 2.084-1.704 3.962.763-.663 1.064-1.763 1.29-2.306.746-.418 1.419-1.562 2.321-2.222.319.217-.051.209-.019.332.664.403.593-.158 1.19.174.039.712-.251 1.303-.283 1.972.426.194.178-.426.592-.243.165 1.01-1.012 1.47-.789 2.595.082.389.562.9.554 1.191-.027.979-1.021 1.476-1.398 2.397-.479 1.177-.793 2.546-1.311 3.855.487.06.055-.507.53-.452.047 1.18-.032 2.264-.299 3.453-.232 1.043-.289 2.107-.345 3.16-.06 1.173-.054 2.329-.04 3.566.008.641.51 1.318.657 1.968.767 3.401 1.771 6.711 4.04 9.975.684.984 1.809 2.058 2.11 3.017.222.703.22 1.587.341 2.372.055.362.354.802-.122 1.268-.533.523-1.727.851-1.42 1.518-.257-.078-.237-.201-.324-.308-.318.298-1.113.334-1.513.645-.327-.05-.086-.198-.328-.262-.314.145-.878.351-1.256.006-.383.228-1.029.293-.985.676-.658-.196-1.154-.247-1.912-.494-3.954-2.399-3.702-4.551-5.25-6.723-.899-1.244-1.057-2.624-1.871-4.007-.926-1.565-1.538-3.6-1.935-5.419-.235-1.075-.545-2.23-.574-3.333l-.184-2.826c-.043-1.739 1.175-3.425 1.316-5.298.098-1.279.261-2.496.553-3.572.197.068.113.147.12.223-.213-.737.921-.913.795-1.954-.753.232-.246-.255-.011-.515l.842.291c.99-1.213.901-3.418 2.458-4.167l-.219-.37c.061-.047.175.047.161.076l-.026.055c.133.075.162.051.187.022.984-1.837 2.045-4.127 3.818-5.528l-.468.69c-.803.813-1.539 2.147-2.327 3.205zm3.45 9.138c.036.257-.403.502-.056.768-.04-.258.398-.498.056-.768zM155.737 406.542c-.016.127.194.084.129-.037l-.129.037zm1.834 1.186c.296.396.721.438 1.153.751l-1.489-.405c.283.218.693.288.896.34.219.19.684.337 1.032.535-.025.093-.077-.004-.113.01-.04.191.14.148.12.32-.238.04-.491-.014-.736-.005l.175.151-1.072-.187c-.137.02-.281.146-.397.137-.396-.033-.699-.33-1.089-.489-.505-.201-1.075-.406-1.612-.699l.194.196c-.479-.117-.934-.284-1.417-.543l-1.271-.652c-.469-.245-.926-.498-1.408-.79-.249-.15-.562-.203-.827-.343-1.391-.724-2.711-1.564-4.15-2.343-.435-.232-.969-.446-1.31-.772-.249-.24-.5-.596-.734-.897-.104-.143-.285-.271-.307-.546-.025-.299.129-.633-.096-.895.07-.006.097.055.141.089-.009-.186.138-.328.168-.489l.116.045c.04-.095.118-.252.261-.182.038-.136.153-.268.068-.41l.493-.091c1.294.37 1.749 1.189 2.609 1.667.487.267.896.675 1.427.933.599.293 1.285.718 1.885 1.065.354.207.743.396 1.082.612.275.178.629.354.885.495.531.293.958.84 1.55 1.113.399.186.776.352 1.106.521l-.074.011c.236.011.268.318.604.361-.063-.213.083-.044.163.033l-.098.199c.4.348 1.101.418 1.408.835l.109-.05-.017.041-.019-.008.001.049c.651.301 1.454.539 2.109.921l-.274-.089c-.35-.175-.846-.335-1.245-.545zm-3.172.439c-.104-.02-.205-.169-.311-.106.104.019.206.168.311.106zM237.721 403.861c-.038.122.175.114.133-.016l-.133.016zm1.538 1.49c.192.443.585.572.915.97-.451-.058-.718-.55-1.312-.699.222.263.588.418.769.508.16.231.56.472.833.743-.048.083-.07-.021-.108-.016-.086.174.092.173.028.334-.232-.015-.453-.122-.682-.168l.123.184-.949-.4-.402.056c-.36-.104-.572-.447-.906-.664-.43-.279-.924-.562-1.38-.913l.147.216c-.431-.175-.83-.389-1.249-.682-.368-.257-.749-.484-1.125-.719l-1.279-.787c-.229-.142-.524-.182-.772-.3-1.298-.613-2.597-1.199-3.99-1.417-.42-.065-.914-.044-1.266-.169-.258-.093-.548-.265-.815-.384-.123-.055-.297-.067-.396-.26-.109-.212-.092-.544-.341-.59l.132-.021-.068-.465.117-.031c-.019-.099-.037-.269.114-.297-.04-.129-.017-.301-.159-.363l.348-.359c1.22-.487 2.029.058 2.989.197.561.083 1.081.368 1.671.512.67.161 1.451.498 2.106.812.387.186.804.365 1.161.585.29.179.656.366.918.52.546.319.946.903 1.513 1.235.384.226.738.439 1.043.652l-.075.001c.234.042.22.352.543.444-.029-.219.089-.03.156.058l-.129.181c.33.405 1.001.591 1.209 1.06l.116-.029-.025.037-.017-.012-.009.049c.562.414 1.271.814 1.791 1.334l-.235-.149-1.053-.794zm-3.104-.09c-.095-.032-.165-.189-.275-.142.094.033.164.19.275.142zM278.236 404.262c-.039.123.189.137.143-.002l-.143.002zm1.651 1.744c.195.489.611.688.943 1.16-.48-.139-.742-.698-1.379-.937.232.302.617.521.807.644.16.267.574.586.844.921-.059.076-.074-.036-.115-.038-.107.164.084.196.002.349-.248-.058-.471-.211-.711-.297l.115.21c-.357-.065-.574-.482-.977-.562h-.426c-.375-.154-.584-.531-.93-.791-.445-.333-.963-.668-1.445-1.064l.156.233c-.455-.214-.875-.461-1.32-.789-.389-.287-.795-.543-1.193-.806l-1.359-.888c-.242-.161-.555-.222-.816-.362-1.375-.734-2.729-1.483-4.211-2.027-.449-.162-.988-.273-1.359-.515-.271-.179-.566-.458-.84-.684-.127-.103-.312-.186-.389-.429-.08-.267-.006-.628-.266-.784l.148.037c-.051-.167.076-.323.053-.493l.125.012c.01-.104.041-.276.199-.249-.004-.142.07-.301-.053-.415l.449-.225c1.35-.014 2.006.734 2.959 1.08l1.607.793c.656.252 1.42.666 2.074 1.031.389.217.809.425 1.176.669.297.198.676.409.949.58.568.355 1 .977 1.605 1.356.412.258.795.504 1.125.751l-.08-.006c.252.063.242.384.59.51-.035-.23.096-.024.168.073l-.135.177c.357.449 1.082.722 1.303 1.238l.125-.015-.027.035-.018-.014-.01.049c.6.505 1.355 1.039 1.881 1.684l-.244-.201c-.292-.308-.747-.657-1.1-1.001zm-3.307-.433c-.1-.039-.174-.207-.291-.166.1.04.176.207.291.166zM214.564 432.204c.033.132.314.06.168-.055l-.168.055zm3.141.953c.584.355 1.216.335 1.961.585-.662.113-1.39-.249-2.308-.189.492.179 1.109.188 1.422.212.39.158 1.115.235 1.692.382-.005.097-.113.008-.161.026.01.196.254.127.285.301-.331.075-.714.061-1.062.104l.305.125-1.599-.026c-.188.04-.344.188-.512.196-.571.026-1.111-.229-1.725-.332-.789-.136-1.67-.257-2.539-.488l.354.174c-.715-.052-1.41-.167-2.187-.371l-2.022-.527c-.747-.202-1.476-.422-2.256-.68-.401-.134-.837-.157-1.251-.277-2.165-.625-4.269-1.418-6.37-2-.634-.175-1.351-.286-1.909-.55-.409-.194-.887-.505-1.312-.75-.197-.112-.453-.197-.648-.471-.219-.308-.279-.716-.648-.873.061-.037.125.014.188.029-.13-.185-.055-.377-.17-.578l.155.007c-.039-.123-.089-.33.114-.306-.074-.168-.066-.36-.271-.489.161-.09.23-.194.426-.29 1.609-.092 2.797.798 4.146 1.186.776.226 1.562.647 2.399.885.95.271 2.11.696 3.112 1.036.593.205 1.224.381 1.802.593.471.172 1.05.335 1.477.464.887.271 1.754.814 2.715 1.036l1.807.417-.1.021c.342-.022.525.302 1.024.299-.188-.209.098-.057.247.013l-.05.217c.722.308 1.759.285 2.377.664l.137-.066-.007.044-.031-.006.023.05c1.061.214 2.323.337 3.422.622l-.434-.049c-.574-.128-1.358-.216-2.018-.37zm-4.302.881c-.153-.004-.357-.147-.476-.07.152.008.358.149.476.07zM290.311 429.673c0 .136.287.13.174-.016l-.174.016zm2.726 1.7c.441.499 1.031.661 1.637 1.119-.643-.086-1.199-.647-2.072-.833.408.298.969.485 1.252.594.309.264.949.55 1.424.866-.037.09-.105-.027-.156-.023-.055.188.189.197.16.37-.324-.028-.666-.159-.996-.221l.236.209c-.467-.024-.916-.442-1.441-.482-.184-.015-.369.084-.523.047-.527-.126-.945-.509-1.48-.755-.689-.315-1.469-.631-2.227-1.019l.289.238c-.65-.192-1.271-.427-1.955-.745-.6-.279-1.205-.524-1.807-.775l-2.045-.842c-.365-.151-.775-.188-1.156-.312-1.996-.65-3.979-1.279-5.961-1.542-.598-.08-1.266-.067-1.801-.219-.393-.112-.861-.316-1.279-.461-.193-.067-.439-.09-.652-.309-.24-.245-.352-.615-.709-.679.051-.049.115-.018.174-.017l-.258-.515.146-.03c-.059-.108-.145-.296.051-.32-.102-.145-.129-.331-.344-.407l.344-.379c1.486-.475 2.764.146 4.1.312.777.097 1.578.413 2.414.564.949.172 2.117.528 3.113.858.59.196 1.215.383 1.785.617l1.445.552 2.57 1.344c.615.247 1.189.482 1.695.721l-.102.001c.336.047.453.392.932.497-.135-.243.107-.034.236.065l-.096.2c.623.452 1.617.676 2.098 1.203l.146-.028-.02.04-.027-.013.01.053c.938.479 2.076.956 2.988 1.564l-.381-.18-1.757-.928zm-4.24-.155c-.141-.034-.301-.209-.428-.155.139.035.301.209.428.155z"/>
    </g>
    <g id="ke" opacity="0.4">
        <g id="ke__1">
            <path d="M198.762 129.837c-.253.097-.044.634.149.318l-.149-.318zm-1.369 6.337c-.66 1.169-.596 2.402-1.102 3.853-.224-1.288.494-2.711.279-4.497-.299.971-.297 2.163-.328 2.773-.307.757-.463 2.163-.79 3.268-.192-.017-.01-.219-.047-.313-.392.006-.263.482-.612.526-.14-.64-.087-1.372-.172-2.039l-.256.575c-.235-.902.285-2.013.027-3.036-.088-.356-.395-.643-.424-.959-.101-1.072.348-2.106.45-3.275.133-1.503.187-3.171.38-4.851l-.243.701c-.096-1.343-.097-2.659.005-4.154.092-1.309.109-2.605.141-3.899l.085-4.385c.017-.788-.211-1.571-.253-2.369-.225-4.166-.438-8.298-1.224-12.248-.236-1.19-.681-2.464-.717-3.597-.029-.832.084-1.87.118-2.774.019-.417-.076-.912.223-1.461.339-.618.995-1.062.924-1.803.122.071.094.215.125.333.202-.365.61-.41.854-.773.161.037.02.209.136.267.178-.17.495-.432.645-.071.225-.268.571-.418.602-.87.311.19.559.217.914.461 1.691 2.603 1.246 5.345 1.763 7.951.303 1.508.224 3.195.496 4.84.31 1.868.447 4.251.537 6.313.053 1.221.15 2.5.125 3.713-.021.985.02 2.172.017 3.056-.006 1.843-.617 3.778-.639 5.728-.017 1.324-.045 2.564-.132 3.684-.103-.019-.065-.117-.073-.188.15.663-.412 1.126-.274 2.103.361-.428.139.178.044.491l-.444-.041c-.411 1.488-.152 3.527-.83 4.797l.151.261c-.024.067-.092.024-.088-.009l.007-.061c-.075-.019-.086.015-.096.051-.278 2.107-.463 4.604-1.085 6.746l.115-.848c.254-1.121.419-2.662.666-3.97zm-2.585-8.092c-.033-.285.181-.706-.009-.905.033.285-.18.705.009.905zM266.646 135.164c-.253.304-.124 1.71.118.83l-.118-.83zm-8.158 16.04c-3.343 1.868-7.041 3.028-11.144 2.507 1.7-.112 3.614-.154 5.726-.691 2.089-.52 4.385-1.644 6.104-3.552-1.119.928-2.452 1.82-3.755 2.445-1.3.632-2.538 1.016-3.38 1.207-1.117.129-2.646.247-4.238.149-1.594-.089-3.238-.378-4.633-.791.016-.191.545.082.776.078-.075-.404-1.233-.471-1.372-.863 1.533.168 3.355.438 5.014.335-.199-.232-1.293-.046-1.495-.3 1.086-.051 2.345.024 3.661-.077 1.311-.092 2.686-.376 3.797-.987.776-.426 1.189-1.003 1.809-1.437 2.084-1.468 4.095-3.301 5.303-5.913 1.544-3.34 2.031-7.39 1.929-11.398-.226.286.081 1.421-.163 1.713-.174-3.151-.652-6.212-1.559-9.609-.826-2.955-1.988-5.818-3.646-8.312-1.906-2.756-4.4-4.989-7.404-6.816-1.559-.946-3.255-1.507-4.957-2.124-4.454-1.619-9.151-2.397-13.744-2.6-4.598-.199-9.112.191-13.324 1.064-2.545.522-5.111 1.414-7.463 1.984-1.734.412-3.929.887-5.763 1.452-.848.262-1.769.68-3.013.84-1.385.182-2.649.006-3.98.743.05-.166.336-.274.535-.401-.814.164-1.21-.099-2.072.079-.048-.159.384-.225.409-.371-.453.036-1.195.063-.608-.416-.691.107-1.183-.016-2.14.505.136-.444-.006-.651.204-1.189 1.876-2.082 4.584-3.635 7.467-4.821 2.896-1.194 5.992-2.041 8.94-2.907 3.433-1.019 7.538-1.484 11.488-1.961 4.487-.566 10.432-.511 15.587.349 3.047.486 6.265 1.22 9.245 2.395 2.42.933 5.287 2.341 7.311 3.71 2.109 1.411 4.102 3.27 5.779 5.461.84 1.092 1.612 2.255 2.294 3.472l.15.27.048.096.098.191.23.461.426.884.806 1.774c1.409 3.216 2.284 6.374 2.745 9.301-.105-.01-.119-.276-.162-.458.466 1.664.135 3.05.437 5.577.284-1.231.181.434.095 1.293l-.445-.006c-.16 2.008-.33 4.355-.859 6.664-.514 2.299-1.439 4.56-2.673 6.112l-.224.707c-.124.165-.128.037-.074-.047l.096-.153c-.047-.068-.108.015-.172.104-.854 1.316-1.94 2.631-3.287 3.766-1.341 1.138-2.941 2.072-4.627 2.678-3.402 1.237-6.906 1.14-9.777.521.756.119 1.527.206 2.313.253 1.573.15 3.522.117 5.556-.35 2.029-.446 4.104-1.387 5.775-2.59zm4.09-19.574c-.084-.664.005-1.719-.249-2.127.132.66.028 1.705.249 2.127zM244.28 142.091c.139.246.753-.004.362-.173l-.362.173zm7.627.915c1.451.587 2.911.448 4.687.892-1.517.279-3.275-.362-5.373-.028 1.179.233 2.594.163 3.323.161.927.265 2.616.354 3.962.65-.006.193-.262.017-.371.056.037.392.596.25.675.598-.753.157-1.626.132-2.411.247.082.24.611.001.703.232-1.051.271-2.412-.194-3.602.123-.412.109-.725.433-1.096.48-1.257.167-2.521-.21-3.912-.229-1.789-.024-3.765.047-5.767-.019.137.243.708-.045.852.19-1.577.195-3.133.298-4.909.303-1.555.004-3.089.076-4.622.128l-5.198.165c-.935.021-1.849.283-2.793.355-4.935.381-9.839.62-14.614 1.158-1.439.164-3 .5-4.388.411-1.019-.066-2.288-.314-3.397-.497-.511-.083-1.13-.071-1.781-.478-.729-.454-1.189-1.2-2.099-1.293.103-.106.275-.047.42-.053-.414-.279-.453-.709-.88-1.043.066-.152.268.033.354-.069-.197-.222-.482-.602-.015-.663-.315-.291-.415-.667-.94-.806.265-.265.332-.506.666-.802 3.266-1.061 6.353-.213 9.418-.492 1.756-.158 3.71.024 5.622-.191 2.166-.239 4.927-.36 7.322-.485 1.417-.071 2.902-.205 4.317-.225 1.149-.015 2.531-.111 3.563-.154 2.151-.089 4.462.4 6.751.288 1.553-.075 3.011-.137 4.335-.135-.013.104-.131.074-.215.086.765-.199 1.362.327 2.499.116-.539-.328.195-.153.574-.081l-.006.445c1.791.297 4.176-.114 5.745.476l.294-.169c.082.02.037.09-.002.089l-.072-.002c-.016.076.025.085.068.092 2.521.13 5.514.162 8.129.708l-1.023-.081c-1.366-.213-3.217-.289-4.793-.454zm-9.323 3.161c-.334.055-.851-.126-1.068.078.334-.055.849.125 1.068-.078z"/>
        </g>
        <g id="ke__2">
            <path d="M255.104 52.385c-.036-.246-.255.001-.13.171l.13-.171zm-2.491-.906c-.425-.577-.92-.41-1.454-.806.526-.314 1.04.279 1.757-.057-.364-.23-.831-.14-1.07-.121-.276-.246-.816-.299-1.222-.527.024-.191.087-.028.128-.072.035-.386-.165-.221-.148-.561.264-.189.545-.202.809-.336l-.199-.208c.367-.305.751.129 1.162-.208.142-.116.271-.441.392-.493.407-.175.771.184 1.206.203.557.024 1.176-.048 1.797.018l-.258-.187c.498-.206.978-.294 1.524-.32.479-.013.95-.102 1.417-.189.521-.086 1.029-.217 1.572-.331.281-.068.535-.377.809-.506 1.423-.683 2.789-1.464 3.869-2.903.326-.428.617-1.094.945-1.343.246-.182.564-.283.824-.435.121-.069.231-.264.461-.093.273.185.586.704.794.463.011.133-.041.141-.068.198l.476.625-.047.193c.102.128.271.364.198.594.146.148.288.439.438.359.025.341.085.583.105.98-.344 2.247-1.365 2.44-2.151 3.448-.454.592-1.075.817-1.62 1.363-.623.614-1.502 1.107-2.285 1.47-.464.208-.951.469-1.432.582-.393.088-.857.266-1.211.351-.74.185-1.556-.248-2.334-.1-.531.087-1.033.168-1.486.164.006-.104.047-.074.075-.087-.267.199-.456-.327-.849-.115.172.328-.072.153-.198.082l.02-.445c-.588-.307-1.415.107-1.896-.483l-.111.169.008-.088.023.002-.016-.091c-.827-.122-1.818-.128-2.621-.575l.329.046c.427.178 1.032.213 1.538.37zm3.201-3.167c.105-.055.262.125.334-.08-.105.056-.259-.123-.334.08zM312.863 71.917c-.086.302.613.861.435.315l-.435-.315zm4.123 9.974c.084 2.131.688 4.088.548 6.606-.522-1.997-.358-4.579-1.67-7.207.351 1.604.894 3.462 1.09 4.449.014 1.307.247 3.61-.003 5.446-.193.011-.031-.348-.076-.491-.389.09-.217.82-.561.953-.184-.981-.242-2.131-.477-3.14-.223.145.082.8-.133.952-.385-1.317-.216-3.169-.903-4.595-.245-.49-.649-.784-.839-1.219-.62-1.474-.857-3.115-1.638-4.727-.998-2.062-2.419-4.154-3.948-6.185l.509.973c-1.353-1.48-2.71-2.885-4.282-4.467-1.387-1.368-2.844-2.651-4.393-3.767-1.725-1.267-3.47-2.445-5.363-3.686-.979-.64-2.072-1.048-3.101-1.615-5.362-2.955-10.887-5.595-16.304-6.898-1.631-.389-3.398-.542-4.85-.928-1.068-.291-2.363-.73-3.467-.96-.512-.111-1.106-.099-1.726-.457-.679-.393-1.216-1.072-1.976-.933.062-.129.211-.117.335-.151-.398-.179-.509-.576-.933-.76.006-.169.218-.052.262-.175-.216-.16-.568-.408-.197-.628-.163-.082-.347-.21-.482-.292-.076-.042-.146-.081-.25-.1-.133-.01-.277-.003-.443.028.158-.361.105-.605.325-1.026.646-.588 1.608-.968 2.563-1.151.971-.187 1.992-.204 3.007-.127 2.036.16 4.04.679 5.997 1.038 2.282.419 4.696 1.448 7.1 2.217 2.741.865 6.095 2.392 8.91 3.844 1.669.857 3.42 1.753 5.006 2.738 1.291.798 2.856 1.727 4 2.468 1.191.771 2.329 1.712 3.471 2.691l3.582 3.099c1.631 1.377 3.079 2.747 4.305 4.125-.09.057-.176-.086-.264-.164.859.659 1.006 1.626 2.149 2.737-.21-.798.294.117.554.589l-.359.264 2.208 3.5c.731 1.228 1.339 2.509 1.536 3.643l.324.307c.029.114-.061.087-.082.035l-.04-.094c-.077.012-.062.069-.042.128.672 1.652 1.281 3.518 1.674 5.451.383 1.934.542 3.932.391 5.77.002-.475-.026-.951-.048-1.426.014-1.927-.435-4.515-.996-6.682zm-8.719-9.301c-.31-.294-.586-.92-.924-.994.321.284.591.909.924.994zM236.376 61.662c-.274-.248-1.438.024-.685.18l.685-.18zm-14.559.457c-2.852-.046-5.515.724-8.862 1.36 2.626-1.164 6.07-1.429 9.952-2.437-2.297.149-4.935.832-6.272 1.202-1.809.188-4.921 1.064-7.428 1.767-.085-.176.453-.2.629-.308-.255-.328-1.178.198-1.494-.051 1.263-.69 2.868-1.261 4.28-1.84-.254-.172-1.137.377-1.405.23 1.837-.943 4.589-1.271 6.777-2.107.764-.294 1.281-.739 1.998-.935 2.436-.671 5.037-.699 7.811-.97 3.572-.352 7.552-.59 11.586-.42-.275-.253-1.426.016-1.717-.218 3.181-.17 6.342-.103 9.922.276 3.134.339 6.22.744 9.28 1.309 3.406.63 6.737 1.394 10.263 2.441 1.826.544 3.636.872 5.504 1.505 9.379 3.418 18.402 7.523 26.919 11.236 2.568 1.119 5.342 2.167 7.682 3.486 1.712.96 3.824 2.358 5.621 3.508l1.308.799c.463.293.97.649 1.517 1.16 1.229 1.177 2.137 2.481 3.807 4.093-.209-.042-.519-.396-.795-.602.739.99.708 1.565 1.257 2.711-.152.063-.402-.51-.576-.529.256.601.505 1.543-.199.809.333.845.378 1.571.855 2.665-.436-.176-.643-.042-1.205-.351-1.096-1.16-2.314-2.111-3.611-2.867-1.294-.765-2.668-1.404-4.069-2.147-2.796-1.521-5.503-3.15-8.273-4.44-3.198-1.499-6.704-3.521-10.262-5.058-4.031-1.755-9.172-4.103-13.658-5.981-2.655-1.116-5.465-2.188-8.112-3.25-1.896-.738-4.61-1.516-6.525-2.033-4.042-1.105-8.351-2.583-12.766-3.155-2.989-.388-5.796-.622-8.333-.796.029-.102.254-.057.416-.058-1.476.098-2.604-.498-4.791-.34 1.029.354-.375.141-1.099.065l.007-.445c-3.469-.351-7.974.331-11.015.134l-.527.237c-.157 0-.086-.08-.01-.088l.137-.015c.017-.078-.063-.077-.146-.074-4.799.471-10.289 1.693-15.077 2.906.608-.196 1.219-.382 1.834-.559 2.492-.624 5.885-1.442 8.865-1.825zm17.857-4.498c.674-.038 1.708.188 2.152.007-.673.019-1.711-.2-2.152-.007zM310.478 107.487c-.176.295.311 1.284.317.572l-.317-.572zm-.992 14.591c-.931 1.406-2.015 2.748-3.377 3.83-1.354 1.083-2.954 1.876-4.684 2.259 1.327-.634 2.893-1.279 4.425-2.507 1.521-1.207 2.872-3.102 3.325-5.217-.467 1.132-1.11 2.369-1.887 3.392-.771 1.026-1.638 1.811-2.254 2.271-.871.5-2.085 1.104-3.396 1.502-1.311.415-2.699.638-3.909.693-.045-.185.45-.098.63-.172-.182-.357-1.103-.058-1.324-.382 1.236-.333 2.735-.635 4.001-1.233-.236-.156-1.025.347-1.265.17.823-.381 1.827-.682 2.823-1.179.994-.478 1.972-1.186 2.573-2.078.419-.625.458-1.246.732-1.804.909-1.896 1.639-3.961 1.625-6.283-.026-2.968-.802-6.11-1.652-9.229l.194 1.378-2.732-7.416c-.867-2.344-1.933-4.569-3.104-6.727-1.303-2.404-2.731-4.682-4.376-7.054-.853-1.225-1.908-2.25-2.867-3.396-2.508-2.992-5.176-5.814-7.95-8.415-.698-.658-1.373-1.262-2.116-1.929-.671-.598-1.366-1.165-2.077-1.706-1.427-1.079-2.923-2.05-4.454-2.946-1.848-1.081-3.965-2.014-5.715-3.209-1.286-.877-2.852-2.136-4.241-3.252-.64-.516-1.456-1.025-2.161-2.014-.789-1.11-1.117-2.279-2.234-3.268.171-.006.367.222.553.358-.426-.694-.295-1.146-.685-1.901.142-.083.313.292.458.273-.151-.403-.356-1.099.244-.681-.267-.612-.292-1.153-.825-1.8.426.003.607-.169 1.127-.127 2.19 1.156 4.178 2.512 6.22 3.921 2.034 1.403 4.099 2.843 6.229 4.036 2.473 1.387 5.108 3.331 7.789 5.196.761.529 1.564 1.13 2.378 1.809.408.336.818.692 1.228 1.066l1.155 1.059c1.561 1.458 3.1 2.992 4.495 4.475 1.651 1.75 3.373 3.616 4.856 5.538 1.211 1.554 2.653 3.445 3.662 4.917 2.114 3.072 3.651 6.818 5.352 10.394.577 1.218 1.1 2.42 1.562 3.594l.633 1.68.559 1.594c-.104.015-.14-.182-.196-.31.597 1.146.418 2.26 1.167 4.06.054-.981.244.275.345.93l-.43.114c.264 1.527.712 3.289.984 5.114.275 1.817.351 3.727-.033 5.285l.129.593c-.035.165-.097.072-.088-.009l.014-.145c-.075-.033-.087.048-.103.136-.141 1.262-.408 2.641-.957 4.054-.542 1.409-1.406 2.846-2.555 4.021-1.144 1.182-2.521 2.063-3.874 2.65-1.36.588-2.7.901-3.951 1.064.642-.129 1.287-.278 1.941-.481 1.322-.354 2.94-.999 4.462-2.152 1.527-1.133 2.831-2.79 3.602-4.404zm-3.677-16.19c-.205-.501-.285-1.354-.587-1.623.218.496.294 1.346.587 1.623z"/>
        </g>
        <g id="ke__3">
            <path d="M339.029 32.724c-.155.214.292.452.285.127l-.285-.127zm1.882 5.228c-.087 1.182.466 2.097.496 3.446-.643-.928-.532-2.328-1.498-3.533.159.84.629 1.725.831 2.208.011.698.359 1.85.373 2.836-.188.046-.074-.171-.138-.234-.368.128-.105.463-.425.601-.317-.457-.49-1.031-.794-1.497l-.053.516c-.501-.584-.405-1.586-1.026-2.201-.212-.213-.602-.274-.746-.476-.501-.672-.532-1.562-.96-2.369-.548-1.032-1.278-2.089-1.952-3.197l.146.562c-.724-.745-1.381-1.497-2.07-2.401-.604-.793-1.275-1.514-1.945-2.229-.748-.798-1.511-1.556-2.33-2.372-.424-.421-1.021-.666-1.496-1.044-2.489-1.981-4.999-3.875-7.837-5.451-.856-.475-1.919-.878-2.604-1.507-.502-.461-1.021-1.147-1.512-1.727-.227-.266-.585-.516-.662-1.055-.089-.604.19-1.278-.27-1.719.138-.024.194.085.282.143-.034-.351.255-.647.249-1.043.15-.068.134.137.26.109.047-.227.16-.586.479-.427.029-.321.258-.58.059-.872.349-.06.566-.182.979-.234 2.667.627 3.711 2.297 5.516 3.312l3.003 2.103c1.254.718 2.69 1.807 3.924 2.795.729.585 1.528 1.176 2.202 1.833l1.76 1.623c1.051 1.011 1.707 2.514 2.777 3.675.728.791 1.391 1.57 1.933 2.331-.09.053-.113-.033-.158-.073.478.327.288.965.913 1.517.059-.498.207.03.294.297l-.377.238c.447 1.203 1.683 2.479 1.693 3.76l.251.111c.011.061-.067.064-.08.038l-.022-.047-.058.085c.739 1.652 1.608 3.706 1.713 5.688l-.178-.731c-.143-1.01-.594-2.291-.942-3.388zm-5.942-3.977c-.164-.149-.207-.525-.456-.525.169.146.21.52.456.525zM222.286 21.664c-.229-.105-.208.275.033.24l-.033-.24zm-2.515 2.281c-.755.264-.83.875-1.329 1.358-.185-.656.596-1.076.703-2.05-.438.353-.586.956-.662 1.236-.354.259-.572.884-.831 1.308-.189-.038-.02-.099-.059-.147-.382-.067-.239.176-.582.151-.162-.329-.112-.704-.157-1.084l-.271.251c-.196-.565.396-1.037.315-1.706-.024-.236-.256-.53-.218-.728.121-.681.762-1.076 1.161-1.671.517-.773 1.083-1.655 1.811-2.425l-.43.226c.377-.776.852-1.475 1.496-2.175.564-.613 1.085-1.254 1.629-1.876.604-.692 1.2-1.375 1.86-2.092.34-.371.51-.911.817-1.326 1.599-2.168 3.228-4.302 4.239-6.788.305-.749.479-1.684.864-2.264.284-.427.728-.861 1.057-1.284.152-.195.242-.503.635-.574.437-.077 1.057.135 1.219-.284.07.116.007.17-.004.249.259-.05.582.183.864.159.112.122-.043.118.028.222.182.029.498.095.507.375.245.01.565.136.735-.097.178.301.36.471.554.83.476 2.513-.94 3.736-1.601 5.429-.392.991-1.144 1.792-1.641 2.802-.564 1.149-1.478 2.406-2.275 3.451-.474.619-.936 1.294-1.447 1.845-.417.448-.863 1.032-1.212 1.442-.729.853-1.903 1.331-2.617 2.233-.482.609-.92 1.172-1.338 1.644-.073-.075-.013-.097.004-.135-.093.406-.675.27-.855.82.41.021.056.169-.106.259l-.338-.289c-.771.471-1.051 1.587-1.868 1.835l.078.202-.074-.05.017-.025-.091-.024c-.66.88-1.086 1.94-1.601 2.606l.096-.309c.245-.388.503-1.023.918-1.53zm-.069-5.564c.071-.172.385-.259.308-.481-.075.169-.388.259-.308.481zM364.512 94.67c-.103.578.616 2.812.472 1.303-.214.173-.252-1.48-.472-1.303zm-2.245 29.06c-2.589 5.057-5.337 9.887-9.96 14.697 1.674-2.198 3.591-4.566 5.405-7.396 1.811-2.817 3.52-6.123 4.566-9.951-.793 2.119-1.769 4.376-2.78 6.365-1.01 1.988-2.034 3.713-2.775 4.851-1.068 1.4-2.553 3.341-4.295 5.291-1.735 1.958-3.721 3.922-5.595 5.541-.163-.111.655-.672.9-.97-.452-.096-1.763 1.383-2.292 1.395 1.826-1.938 4.047-4.198 5.769-6.441-.409.122-1.449 1.684-1.892 1.811 1.159-1.47 2.602-3.117 3.987-4.908 1.379-1.792 2.685-3.743 3.582-5.688.623-1.356.81-2.47 1.313-3.706 1.687-4.18 3.291-8.601 3.692-13.663.541-6.498-.644-13.676-2.804-20.566-.076.55.794 2.431.693 3.008-1.698-5.423-3.88-10.581-6.703-16.296-2.492-4.999-5.472-9.65-8.774-14.035-3.682-4.883-7.708-9.367-12.345-13.867-2.398-2.323-4.966-4.308-7.558-6.422-6.771-5.522-13.946-10.455-21.223-14.855-7.298-4.377-14.632-8.377-21.907-11.421-4.394-1.85-9.105-3.335-13.328-4.735-3.103-1.046-7.035-2.279-10.45-2.962-1.578-.318-3.383-.521-5.558-1.02-2.421-.545-4.424-1.256-7.097-.964.186-.144.73-.157 1.14-.211-1.455-.107-1.955-.478-3.497-.497.015-.173.774-.139.907-.271-.779-.085-2.031-.194-.763-.553-.603-.023-1.119-.079-1.707-.081-.612.001-1.176.037-2.145.28.479-.448.387-.699 1.016-1.216 4.398-1.957 10.083-2.351 15.663-1.694 5.62.639 11.219 2.218 16.462 3.851 6.112 1.891 12.793 5.068 19.098 8.18 7.156 3.542 16.025 8.748 23.438 13.805 4.386 2.981 8.903 6.253 12.986 9.684 3.326 2.772 7.21 6.245 9.967 9.01 5.785 5.737 10.997 12.866 15.625 20.157 1.573 2.479 2.99 4.954 4.243 7.393 1.24 2.427 2.33 4.779 3.288 7.076-.112 0-.258-.421-.393-.706 1.291 2.574 1.661 4.854 3.153 8.879-.303-2.062.383.653.691 2.068l-.43.118c.773 3.316 1.61 7.209 1.943 11.121.35 3.902.148 7.801-.576 10.804-.012.417.02.719 0 1.139-.069.312-.113.139-.088-.015l.045-.278c-.066-.063-.101.095-.133.263-.839 4.834-2.643 9.951-5.308 14.544-2.648 4.608-6.062 8.683-9.594 12.004.886-.888 1.748-1.807 2.587-2.751 1.735-1.857 3.633-4.21 5.363-6.838 1.741-2.626 3.283-5.537 4.448-8.358zm-3.335-33.827c-.421-1.127-.883-2.952-1.356-3.604.483 1.104.929 2.927 1.356 3.604z"/>
        </g>
    </g>
</svg>
