<svg xmlns="http://www.w3.org/2000/svg" viewBox="0 0 500 500"><path class="st0" d="M366.1 364.4c3.7-.7-1.8-.7-4.2-.7-3.3 0-7-.1-8 1.4 3.3.2 8.6-.1 12.2-.7zm-67.4 2.8c-3.3.6-9.9 3.5-12.7.2 4.2.1 9.9-.5 12.7-.2zm8-.9c-4.5 2.2-6.3-.7 0 0zm-41.9 2.3c.4-.1.5.3.5.7 6.8-1.6.1 3.8-.5-.7zm-2.8 1.5c-.9 2.1-5.2-.5-6.1 1.6-1.2-2.2 5.5-1.8 6.1-1.6zm-27.5 8.6c.2-3 4.2-.8 6.1-1.6 2.2 1.3-5.3.1-6.1 1.6zm165.9-1.5c-4.5 2-6.3-.9 0 0zm16 .2c-5.3 2-6.3-1 0 0zm19.4 15.7c-4.3 2.5-12-.5-21.1.4 4.3-1.6 14.6-.1 21.1-.4zm-212.4 15.4c-.3.6-.4 1.6-.4 2.8l-2.8.1c.3-3.4 1.9-.9 3.2-2.9zm-1.5 9.2c-.5 2.6-4 1-5.5 2.3 1-3.5 2.9-1 5.5-2.3zm-68.6 6.8c-.2-1.5 1.6-.4 2.3-.8-.1 1.3-.9 1.8-.7 3.6-1.6-.5-1.1-2.4-1.6-2.8zm3.2-.9c.4.3.8.7 1.4.6.4 1.9-.8 1.5-.8 2.9-.8-.6-1.3-2.4-.6-3.5zm35.3-1.1c-1 1.6-3.5 1.9-5.4 3.8.7-1 1.5-1.8 1.7-3.6 1.8.6 2.6-1.7 3.7-.2zm-40.3 2.8c-.2.6-.4 1.2-.3 2.1-1-3-6 4.6-5.2-1.8 1.7 3.4 3.9-2.8 5.5-.3zm34.8-1.8c-.6 1.1-1.7 1.6-3.2 1.6.2-1.8 2.6-2.3 3.2-1.6zm-17.5 5.1c1.7-.7.8 3.3 1.2 4.9-1.4-.1-1.7-4-1.2-4.9zm-32.1 6.7c-.9-.5-4.4-.2-4.5 2.4-.8-1.6-1-1.3-2.4-.6-.5-1.9.8-1.5.7-2.9 2.6 2 5.3-3.2 6.2 1.1zm3.2-1.6c.5.1.4 1.4 1 1.3-.5 1.5-2.8.6-3.1 2.3-1.3-1.5 1.1-3.5 2.2-2.2-.1-.5-.1-.9-.1-1.4zm-11.1 1.4c0 .7.1 1.4.1 2.1-.8-.1-2.3.9-1.9-1.3.8 0 .9-.9 1.8-.8zm-7.6 4.7c-1-.9 1.8-4.3 2.6-3 .1 2.3-2 1.7-2.6 3zm1.8-.8c.4-.2.5.2.5.7.7-1.1.7-4.8 2.1-3 .1 1.8-1.9.9-1.2 3.6-.8.3-1.4-.1-1.4-1.3zm-8.4-.2c.8 1.1 1.9-.8 3.7-.2-1.3 2.7-3.1 2.1-3.9 4.5-1.4-.9-.1-3.5.2-4.3zm-29 16.2c.8-.3 1.1 3.9-.3 2.8 0-.6.4-.7.4-1.4-2.2-1.2-.4 2.8-2.1 2.3.9-2.9-1.2.2-2.8-.5 1.6-2 3.4-2.4 4.8-3.2zm383.1-67.5c4.1 1.8 14.3-.2 19.6 3.3-7.2-.6-11.1-.6-18.7-.5 0 1.6 2 .4 2.8.8-5.8.2-11.1.2-16.1.2-5 0-9.6 0-14.2-.1l-13.5-.3c-4.5-.1-9.1-.2-13.9-.2-1.5.5-.9 2.3-1.4 2.8l-9.8-.1c.5-3.6-1.3-3.6-2.3-4.9-1.3-.5.3 3.3-1 2.8.1 1.5 1.2 1.5 2.3 1.4-6.4.7-14.3 1.1-22.8 1.3-8.5.2-17.8.3-26.8.7-.3 1.4-2.8-.4-2.3 2.1-6.9-4.9-13.3.2-20.6-1.3 1 2.3-1.7-.3-3.3 2.1-1.2 0-.6-.5-.5-1.4-26.8 1.2-55.2 2.8-73.7 7.1-3.8-1.2-7.9-1.1-13 1.1-8.3.3-17.7-.5-25 5.1-.2-1.2.3-1.3.9-1.4-3.8-.7-10.3-.2-14.9 1.3-1 .1.7 1.7.2 3.5-.9.5-3.1-.7-3.2.8-2.2-2.3 2.7-.2 1.7-2.9-3.2-1.5-6.3.5-9.2 2.5-14.2-1.8-30.7 5.1-41.2 6.4-.7 1.9 2.1 1.2.6 2.1-.8-.2-.8.6-.8 1.5-1.7-.4.1-2.1-1.1-3.4-8.7 2.8-12.8 2.7-18.7 6.7.9-2.7-.8 0-1.5-1.3-1.7 2-2.6 5.1-5.7 5.3-.3-2.3 2.8-1.6 3.9-3.8-6.4.6-12.2.7-18.6 7.6.7 2.9 2.8-1.2 2.9 1.9-3.1 2.8-5.5 4.1-8.6 2.7.1-.8.9-.5.8-1.5-.1 1.2-5.1 1.5-4.7 5.3-2.4-1.9-4.2-.5-4.4 3.8-1.3-.8-3.2-.6-3.9-2.5-.5.7.2 1.7-1.2 2.2 2 3 3.3 1.8 7 .9.8-1.4-.4-1.2-.3-3.5 2 .4.6 2.5 2.6 3.3 3.5-1 3.5-3.3 7.2-3.3-.6 5-5 3.7-7.6 4.8-.6 1.3-3.1 3.6-3 3.7-.6 1.5-1-.7-.6-2.1-4.3 1.2-4.1 4.5-4.6 7.4-1.4-.6-1.7-2-1.2-4.1-3.6 2.2-9.7.6-10 8.5-.5-.4-.6-1.6-1.5-1.3-.5 3.5-3.7-.4-4.3 4.6-2-2.8-4.9.8-6.7 2-.1-1.2-.2-2.3-.3-3.5-2.7.9-4.7 2.8-7 4.1 1.7 3.1 4.1-2.2 6.7-2-6.5 6.2-12.6 9.1-20 13.6 4.3-4.6 8.2-6 13-9.5-1.2-1.7-2.2 1.7-3.3-.4-2.4 3.4-8.4 7-10.6 5.8-1.2 4-5.4 4.6-9.1 7.9-1.7-1.2 1.2-1.7 1.1-2.9-.4-2.3-2 2.3-2-1.2 2.1-.4 2-1.1 2.9 1.1-.3-3.1 1.2-.6 1.1-3.6 1-.4 1 .9 1.1 2 .1-2 .1-4.3 2.1-3-.5-4-4.5-1-4.6 1.1-2.4-.6-5.3-.2-7.3 2.1-1 0-1.2-1.7-1.2-3.4-.1 2-4-1.6-3.2-3.9-3.2-2.3-3.7-1-6.3-3 1.2-2-.5-.8.6-3.6-.6-2-2.1-2.2-3.1-3.2-.6-3 1.2-3 1.4-5.1-2 .1.4-3.2-2.5-1.9.5-1.8 1.9-2.9-.3-3.5-.6-2.6 1.6-1.7 1.5-3.7-.3-2.5-1.6-3-1.9-5.5-.3-1.7.7-1.6.2-3.5 7.4-9.5 17.3-17.1 27.9-22.2 8.3-4 17-8 25.9-11.7 8.9-3.7 18.1-7.1 27.4-10 11.2-3.5 24.3-6.5 36.1-8.7 10.1-1.9 19.1-3.6 27.6-5.2 8.5-1.5 16.6-3 24.9-4.4 16.6-2.7 34.2-5.2 58.2-7.6 9.6-1 20.2-2.4 30.9-3.6 10.7-1.1 21.4-1.8 31.2-1.5 9 .4-1.5 1.3-3.3 1.5-19.8 1.7-36.5 2.1-56.4 5.6 2.4.8 6.9.6 9.9-.3-16.4 5-36.9 5.2-53.9 7.6.6-2 1.7-.7 3.7-1.6-6.6-1.7-11.5 1.8-19.2 1.5 2.2 3 5.1-.6 9.4.3.7 0 1.8-.4 1.9.6l-1.9.1c-7.8 2.1-15.8 3.5-23.6 4.9-3.9.7-7.8 1.4-11.5 2.2-3.8.8-7.4 1.8-10.9 3 10.4-1 22.5-.8 34.5-6-.3.6-.5 1.3.1 1.4 10.7-1.6 20.9-2.5 30.4-4.2-12.8 3.7-26.1 4.9-40.1 8.2 6.9 1.3 14.2-2.2 22.9-1.8 1 .3.8-1 .8-2.1 6.2 1.7 12.4.4 18.3-.1 11.2-.9 22.1-1.7 32.9-2.7 10.8-.9 21.5-1.8 32.4-2.7 21.8-1.7 44.3-3.2 69.9-3.8 2.1-.1 4.1.3 7.1 0 2.3-.2 4.7 1.4 7.1 1.4 5.9-.1 12.3-3.9 16.9.7 1.7-.4 5.7.2 3.8.7-7.5 2-14.4.3-20.2.6-24.3 1.4-47.9.6-69.5 2.8 4.7.6 9.4.7 14.1.7 4.7-.1 9.4-.4 14.1-.8 4.7-.4 9.3-.8 13.7-1.1 4.5-.3 8.8-.4 13-.1 7.8.5 17.4-.3 24.4.7 8.1 1.1 16.2 1.4 24.4 1.4 8.2.1 16.4-.1 24.6-.3 8.2-.1 16.4-.1 24.6.4 8.2.5 16.4 1.5 24.5 3.4-1.7 1.6-3.1 1.3-4.1 1.8zm-233-15.9c-1.1-.1-5-1-6.5 1.6 2.2-.9 12-1.2 6.5-1.6zm-30.1 3.3c3 2.7 10.5.3 13.6-1.3-4.9-.2-8.5 1.6-13.6 1.3zm-37.4 14.4l-3.3.2c.6 1 7.5 1.1 7.9-1.1-2.4 0-3.6.2-4.6.9zm239.5 3.4c.5-2.4-3.5-1.7-3.7-.7 1.8.4 1.4.5 3.7.7zm-321 58c-.1-2.1-1.2-2.7-1.7-4.1l-2.3.2c.1 2.2-1.5 2.3-2.6 3-.3-1.6-1.1-2.8-.3-4.2-.8 2.3-2.2 4.9-.9 6.4-1-1.4-1 .8-1.7 1.5.6.6 5.5-.4 2.2-1.6 3.2 1.1 4.4-1.9 7.3-1.2zm-21.8 5.9c-1.5 6.6-10.8 2.6-10.3 9.3 2-1.4 1.6-1.2 3.7-.3-.7-4.3 1.6-1 2-3.7.6 0 .5 1.2 1 1.3 1.4-1.2 1.1-2.8 3.5-1.7.2-3.4 3.1-.9 4.8-3.2l-.1-1.4c-.3 0-.6-.1-.5-.7-1.2.7-1.5 2.7-3 3.1 0-1.4-1.2-.8-1.1-2.7zm6 5.1c2-.6 6.3-1.5 5.2-3.9-1.6 1.4-4.4 1.4-5.2 3.9zm-5.8 2.6c1 .8 4 0 3.9-2.4-.9 1.2-3.8 0-3.9 2.4zm-21.6 6c-2-.1-.8 4.9.3 2.8.1.9.3 1.6 1.1 1.3-.2-2.1-1.3-2.1-1.4-4.1zm7.2-2c-.6 0-1.1-.1-1-1.3-2.7.1-3.2 2.9-5.7 3.3.3 1.6.7 3 1.7 3.4.6-2 1.8-5.1 3.5-2.4-.1-1.3.1-2.4.7-2.9 0 .7.8.8.8-.1zm233.8-100.9c-4.2 3.8-9.4 1.1-14.1 2.4 2-2.7 10.2-.5 14.1-2.4zm-158.2 72.8c-1.5-3.5 2.4-1.1 4-2.4-.3.7-1 .8-.8 2.2-1-.4-3-2.5-3.2.2zm-15.1 3.1c-1.3-.6-3.3 3.5-4.7-.4 2.2-.6 3.1-.7 3.5-3 .6.8 1 1.9 2.4 1.3-.4 1-1.2 1.5-1.2 2.9-.5-.2-.3-.8 0-.8zm1.1 2.7c.1-.9.7-1.2.8-2.2.8 1.5 1.1 1.3 2.4.5-.1 2.8-1.8.3-3.2 1.7zM472.4 56.6c.3.2.6.3.8.5.1.1.2.1.3.2l.2.1s.1 0 .1.1c.2.1.3.2.3.2l-.3-.3-.1-.1c-.1-.1-.2-.1-.2-.2-.1 0-.1-.1-.2-.2-.2-.1-.3-.2-.5-.4-.8-.5-1.8-1.2-2.8-1.9-1-.6-2.1-1.2-2.9-1.7-4.2-2.4-9.3-4.7-10.8-4.8.6.2 1.2.5 1.8.7.6.3 1.3.6 2 .9.7.3 1.4.6 2.1 1 .7.4 1.4.7 2.2 1.1 2.9 1.7 5.7 3.4 8 4.8zm-89.3-19.9c-4.3 0-13 .4-16.5-.6 5.5.3 12.9.4 16.5.6zm10.4.6c-5.8 0-8.1-.9 0 0zm-54.4-1c.5 0 .6.1.6.2 8.9-.5.1.9-.6-.2zm-3.7.3c-1.2.5-6.7.1-7.9.7-1.5-.5 7.2-.7 7.9-.7zm-35.8 3.9c.4-.8 5.5-.6 7.9-1 2.8.2-6.7.6-7.9 1zm188.3 67.6c1-3.3 1.7-5.7 1.8-6.1.1-.2.1.2-.2 1.2-.1.5-.3 1.2-.6 2-.2.8-.5 1.8-1 2.9zm-10.8 19.5c1.6-2.9 2.8-4.7 3-4.8.1-.1-.1.3-.6 1.1-.1.2-.3.5-.4.7-.2.2-.3.5-.5.8-.4.6-.9 1.4-1.5 2.2zm-17.5 18.9c2.7-4.9 9-12.6 15.2-22.6-1.3 2.4-3.9 6.3-6.7 10.5-2.9 4.2-6.1 8.6-8.5 12.1zm-175-97.3c-.4.2-.6.5-.5.8l-3.6.4c.4-1 2.3-.6 4.1-1.2zm-2.2 2.5c-.8.7-5.2.8-7.1 1.3 1.4-1 3.8-.6 7.1-1.3zM194.9 66c-.2-.4 2.1-.5 2.9-.7-.2.4-1.2.7-1 1.1-1.9.2-1.3-.5-1.9-.4zm4.1-1c.5 0 1 0 1.8-.2.5.4-1.1.6-1 .9-1.1.1-1.7-.3-.8-.7zm44.9-7.6c-1.3.6-4.5 1.1-7 1.9.9-.4 2-.7 2.2-1.2 2.4-.1 3.4-.9 4.8-.7zm-51.4 9.2c-.3.2-.6.4-.5.6-.6-.3-2.5.4-4.2.8-1.6.5-3 .9-2.4-.1 2.3.5 5.2-1.6 7.1-1.3zm44.3-8c-.8.4-2.2.8-4.1 1 .3-.4 3.4-1 4.1-1zm-22.3 4.9c2.2-.5.9.7 1.4 1-1.8.3-2.1-.7-1.4-1zm-40.8 9.4c-1.1.1-5.6 1.1-5.7 1.8-1-.2-1.3-.1-3 .5-.5-.4 1.1-.6 1-.9 3.1-.3 6.6-2.3 7.7-1.4zm4-1.3c.6-.1.5.3 1.2.1-.6.5-3.5.9-4 1.4-1.6-.1 1.5-1.2 2.8-1.1v-.4zm-14 3.2l.1.5c-1 .2-2.9.9-2.4.2 1-.2 1.2-.5 2.3-.7zm-9.7 3.4c-1.3.1 2.4-1.6 3.3-1.5.1.5-2.5.9-3.3 1.5zm2.3-.8c.5-.1.6-.1.6 0 .9-.5 1-1.4 2.8-1.4 0 .5-2.5.8-1.6 1.3-1.1.4-1.8.5-1.8.1zm-10.5 2.3c1 .1 2.4-.7 4.7-1.1-1.7 1.1-4 1.4-5 2.2-1.8.2-.1-.8.3-1.1zm-36.9 12.8c1-.3 1.3.7-.4.8.1-.2.5-.3.5-.5-2.7.4-.6.9-2.8 1.3 1.3-1.1-1.5.4-3.5.7 2.1-1 4.3-1.7 6.2-2.3zM435 181.1c-3.8 3.9-11.8 14.2-17.2 18.8 6.3-6.8 9.6-10.8 15.9-18.3-.3-.2-1.7 1.9-2.5 2.7 9.5-11.6 17.1-21.4 24-30.9 6.9-9.5 13.3-18.6 20.1-29.2.9-1.7.1-1.3.4-1.9 2.3-3.7 4.6-7.4 6.6-11.5.2.5.7.2 1.1-.4.4-.6.9-1.5 1.4-2.1.8-1.7-.9.1-.2-1.5-.4 0-1 1.4-1.6 2.9 1.7-4.1 3.5-9.1 3.9-15 0-.7.1-1.5.1-2.2V90.8l-.1-.6-.1-1.3-.1-.6v-.5c-.1-.7-.3-1.4-.4-2.2-.8-3.1-2.1-6.2-3.9-8.9-3.5-5.5-8.3-9.9-13.5-13.4-5.2-3.5-10.8-6.3-16.5-8.5-.5.1-3.5-1.4-3.1-.6-4.2-2.1-8.5-3.3-12.9-4.2-4.4-.9-8.9-1.5-13.6-2.3 1.2.8-2.2-.4-4.3-.1-1.5-.2-.7-.2-.6-.4-17.4-1.8-35.1-2.9-51.7-3-2.1 0-4.1-.1-6.1-.1s-4 .1-6 .1c-3.9.1-7.8.2-11.4.3-7.4.1-14.2.7-20.2 1.2-2.4-.1-5 0-7.8.1-1.4.1-2.8.2-4.3.3-1.5.2-3.1.4-4.7.7-5.4.4-11 .8-16.6 1.4-2.8.2-5.5.6-8.1 1.1-2.6.5-5.2 1-7.6 1.6-.3-.3.4-.4 1.2-.5-2.4.2-5.7.5-9.2.9-1.7.2-3.5.4-5.1.7-1.7.3-3.3.6-4.8.9-1.3.2.8.3.1.9-1.2.3-3.9.3-4.1.8-2.8-.2 3.4-.5 2.3-1-4 .2-8.1 1.2-11.8 2.2-4.5.4-9.2 1.2-14 2.1-4.7.9-9.5 1.8-14.1 2.7-9.2 2-17.7 4.2-24.4 5.5-1 .7 2.7-.2.7.4-1 .1-1.1.3-1.1.6-2.2.3.1-.6-1.4-.6-11.1 3-16.2 4-23.8 6.5 1.2-.9-1 .2-1.8.1-2.2 1-3.4 2.1-7.3 3-.3-.5 3.6-1.2 5.1-2.1-8.1 2-15.3 3.5-23.6 7.1.8.6 3.5-1.1 3.6-.4-3.9 1.6-7 2.7-10.9 3.2.1-.2 1.1-.4 1.1-.6-.1.3-6.4 1.9-6.1 2.8-2.9.2-5.2 1.1-5.6 2.3-1.6.2-4 .8-4.8.5-.6.3.2.4-1.6 1 2.5.2 4-.5 8.8-1.9 1-.6-.4-.2-.2-.9 2.6-.5.6.5 3.1.1 4.5-1.3 4.4-1.9 9.1-3-.9 1.5-6.3 2.4-9.6 3.5-.8.5-4 1.8-3.8 1.9-.8.6-1.3.1-.7-.4-5.4 1.6-5.3 2.4-5.9 3.3-1.7.3-2.1 0-1.4-.7-4.6 1.7-12.2 3.1-12.8 5.3-.6 0-.7-.2-1.8.1-.8 1.1-4.7 1-5.5 2.5-2.4-.1-6.1 1.8-8.6 2.7l-.2-.8c-3.4 1.1-6 2.2-9 3.3 2 .3 5.3-1.9 8.6-2.7-4.2 1.9-8.3 3.5-12.5 5.1-4.2 1.6-8.5 3.2-13.3 5 5.6-2.6 10.6-4.3 16.7-6.8-1.5-.1-2.8 1.1-4.1.9-3.1 1.7-11 4.7-13.5 5-1.6 1.5-6.9 3-11.6 5-2.1.2 1.6-.9 1.5-1.2-.3-.5-2.6 1.3-2.4.3 2.7-.8 2.5-.9 3.6-.6-.2-.8 1.6-.6 1.5-1.3 1.2-.4 1.2-.1 1.3.2.3-.6.3-1.2 2.7-1.5-.4-.9-5.5 1.2-5.7 1.8-3 .6-6.5 1.6-9.1 2.9-1.3.3-1.4-.1-1.4-.5-.2.6-4.9.9-3.7 0-3.9.4-4.6.9-7.7 1.3 1.6-.9-.6-.1.9-1.2-.6-.3-2.5.1-3.7.1-.6-.6 1.7-1.2 2-1.8-2.5.7.6-1-3 .3.8-.7 2.5-1.4-.2-.8-.6-.5 2.1-1 2.1-1.5-.2-.6-1.9-.3-2.1-.9-.3-.3 1-.7.3-1 9.7-5 22.2-10.2 35.7-15 10.4-3.8 21.4-7.5 32.5-11.3 5.6-1.9 11.3-3.7 17-5.5 2.9-.9 5.7-1.8 8.6-2.7 2.9-.9 5.8-1.7 8.7-2.6 7.1-2.1 14.7-4.3 22.4-6.4 7.8-2 15.5-4.2 23-5.9 6.4-1.5 12.4-3 18.2-4.4 5.8-1.3 11.4-2.5 16.8-3.7 2.7-.6 5.4-1.2 8-1.7 2.7-.5 5.3-1 7.9-1.5 5.3-1 10.5-2 15.8-3 5.3-.9 10.7-1.8 16.3-2.7 2.8-.5 5.6-.9 8.5-1.4 2.9-.4 5.9-.8 8.9-1.2 3.1-.4 6.2-.8 9.4-1.2 3.2-.4 6.5-.9 9.9-1.2 6.8-.6 14.1-1.3 21.8-2.1 6.2-.4 12.8-.8 19.5-1.2l5.1-.3c1.7-.1 3.4-.1 5.1-.1 3.4-.1 6.9-.2 10.4-.2 3.5-.1 6.9-.1 10.4-.2 3.5.1 6.9.2 10.3.3 3.4.1 6.8.2 10.1.3 1.7.1 3.3.1 4.9.2 1.6.1 3.2.3 4.8.4 11.7 1-1.9.2-4.3 0-6.5-.2-12.6-.3-18.7-.5-3 0-6-.2-9-.2-3 .1-5.9.1-8.9.2s-5.9.1-8.9.2-6 .1-9 .3c-6.1.4-12.3.8-18.8 1.3 3 .1 8.9-.2 12.8-.6-5.3.5-11 1-16.8 1.4-5.8.6-11.8 1.2-17.8 1.8-6 .5-12 1.3-17.9 2-2.9.4-5.8.7-8.7 1.1-1.4.2-2.8.4-4.2.5-1.4.2-2.8.4-4.1.7.8-.6 2.2-.5 4.8-1-8.4.6-14.7 2.4-24.6 3.7 2.8.4 6.5-1 12-1.5 1-.1 2.3-.4 2.4-.2l-2.4.3c-5 1-10.1 1.8-15.1 2.8-5.1 1-10.1 2-15.1 2.9-2.5.5-5 1-7.4 1.4-2.4.5-4.9 1.1-7.2 1.6-4.8 1.1-9.4 2.2-13.8 3.3 6.6-1.3 13.7-2.7 21.1-4.2 7.4-1.4 15.1-2.9 22.8-4.8-.3.2-.7.4.1.3 6.8-1.2 13.5-2.2 20-3.2 6.5-1.1 12.8-1.8 19-2.7-4.1.7-8.3 1.3-12.5 1.9-4.2.7-8.4 1.4-12.7 2.2-4.3.7-8.6 1.4-13 2.2-4.3.9-8.7 1.7-13.2 2.6 4.4-.5 8.9-1.4 13.7-2.3 4.8-.8 10-1.7 15.6-2.4 1.3-.1 1.1-.4 1.1-.7 2-.2 4-.4 5.9-.6l3-.4 3-.3c3.9-.5 7.8-1 11.6-1.4 28.9-3.3 56.1-5.2 84.4-5.3 7.1.1 14.2.3 21.5.5 1.8.1 3.6 0 5.5.2 1.8.1 3.7.2 5.5.4 3.7.3 7.4.5 11.1.8 1.9.1 3.8.3 5.6.4l1.4.1c.6 0 1 .1 1.5.1.9.1 1.9.2 2.8.3 3.9.4 7.8.9 11.9 1.5 8 1.2 16.4 3 24.9 5.9 1.4.5 2.8 1 4.3 1.6 1.5.6 3.1 1.3 5 2.2 1.5.7 3 1.6 4.4 2.4 1.5.9 2.9 1.9 4.3 2.8.9.6 1.8 1.2 2.8 1.8l1.3.9 1.5 1c1.9 1.4 3.7 2.8 5.4 4.4 1.7 1.6 3.2 3.3 4.5 5.2 1.3 1.8 2.3 3.8 3 5.7.7 1.3 1.7 3.6 2.2 5.3.5 1.7.6 2.6.1 1-1-3.2-2.5-6.1-4.1-8.6-1.6-2.5-3.4-4.8-5.2-6.7-1.8-2-3.7-3.7-5.5-5.2-.9-.7-2-1.6-2.7-2.1-1-.7-1.8-1.2-2.7-1.8-7.5-4.7-15.5-8-23.4-10.4-7.9-2.4-15.8-3.9-23.5-4.9-1.9-.3-3.8-.5-5.7-.7-1-.1-1.9-.2-2.9-.3l-2.7-.3c-3.8-.3-7.4-.6-11.1-.8-3.6-.3-7.3-.5-10.8-.8-1.8-.1-3.6-.3-5.3-.3-1.8 0-3.5-.1-5.3-.1 6 .3 12.1.9 18.2 1.4 3 .2 6.1.4 9.1.7 1.5.1 3.1.2 4.6.3 1.5.1 3 .3 4.5.4 6.1.6 12.2 1.4 18.2 2.5s11.8 2.7 17.3 4.7c5.1 1.9 10.7 4.3 16 7.5 1.3.7 2.6 1.6 3.8 2.4l1 .7.8.6.4.3.5.4c.3.2.6.5 1 .7 2.4 1.9 4.5 3.9 6.4 6 2.1 2.4 4 5 5.7 8.1.4.7.8 1.5 1.1 2.3.3.8.7 1.6 1 2.4.3.8.6 1.7.8 2.5l.2.6V85.4l.1.4v.2l.2 1c1.3 7.2 0 14-2.1 19.8-2.1 5.8-5 10.9-7.9 15.5l-2.2 3.4-2.1 3.3c-1.5 2.2-2.9 4.5-4.4 6.7-11.8 17.7-24.6 34.8-38.9 50.4.3-2.5 1.6-4 2.2-5zM301.3 38.6c-1.4.1-6.5.2-8.5 1 3-.4 15.6-1.4 8.5-1zM262.6 43c3.8.3 13.5-1.3 17.5-2.1-6.4.6-11 1.5-17.5 2.1zm-48 10.5l-4.2.7c.7.1 9.5-1.2 10.1-1.9-3.1.5-4.7.8-5.9 1.2zM479.8 116c.1.4.8-.6 1.4-1.7.6-1.2 1.2-2.5 1.2-2.7-.6 1.1-.9 1.5-1.1 2-.4.5-.7 1.1-1.5 2.4zM110.3 91c-.1-.5-1.4-.3-2-.6l-2.9.8c0 .6-1.9 1.1-3.3 1.6-.3-.4-1.3-.4-.3-1-1.1.9-2.9 2-1.3 2-1.2-.1-1.3.5-2.2.9.8 0 7-1.8 2.8-1.1 4.1-.7 5.7-1.9 9.2-2.6zm-27.5 8.3c-2.2 2.2-13.6 4.1-13.3 5.8 2.5-1 2.1-.8 4.6-1.2-.7-.9 2-.8 2.7-1.6.8-.2.6.2 1.2 0 1.8-.8 1.5-1.1 4.5-1.6.4-1 3.9-1.2 6.2-2.4l-.1-.3c-.4.1-.7.2-.6 0-1.6.6-1.9 1.2-3.9 1.8 0-.5-1.6.1-1.3-.5zm7.3-.5c2.6-.8 7.9-2.3 6.7-2.7-2.1.9-5.5 1.8-6.7 2.7zm-7.4 2.5c1.2-.1 5-1.3 5.1-1.9-1.2.7-4.9 1.3-5.1 1.9zm-27.4 8.6c-2.5.6-1.2 1.6.2.7.1.2.3.4 1.2 0 .1-.5-1.4-.2-1.4-.7zm9.2-2.9c-.7.2-1.4.3-1.2 0-3.4.9-4.2 1.8-7.3 2.7.3.3.8.6 2 .4.9-.8 2.6-2 4.5-1.8 0-.3.2-.7 1-1-.1.2.9 0 1-.3zm300.3-70.9c-1.4.2-2.9.3-4.4.3-1.5 0-3 .1-4.6.1-3.1 0-6.3-.1-9.4.1 1.3-.3 4.6-.4 8.2-.4h5.5c1.7 0 3.4 0 4.7-.1zM160.5 76.8c-1.9-.5 3.1-1 5.1-1.7-.3.3-1.3.5-1.1.8-1.3.2-3.7.2-4 .9zm-19.2 5c-1.6.2-4.3 1.9-5.9 1.2 2.8-.8 3.9-1.1 4.5-1.8.7 0 1.2.2 3-.3-.5.4-1.5.7-1.6 1.1-.6.1-.3-.1 0-.2zm1.4.4c.2-.3 1-.5 1-.8 1 .2 1.3 0 3-.5-.2.8-2.3.6-4 1.3z"/></svg>