<svg xmlns="http://www.w3.org/2000/svg" viewBox="0 0 488.4 494.1"><path class="st0" d="M241.3.4c12.2-.6-5.9-.4-13.9.5-1.3.1-2.7.2-4 .3-1.4.2-2.7.3-4.1.5-2.7.3-5.3.7-7.7 1.1-4.7.9-8.5 1.8-10 2.4 2.7-.5 5.8-1 9.1-1.6 3.3-.5 6.9-.9 10.4-1.4l2.7-.4 2.7-.3c1.8-.2 3.5-.3 5.2-.5 1.7-.2 3.4-.3 5-.5 1.6 0 3.2-.1 4.6-.1zM52.4 98.1c-.8 1.1-1.7 2.3-2.6 3.6-.9 1.4-1.9 2.8-2.9 4.4-1 1.5-2.1 3.1-3.1 4.8-1.1 1.6-2 3.4-3.1 5-1 1.7-2.1 3.3-3.1 4.9-1 1.6-1.9 3.2-2.8 4.7-1.8 3-3.6 5.4-4.9 7.2 1.6-3 3.6-6.2 5.5-9.6.9-1.7 2-3.3 3-4.9 1-1.6 2.1-3.2 3.1-4.8.5-.8 1-1.6 1.5-2.3.5-.7 1-1.5 1.6-2.2 1-1.4 2-2.8 2.9-4.2.9-1.3 1.8-2.6 2.7-3.7.7-1 1.5-2 2.2-2.9zm16.7-19.9c-2.3 2.8-4.4 5.1-5.9 6.9-1.5 1.7-2.5 2.8-2.8 3-.3.2.1-.4 1.4-2 .7-.8 1.6-1.9 2.7-3.2 1.3-1.4 2.8-2.9 4.6-4.7zM6.3 197.5c.2-1.3.5-1.4.7-1.4 1.1-5.5 1.7-8.3 2.2-9.2.4-1 .4-.2.1 1.2-.4 2.9-1.7 8.8-3 9.4zm-1 9.1c.1.8 0 2.2-.3 4-.1.9-.3 1.8-.5 2.8-.1 1-.3 2-.4 3.1-.6 4.1-1.3 8.2-.9 9.9-.3 1-.5.3-.5-1.3.1-1.5.3-4 .6-6.6.5-5.2 1.8-11 2-11.9zm4 88.9c-.8-.4-1.5-3.7-2.1-7.7-.5-4-.8-8.6-1.4-11.6 0-1.8.1-1.6.3-.3.2 1.3.5 3.6.8 6.3.5 5.4 1.8 11.9 2.4 13.3zM348.2 27.2c-3.4-1.3-6.2-2.3-8.3-3.1-2.1-.8-3.4-1.4-3.7-1.6-.3-.2.4-.1 2.4.6 1 .3 2.3.8 3.9 1.5.8.3 1.7.7 2.7 1.1.9.5 1.9 1 3 1.5zm44.2 25.3c-7-4.5-11.3-7.1-11.5-7.5-.1-.2.7.2 2.6 1.4.9.6 2.2 1.3 3.7 2.4 1.5 1 3.2 2.3 5.2 3.7zm40 47.9c-2.4-2.3-5.1-5.2-8.2-8.6-1.6-1.6-3.3-3.4-5-5.2-.9-.9-1.8-1.9-2.7-2.8-1-.9-1.9-1.9-2.9-2.9l-3-3c-1-1-2.1-2.1-3.2-3-2.3-2-4.6-4.1-7-6.2-2.5-2-5.1-4.1-7.7-6.1-1.3-1.1-2.7-2-4.1-3-1.4-1-2.9-2-4.3-3 1.4.9 3 1.9 4.8 3.1.9.6 1.9 1.2 2.8 2 .9.7 1.9 1.5 3 2.3 2 1.6 4.3 3.2 6.4 5.1 2.2 1.9 4.4 3.8 6.7 5.8s4.4 4.2 6.7 6.4c2.3 2.1 4.4 4.4 6.4 6.6 1 1.1 2.1 2.2 3.1 3.3 1 1.1 1.9 2.2 2.9 3.3 1.8 1.9 3.6 4 5.3 5.9zM33.3 328.2c.6.9 1.2 1.2 1.8.9l3.1 7.8c-1-.2-1.6-1.5-2.3-3.1-.3-.8-.7-1.8-1.1-2.7-.2-.5-.4-1-.7-1.4-.3-.5-.5-1-.8-1.5zm6.3 3.7c1 .7 2.1 3.4 3.4 6.5 1.4 3 2.9 6.4 4.1 8.3-3-2.3-4.2-7.7-7.5-14.8zm145.7 132.9c0 .4-1.2.1-2.6-.4-1.4-.5-3.1-1.2-4-1.4.8-.4 3.1.1 3.1-.8 2 .8 2.6 1.3 2.8 1.6.1.4 0 .6.7 1zm-9.3-2.7c-1-.5-2-1-3.8-1.7-.3-.6.4-.5 1.2-.4.8.1 1.7.3 1.9 0 2.1 1.1 3 2.3.7 2.1zM89 406c.7.4 1.5 1.1 2.4 1.9.9.8 2.1 1.7 3.2 2.6 1.2.9 2.4 1.9 3.6 2.9 1.2 1 2.5 1.9 3.7 2.7-2-1-4.1-2.6-5.2-2.4-1.8-2-3.4-3.2-4.7-4.3-1.2-1.1-2.2-2.1-3-3.4zm101.7 59.9c.8-.1 1.5-.2 1.6-.6 1 1.2 5.6 1.6 9.4 2.2 3.8.6 6.9.9 5 2.2-.5-.3-1.1-.6-1.8-.8-.6-.2-1.3-.4-2-.6-1.4-.3-2.9-.5-4.4-.6-1.5-.2-3-.3-4.4-.5-1.3-.3-2.5-.7-3.4-1.3zm-89.6-48.7c1.9.9 4.5 3 7.7 5.7-1.2.1-6.7-4.4-7.7-5.7zm43.5 28.1c-4.6-2.3-.7-2.3-1.2-3.5.9.5 1.5 1 1.9 1.5.4.4.6.8.6 1.2.2.5-.4.9-1.3.8zm90.8 23.5c.6.1 1.6.2 2.9.4 1.4 0 2.9.1 4.5 0 3.1-.1 5.9-.3 6.3-.9.3.1.5.2.7.3h-.2H249.9c.1 0 .2 0 .3.1.4.1.8.1 1.3.1.9 0 2.1-.1 4-.3 1 .9-2.6.8-2.7 1.5-.9-.1-1.7-.2-2.6-.2H247.6c-1.9 0-3.7.1-5.4.2-1.7.1-3.2.1-4.4 0-1.1-.3-1.9-.6-2.4-1.2zm-9.3-.1c-1.4-.3-.8-.8-2.6-1 .9-.3 2.9 0 4.8.1s3.9.1 4.5-.2c1.7.5.8.9-1 1-.9.1-1.9.1-3 0-.5 0-1-.1-1.5-.2s-.9-.2-1.2-.3v.6zm32.3.8v-1.1c2.4.1 6.7-.8 5.4.4-1.2.1-1.9.2-2.6.4-.8.2-1.5.3-2.8.3zm22.5-4.2c2.9.1-5.7 2.9-7.8 2.4.1-1.1 5.8-1.5 7.8-2.4zm-5.3 1c-1.1.2-1.3 0-1.4-.2-1 .4-1.7 1.1-2.6 1.6-.9.5-2 .8-3.9.4 0-.9 5.7-.8 3.8-2 2.7-.4 4.2-.4 4.1.2zm23.8-3.8c-2.2-.1-5.4 1.7-10.5 2.2 1.9-1 4.2-1.6 6.3-2.3 2.1-.7 3.9-1.3 5-2.2 3.8-.4 0 1.7-.8 2.3zm74.3-41.6c-1.8 1.4-3-.3.2-1.9 0 .4-.8 1-.6 1.3 2.6-1.4 2.7-2 2.7-2.5s-.1-.9 1.8-2.2c-.8 1.5-.2 1 1.1-.2.7-.6 1.5-1.4 2.4-2.2.4-.4.9-.8 1.4-1.1.5-.4.9-.7 1.3-1.1-.4.5-.8 1-1.2 1.4-.4.5-.9.9-1.3 1.3-.9.9-1.8 1.7-2.7 2.5-1.7 1.8-3.5 3.3-5.1 4.7zm107.8-231.4c.4 1.6.7 3.5 1.1 5.6.4 2.1.9 4.4 1.5 6.9.5 2.5.9 5.2 1.4 7.9.2 1.4.5 2.8.7 4.2.2 1.4.4 2.9.6 4.3 1.7 11.6 1.9 23.8 1.2 32.3-.1-11.2-.5-19.9-1.7-28.7-.3-2.2-.6-4.4-.9-6.7-.3-2.3-.8-4.6-1.2-6.9-.2-1.2-.4-2.4-.7-3.7-.1-.6-.2-1.3-.3-1.9-.1-.6-.3-1.3-.4-1.9-.6-2.6-1.3-5.3-1.9-8.2-.7.4 1.3 6.1 1.6 8.6-3.9-17.7-9.4-33.3-15.8-47.5-6.4-14.1-13.7-26.8-21.7-38.4-8.1-11.6-16.9-22.3-26.8-32.2-9.9-9.9-20.8-19.2-33.3-27.8-3.9-2.5-2.9-.6-4.4-1.3-4.3-2.7-8.5-5.6-13-8l-3.3-1.9c-1.1-.6-2.2-1.3-3.3-1.8l-6.8-3.5c1.1-.4.4-1.3-1-2.3-1.4-1-3.3-2-4.6-3-3.5-1.9.3 1.9-3.2.1-.1.8 3 2.2 6.3 3.6-2.3-1-4.6-2-7-3-1.2-.5-2.4-1.1-3.7-1.5-1.3-.5-2.5-1-3.8-1.4l-3.9-1.5c-1.3-.5-2.6-1-4-1.4-2.7-.9-5.5-1.8-8.3-2.7-11.4-3.4-23.8-6.3-36.9-8.2l-9.9-1.2c-3.4-.3-6.9-.5-10.4-.8-.9-.1-1.8-.1-2.6-.2l-2.5-.1c-1.6 0-3.3-.1-4.9-.1l-2.5-.1h-2.8c-1.7 0-3.5.1-5.2.1-13.9.4-28 2.1-41.7 5-.8.9-8.5 1.7-6.8 2.7-1.3.2-2.7.3-4 .5-1.3.2-2.6.5-3.9.8-2.6.6-5.1 1.1-7.6 1.8-2.5.8-5 1.6-7.4 2.4-1.2.4-2.5.8-3.7 1.3l-3.6 1.5c-2.4 1-4.8 2-7.2 3.1-2.4 1.1-4.8 2.3-7.2 3.4-2.4 1.1-4.8 2.4-7.2 3.6-2.4 1.3-5 2.4-7.4 3.8 3.3-.5-4.7 2.5-8.2 6-3.1 2-1.6.7-1.6.2-2.2 1.4-4.3 2.8-6.5 4.2-2.2 1.4-4.2 3-6.3 4.5l-3.2 2.3c-1 .8-2 1.6-3.1 2.4l-6.1 4.9-5.9 5.1c-1 .9-2 1.7-2.9 2.6L89 80.1c-1.9 1.8-3.8 3.6-5.6 5.4-1.8 1.9-3.6 3.8-5.3 5.7-1.8 1.9-3.4 3.9-5.1 5.8l-2.5 2.9c-.8 1-1.7 2-2.4 3-1.6 2-3.1 4.1-4.7 6.1l-1.2 1.5-1.1 1.6-2.2 3.1c-.7 1-1.5 2.1-2.2 3.1l-1.1 1.6-1 1.6c-1.3 2.1-2.7 4.3-4 6.4l-1 1.6-.9 1.6-1.8 3.3c-.6 1.1-1.2 2.2-1.8 3.2l-.9 1.6-.8 1.7c-9 17.5-15.5 35.3-19.5 52.4s-5.6 33.2-5.7 47.6c-.2 2.8-.4 5.6-.6 8.6l-.1 1.1V254.2c0 1.6.1 3.2.1 4.8 0 3.3.4 6.7.8 10.3.2 1.8.4 3.6.7 5.5.3 1.9.7 3.7 1.1 5.7 1.6 12.6 4.2 25.8 8.3 38.4 4.1 12.5 9.5 24.3 15.8 34-.3.7-1.1-.7-1.9-2.2 1.2 2.6 2.7 5.7 4.3 9 1.7 3.3 3.8 6.7 5.8 10.2 2.2 3.4 4.5 6.9 6.8 10.2 2.4 3.2 4.7 6.3 7 9 2 2.4-.4-2 1.4-1.1 2 2.2 5.4 7.5 6.3 7.5.8 1.4.9 1.7.5 1.5-.3-.3-1.1-1.1-1.9-2.1-1.6-1.9-3.5-4.3-3.3-2.9 5 8 12.5 14.7 19.4 20.4 7.3 7.7 15.8 15 24.8 21.7 9.1 6.6 18.8 12.4 28.5 17.3 2.5 1.2 4.9 2.3 7.3 3.5l1.8.9c.6.3 1.2.5 1.8.8 1.2.5 2.4 1 3.7 1.5 4.8 2.1 9.7 3.7 14.3 5.4 2.3.8 4.6 1.4 6.9 2.2 2.3.7 4.4 1.4 6.6 1.9 2.2.6 4.3 1.1 6.3 1.6 1 .3 2 .6 3 .8 1 .2 2 .4 2.9.6 2.6-.4-5.8-2-1.1-1.3 2.3.7 2.6.3 2.9-.1 4.9 1.4-.8.9 2.3 2.3 3.2.7 6.3 1 9.2 1.4 2.9.4 5.6.8 8.1 1 2.6.2 5 .5 7.3.7 1.2.1 2.3.2 3.4.2s2.2.1 3.3.1c2.1.1 4.2.1 6.3.2 2.1-.1 4.1-.1 6.2-.2 2-.1 4.2-.1 6.2-.3 2.1-.2 4.3-.5 6.5-.8-3.1 1.4 2.4 0 4.1.6 2.7-.7 4.8-1.5 7.4-2.2 1.3-.4 2.7-.6 4.3-1 1.6-.4 3.5-.7 5.8-1 .2.6-1.9 1-4.5 1.5-.7.1-1.3.3-2 .4l-2.1.3c-1.3.2-2.6.5-3.5.8 1.2-.1 2.4-.2 3.5-.3 1.2-.1 2.3-.2 3.5-.3l6.9-.9c1.1-.2 2.3-.3 3.4-.5l3.4-.7c2.2-.5 4.5-.9 6.7-1.4 8.8-2.3 17.7-5.2 26.6-10.1-.9-.5-2.8.3-4.5 1-.9.4-1.7.7-2.3.8-.6.1-1.1.1-1.2-.3 2.2-.9 4.2-1.9 6.1-2.8 1.9-.9 3.8-1.7 5.7-2.5 1.9-.8 3.7-1.6 5.7-2.3 1.9-.7 4-1.3 6.1-2.1-.1.5-2.3 1.3-2.2 1.7.2-.7 13.4-6.6 12.3-8.4 1.5-.5 3-1.1 4.3-1.7 1.3-.6 2.5-1.2 3.4-2 1.9-1.4 3-2.9 3.1-4.2 3.4-1.3 7.9-4.3 9.7-4.3 1.1-1.1-.7-.5 2.8-3-5.3 1.4-8 4.1-17.2 9.7-1.8 1.8 1 .2.8 1.5-5.2 2.4-1.6-.6-6.7 1.5-4.4 2.6-6.7 3.9-9 5.3-1.2.7-2.3 1.4-3.8 2.2-1.5.7-3.4 1.5-5.9 2.4.4-.8 1.5-1.7 2.9-2.6.7-.4 1.5-.8 2.4-1.3.9-.5 1.8-1 2.7-1.4 1.9-1 4-1.9 6-2.9s3.9-2 5.5-3c.8-.8 2.7-2.1 4.3-3.5 1.6-1.3 3-2.5 2.9-2.4 1.3-1.6 2.6-1.1 1.7.3 1.3-.8 2.4-1.6 3.4-2.2 1-.7 1.8-1.4 2.4-1.9 1.4-1.2 2.2-2.1 2.8-2.8 1.2-1.5 1.2-2.4 1.6-3.5 3.2-1.8 4.1-1.6 3.3.2 2-1.7 4.4-3.5 6.8-5.5 2.4-2 4.8-4 7-5.9 4.1-4.1 7.3-7.7 6.9-10.1 1.1-.7 1.5-.3 3.3-2.1.1-.7.6-1.5 1.4-2.3.4-.4.8-.8 1.2-1.3.4-.5.9-.9 1.3-1.4 1.8-1.9 3.6-3.9 3.5-5.6 1.1-.6 2.2-1.6 3.3-2.8 1.1-1.2 2.1-2.5 3.1-3.9s2-2.9 2.8-4.3c.9-1.4 1.7-2.8 2.4-3.9l1.4 1.1c1.1-1.5 2.1-3.1 3-4.6.9-1.5 1.7-2.9 2.5-4.4.8-1.4 1.5-2.9 2.3-4.3.7-1.5 1.5-2.9 2.3-4.4-1.8 1.3-3.2 3.9-4.6 6.9-1.6 2.9-3.3 6.4-5.5 9.1 1.2-2.1 2.2-4.3 3.4-6.4.6-1 1.1-2.1 1.7-3.1l1.5-3.2c1-2.1 2.1-4.2 3.1-6.3 1-2.1 1.9-4.3 2.9-6.4 1-2.1 1.8-4.3 2.7-6.5.9-2.2 1.9-4.4 2.6-6.7.8-2.3 1.6-4.6 2.4-7 .7-2.4 1.4-4.8 2.1-7.3-.3 1.5-.7 3.1-1 4.6-.3 1.5-.7 3-1.2 4.4-.9 2.9-1.8 5.8-2.9 8.6-1.1 2.8-2.2 5.7-3.4 8.6-1.3 2.9-2.7 5.9-4.1 9.1 2.3-2.1 2.5-5.8 4.7-7.4.6-1.7 1.3-4.2 2.2-6.8.5-1.3 1-2.7 1.5-4 .5-1.4 1-2.8 1.4-4.2 2.1-5.5 3.8-10.9 5.1-13.2-.1-1.1 0-2.6.3-4.4.3-1.8.7-3.9 1.3-6.1.5-2.3.9-4.8 1.4-7.3.2-1.3.5-2.6.7-3.9.2-1.3.3-2.7.4-4 1.6-4 0 3.7.5 3.9 1.2-.1.3-5.9 1.8-4.6-1.2 5.6-.7 5.5-2.4 7 1.5.5-.7 3.3.7 4-.6 2.6-1.1 2.1-1.7 2.1.7 1.1 1.8 1.9-.5 6.3.5.1 1-.6 1.5-1.6.2-.5.5-1.1.7-1.8.2-.7.4-1.4.5-2.1.6-2.9.9-6 .5-6.5.6-1.5.9-3.1 1.4-4.7.4-1.6.8-3.3 1.1-5 .2-.8.3-1.7.4-2.5.1-.8.2-1.7.3-2.5.1-1.6.2-3.2.2-4.7.3-1.3.6-1.9.9-2.2.4-.3.8-.1 1.2 0-.9-.9 2.3-10 3-7.2.6-2 .9-3.5 1.1-4.8.2-1.3.4-2.4.6-3.5.2-1.1.3-2.1.5-3.3.2-1.3.4-2.8.7-4.6.8 4.2.5-1.2 1.7 2.8 1-1.1 1.3-5.5 2-8.3 1.6-1 1.3 4.5 2.3 5.6.2-6 1.5 2 1.2-6.9.8 2.1 1.2 6.4 1.8 0 1.3-1 .6 5.3 1.6 5.6 1.2-.2 1.7-3.9 2.9-4.1.9-.5.7 2.5 1.7 1.4.5 3.1 1 6.3 1.3 9.5.3 3.2.5 6.6.7 10.1.1 3.5.1 7 .1 10.7v1.4l-.1 1.4c-.1.9-.1 1.8-.2 2.8-.1 1.9-.2 3.7-.4 5.6-1.3 15.2-4.7 31.4-10.4 47.3-8.8 24.8-22.7 49.2-41.1 70.9-18.4 21.7-41.6 40.6-68.1 54.5-16 8.4-34.4 15.4-53.6 20-2.4.6-4.8 1-7.3 1.6l-3.6.7c-1.2.3-2.4.5-3.7.7-2.5.4-4.9.7-7.3 1.1-1.2.2-2.4.4-3.7.5l-3.7.4c-2.5.2-4.9.5-7.3.7-2.4.2-4.9.3-7.3.4-1.2.1-2.4.1-3.6.2l-1.8.1h-8.8c-3.6.1-7.9-.2-12-.5-1-.1-2.1-.1-3.1-.2l-1.5-.1-1.5-.1c-1.9-.2-3.9-.4-5.8-.6l-5.7-.6c-1.9-.3-3.8-.6-5.6-.9-1.9-.3-3.7-.6-5.6-.9-1.8-.4-3.6-.8-5.5-1.1-14.5-3-28.1-7.1-40.9-12.2-12.8-5.2-24.9-11.3-36.3-18.2-11.4-6.9-22.3-14.7-32.5-23.6-10.2-8.8-19.9-18.6-29-29.5-9.1-10.9-17.5-23-25.1-36.4-7.2-13.7-13.9-28.5-19.2-45C6.7 308 2.8 290 1.1 270.5c-.2-2-.3-3.9-.5-5.9-.2-2-.2-4-.3-6-.1-2-.1-4-.2-6.1l-.1-1.4v-2-2.8c0-1.9 0-3.7.1-5.6V237.8c.1-1.1.1-2.2.2-3.3.1-2.2.3-4.4.4-6.6.1-1.1.1-2.2.2-3.3.1-1.1.2-2.1.4-3.2 1.7-16.9 5.2-34 10.6-50.7 5.4-16.6 12.6-32.8 21.2-47.6 8.7-14.9 18.8-28.5 29.6-40.3 2.5-2.7 4.4-4.6 5.7-5.9 1.3-1.3 2.1-2.1 2.4-2.3.6-.6-.5.7-2.4 2.8-3.9 4.1-10.3 11.8-12.2 14.1-10.2 12.6-18.8 25.7-26 39.1-7.2 13.4-13 27.2-17.6 41.4-4.6 14.2-7.9 28.8-9.8 44l-.6 5.7c-.2 1.9-.5 3.8-.5 5.8-.1 2-.2 4-.4 6.1-.1 1-.1 2-.2 3.1-.1 1-.1 2.1-.1 2.9 0 3.7 0 7.5-.1 11.3.2 4 .4 8 .6 12.1.1-1.9.1-4.2.1-6.8v-4.1-2.6c0-.7 0-1.3.1-2 .1-2.6.1-5.4.1-8v-1c0-.4 0-.7.1-1.1 0-.7.1-1.4.1-2.2.1-1.4.1-2.8.2-4-.1 1.7-.1 3.5-.2 5.3v14.9c.2 3.5.4 7 .6 10.6.1 1.8.3 3.6.5 5.4.2 1.8.4 3.6.5 5.4 1.6 14.5 4.4 29.2 8.6 43.7 4.1 14.4 9.6 28.6 16.2 41.8 6.5 13.2 14.2 25.5 22.5 36.5-1-.6-1.9-1.6-3-3.2-.6-.8-1.2-1.7-1.9-2.8-.7-1-1.5-2.3-2.5-3.6.7 1.1 1.3 2.2 2 3.3.7 1.1 1.4 2.1 2.1 3.1 1.4 2.1 2.8 4.1 4.2 6l4.5 5.7c1.5 1.9 3 3.8 4.7 5.6 3.3 3.6 6.6 7.4 10.5 11.1.9 1 1.9 1.9 2.9 2.9l1.5 1.5 1.5 1.5c2.1 2 4.2 4 6.4 6.2-.9-1.4-2.2-2.8-3.6-4.3l-2.3-2.3c-.8-.8-1.7-1.6-2.6-2.4-1.8-1.7-3.7-3.6-5.8-5.7l-1.6-1.6c-.5-.6-1-1.2-1.6-1.8-1-1.2-2.1-2.5-3.2-3.9-.8-.9-1.7-2-2.5-2.9-.7-.9-1.2-1.7-1.1-2 1.2 1.6 2.6 3.1 3.9 4.6l3.2 3.5c1.1 1.2 2.2 2.3 3.3 3.4 2.3 2.2 4.5 4.5 6.8 6.7 2.4 2.1 4.7 4.3 7.1 6.4l1.8 1.6 1.8 1.5 3.7 3 3.7 3 3.8 2.9c2.6 1.9 5 3.9 7.7 5.6 2.6 1.8 5.2 3.6 7.9 5.3 2.7 1.7 5.4 3.3 8 4.9 10.8 6.3 22 11.8 33.2 16.3 11.3 4.3 22.5 7.7 33.5 10.1-32.1-8.1-66.9-25.2-97.8-49.1.9.4 1.8.7.5-.5-26.2-21.9-46.3-48.3-60.4-75.4 1.3 2.2 2.5 4.5 3.8 6.8 1.3 2.2 2.7 4.4 4.1 6.6 2.6 4.5 5.7 8.7 8.6 13.1 1.5 2.2 3.1 4.2 4.7 6.3 1.6 2.1 3.1 4.2 4.8 6.3 1.7 2 3.4 4.1 5 6.1 1.7 2 3.5 4 5.3 6l2.7 3c.9 1 1.9 1.9 2.8 2.9l5.7 5.7c2 1.8 4 3.6 6 5.5l3 2.7 3.1 2.6c8.3 7.1 17.3 13.4 26.7 19.3-8.8-6.3-17.9-12.8-27-20.7-9.1-7.8-18.4-16.7-27.1-27.4-1.8-2.6-2.1-1.9-2.7-1.7-1.4-2-2.8-4-4.3-5.9-1.4-2-2.7-4-4.1-6l-2.1-3-1-1.5-1-1.5c-1.3-2.1-2.6-4.1-3.9-6.2-1.4-2-2.5-4.1-3.8-6.2-1.2-2.1-2.5-4.2-3.6-6.2l-3.3-6.3c-.5-1.1-1.1-2.1-1.6-3.2-.5-1-1-2.1-1.5-3.2-15.5-32.2-23.2-66.7-23.7-101s6.3-68.6 20.2-100.5c7-16 15.7-31.3 26.2-45.8C63.7 91.1 76 77.7 89.9 65.5l2.6-2.3c.9-.8 1.7-1.5 2.7-2.2 1.8-1.4 3.6-2.9 5.5-4.4l2.8-2.2 2.9-2.1c1.9-1.4 3.8-2.8 5.7-4.1 1.9-1.4 4-2.6 5.9-3.9l3-1.9c1-.7 2-1.3 3-1.9 2.1-1.2 4.1-2.4 6.2-3.6 1-.6 2.1-1.2 3.1-1.8l3.2-1.7c17.2-9 35.8-16.4 55.7-21.1 1.7-.4 3.3-.8 5-1.1 1.7-.4 3.4-.8 5.2-1 1.8-.3 3.7-.6 5.7-1 2-.3 4.1-.8 6.4-1.1 3.6-.5 7.4-.9 11.2-1.1 3.8-.1 7.6-.2 11.3-.5 2.4-.1 4.7-.2 7.1-.3 1.2-.1 2.4-.1 3.6-.2l1.8-.1h2.2c2.2 0 4.4 0 6.6-.1h3.3c1.2 0 2.4.1 3.6.2 4.8.3 9.7.5 13.8 1.3 4.2.7 8.2 1.4 11.7 2.7 1.3.2 3.1.5 4.9.8.9.2 1.8.3 2.7.5.9.2 1.7.4 2.5.6 3 .8 4.6 1.3 1.6.7-1.5-.3-2.9-.6-4.4-.8-1.5-.2-2.9-.4-4.4-.7-1.4-.2-2.9-.4-4.3-.7-1.4-.2-2.8-.5-4.3-.6-2.8-.3-5.6-.7-8.4-1l-2.1-.3c-.7-.1-1.4-.1-2.1-.2l-4.2-.3-4.2-.3c-.7-.1-1.4-.1-2.1-.2-.7-.1-1.2-.1-1.9-.1-2.4-.1-4.8-.2-7.1-.2-.6 0-1.2 0-1.7-.1H249c-1.2 0-2.5 0-3.7.1-2.4.1-4.8.1-7.1.2-19.4 1-38.4 4.4-56.7 9.7-4.6 1.2-9 2.9-13.5 4.4-2.3.7-4.4 1.6-6.6 2.5-2.2.9-4.4 1.7-6.6 2.6-2.1 1-4.3 1.9-6.4 2.9-2.1 1-4.3 1.9-6.3 3-4.1 2.2-8.3 4.2-12.3 6.6-16.1 9.2-30.9 20-44.1 32.1-12.7 12.2-24.3 25.5-34 39.6C60.5 99 70.3 87.7 81 77.3c10.7-10.4 22.3-19.9 34.5-28.3 24.3-16.8 51.4-28.4 77.4-34.3 1.5-.3 3-.7 4.6-1 1.6-.3 3.1-.7 4.7-1 3.2-.6 6.4-1.1 9.7-1.7 6.6-.9 13.4-1.9 20.1-2.2 1.7-.1 3.4-.3 5-.4 1.7 0 3.3-.1 5-.1 1.7 0 3.3-.1 4.9-.1h5.1c3 .1 5.9.2 8.7.3h1.1c.4 0 .8.1 1.2.1.8.1 1.5.1 2.3.2 1.5.1 3 .3 4.4.4l5 .5 4.8.7 4.8.7 2.4.3 2.4.5c3.2.6 6.3 1.2 9.5 1.8 3.1.7 6.3 1.5 9.4 2.2 12.5 3.2 24.7 7.3 36.6 12.3 11.9 5.1 23.4 11.1 34.4 18l4.1 2.6 2.1 1.3 2 1.4c2.6 1.9 5.3 3.7 7.9 5.6l7.7 6c1.3 1 2.5 2.1 3.7 3.1l3.7 3.2c9.8 8.6 18.9 17.9 27.1 28 8.3 10.1 15.6 20.8 22.1 32.1 13 22.5 21.8 47.4 26.3 72.8-1.1-2.7-1.9-5.3-2.5-7.4-.8-2.3-1.2-4.1-1.7-5.4zM5 291.6c.3 1.7.8 5.7 1.7 9.9 1 4.1 2.2 8.5 3.4 10.8-.5-1.8-1.4-5-2.3-8.7-.2-.9-.5-1.8-.7-2.8-.2-.9-.4-1.9-.6-2.8-.4-1.9-.7-3.7-1-5.3-.3-1.6-.6-3.1-.8-4.2-.2-1.1-.3-1.9-.4-2.2-.1-.3-.1-.1 0 .7.2 1 .4 2.4.7 4.6zm35.3 90.2c-.5-1.1-1.2-2.3-1.9-3.8-.7-1.4-1.5-3-2.4-4.6-.9-1.7-1.9-3.4-2.9-5.2-1-1.8-2-3.7-3-5.6-1-1.9-2.1-3.7-3-5.6-.9-1.9-1.9-3.7-2.7-5.4-.9-1.7-1.7-3.4-2.5-4.8-.7-1.5-1.3-2.9-1.9-4 .7 1.9 1.4 3.7 2.2 5.4.8 1.7 1.6 3.4 2.3 5 .8 1.6 1.5 3.2 2.3 4.8.8 1.5 1.7 3.1 2.5 4.6 1.7 3.1 3.3 6.2 5.2 9.3.9 1.6 1.8 3.2 2.8 4.8.5.8.9 1.7 1.5 2.5.5.8 1 1.7 1.5 2.6zm91.1 78.5c1.5.8 3 1.8 4.5 2.5l4.6 2.4c-.3-.3-1.8-1.2-3.8-2.3-.5-.3-1-.6-1.6-.9-.6-.3-1.1-.7-1.7-1-1.2-.7-2.5-1.4-3.7-2.2-5.1-2.8-10.1-5.9-11.1-5.9 1.6 1 3 1.9 4.3 2.7.6.4 1.2.8 1.8 1.1.6.3 1.1.6 1.6.9 2.1 1.3 3.7 2.1 5.1 2.7zM365.9 44.7c.9-.1-1.3-1.7-4-3.2-2.7-1.4-5.7-2.7-6.1-2.6 2.4 1.3 3.3 1.9 4.5 2.5.6.3 1.2.7 2.1 1.1.8.6 1.9 1.3 3.5 2.2zm5.8 380.1c.6.9 3-.5 4.4-.6 1.8-1.2 3.5-2.6 5.3-4-.2-.5.5-1.5 1.6-2.5 1.1-1.1 2.6-2.3 3.6-3.5.8.4 2.9-.6 1.4 1.6 1.4-2.7 3.9-6.5.9-5 2.4-1.2 2-2.2 3.5-4-1.4.8-11.8 10.2-4.4 4.8-3.6 2.7-6 4.8-8.3 6.9-1.2 1-2.2 2.1-3.6 3.1-1.3 1.2-2.7 2.2-4.4 3.2zm43.8-44.3c.6-3.2 5-9.5 8.6-15.4.9-1.5 1.7-3 2.5-4.3.4-.7.7-1.3 1.1-2 .3-.6.6-1.2.8-1.8 1-2.3 1.3-3.9.6-4.3-2.3 5.3-1.9 4.5-5.2 8.7 2.3.5-2.1 4.1-2 6.3-1 1.4-1.2.6-2.1 1.7-1 1.8-1.2 2.8-1.8 3.9-.3.6-.6 1.1-1.2 1.9-.6.8-1.4 1.7-2.5 2.9.2 1.1-1.1 2.9-2.7 5-1.7 2.1-3.9 4.4-5.2 6.8l.5.5c.5-.6 1-1.1 1.1-.7 1.1-1.5 1.6-2.6 2.2-3.7.3-.6.6-1.2 1-1.8.4-.7.9-1.4 1.5-2.3.6.2 2.6-2.7 2.8-1.4zm-12.1 10c-1.9 2.1-4.8 5.4-7.1 8-2.3 2.5-3.8 4.5-2.5 4.1 3.2-3.6 8.4-9.2 9.6-12.1zm9.8-13.4c-1 .9-2.7 3-4.1 5.1-1.5 2-2.7 3.9-2.4 4.5.4-.6 1-1.5 1.7-2.4.7-.9 1.6-1.8 2.3-2.8 1.5-2 2.7-3.7 2.5-4.4zm27.8-53.7c1.1-2.5.8-3.5.2-3.4-.5.1-1.4 1.2-1.5 2.9-.5 0-.9 0-1.6 2.1.8.6 2-2.3 2.9-1.6zm-7.5 18.7c.7-1.3 1.5-2.6 1.8-1.9 3.1-6.8 2.9-9.3 5.2-15.6-.9.1-1.9.6-3 2.8.2 2.4-.3 6.7-3 9.6.5.4.7 1.3.2 2.9-.3-.2-1.4 1.7-1.2 2.2zM27.7 136.9c-.6 1.7-1.2 3.4-1.9 5-.7 1.7-1.4 3.4-2.1 5.2-1.4 3.5-3 7-4.4 10.6-1.4 3.6-3 7.2-4.2 11-.6 1.9-1.3 3.7-1.9 5.6-.3.9-.6 1.9-.9 2.8-.2.9-.5 1.9-.7 2.8.1-.8.2-1.9.5-3.3.3-1.3.8-2.9 1.3-4.6.5-1.7 1.2-3.6 1.8-5.6.3-1 .7-2 1.1-3 .4-1 .8-2.1 1.2-3.1.8-2.1 1.7-4.3 2.6-6.4.9-2.1 1.9-4.2 2.8-6.2.9-2 1.7-4 2.5-5.8.9-1.8 1.7-3.5 2.3-5zm238.6 329.6c2 .7.2 1-2.7 1.2-.7 0-1.5.1-2.3.1h-2.5c-1.7 0-3.2.1-4.4.3.9-.4 3.1-.4 2.6-1.1.7 0 1.6.1 2.5.2.5 0 .9.1 1.4.1h1.4c1.9.1 3.5-.1 4-.8zm42.8-8.7c.9-.2 1.9-.5 3-.9.5-.2 1.1-.4 1.7-.7.6-.3 1.1-.5 1.7-.8 2.3-1 4.6-1.8 6.4-1.3-6 2.3-8.5 3.2-9.7 4.6-1.7.1-2.6-.3-6.6 1.1 1.2-.8 3.3-1.6 3.5-2.4 1.4-.3.7.2 0 .4zm-2.9-.6c-.3.6-2.1 1.2-2.3 1.7-2.2-.3-2.8 0-6.5 1.2.2-.7 1.4-1 3.1-1.3.8-.2 1.8-.3 2.8-.5 1-.4 2-.7 2.9-1.1z"/></svg>