<svg xmlns="http://www.w3.org/2000/svg" viewBox="0 0 500 500"><path class="st0" d="M399.7 381.4c1.9-1.3 6.1-3.9 7.5-7.5-2.9 2.7-8.7 4.3-7.5 7.5zm-7.8 6.1c-.7-2.3 3-3.2 4-5 1.1 2.7-1.8 3.9-4 5zM382 396c1.2-2.8 2.8-3.8 3.3-3.6.5.2 0 1.7-3.3 3.6zm-1.3 1.1c-1.2 1.9-2.8.8-4.1 2.1-.5-1.2 2.5-4.9 4.1-2.1zm-11.1 6.5c-.8-2.9 3-.8 3.9-3.1 2.1 1.2-2.9 2.7-3.9 3.1zm-53.3 18.2c-.2 3.5-4.6 1.9-6.4 3.9 1.2-3.7 3.9-1.5 6.4-3.9zm6.8-4.2c-.3.4-.6-.1-.9-.5-5.3 5.1-3.7-2.5.9.5zm-10.3 4.2c2.6-4.9 6.2-2.6 0 0zm26.4-31.9c-.8.4-.2 1.6-1.1 1.9-.6-1.1-.1-1.7-.8-2.9 1.2.2 2.2-1.6 3.7.8 0 1.4-.5 1.6-1.8.2zm86.3-42.9c-1.8 1-3.6 2.2-5.2 3.4-.1.1-.2.2-.4.3l-.4.3-.8.7-1.6 1.4c-1.1.9-2.1 1.9-3.2 2.8l-1.6 1.4c-.5.5-1 .9-1.5 1.3-1 .8-1.9 1.7-2.9 2.6-.9.9-1.9 1.8-2.8 2.6-.9.9-1.9 1.7-2.8 2.6-7.5 7-15.1 14.1-23.4 19.8-12.4 8.7-27.4 14.8-38.7 21.1-1.2.7-2 2.9-3.3 3.4-1.3.5-3.4-1-4.5-.4-.4.3 1.1 2.7 1.1 2.6-.8.3-1.4-2-2-2.1-2.5-.2-4.5 3.5-7.3 3.6 1.5 0-3-2.3-3.6-1-.4-1.4 2.2-3.2-.6-1.9 1.3-1.5 3.8-4.9 6.5-1.9.4-.4-.6-1.7-1.1-2.6 7.9-2.4 12-5.9 20.3-11.6-9.7 1.9-13.7 8.4-22.3 9.5.3-4.2 2.4-5.3 1.4-8.8 1.3 1.5 1.1 2.3 1.7 3.4 3.6-2.7 5.1-1.9 6.6-4.5-2.4-4.1-.8 2.1-2.7-.4-.9-3 4.9-3.4 6.2-4.2.9 4.2-4.2.6-2.6 4.1 1.2 1.2 1.2-.7.4-.3.8-.4 2.5-.6 4-1.2 1.6-.5 3.1-1.4 3.5-3 .9-.9-1.5-.9-2.2-3.1 3.9-1.7 6.4-4.1 8.9-5.9 2.5-1.9 4.9-3.5 8.5-3.7 1.2-1.3-1.6-2-1-2.8 1.6-1.9 3.3-3.2 5.9 0-.7-1.6-.7-3.5-.1-4.6.7-1.1 2-1.4 3.8.2-.5-3.8 2.7-5.3 6-7.2 1.6-.9 3.3-1.8 4.5-3 1.2-1.3 2-2.8 1.7-4.8 1-.8 2.3 2.2 2.6 2.7.6-.8 1.3-1.8 2-2.8.7-1.1 1.4-2.2 2.2-3.4.8-1.1 1.7-2.3 2.8-3.3 1.1-1.1 2.3-2.1 3.8-3 .3-.7-1.5-1.9-2.4-2.9 1-1.3 2.5-1.1 3.9-1.5 1.7 2.4-2 .7-2.1 2.4 1.1.9 1.9.7 2.5.1.6-.6 1.1-1.5 1.8-2.1.3-.8-1.2-1.1-1.8-.8.7-3.1 2.5-5.3 4.5-7.4.8-.9 1.8-1.8 2.6-2.8.4-.5.9-1 1.3-1.5.2-.3.4-.5.6-.8l.3-.4.1-.2.3-.4v-.1l.1-.1c1 .7 2 1.5 3 2.2l2.2-3.1c-1.4-.4-2.1.7-3.1 1.1-.6-2.7 1.6-4.9 3.8-7.6 1.1-1.3 2.2-2.7 3-4.3.8-1.5 1.3-3.2 1-5.1 3.1.3 5.1-.7 6.6-2.4.8-.8 1.4-1.9 2-3 .6-1.2 1.2-2.5 1.8-3.8 1.5-3.1-.6-4.4.7-5.8.4-.5.8-1.6 1.1-3.1.3-1.5.7-3.2 1-5 .7-3.6 2-7.3 4.9-8.8-.1-2.1 0-4.3.3-6.7.2-2.4.5-5 1-7.6.3-1.3.4-2.7.7-4.1.2-1.4.5-2.8.7-4.3.1-.7.3-1.5.4-2.2.1-.7.2-1.5.3-2.3.2-1.5.4-3.1.7-4.6.3-1.5.4-3.1.5-4.7.1-1.6.3-3.2.4-4.8.2-3.2.2-6.5.2-9.7-.1-3.2-.4-6.4-.8-9.5-.6-3.1-1.2-6.1-2.1-8.8-.7-2.1-1.8-4-2.7-5.8-.4-.9-.8-1.8-1-2.7 0-.2-.1-.5-.1-.7 0-.2 0-.4-.1-.6 0-.4 0-.8.1-1.2.3-1.5-4.2-2.3-4.6-3.3-.2-.5-.1-1.1.1-1.7v-.1c.1.5-.2-.7-.1-.6v-.1l.1-.3c0-.2.1-.4.1-.6.1-.4.2-.8.2-1.2.3-1.6.1-3.2-1.9-4.2-1.6.3-1.6.9-1.5 1.6-1-.4-2.6-1.9 1.2-2.6-1.7-1.1-2.1-2.5-2.6-3.7-.6-1.2-1.3-2.3-3.6-2.5-.3-2.8-2.7-5.9-5.5-8.9-2.7-3-5.8-5.8-7.3-8.7-.9.8-1.3 1.5-.9 2.2-3.7 1.6-.1-2.7-3.7-.7-.3-.8 2.6-1.9 2.7-2.8-.4-.3-1.1.1-1.3-.4-.7-.4-.9.8-2.4 1.5.4-.7 1.1-1.5 1.9-2.3-.9-1-1 1.4-3.2 2-1.3-1.2 2.2-2.8.8-4-.7-.8-1.7 1.8-3.9 2.5-7.4-6.9-17.9-14.7-32-11.8.8-3.1-.8-3-2.8-2.6-2 .4-4.4 1.3-5.4-.4-1.1-.1-2.6.1-4.3.5-1.6.3-3.4.8-5.2 1.3-3.6 1-7 2-9.3 1.9-.9 0-.1-1.7-.6-1.6-2.3.3-4.9 1-7.7 1.9-2.8 1-5.8 2.3-8.7 3.6-5.9 2.7-11.6 5.5-16.3 6.8-2.2.5-4.6 1.5-6.8 2.5-1.1.5-2.2.9-3.2 1.5-1.1.5-2.1 1-3.1 1.4-1 .4-1.9.8-2.8 1-.9.3-1.7.5-2.5.6-.8.1-1.5 0-2.2-.2-.7-.2-1.3-.5-1.9-1.1-1-.9-1.8-2.1-2.6-3.3-.8-1.3-1.5-2.7-2.1-4.5-.8-1.8-.9-3.5-1.2-5.5-.2-1.1-.3-2.2-.5-3.3l-.3-1.8-.2-.9c0-.2-.1-.3-.2-.5l-.3-.5c1.2-10.7-9.4-32.3 2.8-45.2 1.4-1.5 3.2-2.6 5.3-3.6 1.9-.9 4.1-1.6 6.5-2.2 2.3-.7 4.8-.9 7.2-1.4 1.2-.2 2.4-.4 3.5-.7 1.1-.3 2.2-.5 3.2-.8 2.3-.7 4.7-1.6 7.2-2.5 2.4-.9 4.8-1.8 7.3-2.8 1.2-.5 2.4-.9 3.6-1.4 1.2-.4 2.4-.8 3.6-1.1 2.4-.7 4.7-1.2 6.9-1.5 3.5-.4 6.4-.2 9.4 0 1.5.1 3 .2 4.6.3 1.6.1 3.2.1 5-.1 1.1-.1 2.3-.2 3.7-.3 1.3 0 2.8-.1 4.2-.1 1.5 0 3.1-.1 4.6-.1h4.7c17 .3 34.3 4.3 50.5 12.3 2 1 4 2 6 3.1s3.9 2.3 5.8 3.6c3.9 2.4 7.6 5.2 11.2 8.1l1.4 1.1.7.6.3.3c-.1-.1.8 1 .4.6h.1l.1.1 2 1.5c.2.1.3.2.5.4l.7.7 1.4 1.4 2.7 2.7c3.3 3.4 6.5 7.1 9.5 11 8.5 11.1 15 23.7 19.8 37.5 1.2 3.5 2.3 7 3.3 10.6l.2.7v.2l.7 2.8v.2l.2.8.4 1.6c.2 1.1.5 2.2.7 3.3l.4 1.7c.2 1.1.4 2.2.6 3.4.4 2.3.8 4.5 1.1 6.8.2 1.1.3 2.3.5 3.4l.2 1.7.1 1.4.6 5.7c-1.5.3-1.7-.6-2.9-.6-.3 1.4-.4 2.7-.5 4 0 1.3 0 2.5.1 3.6.2 2.3.6 4.3 1 6.2 2.5-1.1-.5-6.5 1.7-7.7.9 2.3 1.6 4.9 2.1 7.9l.6 4.5c.1 1.5.1 3.1.1 4.7s-.1 3.2-.2 4.7c-.1 1.6-.2 3.2-.5 4.7-.5 3-1.1 5.9-1.9 8.5-.9-.1-.6-1-.8-1.6-4 12.6-8.1 27.8-13.6 42.9-5.4 15.1-12 30-19.2 42.4-2.1 1-5.3 4.6-8.1 8.6-1.3 2-2.6 4-3.6 5.7-1 1.8-1.6 3.3-1.6 4.3-.4.4-.9.8-1.3 1.2l-.3.3c.7-1-1 1.4-.8 1.1l-.1.1-.1.1c-.2.1-.4.3-.5.4-.7.6-1.4 1.2-2.2 1.8-.7.6-1.5 1.3-2.2 2l-.6.5-.3.3-.4.4c-.5.6-1.1 1.1-1.6 1.7-1.1 1.1-2.2 2.3-3.4 3.5-.6.6-1.1 1.2-1.7 1.8l-.9.9-.8.8-6.4 6.4c-8.8 8.5-18.3 16.5-27.4 21.9-2.1 1.3-4 2.4-5.8 3.5-1.8 1.1-3.5 2.1-5.1 3-3.2 1.8-6.2 3.2-9.6 4 6-5.6 13.6-11.4 21.6-17.7 7.9-6.4 16.2-13.3 23.4-20.3-2.3-2.8-2.8 1.3-4.2 1.8-2.1-1.4 2.4-1.6.3-3-3.9 2.4-8.5 6.2-13 9.9-2.2 1.9-4.5 3.8-6.6 5.6-2.1 1.8-4 3.5-5.7 5-1.9-2.8 1.7-1 .3-4 8.3-4.2 15.4-11 21.9-18.3 1.6-1.8 3.2-3.7 4.7-5.5.4-.5.8-.9 1.2-1.4.4-.5.8-.9 1.2-1.4.8-1 1.7-2 2.5-3s1.7-1.9 2.5-2.9c.4-.5.8-.9 1.2-1.4.3-.4.7-.7 1-1.1 2.2-1.2 3.4-2.4 4.7-3.5zm-3.8 10.9c.4 2.2-1.2 2.8-2.7 3.2-.7.2-1.5.5-2 .9s-.7.9-.5 1.9c.7-.6 1.3-1.6 2.6-.1-.8 2.3-2.8.2-4.1.4 3.1 1.5-.9 1.9.9 3.2.6-.4 1.2-1 2-1.6.4-.3.7-.6 1.1-1 .2-.2.4-.3.6-.5.2-.2.4-.4.7-.6 1.8-1.7 3.7-3.7 5.5-5.8.4-.5.9-1 1.3-1.5l.3-.4.2-.3c.1-.2.2-.4.4-.5.5-.7.9-1.4 1.2-2.1.6-1.4.8-2.6.4-3.6-.9.9-1.7 2-2.5 3.1-.4.6-.7 1.1-1 1.7-.2.5-.9 1.3-1.3 1.9-1.9 2.6-3.1 3.9-3.1 1.7zm-62.5 28.8c1.8-1.2 3.4-.6 3.3-2.6-1.1-.4-4.2.8-3.3 2.6zm-.1-5.9c4 .5 3.2-4.1 0 0-1.4-1.8-4.6.5-1.6 1.3-.3-.5-.6-.9-.2-1.1.6.7.4 1.1.8 1.8.7-.5 1.1-1.1 1-2zm19.5 12c-.7-1.1.6-1.5 1.1-2.1l.6.7c3.2-2.9 3.5-2.4 2.5-1.3-.8 1.2-2.9 3-4.2 2.7zm-9 7.3c-1.2-.9.3-2.5 2.3-3.8 2-1.3 4.5-2.2 5.6-1.4-1.2.6-3 1.5-4.6 2.5-1.6 1-2.9 2-3.3 2.7zM147.7 387.2c-.5-.3-1.1-.7-1.7-1.1-.3-.2-.7-.4-1.1-.6-.3-.2-.7-.4-1-.6-1.4-.8-3-1.4-4.7-1.3 1.4.8 2.8 2.3 4.2 3.3.6.5 1.5.9 2.2 1 .8.1 1.5-.1 2.1-.7zm8.7 4.4c-1.7 1.6-4.3-1.2-6.2-1.4 1.9-2.1 4.2-.1 6.2 1.4zm12.7 4.5c-3.2.4-4.9-.5-5-1-.1-.6 1.4-.8 5 1zm1.7.5c2.4 0 2.3 2 4.3 2.4-.8 1.2-5.9.5-4.3-2.4zm12.7 5.9c-1 1.2-1.7.6-2.5-.1-.7-.8-1.5-1.7-2.8-1.5-.4-2.3 4.1 1 5.3 1.6zm61.8 30.4c3.3-2.2 6.4 2.1 10 2.1-4.5 1.6-5.3-1.9-10-2.1zm-10.5-2.3c.6 0 .5.5.5 1.1 9.7.5 1.5 4.4-.5-1.1zm14.1 4.9c-6.9 1.4-8.6-2.9 0 0zm-54 .3c1.1.4 1.6-.8 2.8-.3-.5 1.1-1.5 1.1-2 2.4-.9-1.1-3.4-.8-2.5-3.5 1.2-.8 1.8-.6 1.7 1.4zm-84.2-63.4c1.4 1.8 3 3.6 4.6 5.3 1.7 1.6 3.5 3.2 5.3 4.7 1.9 1.5 3.9 2.8 5.9 4.1l.8.5c.2.1-1.3-.7-.7-.3l.1.1.2.1.5.3 2 1.1c1.3.7 2.7 1.5 4 2.2 8.3 4.5 18.5 8.6 28.5 13.1 7.5 3.4 15.5 7.2 23.6 10.9 8.1 3.6 16.4 7 24.2 9.5 1.6.5 4.4-.3 5.9.4 1.6.7 2.2 3.4 3.8 3.8.6.2 1.4-2.6 1.3-2.6 1 .4-.5 2.4 0 2.9 2.1 2.1 7.4 1.1 10.2 3.2-1.5-1.2.9 3.8 2.7 3.5-.9 1.2-5 .5-1.1 1.7-2.6 0-8.1.4-8.1-3.7-.8 0-.9 1.6-1.3 2.6-9.7-4.5-16.7-5.5-29-8.8 10 6.8 19.7 5.9 29 11.7-4 2.6-7.2 1.6-9.3 4.7.2-2 1-2.3 1.5-3.5-5.9-1.1-6.6-2.8-10.3-2.4-1.6 4.5 2.7-.6 2.1 2.4-1.9 2.6-7.7-1.8-9.6-2.3 3-3.3 4.4 3 6.2-.4 0-1.7-1.8-.6-.6-.2-1.1-.4-2.9-1.6-4.8-2.5-1.9-1-4-1.7-5.8-1.1-1.7-.2.5 1.8-.9 3.6-2.6-1.1-4.9-1.9-7.1-2.5-2.2-.6-4.3-1.1-6.2-1.6-1.9-.5-3.8-1.1-5.5-2-1.7-.9-3.3-2-4.9-3.5-2.2-.4-.7 2.4-2.1 2.3-3.1-.5-5.7-1.5-4.4-5.3-2.1 2.9-7.7 3.6-7-1.3-3.5 2.2-7.3-.1-11.1-2.5-3.9-2.4-7.6-5-11.8-3.2-1.4-.7 1.1-3 1.5-3.5-2.3-.7-5-1.1-8.1-2-1.6-.5-3.4-1.3-5.2-2.1-.9-.4-1.7-.9-2.6-1.5l-.6-.4-.1-.1.4.2-.1-.1-.3-.2c-.4-.3-.7-.6-1.1-.9-.9-.1-1.5 1.9-2.3 3.1-1.7-.8-2.1-2.4-3-3.7 2-2.2 1.4 1.9 3.3 1.7 1.2-2.7-2-2.8-3.5-3.9-.9-.1-.8 1.4-.3 1.9-3.4-.2-6.1-1.8-8.8-3.6-1.3-.9-2.6-2-4-2.9-1.4-1-2.9-1.9-4.5-2.7.7-1 1.4-2.1 2.1-3.1l-3.5-2.3c-.4 1.4.8 2.2 1.5 3.2-2.8.5-5.5-1.8-8.3-4.3-2.9-2.5-5.8-5.3-9.9-5.6.5-3.1-.1-5.4-1.5-7.3-.7-1-1.7-1.8-2.7-2.8-1-.9-2.1-1.9-3.3-3-2.7-2.4-4.6-1-5.5-2.8-.6-1.3-4-3-7-5.5-.8-.6-1.5-1.3-2.2-2-.4-.3-.7-.7-1-1.1-.3-.4-.6-.8-.8-1.1-1-1.5-1.6-3.2-1.5-4.8-.5-.3-.9-.6-1.4-.9-.5-.3-.9-.7-1.3-1-.9-.7-1.8-1.5-2.7-2.4-.9-.9-1.9-1.8-2.7-2.8-.9-1-1.7-2.1-2.6-3.3-1.8-2.2-3.3-4.8-4.9-7.5-.9-1.4-1.4-2.6-2.1-3.9-.3-.6-.7-1.3-1-1.9l-.5-1-.3-.5-.1-.2-.1-.3c-6.1-13.6-8.7-24.9-11-36.1-.8-3.9-3.1-7.6-1.1-11.2.4-.8-.3-1.8-1.2-2.9-.8-1.1-1.8-2.2-1.7-2.9.2-2.7 5.2-5.2 3.1-8.9-1.5-.6-1.8-.1-2.1.6-.3-.5-.6-1.3-.3-1.8.3-.6 1.1-.8 2.8 0-.2-.6-.2-1.1-.3-1.6V263.1v.2-.1c0-.2 0-.4.1-.6.1-.8.4-1.6.5-2.3.2-.7.3-1.5.2-2.3-.1-.8-.4-1.6-1.1-2.5.9-1.4 1.5-3.2 2.1-5.3.3-1 .5-2.1.8-3.3.3-1.1.5-2.3.8-3.5.1-.6.3-1.2.4-1.8l.5-1.8c.3-1.2.7-2.4 1-3.5.8-2.3 1.7-4.4 3-6.1-1.1-.4-2.1-.4-2.6.6-3.1-2.7 2.8-2-.6-4.3.8-.9 2.9 1.4 3.9 1 .1-.5-.4-1.1-.1-1.6.2-1-1.1-.5-2.3-1.6.9-.1 2 .1 3.1.5.8-1.5-1.9-.2-3.1-2.2 1-2.2 3.7.6 4.6-1.6.7-1.3-2.4-.7-3.8-2.8 3.2-6.5 7.3-13.5 11.2-20.9.9-1.9 1.9-3.8 2.9-5.7.9-2 1.8-3.9 2.6-5.9.4-1 .8-2 1.2-3.1.4-1 .8-2.1 1.2-3.2.7-2.1 1.5-4.5 1.8-6.6 1.9.3 3 0 3.7-.7.2-.2.3-.4.4-.6l.1-.2v-.1c.5-.4.1-.1.3-.2.1-.1.1-.3.2-.4.2-.5.4-1.1.6-1.8.7-2.5 1.2-5.7 4.6-7.1 2.1-3 4-7.6 6.3-12.3 1.2-2.3 2.5-4.6 3.8-6.8 1.4-2.1 2.9-3.9 4.6-5.3 1.3-1.1 2.8.2 3.4-.4 5.5-5.8 11.2-13.5 18.4-21.1 7.2-7.6 15.9-15.1 26.4-19.8 2.5-1.1 5.1-2.4 7.6-3.5 1.3-.6 2.6-1.1 3.8-1.7l1.9-.9 2.2-.8c1.5-.5 3-1.1 4.5-1.6l2.2-.8c.2-.1.4-.1.5-.2l.3-.2.7-.3 2.8-1.3 1.4-.6.3-.2.2-.1h.1 1.3l1.1-.3c11.2-3 23.4-4.2 36.4-.3 10.7 3.2 20.2 8.1 28.5 14.6 8.4 6.5 15.6 14.7 21.5 24.7-.6 1.2-.9 2.8-.9 4.8 0 1 0 2 .1 3.1 0 .5.1 1.1.1 1.7 0 .6 0 1.1.2 1.8.5 2.7.9 5.5 1.1 8.3.1.7.1 1.4.1 2.1 0 .7.1 1.4-.1 1.9-.4 1-.8 2.1-1.2 3.1-1.7 4-3.8 7.8-6.7 10.6-1.5 1.4-3.2 2.6-5.1 3.4-1 .4-2 .7-3.2.9-.6.1-1.1.2-1.8.3-.3.1-.7 0-1.1 0-.4 0-.8-.1-1.2-.1-1.4-.1-2.9-.4-4.5-.8-1.6-.3-3.2-.6-4.9-1-1.7-.4-3.5-.8-5.3-1.2-1.8-.3-3.7-.8-5.5-1.1-7.4-1.3-15-1.6-20.4-.4-6.4 1.3-12.2 4.2-17.3 7.3-.6.4-1.3.8-1.9 1.1l-1.8 1.2c-1.2.8-2.4 1.5-3.5 2.3-.6.4-1.1.7-1.7 1.1l-.4.3-.2.1h-.1.3l-.1.1-.9.5c-1.2.7-2.5 1.4-3.7 2-.5.2-1 .5-1.4.7-.4.2-.8.4-1.1.7-.8.4-1.5.8-2.2 1.2-1.5.7-3 1.5-4.4 2.2-1.5.7-2.9 1.5-4.3 2.4-.7.4-1.4.9-2.1 1.4-.7.5-1.4 1.1-2.1 1.7-3.4 2.9-8.2 7.7-12 12.2-5.2 6.2-9.7 12.3-13.6 18.3-1 1.5-1.9 3-2.8 4.5-.8 1.5-1.7 2.9-2.6 4.4-.8 1.5-1.6 2.9-2.3 4.3l-1.1 2.1-.3.5-.1.3c2-1.4.5-.4 1-.7l-.1.1-.1.2-1.1 1.4-2.1 2.9-.3.4c-.1.1 0 .2-.1.2l-.1.4-.2.8-.2.8-.1.4v.2l-.1.3-.9 2c-1.2 2.6-2.2 5.3-3.2 7.8-1.9 5.1-3.6 10-5.1 14.5-1 3-2 6-2.9 9-.4 1.4-.9 2.8-1.2 4.1l-.3 1-.3 1-.5 1.9c-.6 2.2-.4 1.5-.5 2-.1.6-.3 1.2-.4 1.8-.2 1.2-.4 2.3-.6 3.4-.2 2.1-.3 4 0 5.5-1.5.1-1.6-.1-2.8 0-.8.7-.9 1.2-.7 1.7.1.5-.1-.7-.1-.6l.1.4c.1.2.1.5.2.7l.1.4c0 .1 0 .1 0 0l.1-.1.1-.1.2.2.3.3c.6-.2.8-.4.9-.5v-.1-.1c0 .1 0 .1-.1.2l-.1-.3c0-.2-.1-.4-.1-.5 0-.2-.1-.3-.1-.5v-.2c0-.1.1 1.1.1.6v-.1c.1-.1.3-.3.9-.4.2.1.4.2.6.2-.2-1.2 0-.3-.1-.6v.1l.1.2.2.4.2.4c.1.1.1.4.2.3.1-.1.2-.1.2-.2l.1-.1s.1 0 .1.1c.2.1.3.2.5.4.6.5 1 1.2 1.4 2.1.4.9.6 1.9.8 3.1.1.3.1.6.2.9V302.8c.2.5-1.6-4.3-.9-2.3v.1l.1.2c.1.3.2.6.3 1 .3 1.3.6 2.5.9 3.8-.9.3-1-.5-1.4-.9.3 1.5.6 3 .9 4.6l.1.6.1.3v2.5c.3.8.6 1.8 1 2.7 1.3 3.7 3.6 7.4 6.2 11.2 5.5 7.5 13.2 14.7 20.8 20.7.1.9.6 2.1 1.5 3.3.4.6 1 1.2 1.5 1.8.6.6 1.2 1.1 1.9 1.7 1.4 1.1 2.7 2 4.1 2.7 1.3.6 2.5.9 3.3.8.5.7 1.1 1.4 1.8 2.1.6.7 1.4 1.3 2.1 2 1.5 1.3 3.1 2.8 4.9 4 1.8 1.3 3.7 2.7 5.7 3.9 1 .6 2.1 1.3 3.1 1.9l.8.5.1.1c-.4-.2 1 .5-.9-.5h.1l.3.1.6.3c.7.4 1.5.8 2.2 1.2l4.5 2.4c1.1.6 2.2 1.1 3.3 1.7l3.1 1.7c1.2.6 2.5 1.2 3.7 1.9 2.5 1.3 4.9 2.5 7.3 3.8 2.4 1.3 4.8 2.5 7.1 3.8 2.1 1.2 4.2 2.2 6.1 3.2 1.9 1 3.7 1.8 5.5 2.7 1.8.9 3.4 1.7 5 2.6 1.6.9 3.1 1.9 4.6 3.1-8.8-1.7-18.6-4.9-28-9-2.3-1-4.6-2.1-7-3.1-2.2-1.1-4.5-2.2-6.7-3.3-4.5-2.4-8.9-4.8-13.1-7.1-2 3 2.4 2.5 3.5 3.8-.7 2.5-2.6-2-3.3.5 1 .8 2.2 1.6 3.4 2.5l1.8 1.2c.5.3 1 .6 1.5 1 2 1.3 4 2.5 6.8 3.9 1.3.6 2.6 1.3 3.9 1.9 1.3.6 2.7 1.1 3.9 1.7 1.3.5 2.6 1 3.8 1.5 1.2.4 2.4.9 3.5 1.3-1.6 3-1.8-1-3.7 1.7-4-2.7-8.3-5-12.6-7.1-2.3-1-4-1.9-6-2.8l-1.5-.6c-.5-.2-.9-.4-1.6-.7l-3.9-1.8c-7.8-4.1-15.6-8-21-13.2zm11 2.2c1.9-.9 2.4.3 2.8 1.6.5 1.2 1 2.4 2.7 1.4-.7-.5-1.7-.7-.5-2.4 2.2 0 .6 2.5 1 3.7.8-3.3 1.9.3 2.7-1.8-1-.8-2.3-1.9-3.9-3-1.5-1.1-3.2-2.4-4.9-3.4-1.7-1-3.4-2-4.9-2.5-1.5-.5-2.9-.7-3.9-.2 1.1.9 2.4 1.6 3.7 2.3 1.3.7 2.6 1.3 3.7 1.8 2.2 1.2 3.4 1.9 1.5 2.5zm53.8 46.1c-2.5-.9-3-2.6-4.8-1.5.3 1.2 3.7 3.2 4.8 1.5zm-5.6 3.2c-2.4-3.7-6.2-.6 0 0-.7 2.1 4 3.8 2.4.7-.2.5-.4 1-.9.7.3-.9.8-.9 1.2-1.6-1-.3-2-.3-2.7.2zm-1.7-23.2c-.6 1.2-1.7.3-2.6.1l.3-.9c-8.7-2.8 1.1-1.7 2.3.8zm12.1 3.8c.1 2.9-9.9-1.2-9.6-4 2.4 1.6 7.9 4.1 9.6 4z"/><g><path class="st0" d="M225.6 292c-5.4-1.3-10.4-3.7-15.6-6.2 2.8 2.2 5.2 4.1 7.8 5.9 2.6 1.7 5.5 3.4 9.5 4.6-3.7.6-8.1 0-12.8-1.7-4.7-1.7-9.6-4.6-14.5-8.4-.7-.5-1.4-1.1-2.1-1.6-.7-.5-1.4-1.1-2.1-1.6-1.4-1.1-2.8-2.2-4-3.5-2.6-2.6-4.5-6-6.5-9.3-.6-1.1-1.3-2-2-3.2l-1-1.6c-.3-.5-.7-1.1-.9-1.6l-.8-1.5-.4-.7-.2-.4v-.1l-.1-.2v-.1l-.1-.2c-.5-1.1-1-2.2-1.4-3.3-5.3-13.9-6.1-30.3-1.5-45 .5-1.9 1.2-3.7 1.9-5.5l1.2-2.7.6-1.4.6-1.2.6-1.2.3-.6.2-.3.1-.2v-.1l.1-.2c.5-.8 1-1.7 1.5-2.5 1.1-1.6 2.2-3.2 3.5-4.7 2.5-3 5.5-5.7 8.9-7.8 1.7-1 3.5-1.9 5.4-2.6.9-.3 2.1-.6 3-.8l1.2-.2h.9l.7-.1c-.2.1-.5.2-.7.3-.1 0-.2.1-.4.1H206.2l-.2.1c-.4.2-.9.4-1.3.6-1 .5-1.9 1-2.1 1.5.5-.2 1.2-.4 1.8-.6.3-.1.6-.2.9-.2.3-.1.5-.1.8-.2l.5-.1.5-.1c.3 0 .6-.1 1-.1.6-.1 1.3-.2 2-.2 2.7-.2 5.4.2 8 1 2.6.8 5 1.9 7.1 3.2 2.1 1.3 4 2.8 5.6 4.2-2.2-1.3-4.6-2.7-6.9-3.8-2.3-1.1-4.5-1.9-6-2.2.2-.3 1.2.1 1.8.3-.3-.3-.6-.5-1-.7-.4-.1-.9-.2-1.4-.3-.9-.1-1.9 0-2.4 0 1.1.5 2.9 1 4.6 1.6.4.2.9.3 1.3.5s.8.4 1.3.6c.8.4 1.6.9 2.3 1.3-.6.1-1.7-.5-2.9-1-.3-.1-.6-.3-.9-.4l-.9-.3c-.6-.2-1.1-.3-1.5-.3 3.4 1.3 7 3.7 10.1 6.9 1.6 1.5 2.9 3.3 4.2 5 .3.4.6.9.9 1.3.3.4.6.9.8 1.3l.4.6.4.7c.3.5.5.9.8 1.4-.8-.8-1.6-1.7-2.5-2.4-.8-.7-1.7-1.4-2.5-2.1-1.8-1.4-3.7-2.7-5.7-4-4.1-2.8-9.2-4.8-14-4.3l-.9.1-.9.2-.4.1H208.6c.1 0-.2.1.2 0h-.2l-1.2.3c-.1 0-.2.1-.3.1l-.2.1-.4.1-.4.1-.4.2c-.6.2-1.2.6-1.7.9-1.1.7-2.3 1.5-3.3 2.4-1.1.9-2.1 2-3.1 3.1-1 1.2-1.9 2.4-2.8 3.7-.4.7-.9 1.3-1.3 2-.2.3-.4.7-.6 1.1l-.3.5s.1-.3.1-.1v.1l-.1.2-.2.3c-.4.8-.8 1.6-1.2 2.5-.4.8-.6 1.5-1 2.2-.3.7-.6 1.5-.9 2.3-.3.8-.6 1.6-.8 2.4-2.1 6.4-3.1 13.3-2.9 20 .2 9 2.6 19.8 8.1 29.1 2.7 4.7 6 9 9.6 12.8 3.6 3.7 7.5 6.9 11.3 9.5 1.1.8 2.2 1.4 3.2 2 1 .6 2 1 2.9 1.4.5.2.9.4 1.3.6.4.2.9.4 1.3.6.7.8 1.4 1.3 2.3 1.7zM239.9 379.7c-3.2-3.2-6.1-6.6-9.6-9.6 3.1 4.7 4.2 8.6 8.1 13.6-5.8-2-10.9-7.5-16.7-14.2-1.7-1.9-3.8-3.5-5.5-5.4-1.8-1.9-3.1-4.4-4.8-6.5-2.2-2.8-4.8-5.1-7-7.7-13.4-16.2-27.8-34-37.7-51.6 1 .7 2.2 2.2 3.1 2.2-3.7-5.2-8.4-12.3-11.9-17.5 2.9 2.4 5.5 6 6.9 7.8-.3.1-.7-.5-1-.9 0 1.2 1.7 2.2 2.3 2.7-.5-1.8-2.8-4.5-3.9-6.6 1 .2 2.4 2.9 3.5 3.5-1.4-2.4-3.1-5.3-4.8-8.3-1.7-3-3.3-6-4.4-8.8 2.2 2.6 5 4.6 7.7 7.7 11.6 13.2 25.3 32.4 39.1 50.1 9.2 11.9 22.1 28.5 30.6 40.9 2.7 3.8 4.8 5.8 6 8.6zM299.5 289c3.1-3.2 6.1-6.3 8.4-10.2-4.1 3.7-7.7 5-12.4 8.8 1.8-5.6 6.4-10.5 11.2-17 1.4-1.9 2.2-4.1 3.4-6.1.6-1 1.3-2 2.1-2.9.7-1 1.5-2 2.1-3 1.6-2.7 2.5-5.8 3.6-8.5 1.9-4.4 3.4-8.8 4.3-13.3.5-2.3.8-4.6 1.1-6.8.2-2.3.3-4.5.2-6.7 0-.6-.1-1.1-.1-1.6-.1-.5-.1-1.1-.2-1.6-.2-1-.3-2.1-.6-3.1-.2-1-.5-2-.8-3-.1-.5-.4-.9-.6-1.4-.2-.5-.4-1-.6-1.3l-.6-1.2c-.1-.2-.3-.5-.4-.7l-.5-.8-.5-.8-.1-.2c.3.4.1.1.2.2l-.1-.1-.2-.3-.9-1.2c-1.2-1.5-2.7-2.9-4.3-4.1.5 0 1.1.2 1.7.4.6.2 1.1.3 1.5.1-.5-.4-1.1-.8-1.7-1.2-.6-.4-1.3-.7-1.9-1.1-.7-.3-1.4-.7-2.1-1-.7-.3-1.5-.6-2.2-.8-3-1-6.3-1.4-9-1.2.8-.3 1.6-.5 2.5-.6.4-.1.9-.1 1.3-.1h1.3c1.7.1 3.2.4 4.2.6-.1.3-.8 0-1.2-.1.3.5.9.6 1.6.6h1.6c-.3-.3-.8-.6-1.3-.8-.5-.2-1.1-.4-1.7-.6-.6-.1-1.3-.3-1.9-.4-.6-.1-1.2-.2-1.8-.4.8-.7 3.5.2 4.7 0-2.5-.9-5.7-1.7-9.1-1.8-1.7-.1-3.5.1-5.2.4-.9.2-1.7.4-2.6.7-.8.3-1.5.6-2.1.8.7-.6 1.2-1.2 2-1.7.4-.3.8-.6 1.3-.8.4-.3.9-.6 1.4-.8.9-.5 1.9-.9 2.9-1.2 1-.4 2.1-.6 3.3-.7 4.8-.6 10.3 0 15.6 2.3 2.6 1.1 5.2 2.6 7.6 4.6.6.5 1.2 1 1.7 1.5.5.6 1.1 1.1 1.6 1.7l.2.2.1.1.3.3.3.4.6.8c.4.5.8.9 1.2 1.7.5.7.9 1.4 1.3 2.2.4.7.7 1.4 1.1 2.1l.5 1.1.4 1.1c.3.7.6 1.5.8 2.2.9 3 1.4 6.1 1.7 9.1.4 6.1-.2 12.1-1.6 17.7-.9 3.8-2.2 7.9-3.9 11.9-.2.5-.4.9-.6 1.4-.2.5-.5 1-.7 1.5-.2.5-.5 1-.7 1.6l-.8 1.5c-.5 1-1 2-1.6 3-.5 1-1.1 2-1.7 2.9-4.7 7.8-10.5 14.7-16.1 19.6-3.9 2.7-5.8 4.8-8.5 6.1zM276.7 382.3c2.6-3.9 5.3-7.6 7.6-11.8-4.1 4.2-7.7 6.2-11.9 11.3.9-6.2 5.3-12.5 10.7-19.9 1.6-2.2 2.7-4.6 4.2-6.8s3.7-4.1 5.4-6.4c2.3-2.9 4-6 6.1-8.8 13.1-17.3 27.3-36 42.2-50.5-.4 1.2-1.6 2.7-1.4 3.7 4.2-5 10.1-11.7 14.2-16.5-1.6 3.5-4.5 7.1-5.9 8.9-.2-.2.4-.8.7-1.2-1.2.3-1.8 2.3-2.1 3 1.7-1 3.7-3.9 5.5-5.7.1 1.1-2.2 3.2-2.6 4.4 4-4.1 10-9.8 14.1-14.8-1.4 3.4-2.7 7.1-5.2 10.7-10.1 15.2-25.8 33.9-40.3 52.1-9.7 12.2-23.5 29.1-34.1 40.4-3.1 3.4-4.6 6-7.2 7.9zM247.4 346.2c-.4-3.7-.4-7.3-1.2-11-.6 4.6-2.3 7.6-2.5 12.8-3.1-4.3-3.5-10.4-3.7-17.7-.1-2.1-.7-4.2-.8-6.3-.1-2.1.4-4.4.4-6.6.1-2.9-.5-5.7-.5-8.5-.1-17.2-.4-35.8 2.6-52.1.4 1 .4 2.5 1.1 3 .3-5.2.9-12.2 1.2-17.2.9 3 .7 6.7.8 8.5-.3-.1-.2-.7-.2-1.1-.8.8 0 2.3.2 2.9.7-1.4.5-4.3.9-6.2.7.6.2 3.1.6 4.1.7-4.5 2-10.9 2.1-16.1 1 2.8 2.1 5.8 2.4 9.2 1.2 14.4.2 33.7-.2 52.1-.3 12.3-.8 29.6-2.3 41.8-.3 3.6 0 6-.9 8.4z"/><path class="st0" d="M262.4 350.8c-.4-3.8-.5-7.7-1.3-11.5-.5 4.8-2.1 7.9-2.3 13.4-3.1-4.5-3.6-10.8-4-18.3-.1-2.2-.8-4.3-1-6.5-.2-2.2.2-4.5.2-6.8-.1-3-.7-5.9-.9-8.7-1-17.8-2.7-36.9-1.4-54 .5 1 .7 2.5 1.4 2.9-.2-5.4-.5-12.6-.7-17.9 1.2 2.9 1.5 6.8 1.7 8.6-.3 0-.3-.7-.3-1.1-.7.9.3 2.4.5 3 .6-1.5.1-4.5.2-6.5.8.6.5 3.2 1.1 4.1.2-4.7.7-11.6.2-16.9 1.4 2.8 2.9 5.7 3.6 9.3 3 14.9 3.9 35.1 4.7 54.4.6 12.9.7 31-.6 43.8-.6 3.7-.3 6.1-1.1 8.7z"/></g></svg>