<svg xmlns="http://www.w3.org/2000/svg" viewBox="0 0 500 500"><path class="st0" d="M82.8 206.8c-1.1 1.2.7-.4 1.5-1.1 1-1 2.2-2.1 2.3-2.6-1.1.9-2.8 2.6-3.8 3.7zm20.6-20.7c.9-1.1 2.4-3.7 3.9-3.9-1.3 1.2-2.9 3.1-3.9 3.9zm-2.3 2.6c1-1.8 2.1-1.8 0 0zm12.5-13.3c-.1.1-.2.1-.3 0-1.8 2.4-.7-.6.3 0zm.6-1.1c-.1-.7 1.7-1.5 1.6-2.2.7 0-1.4 2-1.6 2.2zm6.8-10.1c.5.6-1.1 1.5-1.5 2.2-1 .4 1.5-1.7 1.5-2.2zm-51.4 50.3c1.1-1.7 2.2-1.6 0 0zm-5.1 4.6c1.3-1.9 2.1-1.6 0 0zm-9 2.7c1-1.7 4-3.3 6.8-6.1-.6.8-1.7 1.8-3 2.9-1.4 1.1-2.8 2.2-3.8 3.2zm63.6-66.5c0-.2-.1-.4-.4-.6l.8-.9c.6.7-.3.7-.4 1.5zm-1.1-2.1c-.3-.6 1-1.5 1.2-2.1.3.9-.7 1-1.2 2.1zm18.8-23.1c.3.2-.4.6-.5.9-.2-.3-.1-.6-.4-.9.5-.4.7.1.9 0zm-.8 1.2c-.2.1-.3.1-.5.3-.5-.2 0-.5-.3-.8.4-.1.9.1.8.5zm-10 11.5c0-.6.7-1.5.9-2.4 0 .4-.1.8.1 1.2-.6.5-.4 1.1-1 1.2zm11.2-13.4c0-.2-.1-.3-.3-.5.8.2.9-2.7 1.8-1.4-1.1 0-.6 1.8-1.5 1.9zm-9.8 11.5c0-.4.2-.8.7-1.3.2.4-.4 1.2-.7 1.3zm4.2-6.5c-.4.7-.8-.3-1.2-.5.4-.4 1.2.2 1.2.5zm8-11.6c.3-.2 1.3-1.4.8-1.9.5 0 .5-.1.8-.7.5.2 0 .5.3.7-1 .6-.8 2.4-1.9 1.9zm-.6 1.3c-.2.1-.4-.1-.5.1-.1-.4.7-1 .5-1.4.6-.2.3 1-.2 1.1l.2.2zm2.9-3.8l-.4-.3c.3-.3.5-.9.8-.4-.3.2-.1.4-.4.7zm1.2-3.3c.4-.2.3 1.4-.2 1.4-.4-.4.3-1 .2-1.4zm-.3.7c-.1.2-.2.1-.3 0 0 .4.7 1.1-.1 1.2-.3-.3.4-.8-.3-1 .2-.3.5-.4.7-.2zm2.3-2.7c-.4.1-.4.8-1 1.3-.2-.9.5-1.4.2-2.1.6-.3.7.6.8.8zm4.4-12.4c-.1.3-1-.2-.5-.5.1.1 0 .3.2.3.7-.6-.4-.6.1-1.1.3.8.3-.4.8-.9-.1.9-.4 1.6-.6 2.2zM45.6 232.2c-1.7.8-4.7 4-7.1 4.8 2.5-1.9 3.8-3 6.3-5.1-.3-.3-.7.5-1.1.6 7.6-6.6 12.6-10.7 18.9-16.3.4-.5-.1-.7 0-.9l3.2-2.8c.4.8 1 .3 1.6.2.5-.3-.7-.5-.2-.8-.3-.3-.6.1-1 .4 1.9-2 4.4-4.3 7.1-6.9 2.7-2.6 5.6-5.3 8.4-8-.1-.3 1-.8.4-1.1 3-1.2 4.2-4 6.7-5.9-.7-.1.6-.5.6-1.4.4-.4.3-.1.4.1 8.2-8.3 16.6-17.2 21.4-23.8 1.3-1 2.6-2.3 3.7-4.3 2.5-2.6 5.3-5.5 6.6-8.8.3.1.1.3 0 .5 1.3-1.1 3.1-3.2 4.2-4.9.3-.4-.5-.1-.7-.6.2-.4 1-.8.8-1.2 1-.3-.7.9 0 1.1 1.2-.7 1.8-2.1 2.3-3.4 2.2-2.1 4.3-4.8 6-7.4 1.8-2.6 3.4-5.1 4.8-7-.1-.6-.8.5-.5-.2.3-.2.1-.4 0-.5.6-.5.4.4.9.2 2-3.3 3.2-4.7 4.1-7.3.2.8.2-.3.6-.3.1-.9-.2-1.8.6-2.8.5.3-.5 1.2-.4 2 1.7-2.2 3.3-4.1 3.7-7.5-.7-.3-.5 1.1-1.1.7.3-1.5.7-2.5 1.8-3.4.1.2-.1.4.1.5-.2-.2 1-1.9.2-2.5 1-.5 1.1-1.3.4-2.1.5-.3.9-1 1.5-.9 0-.3-.4-.2-.1-.8-1.1.2-1.2.8-1.9 2.2.1.5.3.1.7.5-.6.6-.6-.2-1.3.3-.7 1.3-.3 1.7-1.2 3-.8-1.1.6-2.3 1.1-3.3-.1-.4.1-1.6 0-1.6-.1-.4.4-.2.5.1.8-1.6.2-2.1-.3-2.7.5-.4.8-.2 1.1.3.2-.8.8-1.6 1.1-2.4.3-.8.3-1.6-.4-2.3.2-.1.4 0 .6-.3-.6-.7.9-1.2 0-2.1 1-.3.9-1.8 1-2.6l.8.4c.3-1.1.4-2 .6-3-1 .2-.4 1.7-1 2.6.1-3.1.6-5.6.9-8.7.3 2-.1 3.6-.3 5.7.6-.2 0-1 .7-1.1-.2-1.3 0-3.9.6-4.4-.4-.4-.4-1-.4-1.6v-1-1.3c.6-.5.2.7.5.8.6.1-.2-1.1.6-.6-.3.9-.1.9-.7 1 .7.3 0 .5.6.7-.1.3-.4.2-.6.1.4.3.9.5.4 1 1 .3.9-1.3.4-1.6.5-.9.9-2.1.7-3.2v-.1l-.1.2v.3c0 .2 0 .3.1.3.1.2.3.2.6.2-.3.1-.3.8-.1 1.3.2.4.6.7.9.4l.8 1.6c.1.2.2.4.3.5.1.2.3.5.5.7.1.2.2.3.4.5s.3.4.5.5c.1.1.2.2.4.3.1.1.3.2.5.4.3.2.6.4 1.1.7-.1-.1-.2-.2-.4-.3-.1-.1-.2-.1-.2-.2l-.3-.3c-.2-.2-.2-.3-.3-.4-.1-.1.1-.1.2 0s.3.1.3 0-.1-.2-.2-.4c-.1-.1-.1-.2-.2-.3-.1-.1-.1-.2-.2-.4.1 0 .2.1.4.1l.6.4c.2.1.4.3.7.4.3.2.7.3 1.1.5l1.2.3c.5.1.8.1 1.4.1.6 0 1.1-.1 1.7-.2.1 0 .3-.1.4-.1.1 0 .3-.1.2-.1h-.1c-.1-.2-.1-.3-.1-.4v-.1l-.5.1c-.4 0-.8.1-1.2.1-1.6-.1-2.7-.8-2.9-1.2 1 .6 1.6.6 1.8.5.2 0 .1-.1.1-.2s0-.1.5-.1c.2 0 .7 0 1.3-.1.2 0 .3-.1.5-.1h.1c-.1 0-.1.1-.2.1 0-.1.1-.2.2-.4h-1.1c-.2-.1-.2-.1.1-.2.1 0 .2-.1.4-.1.1 0 .1-.1.2-.1l.1-.1h.1-.3c-.1-.1-.1-.3-.1-.3l.1-.1.1-.1h-.2c-.5.1-1.2.1-1.4 0-.3-.1-.5-.3-.5-.4.2-.3.6-.3 1-.5.2-.1.5-.3.6-.4 0-.1-.1-.2-.2-.4-.1-.1-.1-.2-.1-.2 0-.1.1-.1-.1-.1s-.3-.2-.2-.4c-.1 0-.1-.1-.2-.1l-.1-.1v-.2c.1-.1.3-.1.4-.1.4.1.8.5 1 1 .3.5.5 1 .6 1.7V85c0 1.2 0 2.3-.1 3.6-.1 1.2-.3 2.5-.6 3.7-1.6 7.7-4.5 15.9-8.4 23.4-2.4 4.6-5.5 9.6-8.5 13.9-1.3 1.8-2.5 3.6-3.7 5.2-1.2 1.6-2.3 3.2-3.4 4.7-2.1 3-4.3 5.9-6.5 8.8-4.4 5.8-9.2 11.8-16 19.8-5.4 6.4-11.9 14.2-18.1 20.1-2.9 2.7.2-.7.8-1.3 5.8-6.4 10.9-11.5 16.3-18.4-.9.6-2.2 2-2.9 3.1 4.1-6 10.2-12.4 14.8-18.3.2.5-.4.7-.8 1.5 2.2-1.8 3.1-4 5.4-6.4-1.2.2-1.4 1.8-2.8 3-.2.2-.5.6-.7.5l.5-.6c1.9-2.9 4-5.7 6.1-8.5 2-2.8 3.9-5.4 5.5-8.1-2.8 3.5-6.2 7.3-8.9 12.1 0-.2-.1-.4-.3-.2-2.9 3.7-5.7 7.1-8.2 10.4 3.1-4.7 6.9-9.2 10.4-14.2-2.3 2-3.8 5-6.4 7.7-.3.3-.1.5.1.7-2.1 1.7-3.7 3.9-5.4 5.8-6.4 7.4-12.4 14.3-18.7 21.3-6.4 7-13.1 14.1-21.1 21.8-.7.6-1.4 1.2-2.2 2.1-.7.7-1.7 1.1-2.5 1.8-1.9 1.8-3.3 4.4-5.5 4.9-.5.6-1.9 1.6-1.3 1 2.1-2.6 4.5-4.3 6.3-6.1 7.5-7.5 15-14.4 21.3-21.4-6.2 5.2-11.4 12-16.9 16.8-2.5 2.2-5.5 5.2-7.9 7.1-11 8.7-20.6 19.5-32.7 27.2.4-.6.9-1 1.1-1.3zm76.3-66.4c.3-.3 1.7-1.4 1.7-2.3-.5.8-3.5 3.9-1.7 2.3zm8.4-10c-1.4.5-3.2 3.3-3.8 4.5 1.4-1.6 2.2-3 3.8-4.5zm8.4-14.6l.9-1.1c-.3 0-2.3 2.2-2.1 2.7.7-.7 1.1-1.2 1.2-1.6zm-74.1 72.6c.2.6 1.4-.7 1.3-.9-.6.4-.5.3-1.3.9zm85.5-110.1c.4.3.8 0 1.2.1l.5-.8c-.4-.3-.1-.9 0-1.4.4.2.8.1.9.6-.3-.6-.5-1.5-1-1.3.5-.1.1-.5.1-.8-.3.1-1.2 2-.2 1-1 .8-.7 1.7-1.5 2.6zm3.7-8.4c-.5-.8-.1-1.8.3-2.7.4-.9.6-1.8-.1-2.2-.1.9-.1.7-.6 1.3 1 .4-.1.7.4 1.2-.1.2-.4 0-.5.2 0 .7.4.8-.4 1.5.7.6-.5 1.2-.4 2.1l.3.2c.1-.1.1-.2.2-.1.1-.5-.2-.9 0-1.5.4.2.5-.3.8 0zm-2.3 1.3c-.3.8-1.1 2.4-.4 2.4.1-.8.7-1.8.4-2.4zm.7-2.4c-.4.2-.9 1.4-.4 1.7 0-.5.9-1.3.4-1.7zm2.9-8.3c.3-.6-.9-.9-.6-.3-.2-.1-.4-.1-.5.2.4.3.6-.1 1.1.1zm-.9 2.8c.1-.2.2-.4.5-.2.5-1 0-1.5.3-2.4-.4-.1-.8-.1-1 .1.3.5.8 1.3-.1 1.5.3.2.5.3.5.6-.2 0-.3.2-.2.4zm-46.5 93c.6-2 2.7-3.1 3.9-4.8-.1 1.1-3 3.3-3.9 4.8zm34-63.1c1.1.1-.5 1-.7 1.7-.1-.2.1-.5-.2-.6.4-.3 1.3-.6.9-1.1zm3.5-5.5c.4-.3.2-1.7 1.3-1.5-.5.8-.7 1.2-.4 1.7-.3.1-.6 0-.9.6-.1-.3 0-.6-.2-.9.2-.2.3 0 .2.1zm-.8-.1c.1.2 0 .4.2.6-.5 0-.5.1-.7.7-.5-.5.4-.6.5-1.3zM153.2 320.3c-1.6 1.8 1-.7 2.1-1.7 1.5-1.4 3.3-3.1 3.5-3.8-1.6 1.4-4.1 3.8-5.6 5.5zm31.4-30.1c1.5-1.6 4.1-5 6-5.7-2 1.9-4.6 4.5-6 5.7zm-3.7 3.7c1.8-2.4 3.2-2.6 0 0zm19.6-19c-.2.2-.3.2-.3.1-3 3.4-.7-.7.3-.1zm1.1-1.5c.1-.8 2.5-2.2 2.6-3 1-.2-2.3 2.8-2.6 3zm11.6-14.1c.4.7-1.9 2.1-2.6 3.1-1.2.7 2.5-2.4 2.6-3.1zm-78.2 74c1.8-2.4 3.1-2.7 0 0zm-7.3 7.2c2-2.8 3-2.7 0 0zm-11.7 6.2c1.5-2.4 5.5-5.5 9.5-9.8-1.6 2.3-6.6 6.7-9.5 9.8zm97.6-98.2c.1-.3-.1-.5-.3-.7l1.3-1.3c.5.7-.7 1-1 2zm-.7-2.5c-.2-.7 1.7-2.1 2.2-3 0 1.2-1.2 1.6-2.2 3zm29.7-33.8c.3.2-.6.9-.8 1.3-.2-.3.1-.8-.3-1 .7-.7.8-.1 1.1-.3zm-1.2 1.8c-.2.1-.5.3-.7.6-.5-.1.1-.7-.1-.9.4-.4.9-.3.8.3zm-15.5 17.1c.2-.8 1.3-2 1.8-3.3-.1.5-.4 1.1-.2 1.5-.9.8-.9 1.6-1.6 1.8zm17.4-19.9c0-.2 0-.4-.2-.6.9.1 1.8-3.8 2.6-2.2-1.4.2-1.3 2.5-2.4 2.8zm-15.1 17.1c.1-.5.5-1.1 1.2-1.8.2.4-.8 1.7-1.2 1.8zm7-9.3c-.7 1-.9-.3-1.3-.4.6-.6 1.3 0 1.3.4zm12.7-17c.4-.3 1.9-2.2 1.5-2.7.6-.1.6-.3 1.1-1.1.5.1-.1.7.2.9-1.4.9-1.7 3.3-2.8 2.9zm-1.1 1.9c-.2.2-.4-.1-.7.2-.1-.5 1.1-1.5.9-2 .8-.4.1 1.2-.5 1.5l.3.3zm4.4-5.8l-.4-.3c.4-.4.8-1.3 1-.7-.3.3-.2.6-.6 1zm2.3-4.7c.6-.4 0 1.7-.6 1.9-.3-.4.6-1.4.6-1.9zm-.6 1.1c-.1.2-.2.2-.3.1-.1.5.5 1.2-.4 1.6-.3-.3.6-1.1-.1-1.3.3-.5.6-.7.8-.4zm3.5-4.3c-.5.2-.6 1.1-1.4 1.9.1-1.1.9-2 .8-2.8.6-.5.6.7.6.9zm8.4-17.9c-.2.5-1.1-.1-.4-.6.1.1 0 .3.1.4 1-.9-.4-.7.4-1.5.2 1 .4-.7 1.1-1.4-.2 1.2-.8 2.2-1.2 3.1zM102.6 363.1c-2.2 1.6-6 6.9-9 8.9 3.2-3.4 4.8-5.3 8.1-8.9-.3-.2-.9.9-1.4 1.2 9.9-11.2 16.8-18 25.7-26.8.6-.8 0-.8.2-1.1l4.6-4.4c.4.9 1.3 0 1.9-.2.7-.5-.7-.4-.1-.9-.3-.2-.8.3-1.3.8 5.6-6 14.5-14.4 22.9-22.6-.1-.4 1.4-1.2.8-1.4 4.1-2.2 6.3-5.9 10-8.9-.9 0 .9-.7 1.2-1.8.6-.5.4-.2.5 0 6.3-6 12.8-12.3 18.7-18.1 5.9-5.9 11.3-11.4 15.3-16 2-1.5 3.9-3.4 6-6.1 2-1.9 4-3.9 5.9-6 1.9-2.1 3.7-4.2 4.9-6.5.3.1.1.4-.2.7 1.9-1.6 4.8-4.7 6.6-7.2.4-.5-.6 0-.6-.6.4-.5 1.5-1.3 1.3-1.7 1.4-.6-1.2 1.3-.3 1.4 1.7-1.2 2.8-3.1 3.8-4.8 6.7-6.4 12.9-15.6 17.2-21.1 0-.7-1.1.8-.6-.1.4-.4.3-.5.1-.7.8-.8.3.4 1.1.1 3.2-4.9 5-6.9 6.8-10.6.1 1 .3-.4.8-.5.3-1.2.2-2.3 1.4-3.9.5.3-.9 1.7-1 2.7 1.3-1.7 2.5-3.3 3.6-5 1-1.7 2-3.6 2.6-5.9-.8-.2-.9 1.6-1.5 1.2.7-2.1 1.5-3.5 3-4.9.1.2-.2.6-.1.7-.2-.3 1.7-2.9.9-3.4 1.2-.9 1.7-2.1 1-3 .6-.5 1.3-1.6 2-1.6.1-.4-.4-.2.1-1-1.3.5-1.6 1.4-2.9 3.5 0 .7.4 0 .7.5-.9 1-.7-.2-1.6.7-1.2 2-.7 2.4-2.2 4.3-.6-1.2 1.3-3.2 2.1-4.8 0-.6.5-2.2.5-2.2-.1-.6.5-.4.6.1 1.4-2.4.8-2.9.4-3.7.6-.6 1-.5 1.2.1.9-2.3 3.5-5.2 2.1-6.8.3-.2.5 0 .8-.6-.4-.9 1.4-1.9.7-3.1 1.2-.6 1.6-2.8 2-4l.7.5c.8-1.6 1.2-3 1.7-4.5-1.1.4-1 2.6-2 4 .6-2.3 1.2-4.4 1.9-6.5.7-2.1 1.5-4.3 2.2-6.6-.2 1.5-.6 2.9-1.1 4.3-.4 1.4-.9 2.8-1.4 4.4.7-.4.4-1.5 1.2-1.7.1-1.9 1.5-5.8 2.4-6.7-.4-1.3.7-3.6 1.2-6.1.8-.7 0 .9.2 1.1.6.2.2-1.4.8-.8-.6 1.2-.4 1.2-1.1 1.4.7.4-.3.8.4 1.2-.2.6-.5.4-.7.3.3.4.8.8 0 1.6.9.4 1.6-2.2 1.2-2.6.9-1.2 1.7-2.7 1.8-4.3.3-.6.7-.4 1.1-.2-.4-.4 1.5-2 1.7-1.2 1.4-1.5 1.3-2 2.5-3.2 0 1 .3-.1.5.9.6 0 1.1-.8 1.6-1.3.8.1.2 1.2.6 1.6.6-1.2.5.7 1.1-1.1.2.6 0 1.6.8.4.7.1-.2 1.2.3 1.5.6.2 1.1-.4 1.7-.2.4.1.1.7.7.7-.2 2.9-.7 6.1-1.4 9.4-.8 3.3-1.9 6.8-3.2 10.2-4 10.7-9.3 22.1-15.6 33-.9 1.7-2 3.3-3 5.1-1.1 1.7-2.2 3.4-3.3 5.2-2.3 3.4-4.7 6.9-7 10.1-8 11-14.5 19.2-21.6 27.6-7.1 8.4-14.8 17.1-25.8 28.5-2.2 2.3-4.5 4.7-6.8 7.1-2.3 2.4-4.8 4.9-7.2 7.4-4.9 5-9.9 9.8-14.6 14.1-4.4 3.9.5-.9 1.3-1.7 9.2-9 17.1-16.5 25.9-26.2-.6.5-1.4 1.2-2.3 2.1-.8.8-1.7 1.7-2.3 2.5 7-8.3 16.5-17.7 24-26.2.1.7-.7.9-1.4 2 3.3-2.8 5-5.7 8.5-9.4-1.5.5-2.2 2.5-4.3 4.4-.3.3-.7.9-1 .8l.8-.9c6.4-8.2 13.7-16.3 18.9-24.2-2.2 2.7-4.6 5.5-7.1 8.4-1.2 1.5-2.5 3-3.7 4.6-1.2 1.6-2.4 3.2-3.6 4.9 0-.2 0-.5-.3-.2-4.6 5.4-9.1 10.4-13.3 15.1 5.3-6.6 11.2-13.2 17-20.5-3.3 3-6 7.2-10.1 11.2-.5.4-.2.6 0 .8-3.1 2.6-5.8 5.7-8.4 8.6-20.3 21.4-38.6 39.3-62.6 62.1-1 .9-2 1.8-3.3 3.1-1 1-2.5 1.8-3.6 2.9-2.8 2.6-5.1 6.2-8 7.4-.7.8-2.7 2.5-1.9 1.5 3.1-3.7 6.7-6.5 9.3-9.1 11.2-11 22.6-21.2 32.6-31.1-9.3 7.8-17.9 17.2-25.9 24.5-3.7 3.4-8.2 7.7-11.6 10.7-15.9 13.6-29.7 29.8-45.1 44.1.7-1.6 1.4-2.3 1.7-2.8zm111.2-101.9c.5-.5 2.5-2.1 2.8-3.3-.9 1.2-5.5 5.7-2.8 3.3zm13.5-14.4c-1.8.9-4.9 4.8-6.1 6.6 2.3-2.4 3.7-4.4 6.1-6.6zm14.6-20.6l1.4-1.6c-.4.1-3.5 3.4-3.3 4.1 1.1-1.3 1.6-1.9 1.9-2.5zm-113 107.7c.2.6 1.9-1.3 1.9-1.6-.9.7-.8.6-1.9 1.6zm136.3-160.3c.4.3.9-.1 1.4-.2l.8-1.3c-.4-.4.1-1.2.4-1.9.4.1.9-.1.9.6-.1-.8-.1-2-.8-1.6.6-.3.2-.7.4-1.2-.3.2-2 3-.5 1.4-1.6 1.7-1.4 2.9-2.6 4.2zM272 161c-.3-1 .5-2.5 1.2-4s1.3-2.8.6-3.2c-.4 1.3-.3 1.1-1.2 2 1 .4-.3 1 0 1.7-.2.3-.4.1-.6.3-.3 1 .1 1.1-.9 2.2.5.7-.9 1.8-1.1 3.1l.3.2c.1-.2.2-.3.3-.2.3-.8 0-1.3.5-2.1.3.3.6-.4.9 0zm-3.1 2.3c-.6 1.2-2 3.6-1.2 3.5.4-1.1 1.4-2.6 1.2-3.5zm1.6-3.5c-.5.4-1.4 2.1-.9 2.5.1-.7 1.3-2.1.9-2.5zm6.2-12.8c.6-1-.7-1.3-.6-.3-.2-.1-.4-.1-.6.3.4.3.7-.3 1.2 0zm-2 4.3c.2-.3.4-.6.6-.3.9-1.5.6-2.3 1.2-3.7-.4-.1-.8-.1-1.2.3.2.7.3 1.9-.7 2.3.3.2.4.5.3.9-.1-.1-.4.3-.2.5zm-83.4 132.6c1.4-2.6 4.3-4.4 6.3-6.7-.4 1.4-4.8 4.6-6.3 6.7zm60.1-88c1.2-.1-.8 1.4-1.2 2.5 0-.3.3-.7 0-.8.4-.5 1.6-1.1 1.2-1.7zm5.6-8.2c.6-.5.7-2.4 1.9-2.3-.8 1.2-1.1 1.7-.9 2.4-.4.2-.7.1-1.2 1 0-.4.2-.9 0-1.1.3-.4.3-.2.2 0zm-1 0c.1.2-.1.6.1.8-.6.1-.6.3-1 1.1-.5-.5.7-.9.9-1.9zM260.6 423.3c-2 2.4 1.2-1 2.5-2.5 1.8-2 4-4.3 4.3-5.1-1.9 2-4.9 5.3-6.8 7.6zm38-41.7c1.8-2.1 5.1-6.7 7.3-7.8-2.5 2.6-5.7 6.2-7.3 7.8zm-4.5 5.1c2.2-3.2 3.8-3.8 0 0zm23.7-26c-.2.3-.3.2-.4.2-3.6 4.5-.7-.6.4-.2zm1.4-2c.2-.9 3.1-3.1 3.2-4 1.1-.3-2.8 3.8-3.2 4zm14.4-18.5c.4.7-2.3 2.8-3.2 4.1-1.5 1.1 3-3.3 3.2-4.1zm-94.9 102c2.2-3.1 3.7-3.7 0 0zm-9 9.9c2.5-3.6 3.7-3.7 0 0zm-14.1 9.6c2-3.1 6.8-7.4 11.8-13.2-2 2.9-8.1 9.1-11.8 13.2zM335 327.6c.1-.3 0-.6-.3-.8l1.6-1.8c.5.9-.8 1.4-1.3 2.6zm-.6-2.7c-.1-.8 2.1-2.7 2.7-3.9.1 1.3-1.5 2-2.7 3.9zm35.8-46c.4.2-.7 1.2-1 1.7-.2-.3.1-.9-.3-1.1.9-1 1-.3 1.3-.6zm-1.5 2.3c-.3.2-.5.4-.8.9-.6 0 .2-.8-.1-1 .5-.5 1.1-.5.9.1zm-18.3 23.7c.3-.9 1.6-2.6 2.3-4.2-.2.6-.5 1.3-.3 1.8-1.1 1-1.2 1.9-2 2.4zm20.6-27.4c0-.3 0-.5-.2-.6 1-.2 2.1-5 2.9-3.3-1.5.6-1.5 3.2-2.7 3.9zm-17.8 23.6c.2-.6.7-1.4 1.4-2.4.2.5-.9 2.1-1.4 2.4zm8.4-12.5c-.8 1.3-1-.1-1.4-.1.6-.9 1.5-.4 1.4.1zm14.7-23.1c.5-.5 2.1-3.1 1.7-3.6.7-.3.7-.5 1.2-1.6.6 0-.1.8.2 1-1.6 1.4-1.9 4.3-3.1 4.2zm-1.2 2.4c-.3.3-.4 0-.7.5 0-.6 1.2-2 1.1-2.6.9-.7.1 1.4-.6 1.9l.2.2zm4.9-8l-.4-.3c.4-.6.9-1.8 1.1-1.2-.5.7-.3.9-.7 1.5zm2.5-6.2c.6-.6 0 2.1-.6 2.4-.4-.4.6-1.7.6-2.4zm-.6 1.4c-.1.3-.3.3-.4.2-.1.7.6 1.3-.4 2-.4-.3.7-1.5-.1-1.5.3-.6.6-.9.9-.7zm3.7-6c-.6.4-.7 1.5-1.6 2.7.1-1.4 1-2.6.9-3.6.8-.8.7.6.7.9zm9.1-23.9c-.3.6-1.2.2-.4-.7.1.1 0 .4.1.5 1.1-1.4-.4-.8.4-2 .2 1.2.5-.9 1.2-2-.2 1.6-.9 3-1.3 4.2zm-196.4 258c-2.7 2.3-7.9 9-11.6 11.9 4.1-4.4 6.3-7 10.5-11.7-.3-.2-1.2 1.2-1.7 1.6 12.8-14.7 21.4-23.9 32.5-36 .8-1 .1-.9.3-1.3l5.6-6.1c.4.9 1.4-.3 2.2-.6.8-.7-.8-.4 0-1.1-.3-.2-.9.5-1.6 1.2 7-8.2 17.7-19.8 28-31-.1-.4 1.7-1.6 1-1.8 4.9-3.4 7.6-8.2 12.1-12.5-1 .2 1.1-1 1.5-2.4.7-.7.4-.3.5 0 15.2-16.7 31.4-34.3 41.5-46.6 2.4-2.1 4.8-4.7 7.4-8.3 4.8-5.2 10.2-10.9 13.5-16.6.3.1 0 .5-.3.8 1.1-1.1 2.6-2.8 4.1-4.5 1.5-1.7 2.9-3.6 4.1-5.2.6-.7-.7.1-.7-.6.4-.7 1.8-1.9 1.6-2.2 1.6-1-1.4 1.8-.5 1.7 2-1.8 3.4-4.2 4.6-6.4 4.1-4.4 7.9-9.8 11.4-14.9 3.4-5.1 6.5-10.1 9-13.9 0-.8-1.3 1.2-.7 0 .4-.5.3-.7.2-.8.9-1.1.3.4 1.2-.2 1.9-3.3 3.3-5.7 4.5-7.8 1.2-2.2 2.2-4.1 3.2-6.5.1 1.1.4-.6.9-.8.4-1.6.3-2.8 1.6-5 .5.2-1 2.3-1.1 3.5 1.4-2.3 2.8-4.6 3.9-6.9 1.2-2.3 2.2-4.9 2.9-7.8-.8 0-1 2.2-1.6 1.8.8-2.7 1.6-4.7 3.2-6.8.1.2-.3.7-.1.9-.2-.3 1.9-3.9 1-4.4 1.3-1.4 1.8-3 1.1-3.9.7-.8 1.4-2.3 2.1-2.4.1-.5-.4-.1.1-1.3-1.4 1-1.7 2.1-3.1 5-.1.8.4-.1.8.4-.9 1.4-.7 0-1.7 1.3-1.3 2.8-.8 3.1-2.4 5.8-.7-1.3 1.4-4.3 2.3-6.3 0-.7.6-2.9.5-2.8-.1-.7.5-.6.6-.1 1.5-3.4.8-3.8.5-4.6.7-.9 1.1-.9 1.3-.2 1.1-3 3.8-7.3 2.4-8.9.3-.3.5-.2.8-.9-.5-1 1.6-2.7.8-4 1.3-1 1.8-3.8 2.3-5.4l.8.4c.9-2.2 1.3-4 1.9-6-1.3.8-1.2 3.5-2.2 5.4 1.3-6 3.2-11.2 5.1-17.5-.7 4.1-2 7.3-3.1 11.5.8-.6.5-1.9 1.3-2.4.3-2.4 1.9-7.7 2.9-9-.3-1.6 1.1-4.8 1.9-8.2.9-1.1-.1 1.2.1 1.4.6.1.3-1.9 1-1.3-.7 1.7-.5 1.7-1.3 2 .7.3-.3 1 .3 1.4-.3.8-.5.6-.8.5.3.4.8.8-.2 2.1 1 .3 1.9-3.2 1.5-3.6 1-1.7 2-3.9 2.3-5.8.4-.8.8-.6 1.1-.3-.3-.4 1.8-2.7 1.9-1.7 1.7-2 1.6-2.6 2.9-4.3-.1 1.3.3-.2.5 1.1.6-.1 1.2-1.2 1.8-1.8.8.1.1 1.5.5 1.9.7-1.5.5.8 1.3-1.6.1.7-.1 1.9.8.4.7 0-.3 1.5.1 1.8.6.2 1.2-.7 1.8-.5.5 0 0 .8.6.7-.9 7.3-3.2 16.1-6.2 25-4.7 13.9-10.2 28.8-16.9 43.5-4.1 8.9-9.3 19-14.5 27.8-1.1 1.9-2.2 3.7-3.3 5.5-.5.9-1.1 1.8-1.6 2.6l-.4.7-.4.7c-.3.4-.5.8-.8 1.2-1.1 1.6-2 3.2-3.1 4.8-1.1 1.6-2.1 3.2-3.2 4.8-4.2 6.1-8.2 11.8-12.5 17.6-8.6 11.5-18.2 23.2-31.6 38.4-10.8 12.2-23.5 27-34.9 38.8-5.2 5.4.6-1.1 1.6-2.3 11.1-12.4 20.6-22.5 31.5-35.5-1.5 1.3-4.1 4.1-5.7 6.1 8.6-10.9 20.4-23.7 29.5-35.1 0 .7-.8 1.2-1.8 2.7 2-1.9 3.5-3.9 5.1-6 1.6-2.1 3.2-4.3 5.3-6.8-1.7.9-2.6 3.5-5.2 6.1-.4.5-.9 1.2-1.2 1.1l1-1.2c7.9-10.9 16.6-22.2 22.7-32.8-1.2 1.8-2.6 3.7-4 5.7s-2.8 4-4.3 6c-2.9 4.1-5.9 8.3-8.7 12.8 0-.3.1-.6-.3-.2-5.5 7.3-11.1 14.1-16.2 20.4 6.6-8.8 13.9-17.6 20.7-27.6-3.9 4.4-7.2 9.8-12.2 15.4-.6.6-.3.7-.1 1-3.7 3.7-7 7.9-10.3 11.7-12.5 14.5-24.4 27.7-36.6 41.3-12.3 13.6-25 27.7-39.5 43.4-1.2 1.3-2.4 2.5-4 4.3-1.3 1.4-3 2.7-4.3 4.1-3.4 3.7-6.3 8.3-9.8 10.3-.9 1.1-3.3 3.5-2.3 2.2 3.9-5 8.1-8.9 11.4-12.6 13.6-15.2 27.3-29.5 39.4-43.1-11.2 10.9-21.6 23.8-31.3 33.9-4.5 4.7-9.9 10.7-14.1 14.9-19.2 19.2-36.6 40.9-56.2 60.2.7-1.2 1.6-2.1 2-2.8zm135.8-140.9c.6-.7 3.1-2.9 3.5-4.4-1.1 1.6-6.7 7.7-3.5 4.4zm16.6-19.5c-2.2 1.4-6 6.6-7.5 8.9 2.8-3.1 4.6-5.7 7.5-8.9zm18-27.3l1.7-2.3c-.5.2-4.1 4.9-4 5.5 1.3-1.5 1.9-2.4 2.3-3.2zM231.6 444.3c.2.7 2.3-1.9 2.3-2.2-1.1 1-.9.8-2.3 2.2zm163.5-217.6c.5.3 1-.4 1.5-.6l.9-1.7c-.4-.3.2-1.5.5-2.4.4.1 1-.4.9.5-.1-1-.1-2.4-.9-1.8.7-.5.2-.9.4-1.6-.4.4-2.1 4.2-.6 1.9-1.5 2.3-1.4 3.7-2.7 5.7zm7.5-17.2c-.7-2.3 3.7-8.6 2.2-9.4-.5 1.7-.4 1.5-1.4 2.8 1.1.2-.4 1.4-.1 2.1-.2.5-.4.2-.7.6-.3 1.3.1 1.3-1.1 3 .6.8-1 2.5-1.3 4.2l.3.2c.1-.2.2-.4.3-.3.3-1 0-1.6.6-2.8.6.1.9-.9 1.2-.4zm-3.3 3.6c-.7 1.6-2.2 4.9-1.3 4.6.3-1.5 1.4-3.6 1.3-4.6zm1.8-4.8c-.5.6-1.6 3-1.1 3.4.1-1 1.5-2.9 1.1-3.4zm7.1-17.4c.8-1.5-.6-1.5-.6-.3-.2-.1-.4-.1-.7.6.5.3.9-.6 1.3-.3zm-2.3 5.8c.2-.4.4-.8.7-.6 1-2.1.7-3 1.5-4.9-.4-.1-.9 0-1.3.7.2.8.3 2.3-.9 3.1.3.2.4.5.3 1-.2-.1-.5.5-.3.7zM306.7 373c1.8-3.3 5.2-5.9 7.7-9-.7 1.6-5.8 6.2-7.7 9zm73.4-115.7c1.3-.5-.9 1.9-1.4 3.3 0-.3.3-.9 0-.9.6-.8 1.8-1.8 1.4-2.4zm6.1-11.4c.7-.8.8-3 2.1-3.3-.8 1.7-1.2 2.4-.9 3.1-.4.3-.8.4-1.3 1.5 0-.5.2-1.1 0-1.4.2-.3.3-.1.1.1zm-.9.3c.1.2-.1.7.1.9-.6.3-.7.5-1.1 1.6-.6-.4.6-1.2 1-2.5zM194.7 19.9c.5-.3-.3-.1-.7 0-.5.1-1 .3-1.1.7.5-.1 1.3-.4 1.8-.7zm-9.8 3.5c-.4.3-1.2 1.2-1.9.6.7-.1 1.5-.5 1.9-.6zm1.2-.5c-.5.7-1 .1 0 0zm-6 2.3s.1 0 .1.1c.9-.6.3.9-.1-.1zm-.3.5c0 .5-.8.1-.8.6-.4-.5.7-.7.8-.6zm-3.5 3.1c-.2-.7.6-.4.8-.6.4.3-.8.3-.8.6zm24.3-7.4c-.5.7-1 .1 0 0zm2.3-.6c-.6.7-.9 0 0 0zm4 2.9c-.5.8-1.8.4-3 1 .5-.6 2-.7 3-1zm-30 12.7c0 .2.1.4.2.7l-.4.1c-.2-.8.2-.3.2-.8zm.5 2.3c.1.6-.5.4-.6.8-.2-.9.3-.4.6-.8zm-9.6 4.2c-.1-.4.2-.2.3-.3.1.3 0 .5.2.9-.3 0-.4-.5-.5-.6zm.4-.3c.1.1.2.1.3.1.2.4 0 .4.1.7-.2-.1-.4-.5-.4-.8zm5.1-1.6c0 .4-.4.6-.5 1.1 0-.3.1-.5 0-.9.3.1.3-.5.5-.2zm-5.7 2.2c0 .1 0 .3.1.5-.4-.7-.5 1.3-.9-.2.5.7.4-.8.8-.3zm5-1.8c0 .3-.1.4-.4.5-.1-.4.3-.6.4-.5zm-2.2 1.9c.2-.2.4.8.5 1.1-.2.1-.5-.8-.5-1.1zm-4.2 2.8c-.2-.1-.7.1-.5.7-.2-.3-.3-.3-.4 0-.2-.4 0-.4-.1-.7.5.4.5-1 1 0zm.3-.5c.1 0 .2.3.3.3 0 .4-.4.3-.3.7-.3-.3-.1-.9.2-.6l-.2-.4zm-1.5.8l.2.5c-.1 0-.3.3-.4-.2.1-.1.1-.3.2-.3zm-.8 1.4c-.2-.2-.1-1.1.2-.8.2.5-.2.5-.2.8zm.2-.3c0-.1.1 0 .1.1 0-.3-.3-1.2.1-.8.2.4-.2.3.1.9 0 .2-.2.1-.3-.2zm-1.2.3c.2.2.2-.2.5-.2 0 .7-.3.6-.2 1.2-.3-.1-.3-.8-.3-1zm-3 4.9c.1-.1.5.9.2.7 0-.1 0-.2-.1-.4-.4-.2.2.7-.1.6-.1-.7-.2.1-.5 0 .1-.5.3-.7.5-.9zm51.1-31.9c.7.3 2.1-.7 3.1-.1-1.1.2-1.7.4-2.8.7.1.4.3 0 .5.1-3.3 1.2-5.6 1.7-8.4 2.5-.2.2 0 .6 0 .7l-1.4.4c-.2-.9-.4-.8-.7-1.1-.2-.1.3.8.1.7.1.4.3.3.4.2-1.8.9-4.5 1.7-7.1 2.7.1.3-.4 0-.2.6-1.4-.9-1.9.6-3.1.6.3.5-.3 0-.3.7-.2.1-.1-.1-.2-.3-3.8 1.4-7.9 3-10.3 4.8-.6-.1-1.2.1-1.8.8-1.2.4-2.6.6-3.3 2.2-.1-.3-.1-.3 0-.4-.6 0-1.5.4-2.1.9-.1.1.2.4.3.8-.1.1-.5-.1-.4.3-.5-.4.4-.2 0-.8-.6-.2-.9.4-1.2 1-2.2.1-4.1 2.4-5.6 3.1 0 .5.4.2.2.5-.1 0-.1.2 0 .4-.3 0-.2-.5-.4-.8-1.1 1-1.7 1.1-2.2 2.3-.1-.7-.1 0-.3-.3-.1.5 0 1.3-.4 1.5-.2-.5.3-.5.3-1-.9.4-1.7.6-2.2 2.5.3.7.3-.4.6.3-.2.8-.5 1.2-1.1 1-.1-.2.1-.2 0-.4.1.3-.6.5-.3 1.4-.5-.4-.7 0-.3 1.1-.3-.1-.5 0-.8-.5 0 .2.2.4 0 .6.5.6.6.3 1.1 0 0-.4-.2-.3-.3-.8.3 0 .3.6.6.7.4-.4.3-.9.8-1.1.3 1.2-.4 1.1-.7 1.4 0 .3-.2 1-.1 1 0 .4-.2-.1-.3-.5-.5.4-.3 1.2-.1 1.9-.3-.1-.4-.4-.5-.9-.4.6-1.4.5-.8 2.4-.1-.1-.2-.4-.3-.3.2.9-.6 0-.3 1.2-.5-.6-.7.4-.8.7l-.3-.8c-.3.3-.5.8-.7 1.2.5.7.4-.7.8-.7-.5 1.7-1.1 2.6-1.9 3.9.3-1.2.7-1.7 1.2-2.7-.3-.4-.2.5-.5 0-.1.9-.7 2-1.1 1.7.1 1-.4 1.3-.7 2.2-.4-.2 0-.4-.1-.7-.2-.5-.1.6-.4-.2.3-.2.2-.3.5.2-.3-.7.1-.2-.1-.9.1-.1.2.2.3.4-.1-.5-.3-1 .1-.8-.4-.9-.7-.1-.6.4-.4-.1-.8.1-.9.7-.2 0-.3-.4-.5-.8.1.5-.7-.2-.8-.8-.7-.4-.6-.1-1.2-.5 0-.5-.1-.2-.2-.9-.2-.4-.5-.4-.7-.7-.3-.7-.1-.8-.2-1.2-.3.1-.2-.8-.5-.4-.1-.4.1-.8-.3-.8-.3-.6.1-.5-.1-.9-.2-.6-.5-.7-.7-1.2-.2-.4 0-.4-.3-.8.4-2.5 1.2-4.6 2.4-6.2 1.8-2.5 3.9-5 6.2-7.1 1.4-1.2 3.1-2.4 4.7-3.4 5.4-3.3 8.4-5.3 15.1-8.4 2.7-1.2 5.8-3.1 8.8-3.8 1.4-.3-.1.4-.4.5-2.8 1.2-5.2 2-7.9 3.7.4.1 1.1-.1 1.4-.5-2 1.9-5.1 2.7-7.4 4-.1-.5.2-.2.4-.5-1.1-.1-1.6.9-2.7 1.1.6.6.7-.3 1.4-.3.1 0 .2-.2.3.1l-.3.1c-2 1.7-4.4 2.5-6.1 4.2 1.5-.6 3.3-1.1 4.7-2.8 0 .2 0 .3.1.3 1.5-.8 2.9-1.4 4.2-2.2-1.6 1.4-3.5 2.2-5.3 3.5 1.1 0 1.9-1.1 3.3-1.3.2 0 0-.3 0-.5 1 .1 1.9-.4 2.7-.7 6.4-2.6 11.8-5.3 19.2-7.8.3-.1.6-.1 1-.3.3-.2.8.1 1.1 0 .9-.3 1.5-1.5 2.5-.6.2-.2.8-.2.6 0-1 .8-2.1.7-2.9 1-3.5 1.4-7 2.2-10 3.6 2.9-.2 5.4-2.2 8-2.7 1.2-.2 2.5-.8 3.6-.9 5-.4 9.4-3.6 14.7-3.3-.1.7-.3.7-.4.9zM176 27.1c-.2 0-.8 0-.8.7.2-.3 1.6-.8.8-.7zm-4.2 2c.7.5 1.6-.3 1.9-.8-.7.1-1.1.7-1.9.8zm-4.5 4.9l-.5.2c.2.2 1.2 0 1.1-.6-.3.1-.5.2-.6.4zm35.5-9.2c-.1-.6-.6-.3-.6 0 .3 0 .2.1.6 0zM160 51.6c-.2-.5-.4-.6-.6-.9l-.3.1c.2.5 0 .6-.1.8-.2-.4-.4-.6-.4-1 .1.6.1 1.2.4 1.5-.3-.3-.1.2-.1.4.1.1.8-.3.2-.5.5.3.4-.4.9-.4zm-2.8 2.2c.3 1.6-1.4 1-.8 2.6.2-.4.1-.3.5-.2-.4-1 .2-.3 0-.9.1 0 .2.3.3.3.1-.3-.1-.7.4-.5-.2-.8.4-.3.5-.9l-.1-.3s-.1 0-.1-.1c-.1.2 0 .7-.2.8-.2-.5-.3-.3-.5-.8zm1.3 1c.3-.2.8-.6.5-1.1-.1.4-.6.5-.5 1.1zm-.6.8c.2.2.6-.1.4-.7-.1.4-.6.2-.4.7zm-2.7 2.2c-.3 0 .3 1.2.3.7.1.2.2.4.3.3-.3-.5-.5-.5-.6-1zm.9-.7c-.1 0-.2 0-.3-.3-.4.1-.2.8-.6 1 .2.4.3.7.5.7-.1-.5-.1-1.3.3-.7-.1-.3-.2-.6-.1-.7.1.2.2.2.2 0zm26.8-33c-.3 1.1-1.3.7-1.9 1.2.1-.8 1.5-.6 1.9-1.2zM165 47.7c-.5-.8.3-.4.4-.7 0 .2-.1.2 0 .5-.1 0-.5-.4-.4.2zm-2 1.3c-.2-.1-.2 1-.7.1.3-.2.4-.3.3-.9.1.2.3.4.5.2 0 .2-.1.4 0 .7-.1 0-.1-.1-.1-.1zm.4.6c-.1-.2 0-.3-.1-.5.2.3.3.3.4 0 .2.6-.2.1-.3.5zM322.8 63.8c.5-.3-.3-.1-.6 0-.4.2-1 .3-1 .7.4-.1 1.1-.4 1.6-.7zm-9.1 3.7c-.4.3-1.1 1.3-1.7.6.6-.1 1.3-.5 1.7-.6zm1.1-.6c-.5.8-.9.2 0 0zm-5.6 2.4c0-.1.1 0 .1.1.8-.6.3 1-.1-.1zm-.3.5c0 .5-.8.1-.7.6-.3-.4.6-.6.7-.6zm-3.1 3.2c-.2-.7.5-.4.7-.6.5.2-.7.2-.7.6zm22.7-7.8c-.5.7-.9.1 0 0zm2.2-.7c-.6.7-1 0 0 0zm3.9 2.7c-.4.8-1.7.5-2.8 1.1.4-.5 1.9-.7 2.8-1.1zm-27.8 13.3c0 .2.1.4.2.7l-.4.1c-.3-.8.1-.3.2-.8zm.5 2.2c.1.6-.5.4-.6.8-.1-.9.4-.3.6-.8zm-8.9 4.4c-.1-.3.2-.2.2-.3.1.3 0 .5.2.9-.2 0-.3-.5-.4-.6zm.3-.3c.1.1.2.1.3.1.2.4 0 .4.1.7-.1-.1-.4-.5-.4-.8zm4.9-1.7c0 .4-.3.6-.4 1.1 0-.3.1-.5-.1-.9.3.1.2-.5.5-.2zm-5.4 2.3c0 .1 0 .3.1.5-.4-.7-.5 1.3-.9-.2.6.7.4-.9.8-.3zm4.7-1.8c0 .3-.1.4-.3.5-.2-.5.1-.7.3-.5zm-2 1.8c.2-.2.4.7.6 1.1-.2.1-.6-.8-.6-1.1zm-3.9 2.9c-.2-.1-.6.1-.4.7-.2-.3-.3-.3-.4 0-.2-.4 0-.4-.1-.7.5.4.4-1 .9 0zm.3-.5c.1 0 .2.3.3.3.1.4-.3.3-.2.7-.3-.3-.1-.9.1-.6l-.2-.4zm-1.4.7l.1.5c-.1 0-.2.3-.4-.2.2 0 .1-.2.3-.3zm-.7 1.4c-.2-.2-.1-1.1.1-.8.2.6-.1.5-.1.8zm.2-.2c0-.1.1 0 .1.1 0-.3-.3-1.1.1-.8.2.4-.2.3.1.9-.1.1-.2.1-.3-.2zm-1.2.3c.2.2.2-.2.5-.2.1.7-.3.6-.2 1.2-.2-.2-.3-.8-.3-1zm-2.7 4.8c.1-.1.5.9.2.7 0-.1 0-.2-.1-.3-.4-.2.2.7-.1.6-.1-.7-.2.1-.4 0 .1-.6.3-.7.4-1zm47.1-32.5c.7.2 1.9-.8 2.9-.2-1 .2-1.6.4-2.6.8.1.4.3 0 .4 0-3.1 1.3-5.2 1.8-7.8 2.7-.2.2.1.6 0 .7l-1.3.4c-.2-.9-.5-.8-.7-1.1-.2-.1.3.8.1.7.1.4.3.3.4.2-1.6 1-4.2 1.8-6.6 2.8.1.3-.4 0-.1.6-1.3-.8-1.8.7-2.9.6.3.5-.3 0-.3.7-.2.1-.1-.1-.2-.3-3.6 1.5-7.3 3.1-9.5 4.9-.6-.1-1.2.1-1.7.8-1.1.4-2.5.6-3 2.3-.1-.3-.1-.3 0-.4-.6 0-1.4.4-1.9.9-.1.1.2.4.3.8-.1.1-.5 0-.4.3-.5-.4.4-.2 0-.8-.6-.2-.8.4-1.1 1-2.1.1-3.8 2.4-5.2 3.1.1.5.4.2.3.5-.1 0-.1.2 0 .4-.3 0-.2-.5-.4-.8-1 1-1.6 1.1-2 2.3-.1-.7-.1 0-.3-.3-.1.5.1 1.3-.4 1.5-.2-.5.3-.5.2-1-.8.4-1.6.6-2 2.5.3.7.3-.4.6.3-.2.8-.4 1.2-1 1-.1-.2.1-.2 0-.4.1.3-.6.5-.2 1.4-.5-.4-.6 0-.3 1.1-.3-.1-.5 0-.8-.5 0 .2.2.4 0 .6.5.6.6.3 1.1 0 0-.4-.2-.3-.3-.8.3 0 .3.6.6.7.4-.4.2-.9.7-1 .3 1.2-.4 1.1-.6 1.4 0 .3-.1.9-.1 1 0 .4-.2-.1-.3-.5-.5.4-.2 1.2 0 1.9-.2-.1-.4-.4-.5-.9-.3.6-1.3.5-.7 2.4-.1-.1-.2-.3-.3-.2.2.8-.6 0-.2 1.2-.5-.6-.6.4-.8.7l-.3-.8c-.2.2-.3.4-.4.6l-.1.2v.1c0 .1 0 .2-.1.3.2.3.3.2.3 0 .1-.3.2-.6.4-.6-.3.9-.4 1.5-.4 1.9 0 .5.1.9.5 1.2-.7-.8-.7-1.2-.6-2-.3-.4 0 .4-.3-.1.1.4.2.8.2 1 .1.2.2.3.1.1.6.8.8.8 1.9.7 0-.5-.5-.1-.7-.3-.4-.4.7.1 0-.5-.3.2-.4.1-.1.6-.5-.6-.2 0-.7-.6-.1 0 .1.3.2.5-.3-.4-.7-.8-.6-.5-.3-.4-.3-.5-.2-.5.1 0 .4.2.6.4.1-.4.4-.6 1.2-.8.1-.2-.2-.5-.6-.7.2.1.3-.2.2-.5-.1-.3-.4-.6-.7-.7-.1-.5-.1-.7 0-1 0-.2.1-.4.1-.6v-.4-.2c0-.1-.1 0-.1 0-.1 0-.1-.1-.1-.1h-.1c-.1 0-.1 0-.1-.1-.1-.1-.2-.1-.5.1-.1-.1-.2-.2-.3-.2-.1-.1-.2 0-.2 0-.1 0-.2.1-.4.1-.8-.1-.7-.4-1.1-.5-.1.3-.8-.3-.6.2-.4-.2-.6-.5-.9-.2-.7-.1-.3-.3-.8-.5-.6-.1-.8 0-1.4-.1-.4-.1-.3-.2-.8-.3l-.3-.3c-.1-.1-.2-.1-.3-.2-.2-.2-.4-.4-.5-.7-.3-.5-.4-1.1-.4-1.7 0-1.2.5-2.4 1.2-3.4.5-.7 1-1.4 1.6-2.1l1.4-1.8c.9-1.2 1.9-2.3 3-3.4 1.3-1.2 2.9-2.5 4.3-3.4 5-3.3 7.7-5.3 14-8.5 2.5-1.3 5.4-3.2 8.2-3.9 1.3-.3-.1.4-.3.5-2.6 1.3-4.8 2.1-7.3 3.8.4.1 1-.1 1.3-.5-1.8 1.9-4.7 2.8-6.8 4-.1-.5.2-.2.4-.5-1.1-.1-1.4.9-2.5 1.2.6.6.7-.4 1.3-.3.1 0 .2-.2.3.1l-.3.1c-1.8 1.7-4 2.5-5.6 4.2 1.4-.6 3.1-1.1 4.3-2.8 0 .2 0 .3.1.3 1.4-.8 2.7-1.5 3.9-2.2-1.5 1.4-3.2 2.2-4.9 3.6 1.1 0 1.8-1.1 3-1.4.2 0 0-.3-.1-.5 1 .1 1.8-.4 2.5-.8 5.9-2.7 10.9-5.5 17.8-8.1.3-.1.6-.1 1-.3.3-.2.8.1 1.1 0 .8-.3 1.4-1.5 2.4-.6.2-.2.8-.2.6 0-.9.8-1.9.8-2.7 1.1-3.2 1.5-6.5 2.4-9.3 3.8 2.8-.2 5.1-2.2 7.4-2.8 1.1-.3 2.4-.9 3.4-1 4.7-.5 8.7-3.8 13.7-3.6-.2.7-.4.7-.5.9zm-33.2 7c-.2 0-.8 0-.8.7.3-.4 1.6-.9.8-.7zm-3.9 2c.6.5 1.5-.4 1.8-.9-.7.2-1 .8-1.8.9zm-4 4.9l-.4.2c.2.2 1.1 0 1-.6-.3.1-.5.2-.6.4zm33.2-9.7c-.1-.6-.6-.2-.6 0 .3 0 .3.1.6 0zm-39.4 27.3c-.2-.5-.4-.6-.6-.9l-.3.1c.2.5 0 .6-.1.8-.2-.4-.4-.6-.4-1 .1.6.1 1.2.4 1.5-.3-.3-.1.2-.1.4.1.1.7-.3.2-.5.5.3.4-.5.9-.4zm-2.6 2.2c.2.8-.2 1.1-.4 1.3-.2.2-.3.4 0 1.2 0-.4 0-.3.3-.1-.2-.5-.2-.6-.2-.6h.1v-.3c.1 0 .2.3.3.3.1-.3-.1-.7.4-.5-.3-.8.4-.3.4-.9l-.1-.3s-.1 0-.1-.1c-.1.2 0 .7-.2.8-.2-.6-.3-.4-.5-.8zm1.3 1c.2-.2.8-.6.4-1.1-.1.3-.5.5-.4 1.1zm-.6.8c.2.2.6-.1.4-.7-.1.3-.6.1-.4.7zm-1.1 1.6c0-.1.7 1 .4.6.1.2.2.4.2.3-.3-.5-.3-.5-.6-.9zm0-.4s-.1 0-.2-.3c-.1 0 .2.6.2.7.2.4.4.6.4.8-.3-.4-.6-1.1-.2-.5-.1-.3-.2-.6-.2-.7.1.2.1.2 0 0zm23.5-32.8c-.3 1.1-1.2.7-1.7 1.2 0-.8 1.3-.6 1.7-1.2zm-15.9 23.6c-.5-.8.2-.4.4-.7 0 .2-.1.2.1.5-.2 0-.7-.4-.5.2zm-1.8 1.3c-.2-.1-.2 1-.7.1.3-.2.4-.3.2-.9.1.2.3.4.4.2 0 .2 0 .4.1.7v-.1zm.4.6c-.1-.2 0-.3-.1-.5.2.3.3.3.4 0 .2.7-.3.2-.3.5zM447 109.3c.5-.4-.3-.1-.7.1-.5.2-1 .4-1 .8.5-.2 1.2-.6 1.7-.9zm-9.4 4.9c-.4.4-1 1.4-1.8.9.6-.2 1.4-.7 1.8-.9zm1-.7c-.4.8-.9.3 0 0zm-5.6 3.3c0-.1.1 0 .1.1.8-.8.4.9-.1-.1zm-.3.5c.1.5-.8.2-.7.8-.4-.4.6-.8.7-.8zm-2.8 3.8c-.3-.7.5-.5.7-.8.4.2-.8.4-.7.8zm23.2-11c-.4.7-.9.2 0 0zm2.3-.9c-.5.8-.9.1 0 0zm4.3 2.5c-.4.8-1.7.6-2.9 1.3.4-.6 2-.8 2.9-1.3zm-27.8 16.7c0 .2.1.4.3.6l-.4.2c-.4-.7.1-.2.1-.8zm.9 2.2c.2.6-.4.5-.5.9-.3-.9.3-.5.5-.9zm-8.3 6.1c-.2-.3.2-.2.2-.3.2.3.1.5.4.8-.3 0-.5-.5-.6-.5zm.3-.4c.1 0 .2.1.3 0 .3.4.1.4.3.7-.3-.1-.6-.5-.6-.7zm4.5-2.7c.1.4-.2.6-.3 1.2 0-.3 0-.5-.2-.9.4 0 .2-.5.5-.3zm-4.9 3.4c0 .1.1.3.2.5-.5-.6-.2 1.4-.9 0 .6.5.1-.9.7-.5zm4.3-2.8c.1.3 0 .5-.2.6-.2-.4.1-.7.2-.6zm-1.6 2.3c.1-.3.5.7.8 1-.2 0-.8-.8-.8-1zm-3.4 3.6c-.2 0-.6.3-.3.8-.3-.3-.3-.2-.4 0-.3-.4-.1-.4-.3-.7.7.4.3-.9 1-.1zm.2-.5c.1 0 .2.3.3.2.1.4-.3.3-.1.7-.4-.2-.3-.8 0-.6l-.2-.3zm-1.2 1l.3.4c-.1 0-.2.3-.4-.1.1 0-.1-.2.1-.3zm-.4 1.5c-.3-.1-.4-1-.1-.8.4.5 0 .5.1.8zm.1-.3c0-.1.1 0 .2.1-.1-.3-.5-1.1-.1-.8.3.4-.1.3.3.8-.1.2-.2.2-.4-.1zm-1.1.6c.3.2.1-.3.4-.3.2.7-.1.7.1 1.2-.2-.1-.4-.7-.5-.9zm-1.5 5.4c.1-.1.7.7.4.6-.1-.1-.1-.2-.2-.3-.4-.1.4.6.1.6-.3-.6-.1.1-.3 0-.2-.5 0-.6 0-.9zm44.1-39.3c.7.2 2-.8 3.1-.3-1.1.3-1.6.5-2.7.9.1.4.3 0 .5 0-3.3 1.4-5.5 2.1-8.2 3.2-.2.2.1.6.1.7l-1.4.6c-.3-.9-.5-.7-.8-1-.2 0 .4.7.1.7.2.4.3.3.5.2-1.7 1.1-4.3 2.2-6.8 3.4.1.3-.4.1-.1.6-1.5-.7-1.8.9-3 1 .4.4-.3 0-.2.7-.2.1-.1-.1-.2-.3-3.6 2-7.3 4.1-9.4 6.3-.7 0-1.2.3-1.7 1.1-1.1.6-2.5 1.1-2.8 2.8-.2-.2-.1-.3-.1-.4-.6.1-1.4.7-1.8 1.3-.1.1.3.3.5.8-.1.2-.5.1-.3.4-.6-.3.3-.2-.1-.7-.6-.1-.8.5-.9 1.2-2.1.6-3.5 3.2-4.7 4.2.2.5.4.1.3.4-.1 0 0 .2.1.4-.3 0-.3-.5-.6-.7-.8 1.2-1.3 1.5-1.6 2.7-.2-.6-.1.1-.4-.2.1.6.3 1.3 0 1.5-.3-.5.2-.5 0-1.1-.8.6-1.5 1-1.4 2.9.5.6.2-.4.6.2 0 .8-.2 1.3-.8 1.2-.1-.2 0-.2-.1-.4.2.3-.5.7.1 1.4-.6-.2-.6.2-.1 1.1-.3-.1-.5.1-.9-.2 0 .2.3.3.1.5.7.5.7.1 1.1-.3-.1-.3-.2-.2-.5-.7.3-.1.4.5.8.5.3-.5 0-.9.5-1.2.6 1.1-.1 1.1-.3 1.5.1.3.1 1 .1 1 .1.4-.2-.1-.4-.4-.4.6.1 1.2.4 1.9h-.1.1c-.1 0-.1-.1-.2-.2s-.2-.3-.4-.5c-.2.7-1 .7.3 2.2-.1-.1-.3-.3-.3-.2.5.7-.3 0 .5.9-.6-.5 0 .1.3.2l-.7-.6c.2.1.6.2 1 .1.6.6-.6.1-.6.2.3.2.6.3.9.3.2 0 .3 0 .5-.1.1-.1.2-.2.3-.2l.2-.1.1-.1v.1l.1.2v.1c.3-.7.1-.2.1-.3l.1-.1.6-.6c.3-.5.6-.9.9-1.4-1.1 1.1-1.9 2.4-2.9 2.4l-.1-.1v-.1c0-.1.1-.1.2-.2.1 0 .1-.1.2-.2 0-.1 0 0 0 0h-.2c.1.1.1.2.2.3v.1c-.1.3.2-.4.1-.3.1 0 .1-.1.2-.1.3-.2.5-.4.7-.7.4-.5.5-1 .4-1.3 1-.3 1.1-1.4 1.4-3-.5-.5-.2.6-.5.6-.6.1.3-.9-.5-.5.2.7-.1.7.6.8-.8.2-.1.4-.8.6 0 .3.3.2.6.2-.5.2-1 .3-.6.7-.5 0-.6-.2-.5-.5.1-.3.3-.6.6-.7-.3-.6-.6-1.4-.6-2.5-.2-.3-.6-.1-.9.1.2-.2-.1-.5-.5-.5-.4-.1-.9 0-.9.3-.6-.2-.9-.4-1.2-.6-.1 0-.1-.1-.2-.1s-.2-.1-.4-.2c-.3-.1-.6-.2-1.1-.3.6.8-.3.1.1 1-.1.1-.2.1-.4.1H416.9c0 .1.1.3.1.4-.3.7-.6.5-.7 1 .2.1-.5.7 0 .6-.3.3-.6.5-.4.8-.2.6-.4.2-.6.7-.3.6-.2.8-.4 1.4-.2.4-.3.3-.4.8-.1.1-.3.2-.4.3l-.3.3c-.2.1-.5.2-.8.3-.6.1-1.2-.1-1.8-.4-1.2-.6-2-1.9-2.3-3.4-.1-.6-.1-1.2 0-2v-.3l.1-.5c.1-.4.1-.6.2-.9.3-1.2.8-2.3 1.3-3.2 1-1.9 1.9-3.3 2.7-4.6.9-1.5 2.4-3.1 3.7-4.5 4.6-4.6 7.1-7.2 13.3-11.6 2.5-1.8 5.3-4.2 8.3-5.3 1.3-.5-.1.4-.3.5-1.3.8-2.6 1.6-3.8 2.4-1.2.8-2.4 1.6-3.6 2.7.4 0 1-.3 1.4-.7-1.7 2.2-4.6 3.7-6.6 5.4-.2-.5.2-.3.3-.6-1.1.1-1.4 1.2-2.5 1.7.7.5.6-.5 1.3-.6.1 0 .2-.2.3 0l-.3.2c-.8 1-1.8 1.9-2.7 2.7-.9.9-1.8 1.7-2.4 2.7 1.3-1 3-1.8 4-3.8 0 .2.1.3.2.3 1.3-1.1 2.6-2 3.7-3-1.3 1.7-3 2.9-4.5 4.6 1.1-.2 1.7-1.5 2.9-2 .2 0 0-.3-.1-.5 1.1-.1 1.8-.8 2.5-1.3 5.8-3.8 10.8-7.5 17.9-11 .3-.1.6-.2 1-.5.3-.2.8 0 1.1-.1.8-.4 1.4-1.7 2.5-.9.2-.2.8-.3.6-.1-.9.9-2 1-2.8 1.4-3.3 1.8-6.7 3.1-9.5 5.1 2.9-.7 5.1-3 7.6-3.8 1.1-.4 2.4-1.1 3.5-1.4 5-1 9.1-4.6 14.5-4.6-.5.5-.8.6-.8.7zm-34.7 11c-.2.1-.8.1-.7.8.2-.4 1.5-1.1.7-.8zm-3.8 2.8c.7.4 1.5-.7 1.8-1.2-.8.3-1.1.9-1.8 1.2zm-3.4 5.8l-.4.3c.2.2 1.2-.3.9-.8-.3.1-.5.3-.5.5zm33.7-14.8c-.2-.6-.7-.2-.6.1.2-.1.2-.1.6-.1zm-36.4 33.5c-.3-.4-.5-.5-.8-.7l-.2.2c.3.4.2.6.2.8-.3-.3-.5-.5-.6-.8.2.5.5 1.1.9 1.3-.3-.2 0 .2.1.4.1.1.5-.3 0-.4.3 0 0-.7.4-.8zm-.7 2c1.2 1.1.4.2 2.1.6-.2.2-.3.2-.4.3 0 0 0 .1.1.2-.9-.6-.2 0-.8-.4 0 0 .2.2.3.2-.2-.1-.6-.4-.3-.1l-.5-.5-.2-.3h-.3c.2.1.5.4.5.5l-.5-.5zm1.1.9c0-.1.1-.4-.4-.9.1.4 0 .4.4.9zm.3.4c.1.2 0 .1-.4-.4.2.3 0 0 .4.4zm1.9-2.3c-.1-.4 1.2-.2.7 0 .2 0 .4.1.3.2-.5 0-.5-.2-1-.2zm-.6 1.4c0-.1 0-.3-.3-.3.1-.5.8-.5.9-1.1.4.1.7.2.8.4-.5.2-1.3.3-.7.8-.3-.1-.6-.1-.7 0 .2.1.2.3 0 .2zm14.3-34c-.2 1.2-1.2.9-1.7 1.5 0-.7 1.4-.8 1.7-1.5zM423 141.9c-.7-.6.2-.4.2-.8.1.2 0 .2.2.5-.2 0-.7-.3-.4.3zm-1.5 1.7c-.2 0 0 1-.7.3.2-.3.3-.4 0-.9.2.1.4.3.5.1.1.2 0 .4.2.7v-.2zm.5.4c-.1-.2-.1-.3-.2-.5.3.3.3.2.4 0 .4.6-.2.2-.2.5z"/><path class="st0" d="M352.9 325.2c3.8 1.7-1.4-1.5-3.8-2.9-3.1-1.9-6.6-4.1-8.1-3.7 3.1 2 8.3 4.9 11.9 6.6zm-63.2-38.6c-1.7-.9-4.3-2-6.7-3.4-1.2-.7-2.3-1.4-3.2-2.2-.5-.4-.8-.8-1.2-1.3-.2-.2-.3-.4-.4-.7 0 0 .4.3.2.2v-.1l-.1-.2c0-.1-.1-.2-.1-.3l.3.3c-.5-.3-.1-.1-.2-.2l.1.1.2.1c.3.2.5.4.8.6.5.4 1.1.7 1.6 1.1 1.1.7 2.2 1.5 3.3 2.2 2.2 1.5 4.2 2.8 5.4 3.8zm7.5 4.4c-4.9-1.4-5.3-4.3 0 0zm-38-25.7c.4.2.3.5.1.7 6.7 3.6-1.6 2.3-.1-.7zm-3-1c-1.8.6-4.1-3.8-5.9-3.2 0-2.2 5.5 2.7 5.9 3.2zM228.9 250c1.7-1.5 3.9 2.6 5.8 3.4 1.2 2.3-4.4-3.6-5.8-3.4zm152.3 102.8c-5.1-1.2-5.8-4 0 0zm15.7 9c-6-1.5-5.9-4.1 0 0zm13.7 21.1c-5.2-.7-11.8-6.9-21.2-11.4 4.9 1.3 14.5 8 21.2 11.4zM204.3 258.1c-.6.1-1.2.5-1.8 1.2l-2.4-2.1c2-1.6 2 .9 4.2.9zm-6.1 3.7c-1.8.9-3.9-2.6-5.9-3.1 2.7-1 3 1.8 5.9 3.1zm-58.1-54c.8-.8 1.4 1.3 2.2 1.7-.9.5-1.8 0-2.7.9-.9-1.5.6-1.9.5-2.6zm2.9 2.5c.1.5.2 1 .7 1.6-.8 1.2-1.5-.1-2.3.6-.3-1.1.4-2.3 1.6-2.2zm27.8 29.9c-1.7 0-3.9-1.9-6.5-2.6 1.1.1 2.3.4 3.4-.3 1.1 1.7 3 1.2 3.1 2.9zm-32.5-33.7c-.5.1-1 .1-1.6.6 1.1-2.2-7.1-3.5-2.6-5.6-.8 3.2 4.5 2.6 4.2 5zm27.5 29.5c-1.1 0-2.3-.7-3.4-1.9 1.2-.7 3.3 1.1 3.4 1.9zm-16.5-12.5c1.7 1.2-1.3 2.2-1.9 3.3-1.1-1.2.9-3.3 1.9-3.3zm-27.7-26.3c-.3-1-2.9-4.3-4.6-3.3.4-1.4.1-1.5-1.3-2.5.9-1.2 1.5.2 2.3-.4.5 3.1 5.7 3.5 3.6 6.2zm3.2 2.3c.3.5-.6.9-.1 1.5-1.3.2-2.4-2.3-3.7-2 0-1.9 2.9-.4 3 1.1l.8-.6zm-8.6-9.9l-1.2 1c-.5-.8-2.1-1.8-.5-2.4.5.8 1.2.5 1.7 1.4zm-8.1-5.5c-.1-1.3 4 .1 3.6 1.4-1.3.9-2.3-1.3-3.6-1.4zm1.7 1.4c.4.3.1.5-.1.8 1.2.2 3.5-1.2 3.3.9-1.1.8-1.8-1.6-3.1.3-.7-.8-.9-1.5-.1-2zm-5.4-8.3c-.2 1.2 1.7 1.6 2.6 3.5-2.6-.2-3.5-2.3-5.5-2.1-.3-1.7 2.2-1.3 2.9-1.4zm-28.7-24.4c.7.8-2 2.4-2.1.6.4-.1.8.3 1.2 0-.5-2.8-2.2.4-2.9-1.8 2.6.2-.8-1.3-1.3-3.5 2.3 1.3 3.7 3.3 5.1 4.7zm369.9 244.3c3.5 3.5 14.4 7.6 18.6 12.9-7-4.3-11-6.5-18.7-10.5-.5 1 1.9 1.3 2.5 2-23.6-12.2-38.3-20.9-57.5-31.8-1.7-.5-1.7 1-2.4 1l-9.7-5.6c1.8-2 0-3.1-.5-4.5-1.1-1-.9 2.3-2 1.3-.5 1 .6 1.6 1.8 2.2-13.2-6.2-31.5-17-49.2-27.3-.9.7-2.5-1.9-3.1 0-4.7-7.3-12.8-7.9-19.1-13.3 0 2.1-1.5-1.3-4-.7-1.2-.7-.3-.7.1-1.2-6.4-4-13-8.1-19.3-12.1-3.2-2-6.3-4-9.5-6.1l-9.3-6c-6-4-11.9-7.7-17.3-11.2-5.5-3.4-10.5-6.7-15.1-9.4-2.8-3.3-6.3-6.4-11.9-8.8-1.8-1.5-3.7-3.1-5.5-4.7-1.9-1.6-3.8-3.2-5.7-4.6-3.9-2.9-8-5.5-12.5-6.9.5-.8 1-.5 1.5-.1-.7-.8-1.6-1.7-2.6-2.7-1-1-2.1-2-3.2-3-2.3-2-4.8-3.9-7.1-5.3-.9-.7-.4 1.4-1.8 1.9-1-.5-2.1-2.9-3.1-2.2-.5-3 2.3 2.1 3-.1-1.7-3.3-5.3-4.9-8.7-6.2-2.6-3.1-5.4-6.2-8.5-9.1-1.5-1.5-3.2-2.8-4.7-4.3l-4.8-4.2c-1.6-1.3-3.2-2.7-4.7-4-1.5-1.3-3-2.6-4.4-3.8-2.8-2.5-5.4-4.8-7.5-7.1-1.7.2.7 2.5-.9 1.4-.4-.8-1-.5-1.5-.1-1-1.8 1.3-.9 1.3-2.5-3.9-3.4-6.6-6-9.1-8.2-2.4-2.3-4.7-4.2-8-6.2 2.3-.2-.6-.8-.2-1.9-2.5-.8-5-.5-7.2-3.4 1.3-1.1 2.9 2.1 5 2.3-2.3-3-4.3-5.8-6.9-8.4-2.6-2.5-5.6-4.9-9.9-6.9-1.5 1.7 2.5 2.3.6 3.6-3.8-2.1-6.2-4.1-7.3-7.8.6-.2.9.7 1.5.3-.9.3-3.9-4.6-6.3-3-.1-3-2.1-4.3-5.1-3.1-.1-.8-.5-1.6-.7-2.5-.1-.4-.2-.8-.2-1.2 0-.2 0-.4.1-.6 0-.1.1-.2.1-.3v-.1c-.2-.4-.1-.1-.1-.2l.1-.1c-.7-.3-1 .8-2.2-.6-.2.8-.3 1.4-.2 2v.2c0-.1.3.5.2.2v.2c0 .1.1.3.1.4.1.3.2.5.4.8.6 1 1.7 2.1 3.1 3.8 1.4.3.6-.8 2.2-1.4.9 2.2-1.4 1.4-.8 3.7 2.7 3.2 4.1 2.3 6.6 6.1-1.9.5-3.4-.4-4.6-1.8-1.1-1.3-2.1-3.1-3.2-4.2-1.3-.2-4.2-1.9-4.2-1.7-1.4-.1-.1-1.2 1-1.3-.8-1-1.6-1.6-2.3-2-.3-.2-.7-.4-1-.5-.1 0-.2 0-.2-.1h-.2c-.4-.6-.1-.2-.2-.3-.2 0-.3-.1-.5-.1-1.2-.2-2.3.2-3.4.4-.4-1.7.4-2.5 2.1-2.6-1.8-1.6-3.4-4.3-5.2-6.4-1.8-2.1-3.8-3.7-6.8-3 0-.8.8-1.2.1-2.2-2.9.2-1.8-5.1-5.7-4.9.5-1.7-.3-3.4-1.4-5.1-1.1-1.7-2.6-3.4-3.4-4.9.8-.3 1.7-.5 2.5-.8-.4-1-.9-2-1.4-3-.5-1-.9-1.9-1.4-2.8l-.4-.7-.4-.8-.7-1.7-.4-.9-.2-.4-.1-.2-.1-.1c-.2-.3-.3-.7-.5-1-.3.3-.4.5-.5.8 0 .1-.1.3-.1.4v.3c0 .1 0 .3.1.4.2 1.1.7 2.2 1.2 3.4 1.1 2 2.5 4 2.9 6.1-.9-1.2-1.8-2.5-2.6-3.9-.4-.7-.8-1.3-1.2-2.1-.4-.8-.8-1.7-1.2-2.5l-.5-1.3c-.2-.3-.3-.5-.4-.7l-.8-1.4-.1-.2v-.1c0 .2-.2-1.4-.1-.7v-.1l-.2-.6-.4-1.2c-.3-.8-.5-1.7-.8-2.5-.9-3.4-1.6-7.1-2-11.2-.4-4.1-.4-8.7.3-13.8-.1 1.6 0 3.1 0 4.6.1 1.4.1 2.9.2 4.2.2 2.7.5 5.2.8 7.7.4 2.4.8 4.8 1.4 7.1.3 1.2.6 2.3 1 3.5.2.6.4 1.1.6 1.7l.2.4v.1c0 .3-.1-.7.1.7v.1l.1.1.3.5c.1-.2.2-.4.3-.5v-.3l-.1-1.1c-.1-.5-.3-1.1-.5-1.6-.4-1-.7-2.1.1-3-1.4-2.5-2.7-7.1-3-12.1-.3-5 .6-10.2 1.8-12.5-.5-1.1-.5-2.7-.3-4.5.1-.9.3-2 .5-3 .2-1.1.6-2.3 1-3.5l.2-.5.2-.6c.2-.4.3-.8.5-1.2.4-.8.7-1.6 1.1-2.5 0-.1.1-.2.1-.3v-.1l.1-.2.1-.4.1-.4.1-.2v-.1c-.6.9.8-1.2.7-1l.2-.3c1.6-3 3.5-6 5.5-8.7 2.3-1.6 1.7-.5.6.9-1.1 1.5-2.5 3.6-2.2 3.9.8.4 1.7-1.3 2.6-2.6.9-1.3 1.8-2.4 2.3-1.1-2.4 2.5-3.3 3.9-4.1 4.7-.7.8-1.3 1-2.7 1.5.9.7.4 1.6-.2 2.6l-.1.2-.1.1-.6 1v.4c.1.2.3.5.7.8-.1.3-.2.4-.4.5 0 0-.1 0-.1.1l-.2.2c-.1.1-.3.2-.4.2-.5.2-.8-.1-1.2-.3.3.9.8 1.7.6 2.9 0 .6-.3 1.4-.6 2.1-.3.7-.8 1.5-1.5 2.5.7.2 1.5-.3 2.1-1.2.2-.2.3-.5.5-.8.2-.3.3-.5.5-1 .4-.8.9-1.7 1.3-2.6l.3-.7.2-.3c.1-.1 0-.1.1-.2 0-.2.1-.3.1-.5 0-.3.1-.7 0-1v-.1c-.1.2 1.1-1.7.6-.9v-.1l.1-.2c.1-.2.1-.3.1-.5.1-.3.2-.6.2-.8.1-.5.1-.9 0-1.1 5-5.8 11.3-11.3 16.7-16.1 2.9-1.5 3.4-.3 3.8 1 .1-.8 2.9-1.8 5.5-1.9 1.3-.1 2.5 0 3.2.4.7.3.9.8.3 1.4 4.6-.4 7.5-.4 10.2-.5 1.3 0 2.7.1 4.1.2.7.1 1.5.3 2.3.4.4.1.9.2 1.3.3.5.1 1 .3 1.6.5-.9 0-1.2.2-1.5.3-.3.1-.5.2-.6.2-.2.1 0 .3.2.4.3.3.7.6-1.5 1.4.3.4.7.7 1.3 1 .3.2.6.3 1 .4.5.2 1 .3 1.5.5 1 .4 2.1.8 3.1 1.2l.8.8c-.1 1.2-.7 1.6-1.3 1.8l-.1.1h-1c-.4 0-.9 0-1.3.1-.8.1-1.5.3-1.8.6 3.4.6 2.6 1.2 2.4 1.6-.1.2-.1.4.5.7.4.2.5.2.7.3.2.1.6.1 1 .1-1.1 1-2.9 1.3-.7 2.5-.1 1-.6 1.1-1.3 1.2h-1.3c-.6 0-1 .2-1.1.5-.1.5.1.9.3 1.3.1.2.3.4.4.6.1.2.4.4.4.5.2.7.4 1.3.2 2.2-.1 1.3-1.3.8-1.2 2.4-.2.1-.3.1-.6.2l-.7.2c-.5.1-.9.2-1.4.4-.8.4-1.6.6-2.3 1.1-1.5.7-2.8 1.7-3.9 2.7-2.3 2.1-3.9 4.4-5 6.9-.5 1.2-1 2.4-1.2 3.6.3.7.3 1 .3 1.3l-.1.4v.2s.2-.3.1-.2l-.1.3-.3 1.2v.8c0 1.1 0 2.3.1 3.5.1 1.2.3 2.3.5 3.5.4 1.8.9 3.6 1.6 5.4.3.9.7 1.8 1.2 2.7l.1.2c-.1-.6 0-.1 0-.3v.1l.2.5.4.9c.1.3.3.6.4.9l.4.6.7 1.2.8 1.3c.6.9 1.1 1.8 1.7 2.6 1.2 1.7 2.5 3.5 3.9 5.2 2.8 3.5 5.9 6.9 9.2 10.6l2.6 2.8.3.4.2.2.1.1c-.4-.6-.1-.2-.2-.3l.7.8 1.4 1.5c1.8 2 3.7 4 5.5 6.1 2.2 2.6 4.4 4.7 6.5 7.1 2.2 2.4 4.3 4.8 6.6 7.2 2.3 2.5 4.6 5 6.8 7.4 2.3 2.4 4.6 4.8 6.8 7.2.9 1 1.9 2 2.8 3 .9 1 1.9 1.9 2.8 2.8l5.4 5.4c1.7 1.8 3.6 3.4 5.3 5.1 1.7 1.6 3.4 3.3 5.1 4.8 3.4 3.1 6.8 6.1 10.1 9.1 3.4 3 6.8 5.8 10.2 8.8 13.8 11.6 28.6 23.6 49.5 39 8.4 6.2 18.1 12.5 27.7 18.9 2.4 1.6 4.9 3.2 7.3 4.7 2.4 1.6 4.7 3.1 7 4.7 4.9 3.3 9.8 6.8 14 9.8 7.8 5.7-1.9-.1-3.5-1.1-.6-.3-1.1-.7-1.7-1-.6-.4-1.2-.7-1.8-1.1-1.2-.7-2.3-1.5-3.5-2.2-2.3-1.5-4.5-2.9-6.8-4.4-4.1-2.8-8.2-5.5-12.2-8.2-4.1-2.8-8.2-5.6-12.4-8.4-2.1-1.4-4.2-2.9-6.4-4.3-1.1-.7-2.2-1.4-3.3-2.2-1.1-.7-2.2-1.5-3.4-2.2.8 1.1 2.1 2.4 3.7 3.6 1.6 1.2 3.3 2.3 4.8 3.1-2-1-4.1-2.2-6.1-3.4-2-1.2-4.1-2.5-6.1-3.9s-4.1-2.8-6.1-4.2c-2-1.5-4-3-6-4.6-8-6.2-15.7-12.8-22.9-18.7 1.5-.6 1.7.9 3.7 2-4.2-5.8-9.8-7.8-15.4-14 0 3.2 4.1 3.6 6.9 7.4.5.6 1.6 1.2 1.1 1.8l-1.5-1.4c-14.3-9.8-26.6-22.8-38.9-32.5 1.9 2.1 3.9 4.3 5.9 6.5 1 1.1 2.1 2.3 3.1 3.4 1.1 1.1 2.2 2.2 3.4 3.3 2.3 2.2 4.7 4.4 7.3 6.5 2.6 2 5.4 4 8.3 5.7-.6.1-1.1.2-.7.7 2.2 2 4.4 3.8 6.5 5.7 2.2 1.9 4.3 3.7 6.4 5.5 2.2 1.8 4.3 3.5 6.4 5.2 2.1 1.7 4.2 3.4 6.3 4.9-12.1-7.6-23-17.4-35-27.1 2.2 3.1 5.1 5.7 8.3 8.4 3.2 2.7 6.7 5.4 9.9 8.9.6.9 1.2.1 1.8-.4 1.9 2.8 4.3 5.2 6.8 7.5 1.2 1.1 2.5 2.2 3.8 3.3 1.3 1 2.6 2.1 3.8 3.1 2.4 2 4.7 3.9 7.1 5.9 2.4 1.9 4.8 3.8 7.1 5.6 1.2.9 2.4 1.9 3.5 2.8l3.6 2.7c2.4 1.8 4.8 3.6 7.1 5.4 9.6 7 19.3 13.8 29.3 20.4 1.3.8 2.5 1.7 3.8 2.5l.9.6.5.3.2.2.1.1c-.3-.2-.1-.1-.1-.1h.1l2 1.3c2.6 1.7 5.3 3.4 8 5.2l2 1.3 1.9 1.2c1.3.8 2.6 1.6 3.9 2.5 2.6 1.6 5.2 3.3 8 5 10.9 6.8 22.3 13.7 34.5 21 2 1.2 3.8 2.6 6.7 4.1 2.3 1.2 3.9 3.7 6.2 5 5.7 3.4 13.3 4.6 16 10.2 1.8.7 5.4 3.3 3.4 2.6-4-1.5-7.5-3.5-10.8-5.5-3.2-2-6.1-4.1-9-5.6-11.9-6.6-23.4-13.6-34.3-20.5-5.5-3.4-10.8-6.9-16.1-10.3-2.6-1.7-5.2-3.3-7.7-4.9-2.6-1.6-5.2-3.2-7.7-4.8 15.7 13.5 35.9 22.5 51.5 33 3.6 2.4 7.8 4.9 11.9 7.4 4.1 2.5 8.1 4.9 11.3 7.2 29.7 21.2 65.3 34.7 95.4 57.4-3 0-4.4-1-5.5-1.1zM233.4 246.9c-.8-.8-3.6-4.1-6.1-3.8 1.1.6 3.7 2.5 5.5 3.9 1.8 1.3 2.8 2 .6-.1zm-25.5-20.2c.4 1.8 2.4 3.9 4.7 5.6 2.3 1.7 4.9 3.1 6.6 3.8-3.8-3.7-7.6-5.3-11.3-9.4zm-36-22.2l-2.4-2.6c-.1.9 4.8 6.7 6.3 6-1.8-1.9-2.8-2.9-3.9-3.4zm210.9 162.6c1.4-1.3-2.8-3.1-3.4-2.6 1.6 1.3 1.2 1.2 3.4 2.6zM79.3 152.6c1.4-.8 1.1-2.1 1.8-3.1l-1.5-2.5c-1.5.7-2.5-1-3.6-2 1-.8 1.4-2.1 2.8-1.5-2.1-.3-4.6-1.2-5 .7.4-1.6-1.1-1-2.1-1.7-.1.9 3.4 6.5 2.4 2.2 1.2 4.1 4 4.6 5.2 7.9zm-15.9-25.9c-1.4-.4-2.5-1.6-3.4-3.2-.5-.8-.8-1.7-1.2-2.7-.2-.5-.3-.9-.5-1.5s-.3-1.2-.5-1.7c-.2-.6-.3-1.2-.5-1.7-.1-.4-.2-.7-.3-1-.1-.3-.2-.6-.4-.9-.1-.1-.1-.3-.2-.4l-.1-.1c0 .1-.2-1.1-.1-.6 0-.1-.1-.2-.1-.3-.6-1.5-1.5-2.5-2.7-2.4.3.9.6 1.6.7 2.1.1.3.2.5.2.7v.1l.1.6V114c.1.5-.1 1-.3 2.2 3.1-1.3 1.3 3.1 3.4 3.9.2 1-.7.9-.7 1.7 1.4 2.2 2.5 1.5 2.6 5.5 2.7 0 2 4.6 4.6 6.6l1-.4c-.1-.4-.2-.8.2-.8-1.1-1.6-2.7-1.6-3.7-3.8 1.3-.5.4-2.2 1.9-2.2zm-1 9.3c.7 1.4 1.9 3.4 3 4.9 1.1 1.4 2.2 2.2 2.8 1.3-2.1-1.7-3.6-5.4-5.8-6.2zm-4.7-8.2c-.1.8.3 2.4 1.1 3.6.7 1.3 1.7 2.2 2.6 2-.7-.6-1.2-2-1.7-3.3-.6-1.2-1.1-2.4-2-2.3zm-4.9-41.7c.7-2.2.2-3.2-.6-3.3-.8 0-1.7 1-1.4 2.7-.6-.1-1.3 0-1.6 1.9.7.3 1.3-.2 1.8-.7.5-.5 1-1 1.8-.6zm-1.3 16c.1-1.1.2-2.2 1.1-1.8.2-2.7-.1-4.6-.3-6.5-.3-1.9-.5-3.8.2-6.7-1.3 0-2.5.5-3.3 2.6.6 1.1 1.2 2.6 1.5 4.1.3 1.5.1 3-1 4.4 1 .2 1.7.8 2 2.1-.6 0-.8 1.6-.2 1.8zm225.4 175.5c-2.7-.2-4.9-1.6-7-3.2-2.1-1.6-4.1-3.4-6.4-4.6 2.9-.3 9.1 6.4 13.4 7.8zm-165.6-88.4c1.2-2.9 2.4 1.9 4.3 2.9-.6 0-1.2-.7-1.9.1-.5-1.1-.6-3.8-2.4-3zm-12-13.8c-.4-1.5-4.5-2.2-2.7-4.9 1.8 2.1 2.5 2.9 4.3 2.5-.1.9-.7 1.7.7 2.9-.9-.1-1.7-.7-2.7-.2-.3-.6.2-.5.4-.3zm-1.1 2.2c.7-.2 1.2.3 1.9 0-.5 1.4-.1 1.5 1.2 2.6-1.8.9-1.3-1.7-3.1-2.6z"/></svg>