<svg xmlns="http://www.w3.org/2000/svg" viewBox="0 0 500 500"><path class="st0" d="M358.9 146c-.9 3-.6 2.3 0 .4.2-.5.4-1 .6-1.6.2-.5.3-1.1.5-1.7.2-.6.3-1.1.5-1.7.1-.3.2-.5.2-.8.1-.2.1-.4.2-.6 0-.1.1-.3.1-.4 1.5-5.1 2.6-11.2 2.5-12.9-.4 2.7-1.1 6.2-2 9.7-.2.9-.4 1.7-.7 2.6l-.2.6v.2l-.1.4-.1.3c-.1.4-.2.8-.3 1.1-.2.7-.4 1.5-.6 2.2-.1.4-.2.7-.3 1l-.3 1.2zM337.7 41.5c-2-1.9-5.4-4.5-8.7-6.8-3.3-2.4-6.6-4.5-8.3-6 3 1.8 6.4 4.2 9.5 6.5 3.1 2.2 5.8 4.6 7.5 6.3zm9.3 10c-1.3-1.4-2.4-2.7-3.2-3.6-.8-.9-1.3-1.5-1.4-1.7-.2-.3 1.3 1 4.6 5.3zm-58.5-35.7c.6.1.7.2.7.4 10.9 2.5-.1.9-.7-.4zm-4.5-.6c-.8.1-2.8-.4-4.9-.7-2-.4-4.1-.7-4.9-.5-.9-.4 1.3-.2 3.9.1 2.6.4 5.4 1 5.9 1.1zm-43.6-.5c.1-.2.6-.3 1.3-.4.3 0 .7-.1 1.2-.1h4.2c1 0 1.9 0 2.7-.1 1.8.2-.4.2-3 .2-.6 0-1.3.1-1.9.1h-1c-.4 0-.7 0-1 .1-1.2 0-2.1.1-2.5.2zm91 177.4c1.7-3 3.1-4.9 3.3-5.2.3-.2-.5 1.3-3.3 5.2zm-14.3 19.3c1.1-1.6 2-2.8 2.6-3.7.7-1 1.1-1.4 1.2-1.5 0 0 0 .1-.1.3-.1.1-.1.2-.2.4-.1.1-.1.2-.2.3l-.3.3c-.6.8-1.6 2.1-3 3.9zm-21.9 20.2c3.8-5.2 11.8-13.4 19.9-24.3-1.7 2.6-5.1 6.9-8.9 11.4-3.6 4.5-7.8 9.2-11 12.9zM222.9 24c-.5.2-.7.5-.6.8l-4.1.7c.4-.9 2.7-.7 4.7-1.5zm-2.4 2.7c-.8.8-5.9 1.3-8 2.1.7-.6 1.8-.9 3.1-1.1 1.3-.3 3-.5 4.9-1zM134 74.6c-.4-.1 1.2-2.1 1.7-3 .1.4-.4 1.5 0 1.6-1.2 1.8-1.2.8-1.7 1.4zm2.4-4.1c.4-.4.8-.8 1.3-1.6.7-.1-.5 1.3-.2 1.5-.7.9-1.4 1.1-1.1.1zm41.4-30.4c-1.3.9-4.7 2.5-7.2 4.1.9-.7 2-1.4 2.1-2 2.6-.9 3.5-1.9 5.1-2.1zm-45 37c0 .4-.1.8.1.8-.3.2-.7.8-1 1.6-.4.8-.7 1.8-1 2.7-.7 1.8-1.1 3.3-1.6 2.2.8-.9 1.3-2.3 1.7-3.8.6-1.3 1-2.8 1.8-3.5zm37.5-33.5c-.8.7-2.2 1.5-4.1 2.5.2-.7 3.3-2.3 4.1-2.5zm-21.2 14.6c1.8-1.8 1.2.1 1.8.1-1.5 1.3-2.2.7-1.8-.1zm-21.7 40.5c-.2.6-.5 2.1-.7 3.5-.2 1.5-.2 2.9.1 3.2-.5.8-.5 1.3-.5 3.2-.5.4-.2-1.3-.6-1.4.1-.4.2-.8.2-1.3.1-.4.1-.9.2-1.3.1-.9.1-1.9.2-2.7.3-1.6.5-2.9 1.1-3.2zm.8-4.6c.2-.7.4-.3.7-1.2.1.9-.9 3.9-.6 4.6-.8 1.6-.4-2 .3-3.3l-.4-.1zm-2.4 15.7h.5c-.1 1.2.1 3.3-.4 2.6 0-1.2-.2-1.4-.1-2.6zm1.4 11c0 .7-.4 0-.7-1-.3-1-.5-2.3-.4-2.8.7.1.6 2.9 1.1 3.8zm-.4-2.5c-.1-.5 0-.6.1-.7-.2-.5-.5-.8-.7-1.3-.2-.4-.3-1-.1-1.9.5 0 .3 2.8.9 1.9.1 1.3.1 2-.2 2zm1.9 11.5c0-1.1-.9-2.6-1.2-5 .5.9.8 2 1.2 3 .4 1 .7 1.9 1.2 2.4.3 1.7-.9 0-1.2-.4zm28.2 23.5c-1-.1-.8-1.1.7-.6-.1.1-.6.1-.6.2 2.5.7.9-.5 2.9-.1-1.5.5 1.5.2 3.5.4-2.4.4-4.7.3-6.5.1zm105.2 114.4c-2.4 2-6.3 5.6-10.5 9.2-2.1 1.8-4.3 3.6-6.3 5.3-2.1 1.6-4.1 3.1-5.8 4.3 8.3-6.8 12.8-10.7 21.1-18.4-.3-.2-2.2 1.9-3.2 2.7 12.7-11.8 22.7-22 31.9-31.9 4.6-5 9-9.9 13.3-15 2.2-2.5 4.3-5.2 6.5-7.8 2.2-2.7 4.4-5.5 6.6-8.3 1.3-1.8.3-1.4.7-2.1 3-3.9 5.9-7.8 8.8-11.8.3 1.2 1.9-1.2 3-2.2 1.2-1.5-1-.1.2-1.6-.4-.1-1.3 1.2-2.3 2.7 5.3-7.9 11.8-18 17.6-29.7 2.9-5.9 5.5-12.1 7.7-18.7.6-1.7 1.1-3.3 1.5-4.9l.4-1.2.1-.4.1-.3.2-.6.7-2.5c.8-3.4 1.5-6.9 2-10.3-.2-.5.7-4.3 0-3.7 1.2-5.2 1.5-10.4 1.2-15.7-.3-5.2-1-10.5-1.9-16.1-.2 1.7-.5-2.7-1.7-4.9-.5-1.8-.1-.9.1-.8-.4-1.3-.7-2.5-1.1-3.8l-1.3-3.7c-1-2.5-2-4.9-3.3-7.3l-.9-1.8c-.3-.6-.6-1.1-.9-1.6l-1-1.6-.5-.8-.1-.1-.1-.2V62l-.1-.2-.3-.4c-1.5-2.2-3-4.4-4.7-6.4-6.7-8.2-14.9-14.8-23.4-19.8-1.1-.6-2.2-1.2-3.2-1.8-1.1-.6-2.2-1.1-3.2-1.7l-3.3-1.5c-1.1-.5-2.2-.9-3.3-1.4-1.1-.4-2.1-.8-3.1-1.2l-.5-.2-.4-.1-.8-.3c-.5-.2-1.1-.4-1.6-.5-2.2-.7-4.3-1.3-6.4-1.8-8.5-2.1-16.5-3.1-23.5-3.5-5.7-.8-11.9-1.1-19.7-.3-6.2.2-12.9.7-19.3 1.6-6.4.9-12.6 2.3-18 4.2-.3-.2.5-.4 1.3-.6-2.8.5-6.6 1.4-10.4 2.4-3.9 1.1-7.8 2.4-11.1 3.7-1.5.5 1 .1.3.8-1.3.5-4.4 1.3-4.5 1.8-3.2.5 3.7-1.4 2.4-1.6-2.2.6-4.5 1.4-6.6 2.4-2.2 1-4.2 2.1-6.1 3.2-9.8 3.9-20.1 9.6-28.2 17.2-4 3.7-7.4 7.9-10.2 11.9-2.8 4.1-4.9 8.1-6.6 11.7-.1 1.3 1.7-2.6.8-.4-.6 1-.5 1.2-.3 1.4-1.2 2.3-.4-.5-1.4.9-2.4 6.2-3.6 10.9-4.4 15.1-.8 4.2-1.2 8-1 12.5-.3-.8-.3-.5-.3.1s.1 1.5-.1 1.9c.1.7.2 1.3.3 1.9.2.6.3 1.2.4 1.8.2.6.2 1.4.4 2.2.1.8.3 1.7.4 2.9-.3.1-.5-1-.7-2.3-.2-1.3-.3-2.9-.6-3.8.1 4.7.6 9.2 1.8 13.6 1.2 4.3 3.1 8.6 6.1 12.5.2-.5-.3-1.3-.8-2.1-.4-.8-.8-1.5-.4-1.7.3.5.6 1 .9 1.4.3.4.6.9.9 1.3.3.4.6.8.8 1.3l.9 1.2c1.1 1.6 2.2 3.1 3.4 4.9-.3 0-.9-.9-1.1-.8.1 0 .4.4.9.8.5.5 1.1 1 1.7 1.6.6.6 1.4 1 1.9 1.3.6.3 1 .4 1.1.2.2.3.5.5.7.8.2.2.5.4.7.6.5.4.9.7 1.4.9 1.1.5 2.1.6 2.7.3.2.1.4.3.6.4l.2.1.1.1c-.5-.3-.1-.1-.2-.1l.3.2c.4.2.8.5 1.2.7.8.4 1.5.8 1.8 1.2.7.1 0-.4 1.9.1-1-.7-1.9-1.1-3.1-1.7-.3-.1-.6-.2-1-.4-.2-.1-.3-.1-.5-.2-.1 0-.2-.1-.3-.1l-.1-.1c.1.1-.3-.1.3.1h-.1c-.9-.5-2-1-3.2-1.7-1-.3.1.5-.4.8-1.8-1.5 0-.8-1.7-2.3-.9-.7-1.6-1.2-2.2-1.7-.6-.4-1-.8-1.5-1.2-.5-.4-1-.8-1.5-1.3-.5-.6-1.1-1.3-1.8-2.3.5.1 1 .4 1.5.9.6.5 1.1 1.2 1.9 1.8.7.7 1.3 1.5 2.1 2.1.4.3.7.6 1.1.9.2.1.4.3.5.4.2.1.3.2.5.3.4.1 1.3.5 2 .8 1 .4 1.9.7 1.9.7 1.1.2 1.2.9.3.8.2.1.4.2.5.3l.3.1.1.1c.3.1-.4-.2-.3-.2h.1c.3.1.5.2.8.3.5.2.9.3 1.3.4.8.2 1.3.2 1.7.2.9-.1 1.2-.4 1.6-.6 1.5.6 1.7 1 .8 1.3 2.3.4 5.3.8 8 .7 2.7-.1 4.9-.6 5.4-1.6.3 0 .4.1.6.2.2.1.5.1 1.2 0 .1-.1.3-.2.5-.3.1 0 .2-.1.4-.1h-.1H171.3c.5-.1 1.1-.2 1.7-.3 1.2-.2 2.4-.5 2.8-1.2 1.2.1 2.7-.3 4.1-.9 1.4-.6 2.7-1.4 3.7-2l.4.8c1.4-.8 2.6-1.6 3.6-2.4.5-.4 1-.9 1.4-1.3.5-.5.7-.8 1.1-1.2-.4.1-.7.2-1 .5-.4.3-.8.8-1.3 1.2-.9.9-2.1 1.9-3.5 2.5 1.7-1.2 3.1-2.4 4.3-3.7.4-.3.5-.6.7-.8l1.1-1.2.2-.2.1-.1-.2.2.2-.3c.1-.2.2-.3.3-.5.2-.3.4-.7.6-1.1.8-1.4 1.5-3 2-4.7.3-.8.5-1.7.6-2.6.1-.4.1-.9.2-1.3v-.5c0-.4.1-.7.1-1.1v1.9c0 .6-.1 1.1-.2 1.7-.2 1.1-.4 2.2-.8 3.2-.7 2.1-1.7 4.1-3.3 6.1 1.2-.5 1.3-1.9 2.3-2.3.5-1.3 1.4-3.4 1.9-5.6.3-1.1.5-2.1.7-3 .1-.4.2-.8.2-1.2.1-.3.1-.5.2-.7v.2-.2c0-.1 0-.1.1-.2-.4-.8-.4-2.2-.7-3.9-.3-1.7-.7-3.6-1.6-5.4-.1-.8.1-.5.4 0 .2.5.5 1.2.6 1.2.5-.3-1-2-.1-1.9.6 2.1.7 2 .3 2.8.8-.1.3 1.2 1.1 1.3.2 1-.2.9-.4 1 .5.3 1.1.5.8 2.3.5 0 .6-1.2.4-2.3-.1-.6-.2-1.1-.4-1.6-.2-.4-.4-.7-.5-.8-.2-2.4-1.2-5.3-2.7-7.1-.5-.9-.1-1.1.3-1.2-.3 0-.6-.9-.9-1.8-.2-.8-.3-1.6.2-1.3-.4-.7-.6-1.3-1-1.8-.3-.5-.6-.9-.9-1.2-.6-.7-1.2-1.4-1.8-2.3 1.3.5-.2-.4 1.2-.1 0-.3-.2-.7-.5-1.1-.1-.1-.2-.2-.2-.3l-.4-.4-.8-.8c0-.9 2.3.8 2.7.6-.4-.4-.5-.6-.6-.7-.1-.1.1-.2.1-.2.1-.1.1-.3-1.7-1.5 1.1.3 3 1.4.5-.7 0-.8 2.4 1.3 2.7.9.4-.5-1.1-1.8-.8-2.4 0-.5 1.2.5 1.1-.3 5.3 2.6 10.7 7.6 14.2 14.6 1.7 3.5 3 7.4 3.5 11.6.1 1.1.2 2.1.2 3.2v1.6l-.1 1.6V133l-.1.8-.1.8c-.2 1.1-.4 2.2-.7 3.3-.9 3.4-2.2 6.7-4.1 9.8-.9 1.6-2 3.1-3.2 4.5l-.2.3-.3.3-.4.5-.4.5-.2.2-.3.3c-.7.7-1.4 1.4-2.1 2-5.7 4.9-12.8 8-20 9.7-1.8.4-3.6.8-5.5 1.1-.8.1-1.8.3-2.8.4-.9.1-1.9.2-2.8.3-3.8.3-7.7.2-11.6-.3-3.9-.5-7.9-1.6-11.8-3.3l-.4-.2-.7-.3-1.1-.7-1.2-.6-1.2-.6c-.2-.1-.4-.3-.7-.4l-.7-.5c-1-.6-1.9-1.3-2.9-1.9l-2.4-2c-3.8-3.4-7.2-7.5-9.8-12-2.6-4.5-4.7-9.5-6-14.5-1.4-5.1-2.1-10.3-2.4-15.4-.1-1.3-.1-2.6-.1-3.9 0-1.3 0-2.6.1-3.8 0-.6.1-1.3.1-1.9l.1-.9v-1c.1-.6.1-1.1.2-1.6.1-.6.1-1.1.2-1.7.2-1.1.3-2.2.5-3.2l.6-3c.5-2 .9-3.9 1.5-5.9 1.1-3.8 2.4-7.5 3.9-11s3.3-6.8 5.2-10c1.9-3.2 4-6.2 6.3-9l1.8-2.1c.6-.7 1.2-1.4 1.8-2l.9-1 .5-.5.1-.1.1-.1.2-.2.2-.2.8-.8.9-.9c.7-.6 1.4-1.3 2.1-1.9.7-.6 1.3-1.2 2-1.7 1.3-1.1 2.7-2.2 4.1-3.2 5.5-4.1 11.3-7.4 17.2-10.4 3-1.5 5.9-2.9 9-4.2.7-.3 1.4-.6 2.2-.9.8-.3 1.6-.6 2.4-1 1.6-.7 3.2-1.3 4.8-1.9 6.4-2.4 13.1-4.6 20.2-6.5 7.1-1.9 14.7-3.5 22.9-4.7 4.1-.6 8.3-1.1 12.7-1.5 1.1-.1 2.2-.2 3.3-.2l.8-.1.9-.1c.5 0 1.1-.1 1.6-.1s1.1-.1 1.6-.1c.6 0 1.2 0 1.8-.1 1.2 0 2.4-.1 3.6-.1 7.6-.1 15.6.2 23.9 1.3 8.3 1.1 16.8 2.9 25.1 5.8 16.7 5.7 32.3 15.9 43.2 29 2.5 3 3.5 4.5 3.7 4.9.2.4-.3-.3-1.2-1.5-1.9-2.3-5.4-6.3-6.5-7.3-3-3-6.1-5.8-9.2-8.2-3.2-2.5-6.4-4.7-9.8-6.7-1.6-1-3.4-1.9-5-2.9-1.7-.9-3.4-1.8-5.1-2.5-1.7-.8-3.6-1.6-5.4-2.4l-2.4-.9-1.4-.5-1.3-.5c-14.2-4.9-29-7-44.7-6.9 3.7.3 10.8.6 15.6 1-13.1-1-27.5-.5-41.8 1.3-14.3 1.8-28.5 5.1-41 9.4.8-.8 2.5-1 5.4-2.1-9.8 2.5-16.9 5.9-27.9 10.7.8-.2 1.7-.5 2.6-.8.5-.2.9-.4 1.4-.6.5-.2 1.1-.5 1.7-.8 1-.5 2.2-1 3.4-1.6 1.3-.6 2.8-1.1 4.4-1.7 1.1-.4 2.6-1 2.8-.8-.9.3-1.8.6-2.7 1-1.4.6-2.8 1.2-4.3 1.8-1.4.6-2.7 1.2-4.1 1.9-2.8 1.3-5.6 2.7-8.4 4.1-5.6 2.9-11 6.3-16.2 10.2-1.3 1-2.5 2-3.8 3-.6.5-1.2 1-1.8 1.6l-.9.9-.5.4-.4.4-1.6 1.6L137 55c-1.1 1.2-2.1 2.4-3.1 3.6-3.9 4.9-7.1 10.2-9.5 15.4 1.9-3.8 4.2-7.6 7-11.3l2.1-2.7c.7-.9 1.5-1.8 2.3-2.7.8-.9 1.6-1.8 2.4-2.6l.6-.6.3-.3.2-.2.3-.2 1.2-1.1c7.1-6.7 15.2-12.1 23.6-16.9-.3.3-.7.7.2.3 14.9-7.5 29.8-12.6 44.1-16.2-9.6 2.6-19.2 5.7-28.8 9.7-9.4 3.9-19.2 8.5-28.4 15 4.7-2.9 9.5-5.7 14.8-8.4 2.7-1.3 5.3-2.6 8.3-3.9 1.4-.6 2.7-1.2 4.3-1.8 1.5-.6 3.1-1.2 4.7-1.7 1.5-.4 1.2-.7 1.2-1 9-2.7 18.2-5.6 27.1-7.5 8.4-1.8 16.8-3.2 25.2-3.9 4.2-.4 8.4-.6 12.5-.8 4.3-.1 8.4-.1 12.6 0 16.7.7 33.8 3.9 49.8 11.5 7.9 3.8 15.6 8.6 22.5 14.7 3.4 3 6.7 6.4 9.7 10l1.1 1.4 1.1 1.4c.7 1 1.4 1.9 2.1 2.9l1 1.5.3.4.1.2.3.5.4.7c.5.9 1.1 1.8 1.6 2.7.3.4.6 1 .9 1.6l.9 1.7c.6 1.2 1.2 2.3 1.6 3.4.5 1.1 1 2.2 1.4 3.4.4 1.1.8 2.3 1.2 3.5.2.6.4 1.2.6 1.7l.5 1.8c.3 1.2.7 2.4 1 3.6.6 2.4 1.1 4.8 1.5 7.3.5 2.4.7 4.9 1 7.4.2 2.5.4 5 .4 7.5.1 5-.2 10.1-.7 15.2-.2 1.7-.4 3.3-.8 5.1-.2.9-.3 1.8-.5 2.8-.2 1-.4 2.1-.6 3.2-.3 1.8-.9 3.6-1.5 5.4l-.4 1.4v.1l-.1.2-.1.2-.1.3-.2.6c-.3.8-.6 1.6-.8 2.5l-.2.8-.3.9c-.2.6-.4 1.2-.6 1.7-.4 1.2-.7 2.4-1.1 3.5-.4 1.1-.8 2.2-1.2 3.4-.4 1.1-.8 2.2-1.2 3.2-.8 2.1-1.8 4.1-2.7 6-1 1.8-2 3.6-3.1 5-.6 1.2-1.6 3.1-2.4 4.4-.8 1.3-1.2 1.9-.6.6 2.6-5.2 5-10.2 7.2-15 1-2.4 2.1-4.8 2.9-7.1.9-2.2 1.7-4.7 2.4-6.9l.9-3.2.2-.8.1-.2.1-.4.1-.4.4-1.8c.6-2.3 1.1-4.7 1.6-7 .8-4.7 1.6-9.5 1.8-14.2.3-4.8.4-9.5 0-14.3-.1-2.4-.4-4.7-.7-7.1-.2-1.2-.4-2.3-.6-3.5-.2-1.2-.4-2.3-.7-3.5-.3-1.2-.5-2.3-.8-3.5-.3-1.1-.6-2.3-1-3.4-.2-.6-.3-1.1-.5-1.7l-.6-1.7-1.2-3.3c-.9-2.2-1.7-4.3-2.9-6.6l-.8-1.7c-.3-.5-.6-1.2-.8-1.6-.5-.9-1.1-1.8-1.6-2.7l-.4-.7-.4-.6-.2-.4-1-1.5c-.6-1-1.3-1.9-2-2.8l-2.1-2.7c-.7-.9-1.4-1.8-2.2-2.6-3-3.4-6.2-6.5-9.6-9.3 5.7 5 10.9 10.7 15.3 17.2l.8 1.2.4.6.2.3.1.2.1.1.2.3 1.3 2.2.7 1.1.3.6.3.7 1.4 2.7.3 1.5c.2.5.4.9.6 1.3l1.1 2.7c.8 1.8 1.3 3.6 2 5.4 4.8 14.5 5.6 29.4 3.8 42.7-.8 6.2-2.1 12.9-4.1 19.4-.5 1.5-.9 2.9-1.4 4.6-.6 1.6-1.1 3.2-1.7 4.7-1.1 3-2.3 5.7-3.4 8.2-5.3 11.4-11.8 22.1-18.7 32.3-3.5 5.1-7.1 10.1-10.8 15l-2.8 3.7-2.8 3.6c-1.9 2.4-3.8 4.9-5.8 7.2-15.5 19-32.6 36.9-51.3 52.7 1.8-2.4 3.5-3.8 4.4-4.8zM242.5 12.8c-1.7.1-7.8.2-10.2 1.2 1.7-.3 6.4-.8 9.6-1 1.6-.1 2.8-.2 3.1-.2h-2.5zM196.6 21c2.3-.3 6.2-1.3 10.2-2.3l10.4-2.6c-7.6 1.3-13 2.9-20.6 4.9zm-52.1 28.4c-.7.6-1.4 1.1-2.1 1.8l-1.1.9c-.4.3-.6.6-.9.8.2-.1 2.8-2.3 5.1-4.1 2.3-1.9 4.7-3.7 4.9-4.1-3.2 2.2-4.8 3.5-5.9 4.7zm177.2 149.7c.1.9 3.5-4 3.5-4.4-1.7 2-1.4 1.6-3.5 4.4zM154.9 154c-.1.5 1.1 1 1.5 1.4 1 .2 2 .3 3 .4.2-.5 2.2-.3 3.7-.5.2.4 1.2.7 0 1.1 1.4-.5 3.4-1.2 1.9-1.6 1.2.3 1.4-.2 2.4-.4-.4-.1-2.2 0-3.4.1-1.2 0-1.8.2.4.4-2.1-.2-3.6-.2-5-.2-1.4-.1-2.8-.2-4.5-.7zm28.4-3.5c.9-1.2 3.8-2.7 5.9-4.5.3-.2.6-.5.8-.6.2-.2.4-.4.6-.5l.4-.4.4-.4c.1-.1.2-.3.4-.4l.2-.2-.2.2.1-.1c.5-.8.7-1.4.4-1.7-.3.5-.5.8-.7 1-.1.1-.2.2-.2.3l.2-.2-.1.1-.2.2c-.4.4-1.1 1-1.7 1.3.4.3.3.6-.2 1s-1.1.7-1.2 1.2c-.6.4-.6 0-1.1.3-.6.6-.9.9-1.3 1.2-.4.3-1 .7-2.3 1.1-.2 1.1-3.5 1.6-5.7 2.7l.1.3c.4-.1.7-.2.6 0 1.5-.6 1.9-1.2 3.7-1.9-.1.1 1.3-.6 1.1 0zm-7.1.7c-1.2.4-3.3.8-4.8 1.1-.2 0-.4.1-.6.1h-.1.1-.1c-.1 0-.2 0-.3.1-.4.1-.7.2-.9.2-.5.2-.5.3-.3.4.3-.1.7-.1 1-.2.2 0 .4-.1.5-.1h.1l.2-.1c.7-.1 1.4-.3 2-.4 1.5-.2 2.7-.6 3.2-1.1zm6.8-2.7c-.5.1-1.6.5-2.6 1-1 .4-1.9.9-1.9 1.2 1.2-.7 4.5-1.5 4.5-2.2zm13.4-18.4v-.1c0-.1-.1.3 0 .1v-.2-.3c0-.2 0-.3-.1-.4-.1-.2-.2-.3-.3-.2-.1 0-.3.2-.3.4 0 .1-.1.2-.1.4V130.1s.1-.4 0-.2v.1c-.1 0-.2.1-.3.2-.1.1-.1.2-.1.4s-.1.5-.1.6c.2.1.4 0 .6-.4.2-.5.4-.8.7-.7zm-2.2 7.6c.3-.5.6-1 .8-.7.6-1.3.8-2.3.9-3.2.1-.5.1-.9.2-1.4 0-.2.1-.5.1-.7v-.3c0-.2.1-.4.1-.5-.1 0-.2.1-.3.2-.1 0-.1.1-.2.1s-.1.1-.1.1l-.3.3c-.1.1-.2.2-.3.5.3.9.5 2.7-.7 3.7.3.2.4.5.2 1.2-.2-.2-.6.5-.4.7zM318.7 27.4c-1.7-.7-3.4-1.4-5.1-2.3-.9-.4-1.7-.8-2.6-1.2-.4-.2-.9-.4-1.3-.6l-1.4-.6-1.4-.6c-.5-.2-1-.4-1.4-.6l-2.5-1-.5-.2-.3-.1-.7-.2-1.4-.5c-.9-.3-1.9-.6-2.8-.9.8.1 2.2.4 3.9 1 .4.1.9.3 1.4.4l1.5.6c.4.2.9.3 1.4.5.2.1.5.2.7.3.3.1.6.2.8.4 1.1.5 2.3 1 3.3 1.5 1.1.5 2.1 1 3.1 1.5 2 1 3.8 1.9 5.3 2.6zm-191.8 86.3c-.4.9-.5.1-.5-1.4.1-1.4.2-3.3.2-4.5.1.4 0 1.5.4 1.3-.1 1.5-.8 4.1-.1 4.6zm4.5 20.5c.3.8.9 1.8 1.5 2.8.6 1 1.1 2 1.1 2.9-.8-1.3-1.3-2.2-1.7-2.9-.4-.7-.7-1.1-1.1-1.3-.1-.4-.1-.7-.2-1.1-.1-.4-.3-1-.7-1.9.2.3.4.6.6 1 .2.3.5.5.7.6.2.5-.1.2-.2-.1zm.2-1.4c-.3-.1-.6-.9-.9-1 .1-1.1-.2-1.3-.8-3.1.4.1.5.7.7 1.5.2.8.5 1.8 1 2.6z"/><path class="st0" d="M245.6 182.5c-.1.9.2-.4.2-1 .1-.8.3-1.8.1-2 0 .8-.2 2.1-.3 3zm3.1-16.8c.1-.8.2-2.6.8-3.1-.3 1-.6 2.4-.8 3.1zm-.4 2c0-1.1.5-1.5 0 0zm2.6-10.3c0 .1-.1.1-.1.1-.3 1.7-.4-.1.1-.1zm.1-.7c-.2-.3.5-1.3.3-1.6.3-.2-.3 1.4-.3 1.6zm1.3-7.2c.3.2-.3 1.1-.3 1.6-.4.5.4-1.3.3-1.6zm-9.2 41.5c-.2-1.2.2-1.6 0 0zm-.2 4.1c-.3-1.4.1-1.6 0 0zm-2.1 5c-.3-1.1.1-3.1 0-5.5.2 1.1-.1 3.8 0 5.5zm9-54.8c0-.1-.1-.2-.3-.2l.2-.7c.5.2 0 .5.1.9zm-.9-.9c-.2-.3.3-1.1.3-1.5.3.5-.2.8-.3 1.5zm6.3-17.2c.2.1-.1.4-.2.6-.1-.1-.1-.3-.3-.4.2-.4.4-.1.5-.2zm-.3.8c-.1.1-.2.2-.2.3-.3 0-.1-.3-.2-.4.1-.1.4-.1.4.1zm-3.6 8.7c-.1-.3.1-1 .1-1.5 0 .2 0 .5.2.6-.2.4 0 .7-.3.9zm4-10c0-.1-.1-.2-.2-.2.4-.1.2-1.7.8-1.2-.6.2-.2 1.1-.6 1.4zm-3.5 8.6c-.1-.2 0-.5.2-.9.1.2-.1.8-.2.9zm1.2-4.6c-.1.5-.4 0-.7 0 .2-.3.7-.2.7 0zm2.8-8.3c.1-.2.5-1.1.2-1.2.3-.1.3-.2.3-.5.3 0 .1.3.2.4-.4.4-.1 1.4-.7 1.3zm-.2.9c-.1.1-.2 0-.3.2-.1-.2.2-.7.1-.9.3-.2.3.5 0 .7h.2zm1.1-2.8l-.2-.1c.1-.2.2-.6.4-.4-.1.2 0 .3-.2.5zm.4-2.1c.2-.2.3.7 0 .8-.2-.1.1-.6 0-.8zm-.1.5c0 .1-.1.1-.1.1 0 .2.4.5.1.7-.2-.1.1-.5-.3-.5 0-.3.1-.4.3-.3zm.9-2c-.2.1-.1.5-.4.9-.1-.5.1-.9 0-1.2.3-.3.4.1.4.3zm1.7-8.1c-.1.2-.5 0-.3-.3.1.1 0 .1.1.2.4-.4-.2-.3 0-.7.2.4.1-.3.4-.6.1.5-.1 1-.2 1.4zm-17.7 99.7c-.2 1.1.4 3.6.1 5.1-.1-1.8-.3-2.8-.5-4.8-.2 0 0 .5 0 .7-.6-5.9-.5-9.8-.3-14.8 0-.4-.3-.2-.3-.4l.2-2.5c.4.2.5-.3.7-.6.1-.3-.4.1-.3-.3-.2 0-.2.3-.2.6 0-3.3.6-8.2 1.3-12.8-.2-.1.2-.7-.2-.6.9-1.7.6-3.4 1.2-5.3-.3.2.1-.4-.1-.9.1-.3.1-.1.2-.1.7-3.4 1.5-7 2.3-10.2.8-3.3 1.5-6.2 2.1-8.7.4-.9.8-1.9 1-3.3.7-2.1 1.6-4.4 1.7-6.5.2 0 .1.1.1.3.4-.9 1-2.5 1.3-3.7.1-.3-.3.1-.4-.2 0-.3.4-.7.2-.8.5-.4-.2.7.2.6.5-.7.6-1.6.6-2.4 1.6-3.4 2.6-7.8 3.6-10.4-.1-.3-.4.4-.3 0 .1-.2 0-.2-.1-.3.2-.4.2.2.5-.1.7-2.3 1.1-3.3 1.3-5 .2.4.1-.2.3-.3 0-.5-.2-1 .1-1.7.3.1-.1.8 0 1.2.7-1.6 1.3-3 1.3-5-.4 0-.2.7-.5.6.1-.9.2-1.6.7-2.3.1.1 0 .2.1.3-.1-.1.4-1.3 0-1.5.5-.4.5-1 .1-1.3.2-.3.4-.7.7-.8 0-.2-.2-.1-.1-.4-.6.3-.6.7-.9 1.6.1.3.2 0 .4.2-.3.5-.3 0-.7.4-.3.9-.1 1.1-.5 2-.5-.5.2-1.5.4-2.1-.1-.2 0-1 0-1-.1-.2.2-.2.3 0 .4-1.1 0-1.3-.2-1.6.2-.3.4-.3.6 0 .2-1 1.1-2.4.3-3 .1-.1.2 0 .3-.3-.3-.4.5-.9 0-1.3.5-.3.5-1.2.6-1.8l.4.2c.2-.7.3-1.3.4-2-.5.2-.3 1.2-.6 1.8.1-2 .6-3.7 1-5.8 0 1.4-.4 2.4-.6 3.8.3-.2.1-.6.4-.8-.1-.8.3-2.6.6-3-.3-.6.1-1.6.2-2.7.3-.3 0 .4.2.5.3.1 0-.6.4-.4-.2.5-.1.5-.5.6.4.2-.1.3.3.5-.1.3-.2.2-.3.1.2.2.4.3.1.7.5.2.6-1 .4-1.2.3-.5.6-1.2.6-1.9.1-.2.3-.2.5-.1-.2-.2.6-.8.8-.5.6-.6.5-.8 1.1-1.3.1.4.1-.1.3.4.3 0 .5-.3.7-.5.4.1.2.5.4.7.2-.5.3.3.5-.5.1.3.1.7.4.2.3 0 0 .5.2.6.3.1.5-.2.8-.1.2 0 .1.3.4.3.1 2.5-.3 5.4-1 8.3-1.1 4.5-2.4 9.4-3.9 14.1-.9 2.9-2.1 6.2-3.1 9.1-1.8 5.1-3.1 9-4.5 13.1-1.3 4.1-2.8 8.5-4.5 14.4-.2.6-.4 1.2-.5 1.8-.2.6-.3 1.3-.5 2-.4 1.3-.7 2.6-1 3.9-.7 2.6-1.3 5.3-2 7.7-.6 2.2-.1-.4 0-.9 1.1-5 2.2-9 3.5-14-.1.2-.3.7-.4 1.1-.1.5-.3.9-.3 1.3.7-4.2 2.5-9.2 3.9-13.4.2.2-.1.4-.2 1 .8-1.5.9-2.9 1.7-4.7-.6.4-.4 1.2-1 2.2-.1.2-.1.5-.3.4l.2-.5c1-4 2.6-8 3.6-11.6-1 2.5-2.3 5.4-2.9 8.6 0-.1-.1-.2-.2-.1-.9 2.7-1.8 5.2-2.5 7.6.8-3.3 2-6.6 3-10.1-.8 1.6-1.2 3.5-2.1 5.6-.1.2 0 .3.2.3-.8 1.4-1.2 3-1.7 4.4-.9 2.8-1.8 5.5-2.6 8.2-.4 1.4-.8 2.7-1.2 4.1-.3 1.3-.7 2.7-1 4-1.4 5.5-2.6 11.1-3.6 17.6-.1.5-.2 1-.3 1.8-.1.6-.4 1.2-.4 1.8-.2 1.5.1 3.2-.6 4.3 0 .4-.2 1.4-.2.9 0-1.9.4-3.7.6-5.1.7-6.2 2.1-12.1 3.3-17.6-1.6 4.6-2.1 9.6-2.9 13.8-.4 2-.7 4.4-1 6.2-.8 4.1-1 8.3-1.1 12.5-.1 4.2.1 8.4 0 12.5-.7-.1-.7-.5-.8-.7zm11.1-58.4c.1-.3.5-1.2.4-1.7-.1.7-.9 3.1-.4 1.7zm2.3-7.4c-.6.6-1 2.5-1.1 3.3.5-1.1.6-2.1 1.1-3.3zm2.2-9.8l.3-.8c-.2.1-.9 1.7-.7 2l.4-1.2zM241 192.8c.3.1.3-.9.2-1-.1.5-.1.4-.2 1zm18.9-83.5c.2.1.4-.1.6-.1l.3-.6c-.2-.1-.1-.5 0-.8.2 0 .4-.1.5.2-.1-.4-.3-.9-.6-.7.3-.2 0-.3 0-.5-.1.1-.6 1.4-.1.6-.4.8-.3 1.3-.7 1.9zm2-5.6c-.5-.8 1-2.8.3-3.1-.1.6-.1.5-.4.9.5.1-.1.5.1.7-.1.1-.2 0-.3.2 0 .4.2.5-.2 1 .3.3-.3.8-.2 1.4l.2.1c0-.1.1-.1.1-.1.1-.3-.1-.5 0-.9.1-.1.2-.4.4-.2zm-1.3 1c-.2.5-.6 1.6-.2 1.5.1-.4.4-1.1.2-1.5zm.5-1.6c-.2.2-.5 1-.2 1.1-.1-.2.4-.9.2-1.1zm1.9-5.6c.2-.5-.4-.5-.3-.1-.1 0-.2-.1-.3.2.2 0 .4-.2.6-.1zm-.7 1.9c.1-.1.1-.3.3-.2.3-.7.1-1 .3-1.6-.2 0-.4 0-.6.2.1.3.3.8-.2 1 .1.1.2.2.2.4.1-.1 0 .1 0 .2zm-12.7 62.8c-.2-1.2.5-2.3.7-3.5.2.6-.6 2.5-.7 3.5zm6.9-42.6c.6-.1-.2.7-.2 1.1-.1-.1 0-.3-.1-.3.1-.2.5-.6.3-.8zm1.4-3.9c.2-.3 0-1 .6-1.1-.2.6-.3.8-.1 1.1-.2.1-.3.1-.4.5-.1-.2-.1-.4-.1-.5 0-.1 0 0 0 0zm-.5.1c.1.1 0 .3.1.3-.3.1-.3.2-.3.5-.2-.1.2-.4.2-.8zM223.9 154.1c-.1.8.2-.3.3-.8.1-.6.3-1.4.1-1.6-.2.6-.4 1.6-.4 2.4zm2.8-13.6c.1-.7.1-2.1.6-2.6-.2.9-.4 2-.6 2.6zm-.3 1.6c-.1-.9.4-1.2 0 0zm2-8.5c0 .1-.1.1-.1.1-.2 1.4-.5-.2.1-.1zm-.1-.6c-.2-.3.4-1 .2-1.3.3-.2-.1 1.1-.2 1.3zm.5-6c.4.2-.1.9-.1 1.3-.3.4.3-1.1.1-1.3zm-7.6 33.7c-.2-1 .3-1.3 0 0zm-.4 3.2c-.2-1.1.2-1.3 0 0zm-2.3 3.8c-.3-.9.2-2.5.3-4.3.1.8-.3 2.9-.3 4.3zm7.4-44.1c-.1-.1-.2-.2-.3-.2l.1-.6c.4.2 0 .4.2.8zm-1-.7c-.3-.2.1-.9 0-1.2.4.4 0 .7 0 1.2zm2.5-14.4c.2 0 0 .4 0 .5-.2-.1-.2-.2-.4-.3.1-.3.4-.1.4-.2zm0 .7c-.1.1-.1.1-.1.3-.2 0-.1-.2-.3-.3.1-.1.3-.2.4 0zm-1.5 7.4c-.1-.3 0-.8-.2-1.3.1.2.1.4.4.5-.2.3 0 .6-.2.8zm1.5-8.5c-.1-.1-.1-.1-.2-.1.4-.1-.3-1.4.4-1-.5.2.2.8-.2 1.1zm-1.4 7.3c-.1-.2-.1-.4 0-.7.2.1.2.6 0 .7zm.3-3.8c0 .4-.4 0-.6.1 0-.3.5-.2.6-.1zm.4-6.9c.1-.2.2-.9-.1-1 .2-.1.2-.2.2-.5.2 0 .2.2.3.2-.3.5.2 1.2-.4 1.3zm.1.7c0 .1-.2 0-.2.2-.2-.1 0-.6-.2-.7.2-.2.4.3.2.5h.2zm.3-2.3h-.3c0-.2 0-.5.2-.4 0 .1.1.2.1.4zm-.4-1.7c.1-.2.5.5.3.6-.3-.1-.2-.5-.3-.6zm0 .3c.1.1 0 .1 0 0 0 .3.5.4.2.6-.2 0 0-.4-.4-.3 0-.2.1-.3.2-.3zm.3-1.7c-.2.1 0 .4-.1.8-.3-.3-.2-.7-.4-.9.1-.3.4 0 .5.1zm-1.4-6.3c0 .2-.5.2-.4-.1.1 0 .1.1.2.1.2-.4-.3-.1-.3-.5.4.2 0-.2.1-.6.3.4.3.8.4 1.1zm-6.5 80.7c-.2.9.2 2.9-.2 4 0-1.5-.1-2.3-.1-3.8-.2 0 0 .4-.1.6-.2-4.7.1-7.8.5-11.8 0-.3-.3-.2-.3-.3l.3-2c.4.2.5-.2.7-.4.1-.3-.4 0-.3-.2-.2 0-.2.2-.2.5.2-2.6.8-6.5 1.5-10.2-.2-.1.2-.6-.2-.5.9-1.3.6-2.7 1.1-4.2-.3.1.1-.3-.1-.7.1-.2.1-.1.2-.1 1.2-5.5 2.6-11.4 3.1-15.3.4-.7.6-1.6.6-2.7.4-1.7 1-3.6.8-5.4.2 0 .1.1.1.2.3-.8.6-2.1.6-3.1 0-.2-.2.1-.4-.1 0-.2.2-.6.1-.7.4-.4-.1.6.3.5.3-.6.3-1.3.2-2 .9-2.9.9-6.6 1.1-8.8-.2-.2-.2.4-.3.1.1-.2 0-.2-.1-.2.1-.4.3.1.5-.1 0-1.9.1-2.8-.1-4.1.3.3 0-.2.2-.3-.2-.4-.5-.7-.5-1.3.3 0 .1.6.3.9.1-1.4.3-2.6-.4-4.1-.4.1.1.6-.3.6-.3-.7-.4-1.2-.1-1.9.1 0 0 .2.2.2-.1 0-.1-1.1-.6-1.1.3-.5.1-.9-.4-1 .1-.3.1-.7.4-.8-.1-.1-.2 0-.3-.3-.4.4-.3.6-.2 1.4.2.2.2-.1.4 0-.1.4-.3.1-.5.5.1.8.4.8.3 1.6-.6-.2-.4-1.1-.4-1.7-.2-.2-.4-.7-.4-.7-.2-.1.1-.2.3-.1-.1-.9-.5-.9-.8-1.1.1-.3.3-.3.5-.2-.2-.8 0-2-1-2.2.1-.1.2-.1.2-.3-.4-.2.1-.8-.5-.9.4-.4-.1-1-.2-1.4h.4c-.1-.6-.3-1-.5-1.5-.4.3.3.9.3 1.4-.4-.7-.7-1.3-1-2-.3-.7-.5-1.4-.9-2 .6.8.8 1.6 1.3 2.6.2-.2-.2-.4 0-.6-.5-.5-.9-1.7-.8-2.1-.5-.2-.7-1-1.1-1.6.1-.3.2.2.4.2.3-.1-.3-.4.1-.4.1.4.2.4-.1.5.4-.1.1.2.5.2.1.2-.1.2-.2.2.2 0 .5 0 .4.4.5-.1.1-.8-.2-.8 0-.4 0-1-.4-1.4 0-.2.2-.2.4-.3-.3 0 .1-.8.4-.7.2-.7 0-.8.2-1.3.3.3.1-.1.5.1.2-.1.2-.4.3-.7.4-.1.4.3.7.3-.1-.4.4.1.2-.5.2.1.4.4.4-.1.3-.1.3.3.5.3.3-.1.3-.4.6-.4.2-.1.2.1.4 0 .7.8 1.4 1.7 2 2.6.5 1 1.1 2.1 1.5 3.3 1.2 3.6 2.1 7.8 2.5 12 .1 1.3.1 2.6.2 4 0 1.4 0 2.8-.1 4.1-.3 4.5-.6 8-1.1 11.6-.5 3.6-1.2 7.4-2.2 12.4-.8 4-1.7 8.9-2.8 12.8-.5 1.8-.1-.3 0-.7.8-4.1 1.7-7.4 2.4-11.7-.2.5-.5 1.4-.5 2 .3-3.5 1.4-7.8 2.1-11.4.2.2 0 .4 0 .8.6-1.3.4-2.5.8-4.1-.5.4-.2 1.1-.5 2 0 .2 0 .4-.2.4l.1-.4c.3-3.4 1-7 1-10.1-.3 2.3-.9 4.8-.9 7.5-.1-.1-.1-.2-.2 0-.3 2.3-.8 4.5-1.1 6.5.2-2.8.8-5.6 1.1-8.7-.5 1.4-.4 3.1-.9 4.9-.1.2.1.2.2.3-.5 1.2-.7 2.6-1 3.8-2 9.4-3.9 17.5-6 27.8-.1.4-.2.8-.3 1.4-.1.5-.4.9-.5 1.4-.2 1.2 0 2.6-.7 3.4 0 .3-.2 1.1-.2.7 0-1.6.5-2.9.6-4.1.8-5 2.1-9.7 3-14.1-1.3 3.7-1.7 7.8-2.5 11.2-.4 1.6-.7 3.5-1.1 4.9-1.7 6.5-1.5 13.2-2.2 19.8-.8-.6-.7-.9-.8-1.1zm10.5-46.9c.1-.2.4-1 .2-1.4 0 .5-.5 2.5-.2 1.4zm1.3-6.3c-.5.5-.6 2.2-.6 2.9.3-1.1.3-1.9.6-2.9zm.1-8.4l.1-.7c-.1.1-.5 1.6-.2 1.7.1-.5.2-.8.1-1zm-11.9 49.1c.3.1.3-.7.2-.8-.2.4-.2.4-.2.8zm7-67.9c.3 0 .3-.2.5-.3v-.5c-.3 0-.3-.3-.4-.6.2 0 .4-.2.5 0-.3-.2-.6-.5-.8-.3.2-.2-.1-.2-.2-.4-.1.1 0 1.1.2.5 0 .7.3 1 .2 1.6zm-.6-4.6c-.4-.2-.5-.7-.6-1.2-.1-.5-.2-.9-.6-.9.2.4.2.3.1.7.5-.1.1.3.5.4 0 .1-.2.1-.2.2.1.3.3.2.2.7.4.1.1.6.4 1h.2c0-.1 0-.1.1-.1-.1-.3-.3-.3-.4-.6.1 0 .1-.2.3-.2zm-.6 1.2c.1.4.2 1.3.5 1.1-.2-.4-.2-.9-.5-1.1zm-.4-1.2c-.1.2 0 .8.3.8-.1-.2 0-.8-.3-.8zm-.8-4.4c0-.4-.6-.2-.3 0-.1 0-.2.1-.2.2.2.1.2-.2.5-.2zm.3 1.5c0-.1 0-.2.2-.2 0-.5-.4-.7-.5-1.1-.2.1-.4.1-.4.3.3.1.6.4.3.7.2 0 .3 0 .4.1-.1 0-.1.1 0 .2zm3.4 51.1c-.2-1 .4-1.9.5-2.9.2.5-.5 2.1-.5 2.9zm-.9-35.2c.5-.2.1.5.2.9-.1-.1-.1-.2-.2-.2 0-.2.3-.6 0-.7zm0-3.2c.1-.3-.4-.8.2-1 0 .5 0 .7.3.8-.1.1-.3.2-.2.5-.1-.1-.2-.3-.3-.3 0-.1.1-.1 0 0zm-.3.2c.1 0 .1.2.2.2-.2.1-.2.2-.1.5-.3-.1 0-.4-.1-.7zM366.4 300.1c3.3-.9-1.6-.3-3.8-.2-2.9.3-6.2.5-7 1.7 2.9-.2 7.7-.7 10.8-1.5zm-60.3 4.3c-3 .4-9.1 2.4-11.5-.1 3.8.2 9-.2 11.5.1zm7.3-.5c-4.1 1.5-5.7-.6 0 0zm-38.1.3c.4-.1.4.2.4.5 6.3-.8-.1 2.9-.4-.5zm-2.6.9c-1 1.5-4.7-.7-5.6.8-1.1-1.8 5.1-1 5.6-.8zm-25.9 4.1c.5-2.2 4-.2 5.7-.6 1.9 1.2-4.8-.4-5.7.6zm151.3-3.7c-3.8 2.2-5.7.3 0 0zm14.2-2.5c-4.4 2.4-5.7.4 0 0zm19.9 7.5c-1.7 1.4-4.4 2-7.7 2.5s-7.2.9-11.2 2.1c1.8-.9 5.1-1.7 8.6-2.4 3.6-.6 7.4-1.4 10.3-2.2zm-198.7 19.8c-.4.4-.6 1.1-.6 2.1l-2.7-.3c.6-2.6 1.8-.5 3.3-1.8zm-2.4 6.6c-.8 1.8-4 .3-5.5 1.1 1.3-2.5 2.9-.4 5.5-1.1zm-66.4-5.4c.1-1.1 1.6 0 2.3-.2-.3 1-1.1 1.2-1.3 2.5-1.3-.6-.5-1.9-1-2.3zm3.2-.1c.3.3.6.6 1.3.7.1 1.5-1 .9-1.2 2-.7-.6-.9-2-.1-2.7zm33.8 5c-1.1 1-3.6.9-5.7 2 .8-.7 1.7-1.1 2.1-2.4 1.8.7 2.8-.8 3.6.4zm-38.9-4.7c-.3.4-.6.8-.7 1.5-.5-2.4-6.5 2.2-4.7-2.3 1.2 2.8 4.4-1.3 5.4.8zm33.5 4.6c-.8.7-1.9.9-3.3.7.5-1.3 2.9-1.3 3.3-.7zm-17.4.9c1.8-.2.2 2.5.4 3.8-1.3-.3-1-3.2-.4-3.8zm-31.8-1c-.7-.5-4.2-1-4.7.8-.5-1.3-.8-1.1-2.2-.9-.1-1.5 1.1-.9 1.2-1.9 2 2 5.6-1.3 5.7 2zm3.3-.5c.5.2.1 1.1.7 1.2-.7 1-2.7-.1-3.4 1.1-1-1.4 1.7-2.3 2.5-1.2.1-.4.1-.8.2-1.1zm-10.9-1.3c-.1.5-.2 1-.3 1.6-.8-.3-2.3.1-1.6-1.3.9.1 1.1-.5 1.9-.3zm-8.1 1.8c-.8-.9 2.6-2.8 3.1-1.6-.4 1.7-2.3.8-3.1 1.6zm1.9-.2c.4 0 .4.3.4.6.9-.7 1.6-3.3 2.6-1.7-.3 1.3-2 .2-1.8 2.4-1 0-1.5-.4-1.2-1.3zm-8-2c.6 1 2-.1 3.6.7-1.8 1.7-3.4.8-4.6 2.4-1.2-1 .6-2.6 1-3.1zm-31.6 4.1c.8 0 .1 3.1-.9 1.9.2-.4.6-.4.7-.9-1.8-1.5-1.1 1.9-2.7 1 1.6-1.8-1.2-.2-2.6-1.2 2-.9 3.9-.6 5.5-.8zm366-40.2c2 0 5-1.1 8.2-2.1 3.2-1.1 6.5-2.1 9.2-1.8-3.1 1-5.5 1.8-7.9 2.7-2.4.9-4.9 1.7-8.1 3 .4 1.1 1.8-.4 2.6-.3-9.8 3.8-18.2 6.3-26.3 8.3-8.1 2.1-15.8 3.6-24.6 5.4-1.3.6-.5 1.9-.9 2.3-3 .5-6 1.1-9 1.6 0-2.7-1.7-2.4-2.7-3.3-1.2-.2.7 2.4-.5 2.2.2 1.1 1.3.9 2.3.7-11.4 3.2-28.8 5.3-45.7 7.1-.2 1.1-2.6-.1-2.1 1.7-3.4-1.6-6.5-1.4-9.6-.9-3.1.5-6.2 1.3-9.7.9 1 1.7-1.7-.2-3.1 1.7-1.1.1-.6-.4-.5-1-25.2 1.7-52 1.4-69.8 3.2-3.5-1.2-7.4-1.5-12.5-.3-7.9-.6-16.6-2.2-24.3 1.1-.1-.9.4-1 1-1-3.5-1-9.7-1.5-14.3-1-1 0 .4 1.4-.3 2.6-1 .2-2.8-1-3.2.2-1.8-2 2.6.2 2-1.9-2.8-1.6-6.1-.5-9.1.5-13.2-3.5-29.8-1.2-40-2.3-1 1.3 1.8 1.3.2 1.6-.7-.3-.9.3-1 .9-1.6-.6.4-1.5-.5-2.7-8.7.4-12.6-.5-18.9 1.2 1.4-1.8-.8-.2-1.2-1.3-2 1.1-3.4 3.1-6.4 2.6.2-1.8 3-.5 4.5-1.9-3.1-.5-6-1-9.1-1-3.1 0-6.3.6-10 2.3 0 2.3 2.9-.2 2.4 2.1-3.5 1.3-6.1 1.7-8.8-.2.2-.5 1-.2 1.1-.8-.3.9-5.1-.2-5.7 2.6-1.8-2-3.9-1.4-5.1 1.6-1.1-.9-2.9-1.3-3.1-2.9-.6.3-.2 1.3-1.7 1.2 1.2 2.8 2.7 2.2 6.5 2.6 1.1-.8-.1-1 .6-2.6 1.9.8 0 1.9 1.7 3.1 3.6.3 4.1-1.5 7.7-.6-1.7 3.5-5.6 1.5-8.3 1.5-.9.8-3.8 1.7-3.7 1.9-.9.9-.8-.7-.1-1.6-4.4-.3-5.1 2.1-6.2 4-1.2-.9-1.2-1.9-.2-3.3-4 .5-9.5-2.4-11.9 3-.4-.5-.2-1.3-1.1-1.4-1.4 2.3-3.6-1.5-5.4 1.8-1.2-2.7-5-1-7.3-.9.2-.8.5-1.7.7-2.5-2.9-.3-5.4.2-8.2.3.8 2.7 4.8 0 7.3 1.1-4.1 1-8 1.4-11.9 1.5-2 .1-4 .1-6 .1-2.1 0-4.2-.1-6.4-.1 3-.6 5.5-.7 8.1-.8 2.6-.1 5.1-.1 8.1-.3-.7-1.6-2.7.3-3.1-1.6-1.7.7-4.4 1.1-6.9 1-2.5-.1-4.7-.6-5.6-1.4-2.5 2.2-6.9.7-11.9 1.1-1.3-1.6 1.9-.6 2.2-1.4.5-1.7-2.8.6-1.5-1.7 2.3.7 2.4.2 2.5 2.1.9-2.2 1.5.1 2.4-1.9 1.1.2.6 1.1.4 1.8.8-1.2 1.7-2.8 3.1-1.1.9-2.9-4-2.7-4.9-1.3-.5-.4-1.1-.7-1.8-1-.6-.3-1.3-.5-2-.8-1.4-.5-3-.6-4.5-.4-1.1-.5-.5-1.7.1-2.8-.9 1.2-3.5-3.1-1.7-4.1-1.9-3-2.8-2.4-4.2-4.9 1.8-.7-.1-.8 1.9-2 .3-1.5-.9-2.4-1.3-3.5.7-2.2 2.2-1.3 3.2-2.6-1.7-.9 1.6-1.9-1.4-2.4 1.2-.9 2.8-1 1.1-2.4.5-1.9 2-.3 2.7-1.6.7-1.7-.2-2.7.6-4.4.4-1.2 1.2-.7 1.5-2.2 2.5-.7 5.1-1.2 7.7-1.5 2.7-.4 5.4-.7 8-.9 5.3-.5 10.8-.5 16.2-.3 16.8.7 34.5.3 52.2.7 10.7.2 23 .8 34.2 1.5 4.8.3 9.3.5 13.6.7 4.4.2 8.6.4 12.6.6 8 .3 15.6.5 23.5.8 15.6.4 32 1 54.1 1.4 17.7.3 38.9-1.4 56.5-.7 8.1.4-1.3 1-3 1.1-9 .5-17.2.6-25.5.7-8.3.1-16.7.2-26 .7 2.1.8 6.3 1 9 .6-15.3 2.5-34.2.5-50.1-.1.8-1.4 1.6-.3 3.6-.7-5.8-2.1-10.8-.1-17.9-1.5 1.6 2.5 4.7.3 8.6 1.6.7.1 1.7-.1 1.7.7l-1.7-.2c-7.5.5-15 .2-22.5 0-3.7-.1-7.3-.3-10.9-.3h-5.4c-.9 0-1.8.1-2.7.1-.4 0-.9 0-1.3.1h-1.1c4.7.6 10.3 1.5 15.7 1.9 5.4.4 11.2.5 17.1-.5-.3.4-.6.9-.1 1 10.1.5 19.6 1.1 28.6 1.1-12.2 1.2-24.7.2-38.1.3 6.2 2.1 13.4.7 21.5 2.1.9.4.9-.7 1.1-1.5 5.6 2.1 11.4 1.9 17 2.3 21 1.4 40.6 1.7 60.7 1.3 10.1-.2 20.3-.6 30.8-1.1 1.3-.1 2.6-.1 4-.2l1-.1H325.9c.7 0 1.4-.1 2.1-.1 2.8-.2 5.6-.4 8.5-.5l8.1-.6c2.8-.2 5.6-.5 8.5-.7 1.9-.1 3.8-.1 6.4-.5 2-.4 4.4.7 6.5.5 2.7-.3 5.4-1.3 8-1.9 2.6-.6 5.1-.8 7.3.7 1.5-.5 5.1-.5 3.4.1-3.3 1.2-6.5 1.6-9.6 1.9-3.1.2-6 .3-8.6.7-5.5.8-11 1.4-16.4 1.8-1.4.1-2.7.2-4.1.3-1.3.1-2.7.2-4 .3-1.3.1-2.6.2-3.9.2l-2 .1-2.1.1c-2.8.1-5.5.3-8.3.4-2.6.1-5.1.2-7.6.3-2.6.1-5.2.2-7.7.3-2.5.1-5.1.3-7.5.4 4.3.6 8.6.7 13 .7 2.2 0 4.3-.1 6.5-.3 1.1-.1 2.2-.1 3.2-.2s2.1-.2 3.1-.3l6.6-.6c2.1-.2 4.1-.4 6.1-.6 4-.3 8-.7 11.8-.8 3.6-.1 7.5-.5 11.4-.8 3.9-.4 7.6-.7 10.9-.8 14.8-.2 29.5-3.1 43.9-6.5 14.5-3.4 28.6-7.3 43.2-9.6-.9 1.5-2.3 1.8-2.9 2.4zm-211.2 6.2c-1-.1-4.5-1.2-6.1.6 2.1-.5 11.1.2 6.1-.6zm-27.8-1c1.2 1.2 3.6 1.6 6.1 1.6 2.5 0 5-.5 6.5-.9-4.5-.7-8 .2-12.6-.7zm-36.4 5.1l-3-.4c.4.8 6.7 2 7.5.5-2.4-.3-3.6-.4-4.5-.1zm222.5 7.6c.1-1.8-3.4-.7-3.5.1 1.6 0 1.4.1 3.5-.1zm-311 19.6c.4-1.6-.5-2.2-.6-3.4l-2.3-.5c-.5 1.6-2 1.2-3.2 1.4.2-1.2-.4-2.3.8-3.1-1.4 1.4-3.3 2.8-2.5 4.2-.6-1.3-1.2.3-2.1.6.4.6 5.5 1.4 2.5-.4 2.9 1.7 4.8-.2 7.4 1.2zm-22.6-2.7c-3.4 4-11.3-2-12.9 2.6 2.4-.2 2-.2 3.7 1.2.7-3.2 1.9-.1 3.1-1.8.6.2.2 1 .6 1.3 1.7-.3 1.9-1.5 4 .1 1.2-2.3 3.3.4 5.6-.6l.3-1c-.3-.1-.5-.2-.3-.6-1.4.1-2.2 1.4-3.8 1.1.3-1-1.1-1-.3-2.3zm4.3 5.6c2.1.3 6.6 1 6.2-1.1-2 .6-4.7-.3-6.2 1.1zm-6.4-.2c.7.9 3.9 1.4 4.6-.3-1.3.6-3.8-1.3-4.6.3zm-23.3-4.2c-1.9-.9-2.5 2.9-.7 2-.2.6-.3 1.2.6 1.3.6-1.4-.6-1.9.1-3.3zm7.8 1.6c-.5-.2-1.1-.5-.6-1.3-2.7-1-4.2.6-6.7-.1-.3 1.2-.3 2.3.5 3 1.3-1.1 3.6-2.6 4.3-.2.4-.9.9-1.6 1.6-1.7-.2.5.6.9.9.3zm237.7-31.3c-2 1.4-4.1 1.5-6.3 1.4-2.2-.1-4.4-.5-6.6-.2.9-1 3.2-.9 5.8-.8 2.5.1 5.3.3 7.1-.4zm-157.1 33.4c-.8-2.9 2.6-.3 4.3-.9-.4.5-1.1.4-1.2 1.4-.8-.5-2.4-2.4-3.1-.5zm-15.1-1.2c-1.1-.7-3.9 1.8-4.4-1.4 2.2.1 3.1.2 4-1.4.4.7.5 1.6 2 1.5-.6.6-1.4.8-1.7 1.8-.5-.1-.2-.5.1-.5zm.5 2.3c.3-.6.9-.7 1.2-1.4.5 1.3.8 1.2 2.2.9-.6 2-1.8-.2-3.4.5z"/><path class="st1 st0" d="M259.9 469.6c2.8.4-1.3-.3-3.1-.6-2.5-.4-5.5-1.1-6.3-1.1 1.3.3 3 .6 4.7 1 1.7.4 3.3.5 4.7.7zM210.3 454c-1.2-.5-3-1.3-4.7-2.1-1.7-.8-3.3-1.7-4.2-2.4 1.5.8 3.2 1.7 4.8 2.5 1.6.8 3.1 1.5 4.1 2zm5.6 2.6c-3.3-1.2-4.4-2.1 0 0zm-28.7-15.4c.3.2.3.2.3.3 4.6 2.7-.3.5-.3-.3zm-2-1c-.8-.2-3.3-2.3-4.1-2.5-.3-.4.6.2 1.7.9s2.2 1.5 2.4 1.6zM167 428.3c.4-.1 2.7 2 3.9 2.8 1.2 1.2-3.3-2.5-3.9-2.8zm119.2 45c-3.5.2-4.9-.1 0 0zm12.4-.6c-4 .6-4.9.3 0 0zm15.5-.2c-3.3.9-9.3 1.7-16.5 2.3 3.4-.4 11.5-1.2 16.5-2.3zm-157-47.5c-.3-.1-.4-.1-.5 0l-1.7-1.5c.5-.1 1.2.9 2.2 1.5zm-1.9-.1c-.6-.1-2.6-2.1-3.6-2.8 1 .3 1.9 1.5 3.6 2.8zM128 378.6c.2 0-.1 1.4-.1 1.9-.2-.2-.2-.8-.4-.8.2-1.2.4-.7.5-1.1zm-.1 2.6c0 .3-.1.6-.1 1.1-.2.3-.2-.8-.4-.8.2-.6.4-.9.5-.3zm9.7 26.6c-.7-.6-1.9-2.2-3-3.5.4.4.9 1 1.2 1 .8 1.4 1.5 1.8 1.8 2.5zm-9.5-30.8c0-.2-.1-.4-.2-.4.2-.3.3-1.6.6-2.7.2-1.1.5-1.9.7-1.3-.2.3-.4.6-.5 1-.1.4-.2.8-.2 1.2-.1.9-.1 1.7-.4 2.2zm6.8 27.2c-.4-.4-1-1.2-1.6-2.2.4.1 1.5 1.8 1.6 2.2zm-6.4-13c.4 1.4-.3.6-.4.9-.3-1.1.2-1.3.4-.9zm3.4-26.4c.2-.3.8-1 1.4-1.7.1-.2.3-.4.4-.5.1-.2.3-.3.4-.4.2-.3.3-.5.3-.6.6-.3.7-.5 1.5-1.4.4 0-.4.7-.3.8-.4.3-.8.7-1.2 1.1-.2.2-.4.4-.5.6-.1.2-.3.4-.4.6-.7.8-1.2 1.4-1.6 1.5zm-1.3 2.4c-.2.4-.3.1-.6.6.1-.5 1.2-2.1 1.2-2.5.7-.8-.2 1.2-.8 1.9h.2zm6-7.3l-.2-.2c.6-.4 1.5-1.3 1.4-.9-.6.4-.6.6-1.2 1.1zm5.3-4.3c.4-.1.1.2-.4.6-.5.4-1.1.9-1.4 1-.2-.3 1.3-1.2 1.8-1.6zm-1.4.9c-.3.2-.3.2-.4.1-.5.5-.4 1-1.5 1.4-.1-.2 1.4-1 .8-1 .7-.5 1.1-.7 1.1-.5zm6.5-3c-.6.1-1.5.6-2.9 1.2 1-.8 2.5-1.3 3.1-1.8 1.1-.4 0 .4-.2.6zm26-2.1c-.6-.2-.5-.7.5-.2-.1 0-.4-.1-.4 0 1.5.8.6-.1 1.9.4-.5 0-.3.1.2.2.1 0 .3.1.4.1.1 0 .2 0 .2.1l.2.1h.1l.1.1c.4.2.8.4 1.1.5-.4-.1-.8-.3-1.2-.4l-.2-.1-.2-.1h-.1l-.3-.1c-.2-.1-.3-.1-.5-.2-.6 0-1.2-.2-1.8-.4zm165.7 113.2c1.6-.4 4.1-1.6 6.8-2.8 1.3-.6 2.7-1.3 3.9-1.9 1.3-.6 2.4-1.1 3.4-1.5-2.5 1.2-4.5 2.3-6.5 3.2-1 .5-2 .9-3.2 1.4-1.1.5-2.3 1.1-3.7 1.6.1.2 1.5-.5 2.1-.7-8.4 3.6-15.6 5.7-22.6 7.3-3.5.9-6.9 1.4-10.4 2-1.8.2-3.5.5-5.3.7-1.8.3-3.7.3-5.6.5-1.2.2-.7.4-1.1.4-2.6.2-5.2.2-7.8.4.4-.4-1.1-.4-1.9-.6-1-.1.3.4-.7.4.1.2.9.2 1.9.2-1.3 0-2.6 0-4 .1h-2.1c-.7 0-1.5 0-2.2-.1-1.5-.1-3.1-.1-4.7-.2s-3.3-.3-5-.4c-1.7-.1-3.4-.4-5.1-.6-1.7-.2-3.5-.4-5.2-.7-1.8-.3-3.5-.5-5.3-.9-1.8-.4-3.6-.7-5.4-1.1h-.5c-.2 0-.4-.1-.6-.2-.5-.1-.9-.2-.7 0-2.6-1-5.2-1.6-7.7-2.3-1.3-.3-2.6-.7-3.9-1-1.3-.4-2.7-.8-4-1.3.7.5-1.3-.5-2.6-.6-.9-.3-.4-.2-.3-.3-10.1-3.5-20.2-8-29.2-12.8-9-4.7-17-9.7-23.3-13.9-1.2-.9-2.4-1.9-3.8-2.9s-3-2-4.7-3.2c-1.3-1-2.7-2.1-4-3.2-1.3-1.1-2.7-2.2-4-3.3-1.4-1.1-2.7-2.2-4-3.2-.7-.5-1.3-1-2-1.5-.6-.5-1.3-.9-1.9-1.4 0-.2.3.1.7.4-2.2-2.1-6-5.6-8.7-8.2-.6-.6.2.5-.3.3-.6-.5-1.6-1.9-1.8-1.9-.9-1.5 1.4 1.6 1.3.9-1.5-2-3.3-3.8-4.9-5.6-3.2-4.6-6.3-10-7.8-15.6-.8-2.8-1.3-5.6-1.4-8.2-.1-2.6.1-5.1.5-7.1-.1-.7-.5 1.6-.3.3.2-.6.1-.7 0-.8.4-1.3.2.2.6-.6.2-.9.4-1.7.7-2.4.3-.7.6-1.4.8-2.1.1-.3.2-.6.4-.9.2-.3.3-.6.5-.8.3-.6.6-1.1.9-1.6.6-1 1.3-1.9 2-2.8.7-.8 1.5-1.7 2.3-2.7-.5.8.5-.4 1-.6.5-.6.9-1.1 1.4-1.6.6-.5 1.2-1.1 2.3-1.7.2.2-2 1.4-2.7 2.3.5-.4 1.1-.7 1.6-1.1.6-.3 1.1-.7 1.6-1 .6-.3 1.1-.6 1.7-.9.6-.3 1.1-.6 1.7-.8 1.2-.5 2.3-1.1 3.6-1.5.6-.2 1.3-.5 1.9-.8.7-.2 1.3-.4 2-.7-.5-.3-2.3.6-2.4.2 1.3-.5 2.5-.8 3.7-1.1 1.2-.2 2.4-.3 3.7-.3-.1.1-.8.1-.8.2 0 0 .3-.1.7-.2.4 0 1-.1 1.5-.1 1.1-.1 2.1-.2 2.1-.4 1.9.4 3.5.3 4-.1 1.1.3 2.7.5 3.1.9.5 0-.1-.2 1.3.1-.7-.4-1.4-.7-2.3-.8-.4-.1-1-.1-1.6-.2-.6-.1-1.3-.2-2.1-.2-.8.1.2.2 0 .4-1.7-.2-.3-.3-2-.6-1.6 0-2.4.1-3.2.2l-3.2.4c.4-.3 1.5-.6 2.8-.7 1.3 0 2.8-.1 4 0 .6-.1 3-.2 2.9-.2.6-.1.8.2.4.3 3.8.5 4 .3 4.7.1 1.2.4 1.3.6.7.7.4.1.9.2 1.4.3.4.1.8.3 1.3.4.4.1.9.3 1.3.4l.3.1.2.1.3.1c.2.1.5.2.7.3 1.9.8 3.3 1.6 4 1.5.3.3.3.4 1 1 .4.1 1.1.7 1.8 1.4.7.6 1.3 1.4 1.8 1.5.9 1.6 2.9 3.9 3.8 5.5l-.4.2c1.2 2.3 2.1 4 3 6.1 0-1.4-1.5-3.7-2.5-5.8 1.8 2.8 3 5.7 4 8.6 1 2.9 1.8 5.9 2.6 9.2-.6-2-1.1-3.8-1.6-5.7-.6-1.9-1.2-3.8-2-5.9.1 1 .8 1.9.7 2.8 1.1 2.2 2.5 7.6 2.5 9.3.7 1.2 1.2 4.7 2 7.9 0 1.3-.3-1.1-.5-1.1-.3.2.5 1.8 0 1.5-.2-1.8-.3-1.7-.1-2.3-.4 0-.2-1-.6-1.1-.1-.8 0-.7.2-.8-.3-.2-.6-.3-.6-1.9-.5.2.3 3.6.6 3.8.1 1.9.4 4.2.9 6 .1.8-.1.8-.3.8.3.2.2 3-.2 2.3 0 2.4.3 2.9.3 4.7-.4-1-.1.3-.5-.6-.1.2-.1.5-.1.9s.1.9.1 1.3c-.3.4-.6-1.1-.9-1.4.3 1.6-.5-.5.1 1.9-.3-.5-.7-1.6-.4.1-.3.3-.5-1.4-.7-1.4-.3.1-.2 1.1-.5 1.2-.2.2-.3-.6-.5-.3-2.4-6.3-3.8-14.9-5.9-23.4-.8-3.3-1.8-6.7-3.1-9.8-1.4-3.1-3.1-6.1-5.4-8.3-1.1-1.1-2.4-2.1-3.8-2.8-.4-.2-.7-.4-1-.5l-.9-.4-2.7-.9c-.5-.2-.8-.2-1.2-.3l-1.2-.2c-.7-.2-1.6-.3-2.5-.4l-1.3-.2h-1.3c-.9 0-1.7-.1-2.6 0-4.1.2-8.6 1.1-12.6 2.9-1 .4-2 1-2.9 1.5-.5.2-.9.6-1.4.9l-1.3.9c-.8.7-1.6 1.3-2.4 2l-1.1 1.1c-.4.4-.7.7-1 1.1-.3.3-.5.7-.8 1-.3.3-.5.7-.7 1l-1.2 2.1c-.3.7-.6 1.5-.9 2.2-.1.4-.2.8-.4 1.2-.2.5-.2.8-.3 1.1-.2.6-.3 1.4-.4 2.2-.1.8-.2 1.5-.2 2.2-.1 1.5 0 3 .2 4.4.4 2.9 1.2 5.8 2.2 8.5.6 1.4 1.2 2.7 1.9 4l.3.5.1.2s.1.1 0-.1v.1l.1.1.6 1.1c.4.7.8 1.2 1.2 1.8 3.4 5 7.9 9.7 13.4 14.6.7.6 1.4 1.2 2.1 1.9.3.3.7.6 1 .9.4.3.8.6 1.1 1 1.5 1.3 3.1 2.6 4.7 3.9 1.6 1.3 3.3 2.6 5 3.9 1.8 1.3 3.6 2.7 5.5 4.1 6.1 4.5 13 9 20.2 13.2 7.2 4.2 14.6 8 21.5 11.2 6.3 2.9-1.1-.3-2.4-.9-7-3.2-13.3-6.6-19.4-10.2-6.2-3.6-12.2-7.5-18.6-12 .7.6 1.8 1.4 2.9 2.2 1.1.8 2.4 1.6 3.4 2.2-2.8-1.7-5.6-3.6-8.5-5.7-2.8-2.1-5.8-4.3-8.6-6.6-5.7-4.6-11.4-9.5-16-14.1.5.2 1 .9 2.1 1.9-1.7-1.8-3.2-3.4-4.7-5.1-1.5-1.7-3.1-3.5-4.6-5.8.5 1.5 2.2 3 4.1 5.6.3.4.9 1 .9 1.1-.3-.4-.6-.7-.9-1.1-2-2.2-3.9-4.5-5.4-6.9l-.6-.9-.6-1c-.3-.5-.7-1.2-1-1.8-.6-1.3-1.2-2.6-1.7-3.9-2-5.3-2.7-10.8-2.1-15.6-.6 3.5-.5 7.6.5 11.6.5 2 1.2 4.1 2.1 6.1.5 1 1 2 1.5 2.9l.2.4.1.1v-.1l.1.2.5.8c.3.6.6 1 1 1.4-.2-.1-.3-.3-.1.1 2.1 3.3 4.6 6.4 7.3 9.1 2.7 2.8 5.5 5.4 8.3 7.9-3.9-3.2-7.6-6.7-11-10.5-1.7-1.9-3.2-3.9-4.6-6-.3-.5-.6-1-1-1.6l-.5-.9-.1-.2v-.1.1l-.1-.1-.2-.4c-.6-1.1-1.2-2.2-1.7-3.4 1.7 4.7 5 9.2 9.3 14.3.5.6.5.4.7.4 2.9 3.7 6.6 6.9 10.1 10 13.4 11.7 27.1 21.3 42.1 29.7 15 8.3 31.4 15.3 50.8 19.9l1.2.3h.2l.3.1c.2 0 .4.1.7.1.9.2 1.9.4 3 .6l2.7.6c.9.2 1.8.4 2.7.5 1.1.2 2.3.3 3.4.5 1.2.1 2.3.2 3.5.3 1.1.1 2.2.2 3.3.4 1 .1 2 .3 2.9.5 1.3.1 4.4.4 2.9.3-2.9-.1-5.7-.3-8.3-.7-1.3-.2-2.6-.3-3.8-.5-1.2-.2-2.4-.4-3.5-.6-18.9-3-36.4-9.4-51.7-16.8 12.9 6.9 27.7 11.6 40.4 14.7.4.1.7.2 1.1.3h.1l.3.1.6.1c.8.2 1.6.3 2.4.5 1.6.3 3.4.7 5 1 1.6.3 3.2.5 4.7.8 1.6.2 3 .4 4.4.6l2.3.3 2.4.2c1.6.1 3.2.3 4.7.4 3.2.1 6.4.4 9.6.3 3.2.1 6.4-.2 9.6-.3 1.6-.1 3.2-.3 4.8-.4l2.4-.2 2.4-.3c12.7-1.6 25.2-4.9 37.1-9.5-1.5 1.3-2.6 1.6-3.2 1.9zm-170.3-36.3c-.3-.3-1.1-.9-1.9-1.5-.8-.6-1.6-1.3-2.2-1.5 1.3 1 7.5 5.7 4.1 3zm-18.1-15.1c.7.9 2.1 2.3 3.7 3.7.8.7 1.6 1.4 2.3 1.9.8.6 1.4 1.1 1.9 1.5-1.5-1.3-2.7-2.3-4-3.4-1.2-1.2-2.5-2.4-3.9-3.7zm-16.8-22.3c-.2-.8-.4-1.5-.6-2.3 0 .2.2 1.5.6 2.8.4 1.3.9 2.5 1.1 2.7-.5-1.6-.8-2.5-1.1-3.2zm158.6 84.2c.4-.3-2.8-.1-3 0h3zM171.6 351.5c-.1.3.8.5 1 .9l1.8.7c.1-.1.4-.1.9.1h.2c.1 0 .2.1.3.1.1.1.3.1.4.2.3.1.5.2.8.3 0 .2.6.7-.2.5.9.1 2.3.7 1.5-.1.7.6.9.4 1.6.8-.2-.2-1.3-.9-2.1-1.3s-1.2-.5.1.3c-.6-.4-1.2-.7-1.8-.9l-.2-.1-.3-.1h-.1c-.1 0-.2-.1-.3-.1-.2-.1-.4-.1-.7-.2-.4-.1-.9-.3-1.3-.4-.2-.1-.4-.2-.7-.2-.3-.3-.6-.4-.9-.5zm16 12.1c.8.6 2 2.9 2.8 5 .8 2.1 1.4 4 1.8 3.9-.7-1.7-.5-1.4-1-3.1-.4.4-.6-1.4-1.1-1.8-.2-.5 0-.4-.1-.8-.7-1.2-.7-1-1.6-3-.3-.1-.7-.8-1.1-1.5-.5-.8-1-1.7-1.7-2.3l-.1.1c.2.2.3.4.2.4.4.5.7.8 1 1.1.3.3.6.7 1 1.3-.4-.1.2.8-.1.7zm-2.3-4.8c-.3-.4-.8-.9-1.2-1.3-.5-.5-1-.9-1.5-1.3-1-.8-1.7-1.2-1.5-.8 1.5.8 3.3 2.8 4.2 3.4zm3.3 4.7c-.1-.4-.6-1.2-1.1-2-.5-.7-1-1.3-1.2-1.3.8.8 2 3.2 2.3 3.3zm6 18.7c.2 1.6.8 1 .3-.1.1-.1.2-.1 0-.8-.1-.1 0 .9-.3.9zm-1.3-6.2c.1.5.2.9 0 .8.5 2.3.9 2.9 1.3 5 .2-.2.3-.5.2-1.2-.4-.6-.9-1.8-.8-3.1-.2 0-.3-.2-.5-.7 0-.1-.1-.8-.2-.8zm7.2 73c-3.2-1.2-6.4-3.5-9.7-5.3.7.2 2.4 1.3 4.3 2.4 1.9 1.1 4 2.3 5.4 2.9zm-62.4-91.1c1.2-.3-1.7 1.4-2.6 2.5.1-.3.6-.7.4-.7.7-.6 2.1-1.4 2.2-1.8zm11.8-5.9c1-.3 2.9-1.1 3.9-.8-1.9.4-2.7.6-3 1-.5 0-.8 0-2 .4.4-.2 1-.5 1.1-.6.4-.2.2 0 0 0zm-.9-.1c-.1.2-.6.3-.7.5-.3 0-.5 0-.8.1-.3.1-.6.2-1.1.5 0-.2.4-.3.9-.5s1.1-.3 1.7-.6z"/></svg>