<svg xmlns="http://www.w3.org/2000/svg" viewBox="0 0 500 500"><path class="st0" d="M445.2 479.6c-.8.9-1.1 1.2-1 1.3.1.1.6-.2 1.2-.6 1.3-.9 3.3-2.4 4.5-3.4 1.6-1.3 3.3-2.8 4.5-4.2 1.3-1.4 2.1-2.6 2-3.6-1.5 1.4-3.6 3.3-5.5 5.2-2 1.9-4.1 3.7-5.7 5.3zm39.6-80.6c-.2-.6-.4-1.2-.7-2-.1-.2-.2-.4-.2-.6l-.1-.3-.1-.1v-.1c-.1-1.1.1 2.5-.1-2.5v-.1l-.6-2.7c-.7-3.7-1.3-7.1-.2-9.5.3 1.6.6 3.3 1 5.1.3 1.8.6 3.6.8 5.4.1.4.1.9.2 1.3v.5c0 .9.1 1.8.1 2.7v.3c0 .4 0 .7.1 1-.1.6-.1 1.2-.2 1.6zm-.1 13.5c0-.2-.1-.4-.1-.6v-.7c0-.5-.1-1-.1-1.5v-2.4c.1-1.4.2-2.2.4-2.4.2-.2.4.2.4 1.5 0 .6 0 1.5-.1 2.5 0 .5-.1 1.1-.2 1.8 0 .3-.1.7-.2 1 .1.3 0 .5-.1.8zm-14.9-59.9c.4.4.1.7-.2.9 1.6 1.9 2.2 3 2.2 3.5s-.4.4-1 0c-1.1-.8-2.7-2.8-1-4.4zm-3.4-2.5c-1.2.1-2.2-1.5-3.1-3-1-1.5-2.1-3-3.3-2.8.3-1.4 1.9-.2 3.4 1.5s2.8 3.9 3 4.3zm-33.2-19.3c.9-1.2 2.3-.7 3.7.3 1.4 1 2.8 2.4 4.1 2.8.8 1.4-.6.4-2.5-.8-1-.6-2-1.3-3-1.8s-1.9-.7-2.3-.5zm-29.1 154.6c1.2-.9 2.3-1.4 3.1-1.6.1 0 .2-.1.3-.1h.4c.2 0 .3.1.3.1.1.1 0 .4-.3.7 0 0-.1.1-.2.1s-.2.1-.3.1c-.3.1-.5.2-.9.3-.6.1-1.4.3-2.4.4zm-16.7 3c2.5-1.3 4.1-1.4 4.3-1 .2.3-1.1 1.1-4.3 1zm-18.3-15c1.8-1.2 4.3-1.1 7.4-.8 1.5.1 3.2.2 5 .2 1.8-.1 3.7-.2 5.6-.7-.9.5-2.1.8-3.5 1.1-.7.1-1.5.2-2.3.3-.8 0-1.6.1-2.5.1h-2.6c-.8 0-1.7-.1-2.5-.1s-1.6-.1-2.4-.1h-2.2zm40.5-120.7c-.5.5-.8 1.4-1.1 2.6l-2.2-.6c1-3.2 1.6-.5 3.3-2zm-3.8 8.5c-.5 1.2-1.2 1.2-2 1.1-.7-.1-1.5-.3-2.1.2.6-1.7 1.2-1.8 1.8-1.6.3.1.6.2 1 .3.4.1.8.1 1.3 0zm-39.6 16.7c-.3-.2-.4-.4-.5-.5v-.2s0-.1.1-.1l-.1.1c.3-.2.7-.4.7-.7.9 1 .9 1.7 2.3 2.8-.1.1-.3.1-.4.1h-.1c-.1.2.2-.2.1-.2h-.2c-.3-.1-.5-.2-.8-.4-.4-.5-.8-.8-1.1-.9zm.8-2c.4 0 .9.1 1.1-.3 1.6 1.1.7 1.4 1.7 2.3-.8.1-2.4-.9-2.8-2zm19.1-11c-.1.8-.5 1.4-1 2-.4.6-.9 1.3-1.2 2.4 0-1.1.3-2-.1-3.7.6.1.9-.4 1.2-.7.4-.5.6-.7 1.1 0zm-20 14.4c.4.4.8.9 1.6 1.4-1.4-.7-1.1.7-.9 1.7.2 1 .1 1.6-2.5-.2 1.7.4 1.5-.4 1.2-1.3-.4-1-.7-2 .6-1.6zm16.9-12.7c0 .6-.1 1-.4 1.3-.2.3-.5.6-1 .7-.3-.8-.1-1.5.2-1.9.5-.3.9-.4 1.2-.1zm-7 8.6c.4-1 2.2 2.5 3.3 3.7-.6.2-3-2.8-3.3-3.7zm-5.4 15.1c-.6.1-.9 1.6 1.6 2.1-1.6-.1-1.4.1-.8.6-1.9-.1-1.4-.5-2.7-.8 1.2-.3.5-.9.2-1.5-.4-.5-.4-.9 1.7-.4zm-.9-1.7c.2-.1 1.3.4 1.5.2 1.3.8 0 1.2 1.5 1.9-.8 0-1.6-.4-2-.8-.4-.4-.4-.8.3-.8-.4-.2-.8-.4-1.3-.5zm-.4 4.5c.7.1 1.4.2 2.1.2-.2.3.7.8-1.4.5 0-.3-.9-.4-.7-.7zm4.1 2.2c-.5 0-1.5.3-2.3.1-.8-.1-1.3-.4-.5-.5 1.1 0 1.5.1 1.8.2.2.1.4.3 1 .2zm-.7-.3c-.1-.1.3-.1.7-.1-1.1-.1-4.7-.2-2.8-.6 1.8.1.7.6 3.5.4.2.2-.1.3-1.4.3zm-.4 1.9c.5-.2.4-.3.1-.3h-.2c-.1-.5.1.6.1.5-.1-.1-.1-.2-.2-.3-.1-.2-.2-.5-.1-.8.7.1 1.2.3 1.6.5.2.1.4.2.5.3.1.5-.2-.7-.1-.6H374.3c.5 0 .9-.1 1.9-.4-.5.2-1.3.5-2.1.7-.6.2-1.4.3-1.8.4zM384 390c-.1.2 1.8-3.5 1.2-2.6-.2.5-.3.7-.6 1.3-.6 1.2 1.1-2.6.7-2-1 2.6 0-.1-.4.6-.5 1.8-.6 2-.9 2.7zm-42.7 85.4c-.7-.6-1.8-1.1-3-1.5-1.2-.4-2.7-.8-4.1-1.3-2.9-.9-5.7-2.2-7.2-4.5 5.2 2.2 8.3 3 14.2 4.3.3-1.5-1.5-.7-2-1.3 9.1 1.8 16.8 3 24.4 3.8 7.6.7 15.1 1 23.7 0 1.3-.6.5-2.4.9-3 1.4-.2 2.8-.4 4.3-.6l4.3-.8c.2 1.8.6 2.6 1.3 3.1.7.5 1.5.6 2.2 1.1 1.4.1-1.2-3.1.2-3-.5-1.5-1.6-1.2-2.7-.8 1.5-.6 3.1-1.2 4.8-1.8 1.1-.5 2.3-1 3.5-1.5l.5-.2.6-.2h.1l.2-.1.3-.1c.4-.2.8-.4 1.3-.6.9-.4 1.7-.8 2.6-1.2 1.7-.8 3.4-1.8 5.2-2.7 7-3.9 13.8-9 19.4-15.1-.8-1.2 2.1-1.6 0-3 1-.1 1.9-.4 2.6-.8.8-.4 1.4-.8 2-1.4 1.2-1.1 2.1-2.3 2.8-3.8.7-1.4 1.4-2.9 2.1-4.4.7-1.5 1.5-2.9 2.7-4.3-2.4-.2 1.1-1.3-.5-3.7.5-1 .7-.3 1.5.2.7-1.4 1.2-3 1.7-4.5l.8-2.3.6-2.4.6-2.4.3-1.2.2-1.2.3-2.5.2-1.2c.1-.4.1-.8.1-1.3.1-2 .2-3.9.2-5.8v-1.1l-.1-.8-.2-1.7-.2-.8v-.2l-.1-1v-.3l-.1-.6c-.1-.8-.3-1.6-.4-2.4-.3-1.6-.8-3.1-1.2-4.7-1.8-6.1-4.7-11.3-7.9-15.6-3.3-4.3-7-7.6-10.6-9.8-1.4-3.3-4.5-6-9.6-6.8-1.5-1.1-3.2-2-5-2.9-.4-.2-1-.5-1.5-.7-.5-.2-1-.4-1.6-.6-.5-.2-1.1-.4-1.6-.6-.4-.1-.7-.2-1.1-.2-.4-.1-.7-.1-1.1-.2l-.6-.1h-.2c.1 0-.9-.3-.5-.2h-.4c-1-.1-2-.1-2.9 0-1 .1-1.9.3-2.9.6-.9.3-1.8.7-2.7 1.3 0-1.2.5-1.3 1-1.3-1.6-.6-3.8-1-6.1-.9-.6 0-1.2.1-1.7.1-.6.1-1.1.2-1.7.3-1.1.3-2.2.6-3.1 1.1-.8.2.7 1.7.4 3.5-.7.5-2.5-.6-2.4 1-1-1-.5-1.1.1-1.3.6-.2 1.4-.4.9-1.7-1.4-.7-2.7-.3-3.8.4-1.2.7-2.1 2-3 3.2-5.7.3-11.1 4-14.7 8.4-.5.5-.9 1.1-1.3 1.7-.4.6-.8 1.1-1.2 1.7-.7 1.2-1.5 2.4-2.1 3.5-.2.5-.5 1-.7 1.5-.1.2-.2.5-.4.7l-.1.2c-.1.2 0 0-.1.1v.1l-.2.4c-.5 1-.9 1.9-1.4 2.8 1.3 1.5 1.9-.4 1.9.9-.5.3.1.8.8 1.3-1 .7-1.7-1.2-3.3-1.3-.7 3.3-1 5.6-1.1 7.6 0 2 .4 3.9 2 6-2.5-1-.1.5-1.5.7 1.9 1.3 4.7 2 4.9 3.4-1.2.1-1.5-.2-1.9-.7-.3-.5-.6-1-1.6-1.5v1.4c0 .5.1.9.2 1.3s.2.8.4 1.1c.2.4.4 1 .7 1.4l.1.2s-.1-.3 0-.2l.1.1.3.3c.2.2.4.3.6.5.2.1.4.3.6.4.3.1.5.2.8.3.6.2 1.1.3 1.9.4.7 0 1.5 0 2.3-.1 1.2-.8.9-.9.6-1-.3-.1-.6-.2.8-.8 1.4-.1 2.3-.3 2.9-.2.5.1.6.4.3 1.3-.6.5-.5.1-1.2.7.9-.7 1.9.5 4.5-2.3-.5.9-.4 1.3.1.9.6-.3 1.5-1.4 2.8-3.1-.4.9 0 1-.9 2.7.4-.5.8-1.4 1.3-1.7 1.3-2.9.7-2-.2-1.8-.9 1-.8 1-2.2 2.7.1-.7 1.6-2 2-2.9-.4.1-1 .6-1.6.9-.6.3-1 .5-1.1.3 2.1-1.4 2.8-1.9 3-2.1.4-.2.2.1.6-.2.5-.5 1-1 1.5-1.6.5-.5.8-1 .9-1 .9-1.2-.4.6-1.2 1.7.8-.6 2.4-3.4 3.8-5.9-.4.6-1 1.9-2 3.7.1-.2.3-.5.5-.8.1-.2.2-.3.3-.7.2-.6.6-2.1 1.4-5.9-.2.4-.4 1.6-.5 1.3.3-1.7.1-1.6-.1-1.6h-.1s-.1-.1-.2-.1c-.1-.1-.3-.2-.4-.4-.2-.4-.4-1.1-.5-2.3-.2.4-.4.6-.6.8-.1.2-.6.3-.2.4.4.1.8-.1 1.3-.4.2-.1.4-.3.7-.5l.1-.1h-1.6v-.2l-.1-.3c-.1-.4-.3-.8-.4-1 .1 1.2.2 2.3.3 3.5-.2-.3-.4-.9-.7-1.5-.2-.6-.5-1.3-.9-1.8-.3-1.6.1-1.2.4-.4.4.7.7 1.9.9 1.6-.8-2.8-2-4.6-3.3-6.1-1.3-1.5-2.5-2.7-4.1-4 .4.4.7.8 1 1.1.3.3.6.6.8.9.2.3.5.6.7.8.2.2.4.5.6.7.4.5.8.9 1.2 1.4.4.5.8 1 1.2 1.8.1.9 0 .5-.2.3-.2-.3-.4-.5-.1.6-.3-.8-.7-1.5-1.1-2.1-.4-.6-.8-1.2-1.2-1.5-.4-.4-.7-.6-.8-.7-.2-.1-.2 0-.1.4-1-1.6-1.8-2.4-2.5-3-.7-.6-1.4-1.1-2.5-2 .7 1.2 1.2 1.1 1.9 2.1 1.4 1.8-1.5-1.5.7 1.2.3 0 .7.6-.6-1.3 1.9 2.5.4.3 2.2 2.7.2.2-.5-.9-1.1-1.8 1.1 1.6 2.4 3.5 1.8 2.2 2.2 3.5.6 1.2-.7-.4.4.7.3.7-1.2-.8 0 .1 1.2 1.3 2.4 2.5l.4.4c.7.7 1.9 1.7 2.7 2.5.5.4.9.6 1.1.8.2.2.2.4.3.6.1.1.1.3.3.5.1.1.1.3.3.3h.9c.9 1.9.8.3 2.4 2.6 1.7 1.1 2.6.4 3.9.6 2.6 1.7 1.7 2.6 3.1 4 .9-1 2.3 2.3 2.6 0 1.1 1.4 1.3 2.8 2.8 2.1 2.2 1.4.5 1.9 2 3.1 2 1.5 3 1.2 5 2.6 1.4.9.9 1.4 2.6 2.4.9 2.5 1.8 4.7 2.1 7.2.2 1.2.3 2.5.3 3.7 0 1.3-.1 2.5-.3 3.7-.7 5-2.9 9.9-6.5 14-2.8 3.2-6.3 6.3-10.6 8.8-1.1.6-2.2 1.2-3.4 1.8-1.2.6-2.4 1.1-3.6 1.5l-.9.3-.2.1h-1.1l-.3.1-1.2.6-.6.3-.1.1s-.2 0-.3.1l-.6.1c-.9.1-1.7.3-2.6.3l-2.5.2-2.2.2c-1.5.1-3 .1-4.5 0-1.5 0-3-.2-4.5-.4s-3-.5-4.6-.8c-6.1-1.4-12.2-4-17.9-8.2-.9-.6-1.7-1.3-2.6-2-.9-.7-1.7-1.5-2.5-2.3l-1.3-1.2-1.2-1.3c-.8-.9-1.6-1.8-2.4-2.8-3.1-4-5.7-8.7-7.6-14l-.1-.2v-.2c-.1-.6.3 1.2-.3-1.2l-.1-.2-.2-.4-.3-.7-.1-.2s0-.2-.1-.2l-.1-.3-.3-1.3c-.2-.9-.4-1.7-.5-2.6-.2-1-.3-1.5-.4-2.2l-.3-2c-.2-1.3-.3-2.6-.4-3.9-.3-5.1 0-10 .8-14.5.7-3.8 1.6-7.4 2.7-10.7 1.1-3.3 2.4-6.4 3.9-9.4.7-1.5 1.5-2.9 2.3-4.3.4-.7.8-1.4 1.3-2.1l.6-1c-.2.3 1.9-2.4 1-1.3v-.1l.1-.1.1-.2c.4-.7.7-1.3 1.1-2l.1-.1s0-.1.1-.2l.4-.6.9-1.1c.6-.7 1.2-1.5 1.8-2.2.6-.7 1.3-1.4 1.9-2.1l1.5-1.6 3.1-3.1c2.1-1.9 4.3-3.9 6.6-5.5 4.5-3.5 9.4-6.3 14.6-8.8 10.3-4.8 22.1-8 36.1-7.9 1.8 0 3.5.1 5.3.2 1.8.2 3.7.4 5.5.6 1.9.2 3.8.7 5.7 1.1l1.5.3.4.1c.8.3-1.8-.6 1.9.6h.1l.3.1c.4.1.9.2 1.3.3l.7.1.3.1H425.7l.2.1c1.2.4 2.5.9 3.7 1.3s2.5 1 3.8 1.5l.8.3.7.3c.5.2 1 .4 1.4.7 1.9.9 3.9 1.9 5.7 2.9 1.9 1.1 3.8 2.2 5.6 3.4 11.9 7.8 23 18.9 30.8 33.2 3.8 7.1 6.8 15 8.4 23.3.4 2.1.7 4.2.9 6.3l.2 1.6.2 3.2V400.4c-.1 2.5-.2 5.1-.5 7.6-.1 1.1-.3 2.1-.4 2.9 0 .2-.1.4-.1.6 0 .1-.1.3-.1.4-.1.3-.1.5-.2.7-.2.9-.4 1.3-.5 1.5-.2.4-.2-.5-.2-1.8 0-.3 0-.7.1-1.1 0-.5 0-1 .1-1.6 0-1.1.1-2.2.1-3.3.1-2.2 0-4.2 0-5.1v-1.8l-.1-.6c-.1-.4-.1-.8-.2-1.2 0-.4-.1-.8-.1-1.2l-.1-.6v-.4l-.1-2.7v-.5c-.3-1.9-.6-3.8-.9-5.6-.3-1.8-.8-3.6-1.2-5.4-1.8-7-4.3-13.5-7.5-19.5-6.3-11.9-15.2-22.1-27.2-30 1 1.4 2.7 3.1 4.6 4.8 1.8 1.7 3.9 3.4 5.6 4.7-4.8-3.5-9.8-7-15.3-10.2-1.3-.8-2.8-1.6-4.2-2.3-1.4-.8-2.9-1.5-4.4-2.2l-2.2-1-1.1-.5-.6-.2-.7-.3c-2-.8-4-1.6-6-2.3l-.8-.3-.2-.1h-.1l-.6-.1-1.1-.3-.6-.1-.3-.1h-.1l-1.7-.5-.3-.1-2.5-.6c-3.3-.8-6.6-1.2-9.8-1.6-6.4-.6-12.6-.3-18.3.6.7-2.1 2.3-.8 5-1.7-4.5-.8-8.5-.1-12.5 1.2s-7.9 2.9-12.9 4.3c1.8 1 3.3.4 5.2-.5.9-.4 2-1 3.1-1.4 1.2-.4 2.5-.7 3.9-.7 1-.1 2.3-.8 2.6.2-.8.1-1.6.3-2.4.5-5 1.8-9.7 4-14.2 6.4-2.2 1.3-4.5 2.5-6.6 3.9-1.1.7-2.1 1.4-3.2 2.1-1 .8-2 1.5-3 2.3-1 .8-2 1.6-2.9 2.4-.9.8-1.9 1.7-2.8 2.5-.9.9-1.8 1.8-2.6 2.7l-1.3 1.4-1.5 1.8c-1 1.2-1.9 2.4-2.8 3.6 0 .1-.1.2-.2.2l-.1.1-.1.2-.2.4-.4.9-.4.9-.1.2v.1c.2-.2-1.7 2-.9 1.1v.1l-.1.2-.4.8-1.5 3.3c.5-.7.9-1.4 1.4-2.1l.8-1.1.4-.5 1.1-1.4c.6-.7 1.2-1.4 1.8-2.2 1.5-1.6 3-3.2 4.6-4.8 1.3-1.2 2.6-2.5 4-3.7 5.4-4.9 11.3-9.4 17.6-14.4-.1.7-.2 1.4.5 1.3 6-2.9 12.3-4.9 18.6-6.1 6.4-1.2 12.8-1.8 19.3-1.5-8.8.6-17.1 1.9-25 4.5-7.9 2.5-15.5 6.2-22.1 11.6 2-.7 3.9-1.5 5.7-2.5 1.9-.9 3.8-2 5.8-3 4-2 8.6-3.9 13.8-4.5 1.2.1.9-1.1.8-2.2 3.9.4 7.6.3 11.5.3 3.8 0 7.6-.1 11.4.4 1.8.3 3.6.5 5.3.9l2.7.6 1.3.3.3.1h.1l1.4.4h.1l.3.1 1.3.4.7.2c.2.1.3.1 1 .3 2.1.7 4.2 1.6 6.2 2.4 6.4 2.9 12.3 6.5 17.5 10.8 5.2 4.3 9.9 9.1 13.9 14.6s7.4 11.5 10 18.2l1.8 5.1c.5 1.7 1 3.6 1.4 5.4.4 1.8.7 3.7 1 5.6l.2 1.4v.2c.1.9-.1-2 .1 2.1v.5l.2 1.4.1 1.4c0 .3.1.4.1.8v1.8c0 2.4-.1 4.7-.2 7.1l-.1.9c0 .3-.1.5-.1.7l-.2 1.4c-.1.9-.3 1.9-.4 2.8-.1.9-.3 1.9-.4 2.8l-.6 2.7c-1.6 7.4-4.4 14.3-7.8 20.8-3.4 6.6-7.7 12.5-12.7 18-.8.9-1.7 1.7-2.6 2.6-.9.9-2 1.8-3.1 3.1-.9.9-2.1 1.6-3.4 2.2-1.3.5-2.6 1.1-3.6 1.9-.7.5-1.3 1.1-1.9 1.7-.6.6-1.2 1.2-1.9 1.8-1.2 1.2-2.4 2.5-3.8 3.5-2.7 2-5.5 3.5-8.9 2.5-.8.6-2.2 1.3-3.3 1.6-1.1.3-1.7.3-.8-.4 1.7-1.3 3.4-2.5 5.1-3.5 1.7-1 3.3-2 5-2.9 1.7-.9 3.2-1.8 4.7-2.7 1.5-.9 2.9-1.8 4.1-2.9 1.3-1.1 2.5-2.2 3.8-3.3 1.2-1.2 2.4-2.3 3.6-3.5 1.2-1.1 2.3-2.4 3.4-3.6 1.1-1.2 2.2-2.4 3.3-3.8 1-1.3 2.1-2.6 3.1-3.9 1-1.3 1.9-2.8 2.9-4.1.5-.7.9-1.4 1.4-2.1l1.3-2.2c.8-1.5 1.7-2.9 2.5-4.5 3.1-6.1 5.5-12.7 6.9-19.6.3-1.8.6-3.5.8-5.2l.2-1.3.1-.7c0-.2 0-.5.1-.8.1-1.1.1-2.2.2-3.3 0-1.1.1-2.2.1-3.3v-2.6c-.1-.9-.2-1.8-.4-2.7-.2.8-.3 1.6-.4 2.4l-.1.6v.4l-.1.7.2 3.1c-.2 1.8-.4 3.7-.6 5.5-.2 1.5-.5 2.9-.8 4.3-1 5.8-2.5 11.2-4.3 16.4-3.7 10.4-9.1 19.4-15.8 25.8-1.6 1.5-3.1 3.1-4.9 4.6-1.7 1.5-3.4 3.1-5.2 4.5l-2.7 2.1c-.9.7-1.9 1.3-2.8 1.8-1.8 1.2-3.6 2.2-5.4 2.9-2 .9-4 1.8-6.1 2.6-2.1.8-4 1.7-6.2 2.4l-3.1 1.1-.8.3-1.3.5-.2.1-1 .3c-1.4.4-2.2.7-4.9 1.4-2.3.6-4.8 1.3-6.6 1.6-2 .4-4 .9-5.9 1.2-2 .3-3.9.7-5.9.9-2 .2-3.9.5-5.8.6-15.5 1.1-30.3-1.3-42.4-8 2-1.7 3.1-1.1 4-1.5zm97.1-149.8c-.7-.4-2.1-1.6-3.9-2.4-.4-.2-.9-.4-1.3-.6-.6-.2-1.2-.4-1.8-.5-1.2-.2-2.3-.3-3.2 0 .5.1 1.3.3 2.1.6.4.2.9.3 1.4.5.2.1.5.2.7.3.2.1.4.2.7.3 1.5.6 3.2 1.4 4.6 2.1 1.4.6 2.3 1.2 2.6 1.2.1.1-.3-.4-1.9-1.5zm-42.7-9.1c1 .7 2.4 1.1 4.1 1.4 1.6.2 3.5.4 5.3.4 1.9 0 3.8 0 5.6-.1 1.8-.1 3.4-.2 4.6-.2-1.8-.6-3.4-.8-5.1-1-1.6-.2-3.2-.3-4.8-.3-1.5 0-3.1 0-4.7-.1-1.6.1-3.2 0-5-.1zm-42 26.2c-1.1.8-2.1 1.5-3.2 2.4.6.1 2.6-.9 4.3-2.2 1.8-1.3 3.4-2.7 3.1-3.9-1.2.8-2.2 1.4-2.9 1.9-.5.7-.9 1.2-1.3 1.8zM393.2 472c0 2.5 3.4 1 3.4 0-1.6 0-1.3-.2-3.4 0zm-11.1-78.3c-1 1.9-1.1 2.5-1.7 3.9.1.1.3.1.4.2.8-2 1.1-1.9 1.4-2.5-.5 1.6-.7 2.8-1.3 4 1-2 1.8-4.4 2.1-5.9-.3 1.4.3-.7.5-1.3.1-.3 0-.3-.1-.1-.1.2-.3.7-.4 1.4.1-.7-.1-.3-.4 0-.3.4-.6.8-.5.3zm1.6-3.7c-.2-3.2-.4-3.6-.5-4.1 0-.1-.1-.3-.1-.4 0-.2-.1-.4-.2-.7-.4-1.4-.7-2.1-1-3.1.5 1.1.4 1 .3-.1.9 4.3.3.8.9 3.4 0 0 0-.3-.1-.6 0-.3-.1-.7-.1-.8.3 1 .4 2.7.4 1.4 0 .5.1 1 .1 1.6v.4h1.3c-.7 0-1.4-.2-2.1.9v1.4c.2 0 .4.1.3.7.4-.3.7-1 1.1-1.5.2-.3.3-.6.5-.8 0-.1.1-.1.1-.2l.1-.1h-1.3v-.2c.2 1.4.2.9.3 2.8zm-.5-5.7c2 .5 1.7 1.2 1.2 3.6.1-.7 0-1 0-1.4-.4-.4-.9-1-1.2-2.2zm-.1-2c0-.2.1-.4.1-.4h1.6c-.1 0-.2.1-.2.1-.6.3-1.2 1.1-1.3 2.3.2-.3.4-.4.7-.5.1 0 .3 0 .4-.1h-1.2c.1 0 0-.2-.1-1.4zm-3.1-3.5c.1.3-2.5-4.1-1.4-2.4-.4-.7-.8-1.5-.6-1.3 1 1.8 1 1.9 2 3.7zm.9 1.1c0 .1 0 .2.5 1.3 0 .1-.3-.5-.6-1.1-.3-.6-.7-1.2-.8-1.3-.8-1.4-1.4-2.7-1.6-3.1.4.7.9 1.6 1.4 2.5.3.5.3.6-.1-.7.5 1.1 1 2 1.2 2.4-.3-.6-.3-.8 0 0zm101.2-1c-1.3-1.3-2.3-2.8-3.1-4.4-.8-1.6-1.4-3.1-2-4.8-.6-1.7-1.1-3.3-1.8-4.9-.7-1.6-1.5-3.2-2.5-4.5 1.9.6 3.6 3.9 5.1 7.7.7 1.9 1.4 4 2.1 5.9.7 1.9 1.4 3.7 2.2 5zm-108 15.4c-1.8.1-2-.1-1.9-.4.1-.3.5-.6-.1-.9.7.2.7.4 2.1.5-.2.1-.9.2-1.2.3-.3.2-.2.4 1.1.5zm2.3 1.6c-.3.2.5-.1.9-.2s.3-.1-1.3 1c-.5 0-.6-.1-2.8.8.7-.5 1.8-1 1.1-.9.9-.3 1.3-.4 2.6-1 .1.1-.5.3-.5.3zm2.6-1.1c-.8.4-1 .4-2 .8 1.4-.6 1.3-.5.7-.3 1.3-.4 1.3-.4 1.1-.4-.2 0-.4.1.2-.1zM477.4 274.2c.4-.2-.2-.2-.5-.2-.4 0-.8 0-1 .4.5 0 1.1-.1 1.5-.2zm-8.1.2c-.4.1-1.3.7-1.5-.1.5.1 1.2 0 1.5.1zm1-.1c-.6.5-.8-.2 0 0zm-5.1-.2c.1 0 0 .1 0 .2.9-.2-.1.9 0-.2zm-.4.3c-.2.5-.6-.3-.8.2-.1-.5.7-.2.8-.2zm-3.7 1.4c.2-.7.6-.1.8-.2.2.4-.6-.2-.8.2zm20.7 1.4c-.5.5-.8-.2 0 0zm2-.2c-.6.6-.8-.2 0 0zm3 3.5c-.5.7-1.6.1-2.7.5.4-.5 1.8-.2 2.7-.5zm-28.7 2.2c-.1.1-.1.4-.2.7-.1 0-.3-.1-.4-.1.2-.8.3-.2.6-.6zm-.7 2.2c-.2.6-.6.1-.9.3.3-.8.4-.1.9-.3zm-9.7-1.7c.1-.4.2 0 .4-.1-.1.3-.3.4-.4.8-.2-.1 0-.6 0-.7zm.5 0c0 .1 0 .2.1.2-.1.5-.2.3-.3.6-.1-.1 0-.6.2-.8zm4.8 1.6c-.2.3-.6.3-1 .6.2-.2.3-.4.5-.8.2.3.4-.3.5.2zm-5.6-1.5c-.1.1-.2.2-.2.5.1-.8-1.2.7-.5-.7-.2.8.7-.5.7.2zm4.8 1.4c-.2.2-.3.3-.5.2.1-.4.4-.4.5-.2zm-2.8.3c.3-.1-.2.8-.2 1.2-.2 0 .1-1 .2-1.2zm-4.9-.2c-.1-.2-.6-.3-.8.3 0-.4 0-.4-.3-.3.1-.5.2-.3.4-.6.1.6 1-.5.7.6zm.6-.2c.1.1-.1.3 0 .4-.2.3-.4 0-.6.3 0-.4.5-.7.5-.4l.1-.3zm-1.6-.4l-.2.5c-.1-.1-.4 0-.1-.4.1 0 .2-.2.3-.1zm-1.5.6c-.1-.3.7-.9.6-.5-.1.5-.4.2-.6.5zm.3-.1c.1 0 0 .1 0 .2.2-.2.5-1.1.6-.5-.2.4-.3.1-.5.7-.1 0-.2-.1-.1-.4zm-1-.6c0 .3.3 0 .5.2-.4.5-.6.3-1 .8-.1-.3.3-.8.5-1zm-5.6 1.5c.1 0-.3 1-.3.6.1-.1.1-.1.2-.3-.2-.4-.4.6-.5.3.4-.6-.2-.1-.3-.3.4-.3.6-.2.9-.3zm55-7.3c.6.3 1.8-.5 2.6.2-.9.1-1.4.2-2.4.5.1.4.3 0 .4.1-1.5.5-2.7.7-3.9.8-.6.1-1.2.2-1.7.2-.6.1-1.2.1-1.8.2-.2.1-.1.6-.1.7l-1.3.1c0-.9-.2-.9-.4-1.2-.2-.1.1.8-.1.7 0 .4.2.4.3.3-1.7.5-4.1.6-6.5.7 0 .3-.4-.1-.3.5-.9-1.2-1.8 0-2.7-.4.1.6-.2-.1-.5.5-.2 0-.1-.1 0-.4-3.6.1-7.4-.2-10 .4-.5-.4-1-.5-1.8-.1-1.1-.2-2.3-.7-3.6.4 0-.3.1-.3.2-.3-.5-.3-1.3-.5-2-.3-.1 0 0 .4-.2.9-.2.1-.4-.3-.5.1-.1-.6.4.1.4-.6-.3-.5-.9-.1-1.4.2-1.7-1.1-4.4-.3-5.9-.6-.3.4.2.4-.1.5-.1-.1-.2.1-.2.3-.2-.2.2-.5.1-.9-1.4.1-1.9-.1-3 .4.4-.6-.1-.1-.1-.4-.4.4-.8 1-1.2.8.2-.6.5-.2.9-.6-.9-.3-1.6-.7-3.1.5-.2.7.5-.1.2.6-.7.4-1.1.6-1.4 0 .1-.2.2-.1.3-.3-.1.3-.8 0-1.2.8-.1-.6-.5-.4-1 .5-.1-.3-.4-.4-.2-.9-.1.1-.2.4-.4.4-.1.8.2.7.8.7.3-.3.1-.3.3-.8.2.2-.2.6 0 .9.6 0 .8-.5 1.3-.2-.6 1.1-1 .5-1.5.5-.2.3-.8.6-.8.6-.2.3-.1-.2.1-.5-.7-.1-1 .7-1.4 1.3-.1-.3 0-.6.3-1-.7.2-1.4-.6-2.3 1.1 0-.1.1-.4-.1-.4-.5.7-.5-.4-1.1.6.1-.8-.8-.3-1.2-.2l.4-.8c-.5 0-1 .2-1.5.3-.1.8.8-.1 1.2.2-.8.4-1.6.6-2.3.7-.4.1-.7.1-1.1.2-.4.1-.7.1-1.1.2.5-.3 1-.4 1.5-.5.5-.1.9-.2 1.5-.3 0-.5-.5.2-.4-.4-.8.5-2.1.7-2.2.3-.7.8-1.2.5-2.1.9 0-.4.4-.3.5-.5.3-.5-.5.3-.1-.4.3.1.4-.1.2.5.4-.7.2 0 .6-.7.2 0 0 .3-.1.5.3-.4.6-.9.6-.5.5-.9-.4-.6-.7-.2-.2-.3-.6-.5-1.1-.2-.1-.1.1-.5.3-.8-.3.4-.2-.7.2-1.1-.1-.8-.3-.5-.3-1.2.4-.3.1-.2.5-.7.2-.5 0-.6.1-1 .3-.7.5-.5.8-1-.2-.2.5-.7 0-.6.3-.3.6-.5.4-.8.3-.6.4-.2.7-.6.3-.5.2-.8.5-1.3.2-.4.3-.3.5-.7 2.1-1.4 4.2-2.1 6.1-2.3 1.4-.2 2.9-.4 4.2-.6 1.4-.2 2.8-.3 4.2-.4 1.6 0 3.4 0 4.9.2 1.3.1 2.5.2 3.6.3 1.1 0 2.2.1 3.2.1 2.1.1 4.3.2 7.3.3 2.4.1 5.2-.4 7.6.1 1.1.2-.2.3-.4.3-2.4.1-4.4-.1-6.9.2.2.3.8.4 1.2.2-2.2.8-4.7.2-6.8.1.2-.5.2-.1.5-.2-.7-.7-1.5 0-2.4-.4.1.8.6.1 1.1.5.1 0 .2 0 .2.2l-.2-.1c-2.1.4-4.2-.1-6.2.2 1.3.4 2.8.9 4.5.3-.1.1-.2.3-.1.3 1.4.2 2.7.2 3.9.2-.9.2-1.7.2-2.6.3-.9 0-1.8-.1-2.7 0 .7.6 1.9.2 2.9.6.1.1.2-.2.2-.5.7.6 1.5.6 2.2.7 5.7.8 10.8.5 17.1.3.3 0 .5.1.9 0 .3-.1.6.4.9.4.7 0 1.5-1 2.1.1.2-.1.7 0 .5.2-.9.5-1.8.2-2.5.3-1.5.2-3.1.2-4.5.2H468.7c.6.2 1.2.3 1.8.4.6 0 1.2 0 1.8-.1 1.2-.1 2.3-.3 3.4-.2 1 .1 2.2 0 3.1.1 1 .2 2.1.2 3.1.2 1-.1 2.1-.3 3.1-.4 1-.1 2.1-.4 3.1-.4s2.1 0 3.2.2c-.3.6-.5.6-.6.7zm-29.1-4.2c-.1-.1-.5-.4-.9.2.3-.2 1.5 0 .9-.2zm-3.8-.3c.2.8 1.2.5 1.7.2-.6-.2-1.1.1-1.7-.2zm-5.4 1.9l-.4-.1c0 .3.8.6 1 .1-.3-.1-.5-.1-.6 0zm30.7 5.2c0-.6-.5-.4-.5-.1.2.1.2.1.5.1zm-46.8 3.8c.2-.5.1-.7.2-1l-.3-.1c-.2.5-.4.4-.7.5.1-.4.2-.7.4-1-.4.4-.8.9-.8 1.4 0-.4-.2.1-.4.2 0 .2.8.3.5-.2.3.4.8-.1 1.1.2zm-3.5-.5c-1 1.3-1.8-.4-2.6 1.1.5-.1.4-.1.5.3.4-1 .3-.1.7-.6.1 0-.1.3 0 .4.3-.1.5-.5.7-.1.4-.7.5.1 1-.3l.2-.3s-.1-.1 0-.2c-.3.1-.5.5-.8.4.2-.3 0-.2.3-.7zm.2 1.7c.3.1 1 .2 1.2-.4-.5.2-.8-.1-1.2.4zm-1.1.1c0 .3.5.4.8-.2-.3.2-.5-.4-.8.2zm-3.7-.7c-.2-.2-.7 1-.3.6-.1.2-.2.4-.1.4.2-.5.1-.6.4-1zm1.2.2c-.1-.1-.1-.1 0-.4-.4-.2-.8.3-1.2.2-.2.4-.3.7-.2.9.3-.4.9-.9.8-.2.2-.3.3-.5.5-.6-.2.2-.1.3.1.1zm38.2-11.2c-.6.9-1.2.1-1.8.3.3-.7 1.3.1 1.8-.3zm-24.9 10.9c.1-.9.4-.1.8-.3-.1.2-.2.1-.3.4-.2-.1-.2-.7-.5-.1zm-2.3-.3c-.1-.2-.8.6-.6-.4.4 0 .5 0 .8-.5 0 .2-.1.5.2.4-.1.2-.3.3-.5.6-.1 0 0-.1.1-.1zm-.2.7c.1-.2.2-.2.3-.4 0 .4 0 .4.3.3-.3.5-.2-.1-.6.1z"/><path class="st0" d="M274.3 401.2c3 .7 2.3.5.4-.1s-5-1.6-6.8-2.1c-.6-.2-1.3-.4-1.9-.6-.6-.2-1.3-.5-1.9-.7-1.3-.4-2.5-.9-3.6-1.3s-2.1-.7-3-1c-.8-.3-1.5-.5-1.9-.6.6.3 1.3.5 2 .8.7.3 1.5.5 2.3.8 1.6.6 3.2 1.2 4.9 1.8 1.7.6 3.4 1.1 5 1.6 1.5.5 3.1 1 4.5 1.4zm-87.8-59c-.8-1.1-1.8-2.4-2.9-3.8-1.1-1.5-2.3-3-3.4-4.6-2.1-3.3-4.1-6.5-4.8-8.6.4.7.8 1.5 1.3 2.3l1.5 2.4 3 4.8c2 2.9 4 5.7 5.3 7.5zm8.2 9.9c-1.3-1.3-2.4-2.3-3.1-3.2-.7-.9-1.1-1.5-1.2-1.6-.1-.2.2.1.9.9.3.4.7.9 1.3 1.6.6.5 1.2 1.3 2.1 2.3zM161.5 294c.2.6.1.7.1.8 2 5.2 1.9 5.3 1.2 3.9-.3-.7-.8-1.7-1.1-2.6-.3-.9-.4-1.8-.2-2.1zm-1.7-4.2c-1.1-1.4-2-7.9-2.9-9.2 0-1 .7 1.1 1.4 3.6.3 1.2.6 2.5.9 3.6.3 1 .6 1.8.6 2zm-9.6-44.1c.4.2.5 2 .6 4 0 1 .1 2.1.2 3.2.1 1 .2 2 .3 2.7 0 1.8-.2-.3-.5-3.1-.2-1.4-.2-2.9-.3-4.2-.1-1.2-.2-2.2-.3-2.6zm179.2 167.1c-3.7.2-6.3-.1-6.7-.2-.2-.1.2-.1 1.3 0 .5 0 1.2.1 2.1.1.9 0 2 .1 3.3.1zm26.5-.4c-2.2.3-3.9.4-5.1.5-1.2.1-1.9.1-2 0-.1 0 .4-.1 1.5-.2 1.2-.1 3-.1 5.6-.3zm33.2-.6c-3.4 1.1-8.4 2-14.4 2.8l-2.4.3c-.8.1-1.6.2-2.4.2-1.6.2-3.3.3-5.1.5-1.7.2-3.5.3-5.4.5-1.8.2-3.7.3-5.6.5 1.8-.2 4.2-.5 7-.7.7-.1 1.4-.1 2.2-.2.7-.1 1.5-.2 2.3-.3 1.6-.2 3.2-.4 4.8-.5.8-.1 1.7-.2 2.5-.3.9-.1 1.7-.2 2.6-.3 1.7-.2 3.3-.5 4.9-.7 3.2-.6 6.3-1.2 9-1.8zM142.8 225.3c-.1-.6-.4-.9-.7-.8.1-1.6.1-3.2.3-4.8.8.7.1 3.1.4 5.6zm-2.1-3.4c-.1-.3-.2-.9-.2-1.6 0-.8.1-1.7.2-2.7.2-2 .4-4.1.4-5.4.3 1 .3 2.3.1 3.9-.1.8-.2 1.7-.3 2.6-.1 1-.2 2.1-.2 3.2zm43.5-109.8c.2.1-.3.6-.9 1.3-.6.7-1.2 1.5-1.6 2 0-.5.7-1.6.3-1.8.4-.5.7-.8.9-1 .1 0 .1-.1.2-.1.1-.1.1-.1.2-.1s.1-.1.2-.1c.3 0 .3.1.7-.2zm-3.4 4.6c-.5.5-1 .9-1.6 1.8-.7.2.7-1.5.5-1.7.9-1.1 1.6-1.3 1.1-.1zm-30.2 53.6c.1-1 .6-2.4 1.1-4.1.5-1.7 1.2-3.6 1.6-5.3-.2 1.3-.6 2.8-.4 3.4-.7 1.4-1 2.6-1.3 3.5-.3.9-.6 1.7-1 2.5zm35.6-60.7c.2-.4.4-.8.1-1 .8-.3 2.4-2.5 3.8-4.3 1.5-1.8 2.8-3.1 2.6-1.9-.6.3-1.3.9-1.9 1.5-.6.6-1.1 1.4-1.6 2.1-.9 1.4-1.9 2.8-3 3.6zM154 161.1c.1-.6.3-1.4.6-2.3.4-.9.8-1.9 1.4-3.1.1.3-.3 1.5-.8 2.6-.5 1.2-.9 2.4-1.2 2.8zm13.3-28c-1.5 2.7-1.3.4-1.9.7 1.4-2 2.3-1.6 1.9-.7zM203.8 89c.6-.4 2-1.7 3.4-2.9s2.6-2.4 2.6-2.7c1.3-.5 1.6-.8 3.3-2.4.8 0-1.1 1.3-.9 1.6-1.8 1.1-3.6 2.7-5.1 4-1.3 1.3-2.5 2.4-3.3 2.4zm-4.1 4c-.7.6-.7.1-1.5.8.5-.9 3.6-3.4 4-4.2 1.9-1.1-1.2 2.2-2.7 3.1l.2.3zm15.1-12.7l-.3-.4c1.1-.9 3.2-2.6 2.9-1.7-1.3.9-1.4 1.2-2.6 2.1zm10.8-8.9c.8-.3.1.3-.8 1.2-1 .9-2.3 2-2.8 2.2-.3-.5 2.7-2.5 3.6-3.4zm-2.6 2c-.6.4-.7.4-.8.3-.9 1-.8 2-3 2.9-.2-.4 2.8-2.2 1.5-2.1 1.4-1 2.2-1.4 2.3-1.1zm12.6-7.8c-1.3.5-2.8 2-5.6 3.5 1.8-1.9 4.7-3.5 5.8-4.8 2.2-1 .2.8-.2 1.3zm47.8-25c-1.4.5-1.7-.5.6-.9-.1.2-.8.4-.7.6 3.7-.8.9-1 3.8-1.7-1.8 1.3 2.1-.7 4.9-1.3-3 1.3-6.1 2.3-8.6 3.3zm153.3 347.8c2.8-2 7-5.9 11.2-10.3 4.1-4.5 8.1-9.4 11-12.9-3.5 4.8-6.4 8.4-9.5 11.8-3.1 3.5-6.4 6.9-11.1 10.9.3.2 2.5-2.1 3.5-2.9-3.5 3.2-7 6.1-10.5 8.6-.9.7-1.8 1.2-2.7 1.8-.9.6-1.8 1.2-2.7 1.7-.9.6-1.8 1.1-2.6 1.6-.4.2-.9.5-1.3.7l-.6.4-.7.4c-.9.5-1.8.9-2.7 1.4-.9.4-1.8.8-2.7 1.3-1.8.8-3.6 1.6-5.4 2.3-3.6 1.4-7.2 2.6-10.8 3.6-7.2 2-14.5 3.5-22 4.6-7.5 1.1-15.2 1.9-23.4 2.5-2.5.2-1.5.6-2.3.8-2.8.1-5.5.3-8.3.3h-8.3c.9-.9-2.3-1-3.9-1.3-2.1-.2.5.8-1.6.7.1.4 2 .4 3.9.5-10.8 0-24.2-.9-38.4-3.4-1.8-.3-3.6-.6-5.4-1l-5.4-1.2c-3.7-.7-7.3-1.8-11-2.7-1.8-.5-3.6-1.1-5.5-1.6-1.8-.6-3.7-1.1-5.5-1.8-3.6-1.3-7.2-2.5-10.7-4-.6.1-4.3-1.9-3.9-1-2.5-1.4-5-2.8-7.5-4.1-1.2-.6-2.5-1.4-3.8-2-1.3-.7-2.6-1.3-3.9-2l-1-.5-.2-.1h-.1s.2.1.1.1l-.1-.1-.5-.3c-.6-.4-1.2-.7-1.8-1.1-1.2-.7-2.5-1.5-3.7-2.2-2.6-1.4-4.9-3.2-7.4-5 .5.7 0 .3-1.1-.5-1-.7-2.5-1.8-3.7-2.4-1.6-1.3-.7-.7-.4-.8-18.1-13.5-33.2-31.8-43.9-50.5-.7-1.2-1.3-2.3-2-3.5l-1-1.7-.9-1.8c-1.2-2.4-2.4-4.7-3.5-7-1-2.4-2.1-4.7-3.1-7s-1.8-4.6-2.7-6.9c-.9-2.2-1.6-4.5-2.4-6.7-.7-2.2-1.5-4.4-2.1-6.5-.6-2.1-1.2-4.2-1.8-6.2-.5-2.1-1-4.1-1.5-6.1-1-6.3-2.1-13.3-3.4-22-.2-1.8-.3-3.6-.4-5.4-.1-1.8-.2-3.7-.3-5.5-.1-3.7-.1-7.4-.1-11.1.1-3.7.2-7.3.3-10.9.2-3.5.3-7 .4-10.2.3-.3.2.7.2 1.6.1-.4.1-.8.2-1.3.1-.4.2-.9.2-1.3.2-.9.3-1.9.5-2.9.4-2 .7-4.3 1.1-6.5.5-2.2.9-4.5 1.4-6.8l.6-3.3c.2-1.1.5-2.1.7-3 .4-1.7-.7.9-.8-.2.3-1.6 1.6-5 1.3-5.5 1.5-3.4-1.2 4.5-.2 3.3.4-1.3.9-2.5 1.2-3.8l1.2-3.9c.4-1.3.7-2.6 1-3.9.3-1.3.6-2.6 1-3.8 4.4-11.3 10.2-23.3 16.7-34.1 1.5-2.8 3.3-5.3 4.9-7.8.8-1.3 1.6-2.5 2.5-3.7.8-1.2 1.7-2.4 2.6-3.5 1.7-2.3 3.3-4.5 5-6.5 1.7-2 3.3-3.8 4.8-5.6.6-1.4-2.6 2.4-.9.2 1-1 .9-1.2.8-1.4 2.1-2.1.2.6 1.7-.6 2.6-2.9 4.9-5.3 7-7.4.5-.5 1-1.1 1.5-1.6s1-1 1.5-1.4c1-.9 1.9-1.8 2.9-2.7.9-.9 1.8-1.7 2.7-2.5.4-.4.9-.8 1.3-1.2l1.4-1.2c1.8-1.6 3.6-3.2 5.6-5.1-1.1 1.7 1.1-.9 2.1-1.2 2.3-2.2 3.5-4 8-7.1.5.4-4 3.3-5.5 4.9 2.3-1.6 4.6-3.2 6.8-4.8 2.3-1.5 4.5-2.9 6.8-4.4 1.1-.8 2.2-1.5 3.4-2.3 1.2-.7 2.3-1.5 3.5-2.3 2.4-1.5 4.7-3.2 7.2-5-1.1-.3-4.3 2.6-4.6 1.9 1.2-.8 2.3-1.6 3.4-2.3 1.1-.7 2.2-1.3 3.3-1.9 2.2-1.2 4.4-2.2 7-3.3-.1.3-1.4.8-1.3 1 .1-.2 2-1.3 4.1-2.3 2-1 3.9-2.1 3.7-2.5 1.9-.5 3.6-1.2 4.9-1.9 1.3-.7 2.2-1.3 2.4-2 2.2-.5 5.4-1.7 6.5-1.6.8-.5-.3-.3 2.2-1.3-3.3.4-5.5 1.4-11.8 4-1.3.9.6.1.3.8-3.4 1.3-.9-.3-4.1.8-2.9 1.3-4.4 2.2-5.9 3-1.5.8-2.9 1.7-5.9 3.1.5-.9 2.5-2.2 4.9-3.4 2.5-1.1 5.3-2.3 7.5-3.3.5-.4 1.8-1.2 3-1.8 1.1-.7 2.2-1.2 2.1-1.2 1-.8 1.7-.4 1 .2 7.3-2.9 7.1-3.7 8-4.8 1.2-.3 1.9-.4 2.2-.3.3.1.2.4-.3.8 3.2-1.2 7.4-2.5 10.9-3.7 3.6-1.2 6.5-2.2 7.1-3.4.9-.1.9.2 2.5-.3.6-.6 2.2-1 3.9-1.3 1.7-.3 3.4-.7 4.1-1.5 3.3.1 8.8-1.9 12.4-2.5l.1.9c5-.8 8.8-1.9 13.4-2.4-1.4-.3-3.4-.1-5.7.4-2.2.5-4.6 1.1-7 1.4 1.6-.4 3.1-.8 4.7-1.1 1.6-.3 3.1-.8 4.7-1l9.6-1.5 2.4-.3c.8-.1 1.5-.1 2.3-.2 1.5-.1 3.1-.3 4.7-.4 1.6-.1 3.2-.3 4.8-.4l.6-.1h1c.4 0 .9 0 1.3-.1.9 0 1.8-.1 2.7-.1l-3.3.3-.8.1h-1.1c-.5.1-1 .1-1.5.2-2 .2-3.9.4-5.9.6l-3 .3c-1 .1-2 .2-3.1.3-2.2.3-4.4.7-6.8 1 2.1.3 4.3-.7 6.1-.3.6-.1 1.4-.3 2.2-.4.8-.1 1.6-.2 2.5-.3 1.8-.2 3.7-.4 5.6-.6 1-.1 1.9-.1 2.8-.2.5 0 .9-.1 1.3-.1h1.7c1.7 0 3.2 0 4.1.2 2.9-.9 10.9-.6 18.8.2 3.1.9-2.7-.1-2.8.2.2.6 4.4.2 3.5 1-4.2-.7-4-.4-5.3-1.2-.2.8-2.5-.2-2.8.5-1.9-.1-1.7-.4-1.7-.7-.7.4-1.1 1-4.5.3.1.5 2.1.8 4.2.9 2.1.1 4.3.1 4.6-.1 4.5.8 10 1.9 14.5 2.7 2 .6 1.8 1 1.6 1.4.3-.2 2.2.6 3.6 1.4 1.4.8 2.5 1.7 1.4 1.5 2.7 1.4 4.3 2.4 5.8 3.3 1.5 1 2.8 1.7 5 3.6-3-1.5.6.7-2.3-.5.2.5 1 1.2 1.9 1.9.2.2.5.4.7.6l.5.5c.3.3.7.7.9 1 0 1-2.4-1-3.5-1.1.9.6 1.2.9 1.2 1 .1.1-.1.2-.1.2-.2.1-.1.3 2 1.8-1.2-.4-3.4-1.8-.5.7 0 .9-2.6-1.6-3.1-1.3-.2.6 1.4 2.1 1.1 2.6 0 .5-1.4-.6-1.2.2-6.6-3.8-14.6-6.1-23.2-7.2-4.3-.6-8.8-.9-13.3-.9h-6.9c-1.2 0-2.3.1-3.5.1l-1.8.1-1.7.1c-3.7.3-7.5.6-11.3.9L332.4 43c-.9.1-1.9.3-2.8.5-.9.2-1.9.4-2.8.5-1.9.4-3.8.7-5.6 1.1-1.9.3-3.8.8-5.6 1.3-1.9.5-3.8.9-5.6 1.4-15 3.9-29.9 9.3-44.2 16.1l-3.3 1.5c-1.1.6-2.2 1.1-3.3 1.7-2.2 1.1-4.4 2.3-6.7 3.5-2.2 1.2-4.4 2.6-6.6 3.9-1.1.7-2.2 1.3-3.3 2-1.1.6-2.2 1.4-3.3 2.1-2.2 1.4-4.3 2.8-6.5 4.3-2.1 1.5-4.2 3-6.2 4.5-1 .8-2.1 1.5-3.1 2.3l-3 2.4c-1.9 1.6-3.9 3.2-5.8 4.7-1.6 1.4-3.1 2.8-4.6 4.2-1.5 1.4-3 2.7-4.4 4.1-1.4 1.4-2.7 2.8-4.1 4.2-.7.7-1.3 1.4-2 2.1l-1 1-.9 1.1-3.6 4.2-1.8 2.1-.4.5-.1.1-.1.1c0 .1.3-.4.2-.2l-.2.3-.9 1.1c-1.2 1.5-2.3 3-3.4 4.5s-2.3 3-3.2 4.4c-.9 1.4-1.9 2.8-2.8 4.2-.9 1.4-1.9 2.8-2.7 4.3-.9 1.5-1.7 2.9-2.6 4.4-.9 1.5-1.8 2.9-2.5 4.4-.8 1.5-1.5 3-2.3 4.5-.8 1.5-1.6 3-2.2 4.5-.7 1.5-1.4 3.1-2.1 4.6-.7 1.5-1.4 3.1-2 4.7-5 12.6-8.8 26.1-11 41.4-.2 1.9-.6 3.8-.8 5.8-.2 2-.4 4-.5 6l-.3 3c0 1-.1 2.1-.1 3.1-.1 2.1-.2 4.2-.2 6.3 0 2.1.1 4.3.1 6.5v3.3c.1 1.1.2 2.2.2 3.4.2 2.3.3 4.6.5 6.9.3 2.3.6 4.7.9 7.1.2 1.9.6 3.9.9 5.8.3 2 .7 4 1 6 .5 2 .9 4.1 1.4 6.1l.4 1.6c.1.5.2 1.1.4 1.6.3 1 .5 1.9.8 2.9.3 1 .5 1.9.8 2.9.3 1 .5 2 .9 3 .7 2 1.3 4 2 6s1.5 4 2.2 6l1.1 3 1.3 2.9c3.3 7.9 7.4 15.4 11.7 22.6 1.1 1.8 2.2 3.5 3.3 5.3 1.2 1.7 2.4 3.4 3.5 5 .6.8 1.2 1.7 1.7 2.5l1.8 2.4c1.2 1.6 2.4 3.1 3.6 4.7 9.4 10.8-1.9-1.5-3.5-3.9-9.9-12.3-17-25.3-22.8-38.7l-1.1-2.5-1-2.6c-.7-1.7-1.3-3.5-2-5.2-.6-1.7-1.2-3.5-1.8-5.3-.6-1.8-1.2-3.6-1.6-5.3-.5-1.8-1-3.5-1.5-5.3-.3-.8-.5-1.9-.7-2.9-.2-1-.5-2-.7-3-.2-1-.5-2-.7-3l-.1-.4V270.9c0 .1-.1-.3 0 .3l-.1-.7-.3-1.5c-.4-2-.7-3.9-1.1-5.9.2 1.9.6 4.7 1 7.5l.1.5v.1c0 .2-.1-.3-.1-.3v.1l.1.3.3 1.1c.2.8.3 1.5.5 2.3.3 1.5.7 2.9 1 4.2-.4-1.7-.9-3.5-1.3-5.2-.2-.9-.4-1.8-.7-2.7-.1-.8-.3-1.5-.4-2.3-.6-3.5-1.4-7-1.8-10.7-.2-1.8-.5-3.7-.7-5.5-.2-1.8-.3-3.7-.4-5.6-.1-1.9-.3-3.8-.4-5.6 0-1.9-.1-3.8-.1-5.7-.1-15.2 1.7-30.5 5-44.1.2 1.1-.5 2.8-1 6.1 1.2-5.1 2.6-9.6 3.7-14.5.7-2.4 1.5-4.8 2.3-7.4.2-.6.4-1.3.6-2 .2-.7.5-1.3.8-2 .5-1.3 1.1-2.7 1.7-4.2-1 1.4-1.7 3.4-2.6 5.7-.7 2.4-1.5 5.3-2.8 8.6-.4 1.1-.7 2.8-1 2.9.3-1 .5-2 .9-2.9 3.4-12.4 8.4-24.8 14.7-36.1 1.6-2.8 3.3-5.6 4.9-8.3.4-.7.8-1.3 1.3-2 .4-.6.9-1.3 1.3-1.9.8-1.3 1.7-2.6 2.5-3.8.4-.6.8-1.3 1.3-1.9.5-.7 1-1.3 1.5-1.9 1-1.3 1.9-2.6 2.9-3.9.5-.6.9-1.3 1.4-1.9l.7-.9.6-.7c.9-1.1 1.9-2.3 2.8-3.4-.7.8-1.4 1.6-2.2 2.4-.4.4-.7.8-1.1 1.2l-.3.3-.1.1c-.1.2.2-.2.1-.2l-.1.2-.5.7c-1.4 1.8-2.9 3.7-4.4 5.6l-1.1 1.4c-.4.5-.8 1-1.1 1.4-.6.9-1.3 1.9-2 2.8-1.3 1.9-2.7 3.8-3.9 5.8-2.5 4.2-5.1 8.3-7.2 12.8-2.3 4.4-4.1 9.1-6 13.7.1-.5.1-1-.3-.1-6.7 16.3-10.8 32.7-12.6 48.3 1-10.5 3.2-21.2 6.3-31.8.9-2.6 1.6-5.3 2.5-7.9 1-2.6 2-5.3 3-7.9 2.2-5.2 4.5-10.5 7.2-15.6-5.8 9.7-10.2 21.3-14.4 35.1-.5 1.6-.1 1.5.1 1.6-.8 2.4-1.5 4.8-2.2 7.3-.6 2.5-1.1 5-1.6 7.4l-.4 1.9c-.1.6-.2 1.2-.3 1.9-.2 1.2-.4 2.5-.6 3.7-.4 2.5-.8 4.9-.9 7.4-.2 2.3-.5 4.6-.7 6.9l-.3 6.9c0 1.1-.1 2.3-.1 3.4v3.4c0 2.3.1 4.5.1 6.8.1 2.3.3 4.5.4 6.8.1 1.1.1 2.2.2 3.4l.4 3.3c.3 2.2.5 4.5.8 6.7.4 2.2.7 4.4 1.1 6.6l.3 1.6.1.8V271.5c0 .1-.1-.4 0-.2v.1l.1.4.8 3.4.8 3.4.4 1.7.4 1.6 1.7 6.3c.6 2.1 1.4 4.2 2 6.3 2.9 8.4 6.1 16.7 10.3 24.6 4.1 7.9 8.6 15.7 14.1 23 5.4 7.3 11.3 14.5 18.1 20.9.8.8 1.6 1.7 2.5 2.5l2.7 2.4 2.7 2.4c.4.4.9.8 1.3 1.2l1.4 1.1 5.7 4.5 6 4.2c2 1.5 4.1 2.7 6.2 4 1.1.6 2.1 1.3 3.2 1.9l.8.5.2.1c-.4-.2-.1-.1-.2-.1h.1l.1.1.4.2 1.8.9c1.2.6 2.4 1.3 3.6 1.9l1.8 1 1.7.8c1.1.5 2.3 1.1 3.4 1.6 1.2.5 2.2 1.1 3.5 1.6 1.6.7 3.2 1.3 4.9 2 1.7.8 3.6 1.4 5.8 2.2 1.8.6 3.5 1.4 5.4 2.1 1.8.7 3.7 1.4 5.5 1.9 9.4 2.8 19.9 4.1 27.2 6.5 2.8.3 9.3 1.4 6.1 1.1-12.4-1.2-23.5-4.2-32.7-6.8-2.4-.7-4.8-1.5-7.2-2.2-2.4-.8-4.7-1.7-7-2.5-1.2-.4-2.3-.9-3.5-1.4l-3.4-1.4c-2.3-.9-4.4-2-6.6-3l-3.2-1.5c-1.1-.6-2.3-1.2-3.4-1.8-1.1-.6-2.3-1.2-3.4-1.8l-.8-.5-.2-.1-.1-.1h-.1c.4.2.1.1.2.1l-.4-.2-1.5-.9c-2.1-1.3-4.1-2.5-6.1-3.8-2-1.3-3.9-2.7-5.9-4.1-7.7-5.6-14.9-11.6-21.2-18.3l-2.4-2.4c-.8-.9-1.5-1.7-2.3-2.6-.8-.9-1.5-1.7-2.3-2.5-.8-.8-1.5-1.7-2.2-2.6-1.4-1.8-2.8-3.5-4.2-5.3-.7-.9-1.3-1.8-2-2.7-.6-.9-1.3-1.8-1.9-2.7 1.1 1.6 2.1 3.2 3.2 4.8 1.2 1.5 2.3 3 3.5 4.6l1.8 2.3c.6.8 1.3 1.5 1.9 2.2l3.8 4.4c1.3 1.4 2.7 2.8 4 4.1l2 2 1 1c.3.3.7.6 1.1 1 1.4 1.3 2.9 2.5 4.3 3.8.7.6 1.4 1.3 2.2 1.9l2.3 1.8c1.5 1.2 3 2.3 4.5 3.5 1.5 1.1 3.1 2.1 4.6 3.2.8.5 1.5 1.1 2.3 1.6.8.5 1.5 1.1 2.3 1.5 1.6 1 3.2 1.9 4.7 2.9.8.5 1.6.9 2.3 1.4l.3.2.1.1-.2-.1h.1l.6.3 1.3.7c1.7.9 3.4 1.8 5 2.7.8.5 1.6.8 2.4 1.2.8.4 1.6.7 2.3 1.1.8.4 1.5.7 2.3 1.1.8.4 1.5.7 2.3 1.1 5.9 2.6 12.5 5.2 19.3 7.2 1.7.5 3.3 1.1 5 1.5 1.7.5 3.3.9 4.9 1.3 3.2.9 6.3 1.6 9.2 2.3 13.1 3.1 26.6 4.9 40.2 5.4 13.6.5 27.4-.1 41-1.7 3.4-.4 6.9-.9 10.2-1.4 3.4-.6 6.7-1.2 10-1.9 6.6-1.4 13.1-3.2 19.2-5.5 3.1-1.1 6.1-2.4 9-3.8 1.2-.6 3.2-1.6 4.4-2.3l2-1.1 2.1-1.2c2.8-1.7 5.5-3.5 8.1-5.4 2.6-1.9 5.2-4 7.7-6.2-2.1 1.8-4 3.3-5 4.3zM152.1 247.9c0-.9-.1-2.9-.2-5 0-.5-.1-1.1-.1-1.6s-.1-1-.1-1.5c-.1-1-.2-1.9-.3-2.5.1.9.1 2.6.2 4.5s.3 3.9.4 5.6c.1 3.2.2 4.9.1.5zm2.6-48.7c-.9 2.2-1.5 6.5-2.2 10.7l-.2 1.6c0 .5-.1 1.1-.1 1.6-.1 1.1-.1 2.1-.2 3.1-.1 1.9-.2 3.7-.2 5 .2-2 .4-3.9.6-5.7.1-.9.2-1.8.2-2.7l.1-1.3.2-1.3c.2-1.7.5-3.5.7-5.3.1-.9.3-1.8.4-2.8.3-.9.5-1.9.7-2.9zm19.7-58.9l2.8-4.6c-.7.6-6.8 10.3-6.6 11.4.9-1.8 1.6-3.1 2.3-4.2.7-1 1.2-1.8 1.5-2.6zm167.5 276.5c.8-.6-6-.4-6.3-.1 3 .1 2.4.1 6.3.1zM281.3 42.3c.1.5 1.9.1 2.7.3l4-1.2c0-.6 2.7-1.4 4.6-2.1.4.3 1.8.3.3 1 1.6-1 4.1-2.2 2-2.1 1.7 0 1.8-.6 3.1-1.1-1 .1-9.7 2.4-4 1.3-1.4.2-2.6.6-3.7.9-1.1.3-2 .7-3 1-1.8.7-3.6 1.4-6 2zM319.9 32c1.8-1 6.7-1.9 11.2-2.5 4.6-.5 8.8-.9 8.8-1.8-3.9.6-3.2.5-6.9.5.3.5-.4.6-1.4.7-.5 0-1 .1-1.5.1-.5.1-.9.2-1.2.4-1.1.1-.8-.2-1.7-.1-2.7.6-2.3 1-6.6 1.2-.4.5-1.8.7-3.6 1-1.7.3-3.8.7-5.4 1.3l.1.3c.5-.1 1-.2.9 0 2.3-.6 2.9-1.3 5.6-1.7 0 .5 2.3.1 1.7.6zm-10.1.4c-.9.2-2.1.5-3.3.7-1.2.3-2.5.6-3.5.9-2.1.7-3.6 1.2-2.8 1.3 1.5-.5 3.4-1.1 5.3-1.6 1.7-.4 3.4-.8 4.3-1.3zm10.7-2.4c-.8 0-2.7.2-4.3.6-1.6.4-3 .8-3.1 1.2.9-.3 2.6-.7 4.2-.9 1.6-.3 3-.6 3.2-.9zm40.4-3.6c3.7.2 2.4-1.1 0-.7-.1-.2-.2-.4-1.7-.4-.2.5 2 .6 1.7 1.1zm-13.5.5c1 0 1.9 0 1.6.3 2.4 0 3.9-.2 5.4-.4.4-.1.7-.1 1.1-.2.2 0 .4 0 .6-.1H357c.9-.1 1.8-.1 3-.1-.3-.4-.9-.8-2.6-.9-.2.1-.4.1-.6.2H356.2c-.1 0-.2.1-.4.1-.5.1-1 .3-1.6.4-1.1.2-2.4.2-3.6-.1-.1.3-.5.6-1.6.7 0-.1-1.4-.1-1.6.1zM174.3 323.1c-.5-.7-1-1.4-1.5-2.2-.2-.4-.5-.8-.7-1.2-.2-.4-.4-.8-.7-1.2-.9-1.6-1.7-3.4-2.6-5.1-.9-1.7-1.5-3.6-2.3-5.4-.4-.9-.8-1.8-1.1-2.7-.4-.9-.8-1.8-1.1-2.7.4.7 1 2 1.8 3.6.7 1.6 1.6 3.6 2.5 5.7 1 2 2 4.1 3 6.1.8 2.1 1.9 3.8 2.7 5.1zm43.8-246.7c2.5-.6-3.6 2.7-5.6 4.9.3-.5 1.4-1.3 1-1.4 1.4-1.1 4.4-2.6 4.6-3.5zm22.8-15c2-.9 5.2-3.9 7.4-3.7-.9.5-1.7.8-2.3 1.2-.6.4-1.1.7-1.6 1-.9.6-1.4 1-1.6 1.5-1 .3-1.5.3-3.8 1.7.6-.6 1.8-1.4 1.8-1.8.8-.4.5-.1.1.1zm-1.8.2c-.1.3-1.1.9-1.2 1.3-1.3.3-1.7.5-3.7 1.9 0-.9 2.8-1.6 4.9-3.2z"/><path class="st0" d="M257.9 422.1c2.5.6 1.9.4.3-.1-.8-.2-1.9-.5-2.9-.8-1.1-.3-2.1-.6-2.9-.9-4.3-1.3-9.1-3.2-10.5-3.4 1.1.4 2.3 1 3.6 1.4 1.3.5 2.8 1 4.2 1.5 1.5.4 2.9.9 4.3 1.3s2.8.7 3.9 1zm-78.8-49.5c-1.7-1.6-4.1-4.2-6.4-6.8-1.1-1.3-2.3-2.6-3.2-3.8-.9-1.2-1.6-2.4-2-3.3 1.7 2.5 4.1 5.1 6.2 7.6 1.1 1.2 2.1 2.4 3 3.5.9 1.2 1.8 2.1 2.4 2.8zm8 8c-.3-.3-.6-.5-.9-.8l-.2-.2h-.1l.1.1-.1-.1c-.1-.1-.3-.2-.4-.4l-1.2-1.2c-.7-.7-1.1-1.2-1.2-1.3-.1-.1.2 0 .8.7l1.3 1.3.9.9 1 1zm-36.6-46.8c.3.5.3.6.2.7 5.3 8.3-.8.6-.2-.7zm-2.3-3.3c-1.1-1-3.2-6.6-4.3-7.6-.3-1.7 4 6.9 4.3 7.6zm-17.8-35.8c.4.1.9 1.6 1.5 3.3.6 1.7 1.3 3.7 1.8 4.9.4 1.5-.3-.2-1.2-2.5-.8-2.2-1.7-5.1-2.1-5.7zm175.1 134.8c-3.2.5-5.5.4-5.8.4-.3-.1 1.3-.2 5.8-.4zm22.9-2.6c-1.8.4-3.3.7-4.4.9-1.1.1-1.7.2-1.8.2-.2-.1 1.7-.4 6.2-1.1zm29.1-2.6c-1.5.6-3.3 1.1-5.4 1.7-1.1.3-2.2.6-3.4.9-.6.1-1.2.3-1.9.5-.6.1-1.2.3-1.9.4-5.2 1.2-11.3 2.3-17.9 3.5 3.1-.7 8.3-1.6 14-2.8 1.4-.3 2.9-.6 4.3-1l1.1-.2.5-.1.5-.1c.7-.2 1.5-.4 2.2-.5 2.9-.9 5.5-1.6 7.9-2.3zM118.2 279.6c-.3-.5-.6-.6-.9-.5l-.6-2c-.2-.7-.3-1.4-.5-2.1.5.2.7.9.9 1.7.4.9.6 1.9 1.1 2.9zm-2.9-2.2c-.9-.8-1.5-6-2.3-8.2 1.2 1.5 1.1 4.4 2.3 8.2zm-4.6-104.2c.4-.1-.3 2.5-.3 3.5-.3-.3-.2-1.6-.7-1.5.4-2.3.8-1.3 1-2zm-.5 4.9c-.2.6-.3 1.1-.4 2.1-.5.5-.2-1.4-.5-1.5.3-1.2.8-1.7.9-.6zm-2.5 53.9c-.5-1.6-.8-5.5-1.2-8.5.3 1.1.5 2.5.9 2.8-.1 2.8.6 4.1.3 5.7zm3.2-61.7c-.1-.4-.2-.8-.4-.8.9-1.2.3-9.6 1.6-7.7-1.2 2.4-.3 6.5-1.2 8.5zm-3.7 53.2c-.3-1-.4-2.8-.4-5 .4.4.5 4.1.4 5zm-.3-27.1c-.1 2.7-.9.8-1.3 1.3.1-2.2 1.1-2.2 1.3-1.3zm5-49.6c.3-1.2 1-6.6.4-7.1.5-1 .5-1.4.6-3.5.5-.5.2 1.4.5 1.5-.9 3.6-.3 8.3-1.5 9.1zm-.3 5c-.1.8-.4.4-.5 1.4-.2-.9.5-4.2.2-5 .7-1.8.6 2.1 0 3.6h.3zm2-16.8l-.5-.1c.2-1.2.2-3.5.7-2.8-.2 1.3 0 1.5-.2 2.9zm.2-12c.4-1.4.7 3.3.3 4.3-.6-.2-.1-3.2-.3-4.3zm-.1 2.8c0 .6-.1.7-.2.7.2 1.1 1 1.6.3 3.6-.4-.1.1-3-.7-2.2.1-1.5.3-2.2.6-2.1zm1.1-12.5c-.4 1.1 0 2.9-.3 5.6-.5-2.2-.2-4.9-.7-6.3.3-2.1.8.2 1 .7zm-11.3-38.7c.4.3.3.7.1.8-.1 0-.2 0-.4-.1s-.4-.3-.6-.6c.2 0 .5.2.6.1-.7-.9-1-.9-1.2-.9-.2.1-.4.1-.9-.4.6 0 .4-.1-.1-.4-.1-.1-.2-.2-.4-.3l-.2-.2c-.1-.1-.3-.2-.4-.2-.6-.3-1.1-.7-1.6-1.1.6.3 1.2.6 1.9.9l.4.2.2.2.5.3c.7.4 1.4 1.2 2.1 1.7zm299.6 332.1c6-1.9 19.7-8.3 27.7-10.7-10 4.1-15.5 6.5-26.1 10.8.2.3 2.8-1.1 4-1.4-16.1 6.7-29.5 11.7-42.4 15.8-3.2 1-6.4 1.9-9.6 2.8l-4.7 1.3c-1.6.4-3.3.8-4.9 1.2-6.4 1.5-13.1 2.9-20.1 4-2.2.5-1.2.8-1.9 1-4.8.7-9.6 1.3-14.4 1.6.7-1-2.1-.7-3.5-1-1.9 0 .5.8-1.3.8.1.4 1.8.3 3.5.1-4.7.4-9.9.8-15.6.7-5.6 0-11.7-.2-17.9-1-3.1-.4-6.3-.8-9.4-1.4-.8-.1-1.6-.3-2.3-.4-.8-.2-1.6-.4-2.5-.5-.8-.2-1.7-.4-2.5-.5l-.6-.1-.5-.1-1.2-.3c-6.4-1.6-12.7-3.7-18.8-6.2-.6.2-3.7-1.7-3.4-.9-4.4-2.6-8.7-4.8-13.1-7.1-4.3-2.4-8.8-4.7-13.1-8 .5.7-.1.3-1-.4-.9-.6-2.2-1.6-3.3-2-1.4-1-.6-.6-.4-.7-2-1.4-4-3-6-4.4-1.9-1.6-3.9-3.1-5.8-4.7l-2.9-2.4-2.8-2.5-1.4-1.2-1.4-1.3-2.8-2.6c-1.7-1.8-3.4-3.5-5.2-5.3-.9-.9-1.7-1.8-2.6-2.7l-1.3-1.3-1.2-1.4c-1.6-1.9-3.2-3.7-4.8-5.5l-2.4-2.7c-.7-.9-1.5-1.9-2.2-2.8-11.8-14.9-20.7-30.1-27-42.6-1-2.6-2.1-5.4-3.5-8.3-1.2-3-2.6-6.2-4.2-9.7-4.2-11.8-7.9-25.2-11.3-36.1.2-.3.4.5.6 1.3-.2-1.4-.6-3-.9-4.9-.3-1.8-.6-3.7-.9-5.7-.4-2-.7-4-1.1-6-.3-2-.6-3.9-.8-5.6-.2-1.6-.3 1-.9.1-.3-1.4-.3-4.6-.7-4.9.2-3.2.5 4 1 2.7-.2-4.7-.8-9.5-1.6-14-.1-2.7-.1-5.4-.1-8.1 0-2.8-.1-5.5-.1-8.4.1-2.8.1-5.7.2-8.5 0-1.4 0-2.9.1-4.2.1-1.4.1-2.8.2-4.2.6-11 1.6-21.4 2.6-29.4-.3-1.3-.8 3-.6.6.2-1.2 0-1.3-.2-1.5.5-2.6.5.4 1.1-1.3 1.3-13.5 2.3-19.6 2.6-29 .4 1.7.2-1.2.6-2.1-.2-2.8-.7-4.6-.3-9.3.6-.1 0 4.5.2 6.4 1-9.8 1.8-18.5.2-28.9-.4.3-.3 1.4-.3 2.4 0 .9.1 1.9-.3 1.8-.5-4.9-.9-8.4-1-12.9.2.1.3 1.3.5 1.3-.1 0-.2-.5-.3-1.2-.1-.7-.3-1.6-.5-2.5-.2-.9-.5-1.7-.8-2.4-.3-.6-.6-1-.8-.9-.1-1.6-.5-3-.9-4-.5-1-1.1-1.6-1.7-1.8-.2-.8-.6-1.8-.9-2.7-.4-.8-.7-1.6-.6-2-.5-.5-.3.3-1.4-1.2.1.6.4 1.1.6 1.6.2.5.4 1.1.8 1.6.3.6.6 1.3 1 2.1.2.4.4.9.6 1.4.2.5.5 1 .7 1.6.7 1 .2-.5.8-.3.3 1.4.2 1.5.1 1.7-.1.2-.3.3-.1 1.6.4 1.2.6 2.1.8 2.9.2.8.4 1.4.6 2 .3 1.3.7 2.6.8 5.3-.7-.7-1-2.5-1.4-4.6-.3-2.1-.8-4.4-1.3-6.2-.2-.5-.8-1.4-1.2-2.3-.5-.9-.9-1.5-.9-1.5-.6-.7-.3-1.3.3-.8-1.2-2.6-2.2-3.6-2.8-4.1-.7-.5-1.1-.4-1.6-.5-.3-.7-.5-1.1-.5-1.3 0-.2.3-.3.7-.2-.4-.4-.8-.8-1.2-1.3-.4-.4-.9-.8-1.4-1.2-.2-.2-.4-.4-.7-.5l-.6-.5c-.3-.3-1.2-.8-1.8-1.1-.3-.2-.7-.4-1-.6h-.1c.1.1-.3-.2.3.2h-.1l-.2-.1c-.1 0-.3-.1-.4-.1-.5-.2-1-.3-1.4-.4-.9-.1-1.6 0-2 .4-.2-.1-.3-.3-.5-.4-.1-.2-.4-.3-.9-.4-.2.4-.6.5-1 .4-.2 0-.4-.1-.7-.1-.3 0-.5-.1-.8-.1-.5-.1-1.1-.1-1.5-.1-.5 0-.9.2-1.2.5-.5-.2-1.1-.4-1.8-.3-.7 0-1.4.1-2.2.2-.8.2-1.5.4-2.3.5-.7.2-1.4.5-2 .6l-.2-.9c-3.4.9-6.1 2.1-9.1 3.5 2.1.1 5.3-2.3 8.6-2.9-4.2 1.6-8.3 3.5-12.4 5.9-1 .6-2.1 1.2-3.1 1.8-1.1.6-2 1.3-3 1.9l-.7.5-.8.5-1.8 1.2-.1.1H57c-.1.1.2-.1.1-.1l-.1.2-.4.3-.8.6c-.5.4-1.1.8-1.6 1.2.6-.6 1.2-1.1 1.9-1.6.3-.3.6-.5.9-.8h.1c.1-.1-.2.1-.1.1l.1-.1.3-.2.5-.4 2.1-1.5 1.8-1.2c2.6-1.6 5.3-3.2 8.4-4.8-1.6.1-2.8 1.5-4.2 1.5-.4.3-.8.6-1.3.9-.5.4-1.1.7-1.6 1.1l-3.6 2.4c-1.3.9-2.6 1.7-3.7 2.5-1.1.7-2 1.3-2.6 1.6-1.2 1.9-6.1 5.2-9.1 9-1.7 1.1.9-1.4.8-1.7-.6-.3-1.6 2.2-1.9 1.3 1.9-1.8 1.8-1.9 2.8-2-.2-.3.1-.6.4-.9.3-.3.7-.6.5-.9 1-.9 1.1-.5 1.3-.3 0-.6-.1-1.3 2.1-2.4-.3-.4-1.6.4-2.7 1.4-.5.5-1.1 1-1.5 1.5-.4.5-.6.8-.6 1-2.5 1.7-5 4.3-6.1 6.5-.7.9-1 .6-1.3.3.1.3-.6 1-1.2 1.6-.7.6-1.3.9-1.3.3-1.1 1.2-1.4 2-1.8 2.8-.1.4-.3.7-.5 1.1-.1.1-.1.2-.2.3 0 .1-.1.1-.1.2-.1.2-.2.3-.3.5-.2-1-.3.3-.7-.8-.3.1-.5.4-.7.8l-.1.2V104.6l-.1.6-.3 1.2c-.4.2-.5-.4-.6-1.1 0-.3-.1-.7-.1-1 0-.2-.1-.4-.2-.5-.1.2-.1.4-.2.5 0 .2-.1.3-.1.3-.1.1-.2 0-.2 0-.2-.1-.3 0-.4 2.3-.3-1.1-.4-3.3-.9-.1-.7.5-.2-2.8-.6-2.9-.7 0-1 1.9-1.6 2-.4.3-.3-1.3-.8-.8 0-.4-.1-.8-.1-1.2v-1.1c0-.8 0-1.5.2-2.4.2-1.6.6-3.3 1.2-5 1.2-3.4 3.1-6.7 5.5-9.8 4.9-6.3 11.5-11.7 18.7-16.5l2.1-1.4c.7-.4 1.5-.9 2.2-1.4 1.5-.9 3-1.7 4.5-2.6 3-1.6 6.2-3.2 9.6-4.5 3.4-1.3 6.9-2.4 10.6-3.2 3.7-.7 7.6-1.1 11.7-1 4 .2 8.2 1.1 12.2 2.7l1.5.7.7.3.4.2h.1l.3.2.1.1 2.3 1.3c.9.6 1.9 1.4 2.9 2.1.9.7 1.7 1.5 2.5 2.2 3.1 3.1 5.6 6.8 7.5 10.6 1.9 3.8 3.1 7.8 4 11.7 1.1 4.8 1.6 9.7 1.9 14.7 0 1.3.1 2.4.1 3.8v7.1c0 1.2-.1 2.5-.1 3.7-.3 9.8-1.2 19.4-2.2 28.5-1.8 15.5-3.6 29-4.7 41.6-.3 3.2-.5 6.3-.7 9.3-.1 1.5-.2 3.1-.2 4.6l-.1 1.1v3.3c-.1 3.1-.1 6.3-.2 9.4.1 2.9.2 5.9.3 8.8l.1 2.2v1.1l.1 1.1c.1 1.5.2 3 .4 4.6.3 3.1.4 6.2.9 9.3.4 3.1.8 6.3 1.3 9.6.6 3.2 1.2 6.5 1.8 9.9 2.7 13.4 6.7 27.9 13.2 43.8 5.2 12.8 12.3 26.2 20.7 38.8l3.2 4.7 1.6 2.3c.5.8 1.1 1.5 1.7 2.3 1.2 1.5 2.3 3 3.4 4.5l1.7 2.2c.6.7 1.1 1.5 1.8 2.2 2.4 2.8 4.8 5.6 7.1 8.4 2.5 2.6 4.9 5.2 7.3 7.7.5.5.9 1 1.3 1.4l1.1 1.1c.6.6.9 1 1.1 1.1.3.3-.3-.2-1.3-1.1-.2-.2-.5-.5-.8-.7l-.4-.4.1.1v-.1l-.1-.1-.2-.2-1.7-1.7c-1.1-1.1-2.1-2.1-2.5-2.6-1.2-1.3-2.5-2.5-3.7-3.7-1.2-1.2-2.3-2.6-3.4-3.9-1.1-1.3-2.2-2.6-3.3-3.8-.5-.6-1.1-1.3-1.6-1.9-.5-.6-1-1.3-1.5-2l-6-7.8c-1.8-2.7-3.7-5.4-5.5-8.1-7.1-10.9-13.5-22.4-19.3-35.5.2.8.6 1.8 1.1 2.8.4 1.1 1 2.2 1.5 3.4 1.1 2.3 2.2 4.8 3.2 6.7-5.6-10.4-10.8-22.7-14.8-35.5s-6.6-26.2-8.3-38.5c.3.4.4 1 .5 1.9.1.9.2 2 .5 3.4-.1-.6-.1-1.2-.2-1.7 0-.6-.1-1.1-.1-1.7l-.3-3.3c-.2-2.2-.5-4.3-.9-6.5-.3-2.2-.4-4.4-.6-6.8-.1-1.2-.2-2.4-.3-3.7 0-.6-.1-1.3-.1-2v-2c-.4 1.5-.3 3.3 0 5.5.2 2.2.5 4.9.6 8 .1 1.1.4 2.6.1 2.7l-.3-2.7c-.5-5.7-1.3-11.5-1.3-17.1l-.2-4.3-.1-2.1v-2.2c.1-3 .1-6 .2-9V201.6v.2-.6l.1-2.1c.1-1.4.1-2.8.2-4.3.2-2.8.4-5.7.6-8.5.5-5.6 1-11.1 1.5-16.4-1 7.8-2.1 16.1-2.8 24.7-.2 2.2-.3 4.3-.4 6.5v13.4c.2 2.2.3 4.4.5 6.5-.2-.4-.3-.8-.4 0 .1 1.9.1 3.8.2 5.7.1 1.9.3 3.8.4 5.7.1 1.9.3 3.8.4 5.7.2 1.9.5 3.7.7 5.6.5 3.7.9 7.3 1.6 10.8.3 1.8.6 3.5 1 5.3.2.9.3 1.7.5 2.6.2.9.4 1.7.6 2.6-.7-2.3-1-4.6-1.5-6.9-.5-2.3-.9-4.7-1.4-7-.4-2.4-.7-4.8-1-7.2-.2-1.2-.3-2.4-.5-3.6l-.2-1.8-.2-1.8c-.2-2.4-.4-4.9-.6-7.4-.1-1.2-.2-2.5-.3-3.7 0-1.2-.1-2.5-.1-3.7l-.3-7.5c0-2.6.1-5.3.1-7.9-.2 2.6-.3 5.2-.4 7.9 0 2.6.1 5.2.2 8 0 1.4.1 2.8.1 4.2.1 1.4.2 2.9.3 4.4l.3 4.5c.1 1.5.1 3.1.3 4.7.1 1.5.4 1.3.7 1.3.3 4.5.6 9 1.4 13.4.4 2.2.8 4.4 1.1 6.6l.3 1.6.4 1.6c.2 1.1.5 2.1.7 3.2 3.5 16 8.5 31.2 15 45.5 6.4 14.3 14.2 27.9 23.6 40.6 9.3 12.7 20.2 24.7 32.8 35.5 12.6 10.8 27 20.6 43.5 27.7.7.3 1.4.6 2 .9l2.1.9c1.5.6 3.1 1.3 5 1.9 3 1.1 6.2 2.5 9.3 3.4 1 .3 2 .5 3.1.8l.8.2.4.1s-.4-.1-.2 0H260.3l1.7.3 3.3.6c1 .2 2 .3 3 .5 1 .1 1.9.3 2.9.5 1 .1 1.9.3 2.9.5 1.9.4 3.6.7 5.2 1.1 1.2.1 3.2.3 4.6.4 1.4.1 2.1.3.7.2-5.3-.1-10.5-.7-15.1-1.5-1.1-.2-2.3-.4-3.4-.6-.5-.1-1.1-.2-1.7-.4-.6-.1-1.2-.3-1.8-.4-.6-.1-1.2-.3-1.7-.4l-.9-.2-.6-.2c-1-.3-2.1-.5-3-.8-2.1-.5-4.1-1.2-6.2-1.8-2.1-.6-4.1-1.4-6.1-2.1-2-.8-4-1.5-6-2.4-1.9-.9-3.9-1.7-5.8-2.6-7.7-3.7-15-7.9-21.9-12.6-6.9-4.7-13.4-9.9-19.4-15.2-.7-.7-1.5-1.3-2.2-2-.7-.6-1.5-1.4-2.3-2.1-.8-.7-1.5-1.4-2.3-2.2-.7-.7-1.3-1.4-2-2.1-1.4-1.4-2.8-2.9-4.2-4.3-1.4-1.4-2.8-2.8-4-4.3.5.6 1 1.3 1.6 2l1.7 1.9c1.2 1.2 2.3 2.5 3.5 3.7l1.8 1.9.9.9.4.5.1.1-.1-.1.1.1.2.2 3.8 3.7 3.7 3.4 3.9 3.3c2.6 2.2 5.3 4.3 8 6.2 10.9 7.9 22.2 14.4 33.1 19.3 5 2.3 10.8 4.5 16.6 6.2 1.4.5 2.9.8 4.3 1.2l2.1.6c.7.2 1.4.3 2.1.5.7.2 1.5.3 2.2.5.4.1.7.2 1.1.2.3.1.7.1 1 .2 1.3.3 2.5.5 3.7.7 5.6 1 11.4 1.7 17.2 2.1 5.8.4 11.7.3 17.6.1 5.9-.3 11.8-.9 17.7-1.7 5.9-.8 11.8-1.9 17.6-3.2 23.4-5.1 46.3-13.6 69.3-22.1-2.8 1.6-4.9 2.4-6.1 3zM132.7 296.1c-.5-1.5-2-6.9-3.3-8.9.6 1.5 2 5.6 3 8.4.5 1.4.8 2.5 1 2.7.1.2-.1-.3-.7-2.2zm-10.9-41.9c0 2.1.5 5.9 1.3 9.6.9 3.7 1.9 7.5 2.6 9.6-.7-3.5-1.4-6.5-2.2-9.5-.4-1.5-.6-3.1-.9-4.7-.2-1.5-.5-3.2-.8-5zm-5.3-55c.1-1.6.2-3.2.4-4.8-.2.4-.5 3.1-.7 5.9 0 .3 0 .7-.1 1v2.6c0 1.1.1 1.9.2 2.1 0-.9.1-1.7.1-2.4v-1.7c.1-1.1.1-1.9.1-2.7zm200.2 233.3c.3-.3-1-.3-2.4-.1-1.4.2-3 .4-3.1.5 2.6-.2 2.1-.1 5.5-.4zM105.3 75.1c.4-.3-.2-1.4-.3-2-.7-.6-1.4-1.4-2-1.9-.2.2-.6 0-1.1-.3-.7-.4-1.6-.9-2.3-1.3 0-.1 0-.3-.1-.4V69c.1.1-.2-.1.2.1v-.2c0-.1 0-.2.1-.2h.2c-.4-.3-.1-.1-.2-.1.1 0 .2.1.4.1-.1 0-.2 0-.3-.1h-.2c.1.1-.2-.1.2.1h-1.7c-.5 0-.7.2-.2.7-.4-.4-.7-.5-1-.5-.3 0-.7.1-1.1 0 .1.1.6.2 1.1.5.5.3 1.1.6 1.6.8.1 0 .2.1.3.1-.6-.4-.2-.1-.3-.2h.1c.1 0 .1.1.2.1.2.1.3.2.4.1 0 0 0-.1-.2-.3-.1.1-.1 0-.2 0h-.1c.6.4.2.1.3.2 0 0-.1 0-.1-.1-.1-.1-.3-.2-.5-.3l.6.3c-.1-.1.3.2-.3-.2l.1.1.2.1c.1.1.2.2.3.2.4.3.9.6 1.3.8.2.1.4.2.6.4l.3.3c.2.2.5.3.7.5.5.2 1 .7 1.5 1.2.2.2.5.5.8.7.2.3.5.6.7.9zm-24.8-6.8c-1.2 1-4.7 1.8-7.9 3s-6 2.6-5.8 3.4c2.5-1.4 2.1-1.2 4.7-1.8-.4-.4.1-.7.8-.9.7-.2 1.5-.4 1.9-.9.8-.2.6.1 1.3 0 .9-.4 1.3-.6 1.8-.9.3-.1.6-.2 1-.3.4-.1 1-.1 1.8-.2.6-1 4-.8 6.3-1.3V68c-.4 0-.7 0-.6-.2-.8.1-1.3.3-1.9.5-.6.2-1.2.4-2.2.6 0-.2-.4-.2-.8-.2-.3-.1-.6-.1-.4-.4zm7 .9c1.2 0 3.1.1 4.5.3 1.4.2 2.4.2 2-.2-2-.2-5.2-.7-6.5-.1zm-7.3 1.1c1.2-.1 4.9-.5 5.1-1.1-.3.1-.8.1-1.3.2s-1.1.1-1.6.2c-1.1.1-2 .4-2.2.7zM52.9 83.1c-2.4 1.4-.8 1.9.4.6.2.1.4.2 1.3-.4-.1-.6-1.5.3-1.7-.2zm8.9-5.5c-.7.3-1.3.6-1.3.3-.8.4-1.4.8-2 1.2-.6.4-1.2.8-1.7 1.2-.3.2-.5.4-.8.6h-.1c.2-.1.1 0 .1-.1l-.1.2-.2.1c-.1.1-.3.2-.4.3-.5.4-1.1.8-1.9 1.3.4.2 1 .3 2.1-.3.2-.3.4-.6.7-.9l.1-.1c-.1 0 .1-.1-.1.1l.1-.1.3-.2c.2-.2.4-.3.6-.5.8-.6 1.8-1.2 2.7-1.3-.1-.3.1-.7.8-1.2.1.1 1.1-.3 1.1-.6zm104.4 279.6c-1.1-1.1-2.2-2.3-3.2-3.6-.5-.6-1.1-1.3-1.6-2s-.9-1.4-1.4-2.1c-1.9-2.9-3.8-5.8-5.7-8.6 2.1 2.1 8 12.2 11.9 16.3zm-53.4-226.6c1.1-1.9-.2 3.8-.2 6.3-.1-.5 0-1.6-.3-1.5.3-1.4 1.1-4.2.5-4.8zm1.2-23c.1-.5 0-1 0-1.7 0-.3 0-.6-.1-1V104.6v.1-.6c-.1-1.3-.1-2.5.4-3.3.1 1.6.1 2.8.2 3.6 0 .2 0 .4.1.5 0 .2.1.4.1.5.1.3.2.6.3.8-.2.8-.5 1.3-.4 3.5-.2-.7-.3-1.9-.6-2.1-.2-.8 0-.4 0 0zm-.8 1.4c.2.3.2 1.3.5 1.4-.4 1.1-.4 1.4-.4 3.4-.3-.2-.3-.9-.2-1.8 0-.4.1-.9.1-1.5.1-.4.1-.9 0-1.5z"/><path class="st0" d="M299.9 458.4c4.4-1-2.1.2-5 .7-1.9.3-4 .5-5.7.8-1.7.3-3.1.4-3.7.7 1-.1 2.1-.2 3.4-.3 1.2-.2 2.5-.4 3.8-.6 2.5-.3 5.1-.9 7.2-1.3zm-77.6-7.2c-1.8-.8-4.5-1.8-7.1-3.1-1.3-.7-2.5-1.3-3.6-2s-1.9-1.4-2.5-2c4.2 2.8 10.3 5.6 13.2 7.1zm8.7 3.4c-1.3-.3-2.3-.7-3.1-1-.8-.3-1.2-.5-1.3-.6-.1-.1.2 0 .9.2.4.1.8.3 1.4.6.6.2 1.3.5 2.1.8zm-42.3-25.3c.4.3.4.4.3.5 6.6 5.1-.6.8-.3-.5zm-2.8-2c-1.2-.4-4.5-4.4-5.7-4.9-.7-1.3 5.2 4.4 5.7 4.9zM161 403.7c.9-.1 3.5 3.9 5.1 5.6 1.5 2.2-4-4.9-5.1-5.6zm179.6 45.1c-4.8 2.7-7.1 2.9 0 0zm17.7-8.9c-5.3 3.5-6.8 3.5 0 0zm23-10c-4.1 3.7-12.7 8.6-22.6 14.3 1.1-.7 2.7-1.7 4.5-2.8.9-.5 1.9-1.1 2.9-1.7 1-.6 2-1.3 3.1-1.9 4.2-2.5 8.7-5.4 12.1-7.9zm-235.7-34c-.4-.3-.7-.3-.9-.1l-2.1-2.9c.9-.1 1.6 1.9 3 3zm-3.2-.5c-1-.3-3.3-4.2-4.7-5.6 1.5.6 2.4 2.9 4.7 5.6zm-45.7-77.5c.3-.2.9 2 1.4 2.7-.4-.1-.9-1-1.3-.8-.7-1.8.1-1.2-.1-1.9zm1.9 3.9c.1.5.2 1 .6 1.7-.3.6-.8-1-1.1-.8-.4-1.1-.2-1.7.5-.9zm21.1 41.1c-1-1-2.8-3.8-4.5-5.9.7.7 1.5 1.6 2 1.7 1.1 2.2 2.1 2.9 2.5 4.2zm-24.1-47.1c-.3-.2-.5-.5-.7-.4.3-1.3-4-7.2-2-6.4-.1 2.2 2.5 4.8 2.7 6.8zm20.2 40.9c-.7-.6-1.5-1.9-2.4-3.6.6.2 2.2 2.9 2.4 3.6zm-11.8-20c1.2 2-.4 1.1-.6 1.6-.7-1.6.1-2.1.6-1.6zm-17.9-38.9c-.2-1.1-1.8-5.5-2.5-5.6.1-1-.1-1.3-.8-3 .3-.6.7 1 1.1.9.5 3.1 3 6.5 2.2 7.7zm1.9 3.9c.2.6-.2.5.1 1.3-.6-.6-1.4-3.4-2-3.8-.2-1.7 1.4 1.3 1.6 2.7l.3-.2zm-5.1-13.9l-.5.2c-.3-1.1-1.1-2.9-.4-2.5.3 1.1.6 1.2.9 2.3zm-4-9.7c-.1-1.3 1.8 2.4 1.7 3.3-.6.1-1.2-2.5-1.7-3.3zm.8 2.3c.2.5.1.6 0 .6.6.9 1.5.9 1.6 2.7-.4.1-1-2.5-1.4-1.5-.4-1.1-.5-1.7-.2-1.8zm-2.8-10.6c0 1.1.8 2.4 1.3 4.7-.6-.8-1-1.8-1.4-2.7-.2-.5-.4-.9-.6-1.3-.2-.4-.4-.7-.6-1-.1-1.8 1-.1 1.3.3zm-15.5-34.5c.3.5.2.8 0 .8-.2.1-.6-.2-.9-1 .2 0 .5.4.6.3-.6-1.3-.8-1.4-1.1-1.4-.1 0-.2 0-.4-.1.2.3 0 .1.1.1h-.1l-.1-.1c-.1-.1-.2-.2-.3-.4.6.3.4 0 0-.4-.4-.5-.9-.9-1-1.1.4.1.9.5 1.5 1.1.1.2.3.3.4.5l.1.1c-.2-.3 0-.1-.1-.1l.1.1.2.3c.4.4.7.9 1 1.3zM413.5 403c4.4-3.1 13.9-12 19.7-16-7 6-10.9 9.4-18.4 15.8.3.2 2-1.6 2.9-2.2-11.3 9.8-20.8 17.5-30.2 24.3-4.7 3.4-9.3 6.6-14.1 9.7-2.4 1.6-4.9 3-7.3 4.6-1.3.7-2.5 1.5-3.8 2.2-1.3.8-2.6 1.5-3.9 2.2-1.6 1-.7 1-1.2 1.5l-2.7 1.5-2.8 1.4-2.8 1.4-2.7 1.3c.2-1.1-1.9-.1-3.2.1-1.5.6.7.6-.8 1.1.2.3 1.5-.3 2.8-.9-7.2 3.6-16.4 7.4-26.8 10.5-10.3 3.2-21.8 5.4-33.1 6.5-.4.4-3.5.2-2.9.8-2.2-.2-4.3-.3-6.4-.2-2.1 0-4.2 0-6.3.1-4.2 0-8.5 0-13-.7 1.2.7-2.2-.3-4.1 0-1.5-.2-.7-.2-.5-.4-1-.1-2-.3-3.1-.4l-.8-.1-.8-.2-1.6-.3-3.2-.7-.8-.2-.4-.1h-.1.1l-.2-.1-1.5-.4c-2-.6-4.1-1-6.1-1.7s-4-1.3-6-2c-7.9-2.9-15.4-6.6-22.3-10.8-6.9-4.1-13.3-8.7-18.9-13.2-5.6-4.6-10.7-9.1-15-13.2-1.6-1.8-3.2-3.8-5.1-5.8-1.8-2.1-4-4.2-6.3-6.6-7-8.2-14-17.9-20.7-25.2.1-.4.5.2 1 .8-1.3-2.1-3.2-4.8-5.2-7.7-1.9-2.9-4-5.8-5.8-8.3-.7-1.1 0 .9-.7.5-.8-1-1.9-3.5-2.4-3.5-1-2.6 1.9 2.9 1.9 1.7-.9-1.8-2-3.6-3.2-5.2-1.2-1.7-2.4-3.3-3.6-4.8-8.9-16-19.7-35-25-47.8-.8-.8.7 2.6-.3.8-.3-1-.6-1-.8-1-.7-2.1.6 0 .4-1.5-4.9-10.5-6.5-15.6-9.9-22.9 1.1 1.1-.3-1-.2-1.9-1.2-2.1-2.3-3.3-3.5-7.2.5-.3 1.5 3.6 2.5 5-.6-2-1.3-4-1.9-5.9-.6-1.9-1.2-3.9-1.8-5.8-1.3-3.9-2.7-7.8-4.6-11.9-.6.8 1.2 3.5.4 3.7-1.7-4-2.8-7-3.5-10.9.2.1.4 1.1.7 1-.2 0-.7-1.6-1.3-3.1-.6-1.5-1.3-2.9-1.8-2.7-.4-2.8-1.6-4.9-2.9-5.1-.4-1.5-1.3-3.6-1.2-4.5-.4-.5-.3.3-1.2-1.3.3 2.3 1.2 3.6 3.1 8 .7.9.2-.4.8-.3.8 2.4-.4.7.2 3 .8 2.1 1.4 3.2 1.9 4.3.5 1.1 1 2.2 1.6 4.5-1.5-.9-2.6-6.2-4-9.2-.6-.8-2.2-3.6-2.2-3.4-.7-.6-.3-1.2.3-.7-.6-1.2-1-2.1-1.5-2.7-.4-.7-.8-1.1-1.1-1.3-.6-.6-1.1-.6-1.5-.8-.5-1.4-.3-1.8.4-1.4-.3-.4-.6-.9-.9-1.4l-1.2-1.8-.1-.2v-.1s.1.2.1.1l-.1-.1-.3-.4c-.2-.2-.3-.4-.5-.6-.3-.4-.6-.7-.8-.8-.2-.2-.4-.3-.6-.3h-.2s.1.1 0 .1-.3-.1-.4-.1h-.1l.2.1h-.1l-.1.1-.2.2c-.1.2-.2.3-.3.6 0-.2 0-.4-.3-.4-.2.4-.4.3-.9.4-.2 0-.5.1-.8.2-.2.2-.4.4-.5.7-.7-.2-1.6.3-2.5.9-.4.3-.9.7-1.2 1.1l-.3.3c-.1.1-.1.2-.2.2-.1.2-.2.2-.5.5l-.5-.7c-.2.2-.3.3-.5.4l-.1.1.1-.1-.1.1-.2.2c-.3.3-.5.5-.7.8-.5.5-.9 1-1.4 1.5-.8 1.1-1.6 2.1-2.4 3.2.8-.3 1.6-1.2 2.4-2.4.4-.6.9-1.1 1.3-1.7.2-.3.5-.6.7-.8l.4-.4.2-.2h.1c-.1.1.2-.1-.1.1l.1-.1c-4.7 5.9-8.8 12-10.9 19.6.2-1.2.5-2.4.9-3.5.2-.6.4-1.1.6-1.7.2-.5.5-1.1.7-1.6.3-.5.5-1.1.8-1.6.3-.5.6-1.1.9-1.6.6-1.1 1.3-2.2 2-3.4-1.1.6-1.4 2.1-2.3 2.6-.3.7-.7 1.6-1.1 2.6-.4 1-.9 2.1-1.4 3.2-.4 1.1-.9 2.1-1.2 3-.3.9-.7 1.6-1 2 0 .4.1 1.1 0 1.7-.1.7-.3 1.5-.4 2.4-.1.9-.3 1.8-.4 2.8 0 1-.2 2-.1 3-.3.8-.3.4-.4-.1-.1-.5 0-1.3-.1-1.3-.3 0-.3.6-.3 1.1 0 .5.1.9-.4.7.1-1.1.1-1.6.2-1.9.1-.3.2-.5.6-.8-.8-.2.1-1.3-.6-1.6.2-1 .5-.8.8-.8-.4-.4-.9-.8 0-2.5-.5-.1-.9 1-1.1 2.1-.2 1.1-.1 2.3.1 2.5-.2.6-.3 1.2-.5 1.8-.1.6-.1 1.3-.2 1.9 0 .3 0 .6-.1 1 0 .3 0 .6.1.9.1.6.1 1.2.2 1.8 0 1-.4 1-.8.9.3.1.2 1.1 0 1.9-.2.8-.5 1.5-.8 1-.1 1.5-.1 2.6 0 3.3 0 .4.1.7.1 1.2 0 .4 0 .8.1 1.7-.5-.8-.5-.7-.5-.5 0 .1 0 .2-.1.1-.1 0-.3-.2-.5-.4-.2.2-.2.8-.1 1.5s.2 1.5.3 2.1c-.6.7-1.3-1.7-1.9-2 .7 2.5-1-.6.4 3.1-.7-.8-1.5-2.5-.8.3-.5.6-1-2.1-1.6-2.1-.6.3-.2 1.9-.8 2.2-.3.4-.7-1-1-.3-.7-1.2-1.4-2.5-1.9-3.8-.3-.7-.5-1.3-.8-2-.2-.7-.4-1.4-.7-2.2-.9-2.9-1.4-6.2-1.6-9.6-.1-3.4 0-7 .7-10.6l.2-1.4c.1-.5.2-.9.3-1.3.2-.9.5-1.8.7-2.7l.9-2.7.5-1.3.6-1.3c2.3-5.5 5.6-10.8 9.6-15.5l1.5-1.8 1.7-1.7.8-.8.4-.4.2-.2.1-.1.1-.1.1-.1.8-.8 1.1-.9c2.7-2.1 5.8-4 9.5-5.2 1.9-.6 4-.9 6.3-.8.6 0 1.2.1 1.7.2.6.1 1.2.2 1.8.4.6.1 1.2.3 1.7.6l.9.3.7.3c.3.2.7.4 1 .6.3.2.5.3.8.5.5.4 1 .7 1.4 1.1.9.8 1.7 1.6 2.3 2.4.7.8 1.2 1.6 1.7 2.3l1.4 2c3.7 5.7 6.5 11.7 8.7 17.8 1.4 3.7 2.6 7.5 3.8 11.3.6 1.9 1.1 3.8 1.7 5.7.3.9.6 1.9.9 2.9l.4 1.4.4 1.3c1.2 3.8 2.4 7.8 3.7 11.4.6 1.8 1.2 3.6 1.9 5.4.7 1.8 1.3 3.6 2 5.4 4.5 12.1 9.2 22.5 14 32.2 4.8 9.7 9.7 18.7 15.2 27.7s11.4 18 18.3 27.7c.9 1.2 1.8 2.4 2.7 3.7.9 1.2 1.9 2.5 2.8 3.7 1.9 2.5 3.8 5.1 5.9 7.7 1 1.3 2.1 2.6 3.1 4 1.1 1.3 2.2 2.7 3.3 4 1.2 1.5 2.3 2.7 3.5 4 .6.7 1.2 1.3 1.7 2 .6.7 1.2 1.4 1.9 2 8 8.8 17.4 17.7 27.6 25.3 5.1 3.8 10.4 7.2 15.8 10.3 2.7 1.4 5.3 3 8.1 4.2 1.3.6 2.7 1.3 4 1.9 1.3.6 2.7 1.1 4 1.7.6.3 1.1.5 1.6.7.5.2.8.3 1.1.4.6.2 1 .4 1.1.4.3.1-.3 0-1.3-.3s-2.3-.8-3.5-1.2c-1.2-.5-2.3-.9-2.8-1.1l-1-.4-1-.4c-.7-.3-1.3-.6-1.9-.9-1.3-.6-2.6-1.1-3.8-1.8-2.5-1.3-5-2.5-7.3-4-1.2-.7-2.4-1.4-3.5-2.1-1.1-.8-2.3-1.5-3.4-2.3l-1.7-1.1-1.7-1.2-3.3-2.4c-4.3-3.3-8.6-6.8-12.8-10.7-4.3-3.8-8.4-7.9-12.7-12.4 1.8 2.3 5.6 6.4 8.4 8.8-.9-.8-1.9-1.7-2.8-2.6-1-.9-1.9-1.8-2.8-2.8-1.9-1.9-3.8-3.9-5.7-5.9-1.9-2-3.7-4.1-5.6-6.3-1-1.1-1.9-2.3-2.9-3.4l-1.4-1.6-1.4-1.7c-7.3-9.2-14.3-18.8-20.3-27.7.9.4 1.3 1.7 2.9 3.8-1-1.8-2-3.4-3.1-5-1-1.6-2-3.2-3.1-4.7-2.2-3.2-4.3-6.6-6.7-10.8.3 1.3 1.2 2.7 2.2 4.3 1.1 1.6 2.4 3.6 3.7 5.9.5.8 1.3 1.9 1.1 2.1l-1.3-2c-5.6-8.2-10.9-17-15.6-25.7-4.7-8.8-9-17.5-13-25.6 5.2 12.2 11.7 26.1 20.3 39-.3-.2-.6-.5-.3.2 6.9 11.7 14 22.5 21.3 32.2-10-12.9-19.2-27.2-28-42.8 3.6 7.9 8.9 15.7 14.6 25.2.6 1.1.8.8 1.1.7 1.8 3.5 4 6.7 6.1 10 2.2 3.2 4.5 6.3 6.6 9.4 16.8 23 34.6 43.1 56.7 57.8 2.7 1.9 5.6 3.5 8.5 5.2 1.5.8 2.9 1.6 4.4 2.3.7.4 1.5.8 2.2 1.1l2.3 1 2.3 1.1 1.1.5 1.2.5c1.6.6 3.1 1.2 4.7 1.9 1.6.6 3.2 1.1 4.8 1.6.8.3 1.6.6 2.4.8.8.2 1.7.4 2.5.7.8.2 1.7.4 2.5.7l.6.2.3.1H242.2c-.5-.1-.1 0-.2-.1l1.4.3c1.9.4 3.7.8 5.6 1.2 1.7.2 3.3.5 5 .7l1.3.2 1.3.1 2.7.3c7.2.6 14.7.7 22.4.1 1.3-.1 2.5-.2 3.9-.3 1.4-.1 2.9-.2 4.6-.5 1.4-.2 2.8-.3 4.2-.4 1.4-.1 2.9-.3 4.3-.5 1.8-.3 3.6-.7 5.4-1.2 1.8-.5 3.6-.9 5.3-1.4 1.7-.5 3.4-1 5-1.3 1.6-.3 3.1-.7 4.6-.8 2-.6 6.6-2.1 4.5-1.2-8.6 3.4-17 5-24 6.4-3.7.8-7.3 1.3-11 1.8-1.8.2-3.7.4-5.5.5-1.8.2-3.6.2-5.5.3-7.3.3-14.5.1-21.4-.7-.9-.1-1.7-.2-2.5-.3l-2.5-.4c-.8-.1-1.6-.2-2.5-.4l-2.7-.6-2.7-.6-.7-.1-.3-.1H241.9c.1 0-.3-.1.2.1l-1.2-.3c-1.6-.4-3.3-.9-4.9-1.3-6.5-2-12.7-4.3-18.6-7.2 2.5 1.3 5 2.6 7.7 3.7 1.3.5 2.6 1.1 3.9 1.6l4 1.4 2 .7 2.1.6 4.1 1.1.5.1.3.1c.2.1-.3-.1-.2-.1h.2l1.1.2 2.2.5 2.2.4 1.1.2c.4.1.7.1 1 .1 2.7.3 5.3.8 8.1 1 1.4.1 2.8.2 4.1.4 1.4 0 2.7.1 4.1.1 2.7.2 5.4 0 8.1.1 2.6 0 5.3-.2 7.8-.3 2.4-.2 4.9-.4 7.4-.7 1.3-.2 2.6-.4 3.9-.5 1.3-.2 2.6-.3 3.9-.6 2.6-.5 5.1-.9 7.5-1.4 2.4-.5 4.8-1 6.9-1.5 9.7-2.2 19.3-5.5 28.6-9.5 2.3-1 4.6-2.1 6.9-3.2l.2-.1.1-.1h.1c-.2.1 0 0-.1 0l.4-.2.9-.5 1.8-.9c1.2-.6 2.4-1.2 3.5-1.8 4.4-2.4 8.8-4.9 13.2-7.7 17.5-10.9 33.8-23.9 50.3-36.9-1.5 1.9-3 3.1-3.8 3.9zm-250 1c-.4-.5-1.4-1.8-2.4-3.1-.5-.7-1.1-1.3-1.6-1.9l-.8-.8.1.1-.1-.1-.2-.2-.3-.3c.2.3.5.6.9 1 .4.5.9 1 1.3 1.6 1 1.1 2 2.4 2.8 3.4 1.6 1.9 2.4 2.9.3.3zm-23-30.1c1.4 3.5 7.3 11 10 13.9-3.6-5-6.5-8.6-10-13.9zM113.6 334l-1.8-3.7c0 .4 1 2.5 2.1 4.6 1 2.1 2.3 4.1 2.7 4.3-1.5-2.7-2.3-4.1-3-5.2zm237.1 114.3c.1-.4-.9 0-2 .6-.2.1-.5.3-.7.4-.3.1-.5.3-.7.4-.4.3-.7.5-.8.5 1-.4 1.4-.6 1.9-.8h.1s-.1.1-.1 0c.1 0 .1-.1.2-.1.1-.1.3-.1.5-.2.5-.3 1-.5 1.6-.8zM63.1 236.2c.5-.2.1-1.3.1-2l-.8-1.3-.3-.5-.3-.5c-.3.1-.6-.2-1-.5s-.7-.7-1.1-.9c.2-.3 0-1 .7-.8-.5-.1-1-.1-1.3.1-.2.2-.3.4-.4.6-.1-.2.1-.1-.1-.2-.1 0-.2-.1-.3-.1h-.1c.1 0-.2-.1.2.1h-.1c-.2.1-.3.2-.5.2l.1.1s.1 0 .1.1h.1c-.1 0 .2.1-.2-.1h.1l.2.1.1.1s-.1-.1 0 0 .2.1.3.2l.4.2c.1 0 0-.2-.3-.6 1.2 1.1 2.9 2.6 4.4 5.7zm-14-2.5c-.1.3-.1.5-.6 1-.1.1-.2.2-.3.4l-.1.1.1-.1-.1.2c-.2.2-.4.5-.6.7-.4.5-.9 1-1.4 1.5-.5.5-1 1.1-1.4 1.6-.5.5-.9 1-1.3 1.5s-.7 1-1 1.4c-.5.9-.7 1.5-.4 1.8 1.3-2 1-1.7 2.7-3.1-1-.5 1.1-1.5 1.2-2.5.5-.5.6-.1 1-.5.5-.7.7-1 1-1.4.2-.2.3-.4.6-.7.1-.1.2-.1.2-.2-.1 0 .1-.1-.1.1l.1-.1c.1 0 .1-.1.2-.1.1-.1.3-.2.4-.3.1 0 .1-.1.2-.1s.1-.1.2-.1c0-.2 0-.4.2-.7.2-.2.6-.5 1-.7.8-.5 1.7-.9 2.4-1.5l-.1-.3c-.2.1-.5.2-.5 0-1 .7-1.1 1.3-2.3 2.1-.1-.1-.4 0-.6.1-.5.1-.7.1-.7-.1zm5-1.2c.7-.3 1.8-.6 2.3-.8.5-.1.8-.3.7-.6-.3.1-.8.2-1.5.4-.5.2-1.2.6-1.5 1zm-4.1 2.9c.2-.1.3-.2.7-.4.3-.2.7-.5 1-.7.6-.5 1.2-1 1.1-1.3-.3.3-1.1.7-1.8 1.2-.3.2-.7.5-.8.7-.2.2-.3.4-.2.5zm-13.7 19.7c-.5.9-.3 1.4 0 1.4s.6-.4.7-1.1c.2 0 .4 0 .7-.7-.5-.4-1 .7-1.4.4zm3.4-7.2c-.3.5-.7 1-.8.7-.8 1.2-1.1 2.2-1.4 3.1-.1.4-.3.9-.4 1.4-.1.5-.3 1-.6 1.6.4 0 .9-.2 1.4-1-.1-.5 0-1.2.1-1.9.2-.7.5-1.4 1.2-1.9-.2-.2-.3-.6-.1-1.2.2.1.7-.6.6-.8zm168 195.4c-1.2-.4-2.4-1.1-3.6-1.8-1.2-.7-2.4-1.5-3.5-2.3-2.3-1.7-4.6-3.5-6.9-5.2.6.2 1.4.9 2.5 1.6 1.1.8 2.4 1.7 3.7 2.7 1.3 1 2.8 2 4.1 2.9 1.4.8 2.6 1.6 3.7 2.1zm-127-158.6c.3-2 1.2 3.1 2.2 5.1-.3-.3-.6-1.3-.9-1-.3-1.3-.6-3.9-1.3-4.1zm-6.1-19.4c-.2-1.6-2-4.3-1.4-5.9.9 2.8 1.2 3.9 1.9 4.5 0 .8-.2 1.2.4 3-.4-.5-.7-1.5-1.1-1.6-.1-.6.1-.3.2 0zm-.4 1.4c.3.2.5 1 .8 1-.1 1 0 1.3.6 3-.6-.1-.6-2.3-1.4-4z"/><path class="st0" d="M307.5 392c4.7 1.9-2.2-1.1-5.1-2.5-4-1.9-8.5-4.4-9.8-4.7 4 2.2 10.5 5.4 14.9 7.2zm-73.2-54.9c-.8-.8-1.7-1.9-2.8-3-1-1.1-2.1-2.5-3.1-3.8-1-1.3-2-2.6-2.9-3.8-.9-1.2-1.4-2.3-1.8-3.2 1.5 2.5 3.7 5.1 5.6 7.6 1.8 2.6 3.8 4.7 5 6.2zm7.4 8.1c-4.6-4.1-5.8-6.4 0 0zm-32.5-46.6c.3.5.2.6.1.7 4.4 8.2-.9.5-.1-.7zm-1.9-3.4c-.5-.5-1.2-2.1-1.8-3.7-.6-1.6-1.1-3.3-1.6-3.8 0-1.7 3 6.9 3.4 7.5zm-12.1-35.1c.4.2.7 1.5.9 3.1.1.8.2 1.7.3 2.5.1.8.2 1.6.4 2.2.1.7 0 .7-.1.2-.1-.3-.2-.6-.3-1.1-.1-.4-.2-1-.2-1.5-.3-2.2-.7-4.9-1-5.4zm156.4 146.7c-3.1-.1-5.3-.3-5.5-.5-.1-.1.2-.1 1 0 .9.1 2.3.2 4.5.5zm22.2 1.1c-7.3.4-8.8-.3 0 0zm28.2 2.2c-6.1 1.2-17.2 1.6-30.2 1.8 1.5-.1 3.6-.2 5.9-.3 2.4-.1 5.1-.1 7.9-.3 2.8-.2 5.7-.3 8.5-.5s5.5-.5 7.9-.7zM186.5 243.4c-.2-.5-.4-.7-.7-.7 0-1.4-.1-2.7 0-4.1.4.3.4 1 .4 1.8.1.9.1 2 .3 3zm-2.3-2.7c-.4-.5-.3-2-.3-3.6.1-1.7.2-3.5.1-4.6.4.9.4 1.9.3 3.3 0 .7-.1 1.4-.2 2.2 0 .8 0 1.7.1 2.7zm35.2-93.2c.4.2-1.5 2-2 2.8-.1-.4.6-1.4.2-1.6 1.4-1.7 1.2-.7 1.8-1.2zm-2.9 3.9c-.4.4-.8.8-1.4 1.5-.7.1.6-1.3.3-1.5.8-.9 1.6-1.1 1.1 0zm-25.4 45.4c.1-.8.4-2.1.8-3.6.2-.7.4-1.5.6-2.3.2-.8.5-1.5.7-2.2-.2 1.1-.6 2.4-.3 2.9-1 2.5-.9 3.9-1.8 5.2zm30-51.5c.1-.4.3-.7.1-.9 1.4-.4 5.5-7.6 5.5-5.2-2.3 1.1-3.7 5-5.6 6.1zM193.8 189c.1-1 .7-2.6 1.6-4.6.2.6-1.1 3.9-1.6 4.6zm11.1-23.9c-1.2 2.3-1.2.3-1.8.5 1.2-1.7 2-1.3 1.8-.5zm30.9-37.5c1-.7 5.1-4.2 5-4.9 1.1-.3 1.4-.6 2.9-2 .7.1-.9 1.1-.7 1.4-.8.4-1.6 1-2.3 1.6-.7.6-1.4 1.3-2 1.9-1.2 1.2-2.2 2.1-2.9 2zm-3.5 3.5c-.6.5-.6.1-1.2.7.2-.4.9-1.2 1.7-1.9.8-.7 1.5-1.4 1.6-1.8 1.7-.9-1 1.9-2.3 2.7l.2.3zm12.9-10.8l-.3-.4c1-.7 2.7-2.3 2.5-1.4-1.1.7-1.2 1.1-2.2 1.8zm9.1-7.6c1.3-.6-2 2.6-3.1 2.8-.2-.5 2.4-2 3.1-2.8zm-2.2 1.6c-.5.3-.6.3-.7.2-.4.4-.5.9-.8 1.3-.3.4-.7.8-1.7 1.3-.1-.2.5-.7 1-1.1.5-.4.8-.8.3-.8 1.1-.8 1.8-1.2 1.9-.9zm10.7-6.4c-.6.2-1.2.6-2 1.1-.4.3-.8.5-1.3.8-.3.2-.5.3-.8.5-.3.2-.5.3-.8.5l.6-.6.3-.3.2-.1.1-.1.1-.1c.5-.4 1-.7 1.4-1.1.9-.7 1.8-1.3 2.2-1.9 2-.8.4.8 0 1.3zm41.3-20.3c-1.2.4-1.5-.6.5-.9-.1.2-.7.3-.6.5 3.2-.5.8-.9 3.3-1.4-.8.6-.3.4.6.1 1-.3 2.4-.7 3.6-.9-1.3.5-2.6.9-3.9 1.3-1.2.5-2.4.9-3.5 1.3zm144.6 313.9c6.1-.6 20.5-3.8 28.5-4.3-10.4 1.7-16.2 2.7-27.1 4.7.2.4 2.9-.4 4.1-.5-16.7 3.1-30.3 5.5-43.3 7.1-13 1.6-25.3 2.7-39.2 2.7-2.1.1-1.3.6-2 .7-4.7 0-9.3-.3-14-.6.8-.8-1.9-1.1-3.2-1.6-1.8-.3.4.9-1.4.6.1.4 1.6.6 3.3.7-2.3-.2-4.6-.4-7.1-.6-2.5-.3-5-.7-7.6-1.1-.7-.1-1.3-.2-2-.3-.7-.1-1.4-.3-2.1-.4-1.4-.3-2.9-.6-4.3-.9-.7-.2-1.5-.3-2.2-.5l-.3-.1h-.2c.3.1.1 0 .1 0l-.5-.1-1.1-.3c-1.4-.4-2.9-.8-4.3-1.2-11.6-3.4-23.7-8.6-34.9-14.9-.6.1-3.4-2.1-3.2-1.2-1-.8-2-1.5-3-2.2l-3-2.1c-1-.7-2-1.3-3-2s-2.1-1.3-3.1-2c-2-1.3-4-2.7-6-4.1-1-.7-2-1.4-3.1-2.2-1-.8-2-1.6-3-2.5.8 1.4-1.9-1.6-4-2.5-1.3-1.1-.6-.6-.3-.7-7.4-6.1-14.7-12.6-21.2-19.7-3.4-3.4-6.4-7.2-9.5-10.7-1.5-1.8-2.9-3.7-4.3-5.6-.7-.9-1.4-1.8-2.1-2.8-.7-.9-1.3-1.9-2-2.8-1.3-1.9-2.6-3.7-3.9-5.6-1.2-1.9-2.3-3.8-3.5-5.6-.6-.9-1.1-1.8-1.7-2.8-.5-.9-1-1.9-1.5-2.8-1-1.9-2-3.7-3-5.5-.9-1.8-1.7-3.6-2.6-5.4-.4-.9-.8-1.8-1.3-2.6-.2-.4-.4-.9-.6-1.3-.2-.4-.4-.9-.5-1.3l-2.1-5.1c-.3-.8-.7-1.6-1-2.4-.3-.8-.6-1.6-.8-2.4-.3-1.3-.7-2.7-1-4l-.6-2.1c-.1-.4-.2-.7-.3-1.1-.1-.4-.2-.7-.3-1.1-.4-1.5-.8-3-1.2-4.7-.4-1.6-1-3.3-1.4-5.1-.2-1.5-.5-2.9-.7-4.4-.2-1.5-.6-2.9-.7-4.6-.2-1.6-.3-3.2-.5-4.7l-.2-2.4-.1-1.2v-1c-.1-3.1-.3-6.1-.4-9.1 0-3-.1-5.9-.3-8.6.3-.2.3.6.3 1.4.1-.7.1-1.4.2-2.2.1-.8.2-1.6.4-2.5.2-1.7.5-3.6.7-5.5.1-1 .3-1.9.5-2.9s.3-1.9.5-2.8c.3-1.9.6-3.7.9-5.4.4-1.5-.7.7-.9-.2.3-1.4 1.4-4.2 1.1-4.6 1.4-2.8-1 3.8 0 2.8.8-2.1 1.4-4.3 1.9-6.6.6-2.2 1.1-4.4 1.6-6.5.5-1.2.9-2.4 1.4-3.6.5-1.2 1.1-2.4 1.6-3.6.5-1.2 1.1-2.5 1.6-3.7.3-.6.5-1.3.8-1.9l.9-1.8c1.2-2.4 2.4-4.9 3.6-7.3 1.3-2.4 2.7-4.7 4-7 .6-1.2 1.3-2.3 2.1-3.4l2.1-3.3c.7-1.1 1.4-2.1 2-3.2.7-1 1.5-2 2.2-3 1.4-1.9 2.8-3.8 4.1-5.5 1.4-1.7 2.8-3.2 4.1-4.7.5-1.2-2.3 2-.8.2.8-.8.8-1 .7-1.3 1.8-1.8.2.6 1.6-.4l1.5-1.8c.5-.6 1-1.1 1.5-1.6 1-1 1.9-2 2.8-2.9.9-.9 1.7-1.8 2.5-2.6s1.6-1.5 2.4-2.3c3.2-2.9 5.8-5.6 9.2-8.6-.9 1.5 1-.7 1.9-.9 1.9-2 2.8-3.7 6.7-6.1.2.2-.6.9-1.7 1.7-.5.4-1.1.8-1.7 1.3-.5.5-1 .9-1.3 1.3.5-.4 1-.7 1.4-1.1.5-.3 1-.6 1.5-1 1-.6 1.9-1.3 2.9-1.9 1.9-1.3 3.8-2.6 5.7-3.8 3.9-2.5 7.8-5 12.1-8-1-.4-3.7 2.1-4 1.4 4.1-2.8 7.4-4.6 11.8-6-.1.2-1.2.7-1.2.9.1-.4 7.1-3.2 6.7-4 3.3-.7 5.9-1.9 6.3-3.2 1.9-.4 4.6-1.2 5.6-1 .7-.4-.3-.4 1.9-1.1-1.4 0-2.6.2-4.1.7-.8.2-1.6.5-2.6.9s-2.1.8-3.5 1.3c-1.1.7.5.2.3.8-2.9.9-.8-.4-3.6.4-2.6 1-3.8 1.8-5 2.4-1.3.7-2.5 1.4-5.1 2.5.9-1.7 7-3.9 10.7-5.5.9-.7 4.5-2.5 4.4-2.5.9-.7 1.5-.3.8.3 6.3-2.3 6.2-3 7-4 2-.4 2.4-.1 1.7.6 1.4-.5 2.9-1 4.6-1.4 1.6-.5 3.3-.9 4.9-1.3 3.1-.9 5.6-1.7 6.2-2.8.7 0 .8.2 2.2 0 .5-.5 2-.7 3.4-1 1.5-.2 2.9-.5 3.6-1.2 2.8.3 7.7-1 10.8-1.5l.1.9c2.1-.3 4.1-.5 5.9-.7 1.9-.2 3.7-.4 5.6-.6-1.2-.4-2.9-.2-4.8 0-1.9.3-4 .7-6.1.7 10.9-2.1 21.3-2.6 33.8-1.9-7.7 0-14.2-.1-22.2.6 1.7.5 3.7-.4 5.1.3 1.1-.2 2.5-.3 4.1-.4 1.6-.1 3.4-.1 5.2-.1 1.8 0 3.5.1 4.9.3 1.5.1 2.7.3 3.5.5 2.5-.7 9.3.4 15.8 1.4 2.5 1-2.3-.2-2.4.1.1.6 3.6.4 2.8 1.1-3.4-.8-3.3-.6-4.3-1.4-.2.8-2-.3-2.4.4-1.6-.3-1.3-.5-1.4-.8-.6.4-1 .9-3.8 0 0 .5 1.7.9 3.5 1.1 1.8.3 3.6.4 3.9.2 1.8.5 3.8 1.1 5.9 1.6 2 .6 4 1 5.8 1.3 1.6.6 1.4.9 1.2 1.3.3-.2 1.7.4 2.8 1.1 1.1.7 1.9 1.4 1 1.4 1.1.6 1.9 1 2.7 1.4l2 1c.6.3 1.2.6 1.9 1 .3.2.7.4 1 .6.3.2.7.4 1 .7-2.1-.5.5.5-1.6.2.3.7 2.2 1.7 3.3 2.6.1.9-2.3-.3-3-.1 2.6 1.3-1.2.3 2.9 2-1.1-.1-3.1-.8-.4.8.2.8-2.5-.8-2.8-.4-.2.6 1.4 1.6 1.2 2.2.1.5-1.3-.2-1 .5-12-3.6-27.2-6.5-43.1-7-24.7-.9-51.3 4.5-75.5 15.1-7.3 3.2-15 7.1-22.3 11.7l-.7.4-.3.2-.1.1c-.1 0 .4-.3.2-.1l-.2.1-1.4 1-2.8 1.9-2.8 1.9c-.9.6-1.9 1.3-2.7 1.9-1.6 1.3-3.3 2.6-4.9 3.8-.8.6-1.6 1.3-2.4 1.9-.8.7-1.6 1.4-2.3 2.1-10.6 9.2-18.8 18.7-25.6 28.3-6.7 9.6-11.9 19.5-16 30-4 10.5-7 21.8-8.3 34.4-.5 3.1-.5 6.4-.6 9.7 0 .8-.1 1.7-.1 2.5s.1 1.7.1 2.5c.1 1.7.1 3.4.2 5.2v1.3c-.1-.8 0-.2 0-.4.1.5.1 1 .2 1.5.1 1 .2 2 .3 2.9l.3 3c.1.5.1 1 .2 1.5l.1.8.1.7c.3 1.8.7 3.5 1 5.4.2.9.3 1.8.5 2.8.2 1 .5 1.9.7 2.9 3 12.5 8.4 25.8 15.5 38.4 7.1 12.5 16 24.1 25 34.1 4.2 4.5 3.7 4.2 2.1 2.5-1.6-1.7-4.6-4.7-5.4-5.7-9-10.1-16.2-20.3-22.3-31.1-6.1-10.8-11-22.2-14.7-35.1.1.8.3 1.7.5 2.8.3 1 .6 2.2 1 3.3.4 1.2.7 2.3 1.1 3.5.2.6.4 1.1.6 1.6l.6 1.5c-2.1-5.1-4-10.7-5.4-16.6-.2-.7-.4-1.5-.6-2.2-.1-.7-.3-1.4-.4-2.2-.3-1.4-.5-2.9-.8-4.4-.1-.7-.3-1.4-.4-2.2l-.3-2.5c-.2-1.7-.4-3.4-.5-5.1l-.1-1.3-.1-.6v-.1.4-.4l-.1-2.3c0-1.6-.1-3.1-.1-4.7-.1-1.6 0-3.1.1-4.7s.1-3.1.2-4.6v-1.2l.1-1.1c.1-.8.2-1.5.3-2.3.2-1.5.3-3 .5-4.5l.1-1.1.2-1.1c.1-.7.3-1.5.4-2.2.3-1.5.5-2.9.8-4.3.3 1-.3 2.3-.7 5 .6-2.1 1-4.1 1.4-6.1.5-2 1-3.9 1.5-5.9.2-1 .5-2 .7-3 .3-1 .7-2.1 1-3.1.4-1.1.7-2.2 1.1-3.3.4-1.1.8-2.3 1.3-3.5l-.6.9c-.2.4-.3.7-.5 1.1-.3.8-.6 1.7-.9 2.7-.3 1-.6 2.1-1 3.3-.2.6-.4 1.2-.6 1.9-.2.7-.4 1.3-.6 2-.3 1-.6 2.4-.8 2.4l.7-2.5c2.6-10.4 6.8-20.7 11.9-30.2 5.1-9.6 11.3-18.2 17.5-25.8-4.9 5.3-9.5 11.6-14 18.4-4.2 6.9-8.2 14.3-10.8 22.3 0-.4 0-.8-.3-.1-5.5 13.6-8.8 27.4-9.6 40.3.1-2.2.4-4.4.5-6.6l.3-3.3.6-3.3.6-3.3c.2-1.1.4-2.2.7-3.3.5-2.2 1.1-4.4 1.7-6.7.2-1.1.7-2.2 1-3.3.4-1.1.7-2.2 1.1-3.3.4-1.1.7-2.2 1.1-3.3.4-1.1.9-2.2 1.3-3.3.4-1.1.9-2.2 1.3-3.3.4-1.1.8-2.2 1.4-3.3 1-2.2 2.1-4.4 3.1-6.6-1.2 2.1-2.3 4.2-3.4 6.4-.6 1.1-1 2.3-1.5 3.4l-1.5 3.6c-.2.6-.5 1.2-.7 1.8-.3.6-.5 1.2-.7 1.9-.4 1.3-.9 2.6-1.3 3.9-.5 1.3-.9 2.7-1.4 4-.4 1.4-.8 2.8-1.2 4.3-.4 1.3-.1 1.3.2 1.4l-1 3c-.3 1-.5 2.1-.7 3.1-.5 2.1-.9 4.1-1.3 6.2-.3 2.1-.5 4.2-.8 6.2-.1 1-.2 2.1-.4 3.1 0 1-.1 2-.1 3.1l-.3 5.7c0 1.9.1 3.8.1 5.7l.1 2.8v1.1l.2 1.5.6 6c.1 2.1.5 3.7.8 5.5.3 1.8.6 3.6.9 5.3.4 1.8.9 3.6 1.3 5.4.4 1.8.8 3.6 1.5 5.4 4.3 14.2 10.7 27.7 18.8 40.4 8.2 12.7 18.2 24.5 29.9 35.6 5.8 5.6 12.2 10.8 18.8 16 1.7 1.3 3.4 2.5 5.2 3.7.9.6 1.7 1.2 2.6 1.9l1.2.9 1.4.9c1.9 1.3 3.6 2.4 5.5 3.6 1.9 1.2 3.7 2.3 5.7 3.4 2.5 1.5 4.9 2.9 8.5 4.7 2.8 1.4 5.7 3.2 8.6 4.6 3.7 1.7 7.7 3 11.5 4.3 3.8 1.3 7.3 2.4 10.2 3.8.6.1 1.3.3 2.1.5.4.1.8.2 1.1.3h.2c-.6-.1-.2 0-.3-.1l.3.1c.2 0 .4.1.5.1 1.4.3 2.1.6.7.3-.6-.1-1.1-.2-1.7-.3-.6-.1-1.2-.3-1.8-.4l-3.6-.9c-1.2-.3-2.3-.7-3.5-1.1-1.1-.4-2.3-.7-3.4-1.1-4.4-1.6-8.4-3.3-12.1-4.9-15.4-6.7-29.7-15.9-42.6-26-12.8-10.1-24.2-21.2-33.8-32.8 7.8 10.4 17.4 19.9 27.5 28.2 1.2 1.1 2.5 2 3.8 3 1.3 1 2.6 2 3.8 3l1.9 1.5c.7.5 1.3.9 2 1.4l3.9 2.7c.6.5 1.3.9 1.9 1.4l.9.6 1 .7c.7.4 1.3.9 2 1.3.6.4 1.3.8 1.9 1.2 2.5 1.6 5.1 3.2 7.6 4.7 4.6 2.8 10 5.7 15.3 8.2 5.3 2.5 10.7 4.7 15.2 6.4 2.6 1 5.3 1.9 7.9 2.7 1.3.4 2.7.8 4 1.2l4.1.9 4.3 1c.7.2 1.4.3 2.1.4l2 .3 4.1.7 1 .2 1.1.1 2.1.2c11.3 1.3 22.8 1.4 34.4.8 23.2-1.2 46.6-5.4 70.2-8.7-2.4.6-4.5 1-5.8 1.3zM197.2 261.6c0-.3-.1-.9-.2-1.6-.1-.3-.1-.7-.2-1.1-.1-.4-.1-.8-.2-1.3-.2-1.9-.5-3.9-.9-5 .3 1.6.7 6.2 1.2 8.5.6 2.7.8 4 .3.5zm-.4-40.2c-.7 1.9-1.1 5.4-1.5 8.9-.2 3.6-.1 7.1-.1 9.3.3-3.3.3-6.2.4-9 .4-3 .6-5.9 1.2-9.2zm15.4-49.3c.8-1.3 1.5-2.6 2.4-3.9-.4.2-1.7 2.4-3.1 4.6-1.3 2.2-2.6 4.5-2.5 4.9 1.7-2.9 2.6-4.4 3.2-5.6zm149.6 239.4c.7-.6-5-.7-5.3-.5 2.5.2 2 .2 5.3.5zM302.3 89.1c.1.5 1.6.2 2.3.5l3.4-.9c0-.6 2.3-1.1 4-1.6.3.4 1.5.4.2 1 1.3-.9 3.5-1.9 1.7-2 1.5.1 1.6-.5 2.7-.9-.4 0-2.5.4-3.9.7-1.4.4-2 .6.5.3-4.8.8-6.7 2-10.9 2.9zm33.4-6.9c1.5-.9 5.8-1.3 9.7-1.5 3.9-.2 7.4-.2 7.5-1.1-3.3.3-2.7.2-5.8 0 .5 1.1-2.6.3-3.6.9-1 0-.7-.3-1.5-.3-2.3.4-2 .7-5.7.7-.4.5-1.6.6-3.1.7-1.5.2-3.3.3-4.7.7v.3c.4 0 .8-.1.7.1 2-.4 2.5-1 4.9-1.2.1.4 2.1.2 1.6.7zm-8.7-.5c-3.2.5-9.8 1.8-8.4 2.2 1.3-.4 3-.7 4.6-1.1 1.6-.4 3-.7 3.8-1.1zm9.2-1.5c-.7 0-2.3 0-3.7.3-1.4.2-2.6.6-2.7.9.8-.2 2.3-.4 3.7-.5 1.3-.2 2.5-.4 2.7-.7zm35-.1c3.1.5 2.1-.9.1-.7-.1-.2-.2-.4-1.4-.6-.3.6 1.5.8 1.3 1.3zm-11.7-.8c.9.1 1.7.2 1.4.5 2.1.2 3.5.1 4.9.1 1.4 0 2.7-.1 4.6.2-.2-.4-.6-.9-2.1-1.2-1.4.4-3.8.8-5.9-.1-.1.3-.5.5-1.5.6 0-.2-1.2-.3-1.4-.1zM222.6 321.8c-1-1.1-2-2.3-2.9-3.6-.9-1.3-1.7-2.7-2.5-4.1-.8-1.4-1.7-2.8-2.5-4.3-.8-1.4-1.5-2.9-2.3-4.3.9 1 2.4 4.1 4.5 7.3 1 1.6 2 3.3 2.9 4.9 1 1.6 2 3 2.8 4.1zm25.3-205c2.1-.5-3 2.5-4.8 4.2.3-.4 1.2-1.1.8-1.3 1.3-.8 3.9-2 4-2.9zm19.4-12.6c1.7-.7 4.5-3.2 6.4-3-3.1 1.5-4.3 2.2-4.7 3.1-.8.2-1.4.1-3.3 1.3.5-.5 1.5-1.2 1.5-1.6.7-.2.4.1.1.2zm-1.6.1c-.1.3-1 .8-1 1.1-1.1.2-1.5.4-3.2 1.6 0-.8 2.4-1.4 4.2-2.7z"/><path class="st0" d="M348 395.5c2 .8 1.6.6.3 0s-3.4-1.5-4.7-2.2c-3.4-1.6-7.2-3.9-8.4-4.2 3.4 1.9 9 5 12.8 6.4zm-62.9-50.4c-2.7-3-8.3-9.1-9.6-12.3 3 4.3 7.5 9.6 9.6 12.3zm6.6 7.3c-2.1-1.9-3.3-3.4-3.4-3.6-.1-.3.9.7 3.4 3.6zm-30.3-41.2c.3.4.2.5.1.6 4.5 7.1-.8.5-.1-.6zm-2-2.9c-1.1-.8-2.7-5.6-3.7-6.5-.1-1.5 3.4 5.9 3.7 6.5zM244.5 278c.4.1.8 1.3 1.3 2.8.4 1.5.9 3.2 1.4 4.2.3 1.3-.3-.2-.9-2.1-.6-2.1-1.5-4.5-1.8-4.9zm141.7 129.6c-.6.1-1.2.1-1.8.1h-.8c-.3 0-.5 0-.7-.1-.9-.1-1.5-.2-1.6-.2-.1-.1.2-.1 1 0 .4 0 1 .1 1.7.1.6.1 1.4.1 2.2.1zm18.7-1.1c-6.1 1.3-7.5.7 0 0zm24.2-2.1c-4.9 2.3-14.2 4.7-25.3 6.4.6-.1 1.4-.3 2.3-.4.8-.2 1.8-.4 2.8-.6 1-.2 2.1-.4 3.2-.6.6-.1 1.1-.2 1.7-.3.6-.1 1.2-.3 1.7-.4l3.6-.9c.6-.1 1.2-.3 1.8-.4.6-.2 1.2-.4 1.8-.5 1.2-.4 2.3-.7 3.4-1.1 1-.5 2-.8 3-1.2zM233.7 265.1c-.2-.4-.5-.6-.8-.5l-.7-3.5c.9.3.7 2.3 1.5 4zm-2.7-2c-.4-.4-.7-1.6-.9-3.1-.2-1.5-.4-3.1-.7-4 .5.7.7 1.6.9 2.8.1.6.2 1.3.3 2 0 .7.1 1.5.4 2.3zm12.8-87.3c.4.1-1 1.9-1.4 2.7-.2-.4.3-1.4-.1-1.5 1-1.6 1-.7 1.5-1.2zm-2 3.8c-.3.4-.6.8-1 1.5-.6.2.3-1.2 0-1.4.6-.8 1.2-1.1 1-.1zm-13.5 44.1c-.1-.7-.1-1.9 0-3.3 0-.7 0-1.4.1-2.1 0-.7.1-1.4.1-2.1.1 1 .1 2.2.5 2.5-.5 2.5-.1 3.8-.7 5zm16.6-50.1c.1-.3.1-.7-.1-.8.6-.3 1.5-2.1 2.4-3.7.9-1.5 1.7-2.7 1.9-1.6-.5.3-.9.7-1.3 1.3-.4.5-.7 1.1-1 1.8-.6 1.2-1.1 2.4-1.9 3zm-15.7 42.8c-.1-.9 0-2.4.4-4.3.2.5-.2 3.7-.4 4.3zm4.8-22.8c-.7 2.3-1.1.5-1.6.8.6-1.8 1.6-1.6 1.6-.8zm21.7-37.5c.8-.8 4.3-4.1 4.1-4.8 1-.4 1.2-.6 2.5-1.9.7.1-.7 1.1-.5 1.3-2.7 1.8-4.7 5.5-6.1 5.4zm-2.7 3.5c-.5.5-.5.1-1.1.7.1-.4.7-1.1 1.2-1.8.7-.8 1.2-1.4 1.3-1.8.7-.5.6 0 .1.7-.3.4-.5.7-.9 1.1-.3.4-.6.7-.9.9l.3.2zm10.6-10.6l-.3-.4c.8-.7 2.3-2.1 2.2-1.3-.9.6-.9.9-1.9 1.7zm7.9-7.3c1.2-.6-1.7 2.5-2.6 2.8-.4-.6 2-2 2.6-2.8zm-2 1.6c-.4.3-.5.3-.6.2-.7.8-.4 1.7-2.1 2.5-.2-.4 2-1.8 1-1.9 1-.8 1.6-1.1 1.7-.8zm9.6-6.1c-1 .3-2.2 1.4-4.3 2.6 1.3-1.7 3.5-2.7 4.3-3.9 1.7-.6.2.9 0 1.3zm36.8-18.4c-1.1.3-1.4-.7.5-.8-.1.2-.6.3-.6.5 3-.3.7-.9 3.1-1.2-.7.5-.3.4.6.2.8-.2 2.1-.6 3.1-.7-1.1.4-2.2.7-3.4 1.1-1.1.3-2.3.6-3.3.9zm148.4 265.3c1.1-.7 2.6-1.6 4.2-2.8.8-.6 1.6-1.3 2.5-1.9l2.7-2.1c1.7-1.5 3.6-3 5.3-4.4 1.7-1.4 3.2-2.8 4.6-3.8-1.6 1.5-3.1 2.8-4.5 4.1-1.4 1.3-2.8 2.4-4.1 3.5-.7.6-1.3 1.2-2 1.7-.7.6-1.4 1.1-2.2 1.7-.8.6-1.5 1.2-2.4 1.9-.4.3-.8.7-1.3 1-.5.3-.9.7-1.4 1 .3.3 2.1-1.4 2.9-1.9-5.7 4.4-11.2 8.1-16.6 11.1-1.3.8-2.6 1.6-4 2.3-1.3.7-2.7 1.4-4 2-.7.3-1.3.7-1.9 1-.7.3-1.3.6-2 .9-1.3.6-2.6 1.2-3.9 1.7-10.4 4.4-20.7 7.4-32.5 9-1.8.3-1 .7-1.6.9l-3 .4c-1 .1-2 .1-3 .2l-3 .2c-1 .1-2 .1-3 .1.6-.9-1.6-.9-2.8-1.3-1.5-.1.4.8-1.1.7.1.4 1.4.4 2.8.4h-2.9c-1 0-2 .1-3.2-.1-2.2-.2-4.5-.4-7-.5-4.7-.7-9.7-1.5-14.8-2.9-2.6-.6-5.1-1.6-7.7-2.4l-3.9-1.5-1.9-.8-1.9-.9c-5.2-2.2-10.2-4.9-15.1-7.8-.5.1-2.9-1.9-2.8-1.1-6.6-5.7-13.8-9.5-20.6-15.9.6 1.3-1.6-1.5-3.5-2.4-1.1-1-.4-.6-.2-.7-12.7-11.4-24.6-24.6-34.4-37.6-9.8-13.1-17.4-26.1-22.7-36.7-1.7-4.5-3.7-9.4-6.3-15.5-1.7-5-3.2-10.5-4.6-15.8-1.4-5.3-2.5-10.6-3.8-15.3.3-.3.4.4.5 1.1-.2-2.4-.5-5.7-.8-9.1-.2-3.4-.4-7-.6-9.9 0-1.3-.4.8-.9 0-.1-1.2.3-3.9-.1-4.2.7-2.7-.1 3.5.6 2.4.5-3.9.3-8.2.3-12 .2-1.1.3-2.2.5-3.4.2-1.2.4-2.3.6-3.5.1-.6.2-1.2.3-1.7l.3-1.7c.2-1.2.5-2.3.7-3.5 1-4.7 2.3-9.3 3.8-13.8 2.9-8.9 6.8-17 10.6-22.7.2-1.2-1.8 2-.8.2.6-.8.5-1 .4-1.2 1.4-1.8.3.5 1.4-.5 3.1-4.9 5.8-8.2 8.3-11l1.8-2.1c.6-.7 1.2-1.3 1.8-2 .6-.7 1.2-1.4 1.9-2.1.6-.7 1.3-1.4 2-2.1-.6 1.4.8-.7 1.6-.9 1.6-1.8 2.2-3.4 5.6-5.8.5.4-3 2.5-3.9 4 6.7-5.3 13.1-9.2 20.6-14.7-.9-.4-3.3 1.9-3.6 1.2 1.8-1.3 3.4-2.3 5.1-3.3 1.7-.9 3.4-1.6 5.4-2.2-.1.2-1.1.6-1 .8 0-.4 6.3-2.8 5.9-3.7 1.5-.3 2.8-.7 3.8-1.2s1.7-1 1.8-1.7c1.7-.3 4.2-1.1 5-.8.6-.3-.3-.4 1.7-1-1.3-.1-2.4.1-3.7.5-1.4.4-3 1-5.5 1.9-1 .7.5.2.3.8-2.6.8-.7-.4-3.3.2-2.3.9-3.4 1.6-4.5 2.2-1.1.6-2.3 1.2-4.6 2.2.7-1.7 6.2-3.6 9.6-5 .8-.6 4-2.3 3.9-2.3.8-.6 1.3-.2.8.3 1.4-.5 2.5-.9 3.3-1.3.8-.4 1.3-.6 1.7-.9.8-.5.9-1 1.3-1.4 1.8-.3 2.2 0 1.5.7 1.2-.5 2.7-.8 4.2-1.2.8-.2 1.5-.4 2.3-.6.7-.2 1.4-.3 2.1-.5.7-.2 1.3-.3 1.9-.5.3-.1.6-.2.8-.3H324.7l.2-.1c.1 0 .3-.1.4-.1 1-.4 1.7-.8 1.9-1.3.7 0 .7.3 2 .1 1-1 5.2-.4 6.3-1.7 1.3.3 3 .1 4.8-.1 1.8-.3 3.6-.5 5-.7v.9c1.9-.1 3.6-.3 5.3-.4 1.7-.2 3.3-.3 5.1-.3-2-.9-6.1.2-9.7.2 2.5-.4 4.9-.6 7.3-.9 2.4-.1 4.9-.3 7.3-.3 4.9-.1 10 .2 15.6.7-6.8-.1-12.6-.6-19.8-.2 1.5.5 3.3-.2 4.5.5 1-.1 2.3-.2 3.7-.2 1.4 0 3 0 4.6.1 1.6.1 3.1.3 4.4.4 1.3.2 2.4.4 3 .6 2.3-.5 8.2.5 13.9 1.5 2.2 1-2-.1-2.1.1 0 .6 3.2.3 2.5 1.1-3-.8-2.9-.6-3.7-1.4-.2.7-1.8-.3-2.1.4-1.4-.2-1.2-.5-1.2-.8-.6.4-.9.8-3.4-.1 0 1 5.9 1.7 6.4 1.3 1.6.5 3.4 1.1 5.1 1.5 1.8.5 3.5.9 5.1 1.2 1.4.5 1.2.9 1 1.3.5-.3 4.9 2.3 3.3 2.3 1.9 1.1 3.1 1.7 4.2 2.2.5.3 1.1.5 1.6.8.5.3 1.1.6 1.7 1.1-1.9-.4.4.4-1.5.3.2.7 1.9 1.5 2.9 2.3.1.9-2.1-.2-2.7.1 2.4 1.1-1.1.4 2.5 1.8-1 0-2.8-.6-.4.8.1.8-2.3-.6-2.6-.2-.2.6 1.2 1.4 1.1 2 0 .5-1.2-.1-.9.5-10.8-2.8-24.2-5.4-38.3-6.5-5.5-.4-11.1-.5-16.7-.3s-11.3.8-17 1.7c-1.4.3-2.8.5-4.2.7l-4.2.9c-1.4.3-2.8.7-4.3 1-.8.2-1.4.4-2.1.6l-2 .6c-5.5 1.6-11 3.6-16.2 5.9-6.4 2.8-13 6.3-19.3 10.5-6.3 4.1-12 9-16.9 14-1.1 1-2 2.2-3 3.2l-.6.7-.8.9-1.5 1.8c-.9 1.1-1.6 2.1-2.4 3.2-.8 1.1-1.6 2.2-2.3 3.4-2.9 4.5-5.4 9.1-7.4 13.7-4 9.3-6.4 18.6-7.8 28.4-1.4 9.8-1.5 20-.3 31.2 1.3 11.2 4.1 23.4 9.4 36.9 4.2 10.8 10.2 22.2 17.3 33.1 7.1 10.9 15.2 21.2 23.1 30.3 7.3 8.3-1.5-1.1-2.9-2.8-8.1-9.1-14.7-18.1-20.8-27.5-6-9.4-11.4-19.2-16.1-30.3.8 2.7 3 7.8 4.8 11-2.4-4.4-4.7-9.2-6.7-14.3-2-5.1-3.8-10.4-5.3-15.8-1.4-5.4-2.6-11-3.3-16.4-.8-5.4-1.1-10.8-1.3-15.9.5.8.1 2.1.4 4.5 0-1.9 0-3.8.1-5.6v-5.4c0-1.8.1-3.7.2-5.6 0-1 .2-1.9.3-2.9.1-.5.1-1 .2-1.5 0-.3.1-.5.1-.8.1-.3.1-.6.2-.9-.1.3-.3.7-.4 1-.1.3-.2.7-.2 1-.1.7-.2 1.5-.2 2.4-.1.9-.1 1.9-.2 3 0 1.1-.2 2.3-.3 3.6 0 .9 0 2.1-.3 2.2l.1-2.2c0-1.2.1-2.4.1-3.5l.1-1.8.1-1.7c.1-1.2.2-2.2.3-3.5l.5-3.8.1-1v-.1s-.1.4 0 .2V215l.1-.4.3-1.8c.2-1.2.5-2.3.7-3.5.2-1.2.5-2.3.8-3.5.3-1.1.6-2.3.9-3.4 2.6-9 6.2-17.4 10.4-24.8-1.7 2.6-3.3 5.4-4.8 8.4s-2.9 6.1-4.1 9.4c-1.2 3.3-2.2 6.7-3.1 10.2-.4 1.8-.8 3.6-1.1 5.4-.2.9-.3 1.8-.4 2.7l-.2 1.4v.2c.1-.4 0-.1 0-.2v.5l-.1.7c-.1-.4-.2-.8-.3-.1-.1.9-.2 1.7-.4 2.6l-.2 1.3c-.1.4-.1.8-.1 1.2-.1 1.5-.3 3-.4 4.6-.1 1.6-.2 3.1-.3 4.7 0 1.6-.1 3.1-.1 4.6 0 6.1.5 12.1 1.3 17.8-1.3-7.7-1.9-15.7-1.6-23.8.1-2 .2-4.1.4-6l.3-3c.2-1.1.3-2.2.5-3.3.5-4 1.4-8.2 2.4-12.3-1.3 3.9-2.2 8.2-2.8 12.7l-.3 1.8-.1.9-.1.9c-.1 1.1-.2 2.3-.3 3.5-.1 1.2-.2 2.5-.3 3.7l-.3 3.9c-.1 1.2.2 1.1.5 1.2-.7 7.4-.1 15 1 22.2 2 13.6 6 26.4 11.3 38.6 5.3 12.2 12 23.8 19.8 34.8 7.8 11.1 16.7 21.7 26.9 31.9l1.9 1.9.9.9 1 1c.7.7 1.4 1.3 2.1 2l1 1 1 .9c2.6 2.4 5.4 4.9 8.2 7.2 5.7 4.8 11.8 9.3 18.3 13.4 1.1.7 2.1 1.3 3.3 2.1 1.2.7 2.5 1.4 4 2.3l3.6 2.1c1.2.7 2.4 1.5 3.7 2 6.5 3 13.9 4.6 18.8 7 1 .3 2.6.6 3.7.9 1.1.3 1.7.5.6.3-8.8-1.4-16.5-4.6-22.8-7.5-13.4-6-25.5-14.5-36.4-23.9-1.4-1.2-2.7-2.4-4-3.6-1.3-1.2-2.6-2.3-3.9-3.7l-2-1.9-1-1-.9-.9c-1.2-1.3-2.5-2.5-3.7-3.8-4.9-5.1-9.5-10.2-13.8-15.4 7.1 9.2 15.3 18 24 25.8 2.1 1.9 4.3 3.8 6.5 5.6 2.2 1.8 4.4 3.6 6.6 5.2 4.4 3.4 8.8 6.4 13.1 9.2 1 .6 2 1.3 3.1 1.9 1.1.7 2.2 1.3 3.3 1.9 2.2 1.3 4.5 2.4 6.8 3.6 4.6 2.2 9.2 4.2 13.2 5.6 4.5 1.8 9.2 2.9 14 4l3.6.6 1.8.3.4.1H375.4 375.7l1 .1 3.9.4 2 .2c.3 0 .7.1 1 .1h4.4c1.2 0 2.3.1 3.6 0l3.7-.2c1.2-.1 2.5-.1 3.7-.3l3.7-.5c1.2-.2 2.5-.3 3.7-.5l3.6-.7c1.2-.3 2.4-.4 3.6-.8 19.3-4.6 37.6-13.8 54.1-25.3-1 2-2.6 3-3.4 3.8zm-217.6-105c-.2-.6-.6-2.1-1-3.6-.2-.8-.5-1.5-.8-2.2-.2-.7-.5-1.3-.8-1.7.4 1.3 1.5 4.8 2.3 7.1.9 2.3 1.3 3.5.3.4zm-7.1-35.2c-.2.9-.1 2.1-.1 3.5s.2 3 .4 4.5c.1.8.2 1.6.4 2.3.2.8.3 1.5.5 2.2.3 1.4.6 2.6.9 3.6-1-5.8-1.9-10.1-2.1-16.1zm3-45.3c.5-1.2.9-2.5 1.4-3.7-.2.3-1.1 2.3-1.8 4.5-.7 2.1-1.2 4.3-1.1 4.7.8-2.9 1.3-4.3 1.5-5.5zm152.5 212.8c.6-.7-4.4-.1-4.6 0 2.1.1 1.7.1 4.6 0zm-80.8-291.1c.1.5 1.5.4 2.1.6l3.1-.7c.1-.6 2.1-1 3.5-1.4.3.4 1.3.5.2 1 .6-.4 1.4-.8 1.8-1.2.1-.1.2-.2.2-.3h.1v-.1-.1-.1h-.1c-.1 0-.2-.1-.4-.1h.8c.2 0 .4-.1.5-.2.3-.2.6-.4 1.1-.5-.2 0-.8 0-1.5.1-.2 0-.3.1-.5.1l-.4.1-.3.1c-.3.1-.7.1-1 .2-1.2.3-1.7.5.4.3-1 .1-1.9.3-2.7.4-.8.2-1.5.3-2.3.6-1.3.4-2.7.9-4.6 1.2zm30.1-5.1c.7-.4 2-.7 3.6-.8 1.6-.1 3.4-.2 5.1-.2 3.5 0 6.6.1 6.7-.7-2.9.1-2.5.1-5.2-.3.4 1.1-2.3.1-3.3.8-.9 0-.6-.3-1.3-.4-2.1.3-1.8.6-5.2.4-.4.4-1.5.5-2.8.5-1.3.1-2.9.1-4.2.5v.3c.4 0 .8 0 .7.1 1.8-.2 2.3-.8 4.4-.9.2.4 2 .2 1.5.7zm-7.8-1c-1.4.2-3.6.5-5.3.8-1.7.3-2.9.7-2.2.9 1.2-.4 2.7-.6 4.1-.8 1.4-.2 2.7-.5 3.4-.9zm8.4-.9c-.6-.1-2.1-.1-3.3 0-1.3.2-2.4.4-2.5.7.7-.2 2.1-.3 3.3-.3 1.2 0 2.3-.1 2.5-.4zm31.1 1.4c2.7.6 2-.8.1-.7 0-.2-.1-.5-1.2-.6-.3.5 1.4.8 1.1 1.3zm-10.4-1.2c.8.1 1.5.2 1.2.5 3.8.5 5 0 8.5.5-.1-.4-.5-.9-1.8-1.2-1.2.3-3.4.7-5.3-.2-.1.3-.5.5-1.4.5.1-.1-1-.3-1.2-.1zm-91.2 217.9c-3.9-3.7-6.7-9.3-10-14.1.5.4 1.1 1.3 1.8 2.4.8 1.1 1.7 2.5 2.6 3.9 1.9 2.9 4 6 5.6 7.8zm-8.7-185.7c2-.4-2.6 2.3-4 4 .2-.4 1-1.1.6-1.2 1.1-.9 3.4-2 3.4-2.8zm17.1-11.9c1.5-.7 4-3 5.7-2.7-2.7 1.4-3.8 2-4.2 2.9-.8.2-1.2.1-2.9 1.2.4-.5 1.3-1.1 1.3-1.5.7-.3.4 0 .1.1zm-1.4 0c-.1.3-.8.8-.9 1.1-1.1.1-1.3.4-2.8 1.5 0-.8 2.1-1.4 3.7-2.6z"/><path class="st0" d="M339 356.9c1.2 1.2 1 .9.2 0-.7-.9-1.9-2.2-2.6-3-.5-.6-1-1.1-1.5-1.7-.5-.6-1-1.1-1.4-1.6-.9-1-1.6-1.8-2.1-2 1 1.2 2.2 2.7 3.5 4.2 1.4 1.5 2.8 3 3.9 4.1zM305.6 306c-1.3-2.7-4.1-8.1-4.2-10.7 1.2 3.6 3.2 8.4 4.2 10.7zm3.1 6.5c-2.2-3.4-2.2-5.2 0 0zM296 276.9c.1.3 0 .4-.1.5 1.8 6-1 .3.1-.5zm-.9-2.4c-.7-.7-.7-4.6-1.4-5.4.4-1.1 1.3 4.9 1.4 5.4zm-5.1-24.8c.8.3.3 3.9.7 5.5-.1 1-.2-.2-.3-1.7-.1-1.5-.2-3.4-.4-3.8zm69.8 131.1c-3.6-2.2-4.4-3.8 0 0zm11.8 8.9c-2-1.1-3.3-2.1-3.3-2.2 0-.1.2 0 .8.4.6.4 1.4 1 2.5 1.8zm13.4 11.6c-1.9-.3-4.3-1.4-7.2-2.9-2.8-1.6-6-3.7-9.6-6 1.7 1 4.5 2.9 7.6 4.6 3.1 1.7 6.5 3.4 9.2 4.3zM282.5 238.4c-.1-.4-.4-.5-.7-.5l.1-2.7c.9.4.2 1.8.6 3.2zm-2.2-1.9c-.7-.7 0-4-.2-5.5.8 1.2 0 2.9.2 5.5zm18.4-64.2c.3.2-1 1.3-1.3 1.9-.1-.4.3-1.1-.1-1.3 1-1.1 1-.3 1.4-.6zm-1.9 2.6c-.3.2-.6.5-1 1-.6 0 .3-1 0-1.2.6-.5 1.2-.5 1 .2zm-13.4 32c-.1-1.1.4-3.5.5-5.6v1.2c.1.4.1.7.3.8-.6 1.8-.2 2.8-.8 3.6zm16.4-36.1c.1-.3.1-.6-.1-.7.6 0 1.5-1.4 2.3-2.4.8-1 1.6-1.7 1.7-.8-.9.2-1.5 1-2.1 1.9-.6.8-1.1 1.7-1.8 2zm-15.3 30.7c-.1-.7.1-1.8.5-3.2.3.5-.2 2.8-.5 3.2zm4.9-16.9c-.6 1.7-1 .2-1.5.3.6-1.2 1.6-.9 1.5-.3zm21.1-25.4c.4-.2 1.4-.7 2.3-1.3.9-.5 1.7-1.1 1.7-1.5.9 0 1-.2 2.3-.9.5.3-.7.7-.6 1-1.2.3-2.4 1.1-3.4 1.7-1 .8-1.7 1.3-2.3 1zm-2.7 2.1c-.5.3-.5-.1-1 .3.3-.6 2.3-1.8 2.5-2.3.7-.2.5.2 0 .6-.5.4-1.2 1-1.7 1.2l.2.2zm10-5.7l-.2-.5c.8-.3 2.2-1.1 1.9-.4-.8.4-.8.6-1.7.9zm7.3-3.8c.5 0 .1.4-.6.8s-1.5.9-1.9.8c-.1-.6 1.9-1.1 2.5-1.6zm-1.8.8c-.4.2-.5.1-.5 0-.6.5-.6 1.5-2 1.5-.1-.4 1.9-.9 1.1-1.3.8-.4 1.4-.5 1.4-.2zm8.4-2.2c-.8-.1-1.9.6-3.7.9 1.3-1 3.2-1.3 3.9-2.1 1.4 0 .1 1-.2 1.2zm31.1-5.3c-.9 0-.8-1 .6-.7-.1.1-.5.1-.5.3.6.1.9.2 1.1.1.2 0 .3-.1.3-.2.1-.2.2-.4 1-.2-.6.3-.3.3.3.3H368.1 363.4c-.2.4-.4.4-.6.4zM413 400.7c1.9-.2 5-1 8.3-2 3.3-1 6.7-2.2 9.3-2.7-3.2 1.2-5.7 2-8.2 2.8-2.5.8-5.1 1.6-8.4 2.4.1.4 1.8-.3 2.5-.4-5.1 1.4-9.8 2.2-14.1 2.5-4.4.3-8.2-.1-12-.9-7.5-1.7-14.3-5.4-21.7-10.6-1.2-.7-1 0-1.5-.2-2.5-1.8-5-3.7-7.5-5.6.9-.4-.5-1.5-1-2.4-.9-.9-.3.8-1.1 0-.2.3.6 1 1.5 1.7-4.9-3.6-10.6-8.4-16.5-14s-11.8-12.1-17.2-18.8c-.5 0-1.6-2.2-1.8-1.4-.8-1.5-1.6-2.9-2.5-4.2-.9-1.3-1.8-2.6-2.8-3.9-2-2.5-3.9-5.2-5.6-8.2 0 1.1-.8-1.4-2.1-2.4-.6-1-.2-.5.1-.6-1.7-2.7-3.2-5.5-4.9-8.3-1.5-2.9-3.1-5.7-4.4-8.6-2.8-5.7-5.2-11.6-7.4-17.3-.5-1.4-1-2.9-1.5-4.3s-.9-2.8-1.4-4.2c-.9-2.8-1.6-5.5-2.4-8.1-.7-2.6-1.3-5.2-1.9-7.6-.5-2.4-1.1-4.8-1.5-7-.1-1.8-.3-3.7-.5-5.7s-.6-4.2-1-6.7c-.6-8-.3-16.8-.9-24.2.3-.1.3.4.3.9.2-1.8.5-4.3.8-6.8.1-1.3.3-2.6.4-3.9.1-1.3.3-2.5.3-3.6.1-1-.5.5-.9-.1 0-.9.8-2.9.4-3.1 1-1.9-.5 2.5.3 1.9 1-2.8 1.1-6 1.3-8.9 1.8-6.6 3.8-13.8 6.5-20.3s6.3-12.1 9.9-15.8c.2-.9-1.6 1.2-.7-.1.6-.5.5-.7.4-.9 1.3-1.1.2.5 1.3 0 1.5-1.6 2.9-2.8 4.2-4 1.3-1 2.5-2 3.7-2.8 1.2-.8 2.3-1.6 3.4-2.3 1.2-.7 2.3-1.6 3.6-2.3-.7 1 .7-.3 1.4-.2 1.5-1.2 2.3-2.2 5.2-3.3.3.5-2.7 1.3-3.7 2.2 6-2.3 11.5-3.6 18.1-6.2-.6-.7-2.8.6-2.9-.1 1.6-.6 3-1 4.4-1.3 1.4-.3 2.9-.4 4.4-.3-.1.2-.9.2-.9.4.1-.4 5.2-.6 5.1-1.5 2.3.5 4.2.1 4.8-.9 1.3.3 3.3.3 3.8.8.6-.1-.1-.5 1.5-.4-.9-.5-1.7-.6-2.8-.7-1.1 0-2.4 0-4.4.1-.9.3.3.3 0 .9-2.1-.1-.4-.6-2.4-.9-3.7.4-3.8.9-7.6 1.2.4-.7 1.8-1 3.3-1.2 1.6-.2 3.4-.2 4.8-.4.7-.3 3.5-.9 3.4-.9.7-.4 1 .2.5.5 4.6-.1 4.7-.9 5.5-1.5 1.5.3 1.6.7.9 1.1h1.6c.6 0 1.2 0 1.7.1 1.1.1 2.2.2 3.2.2H368.7c.5 0 .9 0 1.4-.1.8-.1 1.4-.4 1.8-.8.5.2.4.5 1.4.6 1-.7 3.8.9 5-.1 1.7 1.1 5.1 1.1 7.2 1.4l-.2.8c1.4.3 2.7.5 4 .7 1.2.2 2.5.4 3.7.7-.6-.6-1.7-.9-3-1.1-1.3-.2-2.8-.3-4.1-.7 7.5.7 14.3 2.4 22.1 4.8-5-1-9.1-2.3-14.4-3.3.9.8 2.4.4 3.2 1.3 1.5.1 3.9.6 6.1 1.2 2.2.6 4.3 1.4 5.2 2 1.8-.3 5.9 1.5 10 2.7 1.4 1.1-1.5-.3-1.6 0-.1.6 2.3.5 1.6 1.2-2-.9-2-.7-2.4-1.6-.4.7-1.3-.5-1.7.2-1-.4-.7-.6-.7-.9-.5.3-.9.7-2.5-.4-.3 1 4 2.2 4.4 1.9 2.1 1.2 4.7 2.5 7 3.1.9.5.7.9.4 1.2.5-.3 3.2 2.3 2 2.3 2.4 2 3.2 2.1 5 3.7-1.4-.3.2.4-1.2.3.1.6 1.3 1.4 2 2.1-.1.8-1.6-.1-2.2.2 1.7 1-1 .4 1.7 1.6-.8 0-2.2-.4-.4.8 0 .7-1.7-.5-2-.1-.2.6.8 1.3.5 1.9 0 .5-.9-.1-.8.5-8.2-2.1-18-5.4-28.2-8.5-7.9-2.4-16.3-4.3-24.8-5.4-2.1-.2-4.3-.5-6.4-.6l-1.6-.1-1.5-.1c-1.1 0-2.3-.1-3.4-.1h-3.1l-3.2.1c-1.1 0-2.1.1-3.2.2s-2.1.2-3.2.3c-5.1.6-10.5 1.6-15.8 3.1-5.2 1.5-10.2 3.6-14.4 6.1-.9.6-1.7 1.1-2.6 1.7l-2.4 1.8c-.8.6-1.4 1.2-2.1 1.8l-.3.2-.1.1-.1.1s.4-.3.2-.2l-.6.6-1.2 1.2-.8.9c-.3.3-.5.6-.8.9-.6.7-1.1 1.4-1.6 2.1-1.1 1.4-2 2.9-2.8 4.4-3.4 6-5.6 12.7-7.3 20l-1.2 5.7-.3 1.5-.2 1.4c-.2.9-.3 1.9-.5 2.8-.1.5-.2.9-.2 1.4-.1.5-.1 1-.2 1.5-.1 1-.2 2-.4 3-.3 2-.4 4.1-.6 6.3-.6 8.5-.7 18 .6 28.7 1 8.6 2.9 18 5.6 27.2 2.7 9.2 6.3 18.2 9.9 26.3 3.3 7.4-.9-1.1-1.6-2.6-3.8-8.1-6.6-15.9-8.9-23.8-2.3-7.9-4.1-16-5.4-25 0 1.1.1 2.6.4 4.2.2 1.6.5 3.3.8 4.6-1.8-7.3-2.8-15.6-3-24.1-.2-8.5.4-17 1.4-24.7.4.7-.1 1.6-.2 3.4.3-1.4.6-2.8.8-4.2.2-1.4.4-2.6.6-3.9.1-.7.2-1.3.3-2 .1-.3.1-.7.2-1 .1-.4.2-.8.2-1.2.3-1.6.7-3.3 1.2-5.1-.6.9-.9 2.1-1.1 3.6-.1.7-.3 1.6-.4 2.4-.1.8-.3 1.7-.5 2.6-.1.6-.2 1.6-.5 1.6l.3-1.6c.1-.9.2-1.7.3-2.6.2-.9.4-1.9.5-2.9l.6-2.9.1-.4V204s-.1.4 0 .2l.1-.7.3-1.3c.8-3.5 1.8-6.9 3-10.1 1.2-3.2 2.5-6.2 4-8.9s3.2-5.3 5-7.5c-1.4 1.5-2.8 3.3-4.1 5.2-1.3 1.9-2.5 4-3.6 6.3-2.2 4.5-3.7 9.7-4.7 15.1-.1-.3-.2-.6-.3-.1-.1.6-.3 1.2-.4 1.8-.1.6-.2 1.1-.4 1.7-.3 1.3-.5 2.5-.8 3.8l-.2.9-.1.9c-.1.6-.2 1.1-.3 1.7-.2 1.1-.4 2.2-.6 3.4-.3 2.3-.6 4.6-.9 6.8-.2 2.3-.4 4.5-.5 6.7 0-1.5.1-3 .2-4.4l.3-4.5c.2-1.5.3-3 .5-4.5s.5-2.9.7-4.4c.2-1.4.6-3.1.9-4.7.2-.8.3-1.6.5-2.4l.2-1 .3-1.1c.7-3.1 1.5-6.1 2.5-9-1.3 2.8-2.2 5.9-3 9.3l-.2.6-.1.3s.1-.3 0-.2V204.2c-.1.5-.2.9-.3 1.4-.2.9-.4 1.9-.6 2.9-.5 2-.8 3.8-1.2 5.7-.3.9.1.8.4.9-.4 1.3-.7 2.7-.9 4.1-.2 1.4-.5 2.8-.7 4.2-.3 2.8-.6 5.6-.7 8.3-.6 10.3-.2 20.4 1.3 30.3 1.4 9.9 3.7 19.5 6.9 29 6.5 19 16.2 37.8 30.7 56.3 1.2 1.6 2.3 3 4.1 5.1 1.3 1.6 2.6 3.5 4 5.2.9 1 1.9 2 2.9 3s2 1.9 3 2.9c2 1.8 3.7 3.7 4.9 5.6 1.2 1 3.8 3.6 2.4 2.5-2.8-2.1-5.1-4.5-7.3-6.8-1.1-1.1-2.1-2.3-3.1-3.4s-2-2.1-2.9-3.1c-7.7-8.3-14.4-17.2-20.2-26.4-5.7-9.2-10.5-18.5-14.5-27.7 2.9 8.1 7 16.1 11.5 23.4 4.5 7.4 9.5 14.2 14.2 20.4 4.3 5.8 10.4 12.4 14.8 17.2 5.1 5.6 10.7 10.7 16.6 15.5 5.9 4.8 12.2 9.5 18.4 13 3.1 1.8 6.2 3.3 9.4 4.4 1.6.6 3.2 1 4.7 1.4l1.2.3h.1c-.5-.1-.1 0-.2 0h.1l.4.1.7.1 1.5.2 1.1.1c.7.1 1.5.1 2.4.2.8.1 1.7 0 2.5.1h2.6l2.6-.2c3.5-.3 7.1-.9 10.7-1.6-1.2 1.4-2.5 1.6-3.3 1.9zM291.8 250.9c0-.5 0-1.6-.1-2.8 0-1.2-.1-2.4-.5-3.1.2 2.1.8 10.9.6 5.9zm.5-27.1c-.5 1.3-.8 3.6-1 6-.1 2.4 0 4.8.1 6.3.2-2.2.2-4.2.3-6.1.1-2 .2-3.9.6-6.2zm5.5-33.9c.4-.9.8-1.7 1.2-2.6-.2.2-1 1.5-1.7 3s-1.2 3.1-1 3.4c.8-1.9 1.2-2.9 1.5-3.8zM363 388.2c.7-.2-2.4-2.3-2.7-2.3 1.2 1.1 1 1 2.7 2.3zM361.2 146c-.1.5 1 .8 1.4 1.2.8 0 1.5.2 2.3.2.1-.3.5-.4 1-.4H367.8c.1.4.8.9-.1 1 1.1-.4 2.7-.8 1.6-1.3.9.5 1.1 0 2 0-.6-.3-5.7-.9-2.4 0-.4-.1-.8-.2-1.1-.3-.2 0-.4-.1-.6-.1h-.5c-.6-.1-1.2-.1-1.7-.1h-1.7c-.7 0-1.4-.1-2.1-.2zm22.9 3c.6-.3 1.6-.2 2.8 0 1.2.2 2.5.5 3.8.9 2.5.7 4.8 1.4 5.1.6-2.2-.4-1.8-.4-3.7-1.3 0 1.1-1.7-.3-2.6.1-.6-.2-.3-.4-.8-.6-1.6-.2-1.5.3-3.8-.7-.8.7-3.3-.7-5.3-.6l-.1.3c.3.1.6.2.4.3 1.3.1 1.8-.2 3.5.1-.2.3 1.2.5.7.9zm-5.3-2.8c-2.1-.4-6.7-1.1-5.9-.3 1.8 0 4.7.6 5.9.3zm6.3 1.1c-.9-.5-4.1-1.2-4.4-.6 1.1-.1 3.9 1.1 4.4.6zm22.2 6.8c1.8.9 1.7-.6.3-.6 0-.2 0-.4-.7-.7-.4.3.7.9.4 1.3zm-7.3-2.6c.5.2 1.1.5.8.7 2.6 1.1 3.7.8 6.1 1.7 0-.4-.1-.9-1-1.4-1 .1-2.7.2-3.8-1-.2.3-.5.4-1.2.3.1-.1-.7-.5-.9-.3zm-99 142.6c-.5-.8-1-1.8-1.4-2.7-.4-1-.7-2-1-3.1-.3-1-.6-2.1-.9-3.2-.3-1.1-.5-2.1-.9-3.1.5.8 1.1 3 1.9 5.4.4 1.2.7 2.5 1.1 3.6.4 1.2.8 2.3 1.2 3.1zm19-140.7c.8.2.2.4-.8.8s-2.3.9-3.1 1.3c.2-.3.9-.6.7-.9 1.1-.2 3.1-.5 3.2-1.2zm15.2-4.7c1.3-.1 3.5-1.4 4.8-.6-2.3.4-3.2.6-3.7 1.2-.6-.1-.9-.3-2.4.1.4-.3 1.2-.6 1.3-1 .5 0 .3.2 0 .3zm-1.1-.6c-.1.3-.8.4-.8.7-.8-.2-1.1-.2-2.4.3.1-.4.5-.5 1.1-.6.6 0 1.4-.1 2.1-.4z"/><path class="st0" d="M372.3 239.7c.4-.2-.2-.2-.5-.2-.4 0-.8-.1-1 .3.5.1 1.1 0 1.5-.1zm-7.9-.3c-.4.1-1.3.7-1.4-.2.2.1.5.1.8.1h.3c.1.1.2.1.3.1zm1 0c-.3.2-.5.1-.5.1 0-.2.2-.3.5-.1zm-4.7-.4v.2c.8-.2-.1.9 0-.2zm-.4.3c-.2.5-.5-.3-.7.2.1-.6.7-.3.7-.2zm-3.1 1.2c.2-.7.4 0 .7-.2.1.5-.6-.1-.7.2zm19 2.6c-.5.5-.7-.2 0 0zm1.9 0c-.6.6-.7-.2 0 0zm2.3 3.9c0 .1-.1.1-.1.2-.1 0-.2.1-.3.1h-.1-.4c-.4-.1-1-.2-1.5-.1.3-.2.7-.2 1.2-.2.4 0 .9.1 1.2 0zm-26.6.2c-.1.1-.2.4-.3.7l-.3-.1c.3-.8.3-.2.6-.6zm-.9 2.1c-.3.6-.6 0-.9.3.4-.8.4-.1.9-.3zm-8.6-3.2c.2-.3.2.1.4 0-.2.3-.4.3-.6.6-.1-.1.2-.5.2-.6zm.5.1c0 .1 0 .2.1.2-.2.4-.3.2-.5.5-.1-.1.2-.5.4-.7zm4 2.5c-.3.3-.6.2-1.1.5.2-.2.4-.3.6-.7.2.2.6-.2.5.2zm-4.8-2.6l-.4.4c.4-.7-1.3.3-.2-.8-.3.8.8-.2.6.4zm4.1 2.4c-.2.2-.4.2-.6.1.2-.3.6-.3.6-.1zm-2.7-.2c.3 0-.4.7-.5 1.1-.2-.1.3-1 .5-1.1zm-4.5-1.8c0-.2-.4-.5-.9-.1.2-.4.1-.3-.1-.4.3-.4.3-.2.6-.4-.1.7 1 0 .4.9zm.6.1c0 .1-.2.3-.1.4-.3.2-.4-.2-.7.1.1-.4.7-.5.6-.2l.2-.3zm-1.4-1l-.4.4c-.1-.1-.4-.1 0-.4.2.1.4-.1.4 0zm-1.5-.1c.1-.3 1-.5.8-.2-.4.4-.5.1-.8.2zm.3.1c.1 0 0 .1-.1.2.3-.1.9-.7.7-.3-.3.3-.3-.1-.8.5-.1 0 0-.2.2-.4zm-.8-1c-.1.3.3.1.4.4-.6.3-.7 0-1.2.2.1-.3.7-.5.8-.6zm-5.7-1.7c.1.1-.7.7-.6.3.1-.1.2 0 .3-.1.1-.5-.6.3-.7 0 .7-.2-.1-.2-.1-.5.6 0 .8.2 1.1.3zm49.7 4.6c.1.2.3.5.3.5l-.1-.1-.2-.1-.1-.1c-.5-.3-1-.5-1.5-.8.5.3 1 .5 1.5.8l.1.1c.1 0 .1.1.1.1.1 0 .1.1.1.1l-.1-.1-.1-.1c0-.1-.1-.1-.1-.2 0 0 .1.1.1.2l-.1-.1.1-.2-.2-.3c-.1-.1-.1-.2-.2-.3l-.1-.3-.1-.2c-.1.1-.3.1-.7.1h-2.9c-.2.1-.1.6-.2.7h-1.2c.1-.9-.1-.9-.2-1.2-.2-.1 0 .8-.1.7 0 .4.1.4.3.4-1.6.4-3.9.2-6.2.2-.1.3-.3-.1-.3.5-.8-1.3-1.7-.1-2.5-.6.1.6-.2-.1-.5.5-.2 0-.1-.1 0-.4-.8 0-1.7-.1-2.5-.1s-1.7-.1-2.5-.1c-1.6 0-3.1 0-4.3.2-.4-.4-.8-.5-1.6-.2-1-.3-1.9-.8-3.2.1.1-.3.2-.3.2-.3-.4-.4-1.1-.6-1.7-.5-.1 0-.1.4-.3.8-.2.1-.3-.3-.4 0 0-.6.3.1.5-.6-.2-.5-.7-.3-1.3 0-.3-.3-.7-.6-1.2-.7-.4-.2-.9-.2-1.4-.4-.2-.1-.5-.1-.7-.2-.2 0-.4-.1-.7-.1-.4-.1-.8-.2-1.1-.4-.4.3 0 .4-.3.5 0-.1-.2 0-.3.2-.1-.2.3-.4.4-.8-1.3-.2-1.6-.7-2.8-.6.6-.4-.1-.1.1-.4-.5.2-1.1.6-1.4.3.4-.4.5 0 1-.2-.7-.6-1.1-1.2-3-.9-.5.5.4.2-.1.7-.8.1-1.3-.1-1.2-.7.2-.1.2 0 .4-.1-.3.2-.7-.4-1.4.1.2-.6-.2-.6-1.1-.1.1-.3-.1-.5.2-.9-.2 0-.3.3-.6.1-.5.7-.2.7.4 1.1.4-.1.2-.2.7-.5.1.3-.5.4-.5.8.5.4 1 0 1.3.5-1.1.7-1.2-.1-1.6-.3-.3.1-1 .1-1 .1-.4.1.1-.2.4-.4-.6-.4-1.3 0-1.9.3 0-.3.3-.5.8-.7-.8-.3-.9-1.4-2.6-.5.1-.1.3-.3.2-.4-.8.3-.2-.7-1.3-.2.5-.6-.5-.7-.9-1l.8-.4c-.4-.4-.9-.6-1.4-.9-.6.6.8.6.9 1-1.8-.6-2.9-1.5-4.3-2.7 1.3.6 1.9 1.2 3 1.8.3-.4-.5-.2-.1-.6-.9-.2-2.1-1.1-1.9-1.6-.5 0-.8-.2-1.2-.4-.2-.1-.3-.3-.5-.4l-.6-.6c.2-.5.5.2.8.1.6-.2-.7-.4.2-.5.2.5.4.4-.2.7.8-.2.2.2.9 0 .1.2-.2.2-.4.3.5-.1 1-.2.8.2 1-.3.1-.9-.5-.8.1-.6-.1-1.2-.8-1.6 0-.2.4-.3.8-.4-.2 0-.2-.3 0-.4.2-.2.6-.3.9-.3.6-.5.2-.5.7-1 .5.1.2-.1.9-.1.5-.2.5-.4.8-.5.7-.2.7 0 1.3 0 0-.3.8-.1.5-.4.4 0 .7.1.9-.2.6-.2.4.2.9.1.6-.1.7-.3 1.3-.5.4-.1.4 0 .9-.1 1.2.3 2.3.8 3.2 1.1.9.4 1.8.8 2.5 1.2 2.2 1.2 4.5 2 6.5 2.7 1.2.4 2.3.9 3.3 1.2.8.3 1.6.5 2.3.6h.1c-.1-.1.2.1-.2-.1h.1l.2.1.4.1.4.1H353.5l.5.1c1.4.2 2.9.3 5.3.5 1.9.1 4.4-.3 6.7.3 1 .3-.2.3-.5.3-2.4 0-4.1-.3-6.2 0 .2.3.6.4 1 .2-1.9.8-3.8.1-5.3-.1.2-.4.2-.1.4-.2-.3-.7-1.1-.1-1.6-.5-.2.8.4.1.6.5.1 0 .2 0 .1.2l-.2-.1c-.4.1-.8.1-1.2.1h-.9c-1-.3-1.5-.3-2.3-.3.2.1.4.2.6.4l.2.1h.1c-.1 0 .1.1-.1-.1.2.1.3.2.5.2.2.1.4.2.5.2h.4c.1 0 .2 0 .4-.1.2 0 .3-.1.5-.1-.1.1-.2.3-.2.3 1 .2 1.9.4 2.9.4-.7.2-1.4.2-2 .1-.3 0-.7-.1-1-.1-.2 0-.3 0-.5-.1h-.4c.1.1.1.2.3.3.2.1.3.1.5.1.4.1.8.1 1.1.3.1.1.2-.2.3-.4.3.7 1 .7 1.6.8 2.2.5 4.5.7 7 .8 1.3 0 2.6.1 4 .1 1.4.1 2.8.1 4.4.2.3 0 .5.1.8.1.3 0 .5.4.8.4.7 0 1.5-.9 2 .3.2-.1.7.1.4.2-.9.5-1.7 0-2.4 0-3 .1-5.7-.4-8.4-.4 2.2 1 4.6.2 6.6.6.9.2 2.1.1 2.9.4 1.9.6 3.9.5 5.9.4l1.3-.1h.5l.1.4.2.9.2.7c.3.9.6 1.4.8 1.6-.5.2-.6.1-.6 0zm-24.4-8.6c-.1-.1-.4-.4-.7.2.3-.2 1.2 0 .7-.2zm-2.7-.4c0 .8.8.5 1.2.2-.4-.2-.9.1-1.2-.2zm-4.3 1.5l-.4-.2c0 .1.1.3.3.4.2.1.3 0 .5-.2-.1-.1-.2-.1-.4 0zm26.3 7c.1-.6-.4-.4-.5-.2.3.1.2.1.5.2zm-43.6-4.5c.4-.3.5-.5.8-.8l-.2-.3c-.5.3-.6.1-.8 0 .3-.2.5-.5.9-.6-.5.2-1.2.3-1.5.6.2-.3-.3-.1-.5-.1-.1.2.5.8.5.2 0 .7.7.5.8 1zm-2.8-2.7c-1.6.4-1.2-1.6-2.7-.9.4.2.4.2.3.6 1-.5.3.2 1 0 0 .1-.2.2-.2.3.4.1.7-.1.6.4.8-.3.4.4 1 .5l.3-.2s0-.1.1-.2c-.2-.1-.7 0-.9-.2.3 0 .1-.1.5-.3zm-.8 1.5c.3.3.8.9 1.2.4-.4 0-.6-.5-1.2-.4zm-.9-.7c-.1.2.3.7.8.4-.4 0-.3-.6-.8-.4zm-2.6-3.4c0-.4-1.2.2-.7.2-.2.1-.4.2-.3.3.5-.1.5-.4 1-.5zm.8 1.2c0-.1 0-.2.3-.3-.1-.5-.9-.4-1.1-.8-.4.2-.7.3-.7.5.5 0 1.3 0 .8.5.3-.1.6-.2.7-.1-.2.1-.2.3 0 .2zm35.7.8c-.6.9-1.1.1-1.6.3.4-.7 1.1.1 1.6-.3zm-23.8 7c.5-.8.4.1.8.1-.2.1-.2 0-.5.3 0-.2.2-.8-.3-.4zm-2-1.3c0-.2-1 .1-.3-.7.3.2.4.3.9 0-.1.2-.3.4 0 .5-.2.1-.4.1-.7.3-.1-.1 0-.2.1-.1zm-.5.5c.2-.1.3-.1.5-.2-.2.4-.1.3.1.4-.5.4-.2-.2-.6-.2zM466.7 233.5c.2-.2-.2-.1-.3-.1-.2.1-.5.1-.5.5.2-.1.6-.2.8-.4zm-4.7 1.4c-.2.1-.7.9-.9.1.3 0 .7-.2.9-.1zm.5-.2c-.2.5-.4-.2 0 0zm-3 .4v.2c.5-.4 0 .9 0-.2zm-.2.4c-.1.5-.4-.2-.5.3-.1-.6.4-.4.5-.3zm-2.3 1.7c.1-.7.4-.1.5-.3.1.4-.4 0-.5.3zm13.2-1.6c-.2.6-.6 0 0 0zm1.2-.5c-.2.6-.6 0 0 0zm3.2 2.7c0 .4-.3.5-.6.6-.3.1-.7.1-1.1.4.2-.5 1.3-.6 1.7-1zm-19.7 6.6c-.1.2-.1.4-.1.7h-.3c.1-.9.2-.2.4-.7zm-.5 2.3c-.2.6-.5.1-.7.4.3-.9.4-.2.7-.4zm-7.7-1.1c.1-.4.2 0 .3-.1-.1.3-.3.4-.4.8-.1-.2.1-.6.1-.7zm.4-.1c0 .1 0 .2.1.2-.1.5-.2.3-.3.6 0-.1.1-.6.2-.8zm3.8 1.4c-.2.3-.5.3-.8.7.1-.2.3-.4.4-.8.2.2.4-.4.4.1zm-4.4-1.2c-.1.1-.2.2-.2.5.2-.7-1.1.7-.4-.7-.2.8.7-.5.6.2zm3.7 1.2c-.1.2-.3.3-.4.2.1-.4.4-.4.4-.2zm-2.2.4c.2-.1-.2.8-.3 1.2-.1-.1.2-1 .3-1.2zm-4-.2c0-.2-.4-.3-.7.3.1-.4 0-.4-.2-.3.2-.5.2-.3.4-.6 0 .6.8-.4.5.6zm.5-.2c0 .1-.1.3 0 .4-.2.3-.4 0-.6.3 0-.4.5-.7.5-.4l.1-.3zm-1.3-.3l-.2.5c-.1-.1-.3 0-.1-.4.1 0 .2-.2.3-.1zm-1.3.5c0-.3.7-.8.6-.5-.3.5-.4.3-.6.5zm.2 0c.1 0 0 .1 0 .2.2-.2.6-1 .6-.5-.2.4-.3.1-.5.7-.2 0-.2-.2-.1-.4zm-.8-.6c0 .3.3 0 .4.2-.4.5-.6.3-.9.7-.1-.3.4-.8.5-.9zm-5 1.2c.1 0-.4.9-.4.6.1-.1.1-.1.2-.3-.1-.4-.4.5-.5.3.5-.5-.2-.1-.2-.3.3-.4.6-.3.9-.3zm40.1-12.8c.6.1 1-.8 1.9-.4-.6.3-.9.5-1.4 1 .2.3.2 0 .3 0-.4.4-.8.7-1.1 1-.4.2-.8.5-1.1.7-.4.2-.7.4-1.1.6-.4.2-.8.3-1.2.5-.1.2.2.6.2.7l-.8.4c-.3-.8-.5-.8-.7-1-.2-.1.3.8.2.7.1.4.2.3.3.2-.5.5-1.1.7-1.9 1.1-.4.2-.8.3-1.2.5-.4.1-.8.3-1.2.4.1.3-.3 0-.1.6-.9-1-1.2.4-2 .1.2.5-.2-.1-.2.6-.1 0-.1-.1-.1-.3-2.5.7-5.2.9-7.1 1.8-.4-.3-.8-.4-1.3 0-.8-.1-1.7-.4-2.7.7 0-.3.1-.3.2-.3-.3-.3-1-.4-1.5-.1-.1 0 0 .4-.2.9-.1.1-.3-.3-.4.1-.1-.6.3 0 .3-.6-.2-.5-.7-.1-1.1.3-.6-.5-1.5-.5-2.3-.4-.8.1-1.7.2-2.2.1-.3.4.1.4-.1.5-.1-.1-.1.1-.2.3-.1-.2.2-.5.2-.9-1.1.2-1.5 0-2.5.5.4-.5-.1 0 0-.4-.4.4-.8 1-1.1.8.2-.5.5-.2.8-.6-.7-.3-1.2-.6-2.7.5-.3.7.4-.1.1.6-.7.4-1.1.5-1.2 0 .1-.2.2 0 .3-.3-.2.3-.7-.1-1.1.8 0-.6-.3-.4-.9.5 0-.3-.2-.4 0-.8-.1.1-.2.4-.4.4-.2.8.1.7.6.7.3-.2.1-.3.4-.8.1.2-.3.6-.2.9.5.1.8-.4 1.1-.1-.7 1-1 .4-1.4.4-.2.2-.8.5-.8.5-.3.3 0-.2.2-.5-.6-.1-1 .6-1.5 1.2-.1-.3.1-.6.4-1-.7.1-1.1-.7-2.2.9 0-.1.2-.4 0-.4-.6.7-.3-.5-1.2.5.2-.8-.7-.3-1.1-.3l.5-.7c-.4-.1-1 0-1.4 0-.3.8.8 0 1.1.3-.8.3-1.6.3-2.3.4-.7 0-1.5-.1-2.1.1.3-.1.5-.2.7-.3.2 0 .5-.1.7-.1.5 0 .9 0 1.5-.1.1-.5-.5.1-.3-.4-.4.2-1 .3-1.4.3-.4 0-.6-.1-.6-.3-.8.6-1.2.4-2 .6.1-.4.4-.2.6-.4.4-.5-.5.2.1-.4.2.1.3 0 0 .5.5-.6.2 0 .7-.6.1 0-.1.3-.3.5.3-.3.7-.8.7-.4.6-.8-.1-.6-.5-.2-.1-.3-.3-.5-.9-.3-.1-.1.2-.4.5-.7-.3.4 0-.6.4-1 .2-.7-.1-.5.1-1.1.4-.3.1-.2.6-.6.3-.4.2-.6.3-.9.5-.6.6-.4 1-.8-.2-.2.6-.6.1-.6.3-.3.6-.4.6-.7.4-.5.4-.2.7-.5.4-.5.4-.7.8-1.2.3-.3.3-.2.6-.6 2.1-1.1 4.1-1.6 5.7-1.6 1.2-.1 2.4-.3 3.5-.5s2.2-.3 3.2-.4c.6 0 1.2 0 1.8-.1.6 0 1.2 0 1.7.1h2.5c.7 0 1.4-.1 2.1-.2.7 0 1.4-.2 2.1-.2.7 0 1.6-.2 2.5-.3.2 0 .4-.1.6-.1.2-.1.4-.1.6-.2l1.2-.3c.8-.2 1.5-.5 2.2-.3.7.1-.1.3-.2.4-1.4.5-2.6.5-4.1 1.1.2.3.5.3.7 0-1.3 1.1-2.9.7-4.3.8.2-.5.2-.1.4-.3-.4-.6-1 .2-1.5-.2 0 .8.4 0 .7.4.1 0 .2-.1.1.2h-.1c-.7.3-1.4.3-2.1.4-.7.1-1.4.1-2.1.3.4.1.9.3 1.4.4.5 0 1.1-.1 1.7-.5-.1.1-.1.3-.1.3h1.4c.4 0 .9-.1 1.3-.1-.6.3-1.2.4-1.8.5-.6.1-1.2.1-1.9.2.5.5 1.3 0 2 .3.1.1.1-.2.2-.5.4.6 1 .4 1.5.5 3.9.2 7.1-.8 11-1.9.2-.1.3 0 .5-.1s.5.3.6.2c.5-.1.6-1.3 1.4-.3.1-.1.5-.1.3.1-.4.7-1.1.5-1.5.7-1.9.8-3.8 1-5.6 1.5.4.1.8.2 1.2.2l1.2-.3c.4-.1.7-.3 1.1-.4.4-.1.7-.3 1.1-.3.7-.1 1.4-.4 2-.4.7 0 1.4-.1 2.1-.4.6-.3 1.2-.6 1.8-1 .6-.3 1.2-.8 1.8-1 .7-.2 1.3-.5 2.2-.5-.5 0-.6 0-.6.2zm-19.1.6c-.1 0-.3-.3-.5.3.1-.2.9-.1.5-.3zm-2.4.2c.1.7.8.3 1.1 0-.4-.2-.7.2-1.1 0zm-3.8 2.3l-.3-.1c0 .2.5.5.7 0-.2 0-.3 0-.4.1zm21.2.9c-.2-.6-.5-.3-.4 0 .2 0 .1.1.4 0zm-35.3 8c.3-.5.2-.6.4-1l-.3-.1c-.3.5-.5.4-.7.4.2-.4.3-.7.6-.9-.4.4-.9.8-1 1.2.1-.4-.2.1-.4.2 0 .2.6.4.4-.1.2.4.8-.1 1 .3zm-3.1-.8c-1.2 1.1-1.5-.6-2.6.7.4-.1.4-.1.5.3.6-.9.3 0 .8-.5.1.1-.1.3-.1.4.3-.1.6-.4.7 0 .6-.6.5.1 1-.1l.2-.3v-.2c-.2 0-.6.4-.8.3.2-.3-.1-.3.3-.6zm-.2 1.6c.3.1.9.3 1.2-.3-.4.2-.7-.1-1.2.3zm-1-.1c0 .3.4.4.8-.1-.3.2-.4-.4-.8.1zm-3.3-1.1c-.1-.2-.9.8-.5.5-.1.2-.3.3-.1.3.4-.3.3-.4.6-.8zm1 .3c-.1-.1-.1-.1.1-.4-.3-.3-.8.2-1.1 0-.3.3-.4.6-.5.8.4-.3 1-.8.7-.1.2-.2.4-.4.6-.5 0 .3.1.4.2.2zm30.5-11.9c-.3 1-.7.3-1 .5.1-.6.8 0 1-.5zm-18.5 12.7c.2-.9.4-.1.7-.3-.1.1-.2.1-.3.4-.2-.1-.1-.7-.4-.1zm-2-.4c-.1-.2-.8.5-.4-.4.3 0 .4.1.7-.4 0 .2-.1.5.1.4-.2.2-.3.2-.5.5l.1-.1zm-.2.7c.1-.2.2-.2.3-.4-.1.4 0 .3.2.3-.3.5-.2-.1-.5.1zM366.7 283.4c.4-.2-.2-.2-.5-.2-.4 0-.8-.1-1 .3.4 0 1.1 0 1.5-.1zm-7.9-.4c-.4.1-1.3.6-1.5-.3.5.2 1.2.2 1.5.3zm.9 0c-.6.4-.7-.3 0 0zm-4.9-.6c.1 0 0 .1 0 .2.9-.2-.2.9 0-.2zm-.4.2c-.2.5-.6-.3-.8.2 0-.6.7-.2.8-.2zm-3.7 1.1c.2-.7.5 0 .8-.1.1.3-.6-.3-.8.1zm20 3c-.6.5-.8-.2 0 0zm1.9-.1c-.6.6-.7-.2 0 0zm2.7 3.8c-.5.7-1.6 0-2.7.3.5-.4 1.8-.2 2.7-.3zm-28.2-.1c-.1.1-.2.4-.3.6l-.4-.1c.3-.8.3-.1.7-.5zm-1 2.1c-.3.6-.6 0-.9.3.4-.9.5-.2.9-.3zm-9.3-2.9c.2-.3.2 0 .4 0-.2.3-.3.3-.5.7-.2-.2.1-.5.1-.7zm.5.1c0 .1 0 .2.1.2-.2.4-.3.3-.4.6-.1-.2 0-.6.3-.8zm4.5 2.2c-.3.3-.6.2-1.1.5.2-.2.4-.3.6-.7.2.3.5-.2.5.2zm-5.4-2.2c-.1.1-.2.2-.3.4.3-.7-1.3.4-.4-.8-.2.8.9-.3.7.4zm4.6 2.1c-.2.2-.4.2-.6.2.2-.4.6-.4.6-.2zm-2.8 0c.3 0-.3.8-.4 1.2-.2-.2.2-1.1.4-1.2zm-4.9-1.4c0-.2-.5-.5-.9 0 .1-.4.1-.4-.2-.4.2-.4.3-.2.5-.5 0 .7 1.1-.1.6.9zm.6 0c0 .1-.1.3-.1.4-.3.3-.4-.2-.7.2.1-.4.6-.6.6-.2l.2-.4zm-1.6-.9l-.3.4c-.1-.1-.4-.1 0-.5.1.2.3 0 .3.1zm-1.7 0c0-.3 1-.6.8-.2-.3.4-.5 0-.8.2zm.4.1c.1 0 0 .1 0 .2.3-.1.9-.8.7-.3-.3.4-.4-.1-.7.5-.2-.1-.2-.2 0-.4zm-.9-1c-.1.3.3.1.4.3-.6.4-.7.1-1.1.4 0-.3.6-.6.7-.7zm-6.2-1.8c.1.1-.7.7-.6.3.1-.1.2 0 .3-.1 0-.5-.6.3-.7-.1.7-.2-.2-.2-.2-.6.6.1.9.3 1.2.5zm55.4 1.7c.6.4 1.8-.4 2.6.4-.9 0-1.4.1-2.4.3.1.4.3 0 .4.1-2.9.7-4.9.6-7.4.7-.2.1-.1.6-.2.7H371c.1-.9-.2-.9-.3-1.2-.2-.1 0 .8-.1.7 0 .4.2.4.3.3-1.7.4-4.1.3-6.5.3-.1.3-.4-.1-.3.5-.8-1.3-1.7-.1-2.7-.6.1.6-.2-.1-.5.5-.2 0-.1-.1 0-.4-3.5-.2-7.2-.8-9.9-.5-.4-.4-.9-.6-1.7-.3-1.1-.3-2.1-.9-3.5 0 .1-.3.2-.3.2-.3-.4-.4-1.3-.6-2-.5-.1 0-.1.4-.3.8-.2.1-.3-.3-.5 0-.1-.6.4.1.5-.6-.3-.5-.8-.2-1.4.1-1.6-1.2-4.2-.8-5.6-1.4-.3.4.1.4-.2.5-.1-.1-.2.1-.3.2-.1-.2.3-.4.3-.8-1.4-.1-1.8-.5-3-.3.5-.4-.1-.1.1-.4-.5.2-1.1.7-1.5.4.4-.5.6 0 1-.3-.8-.6-1.3-1.1-3.2-.8-.5.6.5.1-.1.7-.8.1-1.3 0-1.4-.7.2-.1.2 0 .4-.1-.2.2-.8-.5-1.5.2.1-.6-.3-.7-1.2-.1 0-.3-.2-.6.2-.9-.2 0-.3.3-.6.1-.5.7-.1.8.5 1.2.4-.1.2-.2.7-.6.1.4-.5.5-.4.9.6.4 1 0 1.4.5-1 .7-1.3-.1-1.7-.4-.3.1-1 0-1.1.1-.4.1 0-.3.4-.4-.7-.5-1.3 0-2 .3 0-.3.3-.6.7-.8-.8-.3-1-1.5-2.8-.7 0-.1.3-.3.2-.4-.8.3-.2-.7-1.4-.3.5-.7-.6-.9-1-1.2l.8-.4c-.4-.4-1-.7-1.4-1.1-.6.6.8.7.9 1.2-1.9-.8-3-1.9-4.5-3.5 1.3.8 1.9 1.6 3 2.4.3-.4-.6-.3-.1-.7-.5-.1-1-.5-1.4-.9-.4-.4-.6-.9-.5-1.1-1-.1-1.4-1-2.2-1.9.3-.5.5.3.8.2.6-.1-.6-.4.3-.5.1.5.3.4-.2.7.8-.2.2.3.9.1.1.2-.2.3-.5.3.5 0 1.1-.1.8.4 1-.3.1-1.1-.4-1 .1-.6-.1-1.2-.7-1.7 0-.3.4-.4.8-.4-.5 0 .4-1.1 1-.9.1-.2.2-.4.3-.5.1-.1.1-.1.1-.2.1-.1.1-.2.4-.4.5.2.2-.1.9.1.5-.1.6-.3.8-.5.8-.1.7.2 1.2.2 0-.3.8 0 .5-.4.4.1.7.3.9-.1.7-.1.4.2.9.2.6-.1.8-.2 1.4-.3.4-.1.4.1.9 0 2.3 1.1 4.1 2.1 5.5 3 2.1 1.4 4.5 2.1 6.4 2.6 1.1.3 2.2.6 3.3.8 1.8.4 3.3.6 5.2.8.5.1 1 .1 1.5.2H347.1s-.3-.1-.2-.1h.1l.5.1c.3 0 .6.1 1 .2.3.1.7.1 1 .2.3 0 .6.1.9.1.6.1 1.2.1 1.9.2 2.3.3 5.1.1 7.3.7 1 .3-.2.3-.4.3-2.4-.1-4.3-.5-6.7-.4.2.3.7.4 1.1.3-1.1.3-2.3.3-3.3.1-1-.1-2.3-.5-3.5-.7.2-.4.3-.1.6-.2-.2-.2-.4-.3-.6-.4-.1 0 .2.1.2.1h-.5c-.4 0-.8 0-1.1-.2-.1.8.6.1.9.5.1 0 .2 0 .2.2l-.2-.1c-2.1.2-3.6-.5-5.3-.2.9.4 2 1.1 3.7.6-.1.1-.2.3-.1.3.6.1 1.3.2 1.9.3h.1s-.3-.1-.1 0h.4l.5.1c.3.1.7.1 1 .1-.5 0-1 .1-1.4 0H346.4c-.1 0 .2.1.1 0h-.7c-.8-.1-1.6-.2-2.5-.2.5.7 1.6.3 2.6.8.1.1.2-.2.3-.5.1.1.1.2.2.2-.2-.1-.1 0-.1 0h.1l.1.1.6.3 1.2.3c2.6.6 5.3 1 8 1.2 2.7.2 5.5.4 8.6.5.3 0 .5.1.9.1.3 0 .5.4.8.4.7 0 1.5-.9 2.1.3.2-.1.7.1.5.2-.9.5-1.8 0-2.5.1-3 .2-5.9-.5-8.6-.5 2.2 1.1 4.8.3 6.8.7 1 .2 2.1.1 3 .4 2 .6 4 .4 6.1.2 2-.2 4-.4 6.2.2-.6.8-.8.8-.9.9zm-28-6.4c-.1-.1-.4-.4-.8.1.3-.1 1.4.2.8-.1zm-3.6-.6c.1.8 1.4.7 1.8.4-.6-.2-1.2 0-1.8-.4zm-5.2 1.4l-.3-.1c-.1.3.6.7.9.2-.3-.2-.5-.2-.6-.1zm29.2 7.7c.1-.6-.5-.4-.5-.2.2.2.2.2.5.2zm-46.8-4.2c.4-.3.5-.5.7-.8l-.2-.3c-.5.3-.6.1-.9 0 .3-.2.5-.5.9-.6-.6.2-1.2.2-1.5.6.2-.3-.3-.1-.5-.1-.1.2.6.9.5.2.1.6.9.4 1 1zm-3.1-3.1c-1.6.3-1.3-1.8-2.8-1.2.5.3.4.2.3.7 1-.5.3.2 1 .1.1.1-.2.2-.2.3.4.2.7 0 .6.5.8-.3.4.5 1.1.6l.3-.2c0-.1 0-.1.1-.2-.3-.1-.7 0-.9-.2.3-.1.1-.3.5-.4zm-.7 1.6c.3.3.9 1 1.3.5-.5-.1-.7-.6-1.3-.5zm-1-.9c-.1.3.3.8.9.5-.5 0-.4-.7-.9-.5zm-2.7-4.1c-.1-.4-1.2 0-.7.2-.2.1-.4.1-.3.3.5-.1.5-.4 1-.5zm.8 1.5c0-.1 0-.2.3-.3-.2-.6-.9-.5-1.1-1.1-.4.1-.7.3-.8.6.5 0 1.3.1.8.6.3-.1.6-.1.7 0-.1 0-.1.2.1.2zm38.9 1.4c-.7.8-1.1 0-1.7.2.4-.6 1.2.2 1.7-.2zm-25.9 7.4c.4-.8.5.1.9 0-.1.1-.2 0-.4.3-.1-.2 0-.8-.5-.3zm-2.3-1.3c0-.3-1 .1-.5-.7.3.2.5.3 1 0-.1.2-.2.5 0 .5-.2.1-.4.1-.7.3 0-.1.2-.2.2-.1zm-.4.6c.2-.1.3-.1.5-.3 0 0 0 .1-.1.1l.1.1v.1h.2c-.2.2-.3.2-.3.1v-.1l-.1-.1c-.1.1-.2.1-.3.1z"/></svg>