<svg xmlns="http://www.w3.org/2000/svg" viewBox="0 0 500 500"><path class="st0" d="M303.5 363.8c2.8 3.1-.4-2.1-1.9-4.4-1.9-3-4-6.7-5.9-6.8 1.9 3.3 5.2 8.2 7.8 11.2zm-41.6-62c-2.4-2.8-8.7-7.5-7.6-11.8 2.4 4.1 6.2 9 7.6 11.8zm5.4 7.1c-4.4-3.1-3.1-6.3 0 0zm-26.4-38.2c.4.3 0 .6-.3.8 5.4 5.6-3.1 2.2.3-.8zm-2.9-1.8c-2.3.2-2.6-5.1-4.9-4.9 1.2-2.3 4.8 4.2 4.9 4.9zm-23.4-21.4c2.7-1.4 3.2 3.6 4.9 4.9.2 2.8-3.1-4.9-4.9-4.9zm98 155.3c-4.3-3.2-2.9-6.3 0 0zm9.1 15.2c-4.8-3.9-2.8-6.4 0 0zm-2 26.6c-4.6-2.8-6.5-11.5-12.6-19.7 3.8 3.2 8.5 13.7 12.6 19.7zM182.6 252.7c-.7 0-1.6.4-2.6 1.1l-1.7-2.6c3.1-1.5 1.9 1.2 4.3 1.5zm-8.7 3.4c-2.5.8-3.2-3.2-5.2-4 3.6-.9 2.6 2.2 5.2 4zm-46-61c1.2-.9 1.3 1.3 2.1 1.7-1.2.6-2.1.1-3.5 1.2-.6-1.6 1.3-2.1 1.4-2.9zm2.6 2.6c-.1.6-.1 1.1.3 1.7-1.4 1.4-1.7 0-2.9.8.1-1.2 1.3-2.6 2.6-2.5zm21.7 32.6c-1.9-.1-3.7-2.3-6.4-3.1 1.3.1 2.5.5 4.1-.3.6 2 3 1.6 2.3 3.4zm-26.1-36.5c-.6.1-1.2.2-2 .8 2-2.5-7.4-3.2-1.5-5.8-1.8 3.4 4.7 2.3 3.5 5zm22 31.8c-1.3 0-2.4-.8-3.2-2.2 1.7-.7 3.5 1.3 3.2 2.2zm-14.5-13.7c1.6 1.3-2.4 2.4-3.5 3.6-.8-1.3 2.3-3.6 3.5-3.6zm-24.7-26.7c-.1-1.1-2.4-4.2-4.7-3 .8-1.6.5-1.6-.9-2.5 1.3-1.4 1.7 0 2.9-.8-.2 3.4 5.9 3.2 2.7 6.3zm3.2 2.1c.2.6-.9 1.1-.6 1.6-1.6.3-2.1-2.3-3.8-1.7.5-2 3.6-.8 3.2.9.5-.2.9-.5 1.2-.8zm-7.6-9.7c-.6.4-1.1.8-1.7 1.2-.4-.8-2.1-1.7 0-2.5.3.9 1.2.4 1.7 1.3zm-8.6-4.6c.1-1.4 4.8-.5 4.1.9-1.8 1.2-2.6-1-4.1-.9zm1.8 1.2c.4.3.1.6-.3.8 1.3 0 4.5-1.8 3.8.5-1.5 1-1.9-1.4-3.8.8-.7-.7-.8-1.4.3-2.1zm-4.8-7.9c-.4 1.3 1.8 1.4 2.4 3.3-3.1.2-3.7-1.8-6.1-1.3-.1-1.8 2.9-1.9 3.7-2zM62 147.4c.7.6-2.6 3.1-2.6 1.2.5-.3.9 0 1.4-.4-.3-2.7-2.7 1.1-3.2-.8 3-.6-.9-1-1.2-2.9 2.7.5 4.1 2 5.6 2.9zm281.5 325.3c.8 4.9 8.4 13.3 8.5 20.3-3.7-7-6-10.8-10.4-17.9-1.3.8.8 2.1 1 3-3.5-5.4-6.6-10.4-9.5-15.1-2.9-4.7-5.6-9.1-8.1-13.4l-7.5-12.9c-2.5-4.3-5.1-8.6-7.9-13.2-1.3-1.2-2.5.4-3.2.1l-5.6-9.3c3.4-1.4 2.3-3.1 2.9-4.8-.3-1.5-2.6 2-2.9.6-1.3.9-.6 1.9.1 2.9-4.3-5.6-9.2-12.9-14.4-20.8-2.6-4-5.2-8.1-7.9-12.3-2.7-4.2-5.5-8.4-8.3-12.6-1.4.4-1.3-2.9-3.2-1.1.1-9.1-7.9-12.4-10.9-20-1.3 2.2-.7-1.8-3.7-1.9-.7-1.1.1-.8.9-1.2-16.6-24.6-34.5-50.5-49.1-65.6-1.2-4.2-3.7-8-8.6-11.7-5.1-7.7-9.9-16.9-19-20.9.9-.8 1.3-.4 1.7.1-1.6-4-5.9-9.8-9.9-13.3-.7-.9-1.1 1.5-2.9 2-.9-.6-1.2-3.3-2.6-2.6.6-3.3 1.8 2.4 3.5.1-.6-3.8-4.1-5.7-7.5-7.4-6.8-14.3-22.3-26.2-29.6-35.4-2.1.3.2 2.6-1.4 1.6-.3-.9-1-.5-1.7 0-.7-1.8 1.9-1 2.3-2.9-7.5-6.7-9.8-10.6-16.7-14.1 2.8-.6-.5-.8.2-2.1-2.7-.5-5.9.2-7.9-2.6 1.8-1.5 3 1.8 5.6 1.7-4.3-5.7-7.7-11.1-17.4-13.5-2.1 2.1 2.6 2 .1 3.7-4.2-1.4-6.7-3-7.4-6.7.7-.3 1 .5 1.7 0-1.1.6-4.2-4-7.3-1.7.2-3.2-2-4.1-5.9-2.1-.1-1.7-1.4-3.3-.1-5-.9-.1-1.3 1.1-2.6 0-1.4 3.5.4 4 3.4 7.1 1.7 0 .9-1 2.8-2.1.9 2.1-1.8 1.8-1.3 4.1 2.9 2.8 4.9 1.5 7.1 5-4.7 2-6.1-2.7-8.5-4.6-1.5.1-4.9-1-4.9-.9-1.6.3 0-1.3 1.4-1.6-3.6-3.4-6.3-1.5-9-.4-.3-1.6.7-2.6 2.8-3.3-4-2.3-6.2-8.8-13.1-5 .1-.7 1-1.4.2-2.1-3.3 1.3-1.8-3.7-6.4-1.6 1.2-3.3-3.6-4.1-5.7-5.3.9-.7 1.9-1.4 2.8-2.1-2.4-2-5.1-3-7.6-4.5-1.6 3.2 4.3 2.8 5.7 5.3-9.1-2.9-15.2-7.1-23.5-11.7 6.5 1.7 10 4.6 15.8 7.2.7-2-2.7-1.1-1.5-3.3-4.4-.5-11-4.3-11.2-6.9-4.1 1-7.1-2.6-12.1-4.5 0-2.3 2.2.2 3.2-.4 1.8-1.5-3.2-.7-.1-2.5 1.6 1.8 2.1 1.3.7 3.3 2.5-1.9 1.3.8 3.7-.9.9.7-.2 1.4-1.1 2.1 1.8-.9 3.7-2.1 3.8.4 3.2-2.5-1.8-4.7-3.7-3.7-.9-2.6-2.9-5.1-6.1-5.8-.6-1 .7-1.9 2.2-2.9-1.8.9-1-4.6 1.5-5 .1-4.2-1.3-4-1.2-7.5 2.4.1.4-.9 3.4-1.3 1.3-1.5.7-3.1 1-4.6 2.2-2.2 3.3-.4 5.2-1.3-1.3-1.8 3-1.3.1-3.3 1.9-.4 3.6.3 2.8-2.1 1.9-1.9 2.4.7 4-.5 1.9-1.5 1.6-3.1 3.6-4.6 1.2-1.2 1.8-.2 3.1-1.7 12.5 2 24.8 7.4 35.5 14.6C78 91.5 86.5 97.6 95 104c8.4 6.4 16.7 13.2 24.7 20.4 9.6 8.7 19.8 19.4 28.7 29.3 7.6 8.5 14.3 16.1 20.6 23.2 6.3 7.2 12.3 14.1 18.3 21.1 12.1 14.2 24.5 29.4 40.6 50.7 6.5 8.5 13.9 17.8 21.1 27.2 7.2 9.4 14.1 19.1 19.5 28.6 5 8.7-2-.7-3.2-2.3-13-17.8-23.1-33.2-37.7-50.1.7 2.7 3.5 6.8 6 9.1-13.8-12.7-26-31.9-38-46.7 2.1-.5 1.6 1.2 3.5 2.7-2.4-7.1-8.3-9.8-12.6-17.3-1.3 3.6 3.5 4.4 5.3 9 .4.7 1.4 1.5.6 2.1l-1.2-1.7c-6.4-6.2-12.3-13-18-19.7-2.9-3.3-5.7-6.6-8.6-9.7-2.9-3.1-5.9-6-9-8.6 7 9.2 13.9 20.7 25.4 29.2-.7.1-1.4.2-1.2.8 7.6 9.2 14.4 18.3 21.3 26.4-10.7-10-19.5-22-30.4-33.4 2.9 7.2 10.2 12.1 15 20.6.4 1.1 1.4.3 2.3-.3 2.2 6.7 6.9 11.9 10.8 17.2 7.3 10.1 14.4 19.8 21.6 29.5 7.1 9.7 14.1 19.3 21.2 29 14.2 19.6 28.6 40 44 63.8 1.3 2 2.2 4 4.1 6.6 1.5 2 1.5 5.2 2.9 7.4 3.6 5.5 10.5 9.6 9.2 16.3 1.3 1.4 3.1 5.4 1.6 3.9-6.1-6-8.6-13.4-12.3-18.7-15.4-22.2-28.4-44.8-42.9-63.9 2.2 4.7 4.8 9.2 7.7 13.6 2.8 4.4 5.8 8.7 8.9 12.8 3 4.2 6.1 8.3 8.9 12.3 2.8 4.1 5.5 8.1 7.7 12.2 4.1 7.6 10.4 16.2 13.7 23.3 3.8 8.2 8.2 16 12.9 23.7 4.7 7.7 9.6 15.3 14.5 23 4.9 7.7 9.6 15.4 14 23.4 4.4 8 8.2 16.2 11.3 24.9-2.7 0-3.3-1.6-4.3-2.2zM221.3 244.9c-.6-1.1-2.1-5.2-5.2-5.3 2.1 1.7 8.1 10.7 5.2 5.3zM201 218.4c-.5 4.3 5.9 10 9.1 12.1-2.8-4.7-6.4-7.1-9.1-12.1zm-34.3-27.6l-2.1-3c-.5 1.1 3.5 7.6 5.6 6.9-1.4-2.2-2.3-3.3-3.5-3.9zm137 227.1c2.3-.8-.6-4.2-1.5-3.9.6 1.9.3 1.6 1.5 3.9zM66.4 146.2c1.7-1.2 1.6-2.5 2.5-3.7l-1.5-2.1c-1.8 1.2-2.8-.2-4.1-.8 1.2-1.1 1.8-2.5 3.4-2.5-2.4.4-5.4.5-6 2.5.6-1.7-1.3-.5-2.3-.8-.1.9 3.6 5 2.6 1.2 1 3.6 4.3 3.2 5.4 6.2zm-17.9-17.3c-6.5 2-8.6-8.7-14-4.8 2.4 1.1 2 .9 2.4 3.3 3.3-2.9 1.8.9 4.3 0 .4.5-.7 1.1-.5 1.7 1.8.7 3-.4 3.5 2.4 3.1-1.5 2.6 2.4 5.6 2.8l1.1-.8c-.2-.3-.3-.5.3-.8-1.3-.8-3.2.1-4.4-1.2 1.1-1-.1-1.8 1.7-2.6zm-.9 8.2c1.7 1.6 5 5.1 6.5 2.9-2.3-.8-3.9-3.4-6.5-2.9zM42 133c-.1 1.3 2.3 3.8 4.4 2.4-1.7-.2-2.3-3.5-4.4-2.4zm-17.9-17.1c-1.1-1.9-4.7 1.8-2.2 1.7-.7.6-1.2 1.1-.5 1.7 1.6-1.2.9-2.3 2.7-3.4zm6 5.7c-.3-.5-.5-1.1.5-1.7-1.7-2.5-4.4-1.5-6.2-3.7-1.2 1.1-2.1 2.2-1.9 3.3 2.1-.5 5.4-.9 4.1 2 1.1-.7 2.1-1.1 2.9-.9-.6.6-.2 1.4.6 1zm223.3 167.1c-5.7-2-6.4-8.2-10.3-12 3.5.4 6.4 9.3 10.3 12zM98.7 178c2.1-3.3 2.4 1.7 4.4 2.5-.8.1-1.3-.5-2.3.4-.3-1.2.2-4.1-2.1-2.9zm-11.6-12.6c-.3-1.5-5-1.3-2.4-4.6 1.8 1.8 2.5 2.5 4.7 1.7-.3 1-1.1 1.9.3 2.9-1.1.1-1.9-.3-3.2.4-.2-.6.4-.6.6-.4zm-1.7 2.5c.9-.4 1.4.1 2.3-.4-.8 1.6-.5 1.6.9 2.5-2.3 1.3-1.2-1.6-3.2-2.1z"/><path class="st0" d="M449.9 23.2c.4.1.7.1 1 .1.1 0 .3 0 .4.1.2 0 .3.1.4.1.3 0 .4.1.4 0s-.2-.1-.4-.1h-.1c-.1 0-.2 0-.3-.1-.1 0-.2 0-.3-.1-.2 0-.4-.1-.7-.1-1-.2-2.3-.4-3.6-.7-1.3-.2-2.6-.3-3.6-.5-5.3-.6-11.4-.8-12.9-.3h2.1c.8 0 1.6 0 2.4.1.8 0 1.7.1 2.5.1.9.1 1.8.1 2.6.2 3.6.2 7.2.7 10.1 1.2zM351 41c-4.4 1.8-13.1 5.8-17.1 6.5 5.7-2.1 13.3-5.1 17.1-6.5zm10.8-3.8c-6 2.5-8.6 2.6 0 0zm-55.9 22.2c.5-.3.6-.2.7-.1 8.9-4.2.5.8-.7.1zm-3.6 1.9c-1.1 1-6.7 3-7.8 4-1.7.3 7.1-3.8 7.8-4zm-34.9 19.1c.1-.9 5.3-2.9 7.6-4.3 3-1.1-6.6 3.4-7.6 4.3zM487 67.7c-.3-3.7-.7-6.5-.7-6.9 0-.2.1.2.3 1.3.1.6.2 1.3.3 2.2.1 1 .1 2.1.1 3.4zm-2.6 24.4c.4-3.6.8-6 1-6.2.1-.1 0 .3-.1 1.4 0 .3-.1.6-.1.9-.1.3-.1.7-.2 1.1-.2.7-.4 1.7-.6 2.8zM475 119c.7-6.1 3.7-16.7 5.8-29.6-.3 3-1.2 8.1-2.4 13.6-1.1 5.5-2.4 11.4-3.4 16zM255.4 94.9c-.4.4-.4.7-.2.9l-3.5 1.9c.1-.9 2.2-1.4 3.7-2.8zm-1.2 3.3c-.5 1-5 3-6.7 4.3 1-1.5 3.5-2.1 6.7-4.3zm-83.3 52c-.3-.3 1.9-1.4 2.7-2-.1.4-.9 1.2-.6 1.5-1.9 1.1-1.4.2-2.1.5zm3.7-2.7c.5-.2 1-.4 1.8-1 .7.1-.9 1-.7 1.3-1.1.6-1.8.5-1.1-.3zm42.7-27c-1.1 1.1-4.2 3-6.4 4.8.8-.8 1.7-1.6 1.8-2.1 2.3-1.1 3.1-2.2 4.6-2.7zm-48.5 31.4c-.2.3-.4.6-.3.8-.7 0-2.4 1.5-3.9 2.6-1.4 1.2-2.7 2.1-2.4 1 2.3-.6 4.5-3.8 6.6-4.4zm41.7-27.1c-.7.7-2 1.7-3.7 2.8.1-.6 3-2.6 3.7-2.8zm-20.7 14.4c2.1-1.5 1.2.2 1.8.3-1.7 1-2.4.3-1.8-.3zm-37.8 27c-1 .6-5.2 3.5-5.1 4.2-1.1.3-1.3.5-2.8 1.7-.7-.1.9-1 .7-1.3 3.1-1.5 5.9-5 7.2-4.6zm3.7-3c.6-.4.6 0 1.3-.5-.5.8-3.2 2.4-3.5 3.1-1.7.7 1.1-1.8 2.4-2.3l-.2-.3zm-13 9.3l.3.4c-1 .7-2.6 2.1-2.4 1.3 1-.7 1.1-1 2.1-1.7zm-8.5 7.4c-1.3.6 1.8-2.6 2.8-2.9.3.5-2.2 2.1-2.8 2.9zm2-1.7c.4-.4.5-.3.6-.2.7-.8.5-1.8 2.3-2.5.2.4-2.2 1.8-1.1 1.9-1 .8-1.6 1.1-1.8.8zm-9.7 6.9c1-.4 2.2-1.8 4.3-3.1-1.3 1.7-3.5 3.1-4.2 4.3-1.8.9-.4-.8-.1-1.2zM94 213.6c.9-.8 1.5.1-.1 1 0-.2.4-.5.3-.7-2.6 1.6-.3 1.1-2.3 2.4.9-1.6-1.4 1.1-3.3 2.3 1.8-1.9 3.8-3.6 5.4-5zm370.6-48.8c-2.1 5.6-6 19.5-9.4 26.6 3.4-9.7 5.2-15.1 8.3-25.5-.4 0-.9 2.7-1.4 3.8 4.8-15.9 8.2-29.1 11.3-41.8 3-12.6 5.6-24.7 8-38.4.3-2.1-.4-1.3-.3-2.1.8-4.7 1.5-9.5 1.8-14.5.4.4.7-.1.9-.9.2-.8.3-1.9.5-2.7.1-2-.8.5-.7-1.5-.2.1-.3.5-.3 1.2s-.1 1.5-.1 2.5c0-4.9-.3-10.6-2.4-16.8-.3-.8-.5-1.5-.9-2.3l-.5-1.1-.3-.6-.3-.6-.7-1.2-.3-.6-.2-.3-.1-.2c-.4-.7-.9-1.3-1.4-2-2.1-2.8-4.7-5.3-7.6-7.3-5.8-4.1-12.6-6.4-19.3-7.8-6.7-1.3-13.6-1.8-20.4-1.6-.5.3-4.2.1-3.5.7-5.2-.3-10.1.3-14.9 1.3-4.9 1-9.7 2.3-14.8 3.4 1.6.2-2.4.5-4.4 1.7-1.7.5-.8.1-.7-.2-18.5 5.6-37.1 12.1-54 19-2.1.8-4.2 1.7-6.3 2.5-2 .9-4.1 1.8-6.1 2.7-4 1.8-7.8 3.5-11.6 5.2-7.5 3.2-14.2 6.8-20.1 9.8-2.5 1-5.1 2.1-7.9 3.5-1.4.7-2.8 1.4-4.3 2.2-1.5.8-3 1.7-4.6 2.7-5.3 2.7-10.9 5.6-16.3 8.5-1.3.7-2.7 1.4-4 2.2-1.3.8-2.6 1.6-3.8 2.4-2.5 1.6-4.9 3.2-7.1 4.8-.4-.1.3-.5 1-1-2.4 1.2-5.6 3-9 4.9-1.7 1-3.4 1.9-5 2.9s-3.1 2-4.5 2.9c-1.3.8 1-.1.4.8-1.1.8-3.9 2.1-3.9 2.5-2.9 1 3.3-2 1.9-2-4 1.9-7.8 4.7-11.1 7.3-4.4 2.4-8.9 5.2-13.3 8.1-4.5 2.9-8.9 5.9-13.2 8.8-8.5 6-16.4 11.8-22.6 16-.7 1 2.6-1.3.8.1-1 .6-1 .8-.9 1-2.1 1.3-.1-.6-1.6 0-10.1 7.7-14.9 11-21.5 16.7.9-1.4-.9.7-1.8.9-1.8 1.9-2.7 3.5-6.3 6.1-.5-.4 3.2-2.7 4.3-4.2-7.4 5.5-14.1 10.1-21.1 17.3 1 .2 3.1-2.6 3.5-2-3.3 3.3-6 5.6-9.8 7.9 0-.3 1-.9.9-1.1 0 .4-5.7 4.6-5.1 5.3-2.9 1.5-4.8 3.4-4.8 4.7-1.6.9-3.7 2.5-4.7 2.6-.5.6.4.2-1.3 1.6 2.5-.9 3.9-2.3 8.1-5.7.8-1-.5 0-.5-.7 2.4-1.6.8.2 3.2-1.3 4-3.2 3.8-3.8 8.1-6.9-.4 1.8-5.5 5.1-8.4 7.6-.6.9-3.3 3.5-3.2 3.5-.6.9-1.2.7-.8 0-4.9 3.9-4.4 4.7-4.7 5.8-1.6 1-2.1.9-1.7 0-4 3.6-11.1 8.4-10.9 10.8-.6.3-.8.1-1.8.9-.4 1.4-4.3 3.1-4.6 4.9-2.5 1-5.5 4.4-7.6 6.4l-.5-.7c-3 2.6-5.2 4.8-7.8 7.2 2.1-.7 4.6-4.2 7.6-6.4-3.5 3.6-7 7-10.7 10.4-3.6 3.4-7.4 6.9-11.5 10.7 4.7-5 9.1-8.8 14.3-13.9-1.5.6-2.4 2.3-3.8 2.7-2.5 3-9.3 9.3-11.7 10.8-1.1 2.1-5.8 5.9-9.8 10-2 1.2 1.3-1.5 1.1-1.8-.5-.3-2.1 2.4-2.3 1.4 2.4-2 2.2-2 3.3-2.2-.5-.6 1.4-1.2 1-1.9 1.1-.9 1.1-.6 1.4-.4.1-.7-.1-1.3 2.2-2.6-.8-.7-5.1 3.6-5.1 4.2-2.8 1.9-6 4.5-8.1 6.9-1.2.9-1.4.5-1.6.1 0 .6-4.6 3-3.8 1.6-3.7 2.1-4.2 2.9-7.3 4.7 1.3-1.6-.6.2.5-1.5-.7-.1-2.4 1.2-3.7 1.8-.9-.3 1.2-1.9 1.3-2.6-2.3 1.8.3-1.2-2.9 1.7.5-1 2-2.4-.5-.7-.8-.2 1.8-1.9 1.5-2.3-.5-.4-2 .6-2.4.1-.5-.2.7-1.1 0-1.1 7.9-9 18.6-19.7 30.3-30.2 9.1-8.2 18.7-16.7 28.5-25.3 4.9-4.3 10-8.5 15.1-12.8 2.5-2.1 5.1-4.3 7.7-6.4 2.6-2.1 5.2-4.2 7.8-6.4 6.3-5.1 13.1-10.6 20.2-16 7-5.4 14.1-10.9 21-15.8 5.9-4.3 11.4-8.3 16.7-12.2 5.4-3.8 10.5-7.4 15.6-10.9 2.5-1.8 5-3.5 7.5-5.2 2.5-1.7 5-3.3 7.4-5 4.9-3.3 9.8-6.5 14.8-9.8 5.1-3.2 10.2-6.4 15.5-9.7 2.7-1.7 5.4-3.3 8.1-5 2.8-1.6 5.7-3.3 8.6-5 2.9-1.7 6-3.5 9-5.2 3.1-1.8 6.2-3.7 9.6-5.4 6.7-3.6 13.8-7.4 21.4-11.4 6.2-3.1 12.7-6.3 19.4-9.5 1.7-.8 3.4-1.7 5-2.5 1.7-.8 3.4-1.6 5.2-2.3 3.5-1.5 7-3.1 10.5-4.7 3.5-1.5 7-3.1 10.5-4.6 3.6-1.4 7.1-2.8 10.6-4.1 3.5-1.3 7-2.7 10.4-4 1.7-.6 3.4-1.3 5.1-1.9 1.7-.6 3.4-1.1 5.1-1.6 12.4-4-1.9 1-4.4 1.8-6.7 2.5-13 5.1-19.3 7.5-1.6.6-3.1 1.2-4.7 1.8-1.5.6-3.1 1.2-4.6 1.9-3 1.3-6 2.6-9 4-3 1.3-6 2.6-9 4-3 1.3-6.1 2.6-9.1 4.2-6 3-12.2 6-18.6 9.3 3.1-1.2 9-4 12.8-6.1-5.2 2.8-10.8 5.6-16.5 8.6-5.7 3.1-11.5 6.2-17.4 9.4-5.9 3.1-11.7 6.5-17.4 9.7-2.8 1.6-5.7 3.2-8.4 4.8-1.4.8-2.7 1.6-4.1 2.4l-3.9 2.4c.5-.9 2-1.4 4.4-3-8.2 4.3-14 8.7-23.5 14.2 3-.9 6.2-3.8 11.6-6.7.9-.5 2.2-1.4 2.4-1.2l-2.3 1.4c-2.4 1.5-4.7 3.1-7.1 4.6-2.4 1.5-4.8 3-7.2 4.6-4.7 3.2-9.5 6.3-14.1 9.4-2.3 1.6-4.7 3.1-7 4.6-2.3 1.6-4.5 3.2-6.7 4.7-4.4 3.1-8.7 6.2-12.7 9.2 6.2-4.2 12.8-8.6 19.7-13.3 7-4.6 14.2-9.4 21.2-14.5-.3.4-.5.7.2.3 6.4-4.1 12.8-8 19-11.8 6.1-3.9 12.3-7.4 18.2-10.8-3.9 2.4-7.9 4.8-11.9 7.2-4 2.5-8 5-12 7.6-4.1 2.6-8.2 5.1-12.3 7.8-4.1 2.7-8.2 5.5-12.3 8.3 4.2-2.4 8.5-5.2 13-8.2 4.6-2.9 9.4-6 14.8-9.1 1.3-.7 1-.9.9-1.1 1.9-1 3.9-2.1 5.8-3.2l2.9-1.7c1-.5 1.9-1.1 2.9-1.6 3.8-2.2 7.6-4.3 11.2-6.4 3.5-2 6.9-4 10.4-5.9 3.5-1.8 7-3.7 10.4-5.5 6.9-3.6 13.7-7.4 20.7-10.6 3.5-1.7 6.9-3.4 10.4-5.1 3.5-1.7 6.9-3.4 10.5-4.9 7.1-3.1 14.2-6.2 21.3-9.4 7.3-2.9 14.6-5.7 22.1-8.7 1.9-.7 3.7-1.5 5.6-2.1 1.9-.7 3.8-1.3 5.8-2 3.9-1.3 7.7-2.6 11.7-4 2-.7 3.9-1.3 5.9-2l1.5-.5c.6-.2 1-.3 1.5-.5l3-.9c4.2-1.3 8.4-2.4 12.7-3.5 8.7-2.2 17.9-4 27.8-4.6 1.6-.1 3.2-.2 5-.2 1.8 0 3.7 0 6 .1 1.8 0 3.7.3 5.5.6 1.9.3 3.7.7 5.6 1 1.2.2 2.3.4 3.5.6l1.7.3 1.9.4c2.5.6 4.9 1.3 7.2 2.2 2.4.9 4.6 2 6.7 3.3 2.1 1.3 3.9 2.8 5.4 4.4 1.3 1 3.2 2.9 4.4 4.3 1.2 1.5 1.7 2.3.5.9-2.4-2.8-5-5-7.7-6.9-2.7-1.9-5.4-3.3-8-4.5-2.7-1.2-5.2-2.1-7.7-2.8-1.2-.4-2.7-.7-3.6-.9-1.3-.3-2.4-.5-3.5-.7-9.5-1.6-19-1.6-28-.6s-17.7 2.8-25.9 5c-2.1.5-4.1 1.1-6.1 1.7l-3 .9c-1 .3-1.9.6-2.9.9-4 1.3-7.8 2.6-11.6 3.9-3.8 1.3-7.6 2.6-11.4 3.8-1.9.7-3.8 1.2-5.6 2l-5.4 2.1c6.2-2.3 12.7-4.3 19.1-6.4 3.2-1.1 6.4-2.2 9.6-3.2 1.6-.5 3.2-1.1 4.8-1.6 1.6-.5 3.1-1 4.8-1.5 6.5-2 13-3.8 19.5-5.2 6.5-1.4 13.1-2.3 19.5-2.6 5.9-.3 12.7-.2 19.3.7 1.7.2 3.3.5 4.9.8l1.3.3 1.1.2.5.1.6.2c.4.1.8.2 1.3.3 3.2.9 6.2 2 8.9 3.3 3.1 1.5 6.2 3.3 9 5.7l2.1 1.8c.7.7 1.4 1.3 2 2 .6.7 1.3 1.4 1.8 2.2l.4.6.1.1.1.1.3.4.1.2.6.9c4.2 6.6 5.8 13.9 6.1 20.6.3 6.7-.4 13-1.4 19l-.7 4.4-.7 4.3c-.5 2.9-1.1 5.8-1.6 8.7-4.4 23.1-10.2 46-18 68.1.2-3.3 1-5.3 1.2-6.5zM268.4 77.9c-1.4.7-6.5 3-8.2 4.6 2.8-1.6 15.3-8.1 8.2-4.6zm-37.6 21c4-1.4 13.2-7.1 16.9-9.7-6.2 3.4-10.5 6.2-16.9 9.7zm-44.7 30.9l-3.9 2.5c.8-.2 9.2-5.4 9.5-6.2-2.9 1.9-4.4 2.9-5.6 3.7zm296.4-50.5c.3.4.5-.9.7-2.4.1-1.5.2-3.1 0-3.3-.1 1.3-.2 1.9-.3 2.5 0 .7-.1 1.4-.4 3.2zM95 211.5c-.3-.4-1.5.3-2.2.4l-2.6 2c.2.5-1.5 1.9-2.7 3-.4-.2-1.5.2-.6-.8-.8 1.3-2.2 3.1-.6 2.5-1.3.5-1.1 1.1-1.9 1.9.7-.4 6.3-4.8 2.4-2.3 3.7-2.6 4.9-4.4 8.2-6.7zm-24.6 20.2c-1.4 3.1-12.2 10-11.3 11.4 2.2-2.1 1.8-1.7 4.2-3.3-1-.6 1.7-1.6 2.1-2.7.7-.5.7-.1 1.3-.5 1.5-1.5 1.1-1.7 4-3.5.1-1.1 3.5-2.9 5.3-5l-.2-.3c-.3.2-.6.5-.6.3-1.4 1.3-1.5 2-3.2 3.4-.3-.3-1.7.9-1.6.2zm7.1-3.7c2.3-1.9 7.1-5.8 5.8-5.5-1.8 1.7-4.9 4.1-5.8 5.5zm-6.4 5.7c1.2-.6 4.6-3.4 4.4-4.1-1.1 1.2-4.5 3.3-4.4 4.1zm-24.4 20.4c-2.3 1.7-.7 2 .4.6.2.1.4.2 1.3-.5-.2-.6-1.6.4-1.7-.1zm8.1-6.8c-.6.5-1.3.9-1.3.5-3.1 2.4-3.6 3.6-6.3 5.9.4.2 1 .2 2.1-.5.6-1.1 1.8-3 3.8-3.7-.1-.3 0-.7.6-1.4.1.1 1.1-.6 1.1-.8zM332 48.3c-1.4.8-2.8 1.5-4.4 2.1-1.5.7-3.1 1.4-4.7 2-3.2 1.3-6.4 2.6-9.5 4.1 1.2-.9 4.5-2.3 8.2-3.9 1.8-.8 3.8-1.6 5.6-2.4 1.9-.6 3.5-1.3 4.8-1.9zM140.2 175.8c-2 .4 2.8-2.3 4.5-3.9-.3.4-1.1 1-.8 1.2-1.2.7-3.7 1.8-3.7 2.7zM122.8 189c-1.5.9-3.6 3.7-5.4 3.8 2.5-2 3.5-2.8 3.8-3.7.8-.3 1.3-.3 2.9-1.7-.4.6-1.2 1.3-1.2 1.7-.6.5-.4.1-.1-.1zm1.5-.2c.1-.3.8-.9.8-1.2 1.1-.3 1.3-.5 2.8-1.8 0 .7-2.2 1.5-3.6 3z"/></svg>