<svg xmlns="http://www.w3.org/2000/svg" viewBox="0 0 499.3 499.5" preserveAspectRatio="none"><path fill-rule="evenodd" clip-rule="evenodd" d="M483.9.2c15.2-.1-7.3-.1-17.2-.1-13.2 0-28.5 0-32.5.2 13.6 0 35.3-.1 49.7-.1zM210.7.5c-13.4.1-40.4.4-51.6 0h51.6zm32.5-.1c-18.3.2-25.5-.1 0 0zM73.1.6c1.6 0 1.8 0 1.9.1 28.1-.2.3.4-1.9-.1zM61.7.7C57.8 1 40.8.6 36.8.9 32.1.6 59.5.7 61.7.7zM1.3 63.8c-.4-1.3-.1-17.3-.2-24.8.2-8.9 0 21.2.2 24.8zM499 135.7c-.3-18.3.1-25.5 0 0zm0 65c-.3-21.3.1-25.6 0 0zm-1.9 80.2c-.3-17.5 0-48.9-.1-86 .2 17.3 0 59.2.1 86zM5 113.5c.1 1.5.2 2.1.4 1.9v11.5c-.5-1.6-.2-7.7-.4-13.4zm1.1 7.6c.3 2.6.1 16.7.3 22.9-.5-4.6-.1-12-.3-22.9zm.5 282.8c-.2.3 0-6.8-.1-9.6.2.8.2 4.1.4 3.8 0 6.1-.3 3.6-.3 5.8zm-.1-13.4c0-1.5.1-3.1.1-5.7.2-1.4.2 3.8.4 3.8-.2 3.3-.4 4.9-.5 1.9zm.1-145.2c.2 4.3.2 14.8.4 22.9-.1-3-.2-6.6-.4-7.6 0-7.5-.2-11.1 0-15.3zm0 166.2c.1 1 .1 2 .3 1.9-.4 3.5.5 25.7-.3 21 .5-6.5-.3-17 0-22.9zm0-143.3c.1 2.8.2 7.5.2 13.4-.2-1.3-.2-11.1-.2-13.4zm.6 72.6c-.1-7.3.4-2.4.6-3.8 0 5.7-.5 6.1-.6 3.8zm.6 133.7c-.1 3.4-.1 18.1.3 19.1 0 .4-.1.8-.1 1.2L6.2 493c2.2.1 3.6.1 8.3 0 1.4.2-3.8.2-3.8.4-1.5 0-3-.1-4.5-.1l1.5 1.5c0-8.7-.4-18 .1-20.3zm-.2-13.3c0-2.1.2-1.3.2-3.8.2 2.3.1 11.5.3 13.4-.2 5.1-.4-5.4-.3-9.5h-.2zm10.8 32.1v-.3c3.4 0 9.6-.1 7.6.2-3.4 0-4 .2-7.6.1zm32.4-.5c4 .1-8.7.5-11.5.4.3-.3 8.6-.2 11.5-.4zm-7.6.1c-1.6 0-1.8 0-1.9-.1-3.1.1-4.1.6-9.5.4.2-.2 8.2-.1 5.7-.4 3.8-.1 5.9-.1 5.7.1zm34.4.1c-3.1-.1-8 .1-15.3 0 6-.3 13.5-.2 17.2-.5 5.5.1-.5.4-1.9.5zm124.2-1.8c-3.4 0-3.4-.5 1.9-.4-.4.1-1.9.1-1.9.2 8.7.2 2.6-.3 9.5-.3-4.8.4 5 0 11.5.1-7.3.3-14.9.3-21 .4zm296.1-76.6c-.2 17 .1 58-.4 80.2v-76.4c-.2.2 0 8.1-.1 11.5 0-94.6-.1-155.8-.1-235-.1-6.1-.3-3.6-.4-5.7v-40.1c.4 2.1.4-5.6.6-9.6.1-5.2-.4 1.4-.4-3.8-.2.3-.2 4.8-.2 9.6-.1-36.8-.1-86.1-.2-138.7V3.9H494c-20.5 0-42.3 0-63.8.1-1.3.2-11.4-.1-9.6.3-28.2-.6-54.3 0-84-.2 4.1.3-7 0-13.4.3-4.9 0-2.3-.1-1.9-.2-109.4.1-225.3.2-301.6.7-4.3 0-8.8-.1-13.5-.1H4.4v1.9c0 11.8 0 24.8.2 40 0 34.1-.1 72.1.5 103.2-.1.7-.2-1.5-.2-3.8-.1 15.4-.1 41.9.1 61 0 4.3.2-2.5.4 0 .1 4-.1 12.5.1 13.4-.3 8.7 0-11-.4-7.6-.2 12.7 0 26.1.3 38.2-.3 57.9.4 126.6.5 170 .2 3.4.2-8.4.3-1.9 0 3.2.1 3.6.2 3.8-.1 7-.3-.8-.4 3.8.2 31.2.3 47.9.5 68.1l-.3-.3c3.2-.1 6.6-.1 10.3-.2-4.4.3 3.3 0 5.7.2 7.5-.2 12.1-.6 24.8-.6.4.3-12.1.2-17.2.4 26.6 0 50 0 78.3-.8-1.9-.4-11.6.1-11.5-.3 13.4-.3 23.6-.5 36.3-.3-.5.1-3.8.1-3.8.2.6-.2 21.2-.1 21-.6 9.2.3 17 .1 19.1-.4 5.1.1 13 .1 15.3.4 2.2-.1-.5-.2 5.7-.3-7.5-.4-12.9-.3-28.7-.2-3.6.2 1.1.2 0 .4-8.3-.1-1.6-.3-9.6-.4-14.9.1-15.2.4-30.6.4 4-.6 21.5-.4 32.5-.5 3-.2 13.7-.4 13.4-.4 2.8-.2 4 .1 1.9.3 18-.1 18.3-.5 21-.9 5.5.1 6.3.3 3.8.5 15.5-.2 40.1 0 43.9-1 1.9.1 2 .2 5.7.2 3.2-.4 15.3.1 19.1-.5 7.4.4 20.4-.1 28.7-.2v.4c11.4-.1 20.3-.3 30.6-.4-6-.4-18 .2-28.7.2 29-.7 55.8-1 87.9-1.5-19.5.5-36.3.7-57.3 1.1 4.5.2 9.6-.2 13.4.1 11.1-.4 37.7-.8 45.8-.6 6.2-.5 23.6-.5 40.1-.9 6.7.2-5.6.2-5.7.4.6.3 9-.3 7.6.2-8.9 0-8.5.1-11.5-.2-.1.4-5.3.1-5.7.4-4.1 0-3.6-.1-3.8-.3-1.3.2-2.1.5-9.5.4.5.5 18 .2 19.1-.1 9.7.1 21.5.1 30.6-.2 4.2 0 4.1.2 3.8.4 1.2-.2 15.7.2 11.5.5 12.3.3 14.8.2 24.8.4-5.8.2 1.7.1-3.8.4 1.6.2 7.6.3 11.5.4 1.4.4-6.2.4-7.6.6 8.2 0-2.7.4 9.6.3-2.9.2-8.8.3 0 .4 1.4.3-7.3.2-7.6.4.3.3 5.5.4 5.7.7.8.2-3.5.2-1.9.4-33.9 1.1-77 1.9-122.3 2.5-70.4.8-146.4 1.6-223.5 2.2-43.3.2-92.9.5-138.2.7H1.6v-4.6-10.8C.9 317.9.5 226.6.1 31.3c0-7.9 0-16-.1-24.8V.3h6.2C78.6.2 161.9-.1 233.6 0c36.5.1-6 .2-13.4.2C145.1.4 81.3.5 6.2.7h-6v5.9c0 4.5 0 9.8.1 15.2 0-3.9 0-9.2.1-15.2V.8h5.8c8.3 0 17.7 0 24.9-.1-7.9.1-16 .1-24.9.2H.5v5.6C.9 68 .9 140.1 1 201.4c-.3-2.6-.1-7-.2-15.3-.2 26.4.2 46.9.1 78.3.4-8.4 0-20.7.1-38.2 0-3 0-7.3.1-7.6v7.6c.5 64.1.5 131.4 1 189.1 0-42.5 0-91.6-.5-141.4.1 1.2.2 2.3.2 0-.1-43.7-.2-85.2-.4-124.2.4 52.5.5 107 .8 164.3.2-27.9-.2-58-.1-93.6 0-4.1-.1-3.6-.3-3.8.2-25 .1-50.4.1-74.5-.1-46.6-.1-91.8-.2-135.5V2.1h4.5c132-.2 260-.4 414.6-.6h28.7c9.2 0 19.2.2 28.7.2 5.3 0 10.7 0 16.1-.1h4.9v5c.1 19.1.3 38.1-.1 52.7.1 6.9 0 23-.1 15.3-.2-24.6-.1-47.7-.1-68V2H480.1c-99 .1-194.9.2-282.7.3 75.5.3 155.3-.3 223.4-.2H498.6v4.4c0 9.9 0 18.3-.1 26-.5 131.5.4 266.3-.4 399.3-.2-7.5-.2-13.5-.2-17.2zM.4 58.1c0 4.4-.1 20.2.2 26.7-.1-9.2-.1-49-.2-26.7zm.3 122.3C1 168.5.8 137.8.6 125c0 20 .1 34.8.1 55.4zm1.6 154.7v13.4c.1-2.2.2-30.3-.1-32.5 0 9.8 0 15 .1 19.1zm494.8-168.8c.3 1.9.2-14.4.1-15.3-.1 7.1-.1 5.8-.1 15.3zM196 491.8c-.1.3 4 .3 5.7.5h9.5c.4-.3 6.8-.3 11.5-.4.6.2 3.7.4 0 .5 4.1-.3 10.4-.6 5.7-.8 3.8.2 4.4-.1 7.6-.2-2.4-.1-22.9 0-9.5.2-13-.1-18.9.3-30.5.2zm91.7-.6c4.3-.4 15.7-.5 26-.5 10.3-.1 19.7-.1 19.8-.5-8.7.2-7.2.1-15.3 0 1.3.5-6.9.1-9.6.4-2.5 0-1.7-.2-3.8-.2-6.2.1-5.4.3-15.3.2-2.2.4-13.2.1-21 .4v.2c1.2 0 2.3 0 1.9.1 5.3-.1 6.9-.3 13.4-.4.1.2 5.3.1 3.9.3zm-22.9-.7c-8.5 0-26.4.1-22.9.4 7.1-.1 18.5-.1 22.9-.4zm24.8-.2c-3.8-.1-16.6 0-17.2.3 4.4-.2 16.1 0 17.2-.3zm91.7-.6c8.1 0 5.2-.6 0-.4-.2-.1-.6-.2-3.8-.2-.5.4 4.3.4 3.8.6zm-30.5.2c2.3 0 4.5 0 3.8.2 11.2 0 14.5-.3 24.8-.4-.6-.2-2-.4-5.7-.4-3.3.2-9.6.6-15.3.3-.3.2-1.3.3-3.8.4 0-.2-3.4-.2-3.8-.1zM153.4.5c-17.5.5-38.1.1-57.3.3 7.9-.4 41.2-.1 57.3-.3zM29.8 492.7c5.5.4-10.4.1-17.2.3 1.2-.1 4.4-.1 3.8-.3 4.2.1 11.9.4 13.4 0zm63.1-.2c5.1.1 14.7-.4 19.1.1-9.3.1-13 .1-15.3.4-2.3-.1-3.5-.3-9.5-.2 1.8-.2 5.1-.2 5.7-.3 2.1-.1 1 0 0 0zm-3.9-.4c-.7.1-3.4.1-3.8.3-3-.2-4-.2-9.6-.1 1.1-.3 7.5 0 13.4-.2z"/></svg>
