<?xml version="1.0" standalone="yes"?>
<?xml-stylesheet type="text/css" href="/d0/css/yu-le.css" ?>
<svg id="svg--hobbies" class="svg-container" viewBox="0 0 500 500" xmlns="http://www.w3.org/2000/svg">
    <g>
        <path d="M117.489 440.205c-.045 1.008 2.274 3.917 1.357 1.709-.346.421-1.022-2.111-1.357-1.709zm32.876 32.863c3.901 2.618 8.137 4.658 12.735 6.446 4.605 1.785 9.579 3.329 15.131 4.837-4.757-.615-9.876-2.095-15.272-4.128-5.402-2.036-11.077-4.616-17.099-7.588 3.23 2.075 7 3.981 10.537 5.473 3.537 1.498 6.83 2.594 9.072 3.298 2.817 1.175 6.882 2.497 11.351 3.581 4.466 1.094 9.327 1.938 13.653 2.461.045.395-1.655-.064-2.337-.047.376.842 3.906.759 4.582 1.452-4.793.201-10.551-.512-15.661-1.292.553.613 4.007.727 4.648 1.269-3.454-.232-7.443-1.112-11.474-2.249-4.038-1.133-8.115-2.516-11.929-3.628-2.653-.776-4.777-.969-7.125-1.926-7.959-3.276-15.221-8.441-22.455-14.56-4.658-3.948-9.181-8.578-13.103-13.912-3.925-5.322-7.224-11.355-9.526-17.812-.154 1.085 1.873 4.465 1.896 5.551-4.89-9.665-7.527-20.453-7.606-32.787-.024-5.402.384-10.768 1.136-16.059.7-5.302 1.89-10.541 3.696-15.579 2.004-5.612 4.758-10.915 8.174-15.862 3.409-4.958 7.465-9.548 11.898-14.017 4.573-4.619 8.895-9.21 13.386-13.837 5.87-6.021 11.264-12.381 15.248-19.438 1.001-1.763 1.911-3.547 2.745-5.39.814-1.803 1.549-3.674 2.19-5.556 1.284-3.771 2.222-7.644 2.842-11.534 1.229-7.771 1.228-15.667-.197-22.928-.714-3.62-1.805-7.073-3.301-10.094-1.49-3.015-3.419-5.569-5.563-7.218-2.611-2.022-5.417-2.634-8.436-2.342-.758.07-1.535.204-2.324.382-.396.092-.792.191-1.194.308-.213.058-.393.114-.543.167l-.729.221-.105.031-.013.004.321-.076-.005.002-.019.007-.038.014-.152.058-.303.115-.587.238c-.386.159-.754.327-1.108.497-.708.34-1.35.697-1.923 1.06-1.718 1.084-2.943 2.342-3.696 3.929-.772 1.576-1.134 3.814-.938 6.27.177 2.262.959 4.979 1.821 8.714 1 4.161 1.695 8.115 4.809 12.138-.424-.154-.985-1.021-1.474-1.626 1.232 2.467 1.104 3.668 2.607 6.215-.304.155-1.006-1.124-1.363-1.2.633 1.36 1.703 3.532-.178 1.831 1.142 2.014 1.655 3.669 4.172 6.09-.642-.162-.993-.104-1.401-.082-.412.013-.869.005-1.642-.256-3.836-2.598-7.44-6.119-10.526-10.286-3.076-4.174-5.68-9.004-7.283-14.385-.792-2.689-1.325-5.523-1.419-8.461-.095-2.932.273-5.987 1.332-8.919 1.05-2.927 2.836-5.669 5.102-7.841 2.258-2.189 4.912-3.822 7.603-5.055.783-.358 1.585-.684 2.4-.978l.614-.215.309-.104.078-.026.039-.013.191-.048.14-.041.566-.163.685-.172c1.752-.422 3.579-.715 5.503-.801 3.826-.191 8.053.546 11.834 2.473 3.797 1.898 6.985 4.849 9.395 8.094 2.431 3.258 4.184 6.803 5.542 10.349 3.087 8.084 4.227 17.752 3.622 27.49-.608 9.747-2.966 19.643-6.976 28.377-2.347 5.128-5.326 10.103-8.705 14.653-3.371 4.559-7.1 8.688-10.797 12.401-3.005 3.024-6.302 6.179-9.382 9.182-3.087 3.004-5.938 5.878-8.215 8.354-4.773 5.152-9.15 10.424-12.431 16.397-3.3 5.943-5.502 12.634-6.39 19.69l-.259 1.991-.193 1.76c-.125 1.209-.227 2.406-.304 3.591-.162 2.369-.221 4.685-.202 6.94.038 4.512.427 8.777 1.091 12.746-.219-.035-.277-.759-.375-1.262.539 2.274.781 4.327 1.188 6.649.424 2.309 1.002 4.903 2.445 8.009-.535-3.271.646.991 1.491 3.104l-.812.365c1.972 5.11 5.399 10.536 9.411 15.282 3.989 4.781 8.513 8.894 12.116 12.32.586.332 1.065.479 1.658.798.392.329.098.292-.105.144l-.364-.268c-.158.073.042.24.259.411 6.336 4.736 14.023 8.942 22.194 12.233 8.167 3.302 16.804 5.722 24.945 7.221-2.118-.304-4.235-.682-6.345-1.121-4.223-.984-9.163-2.344-14.138-4.126-4.977-1.765-9.974-3.971-14.363-6.375zm-44.596-39.241c-.89-2.115-1.513-5.622-2.238-6.959.623 2.194 1.341 5.706 2.238 6.959zM178.098 343.006c.358.478 1.825-.076.862-.378l-.862.378zm18.437 1.117c1.336.502 3.062.508 5.004.484 1.958-.01 4.233-.104 7.057.505-2.406.125-4.694.131-6.968.206-1.131.037-2.248.096-3.31.188-.512.046-1.093.104-1.501.165l-.839.107c-.308.041-.618.088-.931.143.713.086 1.517.139 2.055.142.625.003 1.318-.042 1.994-.106l3.646-.416c1.237.156 3.024.167 5.165.432 2.112.253 4.683.866 6.823 2.169-.133.356-.865-.338-1.25-.377-.03.402.416.697.865 1.02.451.318.901.684.881 1.065-2.35-.972-5.03-1.533-7.205-1.395.215.476 1.724.141 1.956.66-2.976.064-6.532-.479-9.322.485-.965.332-1.622 1.058-2.496 1.236-1.455.31-3.004.233-4.583.153-1.58-.093-3.203-.221-4.892-.181-4.344.118-9.141.434-14.013.487.353.474 1.718-.154 2.086.3-3.817.535-7.59.887-11.907 1.078-3.78.168-7.5.482-11.217.774l-12.589 1.057c-2.262.191-4.432.866-6.699 1.183l-4.307.794-4.341.883c-2.884.612-5.746 1.272-8.581 1.973-5.672 1.403-11.231 2.966-16.672 4.685-3.276 1.037-6.73 2.478-10.021 2.994-2.415.383-5.522.527-8.23.699-1.248.08-2.69.396-4.459-.098-1.981-.556-3.502-1.799-5.702-1.604.18-.251.62-.206.958-.278-1.151-.379-1.463-1.191-2.636-1.673.061-.325.631-.044.767-.282-.579-.351-1.458-.984-.42-1.294-.851-.442-1.48-1.147-2.751-1.218.471-.624.489-1.124 1.104-1.836 3.588-1.691 7.238-2.48 10.968-3.124 3.717-.639 7.491-1.136 11.025-2.166 4.096-1.192 8.869-1.838 13.378-3.208 5.11-1.544 11.817-3.104 17.757-4.301 3.512-.706 7.226-1.498 10.849-1.932l2.536-.243 2.292-.244 4.285-.457c5.308-.512 11.055.165 16.651-.317 3.798-.327 7.358-.597 10.586-.722-.021.209-.312.16-.516.193 1.85-.47 3.349.521 6.095-.003-1.337-.606.463-.322 1.388-.216l.023.891c4.381.431 10.111-.602 13.95.43l.693-.366c.198.032.099.177.002.178l-.174.003c-.03.152.07.167.177.176l4.74-.013 1.095-.014.978-.038 2.337-.137c1.676-.097 3.546-.197 5.616-.095 2.061.108 4.345.405 6.699 1.26-1.236-.361-2.425-.578-3.549-.713-4.542-.781-9.526.044-12.4-.131zm-22.211 7.183c-.807.139-2.078-.174-2.589.255.807-.141 2.077.169 2.589-.255zM108.205 482.755c-.468-.246-.831.715-.182.606l.182-.606zm-9.484 5.718c-2.288.464-3.637 2.05-5.989 3.104 1.152-1.9 3.801-2.598 5.618-5.076-1.562.748-2.959 2.198-3.707 2.9-1.306.48-3.135 1.979-4.825 2.886-.253-.292.23-.285.284-.453-.558-.545-.912.226-1.456-.21.523-.988 1.423-1.83 2.074-2.772-.398-.278-.625.602-1.02.349.707-1.456 2.724-2.083 3.573-3.705.296-.564.214-1.357.549-1.785 1.135-1.457 2.988-2.066 4.531-3.335 1.983-1.634 4.068-3.572 6.347-5.341-.46-.244-.719.729-1.177.503 1.48-1.769 3.047-3.376 4.957-5.067 1.673-1.481 3.215-3.062 4.744-4.646 1.701-1.765 3.327-3.544 5.04-5.479.887-1 1.378-2.326 2.146-3.429 3.988-5.75 7.458-11.852 8.517-18.157.324-1.896.181-4.029.574-5.599.296-1.156.854-2.494 1.146-3.694.142-.556.059-1.26.723-1.845.75-.648 2.063-.992 1.98-2.038.233.141.169.329.22.5.434-.439 1.209-.348 1.7-.77.317.092.035.284.262.395.353-.175.99-.471 1.271.075.453-.291 1.155-.575 1.243-1.316.605.381 1.096.471 1.787.952 1.633 2.301 1.987 4.76 1.82 7.166-.157 2.417-.799 4.76-1.132 7.172-.383 2.825-1.805 5.61-2.755 8.548-1.068 3.361-3.204 7.285-5.273 10.474-1.221 1.891-2.491 3.886-3.915 5.581-1.154 1.379-2.473 3.085-3.521 4.292-2.188 2.527-5.407 4.238-7.796 6.705-1.628 1.675-3.184 3.197-4.669 4.472-.121-.171.051-.239.128-.34-.6 1.045-1.948.812-2.944 2.215 1.023-.008-.023.422-.537.668l-.563-.689c-2.375 1.237-4.483 4.089-6.932 4.643l-.104.536c-.113.046-.155-.104-.11-.14l.081-.063c-.079-.132-.136-.107-.191-.076-2.899 2.15-6.078 4.896-9.33 6.633l1.11-.874c1.63-1.007 3.634-2.646 5.521-3.87zm6.138-13.57c.296-.395 1.094-.603 1.069-1.118-.295.397-1.091.605-1.069 1.118z"/>
    </g>
    <g>
        <path d="M338.961 270.062c-.488.09.021.523.352.256l-.352-.256zm-1.587 5.275c-1.091.978-.721 2.009-1.429 3.23-.709-1.094.438-2.28-.332-3.759-.409.805-.176 1.793-.113 2.306-.462.628-.482 1.807-.904 2.736-.385-.023-.064-.188-.156-.27-.776-.012-.425.398-1.107.417-.403-.548-.46-1.157-.762-1.714-.468.036.057.427-.391.47-.652-.755.154-1.658-.559-2.499-.247-.291-.912-.525-1.03-.782-.408-.867.288-1.708.28-2.656-.011-1.217-.19-2.562-.089-3.921-.483.087.101.482-.366.573-.415-1.075-.639-2.13-.676-3.333-.03-1.054-.202-2.093-.35-3.129l-.552-3.508c-.101-.63-.687-1.235-.912-1.864-1.178-3.291-2.429-6.541-4.972-9.516-.766-.897-1.981-1.823-2.373-2.69-.287-.638-.374-1.454-.581-2.156-.095-.324-.44-.688-.024-1.158.467-.526 1.609-.967 1.217-1.524.266.036.261.151.361.235.277-.312 1.058-.428 1.411-.755.33.001.112.162.361.187.29-.167.82-.428 1.243-.17.347-.251.975-.428.876-.789.68.095 1.177.073 1.963.203 4.27 1.741 4.262 3.994 6.007 5.994 1.015 1.16 1.29 2.525 2.218 3.815 1.055 1.465 1.834 3.38 2.408 5.044.338.985.77 2.018.932 3.007.132.804.416 1.767.559 2.487.297 1.504-.609 3.126-.339 4.717.181 1.081.323 2.097.337 3.019-.208-.011-.149-.092-.177-.15.409.535-.637.942-.198 1.736.649-.368.308.14.171.401l-.891-.015c-.568 1.233.306 2.907-.812 3.976l.35.213c-.036.056-.179.022-.178-.006l.002-.051c-.152-.014-.169.015-.181.044-.168 1.748-.046 3.846-.84 5.672l.054-.724c.284-.954.297-2.252.544-3.343zm-6.59-6.538c-.114-.229.24-.576-.17-.727.113.228-.239.574.17.727zM396.12 268.907c-.603.02-1.109 1.564-.252.956l.252-.956zm-13.331 12.004c-3.1 1.298-5.209 3.543-8.415 5.369 1.824-2.524 5.451-4.025 8.31-7.644-2.185 1.432-4.302 3.547-5.416 4.58-1.79.925-4.455 3.141-6.683 4.617-.271-.276.33-.392.425-.601-.612-.496-1.172.494-1.78.128.791-1.295 2.089-2.513 3.106-3.788-.455-.229-.914.866-1.368.668 1.174-1.896 3.907-3.143 5.32-5.3.492-.75.537-1.668 1.045-2.271 1.714-2.046 4.18-3.339 6.266-5.462 2.666-2.729 5.329-6.052 7.589-9.753-.561.016-.702 1.365-1.272 1.373 1.473-3.055 2.728-6.125 3.446-9.781.625-3.208.337-6.483-.55-9.517-.919-3.417-2.753-6.425-5.621-8.607-1.485-1.141-3.331-1.56-5.063-2.09-4.586-1.385-9.514-1.384-14.184-.666-4.682.737-9.164 2.237-13.138 4.335-2.405 1.266-4.666 3.113-6.824 4.21-1.596.8-3.648 1.638-5.267 2.559-.752.424-1.471 1.126-2.692 1.274-1.35.162-2.868-.304-3.785.756-.068-.274.167-.417.289-.613-.771.16-1.409-.356-2.246-.194-.183-.276.255-.321.173-.565-.488-.017-1.319-.063-1.022-.8l-1.071.042c-.174.017-.36.062-.52.126l-.234.126c-.099.074-.198.16-.297.261-.192-.729-.535-1.096-.751-1.935.669-3.311 3.074-5.987 5.767-8.063 2.728-2.107 5.831-3.715 8.737-5.508 3.396-2.096 7.728-3.382 11.901-4.915 4.744-1.77 11.334-2.973 17.5-2.783 3.627.097 7.663.525 11.574 2.007 1.581.598 3.347 1.379 5.049 2.371 1.701.982 3.324 2.184 4.608 3.381 1.341 1.246 2.548 2.744 3.537 4.39.496.822.937 1.681 1.32 2.558.19.438.372.881.535 1.327.084.223.163.446.236.67l.112.336.028.084.084.243.007.027.029.109c.887 3.055 1.432 6.496 1.649 9.93.324 4.705-.562 9.197-1.957 12.736-.181-.106-.004-.404.057-.641-.422 2.227-2.06 3.35-3.208 6.169 1.3-.935.006.63-.66 1.386l-.746-.486c-2.949 3.619-6.152 8.39-9.523 10.083l-.229.71c-.159.103-.188-.067-.122-.13l.118-.111c-.083-.132-.161-.078-.241-.019-4.207 3.849-9.087 7.939-13.451 10.746l1.557-1.295c2.253-1.577 5.228-4.044 7.962-6.149zm8.553-19.722c.259-.677 1.087-1.525.912-2.13-.203.711-1.036 1.527-.912 2.13zM363.123 286.825c.145.481.657-.059.3-.369l-.3.369zm6.867 1.009c1.413.938 2.694.402 4.409.881-1.316.897-3.04-.03-4.859.941 1.107.293 2.375-.099 3.033-.247.899.352 2.45.158 3.769.395.043.383-.237.1-.328.205.131.766.612.342.771 1.01-.659.502-1.467.675-2.161 1.075.133.455.563-.136.703.297-.904.786-2.263.154-3.288.997-.357.294-.579.989-.914 1.147-1.139.542-2.39-.028-3.688.093-1.67.158-3.514.465-5.397.434.146.48.661-.126.813.333-1.467.482-2.938.748-4.621.779-1.475.026-2.932.158-4.397.22-1.631.067-3.246.118-4.994.07-.899-.028-1.854.416-2.802.461-2.471.122-4.991.082-7.628-.112-2.638-.202-5.403-.549-8.423-1.232-1.806-.39-4.067-.816-5.602-1.986-1.125-.843-2.259-2.235-3.219-3.457-.436-.561-1.145-1.124-1.203-2.217-.025-.607.149-1.227.23-1.795.095-.592.104-1.058-.283-1.61.28.003.357.261.511.376.046-.7.718-1.194.861-1.922.322-.075.209.298.466.284.171-.424.559-.987 1.105-.631.211-.512.785-.838.553-1.321.693-.035 1.169-.186 1.978-.199 2.395.754 3.865 1.653 5.115 2.449 1.255.794 2.344 1.567 3.729 1.802 1.585.243 2.832.921 4.472.839 1.816-.093 3.887-.034 5.766-.062 1.106-.01 2.299-.157 3.409-.101.905.048 2.032-.062 2.873-.101 1.733-.072 3.593.975 5.555.762 1.322-.142 2.567-.285 3.706-.32-.008.208-.11.151-.183.18.649-.421 1.189.613 2.167.135-.488-.632.157-.312.492-.193l.03.891c1.602.498 3.646-.533 5.127.445l.233-.373c.076.029.049.175.013.178l-.064.004c-.001.153.037.166.077.174 2.265-.047 4.92-.507 7.44-.069l-.951.081c-1.288-.109-2.963.097-4.401.01zm-8.084 7.231c-.311.127-.804-.213-.997.202.31-.12.806.216.997-.202zM302.843 348.938c-.491-.139-.429.702.08.524l-.08-.524zm-5.808 6.085c-1.757.723-2.287 2.247-3.887 3.472.256-1.754 2.232-2.729 2.807-5.054-1.03.85-1.651 2.263-2.017 2.958-.92.59-1.907 2.119-2.994 3.099-.325-.208.086-.267.068-.414-.682-.375-.687.31-1.309.019.056-.877.508-1.715.698-2.59-.443-.175-.3.59-.731.435.045-1.311 1.512-2.124 1.603-3.595.031-.512-.346-1.157-.229-1.562.394-1.373 1.722-2.149 2.534-3.424 1.044-1.64 2.062-3.542 3.33-5.315-.486-.139-.335.701-.811.578.584-1.667 1.313-3.209 2.327-4.854.889-1.438 1.642-2.935 2.409-4.418.855-1.651 1.658-3.297 2.53-5.059.448-.911.461-2.049.796-3.027 1.733-5.095 3.312-10.285 3.077-15.473-.072-1.558-.595-3.298-.509-4.499.07-.885.353-1.861.349-2.541.002-.315-.262-.673.181-.733.249-.028.646.025.94.16.312.153.445.351.464 1.207.22-.182.149-.486.229-.646.181.249.509.502.874.699.379.234.757.441 1.32.938.23-.222-.284-.639-.088-.832.244.175.638.394.932.399.307.023.425-.192.374-.623.34.189.759.277 1.131.321l.546.068.412.103-.189-.058c.186-.297.311-.565.447-.845.091-.133.105-.29.117-.461.021-.168.046-.349.097-.545.138-.523.585-.85 1.075-.769.481.071.933.432 1.254.847.658.854.942 1.901 1.085 2.885.27 1.998-.011 3.884.104 5.818.121 2.262-.663 4.468-.86 6.826-.224 2.69-1.124 5.868-2.027 8.525-.533 1.575-1.039 3.253-1.743 4.717-.571 1.189-1.153 2.673-1.651 3.739-1.039 2.229-3.199 3.944-4.341 6.231-.779 1.552-1.532 2.987-2.312 4.221-.168-.125-.048-.203-.021-.295-.114.932-1.348.915-1.656 2.2.865-.143.142.349-.198.621l-.743-.491c-1.541 1.337-2.216 3.991-4.07 4.808l.12.458c-.077.055-.171-.063-.146-.099l.043-.065c-.118-.097-.156-.068-.191-.035-1.614 2.2-3.244 4.974-5.359 6.898l.613-.891c1.004-1.074 2.075-2.742 3.196-4.037zm-.041-12.1c.102-.367.704-.647.487-1.069-.102.367-.702.647-.487 1.069zM382.231 354.958c.21.529 1.544.233.795-.226l-.795.226zm15.17 3.944c2.78 1.471 5.709 1.451 9.173 2.469-3.041.448-6.45-1.085-10.739-.903 2.331.741 5.192.854 6.648.947 1.819.668 5.18 1.014 7.844 1.589-.011.387-.519.033-.736.112.069.783 1.187.499 1.35 1.195-1.511.319-3.281.247-4.888.407.151.488 1.247.048 1.422.513-2.172.484-4.913-.601-7.401-.185-.868.146-1.571.728-2.351.746-2.644.07-5.179-1.003-8.045-1.438-3.689-.558-7.795-1.062-11.918-1.848.207.524 1.479.144 1.703.653-3.325-.129-6.576-.442-10.259-.971-3.224-.448-6.434-.763-9.622-.97-3.557-.214-7.059-.222-10.822-.128-1.946.053-3.83.622-5.774.852-10.176 1.213-20.147 3.041-29.844 5.437-2.923.727-6.058 1.831-8.98 2.024-2.144.148-4.877-.017-7.268-.111-1.103-.048-2.405.123-3.897-.543-1.672-.753-2.841-2.138-4.794-2.166.192-.23.572-.144.878-.18-.961-.489-1.112-1.327-2.083-1.921.106-.312.564.019.716-.201-.447-.398-1.165-1.131-.186-1.32-.729-.538-1.117-1.28-2.202-1.473.495-.571.583-1.062 1.214-1.708 3.34-1.324 6.558-1.753 9.812-2.031 3.24-.276 6.501-.405 9.603-1.094 3.59-.795 7.699-.988 11.643-1.938 4.466-1.067 10.29-2.022 15.447-2.73 3.05-.416 6.279-.916 9.411-1.09 2.54-.147 5.627-.394 7.963-.457 2.434-.067 4.973.22 7.553.596l3.899.597 1.97.285.494.065.397.045.9.086c3.399.288 6.497.628 9.28 1.062-.058.201-.297.104-.478.102 1.668-.146 2.756 1.091 5.174 1.046-1.012-.825.454-.237 1.212.027l-.15.878c3.614 1.177 8.568 1.104 11.562 2.681l.637-.258c.158.06.052.188-.028.175l-.146-.022c-.051.146.03.175.116.199 5.051.931 10.936 1.552 16.002 2.706l-1.996-.21c-2.659-.508-6.301-.925-9.416-1.598zm-19.935 3.556c-.708-.002-1.722-.526-2.235-.194.708.002 1.721.524 2.235.194zM406.948 401.693c-.489-.103-.223.554.203.408l-.203-.408zm-3.813 4.778c-1.424.574-1.506 1.746-2.632 2.702-.246-1.342 1.304-2.113 1.231-3.911-.729.668-.929 1.763-1.076 2.299-.688.468-1.171 1.644-1.897 2.426-.355-.15.006-.208-.051-.319-.728-.271-.545.258-1.198.056-.182-.688-.003-1.334-.063-2.013-.454-.125-.115.46-.553.352-.315-1.011.813-1.668.513-2.807-.104-.397-.618-.892-.614-1.208.008-1.073 1.034-1.695 1.463-2.695.55-1.287 1.016-2.777 1.747-4.171-.483-.103-.135.549-.604.458.125-1.303.417-2.507.943-3.795.462-1.128.784-2.297 1.117-3.455.37-1.291.691-2.573 1.037-3.945.177-.71-.116-1.572-.068-2.323.244-3.91.199-7.838-1.544-11.447-.522-1.088-1.521-2.237-1.755-3.117-.168-.651-.132-1.417-.254-2.077-.055-.307-.356-.666.099-1.039.514-.414 1.684-.737 1.326-1.268.263.043.251.15.346.233.298-.278 1.077-.305 1.446-.58.33.011.105.142.353.173.298-.129.841-.355 1.25-.105.361-.202.989-.442.902-.846.677.132 1.175.121 1.957.296 2.109 1.027 3.101 2.304 3.704 3.629.605 1.327.84 2.686 1.464 4.067.729 1.618.616 3.353 1.093 5.157.549 2.06.576 4.615.436 6.769-.082 1.274-.118 2.632-.402 3.833-.229.975-.398 2.179-.597 3.048-.413 1.819-2.009 3.261-2.509 5.093-.344 1.245-.693 2.393-1.115 3.376-.186-.095-.094-.158-.091-.231.122.734-1.026.743-.995 1.754.766-.124.216.271-.031.489l-.809-.374c-1.097 1.067-1.057 3.138-2.555 3.785l.228.354c-.058.042-.174-.048-.16-.076l.023-.051c-.134-.073-.161-.052-.186-.025-.928 1.721-1.685 3.85-3.077 5.341l.313-.687c.618-.834 1.152-2.118 1.845-3.125zm-3.084-9.392c.003-.286.49-.511.186-.836-.005.286-.49.511-.186.836zM331.822 455.786c-.624.265-.93 2.358-.124 1.256l.124-1.256zm-12.44 22.408c-3.355 3.708-5.541 7.996-9.459 12.487 2.178-4.442 6.32-8.816 8.976-15.245-2.235 3.247-4.431 7.346-5.67 9.4-2.022 2.379-5.129 6.974-8.12 10.299-.329-.201.448-.718.575-1.054-.755-.276-1.525 1.362-2.283 1.234 1.109-2.166 2.716-4.515 3.891-6.777-.563-.001-1.081 1.675-1.651 1.701 1.396-3.11 4.553-6.445 5.925-10.095.479-1.265.398-2.439.899-3.534 1.682-3.715 4.26-7.034 6.241-11.116 2.546-5.238 4.92-11.22 7.266-17.3-.607.258-.712 2.193-1.321 2.469l4.486-15.283c1.416-4.837 2.51-9.687 3.497-14.544 1.098-5.413 1.987-10.769 2.832-16.545.433-2.985.335-5.959.581-8.979 1.28-15.775 1.69-31.45.849-46.181-.256-4.44-.925-9.129-.789-13.376.098-3.12.521-7.055.78-10.467.12-1.574.027-3.404.762-5.56.825-2.411 2.257-4.237 2.3-6.999.23.236.139.785.174 1.212.505-1.421 1.354-1.778 1.951-3.244.32.086-.017.798.206.978.412-.717 1.13-1.824 1.341-.494.532-1.1 1.286-1.807 1.479-3.522.583.622 1.084.645 1.743 1.458 2.737 9.314 1.255 19.914 1.812 29.766.317 5.705-.157 12.218.053 18.519.24 7.151-.038 16.393-.514 24.417-.279 4.749-.545 9.745-1.12 14.486-.462 3.851-.96 8.49-1.46 11.948-1.029 7.221-3.567 14.701-5.28 22.23-1.164 5.12-2.45 9.892-3.848 14.147-.186-.103-.005-.465.059-.742-.426 2.585-2.06 4.17-2.977 7.906 1.244-1.491.064.726-.524 1.871l-.83-.321c-2.654 5.432-5.111 13.09-8.525 17.309l-.124 1.022c-.158.227-.22.037-.158-.082l.11-.215c-.115-.109-.192.007-.269.132-3.947 7.437-9 16.015-14.705 22.61l1.972-2.731c2.8-3.558 6.082-8.732 8.867-13.195zm6.75-30.431c.265-1.058 1.165-2.529 1.004-3.328-.246 1.063-1.148 2.529-1.004 3.328zM387.409 475.593c-.208.511.887.967.678.239l-.678-.239zm8.182 10.52c1.181 2.49 3.354 3.821 5.401 6.199-2.53-.97-4.225-3.78-7.444-5.667 1.269 1.716 3.334 3.135 4.363 3.874.983 1.392 3.329 3.177 5.061 4.823-.207.326-.412-.197-.618-.225-.354.699.646.944.415 1.613-1.32-.391-2.646-1.227-3.953-1.822-.141.478.925.606.815 1.076-1.927-.566-3.434-2.736-5.539-3.568-.731-.297-1.597-.147-2.194-.514-2.04-1.232-3.317-3.37-5.155-5.192-2.373-2.343-5.009-4.953-7.345-7.896-.202.51.934.948.756 1.458-2.24-1.98-4.267-4.131-6.306-6.797-1.782-2.337-3.589-4.61-5.31-6.951-1.911-2.609-3.76-5.208-5.63-8.088-.971-1.482-2.312-2.7-3.354-4.173-5.444-7.688-10.259-15.729-15.516-23.195-1.584-2.251-3.585-4.538-4.684-6.912-.812-1.741-1.532-4.051-2.233-6.027-.323-.911-.922-1.9-.817-3.332.115-1.601.982-3.037.273-4.589.283.069.346.397.494.625.092-.929.806-1.398.975-2.391.328-.04.201.457.462.496.196-.523.581-1.341 1.142-.652.205-.772.756-1.311.479-2.297.721.175 1.204.051 2.048.307 2.545 2.146 4.143 4.688 5.538 7.313 1.393 2.622 2.568 5.348 4.196 7.745 1.881 2.777 3.306 6.2 5.396 9.164 2.359 3.364 5.037 7.782 7.433 11.516 1.408 2.217 3.01 4.448 4.36 6.652 1.097 1.794 2.568 3.841 3.634 5.377 2.208 3.198 3.688 7.204 6.258 10.399l4.851 5.955c-.176.112-.259-.088-.37-.188 1.149.799.997 2.282 2.616 3.526-.113-1.137.454.061.777.654l-.68.576c1.631 2.788 5.099 5.197 6.276 7.877l.607.1c.077.124-.075.175-.125.126l-.089-.088c-.124.092-.083.153-.037.215 3.039 3.178 7.006 6.355 10.199 9.513-.465-.342-.925-.69-1.382-1.047-1.714-1.58-4.17-3.574-6.044-5.568zm-16.363-7.503c-.484-.411-.831-1.38-1.401-1.439.478.417.829 1.388 1.401 1.439zM357.643 402.96c.152.483.758-.047.354-.364l-.354.364zm7.806 1.335c1.509 1.049 3.006.641 4.849 1.32-1.559.734-3.385-.371-5.517.461 1.213.373 2.659.104 3.409.025.957.439 2.695.43 4.086.838-.006.386-.27.068-.382.161.04.776.614.418.695 1.102-.773.413-1.669.479-2.469.795.087.468.625-.068.722.381-1.068.667-2.464-.113-3.662.63-.417.257-.722.931-1.095 1.06-1.265.441-2.558-.216-3.966-.163-1.808.07-3.798.32-5.819.281.15.479.711-.122.869.339-1.58.466-3.145.737-4.938.812-1.569.063-3.115.258-4.665.406-1.727.166-3.428.343-5.269.469-.95.066-1.893.611-2.866.778-5.089.879-10.226 1.462-15.687 2.683-1.644.37-3.539 1.081-5.111.967-1.151-.082-2.529-.492-3.757-.766-.564-.128-1.308-.062-1.891-.775-.659-.806-.812-2.138-1.878-2.229.186-.203.37-.105.543-.135-.36-.483-.196-1.281-.534-1.848.161-.288.309.031.467-.167-.124-.389-.26-1.054.337-1.224-.205-.495-.104-1.157-.635-1.326.454-.529.665-.98 1.216-1.577 2.211-1.238 4.002-1.554 5.666-1.654 1.664-.102 3.234.019 4.837-.373 1.848-.458 3.713-.233 5.628-.76 2.165-.594 4.793-.949 7.071-1.279 1.349-.19 2.763-.503 4.104-.581 1.091-.062 2.411-.29 3.4-.404 2.055-.234 4.301.682 6.551.384 1.524-.2 2.965-.377 4.284-.426-.007.208-.126.153-.209.183.751-.43 1.376.599 2.505.124-.56-.632.188-.313.572-.188l.019.891c1.816.51 4.216-.449 5.849.617l.293-.359c.084.034.042.178.001.178l-.074.001c-.012.152.031.168.076.179 2.576.084 5.664-.118 8.386.641l-1.061-.037c-1.416-.264-3.328-.236-4.95-.435zm-9.292 6.893c-.334.124-.864-.214-1.072.202.333-.121.863.214 1.072-.202z"/>
    </g>
    <g id="le">
        <g>
            <path d="M246.747 57.52c-.247.172-.004.937.169.451l-.169-.451zm-.812 9.47c-.515 1.822-.291 3.608-.555 5.821-.432-1.831.082-4.046-.337-6.626-.187 1.477-.032 3.226.028 4.124-.201 1.167-.132 3.251-.254 4.936-.192.021-.048-.317-.101-.446-.385.099-.175.765-.511.913-.246-.905-.334-1.99-.519-2.955-.23.13.057.763-.16.904-.382-1.282-.039-3.032-.43-4.499-.138-.511-.474-.883-.543-1.35-.233-1.583.1-3.205.099-4.967-.005-2.267-.067-4.775.046-7.317-.246.171.03.899-.208 1.08-.166-2.006-.221-3.988-.154-6.247.061-1.979.063-3.932.093-5.883l.121-6.611c.034-1.188-.182-2.356-.202-3.554-.123-6.259-.168-12.467-.828-18.29-.197-1.755-.605-3.607-.613-5.275-.005-1.226.131-2.766.185-4.1.025-.616-.061-1.33.25-2.169.349-.938 1.015-1.653.951-2.732.122.092.093.307.123.474.208-.557.62-.692.87-1.264.162.033.018.311.134.38.182-.279.504-.713.651-.194.229-.431.581-.703.617-1.383.312.243.562.249.918.567 1.687 3.656 1.17 7.857 1.612 11.739.255 2.252.118 4.812.332 7.282.241 2.805.29 6.406.312 9.509.013 1.838.071 3.761.017 5.584-.047 1.481-.029 3.257-.044 4.58-.033 2.757-.655 5.679-.652 8.577.002 1.965.003 3.802-.041 5.461-.104-.018-.07-.166-.08-.271.178.963-.374 1.703-.184 3.126.34-.668.148.247.069.718l-.445-.011c-.332 2.241.078 5.196-.472 7.151l.175.359c-.018.101-.089.049-.089 0l.001-.09c-.076-.017-.084.035-.09.089-.073 3.128.07 6.785-.171 10.013l-.029-1.25c.072-1.683.013-3.952.108-5.903zm-3.231-11.642c-.048-.425.147-1.078-.049-1.357.042.425-.151 1.078.049 1.357zM285.618 126.821c.551-.385.51-2.603.035-1.267.193-.022.104.315.002.623l-.107.361c-.039.183-.031.299.07.283zm-8.179-33.209c-1.631-3.163-3.741-6.012-6.257-8.468-2.502-2.425-5.491-4.518-8.555-5.292 2.652.129 5.891 1.988 8.861 4.845 3.007 2.861 5.885 6.625 8.769 10.905-1.372-2.616-3.19-5.287-5.055-7.469-1.855-2.198-3.746-3.876-5.055-4.884-1.548-1.469-4.019-3.226-6.684-3.929-2.661-.747-5.311-.276-7.668 1.186-.203-.223.841-.613 1.172-.84-.254-.201-.842.023-1.432.34-.594.31-1.18.719-1.535.681 1.152-1.183 2.613-2.209 4.24-2.782 1.622-.586 3.403-.724 5.135-.497-.185-.215-.876-.325-1.561-.345-.688-.03-1.362.029-1.619-.108 2.276-.5 5.2.169 7.86 1.669 2.69 1.471 5.162 3.61 7.436 5.605 1.578 1.398 2.961 2.287 4.22 3.793 4.238 5.154 7.066 11.512 9.521 18.448 1.557 4.477 2.821 9.373 3.07 14.476.106 2.543-.048 5.141-.777 7.604-.725 2.518-1.724 4.975-2.973 7.314.703-.479 1.556-3.407 2.125-4.012-2.758 7.943-8.106 14.919-15.755 20.677-6.729 5.033-14.29 8.716-22.212 11.171-8.828 2.679-18.015 4.021-27.849 3.173-5.052-.473-10.043-1.169-14.923-3.122-1.589-.66-3.117-1.339-4.665-2.293-1.452-.902-2.855-1.895-4.19-2.981-2.671-2.171-5.07-4.728-7.03-7.605-3.965-5.755-5.987-12.711-6.349-19.541-.384-6.86.708-13.62 2.597-19.971 1.904-6.361 4.617-12.354 7.872-17.928 3.909-6.711 8.86-13.434 14.85-18.417 2.191-1.827 4.855-3.736 7.799-5.424 2.938-1.693 6.161-3.157 9.333-4.208 2.907-.952 6.431-2.042 11.038-1.822 2.562.139 4.863.661 7.134 1.333 2.276.682 4.533 1.511 7.102 2.512-.441.013-1.465-.43-2.278-.645 1.356.618 2.165 1.211 2.954 1.827.783.625 1.555 1.27 2.734 2.169-.182.167-1.336-.717-1.673-.681 1.2.913 2.837 2.493.666 1.47 1.691 1.38 2.646 2.604 4.981 4.607-.966-.184-1.202.093-2.49-.215-3.437-1.798-7.18-3.238-11.094-3.882-3.908-.658-7.951-.512-11.848.379-7.819 1.778-14.978 6.333-20.456 11.799-3.189 3.178-6.378 6.845-9.219 10.896-2.84 4.046-5.327 8.478-7.12 13.015-2.041 5.134-3.793 11.232-4.262 17.416-.506 6.176.425 12.331 2.757 17.149 1.357 2.867 3.26 5.478 5.595 7.713 1.165 1.121 2.434 2.151 3.781 3.091l1.022.69.521.333.264.163.131.082.016.01.004.003-.288-.175.01.005.041.022.081.044.598.322.487.247c.355.177.713.349 1.076.513 2.351 1.079 5.17 1.946 8.039 2.492 2.868.554 5.772.8 8.272.867 5.212.15 10.74-.193 16.261-1.214 5.513-1.021 11.023-2.731 16.017-5.252 6.784-3.413 12.369-7.734 16.4-12.26.08.143-.316.52-.568.813 1.09-1.388 2.177-2.499 3.31-3.851 1.121-1.349 2.304-2.95 3.271-5.285-1.524 1.914.233-.838.906-2.362l.62.248c.421-.915.8-1.895 1.124-2.915l.201-.668.151-.64c.091-.442.162-.913.215-1.406.211-1.978.089-4.274-.245-6.572-.665-4.626-2.124-9.219-3.204-12.922-.261-.455-.521-.742-.791-1.19-.136-.375.045-.233.122-.053l.139.323c.131.014.062-.176-.016-.376-2.405-5.639-5.897-11.537-10.233-16.225-2.153-2.326-4.545-4.316-6.88-5.523-2.364-1.214-4.42-1.562-6.313-1.16.982-.265 1.975-.331 3.058-.17 2.143.348 5.055 1.844 7.805 4.3 2.767 2.43 5.332 5.636 7.358 8.84zm10.759 42.915c-.757 1.609-2.496 3.749-2.943 4.834 1.001-1.456 2.679-3.672 2.943-4.834z"/>
        </g>
        <g>
            <path d="M236.89 105.039c-.109.067.057.209.111.08l-.111-.08zm.453 2.222c-.014.522.318.853.533 1.397-.446-.27-.543-.884-1.021-1.369.087.383.388.738.536.917.077.312.413.748.643 1.142-.071.066-.07-.052-.112-.063-.133.143.058.22-.045.36-.248-.116-.461-.332-.689-.496l.084.253c-.368-.177-.501-.684-.876-.935-.129-.09-.332-.095-.427-.198-.326-.347-.387-.847-.58-1.312-.25-.601-.506-1.288-.601-2.021l-.033.326c-.219-.552-.34-1.136-.363-1.806-.014-.586-.021-1.169.028-1.751.052-.648.147-1.285.306-1.961l.142-1.084c.429-1.883 1.194-3.667 1.877-5.472.206-.544.374-1.182.685-1.639.228-.336.579-.705.87-1.037.135-.152.251-.372.539-.478.323-.12.699-.057.914-.349.019.068-.036.111-.062.163l.575.002-.041.145c.124-.003.324.011.259.193.17-.021.332.058.481-.083l.186.472c-.191 1.456-1.095 2.237-1.535 3.325-.248.622-.664 1.204-.887 1.875-.254.758-.618 1.66-.868 2.437-.152.459-.261.948-.395 1.387-.111.358-.187.797-.241 1.116-.116.658-.473 1.317-.452 2.015.015.466.057.89.096 1.268l-.049-.058c.123.207-.122.412.044.72.135-.179.083.042.073.154l-.219.042c-.038.559.387 1.148.326 1.676l.115.044-.041.018-.008-.02-.033.038c.277.709.791 1.441 1.186 2.175l-.197-.25c-.216-.367-.541-.832-.723-1.278zm-2.565-2.374c-.051-.117.016-.317-.098-.383.046.117-.019.32.098.383zM248.385 103.704c-.121.05.006.267.088.128l-.088-.128zm-.406 2.637c-.271.493-.177.981-.34 1.575-.189-.499.092-1.094-.1-1.806-.104.403-.043.881-.023 1.125-.113.315-.107.879-.193 1.331-.096.004-.02-.086-.044-.121-.193.023-.099.205-.268.242-.112-.246-.136-.541-.218-.804l-.092.243c-.174-.352.021-.823-.16-1.227-.063-.141-.229-.247-.259-.375-.103-.434.074-.872.075-1.354.001-.619-.039-1.305-.02-2.002l-.089.297c-.107-.547-.17-1.085-.205-1.699-.032-.538-.112-1.065-.213-1.583-.115-.576-.263-1.135-.492-1.694-.121-.29-.369-.507-.555-.729-1.001-1.25-2.434-.876-3.535.002-.336.269-.634.671-.962.888l-.849.478c-.128.08-.247.221-.483.214-.268-.01-.561-.186-.751.011l.06-.127c-.155-.005-.289-.157-.476-.162l.047-.124c-.106-.029-.28-.09-.207-.245-.15-.022-.298-.125-.453-.021l-.111-.492c.345-1.368 1.422-1.86 2.322-2.615.532-.445 1.255-.717 2.023-1.048.439-.185.996-.34 1.658-.36.653-.028 1.427.11 2.108.439.812.38 1.539 1.045 1.964 1.713.354.542.664 1.175.828 1.631.354.969.246 1.956.384 2.831.091.6.147 1.146.162 1.634l-.046-.078c.109.28-.148.503-.035.911.161-.195.077.07.044.206h-.223c-.14.641.073 1.471-.209 2.008l.087.101-.045-.001.001-.024-.045.023c-.046.865-.017 1.862-.184 2.726l.003-.336.119-1.602zm-1.642-3.221c-.03-.116.057-.297-.047-.371.03.116-.056.296.047.371zM221.912 99.643c-.075.104.132.168.132.03l-.132-.03zm1.212 2.003c.13.521.533.781.838 1.299-.484-.202-.702-.8-1.305-1.148.188.346.561.626.742.777.14.292.54.671.806 1.041-.063.073-.075-.044-.117-.05-.117.156.079.21-.012.359-.253-.087-.482-.27-.725-.391l.11.232-.979-.727c-.143-.052-.334-.008-.444-.077-.375-.232-.549-.667-.861-1.018-.404-.451-.863-.946-1.217-1.521l.087.289c-.392-.378-.727-.809-.987-1.366-.221-.488-.423-.989-.504-1.529-.095-.597-.06-1.222.129-1.851.096-.322.112-.683.24-1.01.696-1.698 1.782-3.1 2.479-4.64.216-.462.371-1.016.636-1.39.195-.274.489-.571.718-.848.106-.128.185-.317.428-.397.271-.089.621-.022.76-.283l-.027.147.509.011-.01.132c.109-.002.293.008.267.176.15-.02.319.037.438-.106l.247.44c.053 1.406-.807 2.181-1.271 3.193-.269.588-.73 1.104-1.035 1.715-.346.692-.863 1.482-1.217 2.122-.211.379-.375.774-.511 1.079-.12.253-.165.53-.18.691-.021.319-.267.544-.091.957.118.256.282.536.447.817l-.065-.025c.18.111.033.378.297.576.056-.21.091 0 .125.105l-.183.126c.172.501.804.914.922 1.456l.126.009-.034.029-.015-.017-.019.046c.5.608 1.203 1.248 1.702 1.954l-.236-.23c-.276-.345-.703-.755-1.008-1.154zm-3.189-1.265c-.087-.078-.104-.271-.228-.281.081.082.101.277.228.281zM218.733 106.713c-.106-.081-.249.145-.078.144l.078-.144zm-2.788.942c-.614-.026-1.092.259-1.785.323.468-.358 1.198-.33 1.842-.827-.447.087-.912.341-1.162.454l-1.473.288c-.031-.092.086-.046.117-.081-.08-.179-.246-.029-.33-.181.228-.187.529-.296.772-.466l-.277-.006c.303-.279.844-.263 1.176-.593l.265-.389c.374-.27.86-.299 1.311-.522.581-.282 1.183-.663 1.818-1.001l-.31.074c.438-.373.886-.703 1.414-1.053.465-.303.894-.645 1.323-.982l1.427-1.18c.254-.215.427-.522.662-.765 1.229-1.268 2.421-2.549 3.429-3.993.305-.435.576-.976.939-1.318.265-.252.649-.507.966-.753.147-.112.289-.291.568-.329.319-.042.679.09.914-.146.013.067-.046.097-.079.144.19-.023.316.136.509.136l-.049.126c.108.026.287.085.21.242.154.02.304.12.463.012l.112.494c-.382 1.377-1.378 1.941-2.033 2.871-.374.538-.919.981-1.337 1.553-.474.647-1.16 1.384-1.773 2.014-.364.372-.734.779-1.13 1.121l-.983.889c-.607.53-1.449.845-2.129 1.379-.465.361-.911.692-1.344.958l.047-.081c-.195.241-.525.135-.846.447.259.036-.026.105-.169.147l-.108-.194c-.66.215-1.371.83-2.036.838l-.064.126-.018-.041.025-.011-.043-.029c-.884.375-1.935.835-2.942.965l.371-.113c.508-.113 1.168-.358 1.74-.547zm2.317-3.027c.089-.085.295-.103.309-.23-.089.084-.293.102-.309.23zM226.431 108.495c.044.119.199-.019.09-.094l-.09.094zm2.051.187c.418.214.786.06 1.271.138l-1.394.324c.33.059.697-.061.884-.111.263.07.705-.012 1.067.003.021.094-.062.033-.085.062.054.187.177.065.239.226-.169.148-.398.216-.593.333l.209.055-.957.326-.266.303c-.34.154-.72.027-1.112.071-.504.057-1.063.146-1.634.148l.247.079c-.444.128-.89.202-1.4.216l-1.33.071c-.493.024-.979.044-1.504.043-.271.001-.546.117-.826.14-1.464.105-2.917.122-4.531.143-.487.005-1.07.061-1.542-.104-.345-.119-.752-.363-1.116-.592-.167-.104-.402-.191-.541-.469-.154-.319-.114-.692-.406-.91.068-.021.111.036.164.062v-.588l.148.054c-.004-.132.019-.332.2-.256-.023-.184.084-.313-.019-.432l.467-.178c.676.08 1.137.197 1.56.329.422.127.816.265 1.251.26.496-.006.982.132 1.515.076.6-.064 1.331-.072 1.971-.095.378-.012.778-.058 1.152-.049.305.007.675-.026.95-.039.571-.026 1.179.231 1.795.17.416-.04.805-.081 1.157-.094l-.056.045c.2-.107.369.147.667.023-.15-.155.048-.079.15-.051l.01.223c.49.116 1.104-.157 1.544.071l.068-.096.004.044-.019.001.023.043c.672-.037 1.439-.19 2.125-.15l-.257.045c-.353.007-.829.089-1.25.087zm-2.411 1.88c-.094.033-.244-.049-.302.055.094-.031.245.05.302-.055zM256.125 98.905c-.088.092.098.153.119.029l-.119-.029zm.777 1.828c.018.471.336.723.506 1.204-.402-.205-.477-.753-.969-1.087.107.316.394.583.529.728.067.269.355.627.518.975-.074.062-.059-.043-.096-.052-.141.134.025.194-.09.322-.212-.092-.381-.268-.578-.388l.051.213-.746-.695-.394-.086c-.3-.221-.373-.614-.599-.933-.291-.411-.633-.854-.887-1.357l.04.253c-.312-.333-.573-.703-.772-1.172-.175-.41-.342-.822-.44-1.264-.106-.489-.132-1.009-.018-1.552.057-.277.03-.591.12-.88.498-1.501 1.416-2.705 1.956-4.059.169-.407.28-.904.501-1.224.163-.234.415-.477.608-.709.089-.107.151-.273.368-.321.242-.052.562.05.678-.176l-.018.133.463.069-.002.121c.099.011.266.042.25.195.135-.001.292.072.392-.046l.246.436c.118 1.303-.616 1.918-.972 2.8-.206.511-.589.936-.818 1.46-.26.594-.657 1.252-.896 1.762-.143.302-.226.605-.295.813-.059.173-.047.344-.031.434.032.164-.205.364-.035.736l.383.735-.061-.022c.161.1-.009.338.217.518.079-.188.089.002.104.096l-.193.11c.094.447.615.832.624 1.323l.116.012-.037.025-.01-.015-.026.041c.353.561.87 1.167 1.175 1.829l-.167-.219-.695-1.086zm-2.771-1.192c-.07-.068-.062-.236-.18-.244.067.071.061.24.18.244zM256.131 107.314c-.121-.042-.134.181.002.14l-.002-.14zm-1.67 1.575c-.461.198-.64.6-1.059.945.083-.476.619-.744.816-1.366-.288.229-.474.612-.582.799-.255.162-.519.585-.819.867-.083-.051.026-.074.024-.113-.174-.091-.186.096-.345.029.031-.243.159-.474.222-.715l-.197.129.484-.997-.021-.424c.135-.382.515-.594.766-.944.33-.444.666-.962 1.079-1.429l-.237.149c.227-.447.486-.863.838-1.292.305-.378.586-.769.872-1.154l.974-1.305c.177-.232.258-.539.414-.794.815-1.327 1.631-2.641 2.129-4.089.15-.437.23-.961.436-1.319.152-.264.394-.55.574-.818.084-.124.137-.304.356-.386.247-.092.59-.041.694-.296l-.01.142.488-.005.006.125c.104-.004.28.001.274.161.141-.023.309.027.404-.111l.287.412c.216 1.334-.503 2.093-.83 3.07-.189.568-.573 1.071-.816 1.665-.275.673-.737 1.446-1.148 2.096-.241.386-.482.801-.752 1.156-.218.289-.458.655-.646.918-.393.547-1.035.935-1.44 1.511-.272.391-.529.752-.782 1.062l.007-.079c-.065.244-.382.219-.511.553.229-.024.023.094-.074.161l-.174-.141c-.444.335-.709 1.028-1.201 1.238l.02.122-.035-.027.013-.017-.048-.01c-.479.578-.943 1.313-1.505 1.853l.168-.244c.263-.298.576-.741.887-1.088zm.396-3.254c.043-.099.213-.168.176-.285-.044.099-.213.169-.176.285zM265.747 104.91c.034.125.239.013.122-.079l-.122.079zm2.363.648c.417.333.884.307 1.408.581-.498.09-1.001-.278-1.68-.172.353.147.798.154 1.026.176.27.159.79.253 1.186.439-.02.095-.083.001-.121.017-.023.193.164.139.156.312-.249.056-.517.016-.769.051l.197.133c-.346.104-.726-.165-1.112-.042l-.367.208c-.392.048-.75-.171-1.172-.217-.541-.055-1.143-.063-1.747-.129l.251.109c-.483.068-.955.098-1.49.087-.47-.011-.933.022-1.394.057-.514.038-1.018.094-1.557.159-.278.033-.542.191-.817.263-1.434.37-2.832.843-3.966 1.694-.342.258-.66.632-.982.806-.237.128-.55.228-.806.351-.12.055-.232.181-.438.131-.23-.056-.457-.277-.63-.122l.056-.112c-.129-.034-.248-.196-.41-.233l.05-.113c-.093-.044-.243-.132-.168-.27-.132-.046-.256-.168-.399-.091l-.068-.497c.384-1.277 1.404-1.576 2.211-2.198.476-.368 1.089-.553 1.65-.878.641-.372 1.514-.677 2.279-.889.453-.125.93-.268 1.39-.333l1.155-.188c.702-.093 1.454.131 2.189.08.5-.036.97-.052 1.394-.034l-.07.041c.251-.091.426.184.795.096-.161-.172.067-.074.186-.029l-.018.222c.555.179 1.33.036 1.794.371l.103-.076-.007.044-.022-.003.017.047c.786.134 1.729.238 2.513.59l-.317-.071c-.416-.149-.993-.239-1.479-.368zm-3.037 1.353c-.103.022-.254-.076-.326.022.104-.021.254.076.326-.022zM231.896 108.397c-.091.082.053.062.095-.019l-.095.019zm.198.885c-.109.288.071.354.075.609-.261-.013-.167-.337-.476-.4.007.164.161.249.229.3-.02.15.112.293.141.468l-.061-.005-.157.232c-.141.003-.224-.061-.347-.081l-.018.122-.402-.227-.291.059c-.182-.052-.14-.277-.246-.406-.138-.166-.315-.333-.436-.544l-.016.136c-.196-.097-.352-.224-.478-.401-.108-.157-.247-.292-.372-.438l-.431-.496c-.077-.09-.254-.126-.357-.208-.533-.431-1.047-.893-1.832-1.299-.239-.122-.583-.233-.723-.395-.104-.112-.168-.294-.253-.454-.039-.072-.143-.144-.062-.273.094-.133.367-.246.253-.333l.096.026.326-.194.094.018c.067-.042.19-.111.301-.083.079-.06.228-.118.193-.178l.489-.048c1.101.139 1.165.518 1.67.723l.694.428c.32.134.598.333.824.505.138.101.29.196.392.309l.287.264c.165.159.089.481.273.653.127.115.235.225.32.338l-.05.005c.131.01-.05.208.109.246.103-.138.075-.026.071.025l-.184.125c-.001.239.332.317.218.615l.09-.027-.036.026-.005-.006-.031.033c.143.241.387.468.442.799l-.071-.09-.252-.478zm-1.998.114c-.047-.017-.008-.118-.109-.083.047.018.01.118.109.083zM270.334 107.009c-.115.042.026.108.097.037l-.097-.037zm-.212 1.128c-.248.22-.124.408-.278.649-.196-.186.054-.439-.171-.7-.083.165 0 .343.028.438-.099.128-.083.345-.164.521l-.046-.046-.266.093c-.113-.092-.142-.199-.229-.293l-.087.09c-.18-.121.006-.297-.195-.43l-.274-.111c-.119-.139.027-.304-.001-.47-.035-.212-.129-.436-.155-.674l-.065.117c-.15-.161-.234-.325-.306-.519-.055-.172-.149-.329-.244-.48-.097-.173-.224-.327-.342-.495-.067-.085-.242-.111-.334-.177-.492-.337-1.038-.583-1.774-.482-.217.026-.527.147-.663.134l-.257-.063c-.041-.008-.113.036-.086-.084.01-.148.141-.414.006-.403l.089-.042.135-.352.083-.047c.027-.074.08-.204.183-.254.025-.094.104-.233.043-.255l.348-.348c.916-.616 1.21-.344 1.793-.349.339-.009.565.155.909.221.393.076.79.308 1.103.551.185.143.389.297.529.478l.367.455c.206.292.121.714.293 1.027.108.216.212.424.261.62l-.05-.021c.126.09-.107.236.038.378.141-.113.082.014.062.076l-.218.042c-.091.28.193.588-.055.842l.094.031-.045.004-.001-.01-.043.015c.015.353.092.761-.066 1.114l-.003-.136c.052-.185.02-.436.054-.655zm-1.841-.949c-.038-.033.034-.112-.072-.115.037.032-.034.111.072.115zM246.228 101.983c.018.123.165.008.086-.082l-.086.082zm1.668.672c.264.352.65.386 1.006.763-.434-.024-.751-.447-1.278-.379.233.159.569.209.745.26.172.194.562.367.807.672-.057.079-.067-.024-.104-.021l-.013.322-.591-.127.093.158c-.278.034-.459-.267-.754-.173l-.285.182c-.254.032-.439-.183-.7-.225l-1.059-.087.148.102c-.293.083-.572.132-.889.137-.278.007-.551.052-.823.097-.302.048-.598.113-.915.176-.164.035-.314.189-.475.257-.843.348-1.665.73-2.423 1.418-.229.208-.465.527-.702.638-.174.082-.403.114-.603.173-.09.028-.197.117-.335.017-.153-.112-.303-.397-.472-.296l.074-.091c-.099-.067-.122-.264-.208-.353l.05-.09c-.042-.073-.11-.206-.041-.311-.065-.087-.111-.245-.206-.221l.059-.491c.478-1.061 1.035-1.077 1.535-1.542.285-.27.632-.362.952-.617.362-.29.85-.523 1.284-.698.256-.104.526-.231.793-.289l.675-.179c.415-.097.88.112 1.339.04.312-.05.614-.082.892-.078l-.046.043c.164-.099.28.169.527.072-.106-.17.048-.074.128-.034l-.018.222c.362.164.924.007 1.241.355l.086-.073-.01.043-.018-.003.008.047c.556.144 1.341.343 1.914.919l-.252-.155c-.313-.246-.782-.428-1.136-.58zm-2.159 1.344c-.062.026-.152-.066-.196.034.062-.026.15.066.196-.034zM246.608 108.805c.024.124.176.004.09-.083l-.09.083zm1.766.531c.315.31.67.249 1.07.485-.386.124-.765-.206-1.278-.062.262.121.604.109.777.11.2.132.602.203.902.349l-.095.026.111.294c-.193.076-.397.062-.591.11l.147.12c-.266.123-.548-.113-.842.036l-.278.228c-.294.075-.56-.123-.873-.148-.404-.024-.851-.012-1.299-.058l.186.102c-.36.083-.71.124-1.108.117-.348-.008-.693.027-1.036.05l-1.163.105c-.209.02-.414.161-.624.211-1.1.266-2.187.547-3.229 1.132-.313.178-.65.461-.955.542-.22.061-.511.061-.767.093-.117.015-.256.091-.412-.025-.167-.131-.276-.43-.471-.35l.086-.083-.209-.374.07-.084c-.046-.078-.118-.218-.022-.314-.073-.094-.115-.256-.236-.243l.118-.481c.691-1.004 1.421-.939 2.101-1.339.394-.229.841-.277 1.271-.489.49-.244 1.119-.416 1.667-.543.323-.075.667-.173.99-.205l.822-.118c.5-.06 1.028.18 1.561.132.359-.036.705-.053 1.013-.044l-.052.042c.183-.096.31.172.583.079-.117-.169.051-.074.138-.035l-.015.222c.406.16.989-.015 1.333.292l.078-.081-.005.044-.018-.002.013.046c.592.095 1.309.129 1.915.427l-.245-.048c-.321-.121-.759-.164-1.129-.268zm-2.279 1.489c-.077.024-.188-.071-.242.029.076-.024.187.07.242-.029zM259.043 116.702c.133.119.69-.022.327-.096l-.327.096zm7.017.286c1.356.278 2.675.179 4.384.468-1.441.077-3.067-.225-4.984-.026 1.09.096 2.389.049 3.064.052.436.069 1.043.116 1.716.189.338.037.689.079 1.058.143.385.078.709.114 1.276.363-.033.082-.416-.136-.534-.13.026.109.186.165.436.292.125.068.28.144.485.357.201.165.381.685.307.898-.003-.376-.227-.688-.35-.792l-.191-.151-.154-.085c-.188-.089-.308-.11-.438-.144-.244-.053-.452-.074-.66-.094-.411-.036-.801-.046-1.169-.035l.671.156c-.992.06-2.258-.177-3.344-.013-.377.057-.652.222-.993.25-1.152.098-2.331-.066-3.613-.044l-5.315.14.789.071c-1.449.142-2.882.239-4.52.3-1.435.053-2.848.143-4.259.227l-4.78.303c-.859.055-1.687.231-2.548.317-4.5.451-8.956.916-13.08 1.657-1.244.224-2.539.557-3.739.675-.882.087-2.005.124-2.978.18-.449.026-.961.114-1.602.005-.718-.122-1.291-.415-2.094-.344.06-.064.223-.057.344-.079-.43-.083-.563-.282-1.016-.394.015-.082.235-.017.28-.077-.224-.083-.574-.236-.191-.32-.335-.106-.573-.274-1.089-.304.165-.154.157-.278.385-.455 2.575-.885 5.578-.954 8.35-1.428 1.598-.283 3.455-.398 5.22-.68 2.004-.32 4.605-.598 6.855-.817 1.332-.129 2.725-.285 4.055-.372l3.34-.256c2.015-.145 4.185.007 6.306-.13 1.439-.093 2.786-.171 4.008-.21-.01.052-.119.041-.196.05.702-.123 1.265.122 2.306-.016-.504-.149.176-.082.525-.057l.006.223c1.656.098 3.829-.168 5.283.094l.265-.091v.044h-.066l.066.044c1.158.008 2.418.002 3.701.041 1.297.047 2.557.1 3.937.381-.37-.058-.707-.093-1.04-.123-1.33-.172-3.021-.192-4.475-.253zm-8.482 1.798c-.307.037-.787-.038-.982.07.305-.037.786.037.982-.07zM243.249 136.116c-.135.038-.086.365.042.196l-.042-.196zm-4.49 3.425c-.803-.439-1.663-.631-2.501-1.354.831.316 1.717.995 2.96.983-.66-.188-1.442-.374-1.84-.531-.459-.302-1.326-.79-1.836-1.411.061-.076.121.087.184.109.097-.171-.19-.311-.116-.474.365.207.75.484 1.145.637l-.263-.291c.523.18 1.078.686 1.717.704l.587-.1c.511.032.998.203 1.559.237l.183.011.08-.197.113-.311c.261-.81.467-1.724.707-2.642l-.183.372c.074-.749.177-1.474.32-2.298.124-.722.203-1.44.267-2.158.072-.8.125-1.587.167-2.435.021-.438-.081-.873-.099-1.314-.086-2.305-.285-4.583-.856-6.684-.173-.634-.459-1.292-.546-1.896-.062-.443-.075-1.006-.121-1.492-.021-.224-.104-.48.003-.797.12-.355.409-.642.313-1.032.066.028.064.107.089.167l.356-.5.089.134c.074-.111.208-.285.312-.1.088-.168.246-.284.223-.536.169.075.294.066.49.167 1.059 1.267 1.043 2.838 1.448 4.264.236.829.279 1.788.476 2.71.225 1.047.354 2.41.417 3.593.037.7.089 1.438.066 2.138l-.037 1.766c-.044 1.069-.419 2.176-.536 3.301-.081.765-.176 1.484-.31 2.13l-.021-.113c.023.394-.294.63-.316 1.205.217-.226.056.113-.026.289l-.216-.054c-.342.825-.464 2.027-.984 2.694l-1.182 1.517-.688-.194-.011-.003-.183.085.001-.044.045.001-.044-.045c-1.545-.048-3.379-.583-4.576-1.772.166.131.335.259.512.373.674.529 1.735.962 2.662 1.191zm2.694-4.695c.007-.16.149-.38.07-.502-.006.161-.147.38-.07.502zM226.624 135.514c-.106-.082-.256.144-.083.144l.083-.144zm-2.779 1.06c-.619.033-1.055.384-1.722.573.399-.443 1.126-.527 1.734-1.084-.448.13-.89.447-1.122.599-.367.076-.921.395-1.411.571-.051-.082.076-.065.098-.105-.118-.156-.251.028-.371-.1.19-.233.467-.42.688-.636l-.286.055c.262-.346.823-.438 1.134-.818.108-.133.131-.335.243-.432.378-.329.899-.415 1.376-.676.614-.337 1.276-.742 1.98-1.092l-.338.078c.496-.385 1.006-.723 1.614-1.065.532-.3 1.037-.629 1.541-.958.562-.365 1.103-.741 1.682-1.145.297-.213.521-.519.796-.764 1.443-1.261 2.777-2.627 3.583-4.196.241-.475.399-1.039.649-1.433l.662-.917c.092-.142.146-.342.38-.455.254-.125.596-.101.697-.387l-.002.151c.148-.073.35-.027.527-.118l.008.143c.113-.032.307-.072.302.113.153-.062.338-.049.441-.233l.317.398c.268 1.472-.621 2.527-1.17 3.685-.327.681-.894 1.293-1.352 1.98-.519.784-1.34 1.652-2.091 2.346-.444.409-.905.849-1.385 1.2l-1.191.902c-.729.526-1.667.803-2.441 1.31-.526.344-1.021.655-1.483.908l.054-.079c-.218.233-.552.119-.894.426.264.042-.031.104-.178.145l-.104-.197c-.688.208-1.398.839-2.062.883l-.057.131-.021-.04.025-.013-.045-.027c-.873.428-1.841 1.005-2.778 1.341l.334-.185 1.639-.783zm2.391-3.173c.102-.087.323-.106.349-.236-.102.087-.322.106-.349.236zM259.855 131.482c-.029.129.231.159.16.007l-.16-.007zm2.114 1.958c.299.536.805.767 1.262 1.293-.57-.174-.961-.786-1.72-1.073.31.337.783.589 1.02.731.226.293.751.657 1.115 1.032-.054.08-.091-.042-.138-.046-.093.172.13.216.062.378-.29-.074-.572-.251-.859-.354l.168.233c-.42-.088-.737-.548-1.209-.655-.164-.037-.354.035-.487-.021-.452-.187-.753-.604-1.188-.905-.561-.386-1.202-.784-1.805-1.252l.21.265c-.549-.267-1.062-.575-1.606-.979l-1.443-1.023c-.531-.383-1.057-.757-1.604-1.186-.283-.221-.639-.347-.941-.555-1.576-1.087-3.074-2.28-4.657-3.344-.479-.318-1.058-.611-1.435-.999-.276-.285-.567-.69-.832-1.03-.123-.159-.314-.3-.369-.604-.057-.337.05-.717-.187-.95.069-.012.099.046.144.076l.117-.528.131.053c.021-.114.071-.302.234-.221.012-.162.105-.32-.013-.488l.495-.116c1.416.41 2.043 1.473 3.034 2.15.565.391 1.061.944 1.675 1.349.695.459 1.506 1.099 2.216 1.632.421.317.877.625 1.282.951.326.267.746.554 1.054.776.637.464 1.147 1.183 1.854 1.651.476.319.929.614 1.323.904l-.09-.012c.285.087.312.428.717.588-.067-.249.104-.02.197.09l-.131.18c.458.507 1.312.838 1.638 1.403l.14-.01-.025.036-.022-.016-.004.052c.754.572 1.7 1.178 2.407 1.898l-.312-.228c-.39-.345-.963-.739-1.418-1.126zm-3.823-.67c-.119-.052-.227-.24-.354-.206.12.052.228.24.354.206z"/>
        </g>
    </g>
    <g id="wu">
        <path d="M144.969 47.23c.11.101.441-.101.192-.131l-.192.131zm4.556-.467c.902.138 1.737-.083 2.809-.027-.854.276-1.936.139-3.125.525.708-.013 1.523-.192 1.947-.263l2.356-.053c.015.096-.149.032-.209.062.057.19.367.068.444.232-.42.149-.93.209-1.373.343l.428.047c-.583.231-1.415.133-2.073.407-.229.096-.378.288-.588.35-.71.21-1.476.164-2.28.316-1.032.198-2.161.474-3.311.725l.509-.024c-.879.306-1.748.585-2.75.866-.876.251-1.727.544-2.569.853-.94.338-1.849.711-2.823 1.117-.5.22-.941.537-1.423.797-2.523 1.332-4.914 2.863-6.742 4.721-.552.559-1.042 1.239-1.575 1.723l-1.337 1.15c-.199.174-.371.433-.728.581-.399.167-.817.162-1.095.521-.021-.07.049-.127.083-.189-.227.098-.43.026-.692.143l.062-.179c-.151.04-.401.087-.303-.145-.214.077-.427.058-.642.287-.046-.188-.138-.272-.178-.501.423-1.85 2-3.115 3.24-4.467.722-.802 1.724-1.498 2.617-2.278 1.015-.888 2.461-1.85 3.756-2.599.767-.442 1.57-.913 2.373-1.277.649-.302 1.423-.673 2.012-.924 1.229-.528 2.653-.764 3.971-1.222.896-.312 1.742-.58 2.519-.783.006.052-.067.056-.115.074.425-.208.839-.053 1.48-.312-.355-.083.097-.102.327-.12l.049.217c1.082-.104 2.432-.609 3.412-.494l.155-.118.007.044-.042.007.05.037c1.485-.226 3.232-.509 4.798-.477l-.601.055c-.811.02-1.894.168-2.83.252zm-5.056 2.683c-.185.07-.5.062-.599.191.183-.075.499-.065.599-.191zM158.341 60.202c-.153.099-.218.69-.021.36l.021-.36zm-3.484 5.57c-.932.782-1.592 1.727-2.7 2.652.68-.985 1.826-1.868 2.659-3.339-.638.713-1.297 1.615-1.664 2.062-.57.494-1.464 1.475-2.339 2.151-.072-.064.141-.155.185-.231-.171-.102-.43.263-.61.194.37-.475.84-.97 1.201-1.466l-.458.339c.445-.688 1.316-1.359 1.757-2.183.153-.286.167-.57.32-.814.511-.829 1.23-1.532 1.791-2.467.703-1.202 1.398-2.619 1.627-4.221-.124.097-.062.565-.204.655.173-1.204.074-2.581-.94-3.543-.879-.829-2.087-1.13-3.232-1.263-1.296-.131-2.582.019-3.916.335-.691.168-1.315.491-1.97.76-3.421 1.438-6.459 3.608-8.897 6.005-.735.727-1.416 1.585-2.135 2.241l-1.814 1.573c-.268.242-.533.564-.994.807-.515.27-1.055.348-1.468.827-.009-.08.089-.161.146-.242l-.843.256.104-.208c-.183.061-.482.145-.327-.129-.264.113-.503.113-.799.406-.02-.209-.113-.292-.119-.549.851-2.167 2.875-3.809 4.502-5.54.948-1.011 2.211-1.974 3.371-2.986 1.312-1.155 3.181-2.464 4.935-3.441 1.034-.582 2.158-1.164 3.31-1.588.932-.349 2.095-.726 3.018-.914 1.922-.399 4.183-.264 6.441.512.776.271 1.587.679 2.302 1.332.721.639 1.265 1.548 1.514 2.412-.053 0-.089-.159-.133-.265.425.974.247 1.811.198 3.022.235-.572.062.238-.066.604l-.217-.048c-.514 1.739-1.322 3.619-2.269 4.581l-.057.25-.037-.024.033-.05-.07.026c-1.174 1.725-2.659 3.576-4.297 4.942l.581-.581c.807-.749 1.767-1.864 2.58-2.852zm1.781-7.438c.001-.266.083-.695-.04-.863.059.272-.043.683.04.863zM140.273 68.115c-.133.005-.102.272.03.162l-.03-.162zm-1.431 2.554c-.45.413-.554.952-.938 1.51.017-.584.514-1.102.618-1.905-.257.379-.389.896-.467 1.156-.229.286-.445.874-.7 1.312-.092-.029.015-.096.005-.141-.19-.043-.171.178-.345.158-.009-.295.082-.609.109-.912l-.181.221.332-1.33c-.003-.168-.117-.337-.094-.48.076-.487.417-.878.611-1.376.25-.64.491-1.363.797-2.072l-.206.272c.126-.604.293-1.182.526-1.825.205-.563.367-1.132.524-1.7.176-.633.329-1.26.478-1.936.076-.35.029-.72.062-1.077.184-1.858.134-3.729-.522-5.267-.196-.464-.529-.907-.674-1.31-.105-.298-.186-.676-.303-.989-.056-.145-.175-.292-.128-.526.054-.259.269-.543.095-.763l.12.078.229-.433.113.055c.045-.095.13-.258.27-.173.043-.144.15-.3.058-.48l.506-.046c1.363.574 1.7 1.925 2.247 3.082.326.688.425 1.528.624 2.339.234.924.289 2.143.236 3.177-.028.613-.062 1.256-.171 1.848-.088.481-.178 1.059-.269 1.482-.189.885-.71 1.715-.96 2.601-.171.603-.345 1.158-.53 1.646l-.011-.095c-.013.319-.342.443-.402.896.228-.137.044.099-.042.223l-.207-.083c-.388.597-.522 1.522-1 1.973l.041.135-.041-.017.011-.025-.052.008c-.388.873-.753 1.915-1.245 2.751l.134-.348.742-1.614zm-.232-3.91c.021-.13.176-.284.11-.399-.019.131-.174.284-.11.399zM158.766 62.341c.138.084.535-.178.23-.166l-.23.166zm5.56-1.252c1.118-.038 2.127-.404 3.446-.575-1.016.456-2.362.521-3.793 1.132.873-.144 1.86-.481 2.375-.633.697-.076 1.901-.385 2.893-.537.031.092-.179.064-.249.106.096.176.461-.012.58.134-.499.237-1.118.415-1.654.632l.538-.039c-.698.346-1.739.426-2.531.825-.276.137-.444.361-.7.464-.868.35-1.829.442-2.82.741l-4.095 1.295.633-.107c-1.086.453-2.166.875-3.414 1.312-1.092.385-2.152.811-3.208 1.24-1.175.482-2.323.973-3.55 1.516-.637.274-1.198.674-1.819.989-1.617.833-3.211 1.697-4.721 2.614-1.505.89-2.948 1.923-4.373 2.901-.839.591-1.64 1.29-2.409 1.784-.569.361-1.292.771-1.843 1.171-.255.185-.503.443-.898.601-.434.173-.912.195-1.16.583-.024-.068.04-.133.072-.2-.222.124-.424.047-.654.185l.031-.176c-.142.048-.375.133-.316-.109-.218.138-.365.043-.577.436-.082-.19-.195-.244-.277-.482.041-1.036.817-2.081 1.684-2.869.882-.814 1.905-1.477 2.831-2.172 1.072-.812 2.463-1.484 3.599-2.284 1.326-.94 3.187-2.056 4.826-2.931.962-.53 1.976-1.073 2.967-1.536l2.49-1.163c1.51-.686 3.254-1.089 4.863-1.745 1.098-.433 2.126-.835 3.074-1.15.008.052-.081.067-.139.093.514-.279 1.024-.181 1.802-.542-.438-.03.115-.118.396-.172l.067.212c1.323-.281 2.955-1.005 4.161-1.066l.182-.145.012.042-.051.015.063.028c1.81-.486 3.919-1.106 5.838-1.397l-.729.178c-.988.189-2.304.537-3.443.801zm-6.111 3.577c-.229.102-.623.138-.743.288.227-.108.622-.142.743-.288z"/>
    </g>
    <g id="cai">
        <path d="M138.64 155.357c-.035-.124-.225-.007-.113.082l.113-.082zm-2.223-.529c-.405-.299-.834-.233-1.336-.439.448-.152.94.166 1.565.013-.338-.124-.753-.092-.965-.089-.262-.132-.75-.166-1.132-.292.006-.096.076-.012.109-.033-.001-.194-.167-.115-.181-.287.223-.09.477-.09.71-.152l-.199-.109c.315-.146.7.08 1.057-.076l.336-.237c.374-.079.732.119 1.14.142.523.029 1.104.018 1.69.072l-.245-.104c.467-.08.924-.113 1.444-.104.455.01.905-.021 1.353-.049l1.514-.127c.271-.028.531-.177.8-.24 1.406-.324 2.779-.734 3.934-1.519.348-.237.685-.591 1.016-.743.244-.11.563-.189.831-.291.124-.048.25-.161.452-.095.223.072.439.317.638.174l-.073.108.382.274-.059.106c.084.055.222.158.136.287.123.061.23.196.376.137l.017.5c-.502 1.221-1.49 1.418-2.304 1.985-.478.33-1.075.479-1.63.772-.631.335-1.483.598-2.226.779-.439.106-.902.233-1.345.283l-1.112.154c-.673.076-1.387-.16-2.085-.113-.476.031-.92.051-1.32.035l.067-.041c-.236.093-.403-.177-.749-.085.153.17-.063.074-.174.034l.014-.223c-.527-.17-1.245.007-1.688-.3l-.092.082.003-.045.021.002-.018-.046c-.737-.088-1.606-.113-2.345-.353l.293.03c.389.096.923.133 1.38.223zm2.833-1.486c.099-.023.247.072.315-.027-.099.023-.246-.073-.315.027zM138.123 160.905c-.061.109.119.1.114-.016l-.114.016zm.959 1.214c.095.369.384.422.609.69-.336.067-.505-.333-.961-.391.148.217.429.301.562.342.11.185.408.311.616.475l-.08.017.042.303c-.175.05-.356.019-.541.021l.106.146c-.28.07-.475-.23-.795-.201l-.353.1c-.316-.064-.476-.381-.743-.574-.345-.254-.74-.531-1.076-.884l.089.208c-.354-.186-.668-.419-.973-.734l-.821-.803c-.303-.298-.6-.594-.91-.921-.16-.169-.412-.261-.595-.415-.958-.806-1.893-1.634-3.033-2.178-.343-.164-.785-.271-1.041-.47-.188-.146-.37-.369-.553-.535-.084-.079-.228-.129-.236-.318-.011-.216.139-.488-.048-.577l.117.007.125-.419h.114c.021-.092.069-.246.211-.235.014-.124.1-.27-.001-.359l.438-.236c1.241-.146 1.739.553 2.515.911.455.212.793.588 1.25.848.52.295 1.069.755 1.524 1.152.269.235.565.466.799.716.189.204.443.423.619.594.365.353.525.91.915 1.252.263.233.506.439.706.638l-.063-.002c.186.048.093.317.342.406.031-.196.082-.025.116.049l-.153.162c.184.37.694.496.775.893l.099-.038-.026.036-.011-.009-.016.044c.386.319.869.55 1.21.853l-.159-.067c-.19-.139-.487-.297-.711-.497zm-2.637.019c-.079-.036-.106-.187-.217-.15.078.035.107.186.217.15zM146.495 162.475c-.06.105.03.009.06-.068l-.06.068zm.148.461c-.007.275.104.192.183.366l-.361.045c.042.114.156.071.206.06.037.118.156.127.246.224l-.032.04.027.273c-.073.102-.153.12-.235.191l.05.099-.369.104-.179.227c-.163.066-.237-.137-.369-.187-.175-.063-.384-.125-.548-.266l.024.127c-.201-.008-.385-.069-.542-.198l-.439-.319c-.164-.121-.322-.247-.484-.394l-.372-.146c-.563-.337-1.103-.721-1.897-.917-.239-.06-.582-.075-.731-.167-.11-.068-.187-.182-.281-.264-.043-.037-.146-.052-.083-.166.071-.124.3-.308.176-.342l.096-.008.262-.271.094-.012c.053-.058.152-.157.265-.166.06-.076.187-.174.138-.218l.453-.189c1.081-.22 1.245.144 1.777.257.31.066.466.241.762.322.336.092.637.259.871.387.139.077.298.137.395.217l.271.156.218.396.22.08-.035.029.06.1.043-.022-.124.186c.002.165.193.007.145.28l.047-.077-.017.041-.003-.001-.014.042c.104.072.246.055.372.235l-.059-.008-.227-.146zm-1.394 1.168c-.046.003-.04-.098-.119-.031.044-.001.04.101.119.031zM147.426 167.404c-.047-.115-.146.032-.056.1l.056-.1zm-1.547-.106c-.328-.21-.59-.059-.962-.154.255-.241.646-.034 1.015-.307-.247-.054-.508.062-.645.108-.2-.074-.524-.006-.801-.046l.063-.056-.186-.239c.124-.135.289-.188.426-.298l-.155-.064c.171-.208.475-.069.673-.294l.167-.299c.229-.152.509-.03.782-.084.352-.07.734-.187 1.134-.231l-.184-.061c.295-.158.594-.268.944-.336.307-.06.604-.152.902-.239l1.006-.303c.181-.055.334-.229.51-.314.917-.446 1.825-.913 2.572-1.688.224-.234.434-.58.661-.72.165-.101.396-.166.592-.258.09-.041.18-.146.335-.071.174.086.354.342.498.214l-.051.102.284.305-.037.099c.062.062.162.178.106.296.089.071.17.216.27.171l.032.494c-.312 1.146-.961 1.277-1.476 1.81-.299.311-.693.451-1.039.748-.389.331-.924.619-1.391.843-.276.13-.562.285-.845.372l-.703.256-1.377.14c-.302.096-.586.181-.848.229l.036-.051c-.135.127-.296-.11-.502.038.133.141-.025.082-.105.062l-.036-.22c-.375-.077-.802.226-1.154.01l-.042.097-.007-.044.014-.002-.021-.042c-.497.054-1.059.207-1.591.131l.196-.033.94-.071zm1.54-1.969c.062-.04.178.029.204-.079-.061.039-.178-.029-.204.079zM141.926 171.24c-.007.131.228.091.144-.034l-.144.034zm2.156 1.25c.359.397.831.447 1.333.742-.511.066-.976-.363-1.679-.394.333.221.792.297 1.021.341.258.196.783.325 1.185.509-.018.095-.085 0-.123.016-.023.193.169.142.167.316-.258.049-.545.014-.815.021l.209.15c-.38.082-.778-.229-1.212-.17-.152.02-.301.146-.433.137-.448-.032-.808-.345-1.258-.512-.58-.219-1.233-.44-1.858-.752l.234.204c-.546-.127-1.063-.311-1.628-.574-.493-.234-.993-.438-1.486-.653l-1.675-.727c-.3-.132-.648-.151-.963-.256-1.646-.545-3.292-1.056-4.93-1.113-.494-.018-1.042.07-1.471-.004-.315-.058-.688-.183-1.021-.258-.154-.031-.347-.012-.518-.186-.186-.19-.268-.521-.552-.515l.135-.049-.244-.45.122-.056c-.058-.095-.142-.261.02-.32-.094-.121-.13-.297-.316-.329l.263-.433c1.205-.749 2.345-.324 3.495-.306.674.015 1.366.253 2.089.344.822.103 1.82.391 2.658.669.497.165 1.022.321 1.491.525l1.188.476c.708.293 1.318.871 2.049 1.164.495.201.953.384 1.354.571l-.083.009c.274.016.345.338.733.394-.095-.221.09-.044.19.037l-.092.203c.488.373 1.285.465 1.66.895l.119-.049-.016.041-.021-.008.006.05c.751.32 1.652.559 2.398.911l-.306-.08c-.402-.159-.96-.319-1.419-.531zm-3.511.385c-.118-.022-.244-.18-.356-.118.118.023.245.18.356.118zM131.26 180.923c-.131-.036-.222.251-.042.178l.042-.178zm-2.795 2.12c-.711.207-1.231.691-2.134.938.596-.483 1.476-.711 2.099-1.476-.478.266-.98.692-1.273.89-.436.142-1.167.538-1.878.643-.033-.091.121-.057.166-.095-.093-.174-.327-.007-.422-.156.322-.199.701-.365.991-.591l-.339.048c.365-.331.998-.461 1.324-.905l.226-.479c.358-.399.875-.614 1.301-1.02.546-.52 1.078-1.154 1.646-1.767l-.304.206c.358-.561.73-1.088 1.188-1.666.401-.506.76-1.031 1.126-1.553.402-.584.816-1.152 1.264-1.753.229-.312.362-.692.574-1.023 1.1-1.732 2.205-3.445 2.951-5.253.226-.544.377-1.179.655-1.644.207-.343.508-.727.748-1.08.11-.163.19-.386.452-.529.293-.165.678-.176.826-.501.035.062-.012.114-.026.17l.557-.11-.007.148c.119-.028.32-.06.296.132.163-.057.349-.034.474-.219.087.16.188.233.281.428.099 1.536-.808 2.585-1.303 3.81-.286.711-.789 1.387-1.143 2.138-.401.854-1.033 1.859-1.587 2.713-.331.505-.658 1.046-1.012 1.521-.292.386-.61.87-.857 1.221-.13.183-.276.356-.432.525l-.455.48c-.317.334-.649.692-.924 1.093-.374.543-.743 1.056-1.111 1.501l.026-.1c-.135.321-.503.353-.749.801.281-.072 0 .116-.136.219l-.166-.149c-.624.494-1.213 1.421-1.947 1.706l-.041.154-.029-.033.025-.021-.054-.012c-.879.738-2.029 1.669-3.447 2.011l.506-.203c.681-.243 1.455-.742 2.074-1.158zm1.744-4.016c.069-.124.278-.229.258-.365-.068.125-.277.23-.258.365zM127.32 176.941c-.046-.116-.167.029-.07.099l.07-.099zm-1.783-.28c-.333-.283-.686-.207-1.092-.453.386-.114.774.203 1.26.013-.261-.1-.585-.059-.759-.062-.201-.131-.595-.191-.884-.367l.095-.021-.085-.301.563-.087-.13-.118c.247-.125.5.11.761-.054l.234-.248c.246-.095.485.072.757.057l1.097-.149-.173-.066c.281-.146.555-.255.877-.333.282-.069.551-.176.816-.285.296-.119.582-.254.888-.395.158-.074.273-.262.419-.368.767-.553 1.493-1.146 2.052-2.021.168-.264.31-.638.507-.812.146-.128.357-.227.533-.342.08-.053.153-.169.317-.115.179.062.401.29.534.144l-.042.109c.113.035.203.211.312.27l-.022.102c.065.056.173.161.136.283.091.062.185.197.272.144l.092.486c-.148 1.163-.711 1.355-1.087 1.953-.215.346-.545.538-.805.877-.295.386-.738.75-1.143 1.039-.24.17-.488.367-.751.493l-.658.35c-.408.2-.939.111-1.396.29-.311.122-.616.223-.902.281l.038-.053c-.146.135-.325-.103-.554.048.143.141-.032.084-.123.062l-.03-.221c-.403-.078-.934.19-1.314-.075l-.066.091v-.045h.017l-.018-.045c-.58-.019-1.328-.018-1.952-.352l.252.059c.333.132.783.165 1.157.237zm1.843-1.795c.058-.039.169.031.193-.077-.058.039-.169-.031-.193.077zM141.134 182.266c-.07.105.123.133.123.008l-.123-.008zm.994 1.54c.083.42.407.56.644.916-.396-.038-.552-.511-1.056-.691.147.268.454.432.602.516.106.226.433.447.652.685l-.095-.009.001.32c-.207-.004-.405-.093-.61-.142l.097.179c-.318-.006-.492-.369-.844-.417l-.39.018c-.33-.138-.469-.5-.739-.758-.345-.337-.744-.701-1.075-1.136l.081.235c-.361-.26-.672-.563-.973-.95l-.804-.998c-.295-.37-.582-.74-.877-1.148-.151-.211-.405-.355-.579-.559-.919-1.055-1.783-2.148-2.858-3.088-.325-.283-.756-.55-.982-.868-.165-.234-.309-.56-.458-.831-.07-.124-.203-.249-.169-.474.038-.248.252-.523.082-.729l.119.074c.023-.152.198-.249.245-.399l.109.048c.05-.084.146-.222.279-.151.054-.12.184-.232.117-.366l.497-.056c1.233.393 1.517 1.236 2.215 1.835.401.344.669.815 1.083 1.19.469.425.957 1.015 1.37 1.517.245.297.521.594.735.898.173.249.414.523.58.734.344.438.474 1.059.861 1.494.259.296.505.562.707.815l-.067-.015c.193.086.084.358.344.504.042-.202.089-.013.123.077l-.171.143c.177.433.727.689.798 1.137l.111-.016-.031.031-.012-.012-.02.044c.407.438.95.83 1.33 1.272l-.183-.127c-.218-.208-.549-.466-.789-.742zm-2.837-.55c-.08-.053-.1-.218-.217-.199.079.052.1.217.217.199zM156.846 172.154c-.084-.098-.213.089-.071.122l.071-.122zm-2.284.524c-.508-.067-.863.202-1.409.287l1.416-.773c-.369.053-.733.288-.921.399-.303.017-.754.243-1.156.346-.046-.084.061-.051.078-.087-.104-.164-.209-.007-.315-.145.151-.196.376-.34.557-.516l-.238.014.938-.625c.089-.112.108-.303.203-.379.319-.26.757-.262 1.162-.433.52-.222 1.087-.494 1.691-.695l-.286.011c.432-.276.877-.503 1.406-.705.463-.177.908-.383 1.355-.582l1.507-.689c.27-.126.488-.36.745-.519 1.344-.814 2.645-1.685 3.573-2.848.278-.352.504-.81.784-1.075.207-.194.497-.387.723-.583.105-.091.187-.247.407-.262.242-.016.531.132.669-.077l-.029.129.475.098-.021.126c.104.015.278.054.239.211.144.004.3.085.424-.033l.197.462c-.053 1.361-1 1.959-1.651 2.804-.384.497-.954.858-1.434 1.338-.545.547-1.339 1.098-2.038 1.528-.414.255-.841.536-1.271.739l-1.062.54c-.643.312-1.429.353-2.093.663-.451.21-.872.401-1.258.549l.048-.065c-.188.18-.456-.001-.745.228.213.092-.029.093-.151.103l-.078-.208c-.57.066-1.162.539-1.704.468l-.047.115-.017-.041.021-.008-.037-.033c-.718.261-1.501.663-2.261.852l.27-.13c.388-.124.879-.362 1.334-.499zm2.049-2.623c.089-.064.274-.039.303-.159-.09.063-.275.039-.303.159zM148.964 182.185c-.083-.103-.261.083-.101.122l.101-.122zm-2.744.471c-.584-.08-1.04.189-1.692.267l1.774-.764c-.439.046-.899.279-1.137.389-.356.012-.919.236-1.404.335-.04-.088.079-.052.105-.089-.094-.171-.242-.011-.342-.153.208-.199.493-.343.731-.52l-.279.01 1.187-.621c.121-.113.171-.307.292-.382.409-.258.919-.249 1.415-.412.638-.212 1.338-.472 2.071-.654l-.334.001c.543-.266 1.095-.479 1.742-.663.567-.16 1.117-.349 1.669-.529l1.868-.621c.335-.112.629-.339.957-.482 1.71-.746 3.388-1.533 4.75-2.646.41-.336.792-.786 1.194-1.036.298-.182.693-.354 1.019-.537.149-.085.295-.237.559-.231.291.006.593.187.825-.02l-.078.132.509.159-.06.127c.111.029.294.092.204.249.16.022.311.127.484.021.017.179.075.289.083.501-.469 1.393-1.674 1.879-2.609 2.674-.549.463-1.27.775-1.912 1.218-.729.504-1.732.994-2.604 1.379-.517.228-1.053.481-1.578.659l-1.306.48-2.518.561c-.553.193-1.069.368-1.54.503l.064-.063c-.245.174-.53-.02-.9.202.235.102-.047.094-.19.1l-.061-.214c-.674.048-1.433.512-2.057.426l-.072.116-.014-.042.025-.008-.038-.035c-.877.249-1.857.646-2.779.827l.336-.128c.475-.121 1.087-.356 1.641-.486zm2.774-2.609c.113-.062.325-.031.376-.151-.114.06-.326.03-.376.151zM140.432 193.281c-.084-.106-.31.073-.13.118l.13-.118zm-3.205.316c-.653-.126-1.217.105-1.973.117.557-.327 1.34-.225 2.144-.61-.505.013-1.064.208-1.353.296-.405-.021-1.083.147-1.65.191-.027-.093.1-.043.136-.077-.072-.182-.27-.037-.354-.192.272-.177.621-.286.918-.439l-.314-.021c.382-.268.994-.214 1.435-.504.153-.102.24-.292.386-.357.495-.223 1.062-.174 1.638-.306.741-.17 1.553-.394 2.393-.55l-.375-.013c.634-.243 1.271-.438 2.009-.606.646-.148 1.276-.329 1.906-.506l2.125-.623c.38-.116.721-.345 1.093-.494 1.945-.772 3.847-1.615 5.417-2.788.473-.355.919-.826 1.382-1.096.341-.197.792-.389 1.166-.589.173-.092.343-.255.638-.26.327-.007.656.161.924-.058.003.072-.057.096-.094.139l.554.142-.073.132c.122.025.32.082.211.246.175.017.336.117.534.002.008.183.067.292.065.509-.596 1.442-1.95 1.985-3.023 2.823-.628.49-1.443.83-2.175 1.298-.832.533-1.971 1.057-2.967 1.465-.589.24-1.204.508-1.805.694l-1.5.499c-.908.286-1.946.285-2.896.562-.646.187-1.25.354-1.802.477l.08-.062c-.297.169-.603-.032-1.05.177.258.11-.064.093-.229.093l-.046-.218c-.774.022-1.703.451-2.405.325l-.1.112-.009-.044.03-.006-.039-.037c-1.037.192-2.226.509-3.313.593l.408-.094 1.953-.342zm3.466-2.464c.133-.059.367-.019.436-.138-.133.057-.368.018-.436.138z"/>
    </g>
    <g id="zhi">
        <path d="M323.478 49.026c-.055.116.156.132.131 0h-.131zm1.478 1.611c.21.456.627.595.995.975-.471-.035-.783-.537-1.404-.714.238.281.634.447.828.537.182.235.623.472.924.706-.039.088-.073-.012-.11-.003-.066.184.112.162.07.33-.237.015-.484-.083-.732-.122l.152.183c-.366.008-.651-.373-1.062-.41-.145-.013-.314.076-.434.039-.402-.13-.649-.506-1.01-.771-.465-.342-.991-.716-1.435-1.189l.135.257c-.442-.277-.843-.612-1.206-1.076-.312-.407-.619-.821-.83-1.3-.243-.522-.359-1.164-.174-1.796.096-.322.157-.7.383-1.012.605-.801 1.489-1.22 2.27-1.594.795-.366 1.567-.689 2.251-1.094.413-.243.806-.599 1.147-.755.25-.116.564-.197.773-.309.093-.052.182-.164.324-.107.165.068.379.277.431.142l.002.099c.107.026.178.201.261.264l.041.077c.051.056.175.142.202.241.072.073.284.087.39-.029l.229.448c.064.653-.328 1.169-.79 1.504-.465.346-.995.561-1.471.856-.558.346-1.232.49-1.813.797-.658.345-1.488.671-1.923.978-.271.174-.388.387-.35.417l-.159-.137c.012.009.132.066.307.11l.029.021-.008.013-.141-.254.003.004.007.009.013.017.025.035.052.069.042.091-.011-.062-.026.009c-.025.081.003.266.138.431.186.229.416.474.634.712l-.067-.01c.198.07.11.36.403.494.012-.213.091-.02.139.074l-.154.161c.261.443.923.693 1.125 1.176l.119-.021-.026.036-.017-.012-.01.048c.568.455 1.331.874 1.887 1.34l-.246-.13c-.309-.231-.771-.494-1.122-.793zm-3.251-.473c-.095-.058-.149-.236-.271-.218.094.059.151.239.271.218zM318.134 59.75c-.09-.102-.301.089-.121.125l.121-.125zm-3.171.355c-.642-.154-1.214.039-1.965-.039.582-.257 1.346-.091 2.149-.446-.494-.006-1.049.153-1.341.213l-1.633-.006c-.012-.096.103-.028.144-.057-.044-.19-.255-.076-.312-.242.286-.139.634-.187.933-.308l-.295-.059c.39-.215.963-.095 1.398-.352l.379-.331c.468-.191.995-.122 1.533-.252.69-.164 1.435-.409 2.2-.616l-.349.009c.567-.276 1.134-.513 1.791-.75.576-.208 1.128-.456 1.675-.708.61-.279 1.199-.579 1.832-.898.325-.169.591-.443.901-.645 1.624-1.049 3.181-2.167 4.46-3.518.386-.408.739-.926 1.149-1.242.302-.232.718-.466 1.062-.697.159-.106.313-.281.602-.309.324-.031.675.114.927-.121.009.069-.053.099-.086.144l.536.129-.06.13c.115.024.306.078.215.241.165.015.322.113.5-.002l.096.5c-.474 1.421-1.639 2.005-2.496 2.926-.497.534-1.178.954-1.755 1.5-.656.621-1.583 1.293-2.411 1.842-.491.324-1 .68-1.52.956l-1.299.72c-.796.419-1.775.57-2.645.96-.592.264-1.154.498-1.68.671l.071-.069c-.273.193-.588.025-1.01.264.263.091-.056.097-.217.11l-.062-.214c-.751.073-1.654.535-2.355.404l-.099.112-.009-.043.029-.006-.039-.038c-1.024.188-2.24.43-3.338.36l.419-.039c.571-.003 1.324-.117 1.975-.184zm3.245-2.509c.119-.064.341-.041.392-.166-.118.069-.339.044-.392.166zM328.688 61.056c-.006.129.214.078.134-.042l-.134.042zm1.992 1.151c.319.39.754.43 1.199.728l-1.531-.374c.302.209.72.278.929.322.229.19.703.322 1.059.51-.022.094-.078-.001-.113.014-.033.192.146.144.132.316-.237.046-.495.006-.742.015l.182.149-1.095-.163-.399.144c-.405-.022-.724-.316-1.13-.463-.524-.187-1.117-.369-1.688-.629l.213.185c-.497-.088-.971-.222-1.488-.431-.453-.183-.912-.333-1.368-.489l-1.551-.515c-.278-.092-.596-.066-.887-.127-1.516-.315-3.045-.572-4.482-.341-.433.071-.895.257-1.258.274l-.863-.029c-.127.003-.277.063-.432-.058-.185-.145-.293-.437-.478-.355l.081-.083c-.095-.079-.119-.279-.273-.37l.091-.088c-.073-.075-.187-.21-.062-.312-.11-.09-.186-.249-.354-.229l.119-.488c.842-1.065 1.993-.896 3.029-1.083.618-.109 1.281.009 1.954-.014.766-.027 1.711.112 2.503.272.47.094.965.18 1.41.322l1.125.324c.671.206 1.261.708 1.948.928.466.15.897.293 1.274.446l-.078.015c.256-.004.326.308.688.336-.091-.212.084-.049.178.026l-.084.206c.454.335 1.198.386 1.539.803l.112-.053-.016.042-.021-.008.004.05c.692.291 1.521.518 2.186.879l-.277-.082c-.357-.165-.866-.319-1.285-.522zm-3.241.551c-.107-.013-.224-.155-.325-.086.108.013.224.155.325.086zM332.17 68.765c-.115-.046-.062.106.042.097l-.042-.097zm-.997.782c-.351.012-.402.256-.707.352.007-.292.382-.331.419-.705-.185.082-.265.287-.316.387-.17.041-.332.232-.529.323l.004-.07-.266-.106c-.01-.155.055-.265.065-.402l-.134.015c-.034-.224.237-.245.195-.495l-.113-.283c.022-.198.251-.24.36-.397.132-.207.242-.457.398-.68l-.136.052c.017-.241.078-.443.176-.659.093-.185.142-.388.193-.586.061-.22.094-.444.139-.677.018-.123-.08-.281-.093-.409-.076-.673-.248-1.331-.811-1.889-.162-.168-.458-.337-.541-.469l-.125-.284c-.021-.039-.104-.079.005-.137.116-.099.398-.2.299-.304l.091.043.35-.159.091.034c.072-.035.203-.09.31-.043.086-.052.242-.092.216-.162l.491.023c1.077.294 1.08.763 1.472 1.236.235.273.26.583.445.91.204.372.299.856.332 1.277.018.248.046.517.011.757l-.076.614c-.068.37-.434.635-.539 1.002-.076.25-.158.481-.261.675l-.021-.052c.024.161-.25.113-.249.33.183.008.049.068-.012.104l-.188-.118c-.27.167-.291.616-.663.655l.044.089-.035-.026.007-.009-.043-.018c-.253.304-.514.698-.909.887l.105-.116c.187-.118.354-.351.549-.51zm-.613-2.077c-.001-.054.11-.07.037-.147.001.053-.11.068-.037.147zM314.44 65.853l.081-.04-.081.04zm-.238.276c-.173.186-.089.144-.155.278l-.19.005c-.047.086.037.066.063.064l-.021.213-.035.028-.135.236-.221.106-.026.093-.271-.001-.241.136c-.149.015-.071-.172-.137-.237-.078-.093-.203-.183-.243-.324l-.053.096c-.146-.055-.257-.142-.312-.27l-.197-.321-.224-.377-.259-.186c-.345-.357-.673-.738-1.316-1.06-.194-.1-.5-.19-.6-.286l-.147-.224c-.024-.032-.111-.062-.008-.117.115-.063.398-.136.299-.192l.091.021.349-.11.091.015c.072-.024.203-.063.31-.041.086-.035.241-.066.216-.105l.49-.01c1.071.123 1.075.395 1.515.601.255.121.327.268.562.393.268.14.47.316.623.452.09.081.207.149.254.225l.163.154-.021.279.121.079-.043.012-.021.057.043-.011-.198.102c-.098.1.104.007-.102.171l.073-.051-.035.027h-.001l-.035.028c.002.053.053.018-.018.17l-.012-.01.014-.108zm-1.616.589l-.074-.05.074.05zM321.574 67.008l.072-.053-.072.053zm-.09.403c-.116.236-.015.189-.031.355l-.266-.021c-.015.104.08.086.116.087-.023.112.055.139.069.25l-.038.029-.097.255-.232.118-.007.1-.297.02-.22.17c-.148.034-.116-.16-.195-.221-.109-.074-.244-.153-.327-.281l-.028.108c-.155-.027-.289-.089-.375-.207l-.271-.282-.31-.338-.294-.142c-.418-.306-.814-.651-1.507-.917-.21-.083-.527-.145-.642-.243l-.185-.255c-.03-.038-.122-.07-.028-.148.106-.083.381-.182.275-.232l.093.013.336-.148.092.007c.069-.032.195-.085.304-.072.081-.044.233-.092.203-.13l.487-.059c1.08.028 1.113.299 1.577.442l.61.301c.285.093.512.223.684.319l.286.152.184.102.032.262.141.05-.039.022.003.076.042-.017-.17.144c-.063.128.137.016-.01.241l.065-.061-.029.033-.002-.001-.027.035c.043.075.146.08.147.269l-.032-.02-.087-.165zm-1.531.853l-.084-.037.084.037zM327.644 70.316c-.112.045.021.039.092-.008l-.092.008zm-.181.537c-.204.181-.076.221-.166.382l-.261-.245c-.056.105.047.16.085.192-.071.1-.009.187-.046.306h-.05l-.213.17-.273-.047-.056.087-.278-.166-.278.031c-.146-.048-.03-.21-.078-.31-.065-.129-.163-.267-.192-.429l-.065.094c-.139-.093-.236-.204-.283-.347-.041-.125-.115-.241-.177-.362l-.218-.41-.26-.198c-.35-.371-.699-.752-1.365-1.039-.2-.088-.512-.16-.618-.248l-.167-.217c-.027-.03-.116-.054-.018-.119.108-.075.383-.18.277-.231l.093.015.337-.148.092.009c.069-.032.196-.084.305-.069.082-.044.234-.091.204-.131l.487-.052c1.082.043 1.114.337 1.571.535.266.116.35.277.596.41.278.148.494.353.657.523.098.097.217.201.271.297l.177.234.006.467c.069.083.124.167.153.238h-.047l-.001.155c.146-.078.077-.011.052.02l-.213.066c-.095.145.162.201-.055.378l.089-.017-.042.016-.001-.004-.04.02c.028.15.146.274.07.479l-.026-.052-.035-.283zm-1.81-.04l-.068-.071.068.071zM339.52 57.54c-.038-.119-.145.02-.062.095l.062-.095zm-1.492-.252c-.293-.249-.562-.126-.903-.274.271-.202.62.049 1.002-.177-.229-.083-.49 0-.626.029-.181-.098-.495-.076-.752-.153l.067-.046-.142-.263c.134-.116.295-.147.436-.236l-.136-.085c.185-.182.45-.003.659-.203l.187-.276c.226-.121.471.027.729.002.331-.035.692-.117 1.065-.132l-.167-.073c.281-.139.562-.22.886-.273.284-.042.56-.122.834-.2.306-.082.602-.186.921-.282.164-.055.3-.229.457-.314.815-.45 1.596-.954 2.154-1.773.17-.244.302-.604.476-.762l.438-.297c.062-.046.109-.154.248-.091.163.065.386.283.489.139l-.027.107.317.256-.016.103c.068.052.182.15.154.274.095.057.196.186.279.127l.124.479c-.054 1.167-.649 1.388-1.064 1.971-.24.346-.599.515-.897.841-.342.364-.841.686-1.286.929-.264.138-.538.309-.814.4l-.689.264c-.421.146-.916-.011-1.357.119-.3.082-.584.157-.843.189l.037-.048c-.139.118-.283-.129-.493.005.121.149-.03.081-.107.055l-.021-.222c-.359-.107-.8.161-1.12-.092l-.05.092-.003-.044.014-.001-.017-.043c-.482.006-1.045.085-1.544-.064l.191-.006c.26.046.608.013.91.049zm1.614-1.818c.059-.036.163.042.192-.065-.059.035-.163-.041-.192.065zM332.238 71.381c.087.109.355-.063.156-.115l-.156.115zm3.653-.14c.719.182 1.385.008 2.235.087-.676.259-1.538.069-2.489.391.566.025 1.218-.11 1.555-.169.449.063 1.233-.023 1.873.013.014.096-.118.03-.165.058.049.19.294.074.358.239-.333.14-.737.198-1.091.313l.343.061c-.464.217-1.13.089-1.656.336-.184.085-.304.268-.473.318-.57.177-1.187.082-1.834.179l-2.678.451.411.021c-.274.089-.549.171-.829.247l.054.07c.164-.432.353-.867.58-1.327.324-.655.618-1.314.918-1.97l.996-2.227c.175-.401.232-.844.374-1.261.737-2.17 1.327-4.384 1.229-6.442-.023-.62-.19-1.267-.19-1.811.005-.401.05-.894.041-1.318 0-.197-.076-.42.048-.688.128-.298.424-.554.321-.859.065.021.064.084.09.132.066-.182.271-.216.347-.451l.096.128c.068-.114.192-.294.306-.117.079-.172.23-.296.194-.545.173.066.297.05.498.14 1.148 1.186 1.035 2.861 1.179 4.369.087.893-.099 1.882-.169 2.858-.074 1.114-.402 2.503-.76 3.66-.21.686-.427 1.404-.697 2.053l-.658 1.628c-.411.97-1.129 1.845-1.562 2.826-.293.666-.565 1.28-.828 1.82l.003-.106c-.035.207-.169.337-.301.511l-2.51-3.326c.167.001.351-.012.568-.097-.285-.115.079-.092.265-.09l.037.22c.873-.004 1.962-.399 2.743-.222l.124-.106.006.044-.034.004.04.04c1.189-.125 2.578-.325 3.816-.264l-.475.04c-.643.005-1.503.104-2.249.139zm-4.087 2.29l-.387.062.264.349.006-.12-.044.102-.218-.289c.142-.018.313-.011.379-.104zM344.76 76.741c-.103.088.067.156.112.052l-.112-.052zm.615.514c.592.284 1.282.172 2.127.351l-2.406.081c.461.123 1.115.054 1.45.036.432.11 1.232.111 1.876.23.001.097-.123.014-.175.036.025.195.287.111.33.284-.353.094-.766.102-1.132.178l.336.099c-.488.159-1.137-.036-1.679.147-.189.063-.328.229-.5.259-.576.091-1.179-.083-1.701-.274-.697-.208-1.096-1.059-1.263-1.955l.006.4c-.291-.67-.456-1.394-.561-2.216l-.264-2.15c-.083-.797-.158-1.582-.218-2.429-.027-.437-.179-.86-.233-1.301-.283-2.298-.508-4.588-1.109-6.667-.183-.625-.476-1.273-.578-1.858-.069-.434-.099-.978-.162-1.443-.025-.219-.119-.455-.028-.751.102-.338.385-.609.257-1 .068.023.072.102.102.159l.319-.523.099.126c.065-.115.187-.297.304-.122.075-.173.225-.299.184-.547.175.062.298.045.501.13 1.165 1.168 1.203 2.766 1.636 4.176.254.824.307 1.779.52 2.689.239 1.033.397 2.364.516 3.5.071.671.168 1.371.205 2.031.031.536.104 1.174.149 1.646.088.984-.089 2.039.055 3.052l.291 1.841-.057-.078c.146.279-.069.586.129.953.116-.225.088.058.088.171l-.215.058c.004.156.038.284.075.391l.052.101.015.021.004.003-.104.076-.186.133.086-.166.048-.111-.001.014.03.093.071-.077-.01.043-.013-.003.004.047c.254.071.848.088 1.463.103.622.017 1.297.051 1.922.157l-.487-.016-2.168-.128zm-2.751-.591c-.061-.144-.02-.393-.137-.473.055.145.015.398.137.473zM346.32 64.233c-.004.125.146.031.092-.068l-.092.068zm1.375.786c.196.346.511.35.793.639-.354.061-.598-.321-1.062-.261.193.165.481.195.627.229.138.166.458.286.673.481l-.085.01.019.302c-.181.042-.346-.009-.518.012l.093.137c-.251.083-.426-.191-.702-.092l-.281.182c-.255.028-.426-.204-.678-.27-.321-.086-.688-.132-1.041-.241l.131.125c-.309.033-.598.023-.918-.038-.279-.055-.563-.072-.845-.096l-.958-.071c-.173-.014-.366.092-.548.106-.949.074-1.895.141-2.977.404-.325.08-.721.243-1.024.211-.223-.024-.479-.127-.715-.196-.108-.03-.264-.021-.352-.191-.1-.192-.096-.53-.319-.556l.124-.028c-.065-.123.043-.29.015-.415l.093-.045c.005-.085.022-.234.141-.281-.006-.109.044-.266-.05-.301l.325-.372c1.009-.592 1.469-.329 2.114-.515l1.067-.166c.421-.128.917-.18 1.352-.211.257-.018.531-.059.785-.04l.653.008 1.208.353c.298.02.579.044.833.1l-.051.034c.17-.066.222.213.466.159-.064-.182.057-.065.121-.015l-.056.216c.306.22.828.128 1.057.484l.083-.068-.014.042-.014-.004v.047c.477.178 1.082.34 1.523.718l-.195-.086c-.241-.163-.604-.289-.893-.44zm-2.187 1.121c-.067.014-.139-.095-.202-.003.066-.015.138.093.202.003z"/>
    </g>
    <g id="xie">
        <path d="M339.807 149.184c.129.091.546-.138.239-.15l-.239.15zm6.766 1.483c.491.798.7 1.578.791 2.279.09.709.065 1.379-.08 2.054-.043-.576.014-1.212-.094-2.009-.057-.396-.161-.839-.389-1.299-.224-.455-.6-.929-1.092-1.246.501.444.904 1.065 1.112 1.607.218.545.306 1.013.347 1.317-.006.82-.125 2.076-.421 2.993-.096-.012.02-.182.009-.261-.197.014-.186.402-.367.44.006-.518.09-1.123.058-1.681l-.148.491c-.073-.714.188-1.721-.223-2.566-.145-.285-.384-.431-.538-.646-.499-.757-1.371-1.321-2.358-1.366-1.258-.062-2.553.304-3.838.663l.573-.072-3.031 1.206c-.959.373-1.891.794-2.819 1.195-1.03.461-2.022.958-3.081 1.51-.547.285-1.02.679-1.549 1.001-2.767 1.697-5.434 3.483-7.875 5.359-.736.566-1.477 1.243-2.257 1.689-.57.33-1.34.67-2.006.979-.306.144-.644.357-1.136.42-.559.065-1.053-.075-1.611.186.028-.076.147-.109.226-.159-.329.026-.503-.136-.855-.131l.181-.142c-.188-.024-.476-.085-.228-.261-.271-.017-.451-.142-.795-.033.063-.189.022-.308.114-.531 1.508-1.439 3.479-2.192 5.111-3.393.936-.691 2.095-1.319 3.123-2.088 1.166-.87 2.734-1.896 4.119-2.767.819-.515 1.675-1.07 2.529-1.538l2.157-1.194c.663-.348 1.389-.636 2.139-.909l1.137-.408.534-.2.528-.222c.951-.424 1.87-.818 2.743-1.129.01.052-.073.065-.126.092.471-.274.95-.168 1.697-.509-.421-.042.11-.117.389-.158l.06.215c.646-.107 1.389-.312 2.193-.427.797-.115 1.69-.131 2.46.152l.312-.024c.083.029.03.053-.011.043l-.075-.019.064.062c.63.152 1.396.481 2.021 1.087.632.6 1.008 1.389 1.181 2.074.327 1.39.142 2.495-.085 3.449.043-.25.079-.505.107-.767.08-.526.135-1.172.048-1.937-.084-.745-.347-1.683-.975-2.471zm-7.322.8c-.204.092-.561.116-.664.26.202-.098.557-.122.664-.26zM338.365 160.624c.121.074.345-.186.126-.165l-.126.165zm3.739-1.374c.802-.06 1.455-.438 2.38-.612-.651.446-1.608.536-2.513 1.153.599-.157 1.24-.499 1.582-.655l1.986-.539c.037.089-.118.062-.161.103.097.172.329-.011.436.132-.317.231-.732.395-1.073.614l.375-.042c-.433.343-1.161.419-1.644.819l-.401.456c-.541.349-1.202.459-1.839.77-.82.395-1.694.892-2.604 1.35l.426-.124c-.658.469-1.325.891-2.104 1.344-.684.394-1.333.821-1.983 1.247l-2.184 1.47c-.391.268-.705.63-1.08.925-1.961 1.544-3.888 3.094-5.573 4.786-.508.509-.996 1.129-1.543 1.536-.402.299-.952.612-1.415.907-.213.137-.434.341-.8.409-.413.074-.842-.04-1.197.239-.001-.072.082-.112.133-.164-.25.044-.392-.109-.647-.088l.093-.142c-.14-.017-.365-.059-.229-.237-.202-.003-.381-.093-.617.042.002-.188-.06-.297-.044-.52.801-1.532 2.283-2.273 3.399-3.38.644-.638 1.489-1.196 2.205-1.881.812-.777 1.93-1.676 2.91-2.44.581-.453 1.179-.945 1.785-1.363l1.508-1.081c.919-.644 2.07-1.068 3.065-1.722.678-.442 1.319-.85 1.923-1.184l-.076.093c.3-.281.697-.204 1.167-.577-.324-.011.054-.116.243-.179l.104.198c.888-.31 1.896-1.059 2.757-1.157l.1-.144.018.041-.034.016.053.025c1.198-.521 2.61-1.16 3.952-1.456l-.497.178c-.686.193-1.573.553-2.342.834zm-3.54 3.581c-.136.105-.411.15-.457.295.134-.108.41-.152.457-.295zM324.189 188.634c-.127.073-.02.426.076.208l-.076-.208zm-.643 4.263c-.318.802-.27 1.612-.493 2.594-.139-.838.2-1.812.074-2.987-.141.657-.125 1.447-.13 1.853-.143.516-.193 1.451-.329 2.198-.097.001-.01-.144-.03-.203-.196.026-.12.334-.294.384-.084-.415-.078-.903-.133-1.342l-.116.396c-.137-.588.104-1.354-.039-2.025-.049-.233-.206-.412-.224-.623-.062-.714.154-1.426.198-2.213.057-1.013.078-2.135.165-3.27l-.118.479c-.055-.899-.062-1.784-.025-2.793.033-.883.023-1.755.014-2.625-.011-.969-.043-1.921-.08-2.944-.024-.528-.166-1.04-.229-1.568-.315-2.757-.784-5.473-1.707-7.854-.28-.717-.685-1.437-.894-2.115-.149-.501-.288-1.143-.442-1.688-.075-.25-.22-.521-.191-.904.027-.422.234-.799.037-1.217.074.019.093.107.132.167l.199-.668.127.134c.038-.147.115-.384.271-.194.035-.219.153-.394.056-.682.187.046.305.005.524.074 1.416 1.206 1.808 3.1 2.5 4.735.401.957.619 2.11.961 3.198.391 1.237.698 2.874.894 4.294.114.84.247 1.722.293 2.562l.139 2.109c.062 1.271-.2 2.622-.185 3.948.009.899.007 1.74-.029 2.498l-.037-.125c.079.442-.198.772-.125 1.423.179-.299.07.115.025.328l-.223-.013c-.199 1.011-.059 2.361-.39 3.229l.078.168-.045-.004.003-.04-.047.037c-.125 1.41-.188 3.062-.446 4.499l.038-.562c.105-.749.162-1.772.273-2.648zm-1.346-5.318c-.019-.191.087-.48-.01-.608.019.191-.086.48.01.608zM337.297 172.908c-.122-.033-.09.157.03.12l-.03-.12zm-1.303.919c-.348-.066-.468.135-.763.121.075-.266.439-.17.573-.538-.2.036-.325.212-.399.28l-.543.098.021-.061-.196-.199c.028-.141.106-.21.145-.325l-.115-.041c.016-.203.247-.128.258-.358l-.056-.287c.038-.164.246-.119.352-.24.133-.15.227-.356.337-.555l-.122.045c-.014-.199-.029-.357-.012-.525.017-.148-.03-.296-.081-.432-.055-.151-.137-.29-.226-.435-.046-.074-.211-.105-.288-.163-.418-.305-.882-.55-1.634-.671-.227-.037-.56-.035-.706-.126-.107-.063-.183-.186-.277-.279-.044-.045-.149-.075-.085-.194.068-.144.299-.344.171-.41l.1.012c.042-.086.228-.152.294-.231l.093-.005c.062-.047.174-.127.285-.128.07-.062.21-.14.171-.181l.471-.138c1.086-.11 1.183.137 1.69.21.293.038.431.176.718.247.325.077.625.261.869.474.145.122.316.266.423.44.086.144.219.326.299.484.166.342.033.816.095 1.33.041.355.022.737-.071 1.073l-.027-.065-.268.589c.206-.059.048.08-.026.15l-.197-.104c-.308.311-.475.861-.888.873l.021.104-.03-.032.01-.01-.04-.023c-.361.298-.734.591-1.131.611l.124-.064c.192-.045.422-.203.661-.321zm-.381-2.12c-.011-.044.09-.069.002-.128.014.046-.085.066-.002.128zM331.955 174.968c-.116-.034-.004.037.079.046l-.079-.046zm-.455.256c-.271.004-.188.107-.363.162l-.056-.319c-.107.038-.059.134-.046.179-.116.023-.127.118-.229.173l-.038-.03-.271-.02-.18-.19-.098.021-.116-.261-.24-.139c-.09-.11.098-.144.116-.232.025-.113.011-.256.077-.371l-.104.021c-.064-.134-.08-.253-.046-.369l.042-.325.034-.383-.101-.277c-.074-.458-.145-.899-.383-1.609-.067-.216-.205-.521-.186-.69l.082-.294c.007-.039-.029-.124.079-.084.122.044.36.212.329.105l.049.079.309.192.052.075c.064.039.179.112.236.203.08.043.206.14.215.098l.339.354c.658.853.45 1.029.679 1.438l.251.545c.146.246.225.46.279.624l.094.289.04.203-.212.242.008.223-.037-.025-.085.094.031.039-.21-.074c-.157.041.025.225-.257.219l.08.04-.042-.013.001-.004-.044-.01c-.068.114-.044.28-.24.373l.014-.052.148-.22zm-1.441-1.036l-.017-.081.017.081zM342.478 165.451c-.015.122.068.009.052-.079l-.052.079zm.555.515c.041.286.187.219.272.413-.171.147-.229-.151-.449-.001.064.118.191.082.255.078.038.124.167.153.239.268l-.041.033-.035.27-.242.154.022.102-.307.087-.153.232c-.117.081-.159-.103-.26-.12-.129-.023-.281-.004-.418-.056l.041.101c-.134.082-.251.117-.375.108-.109-.009-.222.018-.331.043l-.363.102-.19.218c-.317.278-.594.604-.717 1.254l-.08.604-.081.155-.052.012c-.085-.1-.208-.363-.237-.256l-.001-.093-.173-.32-.006-.092c-.036-.065-.099-.187-.103-.294-.049-.078-.109-.225-.14-.191l-.114-.478c-.125-1.067.117-1.123.275-1.589.09-.272.249-.361.386-.609.157-.28.407-.491.64-.639.137-.083.286-.193.43-.228l.367-.119c.228-.058.434.193.66.155.154-.021.303-.038.426-.018l-.028.039c.091-.087.096.179.222.09-.017-.168.035-.073.062-.032l-.048.218c.125.169.388-.003.447.295l.048-.079-.012.043-.006-.002-.006.045c.2.082.454.104.603.327l-.078-.026-.349-.204zm-1.126 1.458l-.085.029.085-.029zM335.961 184.807c-.098.075.06.098.104.007l-.104-.007zm.208 1.185c-.137.314.053.46.03.768-.273-.112-.149-.47-.472-.654-.006.2.15.356.219.443-.034.172.088.39.1.606l-.063-.028-.193.212c-.148-.048-.229-.152-.355-.218l-.033.135-.394-.396-.31-.023c-.181-.116-.12-.357-.222-.537-.134-.229-.312-.466-.433-.737l-.02.153c-.205-.155-.366-.329-.5-.555-.116-.197-.261-.376-.405-.554l-.489-.601c-.088-.108-.282-.148-.398-.24-.604-.474-1.23-.928-2.093-1.132-.26-.061-.616-.062-.79-.161-.126-.071-.232-.203-.361-.307-.058-.047-.172-.066-.14-.209.037-.16.226-.396.078-.444l.104-.006.208-.329.098-.015c.042-.07.122-.189.241-.2.044-.093.154-.211.092-.264l.436-.229c1.101-.255 1.363.146 1.963.299.349.087.569.313.916.442.391.146.777.417 1.087.668.182.149.389.297.533.469l.395.415.435.957c.153.188.292.367.393.543l-.055-.008c.146.054-.039.257.142.356.104-.147.083-.01.08.057l-.197.104c.004.305.371.519.239.853l.099-.002-.039.021-.005-.01-.035.029c.15.348.392.724.419 1.145l-.066-.136-.239-.68zm-2.136-.449c-.049-.029-.008-.138-.114-.117.049.029.009.137.114.117zM351.81 178.486c-.092.126.13.527.146.231l-.146-.231zm-.668 6.147c-.513.633-1.234 1.254-2.067 1.528-.825.287-1.635.28-2.352.103.616-.021 1.354.051 2.271-.262.926-.289 1.812-1.217 2.035-2.153-.244.488-.602 1.06-1.1 1.476-.487.427-1.034.646-1.38.743-.975.165-2.326-.054-3.189-.462.023-.095.176.043.259.039.005-.196-.378-.231-.393-.415.506.067 1.095.217 1.667.202l-.485-.175c.366-.013.78.055 1.241.041.452-.006.974-.132 1.33-.448.247-.223.302-.499.444-.708.467-.727.773-1.543.79-2.458.003-1.169-.294-2.404-.648-3.624l.066.545c-.369-.932-.762-1.825-1.243-2.828-.426-.877-.943-1.692-1.533-2.439-.671-.812-1.402-1.601-2.433-1.926-.532-.183-1.094-.146-1.641-.14-2.9.1-5.61 1.687-7.32 3.618-.519.592-.916 1.314-1.325 1.854-.308.396-.693.87-.94 1.303-.114.201-.179.454-.414.664-.261.23-.638.377-.652.739-.055-.043-.033-.11-.039-.169-.125.158-.334.164-.467.347l-.059-.145c-.098.083-.263.23-.326.025-.126.177-.294.17-.311.542-.157-.118-.282-.12-.462-.275-.436-.812-.314-1.91.068-2.858.385-.966.999-1.839 1.581-2.682.679-.992 1.737-1.865 2.751-2.723 1.149-.985 2.894-1.971 4.622-2.489 1.015-.312 2.162-.558 3.35-.517.954.019 2.192.23 3.1.65l.176.083.088.043.044.021.165.096.262.166c.294.201.474.352.664.523.374.341.685.695.964 1.054.557.717.997 1.444 1.443 2.142.605.948 1.072 1.87 1.42 2.741-.052.012-.069-.071-.098-.124.296.468.201.951.545 1.684.04-.416.116.109.155.38l-.214.06c.213 1.236.728 2.938.325 4.271l.062.254-.044-.005.007-.062-.051.056c-.07.529-.2 1.13-.502 1.775-.299.642-.856 1.35-1.616 1.779-.755.436-1.558.553-2.21.535-.662-.017-1.218-.153-1.702-.322.258.067.526.125.809.17.566.102 1.325.184 2.242-.084.921-.242 1.838-1.009 2.27-1.759zm-1.604-6.659c-.091-.193-.115-.534-.259-.628.099.189.121.528.259.628zM340.148 173.768c.058.111.175-.044.066-.105l-.066.105zm1.973.299c.336.334.749.347 1.095.72-.406-.015-.775-.433-1.333-.306.27.125.623.157.804.207.187.173.562.36.769.621l-.096-.013-.026.309-.54-.085.082.147c-.255.05-.424-.235-.702-.123l-.254.209c-.223.062-.409-.122-.65-.11-.304.013-.612.122-.926.185l.153.051c-.215.169-.421.29-.667.403-.218.096-.41.235-.6.37-.21.155-.408.317-.617.497-.108.091-.146.287-.234.407-.459.632-.86 1.294-1.043 2.196-.055.272-.053.643-.165.839-.083.145-.229.272-.348.413-.053.064-.081.188-.241.168-.172-.026-.436-.197-.523-.027l.012-.113c-.113-.012-.244-.159-.35-.2l-.01-.099c-.069-.044-.188-.128-.191-.248-.093-.046-.208-.16-.265-.098l-.212-.445c-.198-1.119.18-1.373.304-1.99.066-.354.276-.586.385-.944.122-.406.379-.821.635-1.163.151-.202.307-.431.496-.597l.476-.45c.308-.264.8-.271 1.18-.522.265-.169.531-.319.809-.418l-.03.058c.129-.152.327.053.549-.121-.162-.123.024-.087.116-.077l.053.217c.413.035.989-.268 1.417.019l.08-.086-.002.044-.019-.001.017.046c.648.033 1.564.238 2.072.79l-.236-.144c-.302-.244-.807-.409-1.224-.536zm-1.801 1.767c-.043.042-.149-.021-.151.09.042-.046.146.019.151-.09zM342.829 177.823c.084.091.104-.073.006-.108l-.006.108zm1.305-.372c.354.095.518-.124.888-.147-.149.303-.555.226-.758.588.224-.023.398-.208.501-.292.196.01.454-.149.738-.195l-.045.072.245.177c-.079.164-.209.26-.289.4l.155.018c-.079.241-.379.195-.458.46l-.024.322c-.125.204-.396.172-.593.303-.253.167-.51.386-.81.546h.17c-.17.231-.362.42-.613.587-.219.146-.417.317-.619.484l-.682.569c-.123.102-.181.305-.289.433-.57.671-1.136 1.339-1.542 2.26-.123.277-.211.66-.382.851-.126.14-.32.255-.478.383-.071.059-.134.18-.296.138-.18-.049-.423-.259-.539-.104l.033-.111c-.115-.026-.208-.201-.315-.254l.011-.101c-.065-.053-.174-.153-.152-.274-.089-.059-.188-.188-.262-.134l-.131-.476c.029-1.152.506-1.361.758-1.967.14-.35.4-.557.567-.905.189-.396.498-.783.775-1.103.164-.188.325-.404.51-.559l.444-.421 1.016-.515c.199-.176.389-.336.576-.458l-.008.057c.056-.155.277.013.383-.184-.163-.089-.013-.083.059-.088l.117.189c.33-.042.556-.447.928-.356l-.003-.103.022.038-.011.007.034.032c.388-.201.798-.512 1.337-.61l-.176.093c-.254.077-.53.253-.792.35zm-.47 2.264c-.032.055-.152.025-.13.133.033-.055.154-.027.13-.133zM342.704 183.464c-.106.065.055.146.107.043l-.107-.043zm.139 1.608c-.16.366.027.618-.014 1.015-.276-.233-.127-.663-.451-1.009-.018.261.135.516.201.651-.046.215.069.54.068.83l-.064-.059-.212.219c-.151-.11-.229-.273-.356-.4l-.042.167c-.23-.15-.136-.478-.387-.651l-.319-.131c-.182-.213-.105-.513-.201-.783-.125-.347-.296-.719-.406-1.117l-.029.194c-.205-.274-.361-.56-.486-.903-.109-.302-.25-.588-.387-.874l-.47-.969c-.085-.174-.283-.302-.397-.466-.598-.857-1.21-1.698-2.102-2.357-.27-.199-.647-.37-.825-.589-.129-.161-.229-.389-.347-.574-.054-.086-.172-.164-.118-.331.06-.188.288-.403.141-.532l.108.038.262-.326.104.024c.054-.07.153-.187.279-.146.058-.1.189-.2.131-.296l.485-.097c1.184.166 1.402.816 2.011 1.257.354.256.552.628.897.928.392.341.762.832 1.06 1.265.175.258.376.521.51.792l.372.669.373 1.375c.146.294.276.571.368.831l-.056-.028c.148.119-.06.319.121.507.117-.156.086.015.079.1l-.212.068c-.017.397.351.794.192 1.187l.104.029-.043.014-.004-.015-.038.027c.134.501.361 1.07.365 1.629l-.062-.198c-.03-.284-.155-.641-.203-.965zm-2.193-1.296c-.05-.057 0-.186-.112-.195.05.057.001.185.112.195z"/>
    </g>
</svg>
