<?xml version="1.0" standalone="yes"?>
<?xml-stylesheet type="text/css" href="/d0/css/zhao-wo.css" ?>
<svg id="svg--contact" class="svg-container" viewBox="0 0 500 500" xmlns="http://www.w3.org/2000/svg">
    <g transform="scale(.05)">
        <path d="M1920 7274q4 19 1 75l-4 87q-4-19-1-74l4-88zm150 419h-1q-8 16-6 58 1 20 4 20t6-23h-1q-4 0-1-27 3-28-1-28zm-442-6872l-1 97-8 78q-5-24-10-24-7 0-13 59l-4-23-6-20-9 85q-7 46-7 82l-11-55q11 76 10 175l-1 167q2 67 13 142l18 117 115 773 45 306q57 449 88 1049 19 373 40 1102l9 211 8 210 11 788-1 702-11 745q5-11 7-65 1-53 6-64-29 597-54 874l-36 303q-28 198-36 287-3 29-1 80l-1 84-11 112-58-26q-103-46-216-152l-89-88-80-81q2 9 34 44 32 34 34 43l-127-133-120-129q0 10 28 49 27 38 24 47-28-40-35-40-1 0-2 1 130 166 209 252 110 120 219 202 52 33 88 50l147 73 23-159 59-410q-13 179-52 411l-29 172-151-80q-96-51-192-134l-146-135q161 191 331 282l167 90 34-193q37-211 61-311l-49 313-34 207-184-95q-98-51-202-142-64-56-145-147l-103-119q105 133 189 216 125 127 258 196l191 99 35-214q46-281 88-661l4-10-1 11 1 7 3-7-3-44q28-142 47-421 19-312 31-448l17 1q13-118 9-118-2 0-8 31 0-89 10-211l9-149 1 12q8-259 6-662-1-157 7-526l3-513-10-550-17-670q-23-713-65-1137l-42-443q-26-255-54-422l-123-695q-77-416-137-659-9-18-22-29l-20-23z" />
        <filter filterUnits="userSpaceOnUse" x="1155" y="821" width="964" height="8550"/>
    </g>
    <g transform="scale(.05)">
        <path d="M1886 4497l-56 6h-68l57-4 67-2zm-381 146q-34 0 1 10 0-2 5-2 6 0 18 3l23-1q-13-9-47-9zm1706-1371q-62 0-118 21-76 28-142 99-43 46-100 131-61 90-149 266l-135 262q-78 138-147 219-100 116-214 152-124 43-284 60l-275 9 50 7 49 6q-365-14-654-139-102-44-205-114-74-52-175-137l-50-38-51-41q-71-70-126-181l-44-100-35-94q-3 8 8 43l10 42q-45-103-73-279-7 7-6 46 0 39-7 44-1-44-8-44h-1q8 134 54 264 33 97 96 212 49 71 119 147 76 80 170 155-153-97-263-254-74-108-148-278 41 149 138 288 68 97 186 221-124-106-214-239-87-130-130-273-23-74-33-128 20 130 75 253 53 118 144 232 155 190 401 322l6 8-8-5-6-1 4 5 36 10q126 83 324 134 142 38 363 66l-2 18 80 9h11q21 0-18-8l177 1 128-9-12 4 133-23 142-42 83-38q42-23 76-50 64-48 125-119 60-71 135-186l108-182 182-328q49-84 94-134 23-27 48-44 19-15 38-20l50-3 35 7 36 13-6-3h1l2 1q72 34 122 108 42 62 69 154 26 88 34 188 16 185-27 373-37 162-118 259-42 52-90 70l-100 4-48-18-13-8-2-1 2 2-8-5-20-16q-36-33-60-89-42-102-29-242 13-133 64-245 29-62 69-108 51-56 113-76l29-21 12-8 14-8-14-2-16-1-75 4q-48 7-81 22l20-19q1-4-3-4-2 0-5 1-22 2-55 21l20-18 17-15q-57 27-84 43-39 22-69 53l20-26 14-22q-63 73-109 140-53 78-79 139-41 103-39 248 2 144 50 257 31 72 78 126 21 26 53 53l33 25 25 15q83 48 172 59 24 3 47 3 79 0 152-32 79-36 144-104 48-52 88-123 52-90 87-208 30-101 44-214 27-228-13-435-25-120-68-213-53-114-130-190-39-39-91-72l-39-21-3-2-4-2h-1l-6-3-55-20q-59-18-116-19z" />
        <filter filterUnits="userSpaceOnUse" x="304" y="3271" width="3444" height="1658"/>
    </g>
    <g transform="scale(.05)">
        <path d="M4559 7569q9 17 22 70l21 84q-9-17-22-70l-21-84zm266 343q-1 0-1 1-2 17 14 53 7 17 9 17 3 0-1-22h-1q-4 0-10-24-5-24-10-24zm-226-7449l-472 1195-63 162q-22 64-37 138l-22 117q-54 283-75 485-14 131-18 306l-1 312q2 522 43 1052 44 542 126 1084l37 205 37 204q58 360 142 763 47 228 149 675 100 430 189 708 1-11-14-62t-12-63q100 391 261 818l107 280q60 151 118 257l42 66 47 67 138 234q84 142 140 212 0-8-26-46-24-37-24-46 140 199 209 276 1-10-24-50-24-39-20-48l18 27 15 14q-108-162-166-259-79-132-126-231-134-227-212-429l187 373q100 191 181 300l-169-310q-81-159-128-293 64 148 155 317 62 118 163 285l79 121q-157-250-288-505-134-261-237-524-4-11 0-11l3 10q4 6 5 6t-1-8l-22-35-58-181-68-203q-84-248-121-412l17-5-20-89q-4-18-6-18t1 28q-29-87-50-197l-31-144 6 14-148-626q-46-203-96-502l-80-492q-57-334-83-529-60-455-79-646-30-280-46-564-14-229-24-536-5-186 5-431l22-410q11-208 52-482 18-122 63-385l-11-99 27 4-16 95q18 154 44 275 9 17 21 30l18 23q-1-49 6-95l12-75q4 26 8 26 7 0 17-58l3 23q1 19 4 20 3-35 15-81l14-79 2 31 5 23q-4-66 5-162l136-1240z" />
        <filter filterUnits="userSpaceOnUse" x="3911" y="462" width="1709" height="9399"/>
    </g>
    <g transform="scale(.05)">
        <path d="M5193 2222l-2 2q1 0 2-2zm-6-2q-1 0-3 2-5 6 2 7l5-5h-1q-1 0-1-2 0-1-2-1zm-155 86l8 2 5 7q-1 1-3 1-3 0-5-4l-5-6zm-241-295q-51 0-93 15l-51 15q-30 8-47 19-50 27-72 45-38 33-41 90l8 39q2-1 4-1 6 0 15 14l9 24v7l15 25-1 8q1-2 3-2 3 0 6 6l11 17 7 2 5-4 25-12 19-20 22-24q55-46 147-46 21 0 44 2l21-1 20 1q41 15 67 29 38 20 56 34l60 38q3-4-2-7-4-3-2-7l57 63 13 27q6 17 15 23l12 2 14 2q12 5 19 22l17 23 2-7q-3-4 1-7l14 15 16 15 7-9q2-6 9-9l1 4h4l-7-36-6-32-15-22-12-29q18 12 29 41 12 30 23 38l-10-44q-9-25-6-43l18 41 15 40 6 17q-3-33-21-72l-37-64 2-3 1 1 3-2h-9q1-21-21-48l-33-43 13-12-5-11q-1-1-2-1-2 0-3 7-11-5-17-20-4-10-10-13l2-2-66-47-49-39q-30-27-51-35l-63-20-80-13q-23-3-45-3z" />
        <filter filterUnits="userSpaceOnUse" x="4487" y="2010" width="795" height="483"/>
    </g>
    <g transform="scale(.05)">
        <path d="M3620 3085l-49 5-58-4h49l58-1zm-395 65q-6 0 10 14 0-1 2-1 5 0 19 9t18 9q2 0 2-1-9-13-38-26-10-4-13-4zm-407-1306q-11 0-38 21-29 21-37 21h-1l20-19q13-12 9-15-51 43-87 99-39 62-54 129-22 93-2 224 17 70 59 156 34 70 96 170-102-124-147-276-48-155-18-303-26 80-21 167 4 69 26 142 23 80 92 232-80-139-112-256-21-78-21-150-1-77 22-149 20-69 61-129-43 59-65 125-21 66-23 139-3 119 49 252 42 103 107 201 57 87 125 166 5 7 2 8l-5-5-4-3 2 5 25 18q68 100 203 212 63 52 131 98l72 45q46 26 83 42l-7 16 38 15 21 5 38 8 17 2q0-2-23-10l174 11 116-11-5 3q114-21 232-74 100-45 213-111 170-100 287-153 138-60 250-77l32-4h1l2-1 20-2 39 3q43 10 80 44 49 43 88 116 38 70 57 159 34 152 5 305-15 79-44 145l-4 9-1 3v1l-2 3-6 13-17 29-40 56q-82 103-183 152-50 25-86 25-34 0-59-24l-13-14-8-13-1-1-1-2v-1l-1-1-1-2-18-37q-13-39-13-93 0-79 37-210 16-55 70-208 45-129 63-203l-7-27-8-23q-15 27-37 49l-36 36q7-20 0-20-8 0-33 25l6-14 3-14-41 40q-24 20-39 39l9-19 3-16q-21 44-62 99l-68 93q-38 63-70 179-31 113-33 203-2 64 9 119l17 61 12 29 6 15 6 10-1-2v-1l2 5q44 84 110 132 41 30 93 46l96 14q74-1 153-35 55-24 112-64 76-53 144-128 72-77 117-155 44-81 72-182 25-96 31-187 13-196-46-372-30-94-79-172-56-89-126-144-56-46-129-68-56-16-122-16h-21q-128 9-254 58-93 35-224 110l-194 114q-114 65-200 102-126 53-236 68l-116 6-58-4-59-13q8 11 42 16 36 6 41 11l-75-17q-35-13-68-32l-122-79q-109-80-207-182-63-64-125-153l-104-156-32-42-33-46q-46-84-49-186-4-92 33-189-8 3-20 36l-16 38q12-68 51-130 33-51 87-103h-1z" />
        <filter filterUnits="userSpaceOnUse" x="2577" y="1844" width="2705" height="2296"/>
    </g>
    <g transform="scale(.05)">
        <path d="M2941 7474l-7 5q-9 1-8 5l18-1q11-7-3-9zm-52 187q-4 6-20 9l-27 5q5-6 21-8l26-6zm642-271q-75 7-183 29l-179 37-4-3 3-1q3-3-1-3l-11 10h-12q-41 0-115 16l-132 27-4-17q-49 3-25 9l-63 13-42 7 1-3-194 53-156 36-153 35-159 53q-54 17-193 72-203 79-319 141l-122 60q-77 36-116 60-60 38-190 106-110 66-164 141-4 18-2 42l30-5 25 4q-17 17 18 20l-6 6q-5 2-4 6l29 5 27 5-13 12q18-11 45-11h5l52 2 41-10 32-16 134-56 80-47 81-53q207-125 596-273l60-26q37-17 59-24l228-69 204-57q107-27 217-65l-20 1q-8 2-13 2t-7-2l257-61 91-15q55-8 86-20l21-14q14-13 22-17 25-13 81-25 55-11 76-22-1-2-5-2t-10 2l-17-1 52-19 50-20q-4-6-19-6-14-1-18-8l11-2 5-5-97 13-82 10-66 17-82 14q46-18 127-33 78-14 108-28l-111 14-103 6 110-20 104-18 45-9z" />
        <filter filterUnits="userSpaceOnUse" x="995" y="7390" width="2604" height="973"/>
    </g>
    <g transform="scale(.05)">
        <path d="M3290 6342l28 1 33 7-29-1-32-7zm-154 129q-16 0-1 9 1-2 4-2t9 3l11-1q-5-8-22-8zm2374-891l-28 23-28 11q7-15-4-15-7 0-22 7l4-9 2-7-31 10-29 10 6-9 2-9q-15 23-46 37l-54 25q-20 10-38 29l-29 28-126 109-77 74-82 77q-137 117-323 204-177 84-383 134l-76 21-77 17-293 23-263-11-278-36q3 6 23 9l23 9q-203-47-319-89-37-13-105-47-66-33-100-45l-31-5-34-4q-37-10-97-45l-89-48 16 14q16 9 16 14l-63-31-62-32q-1 7 12 21 13 13 10 21l-11-7q-4-4-6-4-1 0-2 2l102 76 89 62 79 38 97 50q-69-21-157-71-102-59-128-70 44 36 122 83 79 48 112 74-165-85-247-144l-51-33q150 123 425 236l2 5-4-2h-1q-1 0-2 1l2 3 19-1q50 35 155 67l89 25 83 25-4 17q35 13 41 13 5 0-7-8 35 3 83 19l63 13-10 2 265 24 211 10 207-6 219-38q106-22 259-75 108-37 215-90 111-54 191-109l145-99q80-57 128-105l98-95 94-101q99-120 123-231l-7-22-8-19z" />
        <filter filterUnits="userSpaceOnUse" x="2414" y="5579" width="3110" height="992"/>
    </g>
    <g transform="scale(.05)">
        <path d="M5436 8474l-10 1 4 5q-1 5 3 5h1q7-3 2-11zm161 56l5 14-1 16q-5-3-4-13v-17zm-62-449q-7 1-10 10l-11 10v-6l-4-4-6 60-8 50q7 66 1 92-9-29-6-80 2-48-6-68-4 17-9 68-3 39-15 62l3-68 3-64v-28q-8 45-9 113v111l-4 2v-2h-3l7 8q-12 24-11 76l-3 81h-18l-4 18q0 4 2 4t6-6q5 16-2 38-5 16-3 26l-2-1 5 118q2 33-6 94-9 63-8 91l5 98 8 119q9 140 19 204l7 81q2 54 6 78l7 132q4 82 37 141l34 22q2-9 11-15l16-9q3 7 10 7 6 0 16-5l1 5 3 5q5-5 19-11l18-11 1 6 3 6q0-15 16-30l27-26 12-26 3-24 13-96-7-62-14-65q-16-86-27-208l-18-208q-13-53-13-79l-5-146-4-129q0-65-13-137-5 2-4 12l-4 11-4-160 5-56q3-34-2-54l-9-14-12-15q-8-17-8-51 0-35-7-49-4 2-3 10 1 9-4 10-9-46-18-66z" />
        <filter filterUnits="userSpaceOnUse" x="5414" y="8081" width="292" height="1680"/>
    </g>
    <g transform="scale(.05)">
        <path d="M6568 5994l-9 9-13 6q1-6 9-9l13-6zm11 178q-3 0-5 4-4 7 5 8-3-5 2-5 5-1 2-5-2-2-4-2zm674-868q-3 12-19 15l-29 4-16 12-8 14-41 55-19 44-18 50q-33 71-96 143-49 56-129 126l-25 25-26 24-107 71-98 59q-61 34-102 68l12-2 11-1q-27 12-65 33l-61 34-46 18q-28 10-42 23l-6 14-7 17-36 27q-27 14-34 26l9-1 9-1-21 21-20 22 13 5h2q6 0 10 6l-4 2q-3 1-1 5l48-19q28-11 41-13 49-32 71-37l-59 37q-37 17-49 32l56-19q27-11 48-11h6l-53 24-50 22-21 12q36-11 89-37l86-43 4 2-2 1 2 3 3-9h2q24 0 63-21 49-26 66-30l8 16 16-3q7-3-5-6 11-11 32-14 18-4 24-10l-2 4 94-56q24-16 80-38l77-38 76-57 89-75q93-85 135-150l47-64 40-64 29-56 28-57q28-67 9-133l-26-30-14 9-17 2q-1-12-22-12v-4l-2-5h-36l1-5-2-6z" />
        <filter filterUnits="userSpaceOnUse" x="6223" y="5304" width="1156" height="986"/>
    </g>
    <g transform="scale(.05)">
        <path d="M7490 6710l-6 2q-1-1-3-1-3 0-3 4 1 5 6 5 2 0 5-1 9-4 1-9zm-144 146l20 2 23 6-20-1-23-7zm-589-388l-32 2-38 5q-69 14-135 52-48 28-102 73-94 83-140 178-34 74-33 142 2 46 17 82 14 36 41 65 35 39 85 63l41 17 42 11q35 8 68 8 47 0 91-16 123-47 186-140 33-46 41-98 9-54-11-97l-35-22-2 7-2 4-7 7-16 11q-3-8-9-8h-2l-15 4q-2-1-1-5l-3-5-18 7-18 5-3-10q-1 13-18 19l-29 7-15 11-10 13-23 20-22 15-28 22q-22 14-42 14h-33l-15 4q-5 0-7-7-2-8-1-18 3-22 19-51 29-51 88-101 63-51 119-66l109-9q86 15 208 66l180 79q106 48 201 52-2-5-16-7l-17-7q62 16 123 16 56 0 111-13 52-11 77-22 41-17 61-45 9-12 10-44l22-61q13-37 6-62-4 1-5 12l-5 12q-5-62-14-84-6 2-9 14l-11 12v-8l-4-4-11 64q-9 29-22 42l-16 29q-14 19-34 25l40-49q21-28 14-55l-26 48q-16 19-36 19h-2l29-28 18-44 3-26q-11 49-32 77t-60 39l-2-2 1-1-1-3-4 9q-8-2-27-2-18 0-47 2h-14q-45 0-73-11l4-17-18-8q-2-1-3-1-4 0 3 9l-21-4-12-5h-3v-1h-1l-2-1-4-3q-17-10-26-12l1-2q-42-15-153-62l-138-70q-90-46-162-62l-103-14-60-1z" />
        <filter filterUnits="userSpaceOnUse" x="6277" y="6467" width="1530" height="699"/>
    </g>
    <g transform="scale(.05)">
        <path d="M6975 8644l-12 32-20 35q0-10 13-32l19-35zm51 250q-11 3-16 21-3 10 0 10 2 0 9-6-5-1 3-12 9-11 4-13zm-141-3055q11 20 13 42l2 35q-6-6-10-6-8 0-8 29l-6-8-8-6 1 38q-3 23 0 38l-7-12-8-7q17 29 22 70l7 73q4 27 17 58l19 47q25 63 70 197l50 123 52 127q149 414 136 947l-1 95-4 95q-21 174-69 348-44 159-107 299l-143 306 18-24q11-22 18-24l-80 134q-45 77-65 131l-40 108-2-116-6-89-18-134q-14-72-39-124l-21-29-24-30-58-109q-34-69-60-99-2 5 9 23l7 22-46-65-48-61q-4 6 4 26 8 19 3 25l-8-12q-4-7-6-7-1 0-2 1l64 124q34 70 45 108 58 111 72 193l-67-167q-38-93-72-137l60 144q29 76 33 133-23-90-111-272l-32-56q64 130 106 232 51 127 66 228 3 5-2 5l-1-5-2-2-2 3 10 15-2 116-8 868 335-805q20-47 46-92 27-47 67-103l15 9 27-38q6-9 3-9-2 0-12 10 16-38 49-87l38-67-3 12q69-134 124-293l83-243 35-122 23-124q12-88 22-262 8-133-3-318-7-134-28-274-22-143-53-255l-54-200q-33-113-65-186l-62-150-68-149q-88-168-184-252l-24-4-22-2z" />
        <filter filterUnits="userSpaceOnUse" x="6431" y="5839" width="1020" height="4005"/>
    </g>
    <g transform="scale(.05)">
        <path d="M8867 6689l-5 3q-2-1-3-1-2 0-3 3 1 5 5 5 2 0 5-1 8-3 1-9zm-136 143l18 2 19 8-18-2-19-8zm-482-440l-60 7q-74 14-139 59-49 33-91 82-72 81-104 176-22 66-17 129 6 46 23 80 18 38 55 66 37 27 82 36l65 5h8q47 0 88-14 46-16 79-48 82-78 103-183 10-51-2-95-11-48-47-75l-40-4-3 16-12 13q-3-3-8-3-7 0-17 7l-3-3q0-2-4-2l-15 10-15 8-6-7q4 10-9 19l-23 13-10 14-2 13-17 38q-2 6-1 22l-2 13 62-36-72 49 10-13-21 12h-2q-15 10-13 16l5 16q3 10-1 14l-7-2q-3-6-3-17 0-19 10-47 20-52 61-97 49-50 94-62 37-11 64-11 16 0 28 4 63 16 168 86l143 99q88 59 170 62-1-5-15-7-12-1-13-7 76 22 153 22 27 0 54-3l71-7q40-7 63-25 10-8 19-37l38-44q24-27 26-48l-8 7-9 7q17-53 16-71h-2q-6 0-12 7-4 5-9 5-2 0-5-1 8-8 1-10-40 64-65 71l-24 23q-20 13-40 14l53-35q29-20 31-42l-40 31q-16 9-31 9-6 0-12-1 34-9 69-50l11-19q-30 36-55 52-29 20-73 26l-2-3 2-1-1-3-5 8-71-9q-56-4-82-16l4-17-10-5-3-1-1-1-2-1h-1q-2 0 0 8h-3q-7 0-18-9l-16-12 2-1q-50-26-111-67l-106-87q-82-64-147-87-48-19-108-26l-65-2z" />
        <filter filterUnits="userSpaceOnUse" x="7837" y="6392" width="1360" height="640"/>
    </g>
    <g transform="scale(.05)">
        <path d="M8964 8317q8 6 16 31l13 38q-8-6-16-31l-13-38zm224 116h-1q-4 10 8 25 5 7 7 7 3 0 1-12-1 1-2 1-4 0-6-11-3-10-7-10zm-613-3106l-15 51-16 37q-2-14-7-14-7 0-20 27-2-1-1-11 0-10-4-11l-19 40-16 38-5-27q2 38-11 84l-23 77q-6 31-6 67l2 56 4 223v26l1 2v5l44 264 79 496q48 304 92 511l24 96 24 96q38 184 86 358 39 145 95 314 57 174 128 322l-7-29q-10-23-7-30 52 143 159 374l57 130q33 74 63 118l26 28 29 27q26 32 55 82l1 2 2 3q35 78 75 128l-9-25q-11-18-9-23 52 70 94 154 5-7-1-33t-1-31l7 17q3 10 7 10h1q-16-51-58-128l-44-97v3l-20-44q-76-119-108-198l70 117 58 107 4 6 3 6q16 38 49 82l-37-87-7-14-50-97q-25-53-38-98 36 76 99 188l6 10 2 5 43 88 37 67-42-86-33-71-8-16q-108-191-171-325-2-6 1-6l3 4 3-2-15-14q-14-53-68-177-56-128-73-187l17-6-11-42q-3-8-5-8t-1 14q-19-37-31-89l-18-61 3 2-96-280q-28-88-54-229l-42-227q-35-155-51-244l-53-300-78-515q-12-72-24-203l-22-195-2-10v-5l-1-3-26-310-22-161-34-157-17-19-16-17z" />
        <filter filterUnits="userSpaceOnUse" x="8432" y="5327" width="1130" height="4066"/>
    </g>
    <g transform="scale(.05)">
        <path d="M9401 8951l2 3q-2 1 2 3l4-1-8-5zm137 103l2 5-2 3q-4-3-2-5l2-3zm-43-161q-15 5-27 19l-19 25-4-2h1l-3-2 4 6h-2q-12 0-18 12l-15 17-16-10q-10 3 1 6 2 6-7 8-6 2-6 5l-2-2q-7 12-10 32l-16 21q-14 11-15 20l-3 29 2 36q6 41 20 67l11 27q5 15 13 26l25 44q17 26 61 56l35 16 7-1 13 1q8 8 23 8l6 5 29 4 6 5q-2-4 5-4h3l20 1q6 0 5-3l-1-6-2-22-14-19-19-22q-23-30-35-63-8-21-15-58-9-18-7-24l6-34 9-30q7-14 4-35l-4 1h-5l18-34q1-3 11-8 8-4 6-11l-13-19q-4-8 2-14 5-7 2-14h-4l-5-1-3-24-9-4-11-5q5 0-1-5l-15 9-15 6q-3 17-14 20-3-11 8-21 10-9 7-18l-19 10-22 4 28-25 5-6z" />
        <filter filterUnits="userSpaceOnUse" x="9338" y="8893" width="284" height="478"/>
    </g>
    <g transform="scale(.05)">
        <path d="M9249 6257l6 7 2 9-6-6-2-10zm175 8q-7 4-1 9 2 1 4 1 3 0 6-4-1 1-2 1-2 0-2-4l-5-3zm-578-571q-10 0-21 1-23 11-36 17 4 4 1 11l-5 14h-1q-13 0-18 17l-4-1-5 1-7 16q-6 11-6 16l-9-1q9 5 7 20l-5 27q0 10 6 16l12 9 21 21 21 18q12 9 37 16l42 11q105 37 214 130l21 13 19 15 50 69 37 67 38 75q4-2 1-8t2-8l12 49 9 47-2 35q-3 20 2 32l10 10 11 9q8 11 6 33-1 22 5 31l4-6 4-6 6 22 7 22 10-5 13-5-1 4 3 3 11-39 10-34-2-29q-1-20 3-35 10 21 5 56-4 34 2 47l13-47q4-28 15-44l-3 49-7 45-2 20q13-32 15-80l-1-81q0-2 3-2v1l2 1 2-1-8-5q11-20 4-59l-9-61 17-4 1-14q0-3-2-3t-5 6q-8-11-6-29l-3-21 2 1q-14-42-39-83-9-16-27-65-15-41-30-60l-46-53-60-56q-63-52-114-75l-46-25q-27-17-45-23l-77-37q-38-18-84-18z" />
        <filter filterUnits="userSpaceOnUse" x="8735" y="5694" width="698" height="860"/>
    </g>
    <g transform="scale(.05)">
        <path d="M8181 8757q-3 7-17 11-21 6-23 7 3-6 18-10l22-8zm-53 194q-5 0-10 5-9 8 4 8-2-4 6-5l6-6q-3-2-6-2zm1383-1144q-11 16-36 24-29 7-43 13-16 6-29 19l-21 22q-65 58-91 84-19 20-51 62l-51 67q-152 176-449 364l-94 64-190 95-172 78q-93 37-184 84l18-3q8-4 13-4 3 0 5 1l-222 83-79 22q-48 11-74 25l-17 16-18 18q-21 15-69 30t-66 28l15-1 15-1-44 22-42 24 17 5h3q10 0 14 6l-9 3q-6 1-4 5l85-20 73-15q86-35 128-42-39 22-110 42-68 19-93 35l98-22q52-13 86-13h5l-96 28-90 25-39 13q66-13 160-42l156-50 4 2-3 1-1 2 2 2 9-11q38 0 112-26 89-33 116-38l6 16 26-5q12-3-5-6 22-13 55-19l37-10v2l167-72q39-19 135-53 88-31 132-54l134-75 158-101q157-105 250-199l92-84 82-86 64-74 64-76q69-90 82-178l-8-20-8-18-23 14-23 5q4-14-12-14-5 0-11 1l2-6 1-6-25 3-24 3 4-7 1-7z" />
        <filter filterUnits="userSpaceOnUse" x="7535" y="7807" width="2102" height="1286"/>
    </g>
    <g transform="scale(.05)">
        <path d="M7807 7712q3 4-2 6-5 1-2 5 2 2 4 2 3 0 5-5 3-7-5-8zm46 172l-9 10-14 8q1-6 10-10l13-8zm205-331l-67 60-71 59-4-2 1-1v-2l-1-1h-1l-1 10q-22 3-59 30-41 29-60 35l-10-15q-25 6-9 10-10 11-30 15-17 4-23 10l2-5-89 52q-27 16-77 29-58 14-76 22l-79 32-97 36-170 49-69 10-68 4-58-1-60-11q-80-18-141-18-16 7-35 20 6 5 8 17l3 21h-3q-13 0-9 23l-6-2h-6l4 23 4 23-14-3q16 8 27 31l21 40q10 13 27 22l27 12q72 32 111 40l145-8q114-18 215-46 109-30 199-68l35-19 35-18q61-23 130-57l112-58q58-30 109-76l-12 3-12 2q51-27 126-88l45-29q27-17 38-34l3-17 3-18q5-15 28-39 21-22 24-37h-1q-3 0-7 5l-9 4 13-28 10-28-13 1q-3 2-7 2-3 0-7-2l3-4-1-5-37 34-34 25-23 27q-18 18-35 26 13-20 47-50 29-25 35-44l-45 34q-25 19-49 23l81-70 14-17z" />
        <filter filterUnits="userSpaceOnUse" x="6687" y="7553" width="1442" height="677"/>
    </g>
    <g id="liao3">
        <g transform="scale(.05) translate(5435 2409)">
            <path d="M421 2089l5 59 5 46-10-105zm10 105l11 121-2-36-9-85zm11 121l5 73q-1-31-4-66l-1-7zm-1 226l-1 2v4l1-4v-2zm745-2408l-5 66q-1-13-3-13t-3 25l-2-16-7 62-2-21q2 49-6 129l1 100 6 186 13 235q10 226 0 404-12 225-55 416l-42 156q-48 143-122 275-69 121-152 221-83 99-199 205l17-12q-84 73-177 137l-15 11 7-17 25-78q25-107 15-225l-9-61-26-206 1 27-14-122-1 22-2 20-2-21q1 45 9 124l10 104q14 117 11 187-6-163-27-301l13 140 5 125-2-29q4 94-4 155l-2 4v11q-18 74-34 109l-59 136 122-84 168-128 3 3q59-46 58-46t-33 23l101-94-1 1 1-1q94-99 163-200 128-187 190-362 33-92 60-208 28-119 43-258 24-199 18-438l-11-332q-14-368-33-526l-10-20z" />
            <filter filterUnits="userSpaceOnUse" x="348" y="133" width="894" height="2670"/>
        </g>
        <g transform="scale(.05) translate(5435 2409)">
            <path d="M448 509l1 13-1 10q-2-5-3-5-2 0-2 10l-3-5-3 23-3-7 3 23v22l7 33 16 62 29 77q36 97 82 274l50 246 15 98v-18l10 115 1 79 6 21 1 37 1 35 2-14 3 47 3-7 3-7v8l6-80v-66l2 58v49l4-50 3-45-2 96-1 21q6-55 2-163l1-2v2h1l-2-6-1-56-4-60h5l-2-12q-3-11-3-28l-1-18-13-87-21-137-16-71-22-86-43-144-34-109-29-89q-18-53-37-82l-11-5z" />
            <filter filterUnits="userSpaceOnUse" x="434" y="509" width="248" height="1176"/>
        </g>
        <g transform="scale(.05) translate(5435 2409)">
            <path d="M1030 616q-19 2-71 19l-1-1-2 2q-8 0-25 6l-25 9-2-4q-16 0-4 2l-12 5-9 3v-1l-36 17q-41 15-58 25l-63 40-54 45-38 37-29 32q-17 19-21 38l3 10 11-2 5 4-1 3h12l-1 3 19-6 12-9 22-17 23-29q36-43 98-83l20-16 41-22 37-18 40-20-4 1h-4l48-19 34-10 8-8q5-4 15-7l15-6h-7l19-10-4-1-4-2 3-2-35 7-29 9 25-10 21-7-43 6 51-13z" />
            <filter filterUnits="userSpaceOnUse" x="580" y="616" width="465" height="292"/>
        </g>
        <g transform="scale(.05) translate(5435 2409)">
            <path d="M999 861l-1 1-2 2h4l-1-3zm106-16l-42 8h1l-21 4v-1l-2 2-25 4-25 6-1-4q-11 0-5 2l-12 3-10 3 2-2-36 14-30 9-28 9-65 31q-45 26-57 35l-42 29-33 25q-20 15-28 32v11h11l4 5-1 2 11 3-2 3 10-2 10 1 14-6 25-13 28-24q36-30 106-67l21-13 80-32 39-15h-7l48-15 34-7 8-8 15-5 15-5h-7l19-9-3-2-4-2 3-1-35 3-28 7 24-7 21-6-41 3 41-8z" />
            <filter filterUnits="userSpaceOnUse" x="646" y="845" width="481" height="233"/>
        </g>
        <g transform="scale(.05) translate(5435 2409)">
            <path d="M1112 1277l-5 3 6-1-1-2zm189-41l-116 29-1-1h1l-1-1-3 3-41 9-43 11-1-5q-18 3-8 4l-20 5-16 4 3-2-63 21q-68 18-99 30l-52 20q-25 10-61 28-61 27-101 54l-74 47-56 43q-32 26-46 51l1 11 8-4 8-2q-2 4 7 4l-3 4 17-3-3 4q5-5 14-7l16-4 21-12 39-25 48-36q65-47 187-102l38-18 73-26 66-22 69-24-13 2 83-25 57-14 14-10q8-4 26-9l25-8-5 1h-6l33-14-6-1-6-1 5-2-58 12-47 13 41-13 35-11-69 13 83-21z" />
            <filter filterUnits="userSpaceOnUse" x="503" y="1236" width="820" height="364"/>
        </g>
        <g transform="scale(.05) translate(5435 2409)">
            <path d="M1838 455l-11 7-12 3q-5 2-15 12l-26 24-28 36q-31 40-109 116l-21 22-44 37-40 32-41 35 6-1-83 61-6 11-15 13q-11 8-15 13l4-2 3-1-18 18h9l-2 3 37-22 29-22-24 20q-16 11-21 17 29-20 45-25l-52 35 73-49 1 1 1-3q17-6 53-35l3 4 4-5q5-5 13-9l10-7-2 2 38-30 61-45 66-60 57-59 43-47 34-39q20-24 27-46l-3-10-13 4q2-4-1-4-2 0-5 1l2-4-14 2 2-4z" />
            <filter filterUnits="userSpaceOnUse" x="1367" y="455" width="503" height="442"/>
        </g>
        <g transform="scale(.05) translate(5435 2409)">
            <path d="M1583 1623q-14 17-29 34l15-16 14-18zm-29 34l-44 45q22-21 44-45zm-147-814l-9 29q0-4-1-4-2 0-6 9v-8l-11 27v-9l-10 58v45l9 83 21 100q22 98 18 168-5 73-26 178l-13 68-31 126q-15 62-24 114l-1 10 3-2 2 4 50-34 4-26 21-81 23-82 21-89 20-111 9-80v-21q0-40-8-94l-24-142q-10-45-17-114l-12-111-8-11zm207 766l-7 6-8 5 5-8q-39 51-62 71l-57 55 49-49 37-44-80 76 19-20q-30 29-62 54l-1-1-4 6-56 38-9 7-9 53 81-61 75-62 15-22 55-68-12 12 31-48zm-291 228l-9 7-26 18 30 18 5-43zm-5 43l-3 19 16-12-13-7zm51-22l-35 23 12-5q-8 6-15 11l30 18 4-27v4l4-24z" />
            <filter filterUnits="userSpaceOnUse" x="1288" y="843" width="326" height="1062"/>
        </g>
        <g transform="scale(.05) translate(5435 2409)">
            <path d="M1637 947l3 15v12q-2-3-3-3-2 0-2 9l-3-6-1 26-4-8 6 26 2 25 10 39 50 160q49 157 58 324l3 65-9 121-19 106-30 111 3-3-44 111-44 81-8 24-42 73 11-13-28 48 7-5 7-6-4 8 55-76q20-38 39-68l-33 60-30 50 33-48 30-44-60 96-13 19q48-60 100-163l1-1v2l2-7 30-60 27-66 4 1q10-20 9-20t-5 7l10-32 8-26v6l23-104q21-126 22-164v-88l-9-106q-12-100-33-175l-36-130-36-103q-22-60-45-95l-12-5z" />
            <filter filterUnits="userSpaceOnUse" x="1546" y="947" width="263" height="1343"/>
        </g>
        <g transform="scale(.05) translate(5435 2409)">
            <path d="M2385 1436l-1 2 1-2zm-344-890l-132 11-10 10 33 5q-14 3 6 6l-8 2 30 8-10 1 32 3 30 8 47 6 87 18q70 19 104 36 88 43 133 134 44 85 47 203l-1 81q-6 67-25 152l-39 131-31 68-35 62 15-21q-54 85-100 140l-83 82-24 23-27 14-35-3q-15-6-23-24l-11-26 6 23q-11-23-16-74l-2 11-3 11-1-11q0 44 13 73 12 26 35 34l41 3q33-7 93-61-37 41-76 57l-19 5 21-2 65-40 52-50 2-1 3-6 56-64 52-73 4 2q17-22 16-22t-7 7l22-36 17-26 21-44 3-10 3-7 20-66 29-102q15-59 19-103 7-53 5-114 0-68-19-139-19-67-49-114-35-54-79-89-75-61-158-80-71-19-139-22zm41 1201l-16 1 7 1 8-2zm-83-44l15 27q12 14 31 20l21-2-27-3-26-20-14-22z" />
            <filter filterUnits="userSpaceOnUse" x="1899" y="545" width="586" height="1208"/>
        </g>
        <g transform="scale(.05) translate(5435 2409)">
            <path d="M2065 596l-8 27q0-4-1-4-2 0-5 9l-1-7q-8 15-10 26l-1-9-4 28-7 27-4 43 4 182q10 193-11 353l-22 133-15 62-35 110-40 115 9-19-49 135-17 47-13 45q-2 9-1 27l-9 45q-6 28-6 42l5-17-5 57 4-8 4-8v9q10-62 20-93 13-56 21-77l-17 67q-10 37-11 58l15-57 17-50-28 109-4 24q24-111 49-186l2-1v-6l25-62 27-68 4 2q7-16 6-16l-2 2 13-32 10-21v1l35-104 39-129 8-39 16-93 12-112q7-107 4-188l-3-143-2-115q-1-70-9-111l-9-10z" />
            <filter filterUnits="userSpaceOnUse" x="1819" y="596" width="270" height="1457"/>
        </g>
        <g transform="scale(.05) translate(5435 2409)">
            <path d="M2357 2158l-11 10q5-5 11-10zm-1237 454l-312 20 307-19 5-1zm298-2612q-90 0-180 9-249 25-457 122-172 78-310 219-120 123-212 291-65 120-118 271l-82 287q-44 175-52 286-14 167 32 264l14 20 14 15q-21-34-28-70l-9-60 5 15-1-42 5 34q-3-28-1-65l6-63v43q0-63 14-138l32-130 56-208q50-198 140-373 124-252 297-400 83-72 173-119l48-23 49-22 102-37q203-64 438-69h24q216 0 428 51 237 59 429 172 164 96 276 217 116 125 183 278 66 150 79 314 24 291-103 574-62 142-162 279-86 117-190 216l68-64q-137 142-294 238-144 89-326 146-114 35-250 58l-241 33-136 17-233 17-220 15 46-2 45-2-297 29 47-2 43-2-45 5 498-30 418-40-360 37 279-17-311 26-289 16-58 5 183-10 260-16q298-22 506-71l9-1-9 2-6 2 6-1 35-11q179-40 340-123 159-81 314-220l3 3 60-56q22-22 21-22l-27 26 120-136 73-97-2 3q168-249 218-526 42-234-7-457-51-225-194-404-71-91-164-168-92-78-202-140-240-138-542-190-159-28-318-28z" />
            <filter filterUnits="userSpaceOnUse" x="4" y="0" width="2860" height="2644"/>
        </g>
    </g> <!-- /#liao3 -->
    <g id="liao2">
        <g transform="matrix(.058 0 0 .058 389.05 30.75)">
            <path d="M240 1272l3 36 1 6-4-42zm467-1177l-5 39q-1-7-2-7-2 0-4 15l-2-10-7 37-2-12q2 29-6 78l1 60 4 111 13 142q22 280-24 492l-23 93q-31 92-72 166-39 71-91 133-56 67-119 124l12-9 12-9-119 95-16 11 8-18 14-46q16-69 10-135l-8-37-17-123 1 25-11-83-2 14-2 12-2-13 10 139q9 72 7 110-7-124-17-179l7 84 1 74-5-81-7-73 8 98q7 82 0 130l-1 2v-3h-1l1 9-20 61-59 135 122-83 102-78 3 4q20-17 19-17t-4 2l63-58-1 2q54-58 100-124 82-122 117-221 16-45 36-128 16-74 24-157 13-127 6-265l-11-200-11-162q-8-96-20-154l-10-12z" />
            <filter filterUnits="userSpaceOnUse" x="172" y="95" width="589" height="1651"/>
        </g>
        <g transform="matrix(.058 0 0 .058 389.05 30.75)">
            <path d="M425 985l-1 17v12l1-29zm-162-663l-2 15-4-1-1 4-3-3-4 14-3-3 1 14-2 13 5 20 10 38 22 45q28 59 59 162l10 32 13 61 10 55 11 51v-4l7 70v47l6 13 2 22 1 21 1-4q-1-3 1-4l3 29 3-5 3-4v5l5-49v-40l2 35q-1 22 1 30 1-36 5-55l-1 39 1-41q0 1-1 2l1-31 1-1v1h1l-2-3 1-35-3-36h5l-2-7-1-17v-11l-9-53-12-83-11-43-15-52-30-86-25-64-21-53q-13-30-30-47l-10-3z" />
            <filter filterUnits="userSpaceOnUse" x="245" y="322" width="184" height="707"/>
        </g>
        <g transform="matrix(.058 0 0 .058 389.05 30.75)">
            <path d="M616 371l-43 11-1-1v-1l-1 2-15 3-16 5-2-4q-7 0-3 2l-7 2-6 2 1-1-22 11-19 8q-12 3-17 7l-38 27-30 31-21 26-15 23q-9 14-9 30l5 9q1-1 3-1t4 2l5 4v2l9 3-1 2 6-2h7l7-5 12-11 11-21q15-26 54-58l11-10 46-26 23-14h-4q15-5 29-11l20-6 4-7 9-5 9-4-5-1 11-8-5-4 2-1-22 3-17 5q5-4 14-6l13-5-27 2 26-6 5-2z" />
            <filter filterUnits="userSpaceOnUse" x="352" y="371" width="275" height="203"/>
        </g>
        <g transform="matrix(.058 0 0 .058 389.05 30.75)">
            <path d="M668 508l-14 2 8-1 6-1zm-14 2l-17 3 16-3zm-31 3l-1 2-15 1-16 4-1-4q-6 0-3 2l-7 2-6 1 1-1-22 8-18 6-18 5-17 9-21 13q-22 14-33 25l-23 21-19 19q-11 11-14 26l2 10 7 2q-2 5 4 5l-1 3 8 4-1 2 13 2q4 0 8-4l15-8 15-19q20-24 60-49l12-10 71-31-5-1 29-9 10-1 10-3 5-7q3-3 9-4l8-3-4-1 12-7-5-5 1-1-21 1-17 4 15-4 12-5h-26l-12 2-1-1v-1z" />
            <filter filterUnits="userSpaceOnUse" x="391" y="508" width="287" height="172"/>
        </g>
        <g transform="matrix(.058 0 0 .058 389.05 30.75)">
            <path d="M771 750l-22 4-18 1-22 5v-2l-2 3-25 4-26 6-1-4q-10 0-5 2l-12 3-10 3 2-2-38 13-30 9q-20 5-30 9l-68 31q-38 21-59 38l-43 32-33 29q-18 18-23 38l3 10 11-2q-3 4 5 4l-1 3 11 1-1 3q3-4 9-4h9l13-8 22-15 27-26q38-35 107-69l22-13 83-31 42-15h-8l50-15 18-3 16-5 8-8 15-6 15-6h-7l19-10-7-4 3-1-35 6-29 8 25-8 20-8z" />
            <filter filterUnits="userSpaceOnUse" x="306" y="750" width="488" height="241"/>
        </g>
        <g transform="matrix(.058 0 0 .058 389.05 30.75)">
            <path d="M1096 276l-7 3-8 1-9 7-15 15-14 25-60 77-12 15q-12 12-25 23l-24 20-23 22 2 1-27 21-11 7-10 8-3 8-9 9-8 8 3-1h2l-10 12 3 1 4 1-2 2 23-12q9-9 18-13l-14 12-13 11q18-12 29-14l-27 17-5 4 45-29 1 1v-2l17-9 16-11 3 4 2-3 8-5 6-4 21-18 38-26 38-38 31-40 24-32 18-27 11-33-4-9-9 1q1-4-5-4v-2l-10-2 1-2z" />
            <filter filterUnits="userSpaceOnUse" x="828" y="276" width="295" height="290"/>
        </g>
        <g transform="matrix(.058 0 0 .058 389.05 30.75)">
            <path d="M941 982q-9 11-19 21l11-11 8-10zm-19 21l-26 26q13-12 26-26zm-83-482l-7 17-3-3-3 5-2-5-9 17-1-6-2 19-6 18v28l6 50 18 60q16 57 16 99 0 41-11 107l-35 174 26-19 31-21 6-21 14-48 12-55 11-68 3-63-7-58-19-85-14-67-15-68-9-7zm118 457l-37 40-34 32 28-28 22-26-24 23-25 19 9-9q-17 16-34 29h-1v-2l-2 4-2 1-7 28-3 24 25-20 45-37 7-14 32-42-8 7 17-29q-2 0-5 3l-6 2 3-5zm-157 123l-10 5-2-4-7 6-16 10 30 18 5-35zm-8 55l-1 1h1v-1zm55-43l-42 29-10-6-2 15v1l-1 3 1 1 15-12 30 18 3-15v2l6-36z" />
            <filter filterUnits="userSpaceOnUse" x="765" y="521" width="200" height="641"/>
        </g>
        <g transform="matrix(.058 0 0 .058 389.05 30.75)">
            <path d="M978 586v17q-1-1-2-1-2 0-4 5l-2-3-3 16-3-4q5 11 2 31l5 23 13 42 23 52q34 83 44 192l4 39-5 73-10 64-17 67 5-6-29 71-26 49-3 16-12 23-12 21 7-7-16 30 5-2 5-3-2 5 35-46 24-41-20 37-18 30 41-55-38 59-8 12q33-39 62-100l2-1v-3l20-36 16-41 5 2 2-8 6-20 5-13h1l13-63 15-102-2-54-7-65q-8-59-24-106l-27-77-25-62q-15-35-35-55l-10-2z" />
            <filter filterUnits="userSpaceOnUse" x="937" y="586" width="171" height="810"/>
        </g>
        <g transform="matrix(.058 0 0 .058 389.05 30.75)">
            <path d="M1205 1031l3 8q-2-5-3-8zm109-682l-165 5-6 10 20 5q-7 1 3 6l-4 2 17 7-6 2 19 2 17 6 27 4 50 9 61 16q51 21 80 72 28 47 31 119l2 49-15 91-22 79-39 79 4-2-54 74-50 50-14 16-17 9-24-2q-11-5-17-17l-7-17q-1 2 0 8l-5-16-4-23-2 7-3 7-1-7q0 29 8 48 11 20 27 26l32 3q22-6 61-40-20 25-49 38l-17 4 19-1 44-25 32-32h2l-1 1h1l2-5 35-39 32-44 4 2q9-11 7-11l-2 2 14-23 11-18-1 4 10-19 8-20v-2l12-41 18-63 12-63 3-71q-2-43-14-87-12-41-33-72-21-33-52-55-50-38-101-47zm-62 729h-5 2l3-1zm-60-35l11 20 24 16 20-1-24-4q-12-4-21-15l-10-16z" />
            <filter filterUnits="userSpaceOnUse" x="1143" y="340" width="371" height="742"/>
        </g>
        <g transform="matrix(.058 0 0 .058 389.05 30.75)">
            <path d="M1235 372l-7 17q0-3-2-3t-4 5l-1-4-9 15-1-5-3 17-7 16-2 26v49l8 61q14 103 3 212l-4 42-15 76-21 66q-14 38-22 70l4-5-27 75-19 55 1 17-4 26-3 26 2-5 2-5-1 34 3-5 4-4v5l13-54q6-30 13-46l-10 40q-6 22-6 34l10-33 11-30-17 65-2 14 30-109 1-1v1h1l-1-4 16-37 16-41 5 2 4-8 1-2-2 2 8-19 6-16v3l50-166 9-56 5-69q3-58-2-114l-6-86-5-70q-3-42-13-67l-9-7z" />
            <filter filterUnits="userSpaceOnUse" x="1100" y="372" width="171" height="878"/>
        </g>
        <g transform="matrix(.058 0 0 .058 389.05 30.75)">
            <path d="M744 6q-154 17-278 77-107 50-188 136-75 76-127 177-43 85-70 165l-26 87-22 87q-25 110-28 173-7 100 24 157l10 11 9 7q-12-21-15-40l-4-35q3 12 4 12t1-3v-25l4 20q-1-20 1-37l5-36v23q0-38 9-79l21-77 70-240q20-54 45-106 76-154 172-238 45-40 100-71l28-15 89-36q121-40 261-43h24q125 0 246 28 139 33 257 101 101 59 166 129 142 152 159 355 15 173-61 345-77 171-218 304l18-13q-70 65-146 112-88 55-197 88l-151 35-145 20-81 13-140 10-132 10 27-1 27-1-178 20 29-1h26l-17 2-10 2 298-17 253-24-220 23-185 12 356-20-361 25-57 5 288-17q184-14 307-43h5l-5 1q-4 1-3 1h3l21-7q109-23 208-74 96-48 193-135l3 3 44-41-11 9 74-83 45-60q-1 2-2 3l5-7-3 4q101-151 132-321 25-146-4-283-31-138-120-250-43-55-102-103-51-43-124-86-148-84-332-115l-304-9z" />
            <filter filterUnits="userSpaceOnUse" x="4" y="0" width="1738" height="1619"/>
        </g>
    </g> <!-- /#liao2 -->
    <g id="liao1">
        <g transform="scale(.05) translate(6146 284)">
            <path d="M467 76l-5 26q-1-5-2-5-2 0-4 10l-2-6-7 25-2-9q2 20-6 52l4 115 12 95q21 184-7 328l-14 63q-20 60-48 110-25 48-60 90l-78 84 8-6q6-6 8-6l-80 63-15 11 17-48q11-51 6-89l-7-25-6-42-6-40v16l-9-55-2 9-3 9-1-9q0 33 6 93 6 48 4 73l-5-63-7-56 3 57v48l-3-53-5-53-2-23 7 93q5 54 0 83l-1 2v-2h-1l1 6-13 37-59 135 192-136 3 3q16-12 15-12t-5 2q33-27 45-42l-3 4 68-85q60-90 81-151l24-87 15-107q7-85 0-179l-11-134-11-108q-7-64-20-103l-9-8z" />
            <filter filterUnits="userSpaceOnUse" x="83" y="76" width="438" height="1143"/>
        </g>
        <g transform="scale(.05) translate(6146 284)">
            <path d="M170 229l-3 10-1-1q-2 0-4 4l-3-2-5 10-2-2v9l-3 9 3 14 8 25 18 29q22 37 47 107l9 21 25 116q-1-6 1-7l5 46-1 16q-1 10 1 16l5 9 2 15 1 14 2-6 4 19 2-2 3-3 1 3 5-33-1-27 2 24 1 20q1-27 7-38v-20l1-1v1h1l-2-3 1-23-1-25h4q3-9 2-9t-3 4l-1-11-1-10 2 2-7-36-8-56-19-63-24-56-20-43-18-34q-11-21-26-31l-10-1z" />
            <filter filterUnits="userSpaceOnUse" x="149" y="229" width="156" height="471"/>
        </g>
        <g transform="scale(.05) translate(6146 284)">
            <path d="M409 249l-15 2-15 4v-1l-1 2-11 1-11 3-1-4-2 1-5 2-3 1-1-1-15 8-12 5-13 5-11 9-13 11q-14 14-19 25l-12 20-9 19q-4 10-2 24l5 9 6 1 4 5 1 2 7 3v2l10 1 4-3 7-8 6-17q7-22 31-46l7-8 30-19 15-10h-3l19-8 14-4 2-6 6-4 5-4-3-1 7-6-4-5 1-1-15 1-12 4q4-4 11-5l8-4-19-1 18-3 3-1z" />
            <filter filterUnits="userSpaceOnUse" x="237" y="249" width="181" height="159"/>
        </g>
        <g transform="scale(.05) translate(6146 284)">
            <path d="M445 340l-30 4v-2l-1 2h-10l-11 3-2-5q-3 0-1 2l-5 1-5 1 1-2-15 7-24 7-25 16-21 21-14 18-12 15q-6 10-6 24l2 9 6 3 3 5-1 2 7 6-1 2 10 3 5-3 9-6 9-16q12-21 37-41l8-7 31-16 15-8-3-1 19-6 14-3 2-6q2-3 6-3l6-3-3-1 7-6-3-5 1-1-15-1-12 3 10-4 9-3h-9l-9-2 17-2 4-1z" />
            <filter filterUnits="userSpaceOnUse" x="264" y="340" width="188" height="142"/>
        </g>
        <g transform="scale(.05) translate(6146 284)">
            <path d="M518 498l-33 7h1l-14 3-1-1v-1l-1 2-17 2-17 4-2-4q-7 0-3 2l-8 2-5 1-1-1-25 9-20 6-21 5-45 24q-26 16-39 29l-14 12-13 13-21 22q-11 14-12 31l4 9h8l4 5v2l9 3-1 2 6-1 7 1 8-5q8-5 15-11l15-20q20-25 68-54l15-10 81-32-4-2 33-10 23-5 5-7 10-5 9-4-4-1 12-8-6-4 2-1-23 3-19 5q5-4 16-6l13-5-27 1 32-7z" />
            <filter filterUnits="userSpaceOnUse" x="207" y="498" width="323" height="188"/>
        </g>
        <g transform="scale(.05) translate(6146 284)">
            <path d="M725 186l-5 2-6-1-6 5-10 10-7 21-35 57-7 11-32 30-15 16 2 1-18 14-14 10-1 7-11 12h4l-6 9q2 3 6 3l-1 2 16-8q7-7 12-8l-10 8-8 8 11-5q6-3 10-3l-18 11-4 3 31-19v1l1 1v-3l22-12 3 4 2-3q1-2 5-3l4-3v2l14-13q19-11 26-18l23-27 19-30 14-24 10-20q5-12 3-27l-5-9-6-1-5-4v-2l-8-3v-2z" />
            <filter filterUnits="userSpaceOnUse" x="558" y="186" width="192" height="215"/>
        </g>
        <g transform="scale(.05) translate(6146 284)">
            <path d="M618 671l-16 15-1 1-2 7 6-6 13-17zm-63-311l-6 10-3-2-3 4-2-3-8 11-1-4q0 11-8 26v19l5 35 15 40q15 32 16 64l-4 71-3 28-14 69 5-4q15-10 23-13l1-3v1h1l35-31 6-35 6-47 1-44-8-40-16-57-13-45-16-45-9-5zm-28 371l-1 1-1 2 4-1-2-2zm106-69l-25 25-10 12-5 13-8 29 28-23 3-12 20-28-5 5 9-21-8 3 1-3zm-94 66l-18 12-3-4-4 4-10 7 29 18 6-37zm-6 37l-1 14v5l12-11-8 3 7-5-10-6zm-1 19l-2 1h1l1-1zm53-43l-3 1-39 29 33 20 2-10 1 2 5-39 1-3z" />
            <filter filterUnits="userSpaceOnUse" x="504" y="360" width="136" height="431"/>
        </g>
        <g transform="scale(.05) translate(6146 284)">
            <path d="M724 835l-2 3 2 1v-4zm-39 67l-5 6-27 42 32-48zm-37-496l-1 12q-1-1-2-1-2 0-4 4l-2-2-5 12-1-2v10l-2 10 4 15 9 28 19 33q29 55 37 127l4 26-2 48-6 43-10 45 2-1-17 45-10 17-8 16q-2 3-1 11l-7 16-8 15 5-4-9 21 4-1 4-2-1 4 24-31 16-28-13 25-11 21 24-30 17-26 1 1v-4l14-24 12-28 4 2 1-6 5-14 4-11v3l9-45 10-69-1-37-7-45q-7-42-20-71l-21-52-20-40q-13-24-30-35l-10-1z" />
            <filter filterUnits="userSpaceOnUse" x="631" y="406" width="126" height="545"/>
        </g>
        <g transform="scale(.05) translate(6146 284)">
            <path d="M801 700l3 9q-3-6-3-9zm-23-5l4 19q4 17 20 28l3 1q-14-10-22-29l-5-19zm44-459q-32 2-53 17l-4 9 13 5q-5 3 2 6l-3 2 11 7-3 2 12 3 10 5 18 2 31 5 19 2 20 3q34 10 54 42 19 28 24 77l2 32-9 61-14 53-25 53 5-3-38 53-34 33-9 12-12 7-19-1-12-13-6-12q-1 1-1 2l-7-25q-4 2-5 9l-1-4q-2 19 6 37 7 15 23 22l26 2 25-13 21-16q-16 20-36 28l-16 4 18-1 27-14-9 8q7-5 15-11l-6 4 29-26h2l-1 1h1l1-4 25-26 22-30 4 2q12-12 11-12t-8 6l10-16 7-10 13-28v-2l20-70 9-44 1-50-11-61-25-51q-15-22-38-38-39-26-73-30l-59-4zm15 509zm-32-1q1 0 1 1l3 1-4-2zm-17-29l9 17 21 14 19-1-22-3-19-13-8-14zm85 22q-9 6-16 10l10-4 7-6zm-15 10l-6 2h1q2-1 5-2zm-47-1l15 6h7l-22-6zm42 3l-19 3h12l7-3z" />
            <filter filterUnits="userSpaceOnUse" x="765" y="236" width="263" height="516"/>
        </g>
        <g transform="scale(.05) translate(6146 284)">
            <path d="M820 261l-6 10q-1-2-2-2-2 0-4 4l-2-3-8 10-2-4-2 12-6 11-1 17v33l10 41q14 73 10 142l-1 28-23 96-14 47 3-2-18 49-7 19-5 18 2 11-2 18-1 17 1-3 2-4 1 23 3-3 3-3v4l10-36q3-19 8-29l-5 26-4 22 7-21 9-19-12 41-1 9 20-70 1-1v1h1l-1-3 12-24 11-26 4 1q4-6 3-6l-2 1 5-13 5-11v3l25-79 9-34 8-86-5-78-8-57-7-47q-4-28-15-46l-9-4z" />
            <filter filterUnits="userSpaceOnUse" x="741" y="261" width="123" height="588"/>
        </g>
        <g transform="scale(.05) translate(6146 284)">
            <path d="M584-1q-44 0-87 6-104 11-188 54-73 34-128 94-50 53-85 121-27 55-45 112-11 29-17 59l-14 58q-14 61-17 116-2 68 20 104l16 11q-8-13-10-26l-1-23q2 8 4 8 1 0 1-2l1-16 3 12 2-23 4-24 1 16q-1-24 7-51l15-50 29-111 4-10 12-38 30-69q47-101 108-158 28-27 64-47l38-19q16-8 39-15 79-28 171-31h24q180 0 328 83 72 41 111 84 95 101 106 236 10 116-40 231-51 114-144 204l10-7q-46 43-96 74-60 38-132 59l-101 23-97 14-54 10-94 8-88 7 18-1h18l-118 15h19l17 1-18 3 199-10 170-17-148 17-123 8 239-11-243 16-25 2 181-9q123-9 206-29 4-2 5-2t-1 2l-4 1-2 1h3l14-6q73-14 142-50 66-33 132-92l3 4q57-50 56-50t-34 27l51-57 36-49-6 10q71-103 91-222 18-104-2-195-21-96-83-174-31-39-70-71t-86-59q-100-55-227-77-62-10-120-10z" />
            <filter filterUnits="userSpaceOnUse" x="3" y="-1" width="1178" height="1107"/>
        </g>
    </g> <!-- /#liao1 -->
</svg>
