<?xml version="1.0" standalone="yes"?>
<svg xmlns="http://www.w3.org/2000/svg" viewBox="-0.877 -0.125 698 15" overflow="visible" enable-background="new -0.877 -0.125 698 15">
    <path d="M527.893 1.181c1.646.483 8.685-.047 4.143-.364l-4.143.364zm87.847 1.294c16.86 1.035 33.415.61 53.877 1.267-17.011.754-37.46-.332-61.335.521 13.647.362 29.814.077 38.125-.01 10.765.43 30.054.398 45.588.79.138.386-2.943.071-4.146.166.813.776 7.02.412 8.287 1.095-8.414.42-18.436.499-27.354.824 1.148.466 7.033-.075 8.288.372-11.864.68-27.906-.084-41.438.671-4.712.263-8.146.938-12.432 1.071-14.528.455-29.401-.191-45.574-.129-20.798.082-43.79.338-67.122.296 1.629.479 8.242-.122 9.948.34-18.345.465-36.47.73-57.175.791l-53.86.347-60.495.355c-10.87.042-21.402.559-32.324.696-57.025.726-113.541 1.072-165.877 2.069-15.778.302-32.23.964-47.354.766-11.118-.14-25.212-.654-37.36-1.029-5.608-.174-12.007-.143-19.914-.979-8.838-.938-15.932-2.481-25.648-2.678.716-.223 2.685-.098 4.168-.11-5.232-.592-6.898-1.476-12.349-2.174.143-.321 2.812.066 3.335-.151-2.726-.462-6.989-1.268-2.407-1.398-4.14-.612-6.974-1.423-13.192-1.742 1.904-.554 1.722-1.065 4.263-1.682 31.597-2.156 70.36-.212 105.377-.664 20.323-.247 43.836.209 66.266-.157 25.465-.4 58.452-.557 86.951-.757 16.874-.112 34.521-.356 51.34-.381 13.667-.017 30.022-.2 42.229-.286 25.456-.174 52.748.787 79.508.517 18.165-.181 35.154-.346 50.534-.388-.134.208-1.512.152-2.485.181 8.868-.426 15.866.605 28.997.133-6.278-.633 2.244-.313 6.629-.188l.001.891c20.805.512 48.127-.457 66.293.599l3.315-.361c.94.033.461.177 0 .178l-.829.001c-.151.153.325.168.829.178 28.972.067 62.926-.172 92.835.553l-11.607-.024c-15.576-.248-36.629-.194-54.706-.38zm-106.891 6.935c-3.882.124-9.922-.216-12.428.199 3.882-.12 9.922.217 12.428-.199z"/>
</svg>
