<?xml version="1.0" standalone="yes"?>
<svg xmlns="http://www.w3.org/2000/svg" class="svg-container" viewBox="0 0 500 220" title="高宇辰">
    <path d="M165.251 171.606c-2.197.236-4.925.668-8.132 1.2-3.208.522-6.895 1.156-11.047 1.555-4.142.381-8.803.556-13.758-.354-1.234-.229-2.482-.529-3.726-.918-.608-.188-1.274-.419-1.829-.637-.564-.212-1.242-.464-1.88-.771-2.558-1.2-4.696-2.849-6.678-4.428-1.984-1.585-3.854-3.137-5.833-4.333-.987-.599-1.998-1.105-3.041-1.493-.949-.362-2.175-.626-3.32-.82-2.321-.379-4.686-.36-6.967.139-2.284.486-4.477 1.456-6.479 2.795-4.023 2.686-7.229 6.727-9.713 11.051-2.49 4.349-4.322 9.026-5.652 13.652l-2.273 7.904-1.468-8.033c-.416-2.275-.334-4.438-.124-6.479.219-2.045.597-3.984.993-5.839l.702-3.288 2.295 2.38c5.947 6.168 11.23 11.637 15.972 15.595 5.247 4.365 10.404 7.507 15.292 9.354 4.884 1.867 9.419 2.47 13.287 2.447 1.633-.022 1.915-.049 1.055.013-.857.041-2.869.143-5.771-.196-2.894-.345-6.681-1.194-10.828-3.085-4.152-1.868-8.608-4.775-13.035-8.532-5.099-4.196-10.243-9.533-16.057-15.51l-2.152-2.213-.643 3.06c-.388 1.843-.757 3.769-.973 5.803-.206 2.032-.287 4.188.133 6.463l1.37 7.437 2.081-7.317c.306-1.077.642-2.163 1.01-3.251-.4 1.065-.774 2.141-1.121 3.221l-2.164 6.738-1.063-6.85c-.343-2.207-.211-4.316.054-6.329.272-2.015.707-3.944 1.166-5.816l.526-2.146 1.422 1.557c4.253 4.655 8.265 9.146 12.28 13.033 4.001 3.896 8.006 7.182 11.852 9.619 4.022 2.319 8.421 4.119 13.073 5.008 4.656.916 9.483.83 14.228.005 5.219-.954 10.208-3.496 13.851-7.388 3.68-3.865 6.021-8.775 7.407-13.805 1.388-5.056 1.889-10.288 1.822-15.475-.077-5.189-.726-10.36-1.922-15.402-1.138-5.033-2.868-10.019-5.469-14.565-2.585-4.545-6.105-8.642-10.457-11.679-4.335-3.055-9.443-4.981-14.689-5.74-5.254-.773-10.625-.453-15.803.63-3.762.768-8.539 2.256-13.516 4.637-4.984 2.36-10.142 5.618-14.869 9.375-4.765 3.769-8.959 8.281-12.049 12.855-3.122 4.561-5.156 9.104-6.442 12.631 2.515-7.445 6.704-14.341 12.113-20.016 2.686-2.844 5.689-5.414 8.8-7.69 3.117-2.308 6.399-4.403 9.837-6.224 6.864-3.631 14.391-6.229 22.249-6.943 3.92-.353 7.914-.212 11.817.561 3.899.77 7.697 2.189 11.119 4.258 3.426 2.061 6.451 4.757 8.943 7.843 2.5 3.085 4.474 6.544 6.003 10.148 1.542 3.596 2.606 7.395 3.424 11.139.828 3.789 1.348 7.638 1.559 11.508.391 7.715-.335 15.644-3.297 22.992-1.488 3.648-3.603 7.12-6.439 9.971-2.821 2.859-6.362 5.013-10.155 6.256 1.657-.513 3.268-1.183 4.786-1.991 3.713-2.07 6.848-5.14 9.139-8.672 2.308-3.536 3.84-7.481 4.832-11.495 1.95-8.062 1.936-16.391.736-24.476-.306-2.018-.705-4.052-1.18-6.019-.451-1.979-1.008-3.985-1.668-5.941-1.326-3.918-3.105-7.733-5.465-11.228-2.354-3.49-5.311-6.641-8.784-9.136-3.468-2.499-7.431-4.314-11.557-5.372-5.624-1.412-11.531-1.511-17.38-.642 5.708-.894 11.668-.832 17.38.642 3.673.917 7.202 2.409 10.4 4.45 3.201 2.035 6.05 4.622 8.454 7.583 4.831 5.93 7.823 13.297 9.525 21.025 2.151 9.635 2.292 21.137-.451 30.817-1.121 3.93-2.819 7.59-5.158 10.771-2.333 3.18-5.342 5.841-8.823 7.69-2.21 1.242-4.595 2.143-7.03 2.72-2.45.595-4.91.814-7.355.935-1.44.101-2.993.117-4.579.012l.194.034c1.525.311 4.849.641 9.53.122 2.359-.292 5.084-.896 7.931-2.141 2.841-1.232 5.779-3.157 8.333-5.808 2.564-2.639 4.707-5.963 6.291-9.649 1.589-3.69 2.651-7.732 3.256-11.919 1.198-8.368.684-17.386-1.356-26.062-1-4.394-2.47-8.793-4.587-12.931-2.107-4.135-4.897-8.005-8.308-11.198-3.4-3.201-7.403-5.676-11.537-7.286-4.139-1.62-8.37-2.408-12.348-2.631-7.998-.427-14.909 1.231-20.227 3.056-5.339 1.859-9.183 3.939-11.48 5.276-3.661 2.137-7.03 4.599-10.124 7.213-3.171 2.674-6.087 5.657-8.69 8.967-5.218 6.611-9.112 14.562-11.302 23.65-1.455 6.066-2.216 11.306-2.016 16.041.183.471.306 2.827.563 5.169l.122 2.03 5.63-.706c-.992-5.309-1.347-10.66-1.159-15.626.175-4.976.89-9.545 1.666-13.537.323-1.474 1.095-3.532 2.211-5.709 1.111-2.18 2.566-4.467 4.082-6.518 3.021-4.115 6.249-7.295 6.395-7.99.565-2.52.683-2.877 1.75-3.975 1.102-1.088 3.088-2.957 8.189-8.192.314-.312.761-.844 1.299-1.503l.42-.518.711-.821 1.626-1.845c2.241-2.519 4.614-5.087 6.696-7.042 4.868-4.48 8.553-8 11.696-11.104-.239-.128-.413-.25-.616-.372l-.25-.179-.121-.089-.078-.04-.188-.009c-1.015-.053-1.99-.09-2.937-.11-1.904-.044-3.726-.025-5.691.02-1.986.067-4.005.081-6.592.265-2.578.172-5.776.647-9.286 1.048-1.403.164-2.8.28-3.956.318-.827.028-1.568.032-2.302.003-1.455-.057-2.774-.235-3.983-.499l.941 6.392c2.691-1.527 5.294-2.814 7.623-4.026 2.353-1.212 4.538-2.353 6.752-3.594 2.215-1.243 4.463-2.585 6.923-4.243 2.456-1.665 5.138-3.629 8.103-6.266.436-.395 2.243-1.854 4.519-4.118 2.241-2.278 5.065-5.367 6.785-9.403.845-2.002 1.316-4.298 1.118-6.463-.178-2.171-1.003-4.049-1.872-5.408-.878-1.372-1.782-2.307-2.418-2.927-.641-.618-1.029-.927-1.027-.928-2.262-2.044-4.84-3.683-7.683-4.535-2.832-.869-5.842-.817-8.442-.073-2.618.732-4.847 2.028-6.769 3.471-1.923 1.456-3.563 3.08-5.042 4.755-2.945 3.368-5.28 6.93-7.436 10.617-2.142 3.699-4.096 7.536-5.963 11.729-.627 2.234-1.223 4.562-1.713 7.002-.476 2.449-.904 4.975-.9 7.776l4.196.1c.314-8.736 1.856-18.088 5.03-26.659 1.572-4.285 3.573-8.35 5.934-12.001 1.18-1.844 2.455-3.493 3.841-5.198 1.266-1.57 2.682-2.967 4.192-4.221.444-.37.895-.722 1.347-1.059l.691-.499.986-.664c1.312-.854 2.654-1.61 3.983-2.332 2.67-1.436 5.206-2.75 7.323-3.979 4.188-2.452 7.678-4.467 11.498-7.037l.061-.415.033-.207v-.101l-.203-.079-1.606-.609c-1.058-.393-2.095-.76-3.127-1.11-2.079-.694-4.083-1.349-6.33-1.959-2.267-.596-4.83-1.126-7.921-1.472-3.077-.354-6.689-.492-10.713-.417l-2.188.073-1.882.089-3.382.191c-2.095.118-3.887.194-5.449.141-1.706-.059-4.677.279-7.838.446l1.088 8.836c2.699-.817 5.56-1.716 8.006-2.34l-1.172.93c1.806-.439 5.385-1.388 7.179-1.906 1.794-.514 1.405-.191 1.021.135-.773.648-1.551 1.308 1.67.58 3.784-1.058 7.601-2.269 11.431-3.696l1.437-.546.719-.281.359-.141.583-.248c1.599-.67 3.347-1.449 5.043-2.262 3.403-1.621 6.627-3.418 9.598-5.268l8.345-5.544-.68-.517-.79-.55-1.557-1.078-2.986-2.049c-1.969-1.322-3.804-2.636-5.905-3.876-2.096-1.235-4.401-2.38-6.821-3.38-1.208-.5-2.445-.967-3.695-1.388-.629-.226-1.231-.407-1.835-.593l-.852-.26-.574-.151c-.544.108-1.163.196-2.344.092-2.424-.518-4.857-.899-7.299-1.147-1.542.344-1.142 1.047-2.154 1.294-.109.812-2.677 1.285-4.848 1.977-2.181.675-3.953 1.496-2.822 2.232.441.218 3.872.354 7.829 1.144 1.977.382 4.081.905 5.997 1.526.96.304 1.871.64 2.703.969l.607.253c.207.085.392.166.508.229.268.136.523.265.728.391.372.259-.029.319-.585.378-.314.021-.524.081-1.056.06-.46-.005-.908.009-1.253.062.435.124.84.253 1.219.377l.28.091.16.058.289.108c.358.141.622.263.847.384.442.237.653.43.692.57.078.283-.509.35-1.197.371.549.263 1.036.542 1.035.543-.387.043-1.281.309-1.257.32.337.219.615.448.824.669.104.112.192.22.261.328l.091.157.035.077-.125.068c-.884.336-1.59.501-2.07.554-.146.025-.167-.006-.395.053l-.17.044-.637.242-1.278.479c-1.708.63-3.436 1.23-5.172 1.807-6.948 2.304-14.031 4.228-20.85 6.127l-57.611 16.044 59.398-1.445c1.153-.028 2.287-.081 3.4-.154 4.354-.195 11.207-1.201 15.564-1.754.273-.034.589-.063.934-.087l.538-.031.401-.015c.129.005.266.03.384.062.243.065.389.164.476.19l1.388-.851c.477-.293.93-.596 1.57-.872.58.127 1.192.298 1.764.526.287.113.564.241.828.38l.387.219.093.058.04.03-.083.049-.328.189c-2.241 1.239-3.953 1.755-5.028 2.614l-.202.161-.092.08-.145.111-.217.162c-.573.433-1.107.867-1.598 1.29-.982.846-1.786 1.656-2.393 2.357-1.212 1.411-1.645 2.347-1.247 2.45-4.149 4.673-5.883 7.989-7.448 11.354-1.511 3.39-2.867 6.882-4.672 12.778-2.267 7.583-3.637 16.37-4.019 25.627l6.656.159c-.008-1.955.358-4.233.863-6.47.512-2.254 1.189-4.534 1.979-6.792 1.587-4.518 3.618-8.976 6.064-13.103 2.554-4.374 5.604-8.392 9.236-11.234 1.81-1.405 3.766-2.472 5.746-2.962 1.98-.499 3.966-.401 5.905.272 1.448.493 2.841 1.297 4.131 2.277 1.323 1.002 2.44 2.074 3.233 3.195 1.228 1.727 1.646 3.479 1.281 5.393-.357 1.921-1.501 3.942-2.955 5.791-2.96 3.724-6.946 6.886-10.997 9.73-4.086 2.843-8.363 5.38-12.673 7.768-2.157 1.194-4.327 2.347-6.505 3.485-2.186 1.151-4.344 2.235-6.605 3.491l-7.198 3.999 8.066 1.905c1.378.325 2.767.542 4.143.671.688.062 1.373.108 2.052.131l1.016.023.851.002c1.521-.013 2.86-.146 4.257-.298 1.378-.151 2.733-.319 4.078-.396.672-.037 1.341-.052 2.006-.027l.497.027.248.021.124.011.051.009-.048.046-.763.724-4.707 4.473-2.259 2.206-1.59 1.61-2.028 2.107c-5.363 5.665-10.531 11.752-14.709 18.754-4.19 6.967-7.215 14.931-8.37 23.281-1.197 8.35-.638 16.911 1.02 25.266l6.565-.824c-.624-7.85-.268-15.957 1.924-23.833 1.377-4.959 3.509-9.719 6.381-14.042 2.859-4.333 6.448-8.216 10.51-11.584 8.183-6.768 17.824-12.062 28.189-14.099 5.158-1.006 10.479-1.143 15.542-.086 5.059 1.043 9.804 3.343 13.666 6.708 3.877 3.354 6.855 7.691 8.972 12.4 1.064 2.356 1.924 4.809 2.617 7.308.675 2.51 1.273 5.078 1.683 7.621.833 5.113 1.107 10.295.731 15.361-.384 5.057-1.429 10.029-3.427 14.473-1.979 4.438-5.008 8.281-8.914 10.764-1.944 1.247-4.077 2.17-6.304 2.779-2.236.628-4.513.888-6.915 1.025-4.655.264-9.247-.463-13.514-2.009-4.275-1.537-8.223-3.842-11.862-6.504-7.295-5.36-13.383-11.989-19.497-18.282l-3.79-3.901-1.164 5.401c-.427 1.981-.823 4.017-1.046 6.131-.215 2.112-.285 4.32.138 6.65l2.345 12.935 3.729-12.726c1.587-5.416 3.761-10.484 6.511-14.815 2.74-4.319 6.125-7.896 9.897-9.911 3.761-2.049 7.805-2.446 11.647-1.651.473.093.976.213 1.414.333.479.126.78.231 1.208.405.818.323 1.616.731 2.405 1.209 1.58.945 3.12 2.168 4.724 3.464 1.611 1.296 3.287 2.682 5.225 3.924.967.619 1.996 1.199 3.089 1.695l.83.355.761.289c.421.165.943.358 1.451.525 4.066 1.35 7.945 1.744 11.36 1.805 3.427.048 6.44-.236 9.065-.567 2.626-.339 4.868-.736 6.755-1.09 3.632-.972 7.134-2.029 10.561-2.921zM294.613 144.12c-5.31.099-13.75.536-23.869 1.308-10.116.789-21.922 1.944-33.893 3.928-5.986.984-12.008 2.19-17.869 3.624-2.937.714-5.809 1.489-8.654 2.328-2.896.841-5.693 1.584-8.412 2.401-5.429 1.61-10.491 3.388-14.9 5.456-4.409 2.057-8.148 4.417-10.912 6.912-2.113 1.936-3.781 4.062-4.919 6.277-.567 1.073-.982 2.25-1.355 3.383-.357 1.135-.627 2.249-.792 3.333-.332 2.165-.243 4.211.271 5.992.5 1.788 1.405 3.296 2.459 4.514.912 1.012 1.113 1.153.574.67-.498-.502-1.756-1.697-2.705-3.925-.97-2.202-1.304-5.513-.296-9.256.24-.935.554-1.895.933-2.87.364-.98.817-1.894 1.385-2.839 1.118-1.869 2.629-3.653 4.446-5.279 3.217-2.954 7.414-5.47 12.259-7.637 4.853-2.178 10.364-3.998 16.43-5.731-7.634 1.871-15.025 4.04-21.363 7.192-3.161 1.571-6.046 3.388-8.459 5.485-2.419 2.087-4.333 4.479-5.604 6.956-.805 1.874-1.409 3.813-1.769 5.837-.347 2.018-.408 4.124.02 6.178.421 2.052 1.366 4.013 2.72 5.639 1.35 1.632 3.056 2.938 4.893 3.963 4.075 2.244 8.622 3.268 13.115 3.802 4.514.51 9.054.482 13.541.057 4.483-.447 8.94-1.248 13.231-2.764 4.245-1.599 8.241-3.688 11.99-6.182 7.5-4.981 13.882-11.535 18.946-18.973 5.058-7.449 8.837-15.799 11.094-24.622.827-3.195 1.653-7.413 2.037-12.173.383-4.762.308-10.035-.451-15.276-.78-5.207-2.293-10.382-4.597-14.682-2.27-4.324-5.244-7.625-7.643-9.864 2.57 2.287 4.884 4.947 6.72 7.904 1.847 2.953 3.217 6.166 4.2 9.444.973 3.283 1.629 6.625 1.96 10.006.348 3.36.442 6.742.295 10.11-.588 13.478-4.891 26.681-12.12 37.999-7.208 11.299-17.555 20.811-30 26.131-3.132 1.383-6.458 2.253-9.752 2.877-3.309.619-6.649.981-10.001 1.115-3.352.131-6.718.032-10.07-.373-3.347-.414-6.694-1.119-9.908-2.385 1.382.582 2.789 1.061 4.189 1.462 3.482.896 7.029 1.33 10.569 1.49 3.542.153 7.083.025 10.604-.357 3.521-.392 7.022-1.019 10.479-2.049 1.734-.505 3.453-1.196 5.062-1.912 1.63-.724 3.228-1.518 4.789-2.379 12.518-6.926 22.418-18.019 28.792-30.719 2.137-4.339 3.931-8.903 5.363-13.738-1.356 4.739-3.156 9.343-5.363 13.738-2.801 5.674-6.183 10.972-10.282 15.89-4.1 4.908-8.95 9.438-14.769 13.271-1.807 1.163-3.747 2.264-5.78 3.265-2.056.997-4.103 1.908-6.393 2.669-4.481 1.442-9.004 2.14-13.248 2.55-3.464.307-6.811.297-10.097.02-3.285-.285-6.517-.823-9.727-1.737-4.119-1.084-8.314-2.798-11.527-6.054-.954-.915-1.875-2.043-2.575-3.354l.067.172c.262.673.772 1.713 1.705 2.902.929 1.185 2.287 2.5 4.071 3.679 3.563 2.391 8.724 4.154 14.694 4.958 5.982.804 12.79.805 19.979-.376 1.799-.304 3.623-.688 5.472-1.2 1.849-.495 3.768-1.219 5.494-1.958 3.535-1.501 6.984-3.363 10.247-5.528 6.54-4.323 12.287-9.866 16.898-15.849 4.63-5.979 8.139-12.386 10.607-18.46 2.479-6.078 3.933-11.817 4.719-16.576.796-4.763.945-8.543.948-10.854-.015-7.356-1.205-14.48-4.052-21.395-1.433-3.447-3.362-6.824-5.851-9.889-2.479-3.075-5.5-5.775-8.775-8.171-4.392-3.184-8.047-5.611-11.515-7.406-.429-.036-2.17-.917-3.878-1.831-3.989-2.469-7.643-5.301-10.765-8.307l.7 3.523c.45-.888 1.008-1.695 1.663-2.43.167-.182.332-.363.509-.537l.265-.259c.1-.089.296-.285.453-.405.647-.562 1.38-1.044 2.154-1.505 1.542-.917 3.335-1.694 5.243-2.439 1.893-.74 3.877-1.453 5.393-2.122 2.168-.877 5.06-2.026 8.55-3.128 3.458-1.114 7.236-2.208 10.635-3.221 3.409-1.013 6.519-1.989 8.926-2.843 2.385-.843 4.1-1.564 3.923-1.633-.267-.103-.475-.194-.623-.28-.796.024-1.369.028-1.797.017l-.396.005-.405.008-.68-.003c-.815-.022-1.287-.112-2-.269-1.413-.309-3.857-.912-11.358-1.613-.984-.104-3.697-.113-6.585-.114-2.895-.007-6.08.049-8.239-.06-5.501-.361-10.302-.325-14.66-.206l-6.368.233-4.599.236v7.784c1.881-.072 4.313-.052 7.142-.021 9.084-.045 14.641.165 19.957.208 5.313.009 10.415-.052 18.536-1.405.982-.182 7.85-.937 14.419-2.747 3.28-.9 6.485-2.125 8.774-3.526 1.106-.659 2.149-1.48 2.763-2.086.624-.607.912-1.007.915-1.004 1.01-1.158 1.698-2.549 1.925-4 .238-1.45.035-2.911-.415-4.243-.223-.668-.508-1.312-.831-1.918-.166-.326-.307-.546-.482-.853-.199-.305-.371-.552-.567-.812-.773-1.017-1.662-1.866-2.581-2.588-1.851-1.437-3.804-2.399-5.714-3.165-1.916-.762-3.81-1.314-5.672-1.777-3.729-.91-7.341-1.458-10.981-1.949-3.643-.481-7.317-.888-11.207-1.327-8.997.534-19.327.943-29.918 2.294-5.302.75-10.661 1.886-15.703 3.894-5.038 1.976-9.663 4.928-13.24 8.464-4.764 4.729-7.603 9.295-9.971 13.402l4.795-.075c-1.931-3.704-2.619-7.375-1.427-10.01 1.105-2.632 4.153-4.799 8.771-6.475 3.921-1.52 7.2-2.408 9.793-2.733 1.307-.156 3.48-.754 5.941-1.333 2.457-.585 5.194-1.156 7.505-1.389l-1.064.729c1.538-.168 4.618-.458 6.18-.594 1.561-.137 1.192.102.828.34-.729.477-1.457.951 1.298.917l3.5-.249 3.11-.315c1.071-.115 2.145-.243 3.209-.392 1.064-.149 2.122-.319 3.14-.53 1.015-.214 1.972-.479 2.945-.719 1.938-.495 3.852-.976 5.922-1.538l-1.72-5.395c-.57-1.795-1.154-3.641-1.933-5.539-.662-1.486-1.381-2.967-2.141-4.421-.379-.728-.771-1.448-1.169-2.162l-.416-.709-.361-.596c-.971-1.584-2-3.139-3.114-4.663-2.248-3.037-4.73-6.001-8.184-8.64-.564-.111-1.171-.278-2.336-.803-1.156-.68-2.443-1.297-3.898-1.743-1.426-.441-3.193-.713-4.799-.597-.975.314-1.235.688-1.425.985-.184.313-.294.577-.816.894.093.404-.542.946-1.277 1.694-.759.747-1.525 1.684-2.053 2.617-.534.929-.85 1.832-.895 2.456-.043.624.146.987.753.866.206-.057.794-.616 1.705-1.247.922-.634 2.136-1.267 3.533-1.344 1.399-.097 2.809.406 4.091 1.259 1.266.844 2.311 1.951 3.002 2.885.597.907-1.56-.466-2.635-.477 1.048.778 1.804 1.594 2.31 2.216.507.631.772 1.091.855 1.36.164.548-.392.304-1.364-.366.86.995 1.665 2.125 1.664 2.124-.364-.162-1.448-.571-1.447-.562 1.765 2.333 3.374 5.155 4.79 8.125l.132.279.065.14.009.038.02.107.026.202.012.344c-.009.203-.049.35-.113.449-.384-.014-.681-.104-.849-.166l-.114-.049c.074-.035-.803.062-1.407.112l-3.875.375c-5.183.536-10.377 1.254-15.379 2.424-3.653.758-9.759 2.649-13.844 4.585-1.018.468-2.711 1.108-4.386 1.893-1.673.765-3.325 1.716-4.188 2.318-1.326 1.301-1.728 2.104-1.917 2.68-.185.583-.163.983-.487 1.763-1.095 1.133-2.251 2.613-3.131 4.489-.883 1.865-1.435 4.111-1.479 6.336-.062 2.231.315 4.406.916 6.386.603 1.987 1.421 3.803 2.319 5.483l4.849 9.076 5.071-9.23c2.322-4.226 5.005-7.802 7.118-10.203 2.096-2.416 3.555-3.844 2.984-4.243 1.729-1.306 3.185-2.253 4.495-3.068 1.311-.812 2.479-1.485 3.693-2.126 2.439-1.259 5.051-2.469 9.81-3.553 3.161-.723 6.573-1.248 10.273-1.673 3.68-.426 7.553-.754 11.532-.97 7.95-.417 16.375-.44 24.503.527 4.429.499 8.741 1.326 12.558 2.808 1.894.742 3.653 1.667 5.024 2.801.685.565 1.264 1.179 1.709 1.826.418.651.715 1.249.902 1.893.301.958.245 2.025-.231 2.883-.229.431-.54.808-.886 1.137-.171.166-.355.316-.542.461-.179.132-.388.283-.655.45-2.145 1.344-4.93 2.262-7.705 2.957-2.8.694-5.682 1.176-8.56 1.549-5.765.738-11.525 1.053-17.197 1.204-5.676.144-11.275.103-16.81-.033-2.768-.068-5.519-.162-8.262-.269-2.77-.1-5.412-.248-8.322-.304v6.649l8.022.013 5.619.029c1.84.027 3.653.08 5.453.179.9.049 1.797.111 2.693.187l1.344.125.672.071.168.018-.119.069-.322.15c-3.056 1.341-6.261 1.975-9.353 3.036-1.546.527-3.087 1.137-4.51 2.03-.355.224-.701.466-1.032.731-.165.133-.328.271-.485.414l-.233.218-.458.459c-1.342 1.385-2.52 3.042-3.354 4.872l-1.065 2.334 1.863 1.686c4.313 3.902 9.21 7.166 14.183 10.092 4.961 2.952 10.021 5.608 14.404 9.031 3.053 2.378 5.679 5.167 7.681 8.437 2.013 3.259 3.409 6.954 4.342 10.821 1.829 7.737 1.936 16.043.705 24.039-2.487 16.041-10.524 31.277-22.379 41.952-2.962 2.662-6.156 5.034-9.533 7.051-1.688 1.009-3.421 1.929-5.191 2.753-.886.408-1.784.799-2.677 1.161-.873.35-1.776.656-2.692.934-3.674 1.1-7.522 1.741-11.345 2.08-3.828.331-7.659.346-11.392-.013-3.724-.363-7.379-1.098-10.652-2.429-3.259-1.317-6.113-3.333-7.608-6.011-1.526-2.656-1.627-5.921-.862-9.105.188-.797.425-1.591.7-2.378.283-.801.57-1.552.915-2.222.706-1.415 1.607-2.733 2.646-3.948 2.088-2.429 4.696-4.441 7.478-6.138 2.786-1.7 5.751-3.099 8.751-4.314 6.024-2.435 12.141-4.111 18.169-5.745 11.855-3.477 22.874-5.461 32.825-6.88 9.933-1.399 18.707-2.204 25.997-2.84l17.163-1.405 9.412-1.669zM484.809 171.804c-3 2.593-6.879 5.919-11.707 9.5-4.821 3.578-10.601 7.418-17.335 10.877-6.724 3.465-14.42 6.502-22.759 8.574-8.333 2.097-17.266 3.224-26.311 3.483-9.051.271-18.212-.272-27.19-1.234l-1.682-.187-.404-.045-.33-.026-.83-.055-3.331-.206-6.653-.438c-4.417-.321-8.786-.719-13.065-1.244-8.549-1.062-16.773-2.57-24.185-5.145-1.85-.647-3.646-1.367-5.365-2.181-.861-.405-1.701-.839-2.52-1.295-.409-.229-.813-.464-1.21-.708-.452-.274-.903-.57-1.34-.865-1.744-1.196-3.283-2.541-4.521-3.987-.622-.723-1.16-1.468-1.658-2.229-.251-.379-.484-.769-.712-1.157l-.329-.592c-.04-.098-.135-.202-.131-.293l.121-.256c1.658-1.661 3.32-3.044 5.11-4.239 1.108-.749 2.256-1.429 3.402-2.059.604-.333 1.044-.559 1.556-.821l1.483-.735c1.971-.95 3.906-1.789 5.791-2.566 3.771-1.551 7.339-2.857 10.678-4.055l17.359-6.105c4.125-1.509 1.451-.426-5.969 2.216-3.711 1.323-8.62 2.997-14.418 5.1-2.896 1.058-6.015 2.228-9.288 3.605-1.636.69-3.311 1.436-5.007 2.267-1.578.768-3.718 1.898-5.588 3.154-1.817 1.231-3.457 2.618-5.065 4.243l-.122.258c.002.093.093.197.136.295l.333.593c.23.39.467.776.719 1.153.5.756 1.037 1.49 1.653 2.198 1.227 1.415 2.723 2.721 4.402 3.873.419.289.85.567 1.29.838.417.257.781.47 1.183.696.788.445 1.597.859 2.421 1.254 1.649.788 3.364 1.486 5.13 2.115 7.073 2.501 14.894 4.009 23.258 5.096-7.742-1.202-15.378-2.804-22.423-5.41-1.758-.655-3.475-1.38-5.127-2.193-.826-.408-1.638-.836-2.427-1.293-.787-.457-1.547-.928-2.356-1.488-1.578-1.089-2.986-2.3-4.17-3.619-.593-.658-1.122-1.348-1.602-2.059-.236-.358-.463-.72-.672-1.089l-.301-.559-.129-.28.207-.233c2.787-2.688 6.015-4.45 8.972-5.891 2.99-1.438 5.909-2.594 8.655-3.617 11.246-4.582 22.997-8.26 34.6-13.007 5.425-2.225 10.771-4.643 15.856-7.554 5.059-2.92 9.938-6.33 13.809-10.822 1.917-2.246 3.545-4.781 4.63-7.563 1.09-2.776 1.612-5.782 1.532-8.757-.042-1.481-.169-2.963-.522-4.447-.351-1.471-.912-2.894-1.653-4.209-1.483-2.644-3.652-4.811-6.041-6.545-2.397-1.744-5.023-3.098-7.712-4.229-1.347-.563-2.713-1.072-4.092-1.534-.688-.232-1.383-.452-2.076-.661l-1.877-.542c-4.881-1.333-9.82-2.193-14.71-2.856-4.893-.659-9.745-1.097-14.517-1.49-2.386-.199-4.753-.382-7.092-.611-1.169-.117-2.332-.243-3.483-.415l-.859-.142-.107-.02-.016-.019.238-.036.477-.073 1.905-.272c7.102-.956 14.147-1.481 20.985-2.314 4.265-.521 9.652-1.259 15.367-2.75.714-.186 1.432-.388 2.152-.6l1.081-.331 1.361-.445c1.84-.616 3.689-1.325 5.531-2.118 3.679-1.595 7.307-3.587 10.646-5.997l2.153-1.554-2.372-1.174-.858-.424-.687-.316c-.452-.202-.909-.387-1.369-.561-.919-.349-1.851-.643-2.783-.891-1.865-.498-3.732-.822-5.549-1.03-3.707-.42-7.189-.405-10.219-.324-3.031.091-5.618.253-7.601.347 6.03-.317 12.159-.788 18.314-.125 1.827.202 3.649.517 5.439.99.895.236 1.779.516 2.649.842.435.161.865.337 1.291.524l.648.296.851.418 2.788 1.37-2.53 1.839c-4.651 3.381-9.835 5.928-15.175 7.828l-2.012.687-1.598.498c-1.009.3-2.027.575-3.053.829-2.051.508-4.129.933-6.224 1.3-8.387 1.476-17.019 1.979-25.676 3.17l-1.633.24-.408.064-.204.032-.103.016.065.017.782.127c1.047.154 2.102.268 3.158.371 2.113.203 4.238.364 6.369.536 4.262.339 8.552.71 12.853 1.258 4.298.55 8.612 1.26 12.873 2.336l1.594.424 1.774.521c1.359.417 2.711.874 4.049 1.38 2.674 1.014 5.303 2.222 7.785 3.763 2.472 1.543 4.815 3.438 6.663 5.846 1.855 2.387 3.118 5.32 3.5 8.344.378 2.924.296 5.949-.411 8.852-.691 2.901-1.961 5.644-3.61 8.07-3.317 4.881-7.883 8.563-12.627 11.653-4.779 3.081-9.843 5.594-14.975 7.864 2.016-.854 4.011-1.735 5.962-2.653 4.766-2.354 9.443-5.002 13.725-8.337 4.246-3.319 8.192-7.437 10.477-12.657 1.14-2.589 1.806-5.414 1.942-8.248.08-1.422.007-2.83-.138-4.225-.161-1.442-.491-2.891-1.012-4.267-1.03-2.767-2.793-5.2-4.864-7.156-2.076-1.966-4.433-3.517-6.868-4.803-2.44-1.287-4.97-2.318-7.527-3.198l-1.927-.629-1.631-.49c-.926-.267-1.853-.508-2.78-.732-3.709-.893-7.408-1.495-11.046-1.966-3.64-.469-7.223-.794-10.736-1.09l-5.217-.457c-.859-.084-1.714-.176-2.562-.293-.424-.058-.846-.124-1.264-.202l.067-.027.179-.027.358-.054.715-.104.789-.114c4.707-.657 9.651-1.069 14.675-1.596-4.757.528-9.652.929-14.64 1.596l-.824.114-1.205.187c-.19.015.039.033.107.05l.296.048.596.086c.796.108 1.6.192 2.405.27 1.613.152 3.24.273 4.872.396 3.264.243 6.543.487 9.809.817 3.267.33 6.521.736 9.757 1.318 1.617.292 3.231.628 4.839 1.034l1.204.318 1.574.459c1.242.377 2.486.794 3.731 1.253 3.062 1.159 6.198 2.61 9.161 4.64 2.939 2.017 5.757 4.702 7.536 8.168.894 1.716 1.492 3.596 1.786 5.487.15.971.209 1.844.253 2.751.041.911.034 1.826-.028 2.735-.218 3.645-1.328 7.169-2.974 10.167-2.718 4.92-6.663 8.513-10.72 11.442-4.099 2.924-8.429 5.231-12.892 7.336-5.706 2.8-11.572 5.16-17.465 7.38-1.705.69-3.537 1.41-5.422 2.12l.24-.067c1.352-.356 3.774-1.099 7.075-2.228 3.298-1.135 7.479-2.643 12.293-4.701 4.799-2.082 10.277-4.659 15.854-8.492 2.773-1.93 5.571-4.196 8.102-7.041 2.518-2.831 4.756-6.327 5.992-10.396.618-2.025.973-4.169 1.055-6.326.041-1.068.019-2.185-.069-3.215-.066-1.061-.248-2.265-.523-3.386-.556-2.276-1.569-4.483-2.914-6.406-1.338-1.934-2.977-3.587-4.727-5.002-3.523-2.821-7.456-4.745-11.415-6.275-.993-.381-1.99-.736-2.991-1.068l-2.25-.718c-.919-.283-1.824-.527-2.711-.741-3.553-.852-6.791-1.273-9.666-1.593l-4.059-.419c-.635-.068-1.248-.139-1.84-.23l-.429-.075-.216-.042-.1-.023.158-.021 1.241-.161c5.243-.604 9.328-.84 12.432-1.312 1.553-.222 2.861-.475 3.943-.74.541-.132 1.025-.267 1.454-.399l.6-.194 1.443-.494c6.013-2.116 11.733-5.044 16.775-8.951l6.066-4.701-6.688-3.039-.889-.404-.395-.146c-.244-.085-.495-.166-.754-.24-.518-.15-1.063-.281-1.637-.392-1.148-.222-2.406-.372-3.762-.46-2.653-.174-5.693-.119-8.949.041-3.25.154-6.725.424-10.057.551-1.045.039-1.942.051-2.741.037-.399-.007-.775-.021-1.137-.042l-.525-.036.753-.066 5.446-.438c-.793.047.15-.039 1.313-.186 4.187-.433 9.09-1.123 13.165-2.17 2.518-.641 4.779-1.416 6.769-2.399.499-.243.978-.509 1.447-.781l.53-.318.618-.382c.409-.257.812-.519 1.203-.791l.585-.407.74-.539c.487-.37.955-.736 1.41-1.11.894-.759 1.742-1.522 2.482-2.307 1.239-1.248 2.721-2.822 4.504-4.803l.05-.489.012-.125-.072-.134-.161-.272-.661-1.104c-.457-.741-.926-1.496-1.456-2.253-1.062-1.511-2.401-3.026-4.102-4.307-1.687-1.288-3.752-2.306-5.99-2.869-.559-.143-1.127-.255-1.699-.345-.516-.081-.958-.138-1.435-.183-.935-.085-1.848-.105-2.727-.077-3.524.125-6.441.936-8.552 1.649-2.108.734-3.435 1.408-3.75 1.707-2.663 2.662-2.894 3.052-4.859 4.146-.962.56-2.33 1.307-4.448 2.748-2.113 1.444-4.982 3.582-8.757 7.041-.922.829-2.684 2.793-4.575 5.028-1.897 2.231-3.924 4.734-5.573 6.552-2.822 3.031-5.01 5.66-6.894 8.163-.47.627-.921 1.247-1.357 1.87l-.644.939-.201.302-.291.395c-.867 1.184-1.653 2.325-2.441 3.493-3.126 4.668-6.239 9.644-11.181 17.56-7.154 11.858-11.494 19.095-15.471 26.136-1.974 3.528-3.839 7.017-5.766 11.087-1.914 4.074-3.93 8.718-5.905 14.67-.234.725-1.285 3.55-2.413 7.53-.559 1.992-1.133 4.276-1.564 6.752-.426 2.475-.73 5.144-.597 7.902.146 2.736.721 5.657 2.452 8.103 1.668 2.344 3.844 4.229 6.011 4.854 2.196.68 4.133.065 5.264-.515 1.162-.597 1.72-1.112 1.726-1.1.931-.689 1.765-1.518 2.502-2.384.709-.835 1.246-1.569 1.786-2.374 1.057-1.579 1.936-3.171 2.727-4.749 1.576-3.157 2.801-6.258 3.89-9.269 2.153-6.029 3.729-11.715 5.152-17.215 1.411-5.505 2.643-10.831 3.835-16.227.593-2.7 1.179-5.41 1.723-8.212l.389-2.141c.062-.379.116-.709.172-1.161l.095-1.16.328-4.37c-.519-13.611-1.93-29.5-5.831-45.175-1.914-7.833-4.399-15.587-7.292-22.958-2.895-7.372-6.188-14.358-9.619-20.733-1.845-3.427-3.595-6.554-5.253-9.464l-3.3-5.759-.118-.207c-.026-.065-.13-.149-.01-.18l.427-.251c.285-.162.572-.312.859-.455.574-.284 1.15-.53 1.724-.743.572-.213 1.141-.396 1.701-.554.582-.162.997-.264 1.942-.484 3.302-.748 6.638-1.115 10.075-1.311 6.902-.392 14.169-.006 23.418.297 1.811.024 3.523.021 5.148-.01 1.615-.026 3.2-.104 4.546-.164 2.755-.119 5.146-.198 7.235-.163 4.195.067 14.263-1.261 21.392-1.339l-1.752.641c2.39-.041 7.123-.084 9.497-.077 2.375.004 1.778.211 1.193.413-1.179.411-2.34.812 1.8 1.034l6.186.149.646-13.453c-7.955-1-16.124-1.933-24.55-2.558-10.539-.316-21.071-.125-31.397.908-.583.304-1.265.612-2.695.939-3.06.38-6.101.83-9.12 1.35-1.753.806-1.056 1.349-2.22 1.896.113.807-2.924 2.042-5.525 3.286-2.605 1.24-4.79 2.457-3.181 2.912.625.106 5.174-.613 10.561-1.119 5.385-.532 11.604-.788 15.46-.578 1.787.151-2.319.88-4.015 1.597 4.974-.342 7.623-.231 8.506-.042.886.2.012.505-2.017.846 2.339-.043 4.671-.033 4.671-.033l-2.309.825c14.827-.017 30.701 1.917 46.484 3.774l.701-14.618c-11.197-.215-22.156.168-32.424.96-2.698.18-6.286.497-9.938.85l-5.416.537c-1.64.171-3.244.292-4.692.39-2.866.201-9.454-.151-11.913-.167-4.268.585-3.646 1.216-5.452 1.841-4.142.012-9.393.097-15.192.908-1.449.205-2.933.461-4.438.787-.753.16-1.511.344-2.272.541l-.778.215-.874.267c-.582.173-1.153.371-1.724.572-2.279.809-4.438 1.827-6.347 2.981l-2.87 1.74-1.449.901c-.223.154-.532.302-.683.46l-.501.469 4.737 7.901 3.479 5.95 4.143 7.196c2.375 4.085 3.933 6.529 4.315 5.967 3.205 6.59 5.129 10.53 7.047 14.57 1.882 4.049 3.792 8.198 6.067 15.465 3.01 9.621 5.454 20.845 6.583 32.885.575 6.017.828 12.229.776 18.516l-.036 2.36-.028 1.183-.016.465-.045.485c-.159 1.461-.403 3.036-.658 4.585-.518 3.114-1.123 6.248-1.774 9.362-1.388 6.822-3.018 13.469-4.94 19.938-1.943 6.444-4.13 12.816-7.084 18.581-.553 1.067-1.132 2.098-1.745 3.061-.307.48-.619.949-.942 1.39-.319.44-.683.889-.898 1.14-.486.558-1.025 1.07-1.648 1.448-.616.381-1.341.601-2.052.525-1.42-.166-2.483-1.257-3.294-2.331-.905-1.125-1.396-2.825-1.541-4.722-.271-3.833.614-8.08 1.758-12.125 2.382-8.159 5.945-15.971 9.688-23.477 7.603-15.006 16.228-28.953 25.141-42.309 2.238-3.332 4.506-6.629 6.816-9.848l1.74-2.387.873-1.158.244-.315c.11-.135.217-.298.307-.429l.405-.581c1.099-1.551 2.286-3.094 3.5-4.61 4.891-6.062 10.245-11.798 15.979-16.991 2.872-2.589 5.854-5.038 8.965-7.223 3.108-2.175 6.363-4.109 9.703-5.428 1.666-.652 3.351-1.147 4.985-1.377.817-.118 1.621-.168 2.397-.146l.576.03.418.042c.267.033.529.085.791.147 1.044.251 2.025.759 2.852 1.455.413.349.794.736 1.137 1.157.171.21.338.425.491.649l.229.338c.071.059.008.11-.036.162l-.129.157c-.76.923-1.628 1.763-2.572 2.52-.236.189-.478.373-.723.552l-.356.252-.624.421c-.428.288-.872.558-1.315.83l-.759.444-1.104.596c-2.974 1.542-6.173 2.765-10.243 3.832-2.017.537-4.344 1.017-7.226 1.475l-1.096.17-.556.084-.642.082-2.569.328-6.001.677c-1.497 1.892-3.055 2.858-4.657 3.58-1.603.701-3.251 1.107-4.946 1.414-3.392.605-6.971.765-10.809 1.155l-.49.052-.123.014-.062.007.044.007.248.031 1.004.104c.674.058 1.355.097 2.047.12 1.382.046 2.8.034 4.258-.001 2.936-.067 5.994-.243 9.166-.163 1.586.045 3.199.153 4.839.438 1.64.292 3.306.741 4.992 1.646 2.496.18 6.109.134 9.094.143 3.001.014 5.356.15 7.398.41 2.045.256 3.787.63 5.418 1.112.818.237 1.596.508 2.352.811.389.143.735.312 1.102.469l.816.384-.319-3.977c-4.226 3.158-9.014 5.598-14.054 7.455l-1.902.672-1.162.378-1.272.39c-1.703.505-3.435.95-5.215 1.354-3.547.809-7.342 1.447-11.291 2.027l-11.207 1.654c-3.455.514-6.735.963-9.896 1.38-6.338.84-12.142 1.534-18.519 2.501l-.563.286-.292.146-.147.074-.043.037.243.041c1.291.217 2.473.377 3.631.523 2.309.288 4.51.511 6.739.738 4.445.448 8.986.899 13.891 1.486 2.45.293 4.984.617 7.607.981 2.578.375 5.789.69 8.757 1.049 6.01.716 11.41 1.589 16.507 2.901.639.163 1.272.335 1.903.517l1.564.468c.987.308 1.964.637 2.928.99 1.927.705 3.803 1.509 5.584 2.442 3.546 1.858 6.77 4.299 8.736 7.47.982 1.575 1.634 3.314 1.919 5.136.264 1.856.329 3.84.1 5.699-.434 3.768-2.027 7.306-4.355 10.348-2.326 3.053-5.295 5.652-8.489 7.919-3.2 2.272-6.643 4.225-10.157 5.999-7.049 3.536-14.397 6.365-21.696 9.038-7.307 2.672-14.601 5.135-21.729 7.905-3.562 1.394-7.087 2.86-10.523 4.591l-1.283.665c-.513.276-1.079.585-1.604.894-1.066.62-2.104 1.277-3.084 1.977-1.971 1.411-3.595 2.94-5.268 4.62-.164.297.153.678.326 1.021.194.35.395.69.599 1.027.408.674.827 1.327 1.276 1.967.906 1.277 2.006 2.48 3.249 3.582 1.233 1.097 2.654 2.106 4.065 2.96 1.156.702 2.333 1.331 3.52 1.9 4.757 2.266 9.618 3.71 14.403 4.856 9.589 2.241 18.94 3.253 27.871 3.985l6.617.479 3.234.215 1.591.108.653.052.775.091c4.271.501 8.469.891 12.582 1.16 8.224.536 16.121.564 23.564-.029 7.441-.581 14.418-1.779 20.76-3.463 6.347-1.674 12.048-3.824 17.048-6.13 10.01-4.644 17.202-9.762 22.063-13.516 3.778-3.297 7.342-6.785 10.729-10.402z" />
</svg>
