<?xml version="1.0" standalone="yes"?>
<?xml-stylesheet type="text/css" href="/d0/css/jia-li.css" ?>
<svg id="svg--home" class="svg-container" viewBox="0 0 500 500" xmlns="http://www.w3.org/2000/svg">
    <g transform="scale(.05)">
        <path d="M5342 11l-3 4-1-1q-2 0-2 4 1 5 3 5 1 0 3-2 4-5 0-10zm-43 169q4 0 9 2-2 4-6 4h-2l-10-1q2-5 9-5zm-192-180l-56 6-67 10q-75 12-116 27l-46 10-46 9-39 8-39 3q-44 5-103 29l-28 27 5 11 2 16q-15 2-10 24h-5l-5 2 3 20q-1 12 3 18l-5-1-6 2q12 3 19 20l13 28q7 10 18 13l18 4 68 16 45-7 44-14q77-22 260-55l24-8 23-6 86-6 76-4 81-13q-1-3-5-3h-4q-4 0-5-4h49l45-3 33 5 31-2 9-9 9-12q9-8 29-8 21 0 29-7-1-3-4-3h-2l-6-4 20-8 19-10-6-10-6-11q2 1 3 1 3 0 3-5l-35-6-30-8q-18 4-32 4-13 0-21-3l46-5 40-6-40-9q-22-3-36-15l40 3 37 4h17l-67-10-64-1-1-3h1l1-2-1-2-4 7q-13-11-40-11h-5l-47-3 1-18-10-4h-1q-3 0 1 7l-22-2-14-3 1-2-68 5-54-6-51-6z"/>
        <filter filterUnits="userSpaceOnUse" x="4549" y="0" width="1022" height="302"/>
    </g>
    <g transform="scale(.05)">
        <path d="M7520 396l-27 4-28 3 58 3q42-6-3-10zm-304 174l-75 5-89 1 75-5 89-1zm34-175q-30 0 18 7-50 3-109 3-49 0-103-2l-144-1 6-3-666 16q-113 3-292 3-107 0-239-1-152-1-269-1-156 0-249 2l-557 13-676 18q-836 20-1146 32l-447 10-422 6-451-38-455-53-4-1-244 18q-134 15-219 57-15 12-21 26l-17 25 25-8 59-7 70 4q-34 9-16 15l46 9-21 4q-16 1-16 5l73 12 75 15-51 6 127 6 130 18-33-3 81 23 140 30 119 17 498 67 78 5 25 1 11 1 52-2 157-6 317-17 1073-39 1117-35 213-10 213-10 798-17 711-16 754-23-66-3-65-3 885-13 309 3q61 1 114 1 106 0 179-4l79-10 85-12 138-7h145l143 13 127 15-54-12-54-13 182 22 169 8q-8-7-52-13-43-8-47-17l31 4 19-2-150-24-163-29-166-18-126-5-226 4-278-3q130-7 341-7h98l197 1 193 14q-122-25-211-26l-181-3-338-15 563 5 181 23 151 25-147-28-167-23-88-3-78-1-766 1q-14 0-11-4h11q13-3 0-3l-43 7q-100-8-282-8-66 0-143 1l-451 1v-17l-97-3h-9z"/>
        <filter filterUnits="userSpaceOnUse" x="544" y="395" width="9141" height="356"/>
    </g>
    <g transform="scale(.05)">
        <path d="M2742 1918q-18 9-75 20l-90 20q18-9 75-20l90-20zm-393 256q-18 0-50 11-30 10-13 10 6 0 18-1-4-5 27-10 30-5 27-9-4-1-9-1zm6943-1693l-38 36-34 24-65 35q22-22 12-22-2 0-5 1l-46 18 16-14 13-14q-32 18-71 30-48 14-70 24l39-30q-62 42-143 64l-150 33-132 31-113 28-240 42-243 24-325 46-169 37-53 14-2 1h-2l-100 23-1089 230-1136 236-216 51-216 48-811 171-721 157q-412 89-762 180l68-11 67-11-461 104-438 91-315 59q-183 34-297 63l-78 28-83 30-282 73q-183 44-265 73l56-11q38-11 51-11 3 0 5 1l-181 55q-108 33-175 57l59-6 55-3-34 9q-21 5-19 9l325-78q187-44 279-59 308-78 508-111l-442 102q-248 54-370 93l376-80q203-42 343-59-188 36-725 159l-153 40q827-190 1233-269l12 1-11 3q-5 1-7 3h7l43-16 434-73 239-55 222-46 4 18 98-18q31-6 14-6-7 0-24 1 92-25 215-46l160-32-8 2-12 5 674-150q197-44 540-106l527-100 565-117 688-140 598-120 568-117 442-87 3-1 14-3 216-40 211-29 332-44h5l3-1 28-5q230-45 367-86 196-59 338-145 158-96 249-225l7-36 4-30z"/>
        <filter filterUnits="userSpaceOnUse" x="92" y="481" width="9200" height="2110"/>
    </g>
    <g transform="scale(.05)">
        <path d="M1365 7746l5 63 1 74q-5-16-5-62l-1-75zm175 345h-1q-7 14-1 49 2 16 5 16 2 0 4-19h-1q-4 0-3-23t-3-23zm-577-5797q11 38 15 80l4 64q-8-18-12-18-8 0-6 50l-8-18q-4-15-8-15 4 30 1 69-2 40 1 67l-7-24-9-18q18 61 22 138l4 135q2 52 13 115l16 96 46 400q9 87 33 253l35 261 43 441 43 456 70 933 16 179 13 178 29 668 22 596q9 330 28 632l2-55q-2-46 3-55 3 258 17 742l-1 259q-1 154 5 245 2 25 11 68l13 70q9 77 11 236t9 222q5-7 3-46-1-39 3-46l10 153 12 149q6-7 9-47t11-45v29q0 17 4 17l3-272q1-167 5-232l-6-189q-4-137 0-233 10 135 11 368 0 218 9 310l6-313q1-178 11-283l1 313v292l2 129q6-206 3-518l-7-510q0-9 2-9h1v9l2 6 2-6-8-36q10-113 5-356-7-288-4-378l18-1 2-81q0-17-1-17-2 0-6 25-6-75-2-178 3-84-1-131l4 15-20-559q-6-144-8-446l-9-435-25-468-37-568-79-958-31-376q-18-227-37-359l-43-296q-26-173-53-299-71-330-186-540-12-12-27-19l-23-15z"/>
        <filter filterUnits="userSpaceOnUse" x="934" y="2294" width="613" height="7589"/>
    </g>
    <g transform="scale(.05)">
        <path d="M3867 4779l7 26 3 31q-5-6-7-26l-3-31zm184 126h-1q-7 7 0 21 3 6 5 6 3 0 4-9h-1q-3 0-3-9t-4-9zm-241-2461l-49 32-36 26q6-17-1-17-2 0-4 1l-25 18 4-13 3-12-36 33q-20 16-30 33l5-29q-13 39-36 78l-36 66q-11 27-15 58l-3 48q-9 115-5 189 3 47 17 115l26 114 72 379 67 391 17 74 15 74 38 278 34 248q18 142 44 262 5-4 1-23-3-19 1-24l39 310 7 108q3 65 12 103l13 27 14 28q11 32 17 98 5 68 14 94l2-19q-3-17 2-20l24 131q7-3 10-22 3-18 11-20v13q-1 8 4 8v-120l-1-100-11-80q-8-58-7-98 15 57 21 154 7 95 17 133l-2-135q-4-76 3-121l10 132 7 126 4 57q3-94-9-224l-22-215 4-4v4l2 2q1 0 1-2l-8-15q7-49-6-150-15-120-15-158l18-2v-34q0-7-2-7t-5 11q-8-31-7-74l-3-52 3 3-33-231q-9-62-15-186l-15-180-29-193-36-234q-44-284-67-394-11-55-23-154l-20-148q-15-86-17-246v-123l5-63q6-42 20-68l1-49z"/>
        <filter filterUnits="userSpaceOnUse" x="3545" y="2444" width="544" height="3259"/>
    </g>
    <g transform="scale(.05)">
        <path d="M8629 3293q5 18 3 70l-2 82q-5-18-3-70l2-82zm161 387h-1q-8 15-3 53 2 19 5 19t5-21h-1q-4 0-2-25 1-26-3-26zm-562-1516q-226 0-411 13l-516 41-310 24-308 17-542 14-517 14-416 9-397 15-329 19-333 23q-375 32-622 109-16 10-26 23l-21 20 90-2 72 7q-62 15 31 23l-21 5q-17 1-18 5l77 10 74 9-49 10q40-5 85-5 35 0 73 3l152 13q33 2 71 2 28 0 59-1l110-6 451-12 576-35 488-19 505-14 517-20 521-41 197-22 197-20 738-31 122 1-1-7 7 7h-6q18 253 18 522l1 361q0 201 3 339 4-10 4-61t5-61q-5 179-5 422l-1 203q1 89 8 194l14 286q8 167 18 271 2 26 13 74l14 78q12 112 2 265l-27 251q7-7 14-51 7-45 12-51-13 170-77 345 12-6 31-49 20-44 29-46l-12 32q-9 20-4 21 58-134 84-314l27-269-6-214-11-262q25 201 23 415-1 138-19 361 29-149 33-364 0-217 5-322 9 247 7 357-2 186-29 343-13 85-32 153 72-239 66-608-2-126-12-295l-19-275q0-10 2-10h1v10l2 6 2-6-10-40v-180l-1-199 3-216q0-106 6-202l18 1q8-105 4-105-2 0-6 24-3-83 5-197l6-133 2 5q5-332-9-627l-19-369-170-6q-204-8-383-8z"/>
        <filter filterUnits="userSpaceOnUse" x="3480" y="2164" width="5330" height="3588"/>
    </g>
    <g transform="scale(.05)">
        <path d="M7624 4047q2 4-10 4h-11q-10 0-9 3l32 3q23-6-2-10zm-168 172l-42 5h-49l42-5zm-1090-177h-21l-307 5-374 6q-553 8-632 11-51 2-124 2-55 0-123-1l-236-1h-29q-91 0-365-8l-383 15-20 17-17 16q28 4 53 16 14 6 40 19-40 4 14 28l-14 1-12 2q19 7 44 23 23 15 42 21l-31 2q43 2 96 22l89 33 79 15 67 6 277 23q26 1 57 1 52 0 117-3l178-11 599-18 620-16 119-7 118-6 442-6 394-7 418-16-37-3-36-4 490-7 172 3q34 1 63 1 58 0 99-4l44-10 46-12 156-9 147-7-30-3-31-4 102-8 99-10q-5-7-32-10-26-3-29-11h19l11-4-180-6-154-7-124 4-154-2 243-7 205-7-207-8-187-14 207 2 193 3 85-1q-134-7-342-7l-337 1q-7 0-6-3h6l4-2-4-2-24 8-235-9q-81 1-139 1-77 0-111-2v-18q-38-4-53-4-22 0 5 8-23 2-49 2-32 0-68-3l-78-3 2-2q-146 1-369 8-28 1-62 1-92 0-231-6-176-7-264-7z"/>
        <filter filterUnits="userSpaceOnUse" x="3735" y="4042" width="5090" height="274"/>
    </g>
    <g transform="scale(.05)">
        <path d="M6168 7396q5 15 2 56l-3 66q-4-14-2-56l3-66zm156 315q-8 12-4 43 2 15 4 15 3 0 6-17h-1q-4 0-2-20 2-21-3-21zm-72-5194q1 39-6 73l-13 58q-4-20-8-20-7 0-17 44l-2-18q-1-14-5-15l-15 62-14 60-2-23-5-18q4 58-7 129l-20 122q-6 49-5 106l2 89 3 365q2 86 14 230l19 235q22 349 27 798l-1 833 2 159 1 159-19 595-17 529q-11 283-8 563l5-49q0-41 6-49l-19 660-10 230q-7 136-4 218 1 23 9 60l11 62q6 66 5 210-2 138 5 197l3-41q-1-34 4-40l7 136 10 132q7-6 10-42 4-35 12-39l-1 25q-1 16 3 16h1l8-241q4-145 10-206-3-252 6-374 6 116 0 326-6 191 2 275l12-277q6-154 20-250-8 177-14 536l-1 113 14-457 11-452q0-8 2-8h1v8l2 6 2-6-7-32q15-99 21-315 7-253 14-335l18 1 7-71q1-15-1-15t-7 21q-2-68 8-158l8-110 1 8 15-496q4-131 22-395 19-260 22-385l10-416 6-506q4-564-10-858-4-82-9-334l-13-320-28-532q-22-312-74-505l-21-22-18-19z"/>
        <filter filterUnits="userSpaceOnUse" x="6133" y="2517" width="293" height="6841"/>
    </g>
    <g transform="scale(.05)">
        <path d="M7722 5512q2 4-10 4h-5q-5-1-8-1-8 0-7 4l32 3q22-4-2-10zm-220 165l48 2-41 2-49-1 42-3zm-1048-197l-305 5-186 5-185 6-630 42-244 17-232 16-192 12-196 6q-245 8-376 35l-19 18-17 17q28 2 52 13l41 18q-38 5 15 27l-13 2-12 2 45 21 43 19h-18l-13 3q43 1 96 18l91 28 80 11 67 1 275 4 171-15 174-22 586-54 303-16 308-13 117-8 116-5 436-3 389 2q68 1 132 1 150 0 281-5l-36-4-36-5 484 11 169 11 160 5 44-8 46-10q27-3 71-3 36 0 83 2 52 3 88 3t57-2l-29-5-30-5 101-3 97-5q-4-7-30-11-26-5-29-13l19 1 12-3-178-15-151-15-275-11q32-2 72-2 72 0 168 6 93 6 150 6 32 0 53-2l-204-18-184-24 205 13 190 12 84 4-338-25-332-14-6-4h6l4-1-4-2-24 6-232-19-247-10 1-18q-42-5-55-5-16 0 7 7l-117-5-78-5 3-2q-92-3-224-3-66 0-141 1l-291-9-283-9z"/>
        <filter filterUnits="userSpaceOnUse" x="3872" y="5480" width="5031" height="346"/>
    </g>
    <g transform="scale(.05)">
        <path d="M7532 8875l-13 3q-4-1-6-1-7 0-7 4l27 3q20-4-1-9zm-189 164l41 1-35 3-41-2 35-2zm-850-191h-35l-257 7-313 14-529 33-207 16-199 19-164 21-166 21q-195 32-306 95l-12 22-10 20 45 1 36 9q-18 7-8 14l24 10-11 4-8 5q17 2 38 12l37 11-13 3-11 6q16-3 34-3 21 0 44 4l74 16 64 2 54-5 113-6 109-6 141-19 145-23 494-45 517-30 98-8 99-7 368-6 328-1q49 1 100 1 119 0 248-5l-30-4-30-5 409 16 141 15 135 10 38-6 40-8 131 7 123 8-25-6q-22-2-25-7l86 3 83 2q-2-7-24-13-21-7-23-15l16 3q3 1 4 1 5 0 6-4l-150-27-128-23-105-7-129-15 205 13 173 15-173-29-156-31 174 20 162 23 72 10-287-44-284-25-5-4h5l3-1-3-3-21 6q-63-17-197-23l-210-13 1-17-45-6h-5q-11 0 9 8l-99-5-68-5 4-3-309 1-246-8q-127-6-204-6z"/>
        <filter filterUnits="userSpaceOnUse" x="4295" y="8848" width="4235" height="363"/>
    </g>
    <g transform="scale(.05)">
        <path d="M8061 9471l-17 4-18 3 37 3q26-5-2-10zm-251 169l56 1-48 4-56-1 48-4zm80-174q-19 0 11 7-26 2-56 2-36 0-79-3l-95-3 8-3q-182 1-423 11-72 3-185 3-68 0-151-1-96-1-170-1-98 0-157 2l-350 15-425 17-719 22q-53 2-123 2t-158-2l-267-4-222-8-226-17q-196-14-326-14-62 0-108 3-13 6-23 15l-20 15q31 6 59 20l46 23q-43 0 15 29h-16l-13 1q21 8 49 26 26 17 48 25l-20-2-16 1q49 7 108 30l102 38 90 21 78 9 316 34q45 3 101 3 45 0 98-2l204-8 1390-56 135-11 134-10 504-19q344-12 448-13l476-15-41-3-42-4 560 7 195 14 185 10 51-7 54-7 178 8 168 11q-4-5-34-7-29-2-34-8l117 6 113 5q-4-7-34-15-29-8-32-16l21 4q4 1 7 1 7 0 7-4l-205-31-176-25-143-8-177-15 280 14 236 18-236-32-215-32 238 22 222 25 98 11q-273-48-781-73l-7-4h7l5-1-5-2-28 6-270-20-287-8v-18l-62-4h-5z"/>
        <filter filterUnits="userSpaceOnUse" x="3626" y="9466" width="5806" height="316"/>
    </g>
    <g transform="scale(.05)">
        <path d="M1492 3314q3 5-2 12l-7 12q-3-5 2-12l7-12zm114 137q-6 0-4 7 1 5 4 5 2 0 4-1-4-2-1-5 4-4-1-6h-2zm197-1090l-11 12-16 6q-2-8-11-8-6 0-14 3-2-1-1-5l-3-5-18 7q-13 2-18 6l-3-11q-1 13-16 23l-28 16q-9 8-12 19l-3 18-11 38-8 36q-5 32 7 106 4 79-8 172l-31 171-4 34-6 33-40 114-41 100q-27 57-41 109l8-7q3-7 7-7h1l-33 61-32 58-29 38q-18 22-23 39l1 15 2 18q-2 16-19 40t-19 37q1 1 2 1 3 0 6-4 3-5 6-5h2l-11 28-10 28 14-1 14 1-4 4 1 5 37-38 33-32q30-54 45-68-7 28-34 62-27 35-32 53l44-45q23-26 44-37l-37 49-37 45-16 20 68-77 55-83h4l-1 2 1 2h2l-2-10q22-13 45-53 28-51 38-62l16 8q15-15 9-15-2 0-5 1 3-15 17-29l14-19 1 1 42-98q9-25 40-75 28-46 36-73l26-84 14-51 11-52q24-116 24-181 0-22 7-71 6-44 4-68l5-115q0-70-32-126l-33-23z"/>
        <filter filterUnits="userSpaceOnUse" x="1325" y="2361" width="543" height="1351"/>
    </g>
    <g transform="scale(.05)">
        <path d="M2043 4144l-2 2q1 0 2-2zm-10-1q-4 7 3 8l5-5h-1q-1 0-2-2l-5-1zm-163 66q4 0 9 5l7 10h-1q-4 0-9-5l-7-10h1zm-519-695q-30 0-61 13l-28 29q6 2 8 12l1 8v7q-9 4-12 22l-3 2-4 2-3 16-3 15-8 3q9 1 8 15l-1 24 7 12 11 5 41 32 38 17q32 11 44 17 58 29 124 92l115 117 25 20 24 20 75 84 67 75q37 43 79 72l-3-9q-6-5-4-9l85 89 26 34 30 28 14 1h17q14 3 33 21 19 17 32 19l-3-7q-6-4-4-8l25 10 24 8 1-13q-3-6 2-13 2 5 4 5t3-3q-41-44-49-63-39-29-48-46 20 9 46 36 22 25 39 29l-30-40q-17-21-20-41l63 69 14 13-52-61-55-56 2-4 1 1 2-2-9 1q-3-21-30-49-30-31-36-46l14-11q-5-13-7-13t-3 6q-12-6-17-22-6-14-12-17h5l-61-65q-17-17-40-59t-38-58l-20-20-28-30-61-66q-78-84-124-118l-54-45q-32-28-56-40l-50-28q-31-18-51-26-30-13-61-13z"/>
        <filter filterUnits="userSpaceOnUse" x="1238" y="3514" width="954" height="908"/>
    </g>
    <g transform="scale(.05)">
        <path d="M658 584l9 32q-2-3-3-3-2 0 0 11l-5-7 6 31-6-8q11 21 20 61l20 45 41 84 61 101 211 355 197 307 77 105-6-12 101 132 37 45 36 41 24 19 38 37 37 33-14-15 52 42-6-8-5-9 8 6-77-80-63-69 55 59 49 48-46-51-39-48 90 98 20 19q-104-108-151-167l1-1-7-5-46-63-50-67 4-3-10-13-23-32-14-22h1l-70-102-52-84-49-83-226-384-80-143-65-118q-39-71-69-109l-13-5z"/>
        <filter filterUnits="userSpaceOnUse" x="658" y="584" width="933" height="1436"/>
    </g>
    <g transform="scale(.05)">
        <path d="M3216 1455v1h1l-1-1zm-904-801l-1 23 2 15q-2-4-3-4t-1 2l1 11-5-8 7 32-6-8 27 53 27 34 54 57 77 63 266 214 52 41 182 148 93 71-7-7-8-7 108 85 37 31 36 27 24 11 36 24 34 23-6-6-7-6 48 28-5-7-5-7 7 4-73-56-62-46 55 39 47 33q-60-45-84-70l88 67 19 13-150-114v-1l-5-3-50-43-53-44 2-3q-12-12-13-12t2 4l-25-21-20-17 5 2-81-64-62-54-60-53-148-121-137-112-102-89-80-75-37-40-31-45-9-12z"/>
        <filter filterUnits="userSpaceOnUse" x="2305" y="654" width="1074" height="947"/>
    </g>
    <g transform="scale(.05)">
        <path d="M4079 667l-10 5 13 14h-2q-4 0 1 7l-5-1 11 16-6-2 15 12 11 14 23 16 44 29q18 12 60 32 72 40 198 134l38 26 130 101 67 48-10-10 78 56 27 20 27 17 18 5 27 14 25 14-4-4-5-4 36 16-4-5-4-6 6 2-54-35-45-29 40 24 35 19-61-45-31-21v-2l1 1v-1l-5-1-35-29-38-29 2-3-7-7q-1-1-2-1t1 3l-18-14-14-12 4 2-58-44-86-74-107-81-105-72q-55-37-82-51l-68-38q-41-22-72-26z"/>
        <filter filterUnits="userSpaceOnUse" x="4069" y="667" width="817" height="575"/>
    </g>
    <g transform="scale(.05)">
        <path d="M5474 585l-4 1-4 4-3 7-2 3 8 1 3 2 2-3 1-3v-11l-1-1zm-2 18l-4 5-11 4h-6l-6-2-2 3q-3 0-3 5h-2l-1 10h-3l5 6 2 9 9 10 18 17 30 17q36 19 91 71l18 14 78 88-1-3-1-3 28 36 17 26 10 5 9 11 9 11v-3l-1-3 14 14q-2-5 1-8l3 3-15-30-15-22 15 18 11 16q-13-22-16-35l25 41-25-41-10-16 1-1v1l1-1-3-1-11-19-14-20 4-3-3-5-1 2-6-9-4-7-23-27-33-44-20-21-74-64-38-27-32-22-15-6z"/>
        <filter filterUnits="userSpaceOnUse" x="5434" y="585" width="344" height="366"/>
    </g>
    <g transform="scale(.05)">
        <path d="M647 514l-27 33q3-7 2-7-2 0-11 10l4-10-27 31 5-13-22 36-23 33-29 57-47 108q-9 22-47 141-94 294-153 495l-27 97-97 343-43 172 5-14q3-13 5-15l-51 203-18 70-15 67-3 39-12 65-10 62 6-25-12 84 5-12q3-11 5-12l-1 13q22-106 31-138 14-71 26-115l-21 101-17 85q25-112 42-162l-38 166-7 35 64-280 1-3v3h1v-10l27-96 27-103 4 1q8-25 7-25l-3 5 14-48 11-38 39-144 36-119 37-117q21-77 37-125l128-410 68-194 62-155 63-149-1-16z"/>
        <filter filterUnits="userSpaceOnUse" x="0" y="514" width="648" height="2062"/>
    </g>
    <g transform="scale(.05)">
        <path d="M4781 3274l2 5 2 4q6-1 3-8l-7-1zm109 89q2 11-17 40l7-19 10-21zm-331-659q-54 4-97 22-88 34-175 136-58 69-94 145-41 86-48 168-9 94 30 176 36 74 113 129 22 15 55 31l55 24q79 38 167 38 27 0 54-4 103-14 182-72 93-66 106-171l-7 16-8 16q21-52 16-117-5-52-34-106-22-38-46-66-28-33-61-46l-22-3-23-1-66-8q-7-1-13-1-28 0-47 12h13l12 1q-46 15-68 38l14 1 13 3-6 2q-4 2-2 5 30-12 57-13h6q25 0 42 8 19 2 40 11 27 12 43 31-46-26-73-35l-61-1 58 11q32 12 46 36-25-20-53-28l-51-5-21 5q14-3 28-3 30 0 59 12 49 20 79 62l-1 3-1-1q-1-1-2-1t-1 2l9 3 19 65 3 14v19l-7 33-13-3-7 11 6 1q-1 15-13 25l-13 15-1-2q-31 40-83 62-30 13-69 13-11 0-24-1l-45-9-40-12q-66-25-99-51-50-39-66-79-16-41-6-98 10-53 41-112 42-77 143-145 36-23 76-30l81 5q37 11 78 45l73 68 33 6-4-15-2-42q6 7 9 7 6 0 4-24l5 6 6 6-2-32-6-33 15 17-35-63q-20-39-43-64-39-39-114-59l-116-9z"/>
        <filter filterUnits="userSpaceOnUse" x="4143" y="2703" width="766" height="870"/>
    </g>
    <g transform="scale(.05)">
        <path d="M4042 2991l-12 1 9 18q-1-1-2-1-3 0-1 8l-5-3 8 20-6-4q12 10 25 34l24 20q31 21 51 30l71 20 240 13 46-6 85-10 74-12 78-19-14 1 91-23 32-8 30-9 15-10 28-11 26-11-12 2 35-17-13-1 5-2-61 17-50 15 43-15 37-13-73 17 72-22 15-5-122 36-1-1h1v-1l-4 3-44 9-46 10v-5q-14 2-9 3l-22 4-14 2-67 13-108 9-125 6-115-9q-26-3-86-22l-66-32-63-39z"/>
        <filter filterUnits="userSpaceOnUse" x="4030" y="2991" width="928" height="158"/>
    </g>
    <g transform="scale(.05)">
        <path d="M4567 2751l-2 18q-1-2-2-2-2 0-4 6l-2-4-6 15-2-5-1 15-4 15-2 22-4 43-7 57q-16 86-94 190l-26 34-55 58-52 49-55 51h3l-61 49-49 36-10 15-21 18-20 17 5-2 5-3-26 26 6-2 6-1-3 4 49-33 40-31-34 28q-22 16-29 23l61-38-71 52 99-72h1v1l1-1 2-3 35-24 37-28 2 3q11-7 10-7t-3 1l17-13 11-9 1-1h1l49-45q56-47 80-74l37-44 42-59q39-61 54-109 21-68 22-90 10-100-21-142l-10-4z"/>
        <filter filterUnits="userSpaceOnUse" x="4075" y="2751" width="525" height="720"/>
    </g>
    <g transform="scale(.05)">
        <path d="M4468 3160l-9 4 4 6 2 6h-2q-3 0 0 6l-4-1 5 14-5-2q9 5 16 21l15 12 31 18 45 13 149 35 129 25 51 7-4-2-5-2 59 12 20 6 19 4 12-3 19 3 18 2-6-3 25 1-6-7h4l-40-13-33-8 29 5 25 5-43-16 55 15-58-16 3 1-26-7v-1l1-1-4 1-27-8-30-7 1-5h-6l-14-3-11-3 3-1-44-8-34-9-32-9-150-36-55-19-44-18q-28-12-48-14z"/>
        <filter filterUnits="userSpaceOnUse" x="4459" y="3160" width="593" height="184"/>
    </g>
    <g transform="scale(.05)">
        <path d="M4504 3322l-21 8-7 7v5l-4 6-2 1-2 7-2 1 1 3-1 5 3 2 8 3 14-3 41 5 8 1 21 13 11 6v-2l10 9 3 4 3 3 6-2h1q3 0 7 4v-3l8 1 2-5h1l-4-9-5-6 6 4 5 3q-5-6-4-12l7 9 2 2-12-16h-1l-3-7-4-6 3-3v-3l-1 3-4-5h1l-9-7-11-13-8-4-12-4-21-4-18-1z"/>
        <filter filterUnits="userSpaceOnUse" x="4466" y="3322" width="154" height="86"/>
    </g>
    <g transform="scale(.05)">
        <path d="M6601 557l-8 7v7h1l10 2v-6l-1-7-2-3zm-8 14l-7 1-4 1-1 2 2 1h4l6-5zm10 2l-1 4-10 9-10 2-2-1-4-1h-1l-2 3-3 5-2 1-1 8-2 1 2 4 1 7 7 5 14 8 23 4q30 7 70 31l13 6 40 31 21 15v-2l19 18 14 15 7 1 8 6 8 6-2-5 12 7 2-6 2 1-12-19-12-13 12 11 10 9-13-23 16 20 4 4-28-34 1-1h-2l-8-12-10-12 3-3-2-3q-1 0-1 2l-5-6-4-4h2l-18-14-25-26-36-23q-20-13-36-17l-30-11-25-8z"/>
        <filter filterUnits="userSpaceOnUse" x="6565" y="557" width="266" height="204"/>
    </g>
    <g transform="scale(.05)">
        <path d="M4854 7959l-2 1-11 10-6 8q0-6-1-6-2 0-6 8v-6l-12 15v-5l-11 29-1 21 2 38 12 46 10 44v-2q6 53 1 114l-1 31-40 159 6-7-26 59-21 38-1 13-19 36 6-6-11 25 4-2 5-1v1l26-34 19-33-15 30-14 24 17-23 16-20-30 46-6 10q21-26 50-79h1v-3l17-28 14-32 4 2 4-6q1-1 0-1l-2 2 6-15 5-13v3l14-49 22-77 5-42 3-52-1-65-1-6 1 4-4-21-12-64-16-89v-17l1-7-1-5z"/>
        <filter filterUnits="userSpaceOnUse" x="4722" y="7959" width="165" height="663"/>
    </g>
    <g transform="scale(.05)">
        <path d="M5763 7955l-8 11q0-3-2-3t-5 4l-1-4-10 10v-5l-5 12-8 11-4 18-5 36q-1 15 4 47l6 78 9 79 28 134 18 47-1-8q9 28 25 56l9 20 11 16 11 7 13 14 13 13-4-7 19 15v-4l-1-5 2 2h2l-22-32-19-27 17 23 16 18-13-20-9-20 26 37 6 8-42-65v-1l1 1v-1l-2-1-10-26-10-26 4-2q0-9-1-9t-2 4l-3-12-2-9-12-41-5-33-3-34-15-158-2-61 1-50q0-30-7-50l-8-7z"/>
        <filter filterUnits="userSpaceOnUse" x="5715" y="7955" width="166" height="601"/>
    </g>
    <g transform="scale(.05)">
        <path d="M5524 8528v1l2-1zm-179-663q-53 2-97 14-83 20-138 50-66 35-102 60-54 37-82 75-2 7-1 13 6-5 25-12-4 4-1 4 2 0 9-2l-5 5 25-8-6 6 23-13 25-9 35-20 110-56 45-20q73-29 144-29h17q92 5 155 66 28 25 45 51 27 45 51 118 18 65 18 113 0 65-19 121l9-20q-28 84-89 114-22 11-46 11-26 0-53-13l-27-11q-17-11-34-34l-25-38 4 9 3 8-29-54 1 10v9l-4-8 23 52 29 43q36 38 86 49-43-5-78-40-21-20-43-54 33 66 98 97-35-13-64-43-20-18-39-53l-13-25q28 63 68 95 28 23 59 30 17 5 35 5 16 0 32-4l2 1 7-3q44-8 77-45 27-28 48-74l5 2q9-21 8-21l-3 5 11-39 6-32v7q8-53-3-122l-22-93-15-42-19-43q-29-48-64-82-45-45-110-65-49-16-107-16z"/>
        <filter filterUnits="userSpaceOnUse" x="4925" y="7865" width="763" height="666"/>
    </g>
    <g transform="scale(.05)">
        <path d="M4961 8460l-2 2 2 1v-3zm60-348l-6 7-7 1-1-3-9 7-1-3-3 8-7 6-2 12-3 23 3 32q3 47-14 109l-4 21-28 69-14 36 3-3 2-2-19 39-8 14-6 13 1 10-4 13-3 13 3-5-3 18 7-2 1 1 14-24 11-22-8 20-6 17q10-21 20-29l-4 10 12-25h1v-2l12-17 10-20 4 2q6-5 4-5-1 0-3 1l5-10 5-5 13-31 25-48 9-27 9-35 9-60 2-46-1-37q-1-22-12-37l-9-4z"/>
        <filter filterUnits="userSpaceOnUse" x="4891" y="8112" width="152" height="435"/>
    </g>
    <g transform="scale(.05)">
        <path d="M4721 8672l-9 1-4 5-6 2h-2l-6 5-2-1v5l-4 4 2 6 6 10 15 9q16 10 37 35l7 7 14 28 7 15 1-2 5 16 2 13 6 2 3 6 2 5 1-2 6 7 5-3 1 1 1-14-1-11 3 9 2 9q-1-11 4-17l-1-8 1-1h-1l1-10-2-11 4-1 1-2h-1q-1 0-1 1l-1-5-1-4 2 1-6-14-3-11-2-12-16-22-18-18-16-14-13-11q-9-6-23-8z"/>
        <filter filterUnits="userSpaceOnUse" x="4688" y="8672" width="132" height="176"/>
    </g>
    <g transform="scale(.05)">
        <path d="M5603 8542l-160 1-187 18-171 23-130 18-107 14-102 19-8 10 26 5q-6 1-3 3l8 3-7 2 25 7-8 2 52 6 40-1 75-5 93-17 327-45 64-7 120-7 221 2-20-4 93 9h5l-1 45-13 90 1 26-18 81 7-15-13 54 5-7q3-7 5-7l-2 8 17-48 13-41 15-76-11 67-14 56 31-107-27 110-7 23q31-81 43-187l1-2v2h1l-2-7 6-60v-38l-114-12v-5q-11-1-14-1t1 2l-59-4 5-1-102-1z"/>
        <filter filterUnits="userSpaceOnUse" x="4738" y="8541" width="1148" height="338"/>
    </g>
    <g transform="scale(.05)">
        <path d="M5140 8635l-4 4-6 2-2-1-6 4-2-1-1 4-4 4 1 7 5 11 14 10 35 38 6 7 12 28 6 15 2-2 4 16v13l6 3 2 6 2 5 2-2 4 8 6-3 1 2 3-14-1-12 2 10 2 9q0-12 5-18v-8h1l-2-1 2-10-1-10 4-1q5-5 4-5t-5 3v-4l-1-4h1l-5-14-4-22-5-10-8-12-17-19-14-14q-12-17-34-22z"/>
        <filter filterUnits="userSpaceOnUse" x="5115" y="8635" width="127" height="179"/>
    </g>
    <g transform="scale(.05)">
        <path d="M5496 8627l-4 4-6 1-2-1-6 4-2-1-6 8 1 5 3 8 13 10 27 40 5 8 3 15 3 13 5 14 1-1 3 15-1 6q-1 4 1 6l5 2 3 5 2 5 2-2 5 6 5-3 1 1 2-11-1-10 2 8 2 7q1-9 5-14v16l1-22h1l-2-1 2-8 1-8 4-1q3-3 2-3l-3 2v-7h1l-2-12v-20l-8-23-13-22-13-16-11-13-21-10z"/>
        <filter filterUnits="userSpaceOnUse" x="5470" y="8627" width="106" height="170"/>
    </g>
    <g transform="scale(.05)">
        <path d="M5595 8801q-6 0 2 2l-34 1h-27l5-1-105 5-83 2-82 1-195 12-180 17-138 13-112 11q-67 7-106 20l-9 10 28 4-3 4 8 3-7 1 26 7-9 2 54 6h41l78-4 98-13 345-33 67-6 237-12 119-6-10-1-10-1 139-3h49l46-1 26-6 44-2 42-2-17-2 57-4-9-3-8-3h8l-95-3h-79q17-1 42-1h27l58-2-112-6h-55l-2-1h2v-1l-7 2q-15-1-40-1h-27l-71 1v-5l-16-1z"/>
        <filter filterUnits="userSpaceOnUse" x="4531" y="8801" width="1448" height="120"/>
    </g>
    <g transform="scale(.05)">
        <path d="M6446 6718l-140 14-12 10 36 5q-16 3 7 6l-9 2 33 8-11 1 68 9 54 4 99 8 128 8 173 28-2-17 15 19-13-2 12 245 3 89-3 165-6 148-5 156 2-13 2-14-9 184-3 64-2 60 4 35 1 58q-1 38 1 55l2-23 3 75 3-12 3-11 1 12 5-125q0-66 3-103l-1 90-1 77q3-101 10-147l-1 51 5-123 1-2v2h1l-2-9 7-87 6-94h4v-18l3-44 2-35 1 7 5-139 11-218-5-259-8-116-2-29-25-5-122-23-183-22-149-5z"/>
        <filter filterUnits="userSpaceOnUse" x="6294" y="6718" width="646" height="1387"/>
    </g>
    <g transform="scale(.05)">
        <path d="M6665 7103l-53 1-91 7-69 8-56 9q-33 6-53 19l-4 10 14 4q-5 2 2 7l-3 1 12 8-4 1 13 2 13 5 58-2 49-10 171-15 34-3 118 3 59-1-5-1-5-1 69 1 23 3h23l13-6 22-1 21-2-9-1 28-5q-7-1-8-5l4-1-46-4-39-1h34l28-1-28-3-26-4 67 2-94-4-1-1h1v-1l-4 2-32-4-35-2v-5q-5-1-7-1-3 0 0 2l-27-2v-1l-52-1-81-6z"/>
        <filter filterUnits="userSpaceOnUse" x="6339" y="7103" width="716" height="82"/>
    </g>
    <g transform="scale(.05)">
        <path d="M6658 7416l-39 4-37 7-29 6-24 5q-16 3-27 13l-4 9 4 6q-4 3-1 6l-2 2 4 8-3 1 6 4 5 6 9 2 18 1 24-8q30-10 75-15l14-4 50-1 25-3-1-1h-1l-2-1h29l10 1h9l6-6 9-1 8-2-3-2 12-4-4-6 2-1-20-3h-16l14-1 12-2-23-6 24 2h5l-40-3v-2l-1 2-14-3-14-1v-5l-3-1v2h-7l-5-1 1-1-22 1-33-4z"/>
        <filter filterUnits="userSpaceOnUse" x="6498" y="7416" width="304" height="80"/>
    </g>
    <g transform="scale(.05)">
        <path d="M6653 7839l-48 5-44 10-33 11-27 10q-16 6-26 19l-2 10 7 4 1 6-1 2 6 7-2 2 6 2 6 4h10l18-2 24-12q30-14 82-21l16-4 85 1-2-1-2-2 33 4 11 3 11 2 7-4 11 1h10l-3-3 14-1-3-6 2-1-21-8-20-4 17 2 15 2q-19-5-26-12l-14-3v-1l-1 1q-5-4-16-6l-18-3 1-5-3-1q-1 0 0 2l-8-2-7-1 1-1-26-1-41-5z"/>
        <filter filterUnits="userSpaceOnUse" x="6473" y="7839" width="348" height="93"/>
    </g>
    <g transform="scale(.05)">
        <path d="M6615 7781v1-1zm-12-1257l-10 32q0-6-2-6-1 0-1 1l-4 10-1-9-12 30v-11l-5 33-9 30-5 49-4 92q0 38 7 117l27 403 7 78 15 278 9 130q-1-13 1-16l7 163 2 110 6 31 3 51 2 49 2-20 5 67 2-11 3-10 1 11 2-112-2-92 3 81 3 68q-1-90 3-132l1 134v28q3-64-2-226l1-2v2h1l-2-8v-79l-2-82 4-1 1-17q0-4-1-4t-1 5q-2-16-1-39v-25l-7-123-2-97-3-95-25-437-6-160q-2-39-1-131l-2-126-8-12z"/>
        <filter filterUnits="userSpaceOnUse" x="6550" y="6524" width="110" height="1692"/>
    </g>
    <g transform="scale(.05)">
        <path d="M6815 8222q-3 0 3 3h-15l-13-1 3-1-49 3h-78l-41 4-50 6-84 17-63 16-52 15q-30 9-47 24l-3 11 14 3q-5 2 3 5l-3 3 13 5-4 3 25 3 19-2 35-6 44-15q55-18 157-33l31-6 111-6 55-5-10-1 65-2 44 1 12-5 21-2 19-2-8-2 27-4-8-5 4-1-44-4h-37l32-1 27-1-27-3-25-4h-26v-2l-3 2-31-3-33-1v-4q-8-2-10-2z"/>
        <filter filterUnits="userSpaceOnUse" x="6326" y="8222" width="670" height="119"/>
    </g>
    <g transform="scale(.05)">
        <path d="M6408 8520l-4 5-6 1-2-1-7 5-2-1-1 5-5 5v9l3 15 12 19q15 22 28 66l5 13 9 45 6 23 1-2 1-2 4 26 2 18 7 4 4 7 3 5 1-2 3 2 4-2h-1 1l4-2 1-2v-6l-3-13 4 11 3 7q-2-11 2-17l2 16-13 7 14-7v-3l-4-23h2l-2-1 1-12-1-13 4-1q2-4 1-4l-2 2v-12l1 1-4-19-1-31-10-37-13-34-12-26-10-21-20-20-10-2z"/>
        <filter filterUnits="userSpaceOnUse" x="6381" y="8520" width="108" height="265"/>
    </g>
    <g transform="scale(.05)">
        <path d="M6856 8361l-69 4q-72 6-118 19-62 17-86 29-46 22-65 35-34 23-49 50l1 11q3-2 16-5-3 4 1 4 2 0 5-1l-3 4 17-2-3 4q5-4 14-6l15-3 22-10 40-17q17-8 53-25 73-29 211-35l42-4 64-1 1 12 6 70 3 75 2-5-4 81-9 59 3 17-9 55 4-10-6 37 5-4 4-5-1 6 11-33 8-28 9-51-6 45-7 38 10-37 10-34-16 74-5 16q17-46 27-126l1-1-1-4 7-43 3-46h5l1-10v-2l-2 3 1-22v-18l1 4-10-161-154-3z"/>
        <filter filterUnits="userSpaceOnUse" x="6469" y="8361" width="551" height="442"/>
    </g>
    <g transform="scale(.05)">
        <path d="M6693 8524l-19 2-22 4q-22 4-36 12-18 6-26 12l-21 11q-12 7-19 21l-2 9 6 5 1 6-1 2 6 7-2 2 6 1 5 4h8l15-4 17-13q23-15 64-24l12-4h24l44 6-3-3q18 6 25 11l8 6 7 6h7l14 15v-5l10 11 1-3 2-3 2 2-10-25-15-15 14 13 11 12-8-15-8-14 20 28 3 6q-7-25-34-44v-1l1-1-3 1q-4-7-14-12l-16-8 2-4q-4-4-5-4t1 3l-8-3-6-2h2l-25-4-35-7z"/>
        <filter filterUnits="userSpaceOnUse" x="6548" y="8524" width="285" height="100"/>
    </g>
    <g transform="scale(.05)">
        <path d="M6784 8747q-1 0 2 3h-8l-6-1 1-1-25 2-20-1-19-1-46 7-43 12q-23 6-33 11l-26 10q-16 6-26 19l-2 10 7 4q-5 3 1 6l-2 2 6 7-2 2 7 2 6 4h10l18-2 23-12q26-12 82-24l16-4 57-5 28-3-2-1-3-1 33-1 11 1h11l7-6 20-3-4-2 13-4-2-3-2-3 2-1-22-3h-19l17-1 13-2-26-6 27 2h5l-22-3h-23l-1-1-1 1-16-3-17-1v-4q-4-2-5-2z"/>
        <filter filterUnits="userSpaceOnUse" x="6533" y="8747" width="343" height="98"/>
    </g>
    <g transform="scale(.05)">
        <path d="M7436 8138q-2 59-2 118l2-118zm-2 118l-1 55 1 22v-77zm-304-1907l-193 10q-10 4-16 10l49 5q-16 2 9 7h-6l-6 1 46 9-16 1 49 4 46 7 74 6 141 7 167-3-4-33 33 31-16 1-13 1q22 226 7 572l-5 122-36 428-16 214 3-18 2-19-18 252-9 171 4 46 2 80q0 51 3 76-2-27 1-31l8 101 2-16 2-15 1 16v-170l4-142-2 124q-2 67 2 104 2-153 8-200l-1 30q2-64 6-129l1-3v3l1 2v-2l-1-12 11-120q6-88 11-127h4l1-25 6-60 5-45v6l16-189 30-298 9-159 7-195q5-188-8-329l-8-105-24 1-170 2-203-5z"/>
        <filter filterUnits="userSpaceOnUse" x="6921" y="6348" width="623" height="2059"/>
    </g>
    <g transform="scale(.05)">
        <path d="M7505 6719l-4 1 5 1-1-2zm-172-6l-41 1-50 1-86 3-33 2-33 1-54 2q-33 1-53 10l-6 9q3 0 12 7-4 1 1 6l-3 1 11 10-5 1q10 0 25 10l20 4 38 3 48-6 167-9 32-3h114l56-3-9-2h66l45 1 13-5 21-2 20-2-9-2 27-4-4-3-4-3h4l-82-4 32-1 28-2-53-6-26-1-1-1h1v-1l-4 2-31-3-34-1v-5l-7-1q-3 0 1 2h-16l-10-1v-1l-50 1-78-5z"/>
        <filter filterUnits="userSpaceOnUse" x="6977" y="6713" width="690" height="71"/>
    </g>
    <g transform="scale(.05)">
        <path d="M7483 7287l-47 11h-1l-1 1-17 1-18 3-1-5q-6 0-3 2l-8 1-7 1 1-1-26 5-43 3-51 11-47 13-37 11-31 11q-18 6-29 19l-2 10h1q3 0 7 4-4 2 1 7l-2 1 7 7-2 2 7 2 7 5 12-1 21-2 27-12q24-11 93-28l18-6 64-12 31-9h-3l-3-1 37-8 13-2 12-4 5-7 11-5 10-5-5-1 12-9q-4 0-6-3l2-2-24 5-20 5 17-6 14-6-29 3 28-7 5-2z"/>
        <filter filterUnits="userSpaceOnUse" x="7115" y="7287" width="381" height="126"/>
    </g>
    <g transform="scale(.05)">
        <path d="M7226 7755l-45 3-41 6-32 5-26 2-31 5-7 7 3 8q-4 0-2 6h-3l4 11h-4l8 6 6 8 12 4 22 4 27-6 85-13 16-3h83l-2-1-3-2 33 3 11 3 11 2 7-4 11 1 10 1-2-2-2-1h15l-1-3-1-4h2l-23-10-19-4 17 2 15 3q-18-6-26-12l34 9-35-10 1 1-14-4-1-1-1 1-16-5-17-3 1-5-4 1-8-1-5-2-25-1-38-5z"/>
        <filter filterUnits="userSpaceOnUse" x="7042" y="7755" width="348" height="75"/>
    </g>
    <g transform="scale(.05)">
        <path d="M7403 8214l-48 2-59 3-99 9-76 8-62 5q-37 4-60 14l-5 9 14 6q-5 2 2 7l-4 1 14 9-5 1h2q11 0 27 9l24 2h43l55-9 190-19 37-3 196 1-5-1-6-2 77 7 26 5 25 3 15-2 43 5-4-3 32 4-4-4-4-4 4 1-51-16-44-8 39 5 33 6-32-9-30-10-31-5v-1h1v-1l-4 1-37-7-40-4v-5q-6-1-9-1t1 2l-18-2-14-2-57-2-46-2-46-3z"/>
        <filter filterUnits="userSpaceOnUse" x="6994" y="8214" width="798" height="85"/>
    </g>
    <g transform="scale(.05)">
        <path d="M7286 8139q0 6 3 20l-3-20zm-12-2014l-4 40q-1-8-3-8t-3 15l-2-10-7 38-2-12q2 29-6 77l1 60 5 113 14 142q23 225 31 498l4 97-12 516 2-15 2-15-13 202-5 70-3 66 5 38 3 63 5 39q0-3 1-4l9 38q6 22 14 29-6-14-3-18l4 8q-8-21-12-63l-1-61q-3-65 2-112l-1 99q0 52 5 80-4-103 4-157-5 93 1 159l3 17q-5-39-5-118l5-137 1-2v2h1l-1-10 9-95 8-103h5l2-22v-4l-2 6 6-88 1 8v-47l1-2 4-103 8-241-2-128-5-155-16-262-15-199-12-162q-8-97-21-155l-10-12z"/>
        <filter filterUnits="userSpaceOnUse" x="7247" y="6125" width="108" height="2077"/>
    </g>
    <g transform="scale(.05)">
        <path d="M7082 8736l-3 2-1 1 3 2v-1l1-1v-3zm-1 5l3 2 10 5-5-3-5-3-3-1zm0-219l-6 5q0-2-2-2-1 0-4 2l-2-2-8 4-1-2-9 11-1 9 1 16 10 19q13 27 22 65l4 13 6 43 5 21 2-2 4 23v8l1 3 1 1 1-1 5-4 6-3 16-7 3-1 1-1h-1l2-8-1-12h4q2-4 1-4l-2 2v-10l1 1-2-18v-15l1-14-3-15-4-19-10-32-9-25-8-21-15-24-9-4zm27 233l-3 1-1 2 4-3z"/>
        <filter filterUnits="userSpaceOnUse" x="7048" y="8522" width="93" height="236"/>
    </g>
    <g transform="scale(.05)">
        <path d="M7649 8822q-2 2-1 7 0 2 1 2t1-3l-1-6zm-16 122l-9 68-5-1 14-67zm-322-509q-19 0-31 1l-75 7q-42 6-69 20l-5 10 18 4q-6 3 3 6l-4 2 17 7-6 2h6q12 0 28 6l75-1 61-5 105 10q58 17 94 52l28 32q20 34 31 74 10 34 13 72l6 77 2-4-3 82-6 62 2 11 2 6-13 1-6-1q-15-1-55-24l9 9-34-23q-1 4 5 12l-5-3 29 25 29 17 57 18 3-35 4-31-6 70-37-12-55-25q18 14 54 29l28 12-29-10q-37-13-57-28l-14-10q25 24 70 39l47 16 11-106 1-1v1h1l-2-5 6-44 2-48h5l1-11v-2l-2 3v-41l1 3-8-73-13-60q-8-34-22-58-19-32-42-55-25-28-67-48-59-30-126-32-37-2-62-2z"/>
        <filter filterUnits="userSpaceOnUse" x="7131" y="8435" width="521" height="579"/>
    </g>
    <g transform="scale(.05)">
        <path d="M7366 8620zm92 31l-6 10 5-7 1-3zm-96-76q-5 0-3 2h-15l1-1-24 5-39 4-20 7q-5 1-23 9-21 8-39 21l-28 18-21 18q-14 12-14 27l4 9 6 2 3 5v2l7 5-1 2h5l6 3 7-3 14-7 17-17q25-22 69-40l14-8 52-12 26-6h-1q-2 0-3-2l32-2 22 3 9-2 9 4q6 8 4 14l-7 16 5-4-9 16h4l3 1-1 2 14-13 4-7 3-11-1-13-5-12-21-13-15-4 13 1 17 8 6 6 5 8q6 11 4 20l-7 22 10-25q1-10-5-21l-6-8-5-5-26-14 12 4q10 2 20 12l12 19 1 22-4 9 4-6 2-8v-10l-8-20q-8-12-20-17l-21-6-15-2v-1l-2 1-17-2h-18l-1-5z"/>
        <filter filterUnits="userSpaceOnUse" x="7137" y="8575" width="327" height="138"/>
    </g>
    <g transform="scale(.05)">
        <path d="M7391 8777l-52 3-49 6-37 5-31 4q-19 3-33 12l-5 9 7 6q-4 2-1 7l-2 1 5 9-3 1 8 3 7 7 11 2 23 2 29-7 97-14 18-3h64l33-1-6-2 38 2 13 3h13l7-4 12-1 10-1h3-2q-2 0-3-2l16-2-2-3-2-3 3-1-26-6-22-2h36q-20-3-29-9l36 6-37-6h1l-16-2-1-1-1 1-18-5-20-2 1-4h-4l-9-1-7-1 1-1h-28l-45-5z"/>
        <filter filterUnits="userSpaceOnUse" x="7184" y="8777" width="396" height="77"/>
    </g>
    <g transform="scale(.05)">
        <path d="M7931 8525l42 20 1-4-43-16zm137-1535l-27 2-182 10-161 14q-94 10-152 29l-11 10 39 2q-11 3 8 5l-9 3 19 2 18 2-12 3 38-1 37 3 59-2 110-6 140-12 30-2-1-33 30 31-29 2 9 404 2 97-2 180-5 160-8 171 4-30-17 200-19 135v37l-14 94-2 15-43-17 12 7 11 6q-35-12-75-42l9 10 8 10-11-7q29 26 68 42l32 13 36-209-13 95-13 81-1 9 2-9 31-153-27 154-9 46-86-41 44 23 43 19 9-47q20-98 37-233l1-2v3h1l-1-10 13-96 10-102h5l5-35q-1 0-4 15l3-48 3-39 1 8 6-152 9-238-8-586z"/>
        <filter filterUnits="userSpaceOnUse" x="7535" y="6990" width="541" height="1562"/>
    </g>
    <g transform="scale(.05)">
        <path d="M7863 7362l-78 1-73 5-56 5-46 4q-27 2-45 12l-6 10q6 0 11 6-4 1 1 6l-3 2 9 8-4 2 11 3 10 6 17 3 32 1 42-7 141-12 28-2 96 2 43-2h3-3q-2 0-3-2l56 2 19 2h19l11-5 17-1 17-1-3-1-4-1 23-5-3-2-4-3 4-1-38-4-32-1 28-1h23l-44-8-22-1-1-1h1v-1l-3 1-27-4-28-2v-4q-5-2-6-2-2 0 1 3l-24-3-40-1-67-6z"/>
        <filter filterUnits="userSpaceOnUse" x="7559" y="7362" width="586" height="74"/>
    </g>
    <g transform="scale(.05)">
        <path d="M7933 7677l1 1v-1zm71 21l3 5-1-4-2-1zm3 5l6 19v1l1-7-7-13zm6 20l-2 11q1-5 2-11zm-201-61l-49 3-46 8-36 8-29 7q-17 4-29 15l-4 9 6 6q-4 1 1 6l-3 1 7 9-3 1 7 3 7 5 11 2 20-1 26-9q33-11 89-17l18-3 60-1 30-1-2-1-3-2 35 2 12 2h12l7-5 12-1 5 1h8l7 6 1 12-3 4-1 1-3 2-4 1v1l5-2 3-2 4-5-1-12-7-7h-1l-4-1-3-2h3l5 1q8 0 11 13l-4 14-6 4-4 1h-1l-2 1h-2l-8 3 3 2 2 3-3 1 8 1 6-1 10-4 4-3 2-2 5-10-1-18-10-12-7-3-1-1-3-1h-1l-5-1-12-3-20-1h34q-21-3-29-9l30 4 3 1h3l4 2h1l4 2 11 9-1-3-11-8-4-1h-1l-2-1-7-2-44-5h-2l-17-4-18-2 1-4q-2-1-4-1t0 2l-8-1-7-1 1-1h-26l-21-2-21-2zm199 72q-2 7-7 12l-3 4 4-4 6-9v-3z"/>
        <filter filterUnits="userSpaceOnUse" x="7619" y="7662" width="395" height="88"/>
    </g>
    <g transform="scale(.05)">
        <path d="M7708 8093q-27 0-42 1l-58 2-57 10-6 9 13 7q-5 1 2 6l-4 1 12 10-5 1 14 3 13 7 21 3 40 3 52-4q33-3 77-3 45 0 102 3l35 1 64 9 57 9 61 10-5-2q-4 0-5-2l12 3h-1l59 12 24 7 23 5 14-2 22 2h3v-5l1 5v-16h-1l-2-1-8-2-39-9 34 7 14 2h2v-2l-1-1h-2l-12-3-25-9 39 9 1 4v-5l-67-16-1-1h1l1-1-4 1-31-10-28-6-5-2h-1l-4-1 2-4q-7-3-9-3-1 0 1 2l-17-4-14-4 3-1-54-9-85-17-46-5-56-3-94-1h-30zm540 122l-3 2 2-1 1-1zm-14 16l-1 2 1-1v-1zm-22-13l3 4 2 4-4-1 16 9 1 1v1l4-6v1l4-6 2-2-8-3 5 5-25-7z"/>
        <filter filterUnits="userSpaceOnUse" x="7545" y="8092" width="703" height="144"/>
    </g>
    <g transform="scale(.05)">
        <path d="M7827 6888l-1 32q-1-3-2-3-2 0-4 9l-3-7-4 29-2-9-1 60 3 46 8 86 15 109q18 157 18 389l-6 344q-3 47 3 132-1-17 1-21l1 158-5 107 2 30-5 51-9 44 6-16q-7 40-25 68l10-9 8-9-5 11q16-24 25-61l12-51 8-92-5 81-12 69 16-70 9-61 4-64 1-2v2h1l-2-8 4-76v-81h4q3-25 1-25-1 0-2 9v-67l1 6 3-117 5-95 5-92 1-221-9-205-14-156-18-127q-12-73-31-118l-10-9z"/>
        <filter filterUnits="userSpaceOnUse" x="7810" y="6888" width="99" height="1638"/>
    </g>
    <g transform="scale(.05)">
        <path d="M8133 8561l-4 1 4 1v-2zm-270-25l-90 2-68 5-55 7q-33 5-53 18l-4 10 13 4-2 4 4 3-3 2q6 1 12 7l-4 1 25 7 20 1h37l47-9 169-6h33l115 9 57 3-9-3 68 6 46 3 13-4 21-1 20-1-4-1-4-1 27-4-4-3-4-3 4-1-45-4-38-2h61l-53-9 54 4h11l-91-6-1-1h1v-1l-3 1-32-5-34-4 1-4h-7l-16-2-13-2 3-1-51-4-40-5-39-6-95-4z"/>
        <filter filterUnits="userSpaceOnUse" x="7593" y="8535" width="701" height="75"/>
    </g>
    <g transform="scale(.05)">
        <path d="M7692 8768l-4 3-6 1-2-1-7 6-2-2-1 4-4 4 1 4 4 7 13 7q16 8 30 24l6 5 9 19 6 9 2-1 4 10v4l1 4 6 1 3 3 1 2h1v-1l3-1h-1l11-5 1-3-2-6 3 5 3 3 3-9 1 7h1v-4l-2-7 1-1h-1l1-6-1-6 4-1q3-3 2-3l-3 2v-5h1l-4-8-1-7-1-7-4-6-6-8-15-12-13-9-12-7-20-8zm69 109l-5 2-3 2 8-4z"/>
        <filter filterUnits="userSpaceOnUse" x="7666" y="8768" width="114" height="113"/>
    </g>
    <g transform="scale(.05)">
        <path d="M8072 8674l-40 3-48 5-82 16q-44 9-62 17l-49 17q-28 11-43 29l-1 10 13 2q-7 5 3 5l-2 3 13 4-4 3 23 1 17-3 33-7 41-16q54-20 151-31l30-5 48-2 3 107 2-4-5 58-11 42 1 13q-2 12-23 38l8-5-28 21 7 1h6l-4 3 29-18 17-21 15-40q-2 28-31 66 21-19 36-51l-1 3q1-4 3-8-1 2-2 5l9-32 1-1v1h1l-1-4 7-31 4-34h4q3-9 2-9l-2 2q-1-7 1-15l1-13 1 3 2-124-50-3-43-1zm62 264q-15 38-32 52l-15 12q26-13 43-50l4-14z"/>
        <filter filterUnits="userSpaceOnUse" x="7747" y="8674" width="418" height="328"/>
    </g>
    <g transform="scale(.05)">
        <path d="M7865 8804l-20 1-33 5-27 6-21 6q-13 3-22 15l-4 9 4 6v6l-2 1 3 8-2 2 5 3 4 5 7 1h14l19-8 65-12 13-2 22 2 20 1 22 1-1-1-2-2 24 3 9 3 8 1 5-5 8-1 7-1-3-2 9-4-2-5 1-1-14-5-13-2h21q-12-2-17-8l18 4h3l-15-4-16-2v-1h1v-1l-2 1-11-4-12-3 1-4-3-3 2 3-6-1-4-2-18-2-14-3-15-4z"/>
        <filter filterUnits="userSpaceOnUse" x="7738" y="8804" width="258" height="74"/>
    </g>
    <g transform="scale(.05)">
        <path d="M7896 8945l-40 2-31 1h-26q-16 0-30 8l-6 8 4 7-2 6-2 1 2 9-2 1 5 4 3 6 10 4 19 5 26-3 83-4 16-2 53 3 25-2-3-2 31 1 21 2 6-5 18-3-3-2 12-4-3-6 1-1-20-3-17-1 15-1 12-1-24-7-11-1-1-1-1 1-14-4-15-2 1-4-3-1q-1 0 0 2l-7-1-6-1 1-1-22-1-17-3-17-3-41-1z"/>
        <filter filterUnits="userSpaceOnUse" x="7763" y="8945" width="322" height="62"/>
    </g>
    <g transform="scale(.05)">
        <path d="M7856 4718l-47 7q-23 6-48 17-38 18-71 52-28 31-42 69-25 65-22 116 4 58 14 92 15 48 42 75l12 2-4-21q2 2 3 2 2 0 2-7l3 4 1-20 3 5-4-18 1-19-5-28-5-53 1-68q10-63 54-104t119-48l52-1q55 8 86 41 31 32 37 78 7 46-3 94l2-2q-13 49-42 89l-55 52-15 16q-14 11-67 27l15-1-48 10 8 3 7 2-8 1h7q32 0 77-16l60-38-51 36-50 19q25-4 52-16l44-24q-47 37-97 45l-22 4q43-3 88-27 38-21 68-56l2-1-1 2h1l2-6q18-14 37-49l25-60 4 1q7-19 6-19t-4 6l6-31 2-26 1 5q2-56-20-102-19-41-54-70-33-27-76-37l-83-4z"/>
        <filter filterUnits="userSpaceOnUse" x="7626" y="4717" width="463" height="475"/>
    </g>
    <g transform="scale(.05)">
        <path d="M7887 4686l-1 1q0 1 1 1h1l-1-2zm51-113l-92 10-30 6-21 11q-11 6-25 20-21 19-26 44l-5 34-1 25q0 15 7 29l7 6 7-3q1 3 3 3 1 0 3-1l1 3 9-3 1 3 4-5 7-4 4-8 5-16-3-21q-3-33 26-56l10-9 22-8-4 17-2 25 1-2 2-2-5 29-4 19 3 7v10l-1 9 2-3v14l6-2 1 2 10-20 4-18-2 16-3 14q7-18 13-25l4-12h1l-1-1 5-14 4-14 4 1v-3l1-6 2-4v1l3-17 2-6 41-75z"/>
        <filter filterUnits="userSpaceOnUse" x="7738" y="4573" width="200" height="187"/>
    </g>
    <g transform="scale(.05)">
        <path d="M8033 4567l-20 4-29 9q-17 7-26 20-18 21-18 41l2 29q2 15 12 28l9 5 6-5 7 1 1 2 8-4 2 2 9-10 2-9 2-14-6-14q-3-9 3-15l18-9-8-8 12 6-4 2 6 6 10 12 11 25 4 24 2 27 2-1-6 28-5 11-3 10 3 7-2 10-2 10 3-3-1 13 6-1 1 1 11-18 7-18-4 17-5 13 14-20 7-16h1v1h1l-1-2 8-16 4-19h5q3-5 1-5-1 0-2 1l2-10 1-7 1 1-3-31-3-26-7-23-13-22-36-40zm36 211l-2 3-12 27 14-30z"/>
        <filter filterUnits="userSpaceOnUse" x="7940" y="4567" width="155" height="241"/>
    </g>
    <g transform="scale(.05)">
        <path d="M7702 4921l-4 1v4l-1-1q-1 0-1 2h-1l-1 4-1-1 1 6 2 4 5 6 9 5 30 20 17 8 10 3h11l-2-1 13-3 8-3 1-3 5-5h-1l3-4-3-1 1-1-13 6 5-3h-6l8-4-11 5v-1l-1 1-8 1v-2h-4v-1h-5l-8-5-13-8-24-18q-11-10-21-11z"/>
        <filter filterUnits="userSpaceOnUse" x="7693" y="4921" width="112" height="62"/>
    </g>
    <g transform="scale(.05)">
        <path d="M7838 4956l-3 3 1 3-1 2h-1v4h-1l3 5 4 3 8 4h12l36 4 7-1 23 2 10-1h23l3-2 8-1-2-1 6-2-2-2h1l-9-2 4-1-10-2 11 1h2l-19-2-13-2v-1h-1l-5-1h-10l-14-3-47-5-24-2z"/>
        <!-- filter filterUnits="userSpaceOnUse" x="7833" y="4955" width="141" height="30"/ -->
        <g id="cat--left">
            <path d="M8056 5660h-2 2zm-198-351l-3 5-5 3q0-2-2-2-1 0-4 3l-1-3-10 6-1-3-4 9-8 8-4 15-5 30 5 39q15 91 30 127l11 22 24 38 29 28q15 12 37 19l-6-5q15 9 45 15l32 6 9-5 15-1 12-2h-1q-3 0-4-2l19-5-6-5 3-1-31-3-24-2 21 1 19-2-19-2-16-5 12 1-28-4v-1l1-1-3 1-17-7q-13-4-18-8l2-4-4-1-7-4-4-4-20-15-12-17-9-19-10-22-10-29-12-57-4-47v-39q0-25-7-42l-8-6z"/>
        </g>
        <path d="M8333 5072q-28 0-51 7-49 13-76 35-38 28-38 64l7 10q1-6 5-8l6-4 7 1-1 4 13-5-1 4q3-6 10-8l13-4 17-10 39-14 57-12h9q31 0 61 12 37 15 63 44l1 1h-1q24 22 38 59l14 43 5 87-5 78-6 83 2-7 2-7-9 97-1 66 6 17 6 30 8 26-1-11 16 33v-6q-1-4 1-6l1 2q-10-33-10-55l-3-52 5 45q2 24 7 36-6-53-3-71 0 38 7 71l4 13q-13-57-10-120l1-1v1h1l-1-5 6-44 5-48h5v-9l3-23 3-15 6-75 5-61-2-63q-3-34-16-70-16-43-45-73l-3-3q-24-29-60-49-31-17-66-24-30-6-56-6z"/>
        <g id="plant__branch--sw">
            <path d="M4880 7736q-2 5-9 5-3 0-7-1 2-3 7-3l9-1zm-35 128q-4 3 1 7 0-3 2-3h1l2-3-6-1zm532-394l-12 2-9 6-37 22q-8 6-21 23l-21 27q-58 63-179 116-25 17-38 20l-74 19-66 14-71 17 7 2 6 2-84 10-30-2-28 3-7 7-8 9-26 7q-19 1-26 7l6 2q1-1 2-1 2 0 3 3l-34 15 6 7 5 9h-3l-2 3 32 3 27 5 48-3-42 7-36 5 37 5q21 2 33 10l-70-1h-15l60 4 60-2 1 3h-1v2l4-5 42 5 45-1 1 13q7 2 9 2 4 0-1-5l21-1 15 1-1 2 66-13 53-4 52-5 55-18 64-26q68-30 104-61l39-28 35-28 56-52q31-32 38-78l-7-29h-10l-11-6q3-8-10-16l1-3 1-4-12-7-11-6 3-7-15 1-19-8z"/>
            <path d="M4886 7779v2l4 5v-1l-4-6zm-85-106l-5 6-22 22q-6 9-8 52-3 47 5 77 11 36 33 50l19 5 22 8 18 2q2 1 4 1 7 0 13-8l-1-3-1-2-3 1 2-2 1 1v-1l17-2 7 3 5-3-1-16 4-6 2-7-3-4 1-15-7-14-1-3-5-3-3-5-2 3-2-2q0-5 1-5h1l2-5-5-6-3-11v4l1 27-6 20-6 11 6 18 4 7-4-5-8-7-10-5 3-1 5-4 4-3-2-12-6-60-7-28-8-12-6-17-1-6-14-18 2-6-11-1-13-10z"/>
        </g>
        <g id="plant__branch--nw">
            <g transform="translate(4630 7249)">
                <path d="M198 160h2l7 2-6 2-7-2q2-2 4-2zm-51 115q-1 0-2 1l-1 7q1-3 2-3t1 1l2-3q0-3-2-3zm477-274l-8 6q-25 10-34 17-8 5-18 20l-18 25-32 31-18 14-7 4-1 1h-1v1l4-1-11 5q-29 16-82 29l-34 10-64-1-56-6-61-2 5 4 4 4-69-11-24-8-22-2-7 6-8 8-22 4-20 3 4 3 3 3-14 5-13 7 4 7 3 9h-2l-2 3 23 6 19 7 36 5q-6 3-14 3t-18-2l-26 1 25 10q15 4 22 14l-49-10-10-1q26 11 83 18v2q-4 0-1 3l4-5q8 11 29 14 26 4 33 9l-3 13q6 4 8 4t0-5h3q6 0 13 5l11 5-2 1 56 6 45 11 46 9 53-3 65-11 48-15 1-1h1l7-1 1-1 3-1q22-10 45-28l34-24 31-24q15-17 48-44 27-28 36-71l-4-30-9-2-8-7q4-8-8-17l2-6-19-17 3-6-14-1-17-10z"/>
            </g>
            <g transform="translate(4630 7249)">
                <path d="M130 233l1 6v15l7 9 2-6h1l-11-24zm137-150l-23 4-25 9-75 24q-24 10-35 17l-15 12-10 12q-4 6-9 22-14 17-15 33-1 13 7 29 8 15 25 15v-6q7 8 24 12l9 6 4 3v-1l2-20-6-8q-10-12-19-16l-4-1h2q8 0 18-8h-1l12-9 2-2 9-15-1 4v3l1-2 3 10v3l5 15-3 14 3 5-5 6-6 5 2 4 7-5 17-9 35-13q23-7 57-29l21-20v-6l3-9q9-4 11-16h3l3-2 6-22 6-2q-5-1-4-10l1-17-5-7-8-2-29-9zm-124 179q-3 1-4 3l11 20 5 17 3 3h2l1-2-18-41z"/>
            </g>
        </g>
        <g id="plant__stem">
            <g transform="matrix(1 -.009 0 1 4470 6010)">
                <path d="M972 1835q7 5 2 24l-2-11v-13zm121 77q-6 2-4 11 2 5 3 5 2 0 4-4-4 0-1-6 1-6-2-6zm-386-910q-18 0-37 7l-21 22 8 9 1 12q-8 2-8 17h-3q-1 0-3 2l-3 25-6 2q7 1 6 11l-1 19 5 10 8 6 31 37 29 26 31 28q44 49 79 126l59 148 14 28 12 28 29 110 19 98 11 108 4-9q0-9 3-10-5 80-27 128l-25 39-25 35-3 14-4 16q-10 20-40 32-21 8-57 12l13 3 13 3q-9 3-21 3t-26-3l-41-15q-1 6 7 14l8 15-8-5-7-1q17 14 43 23l53 5 46-10 30-12 37-34 36-40q-15 36-57 68-44 32-100 43l64-11 43-24 61-45q-38 41-63 58-24 17-49 25l-60 11-60-9 59 12 58-9q38-12 77-45 43-38 77-99l4-1-1 2 2 1-1-10 24-34 6-13v-2h1l8-27 18-84 13 1 5-17q0-4-1-4t-5 5q-2-16 3-39l1-30 3 6q-1-46-15-111-6-25-11-81l-12-73-24-77-32-91q-34-99-73-159l-37-60-41-55-39-41-44-37q-36-26-71-26z"/>
                <filter filterUnits="userSpaceOnUse" x="634.629" y="997.915" width="471.741" height="1218.171"/>
            </g>
            <g transform="matrix(1 -.009 0 1 4470 6010)">
                <path d="M903 35q0 2-2 2h-2q-1-1-2-1-2 0-2 3 1 4 4 4 1 0 3-1 6-2 1-7zm-67 120l10 1-10 2-10-2 10-1zm-226-155l-71 3-86 8q-91 12-145 31l-56 15q-36 9-54 17l-44 18-44 17-41 27-16 20q-9 15-5 24l13 9 7 3 4 6-3 3-4 4-1 5 4 8q0 9 7 18v5l12 19-2 6 13 2 16 12 15 2 12-4 54-11 35-16 37-20q95-43 266-63l53-10 98 1 87 4q26 2 53 2 20 0 40-1-1-3-8-3l-7-4 108 15q11 2 37 11l36 8 24-11 37 6 36 10-6-6q-7-2-7-6 30 5 62 23l-6-15q-7-9-4-14l6 5 6 1-52-35-37-19-30-6-36-12h7q23 0 52 11l54 15q-18-12-51-26l-43-23 50 16 51 22 27 13q-35-24-93-44l-81-20-1-3h2v-2l-6 4q-17-13-54-19l-57-11 2-13q-9-4-12-4t1 5l-27-5-18-4 1-3-85-4-67-9-65-8z"/>
                <filter filterUnits="userSpaceOnUse" x="46.911" y="-9.803" width="1131.179" height="302.607"/>
            </g>
            <g transform="matrix(1 -.009 0 1 4470 6010)">
                <path d="M1176 741q4 4-2 34-3-5 1-16v-5l1-1v-12zm79 148q-7 2-12 15-2 7 0 7t7-4q-3-1 3-9 6-7 2-9zm-528 25q23 39 60 69 44 34 93 47l28 2q-33-6-63-19-55-23-90-65l-28-34zm-33-705q-55 0-105 9l-92 15q-51 10-85 24l-68 29q-39 17-65 35-31 20-52 50-23 33-20 64l16 26 7-7h19q-1 11 15 11v8l13 3 13 3-1 7q3-5 12-5h5l23 4 17-4 13-8 67-24 47-21 51-22q82-27 176-27h13q102 3 197 36l37 13q23 7 36 16 65 41 109 98 44 59 60 117 11 40 14 72v36l-8 35 8-11q3-11 7-12-13 42-49 79-31 33-68 52-24 14-59 19l-59 6-17 5-20 5q-31 0-61-22l-48-38 7 11q8 8 6 11l-32-29-28-31q-3 4 0 15 4 11-1 16-3-12-7-12-1 0-2 1 17 39 48 70 24 26 63 50l64 17 79 3q-26 8-52 8-37 0-75-16-30-12-95-58 33 44 92 68 35 14 102 28l-52-4q26 5 55 5h-2l18 1q40-4 85-20l4 1-3 1-1 2q0 1 1 1h1l10-10q49-7 104-54 47-42 87-105l12 6 17-33q3-9 2-9-2 0-9 11l11-49 1-8 1-2v-3h1v-9l3-13 1-44 2 4q-7-85-52-170-38-72-70-115-40-56-91-93l-44-27-73-36q-58-25-147-42-72-13-138-13z"/>
                <filter filterUnits="userSpaceOnUse" x="206.744" y="199.447" width="1102.512" height="849.107"/>
            </g>
            <g transform="matrix(1 -.009 0 1 4470 6010)">
                <path d="M173 1008l6 3q-2 2-4 2-3 0-8-4l6-1zm-5-522l-54 14-27 11-37 13q-13 7-24 29-19 32-23 47l-2 32 4 33 1 43-2 4 1 6-1 6-1 51q2 63 21 107l22 34q13 27 39 53l46 35q24 16 57 16l-3-4-4-4 63 9 23 4 22-4 4-8 4-10q5-6 18-10l15-10-4-1h-1q-1 0-3-2l16-21-6-6-7-6 3-1-1-3-19 3-16-2q-11 7-18 7-4 0-7-2 8-8 21-8 14-2 17-9l-19-1q-10-1-17-9l32-3 7-2-29 1-25 2v-5l-1 5-15-9q-12-2-14-6l4-13-1-3-2 5-5-3-3-3 2-2-15-4q-5-1-5-10l-2-9-10-7-13-18-9-25-4-14v-12l-3 5 1-12 2-38 2-35 4-58 3-31q3-14 13-17l33 6h9l21-4-1-2v-1l-1-2v-3l-3-12q-4-18-15-30 9 5 13 5t2-5q-4-15-24-27l17 7q10 6 12 6h1q-26-27-57-37l-58-4 18-6 18-6z"/>
                <filter filterUnits="userSpaceOnUse" x="-.165" y="483.069" width="338.331" height="544.862"/>
            </g>
            <g transform="matrix(1 -.009 0 1 4470 6010)">
                <path d="M649 542l-4 2-4-1 8-1zm-72-143h-4l-28 6-34 12q-33 14-54 36l-20 17-18 18-28 34q-15 22-18 62l4 30 10 11q-1 6 5 18v6l9 20v5q0-1 1-1 3 0 11 18l5 3 3-4 15-10 9-16 10-21q25-44 83-72l9-8 9-5 34-5 30-1 34-4-2-3-3-3 39 7 11 8q5 5 10 5h3l13-12 14 1 14 1-1-3q-3 0-1-4l24-2 1-8 2-8 1 1 3-2-14-14-12-12-13-3-13-8q3-1 6-1 9 0 19 6 11 7 18 7h3l-17-17-14-18 38 23 9 5-32-24-33-14v-2h1v-3l-4 4q-4-11-20-14l-23-9 3-13q-4-4-5-4-2 0 0 6-1 1-3 1-4 0-8-4l-9-3 2-3h-35l-27-6q-13-5-22-5z"/>
                <filter filterUnits="userSpaceOnUse" x="372.909" y="395.368" width="419.182" height="302.265"/>
            </g>
            <g transform="matrix(1 -.009 0 1 4470 6010)">
                <path d="M542 783q4 6-1 6l-1-4 2-2zm72 101q-1 0 0 2l5 5-1-2-1-3q-2-2-3-2zm-125-285l-19 2q-5 1-1 5l5 11 31 21q36 28 47 71l5 16-6 22-9 18q-6 8-8 23h3l3 1-18 19-9 3q-6 0-6 5l5 16q2 7-3 10t-4 8l3 1 3 2-2 17 12 12h-1l1 3 11-2h11q6-10 12-10h1q0 8-9 12-8 3-8 10l14-1 17 2q-16 9-24 10l-4 3 21-6 18-12 4 4-2-5 17-3q9-10 15-10l9 10q10 0 0-5 1-5 8-5l6-3 1 2 15-24 17-16 17-18 7-25 2-33q0-32-15-54-10-26-22-38l-24-29q-16-15-54-29l-28-7-14 2-19-2-5-2h-22l-5-2z"/>
                <filter filterUnits="userSpaceOnUse" x="466.905" y="597.006" width="230.19" height="313.989"/>
            </g>
        </g>
        <g id="plant__branch--se">
            <g transform="translate(5514 7469)">
                <path d="M469.407 76.098l-1.881 3.076-1.92 2.077q1.117 2.958 2.116 2.919.999-.039 1.959-1.078l-.275-6.994zm-41.174 123.709q2.998-.118 7.112 2.723l-5.917 2.234-6.074-1.763q1.92-2.077 4.918-2.195zm-315.215-177.757l-34.854 4.372-33.698 8.329q-38.38 16.519-41.609 61.68l4.136 28.859q.96-1.038 1.959-1.078 2.998-.118 5.153 3.801l4.154 3.84 1.156 3.958 4.743 18.828 1.196 4.957 2.823 20.905.236 5.995.707 17.986 8.797-5.349q23.392-15.93 39.262-19.556l81.093.817 89.832 19.488 16.947-1.667 17.026.332 58.386 8.714 50.235 5.031q14.107 2.448 28.096 1.898t26.861-4.058l-4.115-2.841-4.154-3.84 31.132 2.78 30.015-.179 21.219 5.171q7.073 1.724 12.069 1.527 4.996-.196 8.914-2.352l12.401-15.498q5.799-5.232 18.789-5.742l3.997-.157q10.991-.432 14.792-5.585l-4.075-1.841-4.115-2.841 24.47-13.971-4.311-7.837q-3.076-1.881-3.312-7.876l2.88-3.115-39.401-9.46-33.052-.703 28.859-4.136 23.863-3.94-24.295-7.051-21.454-11.166 46.238 5.188 9.992-.393-39.283-6.462-39.126-2.466-1.117-2.958 1.038.96-.118-2.998-2.801 5.114q-7.348-8.718-25.412-10.01l-27.214-4.935 1.488-13.068q-4.154-3.84-6.152-3.761-1.998.079.196 4.996l-12.108-2.526q-4.154-3.84-8.151-3.683-.999.039-1.959 1.078l2.88-3.115-39.087-1.466-28.41-9.892q-18.378-9.285-26.411-9.97l-14.028-.45-20.18-4.211 6.113 2.762-5.995.236-26.136-2.976-87.716-16.568-80.29-5.852z"/>
            </g>
            <g transform="translate(5514 7469)">
                <path d="M403.397 270.942l3.115 2.88-3.037-.881-.079-1.998zm124.041 24.148q-4.996.196-1.881 3.076l7.034.724-3.076-1.881-2.077-1.92zm-233.208-.844q-10.324 17.418-12.008 25.491l-1.645 9.071-.881 3.037 1.881-3.076 8.325-17.34 2.801-5.114 1.527-12.069zm111.782-160.509q-25.862 4.018-39.497 13.561l-27.193 21.083q-15.477 13.618-28.973 52.177l-8.893 28.37-.489 13.029-3.29 18.143-2.801 5.114-.646 9.032 2.801-5.114q26.486-39.069 58.382-42.324l13.91-2.548 12.305 7.523 8.426 10.677 10.581 14.595 2.958-1.117 1.959-1.078-.214 20.023-5.799 5.232q-3.918 2.155-1.763 6.074l12.422 10.52q4.193 4.839 1.353 8.954-2.841 4.115.353 8.993l5.995-.236 4.664 16.829 7.112 2.723 8.151 3.683-.96 1.038 2.077 1.92 10.756-6.427 9.796-5.389q3.447-14.146 8.325-17.34 3.351 8.875-3.29 18.143-6.72 7.269-4.446 14.185l13.636-9.543q6.759-6.27 16.712-7.662l-9.482 13.382-10.559 11.423-2.801 5.114q15.752-6.623 32.285-44.301l1.998-.079.039.999 3.037.881-4.154-3.84q10.873-3.429 13.282-18.535 3.251-19.142 6.091-23.257l13.029.489q6.72-7.269 3.722-7.151-1.998.079-5.917 2.234-3.194-4.878 1.527-12.069 4.721-7.191 1.606-10.071l3.076 1.881-10.485-37.617-5.135-28.82q-1.745-18.946-9.054-26.664l-21.769-19.16q-7.309-7.719-29.644-15.848l-55.113-1.837z"/>
                <filter filterUnits="userSpaceOnUse" x="271.961" y="124.793" width="269.57" height="259.01"/>
            </g>
        </g>
        <g id="plant__branch--ne">
            <path d="M5572.234 7333.861q-.997 4.001-5.997 4.005l-4 .003 3.998-3.003 5.999-1.005zm133.761-304.1l-3.998 2.003.005 7-7.98 26.006.002 2-1.997 4.001.001 1-.998 2.001.006 8 3.007 8.998 7.005 6.994 12.015 18.99q24.046 59.98-20.902 126.014l-14.981 24.011-39.978 28.031-40.985 19.032q-21.994 7.017-43.983 21.034 1.002 1.999 3.002 1.998l1-.001q.999-1.001 1.999-1.002 2-.002 3.002 2.998l-56.991 10.044-20.002-2.984-18.998 2.015-9.987 16.008-18.996 5.015-17.997 4.014 4.002 2.997 3.002 2.998-25.991 11.02 4.006 7.997 3.007 8.998-3.001-.998-1.998 3.002 23.005 6.982 20.004 5.984 15.998-2.012 20.001 1.984-31.996 5.025-26.998 2.021 28.006 7.978q16.002 2.988 25.009 11.98l-54.004-5.958-12.001-.991 46.006 8.964 45.999-.036 1.002 1.999-1 .001 1.002 2.999 2.995-6.002q8.005 6.994 23.005 6.982 5-.004 9.999-1.008l34.997-3.027 3.011 13.997q4.001.997 6.001.995 5-.004-.004-5l16.998-2.013 13.998-2.011-1.998 3.002 51.984-20.04 43.989-13.034q27.994-7.022 41.986-17.032l37.974-33.029 39.962-48.03q34.961-49.026 37.923-98.028l4.97-39.003-.029-36.999-5.013-16.996-.001-1-.999 1.001-.001-1-2.005-5.998-2.02-25.998q-4.016-20.997-11.024-30.991-7.007-8.994-14.007-8.989l-1 .001q-11 .009-8.985 19.007l.006 8-7.984 20.006-3.001-.998-12.001-1.991q-16.003-3.987-25.011-14.98 4.01 12.997-1.99 13.001l-2 .002-18.015-18.986q-1.998 2.002 2.009 11.998l2.008 9.998-23.027-34.982q-8.007-8.994-10.017-21.992l-6.989 14.005 2.984-21.002-3.007-8.998q-4.005-6.997-12.007-8.991zm-145.662 432.107q-2.997 4.002 1.005 6.999l1.998-3.002 1.998-3.002-5.001-.996z"/>
        </g>
        <path d="M8610.586 4781.663q-1-.005-2.004.991l-.014 3-.009 2 1 .005q3 .014 3.013-2.986.014-3-1.986-3.009zm61.724 61.277l-3.04 8.986.023-5 3.018-3.986zm71.682-151.676q-43.035 7.806-86.236 52.611l-1.995-1.009-.014 3q-13.022 4.941-26.103 22.882l-20.13 28.909-7.982-4.036q-6.027 5.973-4.027 5.982l2 .009-8.063 13.964-5.04 8.977-.995-1.004-14.198 43.936-12.144 31.945q-9.085 18.959-11.126 27.95l-3.135 29.986-3.153 33.985-.216 47.999-9.144 31.959-25.116 25.887q-25.08 17.887-40.165 36.819l-6.085 18.972 8.955 10.04q-5.031 6.977.941 13.004l-4.013 2.982 11.928 16.054q-4-.018-5.013 2.977l4 .018q5 .023 10.977 5.049l13.959 9.063 24.008-1.892q31.026-5.86 47.071-15.788 22.053-11.901 43.228-50.805 18.161-35.918 26.373-82.88l6.315-69.971-.883-26.004 18.378-83.916 12.184-40.945-1-.005q-1-.005-2.009 1.991l-4.013 2.982 28.202-44.873 14.054-11.937 13.054-11.941 2.063-13.991 14.058-12.937 14.045-9.937-4-.018-3.995-1.018 19.076-16.914-4.982-4.022-5.982-4.027 2 .009 1.013-2.995-23.031 6.896-21.031 6.905-31.103 22.86q7.058-12.968 25.103-22.887l25.076-16.887q-11.009 1.95-28.049 10.874l-27.044 9.878 52.129-28.765 11.022-4.95z"/>
    </g>
</svg>

