<?xml version="1.0" standalone="yes"?>
<?xml-stylesheet type="text/css" href="/d0/css/shui-lei.css" ?>
<svg id="svg--sleeping" class="svg-container" viewBox="0 0 500 500" xmlns="http://www.w3.org/2000/svg">
    <g transform="scale(.05) translate(171 61)">
        <path d="M2138 3424l7 10 69 18-1-5q-38-15-75-23zm-147-10q-92 0-149 38 67-27 146-27 15 0 30 1 73 3 142 31l-15-23q-71-17-128-19-13-1-26-1zm9 20q-92 0-156 32-31 18-51 38 48-42 114-56l151-6q54 6 106 21l-1-2q-82-25-163-27zm65-79l-163 12q-85 18-131 64l26-15q16-12 24-12 2 0 3 1-45 26-75 61-31 35-47 79l10-8 11-14q13-16 20-16h2l-10 13q-7 9-3 10 45-66 116-96 55-24 117-24 9 0 18 1l121 6 34 7q-31-41-67-69zm99 108l29 56 19 17 16 13-9-67v-1l-55-18zm411 357q-2 0-1 12h1q3 0 4 12l5 13q4-9-4-28-4-9-5-9zm-706-702l-94 4q-89 9-182 40-88 29-159 70-40 22-92 61l-28 23-1 1-5 4v1l-3 2-47 49q-73 80-130 176-97 165-122 339-29 193 30 364 58 180 197 308 130 120 315 178 119 37 267 37 126 0 251-38 117-35 225-99 199-118 318-302 140-214 109-443v40l-3 40q3-72-10-138-6-37-16-67l-13-41-1-3-9-18q-54-101-174-191-144-106-273-145l16 55-9-13-10-16q8 26 8 41 0 6-2 6-4 0-13-17l4 21 38 16-37-11 5 29q73 26 144 70l4 5-6-3-3-1 2 3 23 8q114 94 156 151l27 43 3 4 1 2v-1l3 8v1l1 2 8 28q17 57 17 108l-13 1-2 47q0 8 1 8t5-13q3 46-13 103l-23 75 1-12q-52 154-187 283-100 95-238 151-121 49-262 62-27 2-54 2-43 0-83-5l-74-14-71-21q-180-63-285-190-98-115-124-272-24-144 21-296 34-117 114-222 39-51 83-95l34-34 3-2 5-5 46-36q84-60 183-95 106-36 201-36h5q113 0 195 59l4 3 45-2 49 4 54 13-3-10q-11-35-31-63l18 21 15 14q-50-68-104-115-61-51-127-76-52-19-118-23z" />
        <filter filterUnits="userSpaceOnUse" x="996" y="3118" width="1728" height="1657"/>
    </g>
    <g transform="scale(.05) translate(171 61)">
        <path d="M1582 4139l-3 4h-5l4-3 4-1zm-332-131l-20 3-1 6-4 6h-2q-5 0-9 7-2-3-4-3h-1l-4 9-4 9-5-3q7 9-1 30-1 6 9 19l27 32q13 11 50 22 78 27 141 27h13l27-4 48-3 41-8q22-4 41-17h-4l-5-1q19-4 46-19l17-6 14-9 1-14 10-11 9-12h-1q-1 0-2 1h-4l7-19-5-2-6-2 1-3q-18 12-26 12-9 12-19 13l15-14 12-11q-14 8-25 8-4 0-7-1l26-14 5-5q-9 3-23 12l-22 13-1-2-1-1v4l-18 2-19 5-2-9h-4l1 3-9 1-7 1 1-2-26 8-22-1-20-3-22 2-27 1-51-3-21-4-22-8-36-20q-25-17-50-22z" />
        <filter filterUnits="userSpaceOnUse" x="1195" y="4008" width="485" height="164"/>
    </g>
    <g transform="scale(.05) translate(171 61)">
        <path d="M2213 4098l-1 2-1 2q1 2 2 2t1-1l-1-5zm-4 87h3l-4 3h-5q1-3 6-3zm-357-133l-18 7-3 13h-1q-5 0-8 9l-2-1h-3l-3 9-2 10-5-2 5 13-1 16 6 10 7 6 30 26 51 13 153 22 28-2 92-2 43-12-4-1-4-1 50-14 17-4 16-7 3-13 12-11 10-11-4 1h-3l9-18-5-2-6-3 1-3-26 9-21 10 17-11 12-11-16 5-16-1 28-11 5-4-24 9-24 10-1-2v3q-3-2-8-2t-11 2l-20 2-1-9-5-1 1 4h-16l1-2-30 5-23-3-23-5-116-7-24-4-23-7-41-15q-28-12-55-12z" />
        <filter filterUnits="userSpaceOnUse" x="1807" y="4052" width="516" height="151"/>
    </g>
    <g transform="scale(.05) translate(171 61)">
        <path d="M1736 4218q-3 3 0 3l4-3zm-85 22l8 11-5-4-3-7zm99-537l-13 10-17 6q-7 4-15 20l-23 40q-7 18-12 61l-22 99q-15 63-20 100l-1 39q-5 30-5 69l9 61q9 35 32 56l-1-5-2-6q14 26 50 50l20 15q13 9 23 10l16-5 23 3 21 2-4-3-4-3 30-3-3-6-3-6 4-1-23-8-18-9q-25-6-32-13l28 9 26 4-24-11-17-15 44 18 10 2q-54-19-72-31l1-2 1-1-4 2-13-18-11-15 7-5q0-4-1-4t-2 2l-3-7-2-6h2l-9-28q-3-11 2-30l6-32 5-38 10-50 20-90 10-37 10-35 19-60q12-37 7-70l-12-16-8 5-9 1q1-7-6-7-2 0-5 1v-5l-21 2 1-6z" />
        <filter filterUnits="userSpaceOnUse" x="1622" y="3703" width="213" height="626"/>
    </g>
    <g transform="scale(.05) translate(171 61)">
        <path d="M2409 6290q7 2 4 12l-3-5-1-7zm129 21q-5 2-1 5l7-1-3-2-3-2zm-322-473q-14 0-29 3l-26 15 1 8-3 11q-10 0-13 13h-3l-4 1-9 23h-6q6 2 3 12l-6 16 3 10 7 4 24 23q12 9 52 20 69 30 126 119l12 14 10 14 37 113q4 29 17 58l3-5 2-6 8 70-2 25q-2 15 2 23l16 13 6 22 6 21 2-4 3-4 13 29 8-5 8-4v2l3 2q4-37 10-49l-3-19 2-23q7 13 5 37-1 21 5 30l6-31q3-18 11-29l-4 61v12l6-51-1-51 3-1v1h3l-6-4q8-12 6-36l-1-39 13-1q4-11 2-11-1 0-5 4-4-8-1-19l1-12h2l-14-58-6-47q-2-31-8-46l-22-46-32-54q-34-52-72-80l-32-27-32-23-57-33q-23-11-50-11z" />
        <filter filterUnits="userSpaceOnUse" x="2121" y="5838" width="424" height="661"/>
    </g>
    <g transform="scale(.05) translate(171 61)">
        <path d="M1903 7567q1 9-18 29-1-6 7-14l11-15zm31 155q-6 0-11 10-4 6-1 6 2 0 6-2-3-2 4-7l3-7h-1zm-183-1404l3 20-4 17q-3-3-6-3-6 0-10 15l-4-4-4-3-5 20-5 18-4-5-5-4q9 13 7 34l-4 36q0 13 6 27l10 22 35 89q16 36 66 108 100 173 148 408l10 42 8 41 3 79-10 77q-15 69-47 133l-79 131 11-8 11-9-68 66q-42 33-83 41-9 1-17 1-28 0-53-15l-48-43-32-23q-18-21-27-56l-18-54q-3 3 0 12l-1 12-14-38-12-36-6 13-7 12q2-11-3-11h-1q0 29 8 72l13 66q38 79 83 122-32-20-53-53-16-22-27-52l-31-86q3 41 21 91 20 52 46 95-36-42-58-101-16-42-23-85l-6-35q5 82 38 152 27 53 62 85 48 47 116 56l5 3h-8l2 2 21-3 82-4q36-10 69-31l54-40 44-38 10 9q26-22 21-22-2 0-8 3 11-19 34-42l25-33-2 8q43-66 70-147l41-126 12-69 2-28-1-36-15-121q-6-48-31-142-33-130-81-227l-38-85q-22-52-39-79l-70-129q-44-75-97-111l-17-1z" />
        <filter filterUnits="userSpaceOnUse" x="1465" y="6318" width="690" height="1494"/>
    </g>
    <g transform="scale(.05) translate(171 61)">
        <path d="M1290 7218q4 6-5 11l1-6 4-5zm80 98q-2 0-1 3l6 5-1-3-1-4q-2-1-3-1zm38-524l-4 7-10 4q-3-2-8-2t-11 3q0-3-5-3l-22 5-5-3q3 4-6 8l-15 6-4 7 1 7 2 27q2 12 22 44 27 62 5 158l-1 16-2 16-24 51-24 44q-17 27-23 49 1 1 2 1 2 0 3-3l5-3q-14 17-35 52l-16 15q-10 8-12 17l6 19-8 18q-8 11-7 18l5-1 4-1-5 27 9 2 9 2-2 2 2 3 17-15 16-12q13-23 22-28-2 13-15 27-13 13-13 23l21-16q11-10 24-12l-35 37-6 8 31-30 27-33 2 1v1l2 1-2-5q13-2 25-19l21-25 11 8q12-6 2-7 1-7 10-12l8-6 1 1 25-44 25-32 24-32 16-42 14-54q13-55 6-97l-2-39-6-36-8-30-9-30q-12-34-51-55l-29-7z" />
        <filter filterUnits="userSpaceOnUse" x="1212" y="6792" width="303" height="623"/>
    </g>
    <g transform="scale(.05) translate(171 61)">
        <path d="M2694 7281q-4 4 1 4l6-4zm-118 49q3 0 4 3l4 6-6-3-4-6h2zm-237-482l-30 1-2 8-9 8q-1-1-3-1-6 0-15 7l-5-2-10 9-9 8-6-4q5 7-2 17l-11 18q-3 7 5 23l18 41 22 24 26 21 71 76 63 77 14 14 13 13 39 54 35 48q19 26 44 44l-1-6q-4-3-1-6l47 55 14 21 16 17 21-1q9 1 20 12 10 10 19 10l-2-4-1-5 30 9 1-9 3-9 5 1q-22-27-25-39-22-16-26-27 12 4 26 21l22 16-15-24q-9-13-9-26l33 41 9 8-28-36-29-33 2-3v1l2-2-6 1q1-13-13-29-16-18-18-27l11-8-2-7-4 4q-7-3-8-13l-3-9 1-1-30-37q-9-10-17-34l-15-34-25-32-32-41-61-69-25-29-25-28-42-49q-26-30-67-44z" />
        <filter filterUnits="userSpaceOnUse" x="2236" y="6848" width="537" height="606"/>
    </g>
    <g transform="scale(.05) translate(171 61)">
        <path d="M516 6859q6 20 3 102-4-12-3-47v-55zm125 259q-5 11-2 37 1 12 3 12t4-15h-1q-2 0-1-17t-3-17zm-253-4334q4 30 1 59l-6 48q-4-16-8-16-6 0-10 38l-3-15-4-12-8 52q-7 28-8 50l-7-34q5 48 0 108l-10 102q-3 40-1 89l5 74 16 305q8 124 41 387 49 482 87 1361l8 133 7 133 9 497 6 443q2 256 10 470l3-41q-1-33 3-40-2 191-1 551l-6 193q-4 114-1 182l6 50 8 53q5 59 2 176-4 121-1 166 4-5 4-35 1-29 4-34l-1 204-4 30-12 24-13 12-15 8 5-1 7-3 9-7 10-10 4-5 3-6 2-3 3-6 13-42q6-31 11-34l-2 22 2 15 10-105 6-103 11-173q0-234 5-314 5 107 0 274-6 171-3 232l14-234q5-137 15-211l-6 234-9 218-5 98q13-140 19-388l7-380q0-7 2-7v7l1 5 2-5-5-27q10-84 10-265 1-217 4-281h14l3-60q0-13-1-13t-5 18q-3-56 2-132l1-106 3 20-5-416q-2-104 2-331l1-323-10-348-16-423q-18-428-43-715l-20-279-21-266-20-220-21-223q-27-264-76-418l-17-18-16-13zm101 5771l-19 3 19-3h1z" />
        <filter filterUnits="userSpaceOnUse" x="323" y="2784" width="327" height="5774"/>
    </g>
    <g transform="scale(.05) translate(171 61)">
        <path d="M3523 6549q8 35 8 171-4-20-5-78l-3-93zm141 428h-1q-5 17 0 60 2 21 4 21t3-25h-1q-2 0-2-28t-3-28zm-609-4547q-45 0-96 5l-140 19-228 39-52 6-175 14-442 28-367 29-373 44q-415 64-669 212-14 12-22 26l-18 22q49-22 93-33l76-16q-36 16-16 16l53-8-22 9q-18 6-18 9l82-13 80-10-51 18q77-24 168-34l165-14 263-29 255-20 247-13 649-55 34-4h4l238-38q164-31 262-36l61 1 47 10 6 2v-1l1 1h-1l6 3 3 3 3 2 12 12 30 46q25 48 43 120 17 61 28 134 17 106 32 281l10 144 13 146 56 581 21 221 18 221 44 828 29 738q15 424 35 783l1-69q-3-56 0-68l15 473 20 447q6 319-39 626l-10 83-17 89q-21 76-60 140-45 75-112 118-70 44-155 47l-142-14q14 9 60 16l63 8h-12q-87 0-192-41-69-27-175-85l49 39q45 28 47 35l-33-18q-16-10-20-10-1 0-1 1 80 50 162 80 98 36 185 36h13q111-3 194-64 61-42 112-116 61-96 96-243 27-111 49-299-6 134-29 246-26 129-74 229-61 127-155 193-56 38-115 53-55 15-117 15 15 1 29 1 55 0 107-15 66-18 120-61 83-64 142-184 38-78 67-187l41-181q-15 112-39 202-34 123-81 210-31 56-70 99-46 51-100 81-55 32-119 43l-112 4q-68-6-138-29 70 25 134 32 23 2 46 2 90 0 171-38 98-49 163-147 50-74 85-174 48-145 68-342 14-144 16-320l3-11v12l1 7 2-7-5-47q10-160-6-447-8-161-9-235l-4-230 13-1v-100q0-21-2-21-1 0-3 30-7-95-6-220l-2-162 2 19-27-693q-6-138-17-553-9-343-21-539l-41-581-31-352-32-346q-11-188-25-307-23-200-61-325-31-102-80-171l-38-43-21-17-9-6-1-1-4-2-1-1-3-2-16-9q-41-20-104-28-31-3-67-3z" />
        <filter filterUnits="userSpaceOnUse" x="472" y="2430" width="3203" height="6413"/>
    </g>
    <g transform="scale(.05) translate(171 61)">
        <path d="M1071 4490l-2 3q-4 0-3 3l7 1q3-5-2-7zm5 132l-7 5-9 2q2-7 16-7zm217-150l-70 5-66 14-2-2h1v-3l-4 6-47 4-48 11-3-12q-6-1-9-1-9 0 0 6-8 6-22 6l-15 1v-1q-18 5-66 26l-54 15q-35 6-51 14l-51 25-61 32-100 63-39 24-38 24-33 21-34 18q-42 25-67 61l-5 30h2q4 0 8 4l9 9q-7 6 4 19l-3 2-2 3 11 11 10 10-7 5q3-1 6-1 7 0 15 5l21 13 17 1 14-4 56-16 32-21 31-26q70-54 206-130l19-14 19-13 76-33 68-27q40-15 72-33l-8-1-7-1 88-27 32-4q20-2 30-8l6-9 7-10q8-8 28-11l27-10-6-2q-1 1-2 1-2 0-4-3l37-19-8-7-7-7h3q4 0 3-4l-36 1h-31l-24 7-30 4q16-10 46-14l40-11-42 1-40-4 81-11 17-2z" />
        <filter filterUnits="userSpaceOnUse" x="409" y="4472" width="912" height="469"/>
    </g>
    <g transform="scale(.05) translate(171 61)">
        <path d="M3305 4325v1-1zm0 1q0 1-2 1h-2q-1-1-2-1t-1 3q1 4 3 4 1 0 3-1l1-6zm-65 117q5 0 12 3l-9 2-9-2q2-3 7-3zm-192-153l-61 2-75 8q-77 8-125 23l-49 11-47 11-79 19q-47 13-81 46l-11 28 10 6 6 10q-8 6 0 19l-2 2-3 3 7 13 7 11-7 4h3q8 0 16 8l17 17 16 6 13-1 57-1 36-11 37-16q83-30 243-50l24-5 23-4h86l77 4q23 2 46 2 18 0 36-1 0-4-6-4l-7-4 95 14q8 1 32 11l32 6 21-11 32 2 29 3-5-4-5-4 21-1 21-1-3-9q-5-4-4-10l4 2 3-2-34-15-29-14-56-14 50 8 42 7-40-17q-23-9-35-21l42 13q25 7 38 13l17 5q-26-15-67-26l-69-17v-3l1 1 1-1v-2l-6 4q-13-12-47-17l-50-11 2-13q-8-4-11-4t1 5l-24-5-19-4 4-2-75-5-59-9-57-8z" />
        <filter filterUnits="userSpaceOnUse" x="2518" y="4290" width="1008" height="247"/>
    </g>
    <g transform="scale(.05) translate(171 61)">
        <path d="M1429 6415l-3 3h-1q-2 0-2 2 1 4 3 4 1 0 3-2 5-3 0-7zm-36 128l-8 3-10-1 18-2zm-218-137l-61 6-74 9q-83 10-127 24l-50 10-48 11-82 19q-49 12-84 45l-11 28 10 6 7 10q-8 5 0 20l-3 1-3 3 7 13 8 11-8 4h3q8 0 17 8l17 18 16 5 15-1h57l38-10 38-16 125-32 127-21 25-6 24-5 89-5 79-3 84-10-7-2-7-3 98-2 35 4 32-1q7-2 19-16l31-5 29-6-6-2-6-3 41-13-6-8-7-8q2 1 4 1 3 0 2-4l-67-11-24 3-31-3 49-4 41-4-42-7-37-12 80 6h17l-69-7-67-1-1-3h1v-3l-5 5q-13-8-41-8h-6l-50-3 1-13-11-3h-1q-3 0 2 5l-23-1-16-3 1-2-74 4-57-4-57-5z" />
        <filter filterUnits="userSpaceOnUse" x="638" y="6406" width="1031" height="251"/>
    </g>
    <g transform="scale(.05) translate(171 61)">
        <path d="M3217 6220q1 3-2 3h-4q-2 0-2 2 2 3 5 3 2 0 4-1 6-4-1-7zm-40 129l-11 4h-12q2-4 10-4zm1-131q-3 0 3 5-6 2-14 2t-17-2q-8-1-15-1-6 0-10 2l5-3-96 9-77 2q-20-1-36-1-24 0-39 2l-80 14-97 22q-101 24-161 53l-62 23q-39 14-59 25-65 29-96 45-57 29-85 74-3 12-3 30l14 2 13 7q-9 9 8 17l-3 3-2 4 13 9 13 8-4 2-2 4 24 1 25 10h20l15-6 67-18q26-10 81-46 62-34 144-61 57-19 154-43l30-10 30-8 112-15 101-10 107-14-10-2-9-3 65-2 61-4 44 3 42-1 11-8 12-9 40-5 38-6-8-2h-3q-5 0-5-3l52-13q-1-5-9-8l-7-8q3 1 4 1 4 0 4-4l-47-5-39-6q-26 3-45 3-16 0-27-2l62-5 53-4-53-6-49-12 104 5h22l-89-7h-87l-2-2h2v-3l-6 5-61-6-65-1-1-14-14-2h-1z" />
        <filter filterUnits="userSpaceOnUse" x="2239" y="6218" width="1290" height="368"/>
    </g>
    <g transform="scale(.05) translate(171 61)">
        <path d="M2927 8564q2 4-9 4-11 1-10 4l21-1q14-5-2-7zm-96 141l-27 6-32 3q11-8 59-9zm810-222l-222 33-218 34q-2 1-3 1-2 0-1-3h4q6-3-1-3l-15 8-153 13-162 19-2-14-35 1q-16 2 4 6l-77 7-59 5 9-4-239 27-192 10-187 6-445 24-415 11-163-2-155-5-260-18q-97-9-170-9-48 0-85 4-15 8-27 22 29 8 58 31-29 0 7 21h-10l-8 1 28 20 27 17-12-1-9 1q29 4 63 21l57 28 53 15 45 7 184 26 118 2 119-5 400-12 413-21 79-8 78-8 292-22 260-26 274-40-24 1h-25l322-45 112-13 106-18q20-6 56-26 31-11 101-23 67-12 94-23l-20 1-20 1 127-38-22-4-20-4q20-1 19-7l-218 30-80 17-100 13 156-30q92-14 132-28l-134 18-123 8 259-40 55-10z" />
        <filter filterUnits="userSpaceOnUse" x="372" y="8483" width="3345" height="363"/>
    </g>
    <g transform="scale(.05) translate(171 61)">
        <path d="M7247 1808l-24 4q-7-1-12-1-12 0-11 4l49 3q36-5-2-10zm-340 170l76 1-64 4h-77l65-5zm-1539-174q-66 0-115 1l-779 20-292 25-982 93-383 33-365 29-610 31-301 4-145-2-146-17-39 2-25-1-10-3q17 15 56 38l41 22q45 25 69 34-11-1-17-1-17 0-5 9l47 23-23-2-20-1q37 13 75 32l73 26-52-1 159 27 146 32 127 10 105 1h101q195 0 330-6l267-23 272-33 919-97 475-45 481-28 183-10 183-8 687-10q471-7 611-7 335-1 649-15l-57-3-56-4h392l370-3 265 5q59 1 109 1 84 0 143-3l69-9 72-12 243-7 227-7-47-4-47-4 157-7 154-10q-7-7-49-10-41-4-46-12h30l17-3-279-7-238-8q-153 4-261 4t-171-3q101-6 255-6 58 0 122 1h94q152 0 225-5-86-5-321-9l-291-16 621 7h132q-211-8-531-10l-523-1q-11 0-9-3h9l6-2-6-2-37 7-365-11-387-3v-18q-59-4-83-4-34 0 7 8-33 2-70 2-52 0-112-4l-122-3 3-2q-212 0-573 7-37 1-85 1-142 0-372-4-199-4-331-4z" />
        <filter filterUnits="userSpaceOnUse" x="1176" y="1804" width="7933" height="464"/>
    </g>
    <g transform="scale(.05) translate(171 61)">
        <path d="M6252 6254l2 56-4 66q-4-14-1-56l3-66zm155 317q-8 12-5 43 1 15 4 15t6-17h-1q-4 0-1-20 2-21-3-21zm-76-5173q9 34 11 70v57q-7-16-12-16-3 0-4 5l-5 39-6-16-6-13-4 60-5 58q-7-32-13-36 14 54 12 121l-8 117q-2 45 2 101l7 84 5 180 1 175 7 226 6 234-4 395-5 408-14 835v160l-2 159-24 596-20 530q-14 312-11 563l5-49q0-40 6-48l-27 660-15 230q-9 133-5 218 1 23 9 60l11 63q7 57 10 208 4 133 15 196 4-6 1-41-3-34 2-40l16 134 21 129q6-6 6-42 0-34 8-39l2 24q0 15 4 15h1q-17-312-7-440-8-222 5-370v323q-2 178 12 271l3-273q3-145 18-248-9 208-3 528l7 111q-13-476 9-897 0-8 3-8h1l-1 8 2 6 2-5-6-33q17-102 27-315 12-273 18-338h18l7-70-1-15-7 21q-2-68 8-158l9-113 2 11 17-496q4-137 25-395l26-386 15-416 13-506 17-854 10-336q6-202 1-322l-11-267q-9-154-24-270-41-303-146-488l-25-16q-14-7-22-14z" />
        <filter filterUnits="userSpaceOnUse" x="6202" y="1398" width="359" height="6812"/>
    </g>
    <g transform="scale(.05) translate(171 61)">
        <path d="M4386 4937l2 35-3 40q-4-9-2-34l3-41zm159 196h-1q-8 7-3 26 2 9 4 9t5-11h-1q-4 0-2-12t-2-12zm-157-3175q1 23-6 45l-12 35q-4-12-8-12-7 0-17 27l-3-11q0-8-4-9l-15 38q-11 21-14 36l-2-14-5-11q5 35-6 78l-20 75q-6 30-5 64l4 55 6 223q6 90 40 283 27 210 43 488l22 509 6 98 5 97v184l-1 179-15 323q-12 183-6 343l5-30q0-24 5-29-11 166-7 402l-3 140q-1 79 9 131 3 15 13 36l16 36 25 122q15 74 35 108l-4-23q-6-18-2-23 40 97 69 124 4-6-2-22-4-16 2-21l5 11 7 4q-24-57-35-115-15-70-15-114-25-123-20-216l13 98 9 90q11 101 33 148l-19-151q-7-81 2-144 3 148 36 294 9 36 17 53-25-87-41-238-14-137-14-262 0-5 3-5v5l2 3 2-3-8-19q10-55 12-187 2-143 10-201l18 1q8-49 4-49-2 0-6 10-3-41 7-95l8-66 1 5 14-302 19-249 10-235-3-254-8-308q-10-342-29-524-7-60-16-205l-17-195-34-325q-23-192-76-309l-20-14-19-11z" />
        <filter filterUnits="userSpaceOnUse" x="4271" y="1958" width="339" height="4117"/>
    </g>
    <g transform="scale(.05) translate(171 61)">
        <path d="M7445 3983q1 4-11 4h-4q-9 0-7 4l24 1q16-5-2-9zm-121 175l-31 4-37 1 31-5zm14-176q-18 0 4 8-20 3-41 3t-44-3l-25-3h-13l-35 2 13-4-279 15-222 4q-42-1-77-1-89 0-139 4l-231 18-281 26-475 54-185 21-177 20-297 32q-179 19-285 63l-14 20-12 18 41 8 31 14q-27 8 12 26l-10 2q-8 0-9 4l34 17 34 15-13 2q-8 1-11 4l74 10 69 22 60 7 51-3 208-5 130-19 133-25 447-62 465-50 89-13 89-11 332-22 295-16 162-8 152-13-27-2-28-3 190-8 179-10 129 3q34 1 61 1 37 0 62-2l34-9 36-10q19-3 44-3 33 0 76 5l115 11q-3-5-23-8-20-2-23-8 59 2 164 24-1-8-23-18-20-11-21-19l16 5 11-1q-59-23-147-40l-123-22-219-7q42-5 93-5 46 0 98 4l167 13q-66-17-168-27l-147-21q227 11 323 32l72 15q-108-35-282-46l-264-4-4-3h4l3-2-3-2-18 8-180-5-187 4v-18l-40-3z" />
        <filter filterUnits="userSpaceOnUse" x="4523" y="3982" width="3854" height="428"/>
    </g>
    <g transform="scale(.05) translate(171 61)">
        <path d="M7527 5937l-12 3q-4-1-7-1-7 0-6 4l26 3q19-4-1-9zm-183 166l40 1-34 4-40-1 34-4zm-811-179q-35 0-61 1l-256 15-309 29q-310 35-518 76l-201 33-192 34-319 57q-191 36-303 90l-13 21-10 19 44 4 36 11q-18 7-9 14l24 11-10 3q-9 1-9 5l38 13q21 10 38 12l-14 3q-9 2-11 5l80 4 76 15q18 2 36 2 14 0 29-1l55-7 114-10 109-13 138-28 141-35q420-94 981-147l96-12 96-9 361-11q214-6 322-6 178 0 341-9l-29-4-30-4 401 8 140 11 132 6 37-7 39-9 58-3h98l91-5-26-4-25-4 86-5h24l16 1 14 3 19 9 13 9 2 3 3 2 14 24 4 21-3 26-9 20-6 8-7 7-13 9-6 3-3 2-9 4-46 14 33 4 17-2 17-6 16-9 12-11 10-13 1-2 3-4 4-9 6-21q4-20-1-38-3-16-14-32l-5-7-17-16-9-6-27-13-8-7 17 4 21 9 13 9 13 11q17 18 23 42l4 25-3 29-11 27-3 4-1 2-3 4-16 16-6 5-4 2-13 8-31 10-3 4 18-4 27-11 22-17 15-19q19-27 17-61l-5-27-11-25-12-16-9-9-16-11-4-2-3-2-19-8-20-5-135-12-128-9-2 1h-1l-94-4-123-10 225 9-8-1 145-4-145-10-171-27 171 14 150 5 75 3-113-9-112-4-330-21-5-4h5l3-1-3-2-20 6q-63-15-193-19l-206-8v-18l-44-5h-4q-13 0 8 7l-97-3-65-4 3-2h-40q-106 0-264 4-20 1-45 1-75 0-196-4-105-4-175-4z" />
        <filter filterUnits="userSpaceOnUse" x="4351" y="5924" width="4215" height="477"/>
    </g>
    <g transform="scale(.05) translate(171 61)">
        <path d="M7916 8428l-15 2-16 2q6 6 23 6h9q23-3-1-10zm-232 151l49 5-42 1-48-5 41-1zm-1050-230l-312 4-379 26q-346 31-632 86l-243 38-232 38-387 59q-243 36-371 80l-17 21-14 18 54 7 43 12q-37 9 18 25l-14 3q-10 1-11 4l47 16q25 10 45 13l-31 7 98 6 93 17 80 2 67-6 274-25 169-31 171-39q615-127 1189-156l117-8 117-5 439 5 390 15 414 17-36-6-35-7 485 44 168 25 160 19 45-3 47-6 155 16 145 16-29-8q-26-3-29-9l108 10 136 12-97 108-35 27-28 15q-21 11-32 19l26-1 36-2-23 9q-10 3-8 8l32-12q31-12 58-37l140-141-198-42-268-54-124-14-152-24 241 27 205 27q-65-16-204-41-119-21-183-41l205 32 190 33 84 14q-140-33-337-62l-335-45-5-4h6q7-2 0-3l-25 4q-74-21-232-36l-249-27 1-18-52-8q-6-1-9-1-10 0 13 8l-118-11-87-9 12-2-370-17-294-17-286-14z" />
        <filter filterUnits="userSpaceOnUse" x="4047" y="8349" width="5158" height="535"/>
    </g>
    <g transform="scale(.05) translate(171 61)">
        <path d="M8391 4775l2 32-3 38q-5-9-2-32l3-38zm154 189q-8 6-4 24 2 9 4 9t5-9h-1q-4 0-1-12 2-12-3-12zm-254-2906q-9 1-16 12l-3 9 3 7 2 2-1 1-2 2-7-5-5-4-4-2-5 31q-4-4-8-4-8 0-13 21l-5-6q-2-4-5-4h-1l-7 28q-7 17-7 30l-11-17q11 25 6 62l-10 65 3 56 9 48 24 200 27 127 30 131q39 197 63 449 19 193 33 472l8 91 5 90-2 338-8 301q-7 172-6 320 5-4 6-28 0-23 5-27l-28 375-19 130q-13 77-14 123l5 35 7 37q2 43-12 121-16 85-17 114 6-2 9-23 4-20 9-22l-25 162q8-1 18-23 10-20 18-20l-5 15q-4 10 1 11 21-54 42-143l30-119 11-97q8-72 19-119 0 77-20 189-22 123-24 162 17-56 38-161 19-95 36-143l-26 161-32 152-16 69q36-105 61-271l34-261q0-5 2-5 1 0 2 1l-1 4 2 4 2-3-5-20q18-57 28-180 12-153 19-193l18 2 7-41q1-9-1-9t-7 12q-2-39 8-91l8-62 1 4q8-130 9-285 1-71 14-226 13-146 12-221l-5-239-13-289q-16-294-48-490l-25-191q-15-115-30-181l-30-150-32-151q-23-88-49-144l-37-64-22-27q-16-14-25-15z" />
        <filter filterUnits="userSpaceOnUse" x="8191" y="2058" width="416" height="3848"/>
    </g>
    <g transform="scale(.05) translate(171 61)">
        <path d="M2400 1416q-17 9-70 19l-83 18q17-9 70-20l83-17zm-361 250q-17 0-45 11-28 10-10 10 6 0 15-1-4-5 25-10 27-5 24-9-4-1-9-1zm6230-1666l-173 42-163 35q-62 17-133 44l-106 43-124 47h-1l-3 1-1 1-306 92q-85 26-280 91l-287 93q-445 134-996 252l-1055 214-202 44-201 41-756 141-673 133q-382 77-708 165l63-11 62-10q-367 80-826 208l-287 77q-161 45-269 85-28 10-70 33l-73 36-253 97q-161 59-235 96h2q11 0 48-15l50-16-160 72q-95 43-153 73l54-11q30-11 43-11 5 0 7 2l-30 12q-19 7-16 11 408-155 540-191 271-102 456-150l-396 135q-218 72-330 125l337-112q178-58 310-86-238 70-651 218l-135 54q304-111 553-194 284-95 553-170l11 1-10 2-6 4h7l38-18 394-94q282-73 418-98l4 17 91-17q30-6 11-6-7 0-21 1 86-24 199-42l140-26-11 4 626-130q183-37 502-87l492-80 528-99 321-62 319-64q645-121 1087-240l421-112q242-65 397-118l388-132 261-110q252-110 309-134 170-72 300-114l29-24 21-21-27 3-71 3-80 1q39-13 17-17l-55-1 23-7 20-8-87 3-85 7 53-21z" />
        <filter filterUnits="userSpaceOnUse" x="0" y="0" width="8561" height="2207"/>
    </g>
    <g transform="scale(.05) translate(171 61)">
        <path d="M7781 2800l-7 4q-2 2 0 2h2l3-3 2-3zm-250 1l17 7q22 11 52 17l-69-24zm69 24l3 1h4q-4-1-7-1zm7 1q13 2 28 4l-12-3-16-1zm62-676l-10 6 14 13h-1q-3 0 1 7l-4-1 10 15-5-2 13 10 11 13 20 16q12 7 36 29l47 41q36 37 57 92 21 54 22 114v45q-6 47-20 83-14 37-36 68l-56 59 9-4q-40 30-84 39l-34 3-33-1-18 3-31-6-29-9 5 3 5 3-39-13 5 6 4 5-6-2q16 10 65 28l61 9-54-5-43-12 43 15 29 7 57 3h2l-2 1 6-2q26 0 54-12l52-27 2 4q17-9 15-9-1 0-6 2l35-30v1q29-30 48-69 38-74 45-121l5-67q0-38-10-81-15-72-53-125-39-55-66-76-84-68-138-69z" />
        <filter filterUnits="userSpaceOnUse" x="7519" y="2150" width="417" height="681"/>
    </g>
    <g transform="scale(.05) translate(171 61)">
        <path d="M7411 2875l-37 17 51 38 22 14-71-52 35-17zm36 69l18 13-10-8-8-5zm72 47l2 1h1l-3-1zm131 50q-8 0 0 3h10l-10-3zm81-889l-12 4 22 18q-2-1-3-1-4 0 4 10l-6-3 18 21-9-4q12 7 40 37l31 26 53 55 63 77q47 71 64 160 19 93 1 184l-18 69q-26 67-71 113-44 47-98 67-51 19-110 19h-16l5 2q-67-6-130-35l-47-25-42-26-28-13-13-8 15-10 80-44-17 7q27-15 53-31l-10 2-9 1 7-5-93 43-63 33 93 64q-28-14-55-35l-41-31 45-23 67-34-119 54 73 59 65 41 2 2 5 1q52 37 155 51l-1 5 19 2h3q3 0-5-2h42l34-4-6 2q64-10 122-50 91-63 131-154 19-45 31-100 12-62 9-125-3-109-49-201-39-82-84-131-49-52-92-84-53-38-105-50z" />
        <filter filterUnits="userSpaceOnUse" x="7374" y="2152" width="688" height="899"/>
    </g>
    <g transform="scale(.05) translate(171 61)">
        <path d="M7996 2490l-24 1-9 2-7 2-7 8-1 4 2 1v3l-1 1 2 3 1 3h5l6-4 21-3 4-1 7 2 13 2-1-1 8 1 5 2 2-2 5-1-1-1 3-1-1-3-4-2 2-1-4-3-3-1-6-3v-2h-1l-2-1-6-1-8-4z" />
        <filter filterUnits="userSpaceOnUse" x="7948" y="2490" width="81" height="28"/>
    </g>
    <g transform="scale(.05) translate(171 61)">
        <path d="M7788 2763l-3 3 3 3q-3 0 0 3h-1l2 5h-1l7 6 6 3 13 4 17 3 57 12 67 23-2-2 35 18h5l13 6-2-2 9 4q-2-2-1-4l-24-16 17 9-13-10 20 12q-4-4-28-17v-1h-1l-21-12 1-1-3-1-8-4-42-18-32-9-29-7-23-5-18-4-20-1z" />
        <filter filterUnits="userSpaceOnUse" x="7785" y="2762" width="228" height="90"/>
    </g>
    <g transform="scale(.05) translate(171 61)">
        <path d="M5454 5414l2 1-2-1zm32 34q58 25 101 33l25 3q-12-1-25-3l-18-2q-51-11-83-31zm134-584q-52 0-99 16-30 9-75 37-64 42-102 116-30 62-35 132-4 78 23 142l-6-24q22 85 87 141 47 46 95 62l31 5 52 10 50 3-21-3 68-2-11-2-10-3 10-1-65-8h12q-80-13-119-38 53 27 121 33l14 1-93-18q-52-16-92-47l-1-2-5-2-46-53q-25-36-34-67l4-2-4-15-1-3v5l-8-34-2-23q-5-59 8-111 22-83 96-138 34-27 79-40l56-10 48-1 7 1q52 8 93 31 42 24 71 62 45 56 52 143 7 62-20 129-20 51-65 114l-2 14 30-20q-4 5-2 5h1l10-6-5 8 15-10 14-11-6 10 49-56q16-23 25-53 20-55 20-107 1-64-31-132-23-52-65-92-42-41-94-62-56-24-110-24h-12z" />
        <filter filterUnits="userSpaceOnUse" x="5308" y="4864" width="624" height="641"/>
    </g>
    <g transform="scale(.05) translate(171 61)">
        <path d="M5599 5803l-10 1-3 6-6 2h-2l-5 5h-2l-4 8 1 5 5 8 14 9q15 12 29 42l6 9 5 33 4 16h2l1 17-1 13 6 4 3 12 2-2 4 8 6-3 1 1 3-13v-11l2 10q-1 6 1 8l6-16-2 16v3l3-27h2l-2-1 3-9v-10h5l-1-2q-1-2 1-5v-4l1 1-3-16 1-24-4-13-6-16q-6-16-15-25l-14-18-14-14q-9-7-23-8z" />
        <filter filterUnits="userSpaceOnUse" x="5567" y="5803" width="110" height="196"/>
    </g>
    <g transform="scale(.05) translate(171 61)">
        <path d="M5147 5792l-2 4-6 4-2 7 1 14 10 17 27 49 6 8 13 29 9 13 1-3 9 16 3 5 3 5h7q2 0 5 3 1 2 3 2h1v-2l8 1 2-5h1l-3-9-5-7 5 5 5 4-2-13 5 10 2 1-9-16 1-1-2 1-1-7-2-7 4-2-2-1-1-3 1-2v-1l-6-9-3-17-23-38-9-17q-5-19-23-33l-9-4-5 2-6-1-2-2-8 2-1-2z" />
        <filter filterUnits="userSpaceOnUse" x="5137" y="5792" width="116" height="173"/>
    </g>
    <g transform="scale(.05) translate(171 61)">
        <path d="M5558 4634l-98 46-4 3 1-1-22 21-18 17q-12 10-17 19l-12 24q-6 14-9 31-6 27-3 50l4 37 5 29q3 16 14 28l9 4 6-5q1 2 3 2t4-2l2 2 8-5 1 2 3-6 6-6 2-10v-19l-6-25q-11-42 1-81l5-16 17-25 18-20 12-11v2l3 14 1-1q0 16 3 29v12l3 10 7 4 6 9 5 8v-4l9 10 3-6 2 1-5-20-4-15 5 13 5 10q-4-15-1-22l6 21 2 4-9-35h2l-2-1 1-13 1-15h4l2-5q-1 0-3 2l1-10 22-85z" />
        <filter filterUnits="userSpaceOnUse" x="5375" y="4634" width="183" height="308"/>
    </g>
    <g transform="scale(.05) translate(171 61)">
        <path d="M5851 4823l-1 2h3l-2-2zm-43-136l-54 38-18 14-27 29-18 26-12 22q-6 14-2 29l6 8 7-1 5 4v2l9 2v2l4-2 6 1 5-5 9-10q4-13 7-19 9-22 45-54l7-6-3-7 7 3h-1l-3 4 21 59 2-2 3 25v19l6 5 3 18 2-4 4 12 6-4 1 2 3-19v-17l2 14q-1 9 1 12 1-15 6-23v-12h2l-2-1 2-15-2-16 5-1-1-3-1-7v-5l-6-23-9-36-27-58z" />
        <filter filterUnits="userSpaceOnUse" x="5675" y="4687" width="178" height="212"/>
    </g>
    <g transform="scale(.05) translate(171 61)">
        <path d="M5800 5082l-15 2-18 3-16 3-14 1-21 7-7 7-1 5-4 5-2 1-3 7h-1l-1 8 4 4 11 5 16-2 46-4 8-1 24 1 12-3-1-2 13-1 5 1 4-1 1-5 6-5-1-2 3-5-3-5v-1l-7-2-5 1q1-2 3-2h1l3-2-8-5h7l-10-1v-1l-1 2-4-3-4-1v-4l-1-1v2l-2-1-1-1h-7l-9-4z" />
        <filter filterUnits="userSpaceOnUse" x="5697" y="5082" width="151" height="58"/>
    </g>
    <g transform="scale(.05) translate(171 61)">
        <path d="M8629 120l-1 42q-1-6-3-6-1 0-1 2l-1 13-3-11-2 40-4-12 6 81 10 62 27 115q9 32 49 140 93 256 194 480l43 90 153 321 82 157-13-28 96 185 33 65 32 61 23 31 33 58 31 54-5-12-6-12 44 73-4-13q-5-10-3-12l7 11-64-127q-29-49-55-104l49 91 42 76q-53-102-73-151l8 14-45-87-1-2 2 2v-1l-6-8-43-89-48-95 4-2q-11-27-12-27t2 9l-22-44-17-36 4 6-69-140-52-113-48-111-116-264-98-249-64-195q-18-54-43-161l-41-155-11-12z" />
        <filter filterUnits="userSpaceOnUse" x="8614" y="120" width="832" height="1989"/>
    </g>
    <g transform="scale(.05) translate(171 61)">
        <path d="M8456 283l-27 17q4-5 1-5-2 0-10 4l5-7-27 15 6-8-25 20-25 18-33 34-58 67-64 93-217 322-41 63-153 218-77 110 5-4-84 111-68 83-14 25-31 40-30 36 14-13-40 50 9-6 8-4-6 7 40-42 34-36 58-69-49 62-43 50 46-49 41-43-85 97-18 20q55-55 143-166l2-1-1 2q-2 2-1 2l2-1 3-8 49-57 49-64 4 3 11-13q2-3 1-3t-4 3l23-30 18-24-2 5 68-96 111-149 124-180 114-167 90-124 78-99 74-95 2-14z" />
        <filter filterUnits="userSpaceOnUse" x="7463" y="283" width="993" height="1289"/>
    </g>
    <g transform="scale(.05) translate(171 61)">
        <path d="M6852 746l-8 10-8 6q1-5-1-5t-7 4l2-5q-12 6-18 12l2-6-14 16-16 13-20 25-81 115q-65 96-180 209l-37 39-145 125-74 62 5-1-80 61-32 22-30 22-14 17-28 22-26 22 7-4q3-3 5-3h1l-35 31 8-3 7-1q-7 3-5 5l63-43 52-37-44 34-37 29 76-49-91 64 128-90h1l-1 1q-2 2-1 2l2-1 3-5 45-30 46-34 3 3 10-6q3-2 2-2t-4 1l22-16 15-10 66-54 105-85 114-111 96-113 68-90 50-76q28-45 37-80l-4-12z" />
        <filter filterUnits="userSpaceOnUse" x="6020" y="746" width="836" height="810"/>
    </g>
    <g transform="scale(.05) translate(171 61)">
        <path d="M4845 1185l-8 7-11 4-11 13-20 25-21 37q-25 43-88 116l-17 22-107 106h1q2 0 3-2l4-2-43 40-16 13-13 14-5 11-12 14-11 14 6-4-13 20 4-1 4-1-1 4 30-25 24-23-20 21-16 17 19-15q10-8 18-11l-7 6 7-6 1-1-1 1 18-16 1 1 1-3 22-17 23-19 3 3q8-5 4-5h-1l11-9 9-7-1 2 31-30 53-46 26-27 31-34 47-61 34-49 26-41q14-25 15-47l-5-9-5 4-6 2q2-3-6-3l1-3-13 3 1-3z" />
        <filter filterUnits="userSpaceOnUse" x="4463" y="1185" width="415" height="450"/>
    </g>
    <g transform="scale(.05) translate(171 61)">
        <path d="M3343 1399l-17 4-29 13-31 27-96 91-16 19-62 61-28 32 5-1-34 34-13 12-11 12-3 10-10 13-10 12 6-3-11 18 8-1-2 3 27-22 20-21-16 19-14 16q20-19 33-25l-31 29-6 6 51-48h1l1 1v-3l19-15 19-18 3 4 3-4 8-9 8-6-1 2 26-27 22-19 22-18 22-21 72-68 38-30 34-22 34-27 2-10-11-3-3-6 2-2-12-6 4-2-11 1-12-2z" />
        <filter filterUnits="userSpaceOnUse" x="2983" y="1399" width="403" height="358"/>
    </g>
    <g transform="scale(.05) translate(171 61)">
        <path d="M1600 1736l-8 2-14 7-15 18-46 54-7 11-26 34q-7 10-8 19l2-1-10 20-4 7-3 8 4 6-1 7v7l2-2 2 10 6-1v2l8-13 4-12-2 11-2 8q5-10 11-13l-7 15-1 3 12-25h2l-1-1 6-8 6-8 4 3v-2q0-3 3-4l2-3 1 2 7-13 17-14 7-10 10-12 18-23 17-18q22-15 29-38l-1-10-5-3-3-6 1-2-6-6 1-2-5-1-7-3z" />
        <filter filterUnits="userSpaceOnUse" x="1461" y="1736" width="164" height="208"/>
    </g>
    <g transform="scale(.05) translate(171 61)">
        <path d="M1837 6184q1 3-3 3h-4q-3 0-3 2 2 4 5 4 2 0 6-2 7-3-1-7zm-101 124l35 2-16 1-19-3zm72-1239l-10 17-14 11-20-1v-5l-2-5-16 11-16 10-1-12q-3 16-18 30l-28 25-16 26-9 24-43 99q-15 41-34 139l-65 238q-44 155-54 251-2 21-1 50l2 49q0 53 12 93l17 42 22 38q44 64 126 96 58 23 129 23 17 0 35-1l-14-3-14-4 192-10 68-8 62-14 16-11 15-13q17-10 58-22 38-12 53-23l-12 2-12 1 67-39q-2-3-10-3h-7q-7 0-10-4 12-1 10-6l-65 18-58 11q-60 23-102 25l88-25q51-13 73-26l-76 15-71 6 145-35 29-10-123 31-121 25-3-3h3l1-1-2-2-8 7-84 2q-27 2-47 2-24 0-38-3l1-13-16-5h-2q-5 0 3 6l-35-5-21-7v-1q-50-10-77-27l-17-17-3-6-1-3-1-2-4-10-1-1-2-5v-1l-1-2-7-52q-6-41 2-91l26-130 67-236q8-32 30-94l29-91 23-77 24-78q26-96 8-160l-12-10-12-10z" />
        <filter filterUnits="userSpaceOnUse" x="1461" y="5069" width="822" height="1249"/>
    </g>
    <g transform="scale(.05)">
        <path d="M5184 5921l2 6q1 2 2 2t0-3l-4-5zm66 118q19 21 43 41l-43-41zm43 41l9 9 14 10q-12-10-23-19zm91-727q-39 0-89 22-64 32-110 95-41 57-60 128l-10 53q-9 44-9 98 0 36 7 87 9 48 27 89l-4-16q14 46 47 97l43 58 18 11 26 21 26 17-4-4-5-5 38 20-4-5-4-6 6 3-53-44q-27-21-40-42l35 36 33 26-31-29-23-30 6 5q-17-18-29-36v-1l-3-3q-33-58-41-88l4-2q-2-14-3-14t-1 6l-6-23-3-15-12-73q-4-37 9-116 3-29 13-60l28-69q28-58 77-95 34-25 88-32l82 8 82 24 11-4-16-16 5-1-5-7 6 2-15-18 8 2-20-13-19-15-34-14-72-12z" />
        <filter filterUnits="userSpaceOnUse" x="5106" y="5354" width="440" height="771"/>
    </g>
    <g transform="scale(.05)">
        <g id="cat--right">
            <path d="M5998 5943l-2 3 3 1v-2l-1-2zm-59 107l-5 9 5-9zm-2-534l-1 11q-1-1-2-1-2 0-3 5l-3-2-3 11-3-2 1 10-2 10 4 14 9 27 17 33q25 52 28 128l3 26-12 91-10 46 2-4 2-3-18 51-17 33 1 12-7 16-7 15 5-4-8 21 5-1 4-2-1 3 22-31 14-29-11 26-10 21q13-22 23-33l-20 36 24-40-4 4 14-25h1v1h1l-1-3 13-24 11-28 4 1q5-8 4-8t-3 3l5-13 3-11 1 2 9-43 13-67 1-37-3-44q-6-47-16-74l-19-53-19-41q-12-23-30-34z" />
        </g>
    </g>
    <g transform="scale(.05)">
        <path d="M5100 4886l-5 1 2 2 2 2 1-5zm-21-174v7l-1 7-2-2h-2q24 35 25 44 16 19 18 36l-18-30q-9-17-18-23l12 26q6 14 4 26-4-15-24-47l-8-10q34 60 39 82l-2 1v-1l-2 1 5 2q-4 10 0 33l-1 36h-9l-2 8 4-1-2 18-2 13-2-2-5 61-12 51-13 51-7 59-5 76q0 81 16 133l16 50 21 46 48 66q31 33 70 37l19-7-4-10 1-9h2q5 0 7-10l2 1h3l3-19 6 2q-6-4-5-14l1-16-9-17-18-33-34-45q-40-69-31-212v-45l22-154q6-41 0-78l-2 7-2 6q3-40-8-88l-6-30-11-27-17-9-17-21-18-18 2 5 2 5-29-18z" />
        <filter filterUnits="userSpaceOnUse" x="5049" y="4712" width="210" height="854"/>
    </g>
    <g transform="scale(.05)">
        <g id="lei--left">
            <path d="M1279 5817q-1 0-2 2 2 6 9 6h2q9-1 1-7l-6 1q-2-1-4-1zm-134 80q6 0 16 7l19 9-18-5-18-11h1zm791-1070q-13 12-37 17l-41 7q-15 4-32 14l-24 16-103 65q-24 17-60 50l-61 55-212 173q-154 127-215 188l-36 41-33 43q-39 46-60 84-27 51-30 97-6 93 60 164 57 63 160 92-1-4-13-9l-14-9q80 38 208 55l75 12 72 3 20-7 20-9 68-9 62-12-13-1-13-1 41-13 37-15-14-4q-10 0-13-6l7-2 4-4-134 7q-32 4-60 4-31 0-56-5l101-3 83-10h-84l-76-13q25 3 62 3 42 0 99-4l32-4q-74 4-135 4-79 0-136-7l-2-3h2l2-1-1-2-11 5-90-24q-60-13-88-29l5-13-16-10q-2-1-3-1-2 0 2 7-18-4-33-18l-18-13 1-2q-20-12-32-26-9-8-19-24l-4-24 7-15q7-14 43-62 34-47 77-85 79-72 117-103l111-88 107-86 89-67 85-65q24-21 71-56l71-55q86-69 114-136l-7-31q-8 7-20 9l-20 2q8-12-9-12-3 0-8 1l4-5 2-5-22 1-21 1 8-11z" />
        </g>
    </g>
    <g transform="scale(.05)">
        <path d="M2809 3179l-110 34-46 11q-56 16-71 28l-2 4 9-1 3 2-2 1 9 1-3 1 18-1 71-18 46-12 39-12 3-11 6 7-9 4-17 76-5 16h3l18-1 12-47 6-28 22-54zm-71 130l5 12 5-12zm153-29l-31 9-26 9 35-14-31 9-17 5h-1l-2 1-44 9v-1l-4 1h-1l-4 10-3 8v1l15-3h-7l47-10 31-10 7-5 24-10h-2l18-8h-6l2-1zm-148 41l-5 7h-1v1h9l-3-8zm19 6l-16 2 5 13 11-15z" />
        <filter filterUnits="userSpaceOnUse" x="2580" y="3179" width="315" height="163"/>
    </g>
    <g transform="scale(.05)">
        <path d="M2944 3000l-59 3-3 4 7 2 1 2-1 1 6 3h-2l13 4 27 4 17 4-7 29-10 23 26-2q12-24 13-44l1-20-3-2q-12-9-26-11zm-11 79l-10 1 3 8 7-9zm184-30l-24 6-20 6 32-10-29 6 18-5-31 8h-1v-1l-1 1-35 8v-2l-4 1-15 3 1-1-26 6-23 2-3 5-10 17 54-8 30-8-5 1 59-16 6-4 17-6-1-1 14-6-5-1 2-1zm-191 39l-5 6-1 2-6 7 18-2-6-13zm20 11l-14 2 4 11 2-4 8-9z" />
        <filter filterUnits="userSpaceOnUse" x="2882" y="2998" width="238" height="114"/>
    </g>
    <g transform="scale(.05)">
        <path d="M3325 2903l-30 6 8-1 22-5zm-120 17l1 4 2-3-3-1zm27-97l-12 1-16 3-32 12q-35 13-50 23l-2 4 7 1q-4 2 2 2l-2 1 8 2-3 1h15l10-3 18-5 22-10 15-6-2-11 10 9-8 2v45l-1 16-3 11 8 2 13 1 1-4 4-24-2-73zm-26 101l-7 13-1 1h1l12 3-5-17zm114-18l-17 2-22 5-1 1-30 9-1-1-2 1-12 1h-6l-9 19h6l28-4h-5l32-11 22-7 5-4 22-5h-5l15-2-5-3-22 1-21 6 20-6h1l7-2zm-109 35l2 10 7-8-9-2z" />
        <filter filterUnits="userSpaceOnUse" x="3120" y="2823" width="220" height="128"/>
    </g>
</svg>
