<?xml version="1.0" standalone="yes"?>
<?xml-stylesheet type="text/css" href="/d0/css/tong-gong.css" ?>
<svg id="svg--work" class="svg-container" viewBox="0 0 500 500" xmlns="http://www.w3.org/2000/svg">
    <g transform="scale(.05)">
        <path d="M830 7807q5 15 3 56l-1 65q-5-14-4-55l2-66zm164 307q-7 12-2 43 2 15 5 15 2 0 4-17h-1q-4 0-2-20 1-21-4-21zm-115-5088q9 14 7 43l-9 46q-4-15-8-15-2 0-5 4l-11 32-3-14-5-12-15 51q-12 27-17 52v-21l-4-16q1 48-17 119l-31 125-6 66-1 7h1l-1 2-1 125v366q2 89 16 229l23 232q35 401 39 787l-1 824 2 158 2 157-10 588-7 524q-4 300 7 556 4-8 4-48-1-41 4-49-4 206 3 653l-2 228q-2 132 6 215 2 22 11 58l13 62q9 65 14 207 4 137 14 194 5-6 2-40-2-34 2-40l14 134 16 130q6-6 8-42 1-35 9-39l1 25q0 15 4 15h1q-9-338-3-442-15-239-10-369 10 112 14 322 3 187 14 271v-274q-1-153 9-248 0 175 9 529l5 112-7-452-7-445q0-8 2-8h1v8l2 5 2-5-8-32q11-95 9-311-2-242 4-331h18l5-71q0-14-2-14t-6 21q-4-67 3-156l5-106 2 6 3-490q1-136 16-389l17-381 6-411 4-249 2-250 1-436q-3-211-16-415l-17-331-17-315q-9-108-14-260l-9-264-1-28-1-2-7-228q-3-69-13-123-14-68-38-106-12-8-24-9l-22-1z" />
        <filter filterUnits="userSpaceOnUse" x="752" y="3026" width="306" height="6719"/>
    </g>
    <g transform="scale(.05)">
        <path d="M4163 7517q4 22 1 84l-6 98q-3-21 0-83l5-99zm139 475h-1q-4 9-6 29l-2 19v2l1 3v5l3 17q3 0 6-20l-2-2-1-1v-1l2-20q4-31 0-31zm-220 1331q-6 8-11 16l11-16zm-1546-6149h-11q-551 2-795 16l-388 38-368 34q-21 6-38 15l-30 14q95 14 201 40-46 3-23 12l60 14-28 2-23 3 97 19 93 14-36 2-27 5q30-1 62-1 64 0 137 5l184 14 153 1 131-3 538 7 338 4q211 2 345 9l349 29 177 20 189 16 163 22q40 10 62 25 26 15 40 38l7 12 9 24 1 14-5 79-17 88-21 101v3q-6 198 1 486 8 326 15 488l14 237 14 237 36 885q17 500 15 789-1 433-18 838 6-12 9-73 3-60 8-72l-19 254-9 249q-4 301-20 479-17 187-60 341-27 91-58 157-43 88-98 135-78 69-179 69h-9q-76-3-162-36-65-24-149-71l-134-82-120-77 48 39 49 38q-54-33-173-114-125-90-162-113l43 46q39 34 39 44l-29-23q-14-12-19-12-1 0-2 1 169 140 292 223 149 104 287 166 59 24 125 38 53 10 102 10 46 0 87-9 58-13 109-49l44-36 36-40q53-66 94-165-27 82-67 142-23 36-54 68-42 40-76 58-75 41-169 41h-9q-66-1-145-25-95-29-222-97l-180-105q94 70 192 125 111 63 209 92l123 24 143-11q35-9 75-31l35-22 9-6 14-12h1v-1l4-3q40-32 79-84l-30 41-40 43-12 10q-70 63-164 81-22 4-44 6l54-3q79-18 140-67l49-45 40-50 57-98q36-76 65-186l35-174q4-12 5-12h1l-2 13v8l3-8 1-52q38-175 45-486l6-257 20-235 18 2 11-109q2-23 0-23t-8 33q1-96 14-239l10-173 2 18q9-336-2-749l-9-593q-4-362-14-575l-24-616-9-373q-5-221-4-372l4-167 10-48 29-153q7-52 6-97l-8-65-9-31-1-2-1-1-11-27q-24-56-70-102-43-42-94-68-44-22-93-35-67-18-160-26l-136-10-45-3-4-1 2 1-4-1h2l-73-9-125-15q-600-65-968-65zm1245 6346l-23 1q12 0 23-1zm-757-348q158 126 289 206 91 54 173 89 112 47 213 58l59-3h-13q-38 0-77-7-60-9-129-33-87-31-207-99-83-49-164-108l-143-103z" />
        <filter filterUnits="userSpaceOnUse" x="906" y="3174" width="3445" height="6352"/>
    </g>
    <g transform="scale(.05)">
        <path d="M2958 4468l-5 4h-2q-4 0-3 4l11 1q8-5-1-9zm-42 176l-13 5-17 1q3-5 14-5l16-1zm-4-175q-10 0-1 7l-39 2q-10-2-17-2t-12 2l3-3-122 17-98 4-94 2-101 15-121 19-205 35-80 11-78 7-65 5-66-3-150 7-32 26 8 7 6 9 8 20q-17 0-7 26l-6-1-7 1 10 23 10 22-15-1q19 6 35 26l28 35 31 17 28 6 111 22 70-6 69-15 217-40 214-38 40-11 40-10 282-37q71-7 141-27l-13-2-13-3 86-8 80-11h59l55-6 14-10q10-10 15-13 17-9 53-11l51-9-10-3-11-3 35-9 35-10q-1-7-11-10-10-4-11-12h7l4-3-65-5-55-5-43 7h-53l84-12 72-9-74-5-66-11 73-2h69l31-1-123-3-118 8-2-3 2-1v-3l-8 8-81-4-85 5-2-18q-10-2-15-2z" />
        <filter filterUnits="userSpaceOnUse" x="1633" y="4468" width="1749" height="364"/>
    </g>
    <g transform="scale(.05)">
        <path d="M1762 6321l4 5 1 7-5-5v-7zm170 12q-7 2-2 5l7-1h2-2q-2 0-2-2 1-2-3-2zm-229 72l27 17 4 2-5-9q-7 0-21-8l-2-2zm-91-536l-38 7-4 8-10 9h-3q-8 0-20 9l-8-1-24 19-8-1q6 4-3 13l-15 14q-4 5-2 9l6 7 17 28q11 11 55 32 39 24 71 63l52 74 12 13 11 14 21 56 17 50q8 32 22 53l3-5q-2-4 3-6l11 64-2 23q-2 13 5 19l10 3 13 1 5 1h1l13-5 14-5 7-3 23-8 4-1h-1l6-2h-1l1-11 9 7v2l15-4 2-1h1l12-4v-5l-2-15 4-1v1l3-1-7-1q11-9 8-29-4-24-1-33l18-2q5-8 1-8-2 0-5 2-6-7-1-18 5-10 0-15l4 3-9-37v-1l-1-5v-1l-1-1-7-16q-5-11-3-35l-4-36-17-38-26-46q-33-51-62-77l-27-29-28-27-52-43q-32-24-88-27zm198 576l-2 1h1l2-1zm-1 1l-2 1q-8 4-13 7l16-8z" />
        <filter filterUnits="userSpaceOnUse" x="1476" y="5869" width="465" height="585"/>
    </g>
    <g transform="scale(.05)">
        <path d="M3287 6029l4 24v28q-5-6-5-24l1-28zm165 140q-8 5-3 20 2 7 4 7 3 0 6-8h-1q-4 0-2-9 1-10-4-10zm-492-905l-243 12q-202 25-375 91l-139 49q-81 29-129 54l-105 51-104 54q-59 35-95 67-47 42-69 89l4 21 4 20q11-8 25-8h24q-11 16 20 19l-5 5-3 6 27 4 25 3-10 13q17-13 46-13h50l40-10 32-15 137-52 85-43q62-34 87-46 143-67 315-109 176-41 316-41h25l66 1q37 2 63 11 68 23 97 64 27 37 49 110 31 98 42 220l21 239q4-3 4-21-1-17 4-21-6 196-19 283l-23 97-23 92 1 28 1 30q-7 42-37 90l-61 81h1q6 0 18-13l18-13q-22 34-54 56-33 24-77 39l31 3 30 2-17 6q-12 3-10 7 40-9 79-34 34-23 60-52l41-51 28-42 30-80 32-94q-7 72-46 153-34 69-80 136 51-47 94-131l57-115q-28 84-52 133-41 83-90 129l-66 55q67-38 117-108 36-50 62-116 36-89 61-214l4-4v4l3 1-4-17q23-50 30-144 6-107 13-154h18q6-38 2-38-2 0-5 8-4-30 2-73 5-38 0-58l4 11q-5-110-28-232l-19-96-26-105-23-60-18-34-25-35q-48-63-127-101-91-43-238-54z" />
        <filter filterUnits="userSpaceOnUse" x="1701" y="5262" width="1764" height="1621"/>
    </g>
    <g transform="scale(.05)">
        <path d="M2903 6685q0 4-3 4-1 0-2-1-2-1-3-1-3 0-3 4 2 5 6 5 2 0 5-1 7-4 0-10zm-88 164l17 2-15 2-16-2 14-2zm-444-212l-129 4q-140 6-220 23l-87 13-82 15-137 29q-81 20-132 70-7 15-12 38h2q8 0 16 7l14 13q-13 8 4 25l-4 3-4 4 15 15 14 15-6 2-5 4q4-1 8-1 12 0 24 9l28 21 26 6 22-2 47-2 44-2 58-15 61-21q89-25 204-37l212-15 41-6 41-3 150 6 133 6q33 3 66 3 38 0 77-4-2-4-12-4t-12-5l85 7 80 3 58 8 54 2 16-9 16-10 53-5 49-5q-1-4-10-4h-2q-6 0-7-4l34-7 34-9-10-10q-9-4-10-12l6 1 4-4-59-9-51-9-92-5 81-2 68-2-68-12q-39-6-61-19l68 7 63 7h28l-112-14-111-7-2-4h2v-4l-8 7q-24-13-77-16l-83-11 2-17q-14-6-18-6-5 0 2 8l-39-5-27-5 2-3-124-5-97-14-96-14-105-2z" />
        <filter filterUnits="userSpaceOnUse" x="1572" y="6637" width="1723" height="315"/>
    </g>
    <g transform="scale(.05)">
        <path d="M2812 7809l-4 3h-2q-3 0-3 4 2 5 5 5 2 0 5-2 7-6-1-10zm-61 172q6 0 14 1l-14 4h-16q3-5 16-5zm-350-175l-101 7-62 5-62 7q-131 13-211 34l-83 15q-53 7-80 16l-133 29q-80 19-132 66l-14 38q10 0 18 8l13 13q-13 8 4 25l-5 3-4 4 14 16 14 15q-10 2-11 6 3-1 6-1 12 0 26 10l29 22 26 6 23-2 92-3 58-16 61-22q87-26 202-45l208-28 40-8 39-7 148-7 130-7 139-17-12-3-12-4 161-13 56-1 52-9 13-12 12-14q13-10 44-19 28-7 35-21-1-1-3-1t-4 2q-3 2-5 2t-4-2l16-17 2-6 13 9-13-11-6-6 3 4-8-9-10-13h-3l-14 4-37 3q-39 15-69 15h-10q24-11 68-18 36-5 44-18l-47 4-54-6 56-7 39-8 4-2h1l-1-1-1-1h-5l-54 10-96 13-2-3h2q4-4-1-4l-6 8-73-5-78 1-1-18-17-4q-8 0 2 8l-37-1-25-2v-3l-118 8-95-5-93-5z" />
        <filter filterUnits="userSpaceOnUse" x="1523" y="7806" width="1633" height="344"/>
    </g>
    <g transform="scale(.05)">
        <path d="M2951 9341l-6 4q-2-1-3-1-3 0-3 4 2 5 6 5 3 0 6-2 10-5 0-10zm-93 168l19 1-16 3-20-1 17-3zm-421-192l-124 6-152 11q-158 13-259 37l-100 17q-63 9-97 20l-159 37q-95 25-152 77-7 15-12 39h3q10 0 19 6l17 12q-15 9 7 25l-5 2q-4 1-5 5 8 3 19 15l18 13-12 7q5-1 9-1 13 0 29 8l36 19 31 4 26-3 109-9q44-7 138-43 104-30 239-50l250-27 48-8 48-6 178-3 159-1 168-8-14-4-15-4 197 2 69 7q20 3 36 3t29-2l18-10q12-9 19-11l62-7 59-6-12-4h-3q-7 0-9-4l40-7 40-10-13-10q-10-3-11-11h7l5-4-72-7-61-8-49 2-62-4 97-4 82-4-83-10-74-17 83 5 76 4h34l-136-10-134-4-2-4h2l1-3-10 7q-29-13-94-14l-99-6 1-18-22-5h-2q-7 0 4 8l-46-3-32-5 1-2-148 1-118-8-115-9z" />
        <filter filterUnits="userSpaceOnUse" x="1382" y="9317" width="2045" height="359"/>
    </g>
    <g transform="scale(.05)">
        <path d="M2326 9053l4 9v10q-5-2-4-9v-10zm169 42q-8 2-2 6l9-1-3-2-4-3zm-282-800q2 6-4 13l-12 10q-3-2-7-2-8 0-17 9l-3-3-5-2-13 12-13 10q-4-4-8-5 5 8-4 19l-17 18-3 16 5 13 14 52 22 34 27 34q35 51 60 122 18 48 37 130l10 25 8 25 10 94 7 83q1 42 16 88l4-8q-1-6 3-7l9 102-2 37q-2 21 4 33l11 8 13 9 11 31q2 20 11 28l2-6q-2-5 3-7l11 19 13 18 9-8q2-5 10-7l1 3q-1 2 2 2h2l1-36q0-22 3-31-10-39-6-55 10 17 11 48 1 28 10 38l5-41q1-23 11-38-2 26 2 78l3 16q4-25 0-66l-5-66 4-1v1h3l-7-4q11-15 8-47-3-37 1-50l18-1 3-10-7 1q-5-10 1-24l2-17 3 2-8-75q-3-20 4-60l3-60-10-66-17-80q-20-88-47-138l-22-53-24-51-46-83q-29-48-85-71l-39-2z" />
        <filter filterUnits="userSpaceOnUse" x="2106" y="8295" width="399" height="1052"/>
    </g>
    <g transform="scale(.05)">
        <path d="M3252 2803l4 10v12q-5-2-5-10l1-12zm167 55q-7 2-2 7 3 3 5 3 3 0 5-2-5 0-4-4l-4-3zm-207-940l-5 12-12 10q-3-3-8-3-7 0-17 7l-3-2q0-3-4-3l-15 10q-10 6-13 10l-7-7q4 9-7 20l-19 20q-6 8-4 18l3 15 7 63 18 42 22 44q28 64 46 149l24 155 8 30 5 30 3 109 2 97q0 54 12 103 5-1 4-9-1-7 4-9l6 119-1 42q-2 24 6 38 4 7 25 17 10 9 16 31 6 20 16 24l1-6q-3-4 1-7l15 12 14 3q2-7 15-16v2l3-2-1-18q-3-17 0-25-13-34-9-53 11 19 13 45 4 24 14 28v-31q-1-21 9-36 0 26 7 61l2 4q4-4-2-40-7-47-7-64 0-2 3-2v2l4-1-8-4q10-16 9-51-3-41 2-55h18l4-13q0-2-1-2-2 0-7 4-5-12 2-27 6-15 2-21l4 4-4-86q-2-24 8-69l8-69-4-75-10-92q-15-109-32-161l-16-63q-8-39-18-60l-17-50-17-51q-24-61-77-92l-40-5z" />
        <filter filterUnits="userSpaceOnUse" x="3097" y="1917" width="346" height="1185"/>
    </g>
    <g transform="scale(.05)">
        <path d="M6852 7589l2 104-3 123q-4-27-2-104l3-123zm161 577h-1q-8 23-2 80 2 28 5 28 2 0 4-32h-1q-4 0-2-38 1-38-3-38zm-2657-6252h-47q-556 0-941 55-24 9-42 21l-34 18 136 7 107 13q-55 5-28 13l73 12-33 3-28 3 115 17 111 15-43 2-33 4 240 12 227 26 196 11 165 4 346 15 332 18 426 15 436 15 841 56-8-82 83 88-75-6q77 868 64 2027l-1 296-4 296-45 1107-33 738-8 248q-18 561-9 1048 4-15 4-92 0-75 5-90-11 567 12 1228l16 429 7 407 3 113-2 119-6 75-58-30q-115-61-328-202-218-144-305-191l63 44q54 33 60 43l-217-128q-126-73-215-114 6 10 63 46 53 35 56 46l-40-23q-19-12-24-12-2 0-2 1 242 145 692 458l159 96 151 88 24-171q27-182 25-535 21 296-16 536l-29 187-160-98-273-175q-162-105-244-153 308 216 510 341l177 110 34-209q24-148 39-400-2 229-28 401l-34 226-194-118q-122-74-281-179l-245-165-132-84 294 198q216 147 361 235l201 122 35-234q30-203 25-467-1-109-18-428 0-15 2-15h1l1 15 2 9 1-10-10-59-4-583q-6-411 2-622h18q8-157 4-157-2 0-6 36-3-129 6-293l9-206 1 16 28-920q10-233 43-736 32-476 40-720l20-777q8-437-3-947-14-624-61-1137l-11-118-109-10-465-36-622-45-594-30-492-14q-261-7-452-7z" />
        <filter filterUnits="userSpaceOnUse" x="3292" y="1914" width="3876" height="8086"/>
    </g>
    <g transform="scale(.05)">
        <path d="M5502 2880l-5 4q-2-1-3-1-3 0-3 4 2 5 6 5 2 0 5-2 8-5 0-10zm-84 168q2 0 5 1l17 1-14 3-17-1q3-4 9-4zm-331-182q-19 0-32 2l-105 13-126 20-209 42-82 15-78 13-132 12-70 4-81 10q-15 9-32 25 7 4 14 18l11 21h-1q-17 0-5 25h-7l-6 1 12 24 13 22h-17q21 5 40 25l33 33q15 11 33 15l29 4 112 12 67-11 67-19q135-37 426-90l40-11 40-9 151-13q51-3 90-3 24 0 44 1l143-9q-2-4-9-4h-3l-13-4 168 1 59 7 55 2 16-8 18-10 55-1 54 1q-1-4-10-5-10-1-11-6 17-1 46-1h32l-10-13q-9-6-8-14 5 3 8 3t4-3l-68-21-56-15-46-1-55-8q16-3 37-3 23 0 52 4l78 6-77-20q-45-8-68-21l77 10 73 14 34 6q-55-20-131-28l-123-10-2-3h2v-4l-9 7q-26-13-82-14l-85-5v-18l-18-4h-1q-5 0 3 8l-39-3-25-4v-3l-128 1-108-4q-40-4-68-4z" />
        <filter filterUnits="userSpaceOnUse" x="4140" y="2866" width="1786" height="356"/>
    </g>
    <g transform="scale(.05)">
        <path d="M4524 5081q9 3 5 16-5-2-4-7l-1-9zm171 25q-7 2-2 6l7-1h2-2q-2 0-2-2l-3-3zm-318-633l-5 10-11 9q-3-2-7-2-8 0-18 7-1-3-5-3h-2l-14 9q-10 5-13 9l-2-2-6-2q5 7-4 17l-17 17q-5 7-3 14l5 10 15 44q9 18 51 54 37 40 66 96l47 102 11 19 9 20 17 74 12 67q4 35 20 70l3-7 3-6q1 29 11 83l-2 29q-2 18 4 28l22 13q9 8 10 25 2 18 10 25l3-6q-2-4 3-5l10 16 11 16 9-6 11-7v3q0 2 2 2h2l4-31q1-18 5-26-10-33-5-47 10 15 10 40t8 34l6-35q2-20 13-33-2 22-1 67l2 14q6-23 3-57l-4-57 4-1v1l3-1-7-3q11-13 7-40-4-32 0-43l18-1 3-10-7 2q-6-8-1-20l1-16 4 3-12-62q-4-17 0-50 3-34-1-49l-14-52-23-63q-28-70-55-105l-25-41-25-39-46-63q-29-38-84-56l-39-2z" />
        <filter filterUnits="userSpaceOnUse" x="4269" y="4473" width="435" height="850"/>
    </g>
    <g transform="scale(.05)">
        <path d="M6173 4908q4 7 0 26l-6 29q-3-7 0-26l6-29zm137 176q-9 5-8 21 1 8 3 8t7-7q-5 0-1-11 4-10-1-11zm-356-1064l-133 11-123 17h-12l-175 25-188 35-151 28q-93 16-144 31l-238 57q-140 38-221 101-9 17-13 41l33 2 27 9q-19 11 14 24l-7 4q-7 1-7 4 13 2 30 12l28 11-10 3-8 6q13-3 27-3 15 0 31 4l56 14 47-1 40-7 162-23 101-27 104-31q148-40 358-74l93-15 12-1 5-1 3-1h2l167-23 90-9 60 4q28 7 52 33l37 54 27 59q19 51 31 127 17 122 10 239l-21 255q6-2 8-21 3-18 8-21-37 184-78 293l-47 95-48 89q-5 9-8 29l-8 31q-18 40-65 81l-81 64q1 1 3 1 6 0 18-9 13-8 18-8h2q-47 43-134 71l27 5h6q17 0 20 5l-16 4-8 6q70-10 139-55l54-39 41-34 55-73 59-90q-27 73-92 147l-118 112q65-33 130-104l92-104q-51 79-93 124-58 65-124 102l-68 35q69-23 131-72 54-44 97-100 65-83 122-210l5-3-1 4v3l3-1v-19q35-47 65-147l44-162 17 4 11-35q2-8 0-8t-8 10q2-33 15-78l11-51 2 1q13-126 8-251l-5-103-10-108q-12-72-27-117l-12-33-3-5-4-10-7-13-31-54-48-60q-37-39-81-64-47-28-101-38l-81-9z" />
        <filter filterUnits="userSpaceOnUse" x="4556" y="4020" width="1809" height="1729"/>
    </g>
    <g transform="scale(.05)">
        <path d="M5366 5418l-3 3-1-1q-2 0-2 4 1 5 3 5 1 0 3-2 4-4 0-9zm-54 167h2l9 1q-2 4-6 4h-2l-9-1q2-4 6-4zm-185-185l-56 6-34 5-34 7q-76 14-116 31l-46 14q-30 6-45 13l-78 21q-49 14-90 54l-18 35q6 1 8 9l4 14q-10 7-5 25l-3 2-3 3 3 17q1 12 5 16l-9 4h1q9 0 18 13l14 24q6 7 16 8h14l30 3h29l40-12 39-19q56-23 125-40l121-26 23-8q14-6 22-7l84-5 73-3 79-10q0-4-6-4l-7-4 92 3 32 8 30 1 9-9 11-10 30-4 29-4q0-4-6-4h-2q-3 0-3-4l20-5 21-8-5-10-4-12 3 1 3-4-34-11-29-11h-24l-30-6 48-1q14 3 24 3t16-3l-39-14q-23-6-35-19l40 7 38 8 17 3q-27-12-67-18l-65-7-1-4h1v-3l-5 6q-13-13-45-14l-48-7 2-18-10-4h-1q-3 0 1 7l-22-3-15-4 1-2-70 3-54-6-52-7z" />
        <filter filterUnits="userSpaceOnUse" x="4610" y="5400" width="978" height="324"/>
    </g>
    <g transform="scale(.05)">
        <path d="M5580 7397l-3 4-1-1q-1 0-2 4 1 4 3 4 1 0 3-1 4-5 0-10zm-85 166h3l14 1-12 4-14-1q3-4 9-4zm-292-182l-83 7-101 11-172 25-67 7-66 6-56 4-56-2q-69 0-130 21l-27 29q7 3 10 13l6 18q-16 1-7 24l-5 1-6 1 7 21q2 14 7 20l-6-1-7 2q16 3 27 21l21 31q10 10 24 14l23 5 90 20 59-4 59-13 185-29 181-24 34-8 33-6 126-8 111-4 118-11q-1-4-7-4h-5q-6 0-7-4l32 2h2l104 3 49 7 45 1 13-10q9-8 15-10l47-3 50 3q0-4-10-6-9-1-10-6l41 4 28 9q21 10 35 27 4-11-15-32-16-16-14-23l13 9q5 5 8 5 2 0 3-1-23-21-54-34l-38-13-53-15h-40l-46-6q14-4 35-4 18 0 40 3l74 5-73-19q-39-7-58-20l65 9 72 14q18 3 44 13-33-16-77-26l-59-9-53-4-48-2-2-4h2v-3l-7 7q-17-12-55-14l-49-4 5 1-35-6v-18l-15-5h-1q-5 0 2 8l-35-3-22-4v-2l-106 5-82-6-79-6z" />
        <filter filterUnits="userSpaceOnUse" x="4443" y="7381" width="1514" height="299"/>
    </g>
    <g transform="scale(.05)">
        <path d="M4990 8922q5 4 3 15v16q-5-3-4-14l1-17zm166 82q-7 3-3 11l9-1-3-5q2-5-3-5zm-151-1331l-9 17-15 12-26 1-2-5-3-4-18 12q-12 6-16 13l-5-12q1 16-13 33l-24 29q-8 12-9 27v24l-5 98q1 24 12 63l18 64q22 91 38 211l23 215 8 41 6 41 8 286q0 74 12 143l4-12q-1-11 3-13l1 168-6 58q-4 35 1 56l9 15 11 16q8 18 7 54t5 50q5-1 4-10 0-9 4-10l7 35 9 34 11-11q3-9 11-10v7q-1 4 3 4l8-61q4-38 9-53l-2-43q-1-31 4-53 8 31 4 83-3 50 4 71l11-71q4-40 16-63l-4 71-6 66v29l12-117 3-116q0-2 4-2v2l1 2 2-2-7-8q13-25 13-80-1-65 4-85h18l5-18q0-4-2-4t-6 6q-5-17 2-40l5-26h1l-4-125q-2-34 7-99l7-96-6-104-10-126q-13-152-27-216l-11-84-12-82-18-137q-12-84-53-141l-36-18z" />
        <filter filterUnits="userSpaceOnUse" x="4860" y="7673" width="318" height="1750"/>
    </g>
    <g transform="scale(.05)">
        <path d="M5744 9427q0 4-3 4-1 0-3-1h-2q-4 0-4 3 2 5 7 5 2 0 5-1 8-4 0-10zm-101 161q3 0 6 1l17 3-15 2-18-2q4-4 10-4zm-366-207l-113 2-138 9q-144 11-232 32l-91 15-87 16-144 30q-87 20-142 67l-14 38q10 0 19 8l15 13q-15 8 4 25l-5 3-4 4 15 16 15 15q-10 2-11 6 4-1 8-1 13 0 27 10l32 21 28 6 25-2 100-4 63-16 65-22q151-43 443-68l44-7 43-5 160 2 142 7q47 3 88 3 34 0 64-2-1-5-12-5l-13-5 176 13 62 9 58 2 16-9 17-11 55-7q36 0 50-8l-11-3-10-3 32-10q18-6 25-14-2-6-9-8l-9-10q2 1 4 1 4 0 3-6l-50-2-51-8-95-4 84-2 66-5-66-9q-39-4-63-18l130 9 23-1-105-8-115-8-2-4 2 1v-4l-9 6q-24-13-81-17l-88-12 2-18-19-5h-3q-5 0 4 7l-42-5-28-6 2-3-135-7-56-4-53-9-105-11z" />
        <filter filterUnits="userSpaceOnUse" x="4316" y="9381" width="1825" height="335"/>
    </g>
    <g transform="scale(.05)">
        <path d="M9129 8468q7 35-4 173-3-20 0-79l4-94zm149 446h-1q-8 18-5 61 1 21 4 21t6-24h-1q-4 0-1-29t-2-29zm-1028 1212q141 132 264 217 89 60 168 95 52 23 105 35l50 4q-47-6-101-23-97-34-205-105-71-47-152-114l-129-109zm587 351q22 3 44 3l-44-3zm-157-7163l-188 19-93 11-92 6-379 30-716 73q-20 7-35 17l-27 16 104 15 83 18q-43 3-21 12l56 14-26 2-22 3 90 19 88 15-34 2-26 4 190 7 178 14 152-1 125-9 260-9 75-4 331-25 128 5 43 10 18 5h1l1 1 3 4 11 24 17 62q19 98 21 253l-5 278 3 262 2 10 3 27 33 286q64 589 88 1174l11 225 7 224 1 843q-4 446-12 750-11 414-16 796 6-12 7-69 1-58 6-69l-35 768 2 165q3 192-3 327l-12 157q-11 98-30 154l-17 44q-11 24-30 41-41 40-96 48-17 2-34 2-60 0-130-26-67-26-142-74l-123-86-109-81 43 40 43 40q-67-47-156-121l-145-119q1 10 37 47 34 36 33 46l-27-25q-13-13-17-13-1 0-1 1 145 143 262 235 151 120 271 175 74 27 133 34l99-4q61-12 109-48l22-18 6-6v-1l12-12 11-14 29-53q16-37 29-92 16-72 25-162-2 73-11 135l-16 71q-12 44-31 80l-32 46-16 16-29 23q-41 28-93 41-34 8-71 8-45 0-95-12-56-14-123-45l-99-55-167-112q91 78 178 132 111 70 211 95l142 9q90-12 155-68 34-30 60-75l28-63q18-46 32-107-14 76-30 120-14 39-36 75l-35 44-10 10-3 2-30 24q-43 29-90 41l-90 12h-2l41 3q87-8 152-59l9-6 24-21 4-5 30-38 34-65q19-49 29-107l14-93q12-119 12-332 0-12 2-12h1v12l2 8 2-8-8-47 6-208 12-228 26-476 18 1 8-102q1-21 0-21-2 0-8 30 0-95 11-225l10-158 1 13 15-706q2-144 15-563 11-350 9-549l-11-592q-7-275-41-721-26-330-60-624l-17-147q-4-54-2-139l7-283q2-148-4-247-5-74-14-129-15-81-38-137l-8-19-6-10-4-9-2-3-28-37q-30-32-68-53-57-32-137-47l-238-7z" />
        <filter filterUnits="userSpaceOnUse" x="7150" y="3310" width="2201" height="6690"/>
    </g>
    <g transform="scale(.05)">
        <path d="M8141 4730l-3 4-1-1q-2 0-2 4 1 5 4 5 1 0 3-2 5-5-1-10zm-47 168q4 0 9 2-2 4-6 4h-12q3-6 9-6zm-24-173l-76 9-59-2-56-2-58 11-69 18q-75 22-114 40l-44 15-43 13-75 13-106 16q-14 7-33 21 5 4 3 12l1 18h-2q-14 0-10 23l-6-2h-6l3 23 2 21-6-2h-6q13 6 23 26l16 33 22 17 21 7 81 18 49-8 46-18 259-83 24-10q14-7 23-8l86-13 77-9 83-14q-1-4-5-4h-4q-4 0-6-4l98 1 34 8 32 3 11-8 11-10q7-3 15-3 9 0 19 3l33 2-5-5q-6-1-6-6h25l26-1-4-12q-5-6-3-14l5 2 4-2q-14-10-41-21l-35-16-29-2-35-9 57 4 51 7q-15-10-48-22-28-9-42-23l49 13 47 15 22 7q-35-21-84-31l-79-13q-2 0-1-3h1l1-2v-2l-6 7q-16-14-52-15l-55-5 1-18-12-4q-5 0 1 8l-25-2-16-3v-3z" />
        <filter filterUnits="userSpaceOnUse" x="7310" y="4725" width="1090" height="346"/>
    </g>
    <g transform="scale(.05)">
        <path d="M7736 6522q-8 2-2 4l9-3h-3l-4-1zm-169 7l4 3 1 6-4-4-1-5zm152 53v15l-5 2-8 3 1-5q3-9 12-15zm-58 39l-6 2-12 6 18-8zm-220-473l-6 5-13 7q-3-3-10-3-6 0-15 3l-3-2q0-2-4-2l-15 6-14 6q-2-4-7-5 4 7-7 15l-19 12q-6 5-4 11l4 9 5 17 6 16 22 19 27 19q35 26 63 59l44 61 11 12 10 11 16 44 13 39q6 22 22 40l2-4q-2-2 3-4l13 48-1 18q-1 10 5 15l23 3q9 2 11 10l3 4h1l4-2-3 2 2-1 9-5 1-1 15-7 9-4-3 2 8-3 3-2h1l3-1h1l1-1 2-1 9-4-5 2 1-1 4-5q-12-8-5-19 10 6 10 16v4h1l-6 3 16-6h1l1-1 17-6v-6l-5-24 4-1 3-1h-7q10-9 6-23-4-16-1-23l18-3q4-6 2-6-1 0-6 3-6-4-1-12l3-7h2l-13-34q-4-9 0-28v-28l-15-29-21-34q-26-38-52-58l-22-22-23-22-22-19-19-19q-15-14-75-44l-39-8z" />
        <filter filterUnits="userSpaceOnUse" x="7323" y="6148" width="421" height="489"/>
    </g>
    <g transform="scale(.05)">
        <path d="M8605 6381l2 18-3 21q-4-5-2-18l3-21zm150 129q-8 3-5 15 1 6 3 6t6-5q-5 0-2-8 4-8-2-8zm-591-819q-104 0-197 25l-111 29q-63 18-102 40-53 28-79 43l-76 51q-39 32-57 68-24 44-15 84l27 30 4-5 2-2 7-2h16q1 11 21 14v4l2 5 17 4 16 4v9q2-7 10-7 3 0 8 1l28 5 19-6 15-11q21-13 77-36l53-31q37-24 59-34 99-46 224-55 24-1 48-1 103 0 192 28l45 14q26 9 42 21 69 49 101 140 27 75 30 159l2 175q5-2 6-15 0-12 5-14-20 129-48 203l-35 65-36 60-3 21-5 24q-12 30-47 56l-58 45 16-4q9-5 13-5h2q-25 24-93 56 4 6 16 6h4q15 0 19 6l-11 3q-7 1-5 6 52-9 100-38l74-48 43-53 47-65q-20 56-72 107l-90 80q50-21 101-70l76-73q-40 55-75 89-47 47-96 71l-51 25q98-29 177-119 52-62 98-155l4-1-1 2v3l3-1-1-14q29-32 51-109l30-120 18 3q10-31 6-31-2 0-6 6-1-24 9-58l6-40 2 2q5-89-14-190l-16-80-24-86-20-46-23-42q-27-43-66-77-61-54-162-96-76-33-190-46-54-6-106-6z" />
        <filter filterUnits="userSpaceOnUse" x="7525" y="5691" width="1261" height="1301"/>
    </g>
    <g transform="scale(.05)">
        <path d="M8335 6689l-3 4-4 3q1 5 4 5 1 0 3-2 4-5 0-10zm-58 167q1 0 3 1l10 1-9 3-9-1q1-4 5-4zm-202-184l-63 8-77 15q-79 17-129 42l-51 20q-32 11-48 21l-80 39q-47 26-75 78l-6 39h1q5 0 10 6l9 12q-8 9 3 25l-2 3-3 4 9 15 9 13-6 7q2-1 4-1 6 0 15 8l18 19 15 3 13-3 28-5 26-5q22-7 69-45 52-33 119-55l124-34 24-9 24-7 88-7 79-3 84-9q0-4-5-4h-4q-4 0-5-4l99 3 33 8 33 1 9-10 11-10 32-5 30-4q0-4-6-4l-6-4 21-7 21-7-6-11-4-12 4 1 2-4-36-10q-22-4-30-10l-56-5 49-1 42-2-41-12q-23-6-36-19l41 7 39 7 17 1q-27-11-68-15l-68-7q-2 0-1-4l1 1 1-2-1-2-5 7q-15-13-47-15l-51-6 2-18-11-5h-1q-4 0 1 8l-24-3q-7-4-13-4h-2l1-3-76 3-59-6-58-6z" />
        <filter filterUnits="userSpaceOnUse" x="7546" y="6672" width="1023" height="377"/>
    </g>
    <g transform="scale(.05)">
        <path d="M8066 7941l-3 4-4 3q1 5 4 5 1 0 3-2 6-5 0-10zm-48 172h12q-2 4-6 4h-13q2-4 7-4zm13-174q-5 0 1 6-5 3-12 3t-15-2l-21-1 3-4-84 14-66 3-63 5-64 20q-26 7-76 30-80 34-124 67l-47 28q-30 16-44 29-23 21-75 49-43 29-73 83l-6 39h1q4 0 10 6l11 11q-9 9 5 25l-3 3-3 4 12 15 12 13-4 2-3 5q3-2 7-2 8 0 17 7l24 17 19 2 15-5 60-18 34-26 33-31q82-70 235-135l22-14q14-9 23-11l90-22 81-15 86-18q-2-4-5-4h-5q-5 0-5-3l104-2 36 9 35 4 11-7 13-9 37 3 37 7-6-6q-6-2-6-7l57 9-3-13q-5-7-2-14l5 3 5-1q-15-14-45-30l-39-22-34-5-38-10q9-2 18-2 21 0 46 9 38 14 58 14-19-14-55-28-33-13-48-26 80 21 112 39l25 12q-40-31-97-45l-90-17-1-3h1l1-2v-2l-7 7q-19-14-58-15l-61-4v-17q-9-3-13-3z" />
        <filter filterUnits="userSpaceOnUse" x="7264" y="7939" width="1092" height="477"/>
    </g>
    <g transform="scale(.05)">
        <path d="M7806 9053q5 3 3 9l-1 11q-5-3-3-10l1-10zm160 71q-8 1-3 7l7 1q-3-1-1-4l-3-4zm4 8h2-2zm-235-838l-7 11-13 8-25 2-3-3-3-3q-4 5-16 10-11 5-14 9l-7-8q4 10-7 22l-21 19q-6 7-4 17l3 15 9 60q4 14 19 37l26 38q54 91 95 251l9 25 8 24 8 92 1 81q-2 50 5 88l5-7 4-7-12 102-12 34q-9 21-7 34l7 12 9 12q5 13-2 35-6 22-3 32l6-5q1-5 4-5h1l1 23 2 24 11-3 13-2-2 4 3 3 20-37q10-23 17-31 7-45 16-62 4 23-8 56-12 32-9 46l23-43q11-25 26-38l-16 46-16 42-7 19q19-29 33-74l19-77h4v1l1 1h2l-6-7q16-15 21-52 6-44 12-56l17 2q8-13 4-13-2 0-6 2-3-12 5-27l5-18 2 1v-84q-1-21 7-65l6-62-10-67-17-79q-21-86-47-132l-20-50-21-49-37-81q-24-50-73-83l-38-10z" />
        <filter filterUnits="userSpaceOnUse" x="7614" y="8294" width="384" height="1081"/>
    </g>
    <g transform="scale(.05)">
        <path d="M8402 9427q0 4-3 4-1 0-2-1t-2-1q-3 0-3 4 1 5 5 5 2 0 4-1 7-4 1-10zm-86 161l13 2-12 2-13-2 12-2zm-282-197l-86 8-105 16q-117 23-174 46l-67 22q-42 12-64 23l-106 41q-63 27-101 79-5 16-8 39h2q6 0 13 6l11 12q-10 9 6 25l-4 3-3 4 13 15 12 13q-8 5-8 7 3-1 7-1 9 0 20 7l25 19 22 3 18-4 73-12q29-8 92-47 116-58 325-95l32-8 32-7 120-5q28-1 51-1 34 0 55 2l114-1q-1-5-9-5t-9-5l68 10 65 10 44 16 44 12 15-4 17-6h4q17 0 42 13 32 19 45 23l-6-9q-8-5-7-10 27 9 70 47l-1-18q-5-13 0-19l6 8q3 3 5 3 1 0 2-1-20-34-57-63l-48-36q-60-17-87-33 32 0 78 23l73 35q-24-24-68-49-38-20-56-37l68 29q41 21 69 44l33 29q-46-54-122-87-40-17-108-36l-1-4h2l1-3-9 5q-21-18-68-26l-74-15 3-18q-12-5-16-5-5 0 1 7l-34-6-23-5 1-3-106-3-83-9-81-8z" />
        <filter filterUnits="userSpaceOnUse" x="7323" y="9391" width="1428" height="388"/>
    </g>
    <g transform="scale(.05)">
        <path d="M5334 600l-35 9q27-6 53-8l89 6q-34-7-67-7-11 0-22 1l-18-1zm-35 9q-9 2-19 5l19-5zm452 425q-2 0-5 8 4 0 2 10t1 10q7-5 5-21-1-7-3-7zm-480-928q-19 0-38 1-71 5-151 31-148 53-297 206-106 109-172 234-77 140-95 281-21 161 41 300 60 132 188 229 57 43 192 107 148 72 310 72 43 0 86-5 187-22 332-126 82-59 134-140 50-78 67-168-4 4-11 31-7 25-14 29 40-100 32-219-10-102-64-197-84-151-201-209l-37-12-41-7q-81-20-128-22-12-1-24-1-55 0-96 19l25-3 25-2q-88 20-144 66l25-5 24-3-13 6q-9 4-7 7 67-31 127-35 16-2 31-2 42 0 79 13 46 8 88 28 56 25 96 65-83-58-160-82-47-15-88-15-30 0-56 8 12-1 23-1 60 0 119 18 70 24 114 69-56-44-129-63l-22-2q31 6 62 19 113 44 187 144v5l-3-3-2-2v3l15 11q46 102 57 153l6 40 1 45q-1 44-14 82l-13-3-13 32q-3 7-2 7t8-8q-8 34-33 69l-34 44 2-6q-79 98-206 146-81 31-172 31-19 0-39-1-97-5-200-46l-106-50q-59-33-99-67-115-95-146-207-30-105 4-229 28-108 103-222 54-81 137-152 77-64 163-108 74-39 154-46 17-2 34-2 67 0 126 26 70 29 135 97 44 46 105 136l19 11 17 8-12-52-7-43q8 11 11 11 2 0 3-5l-4-31 8 12 7 9-10-49-15-48 11 16 10 11-56-96q-38-60-70-90-62-59-166-86-64-17-133-17z" />
        <filter filterUnits="userSpaceOnUse" x="4513" y="106" width="1363" height="1461"/>
    </g>
    <g transform="scale(.05)">
        <path d="M4277 508l18 30-5-1 4 10-7-6 17 30-9-7 45 55 42 35q50 35 87 53 46 23 120 42 163 44 354 44 37 0 74-2l83-7 154-15 136-22 143-31-13 2-12 1 166-41 112-31 29-14q15-7 51-19l48-18-21 5 64-27-11 1-10 1 9-5-110 35-92 28 80-26 67-23-132 35 132-40 28-10-224 68h-3l2-1v-1l-7 4-80 18-84 19-1-4-18 3q-8 1 2 1l-40 8-31 6 5-2-124 23-101 11-98 7-105 6-128-1q-113-5-214-26-69-14-156-51-54-21-118-66l-104-82-14-2z" />
        <filter filterUnits="userSpaceOnUse" x="4277" y="508" width="1680" height="285"/>
    </g>
    <g transform="scale(.05)">
        <path d="M5257 77l1 18-1 14q-1-4-2-4-2 0-4 10l-2-7-5 28-2-9v30l-5 28-2 44-12 82-22 106q-45 158-192 340l-49 60-102 104-95 88-104 91 17-10-123 98-88 66-20 22-40 33-38 30 17-10-49 43 10-4 9-4-4 5 86-61 73-56-63 50-53 41q71-53 106-73l-127 95 128-95h-1l52-38q1-1 2-1h1l-2 1q-2 2-1 2l2-1 5-6 63-46 65-51 3 4 15-11q3-2 2-2t-5 2l31-25 24-20-4 5 92-82 73-66 69-68 69-78 76-102q70-101 104-189 39-102 47-158 13-82 11-132-2-71-25-122l-11-9z" />
        <filter filterUnits="userSpaceOnUse" x="4335" y="77" width="958" height="1295"/>
    </g>
    <g transform="scale(.05)">
        <path d="M5067 816l-12 3 13 18-2-1q-2 0 1 8l-5-2 11 19-6-3q14 9 30 32l27 21 53 33 75 31q139 52 261 82l51 11 181 40 91 16-15-5 107 22 36 9 36 8 21-1 34 6 32 6-13-5 45 7-6-4-6-5 7 1-72-21-60-14 53 10 45 10q-56-14-82-25l103 26-106-27q1 1 3 1l-45-11-1-1h1l1-1-6 1-50-14-54-12v-4l-11-4h-2q-2 0 3 2l-25-5-21-5h4l-79-17-63-16-60-16-143-39-130-44-50-20-47-22-76-41q-49-28-77-38z" />
        <filter filterUnits="userSpaceOnUse" x="5055" y="816" width="1064" height="355"/>
    </g>
    <g transform="scale(.05)">
        <path d="M5280 1219v2l2-2zm-159-95l-28 3-7 6 1 7q-3 0-3 5l-2 1-1 8-2 1 3 4v7l6 4 12 7 21 3q22 3 62 23l12 5 35 27 18 13-1-2-1-2 19 17 11 13 8-1q6 1 13 9l-1-4 11 5 1-6h2l-10-15-10-10 10 8 8 7-10-19 17 19-23-27v-1h-1l-7-11-9-9 4-3q-1-3-2-3t-1 1l-4-4-3-4h1l-15-12-11-11-10-12-14-9-18-10q-15-9-33-14l-26-9-22-5z" />
        <filter filterUnits="userSpaceOnUse" x="5079" y="1123" width="236" height="160"/>
    </g>
    <g id="cloud1">
        <g transform="scale(.05) translate(1101 97)">
            <path d="M2470 679q-1 0-2 5l2 6q-1 6 1 6l2-13q-1-4-3-4zm-440-297q-24 0-43 3l20 1 20 2q-89 6-125 22h20l18 3-11 1-7 4 111-5q58 3 97 13 103 13 172 47-165-52-258-52-11 0-21 1 156 13 241 56-54-21-125-34l-120-13-51 2h22q91 0 188 22 114 26 192 73l2 3-3-2q-5-2-6-2t5 4l14 4q62 54 81 88 13 23 16 49l-2 25-2 13-2 6h-1l-8-3-7 9q-2 2 0 2 1 0 4-1-6 14-32 26l-36 15 1-2q-77 32-219 45-47 4-105 4-42 0-89-2l-191-12-207-17q-105-8-232-50-67-22-203-80-140-60-200-80-104-36-171-51-78-16-145-16-14 0-27 1-101 6-195 39-93 33-170 90-29 18-58 52l-47 61-6 11-11 8-12 3q-11 0-21-8l-9-10-5-10-1-5-2-2v6l5 13 11 13 17 9 18 1 9-3 62-35q-8 11-3 11t20-9l-5 7q-5 4-4 6 12-8 27-14l24-10-11 13q23-21 40-22h-3l10-4 54-17q34-11 81-33 70-26 156-32l211 11q77 16 185 58l191 78q117 47 203 72 115 33 215 39l163 9 304 9 270-24q83-16 140-46 32-16 56-41 27-27 34-56l-11 20-15 18 21-34 9-40q6-41-7-81-22-68-94-124-100-75-200-99l-63-5-103-12q-30-3-55-3z" />
            <filter filterUnits="userSpaceOnUse" x="68" y="382" width="2486" height="528"/>
        </g>
        <g transform="scale(.05) translate(1101 97)">
            <path d="M1534 72h3-3zm-217-72l-83 6-62 17q-33 17-44 27-22 17-26 42l4 10 12-4q-1 3 5 3v3h10l-1 4 8-4 9-1 11-5q4-3 23-11l32-17q35-13 97-13 21 0 45 2h29l100 12 48 2q-5 0-6-3l59 2 40-3 9-7 18-5 16-6h-8l20-11-4-1-4-2 3-2-36 6-30 5 27-5 21-6-22 2-21-1 42-6 8-2-71 9v-1l-2 1-26-2-28-2v-5l-5-1q-3 0 0 2l-13-2-11-1 2-1-42-4-34-6-34-7-38-4-47-3z" />
            <filter filterUnits="userSpaceOnUse" x="1102" y="0" width="580" height="108"/>
        </g>
        <g transform="scale(.05) translate(1101 97)">
            <path d="M1993 741h-11 11zm-423-613l-139 6q-122 11-232 46-106 33-166 66-76 40-123 78-62 50-86 105l1 14 25-23q-3 6-1 6t9-6l-4 7 26-16-6 8 25-21 26-15 40-27q35-24 80-45 69-37 108-53 186-75 422-75l84 3q88 10 156 30 49 12 120 73 55 51 102 106l-13-19q65 82 96 150 28 66 20 120l-4 17-7 18q-14 25-50 36l-55 12 23-1-75 6 11 4 10 3 60-1q38-5 64-21 26-17 39-47 13-28 11-69 4 33-4 57-7 29-31 49-29 25-85 36 53-3 88-33 18-17 29-40l12-45q-2 30-12 50-12 26-35 44-25 18-61 25l13-1q46-13 73-48 25-34 23-83-1-33-14-69v-3l1 2 2 3-1-3-5-9q-13-53-90-163l3-3q-13-18-14-18l2 4-49-58 2 1q-55-57-109-93l-27-16-15-8-4-1-12-5-54-17q-51-16-107-22l-116-8zm498 618l-57 6 34-2q12-1 23-4z" />
            <filter filterUnits="userSpaceOnUse" x="824" y="128" width="1353" height="624"/>
        </g>
        <g transform="scale(.05) translate(1101 97)">
            <path d="M1370 290l-8 5 1 8q-3 0-3 5h-3l-1 10h-2l2 12 5 6 12 11 20 12q31 19 50 64l8 15 6 29 3 28 1 29 3-2-5 31-6 23 3 8-2 11-2 11 2-2 2-2-2 16 4-2 3-1v3l12-23 6-20-4 18-4 16 16-28 4-14h2l-1-2 6-18 3-19h5q3-5 1-5-1 0-2 1l2-16 1 1-1-30-3-46-7-24-12-28q-14-27-30-41-18-20-28-26l-25-18-32-6z" />
            <filter filterUnits="userSpaceOnUse" x="1354" y="290" width="154" height="328"/>
        </g>
        <g transform="scale(.05) translate(1101 97)">
            <path d="M1181 362l-24 3-23 8-16 10-13 9q-7 6-12 19l-1 10 3 4 1 7-1 1 2 8v1l3 2 2 5h4l6-3 11-10q12-13 37-19l8-3h13l12 2h13l-2-2 15 3 4 3 5 1 4-4h5l5-1-1-2 7-2v-6l1-1q-7-3-8-6l-8-3 7 1 7 1-6-4-4-6 11 6 3 1q-4-4-19-9v-2l-1 1-6-5-8-3 2-4q-1-1-2-1t0 2h-1q-1 0-3-2l-2-1v-1l-12-1-18-7z" />
            <filter filterUnits="userSpaceOnUse" x="1092" y="362" width="159" height="87"/>
        </g>
        <g transform="scale(.05) translate(1101 97)">
            <path d="M1244 442v2h-2l-2-1v-1l-7 2-12-2-7 3q-3 0-7 4l-13 12-10 10-8 10q-5 6-8 20l-1 9 2 5 1 6-1 2 2 7-1 2 4 6h3l6-3 7-11q9-15 25-24l5-5 17-4 8-4-1-2h10l4 1 3-1 2-5q2-3 4-3h2l-1-2 4-5-2-5 1-1-7-3h-5l5-2 4-1-8-6 8 1h2l-14-2v-2l-1 2-5-3-5-1v-4l-1-1z" />
            <filter filterUnits="userSpaceOnUse" x="1167" y="441" width="105" height="98"/>
        </g>
        <g transform="scale(.05) translate(1101 97)">
            <path d="M1691 278l-9 2-11 5-18 11-15 11-11 10q-7 6-11 19l-1 10 3 5v8l2 7-1 2 6 6h4l8-3 10-11q14-15 36-24l7-5 13-3 11-1 12-4-2-2 15-1 5 2 5-1 2-5 5-2 4-2-2-1 6-5-2-5 1-1-9-4h-9l8-1 6-1q-8-1-12-7h-6q-2-3-7-3l-8-1v-4h-7v-1l-11 1h-8l-9-1z" />
            <filter filterUnits="userSpaceOnUse" x="1615" y="278" width="149" height="96"/>
        </g>
        <g transform="scale(.05) translate(1101 97)">
            <path d="M1780 442l1 2h-4l-3-1 1-1-12 2-10-1-9-1-10 3-12 4q-16 7-21 12l-15 10-13 10q-8 7-12 20l-1 9 3 5 1 6-1 2 3 7-1 2 3 2 3 4h4l9-3 11-11q15-15 39-24l8-5 27-4 14-4-3-2h16l6 1 5-1 3-5 5-2 4-1-1-2 6-5-2-5 1-1-11-3h-9l8-2 7-1q-9-1-13-6l13 1h3l-22-2v-2l-1 2q-2-3-8-3l-8-1v-4q-1-1-2-1z" />
            <filter filterUnits="userSpaceOnUse" x="1660" y="442" width="164" height="97"/>
        </g>
        <g transform="scale(.05) translate(1101 97)">
            <path d="M2981 1000q-3 4-6 7l6-7zm-341 82h-5l-10 3-10 3 22-2q13-4 3-4zm-108 100l-29 5-34 3 63-8zm262-401l18 13q16 8 16 13-14-8-18-8-1 0-1 1 63 30 102 56 45 29 67 60 22 24 23 44l-5 23-15 17q13-16 15-33 2-15-11-36-25-43-87-72 62 42 82 77 9 15 7 26l-11 17 7-18q0-10-13-29-21-29-80-68l-41-22q52 29 80 53 41 31 50 58l1 15-11 18q-21 24-68 45h-4l3-2-1-1-11 8-146 36-166 27-1-8q-65 3-32 6l-79 7-52 2v-1l-250 7-200-14-194-26-209-33-254-50-40-9-2-1h-3l-176-43q-132-30-218-40-165-22-274-22-42 0-76 3-171 17-278 63-138 57-205 163-4 14-3 29l16-14q20-10 39-21-9 10-4 10t20-7l-5 6-5 6q13-7 28-12l27-9q-13 11-14 13 22-17 52-27l54-16 83-27q65-20 169-28l228-8q160 7 404 64l211 48 216 40 165 21 309 32q92 5 191 5 42 0 86-1 148-3 291-29l-25 2-26 1 174-27 83-19 77-22q71-24 107-47 57-35 66-81 3-21-14-53-20-38-64-73-42-35-84-50l17 11 17 12q-71-37-125-51z" />
            <filter filterUnits="userSpaceOnUse" x="30" y="781" width="3017" height="427"/>
        </g>
        <g transform="scale(.05) translate(1101 97)">
            <path d="M2157 1187l-60 4-108 16-64 17-65 17-225 40-236 45-88 22-166 41-146 44-79 26-72 31 16-4q-105 42-169 57l-129 18-36 4h-3q-47 0-114-31 2 4 21 12-36-13-71-41l8 10 8 10-11-7q31 26 65 41l63 21 115 3q-25 4-51 4-64 0-135-26 37 19 86 26l52 5 106-8h3l-3 1 1 1 9-4q35-4 93-23l93-33 1 5q27-9 25-9-1 0-7 1 22-10 42-17l4-1 2-1 9-2 17-6-7 3 135-43q43-13 108-27l107-24 497-93 186-39q135-36 262-36 16 0 32 1l14-6-37-13q15 0-6-8h10l-37-13h13l-78-11zm-1767 359q58 41 139 48l27-2-54-3q-44-7-81-25l-31-18zm173 46h-7l34 2-27-2z" />
            <filter filterUnits="userSpaceOnUse" x="363" y="1187" width="1929" height="408"/>
        </g>
        <g transform="scale(.05) translate(1101 97)">
            <path d="M1855 1560l-8 3 9-1q6-2-1-2zm-888-78q-28 0-47 2-61 7-101 30l-6 11h27q-7 3 5 5l-6 3 24 3-7 3 24-1 24 3h36l70 4 91 8 160 32 105 21 129 18 122 7 109-5 114-18-20 1 132-27 46-10 43-13 22-12 41-14 37-14-16 3 51-21q-7 2-12 2-4 0-6-2l8-3-88 24-73 21q19-7 63-19l53-18-104 25 14-4-65 17-2-1-4 2-62 12-66 12-1-5q-21 2-13 3l-31 4-25 3 5-2-97 9-153-8-81-11-100-19-170-37-135-22q-36-2-64-2z" />
            <filter filterUnits="userSpaceOnUse" x="813" y="1482" width="1363" height="149"/>
        </g>
        <g transform="scale(.05) translate(1101 97)">
            <path d="M2043 1405l-2 10q-1-1-2-1-2 0-4 4l-2-2-5 10-3-3 1 11-2 10 4 15 12 25 24 28 80 88 17 15 28 30 27 25 32 23-4-5 36 26 12 10q7 6 13 8l10-1 13 6 13 4-4-4 17 4-2-7h3l-24-16-21-12 19 9 16 7-14-10-12-12-14-9v-1h1v-1l-2 1q-4-6-15-14l-16-14 3-3q-3-5-4-5t0 3l-7-7-4-5-24-21-17-19-15-19-77-86-27-35-21-30q-12-20-27-29l-10-1z" />
            <filter filterUnits="userSpaceOnUse" x="2024" y="1405" width="331" height="336"/>
        </g>
    </g>
    <g id="cloud2">
        <g transform="scale(.05) translate(6136 238)">
            <path d="M1062 247l-30 3q19-1 37-1h22l-29-3zm29 2l122 11q-58-10-122-11zm326 97q-3 0 0 5l4 1 4 1-5-6h-3zm-210-154l-20 2-20 4h-66l-61 5 13 1 12 1q-56 9-76 19l12 2q10 0 12 4l-7 1-4 3 68-4 62 5 112 13-98-10q-23-2-42-2-23 0-40 3l82 6q42 5 73 17l-6-1q41 7 80 18l2 3-2-1q-5 0-1 2l10-1 79 35q45 22 57 43l-7 6 3 7 3-2q5 5 3 11l-2 10-1-2-2 11-5 10-32 24q-35 17-96 20l-110 1-123-7q-92-11-145-26l-27-8-5-2h-3l-81-38-120-58-101-48q-60-26-108-31-33-5-64-5-62 0-118 19-87 28-141 89l-4 23 22-7 19-2q-7 7-2 8l13 1-4 4-3 3h38l-9 7q15-8 35-9l35-1 49-9q20-4 44-4 20 0 43 3 77 9 124 27 43 16 114 50l120 58 65 27 68 19 137 20 103 3 193-14 81-26q46-21 69-51 30-38 27-87-1-44-35-76l8 13 6 13q-21-41-74-71-37-21-93-39l-70-21-68-11z" />
            <filter filterUnits="userSpaceOnUse" x="152" y="191" width="1381" height="370"/>
        </g>
        <g transform="scale(.05) translate(6136 238)">
            <path d="M1707 404l4 1q-2 0-4-1zm34 217q-1 0-3 1l-4 5-4 4h2q4 0 8-5 5-4 1-4zm-31 109l-18 9-23 6q7-6 41-15zm20-368l12 5 12 5-84-4 12 5q11 2 12 7l-8-1-4 1q36 5 68 17 31 12 49 30l32 28q18 21 19 43-14-35-43-61-32-29-66-33 37 16 62 38 25 25 26 47-8-24-35-46-21-17-58-31l-25-6q61 15 96 52 33 38 23 77l-2 1 1-2h-2l2 7-18 29h-1l-1 2-23 27q-31 33-74 48l-4-8-19 6q-7 2-2 2h5l-44 15-33 7 2-3-158 21-132-5-130-16-137-21q-72-16-159-48-197-80-286-107l-118-36-118-22-199 12q-101 25-154 97l-2 24q11-8 23-10l19-4q-9 9 4 9 3 0 8-1l-4 4-3 4 20-2 19-1-9 8q15-10 36-11h36l54-8q19-2 41-2 31 0 68 4l151 19q85 19 267 88l140 52q81 28 148 40l114 14 212 17 189-10q113-14 191-56l-16 5-17 5q61-22 102-58 45-36 67-85 18-41 18-75 2-37-21-69l-15-13-18-12-57-36q-32-17-61-19z" />
            <filter filterUnits="userSpaceOnUse" x="24" y="361" width="1878" height="423"/>
        </g>
        <g transform="scale(.05) translate(6136 238)">
            <path d="M897 0l-37 25h-1v-1l-1 2-13 5-14 5-2-4q-5 0-2 2l-6 1-5 1 1-1-19 5-16-1-17-3-48-4-52-1-40 4-32 8q-18 6-28 20l-2 9 8 5 1 6-2 2 7 6-2 2 6 2 6 4 5 2 5-1 18-2 25-8 93-2h19l34 1 30-4 28-11h-4l32-17 22-13 2-8 8-9 7-8-2 1h-3l8-13-7-1 1-2-20 13-15 11 12-11 10-10-24 12 22-15 4-4z" />
            <filter filterUnits="userSpaceOnUse" x="563" y="0" width="351" height="101"/>
        </g>
        <g transform="scale(.05) translate(6136 238)">
            <path d="M793 92l-153 6q-68 16-107 44-43 28-70 59-32 37-41 75l4 12 16-15q-2 5 0 5t7-4l-2 5 17-10-2 6 13-13 16-10 21-18 42-31q43-29 59-36 52-23 121-23 64 1 132 22l49 17q48 22 86 47l69 54q32 30 62 67l-7-13q38 54 49 99 7 31-5 76l-5 22-22 31-27 22 13-6-40 27 8-1h8l-7 4q42-15 71-49 24-29 32-70-3 35-24 63l-39 40q44-27 68-86-8 30-27 54l-40 37-19 12q47-25 71-64 25-40 21-95v-2l1 2-2-7q0-27-15-62l-30-56 4-3q-8-14-9-14t1 5l-17-23-13-16h2l-67-60q-76-59-116-78-24-11-69-27-41-15-88-21z" />
            <filter filterUnits="userSpaceOnUse" x="422" y="87" width="790" height="526"/>
        </g>
        <g transform="scale(.05) translate(6136 238)">
            <path d="M806 166l-4 6-6 1-2-1-7 6-2-2-1 6-4 6v7l3 14 12 18q13 23 17 69l1 14-8 48-5 24 2-1-9 25-9 17 2 7-2 9-3 9 3-2-1 12h6v2l13-16 7-16-5 15-5 11 17-19 6-10h1l-1-2 9-12 6-14 4 1 1-3 3-7 2-5 1 1 5-23 12-36 1-44-8-41-10-30-11-23q-7-13-21-20l-10-1zm10 269l-16 26 16-26z" />
            <filter filterUnits="userSpaceOnUse" x="780" y="166" width="86" height="295"/>
        </g>
        <g transform="scale(.05) translate(6136 238)">
            <path d="M690 186l-27 11-14 5q-14 0-33 11l-7 7-1 5-4 4-2 1-3 7-1 1-1 8 5 4 11 5 16-4 44-9 7-3 12-1 10-2 11-4-2-2 11-3h5l3-1 1-6 5-6-2-1 2-6-4-4 1-1-8-1q0 3-2 3-1 0-2-1l3-3 3-3-8-3 7-1h-5l-5 1-1-1v1l-4-2h-4v-4l-1-1v2l-3-1v-1l-5 2-8-3z" />
            <filter filterUnits="userSpaceOnUse" x="597" y="186" width="139" height="69"/>
        </g>
        <g transform="scale(.05) translate(6136 238)">
            <path d="M943 223l-4 6-9 9-10 5-11 3q-8 0-20 6l-8 5-3 4-4 4-2 1-5 6h-2l-3 7 3 3 9 6 15-2 38-7 6-3 16-4 7-4-2-2 8-2h6v-6l4-5-1-1 1-5-2-5v-1l-6-2-4 1 3-2 3-2-7-5h-3l-3-2-3-1v-3l-2-1v-1l-3 2-2-2z" />
            <filter filterUnits="userSpaceOnUse" x="862" y="223" width="110" height="65"/>
        </g>
        <g transform="scale(.05) translate(6136 238)">
            <path d="M724 261l-9 1-11 1-21 5-18 3q-19 0-36 14l-6 8 1 6q-3 2-3 6l-2 1-1 7-1 1q3 0 2 9 1 3 5 3l12 2 16-5 49-8 9-2h29l14-1-2-2h16l6 2 5-1 3-5 10-3-2-2 7-4-2-6 1-1-11-3-9-1 8-1 7-1q-9-1-12-6l12 2h2l-20-4v-1l-1 1q-2-3-7-3l-7-1v-5l-1-1v2l-3-1-3-1h-10l-16-5z" />
            <filter filterUnits="userSpaceOnUse" x="617" y="261" width="179" height="67"/>
        </g>
        <g transform="scale(.05) translate(6136 238)">
            <path d="M1085 343h-1 1zm-81-37l-10 2-13 3-23 8q-12 4-18 7l-16 6q-10 4-19 15l-4 9 2 5-1 7-1 1 1 8-2 1 5 8 6 2h12l16-8 50-17 9-3 30-3 16-3-3-2 18-1 6 2 6-1 3-5 6-2 4-2q-1 0-1-1l7-5-2-5 1-1-12-4h-10l9-1 7-1q-9-1-14-7h-7v-2l-1 2q-2-3-8-3l-9-1v-5l-2-1 1 2h-4l-4-1 1-1-13 1-19-3z" />
            <filter filterUnits="userSpaceOnUse" x="900" y="306" width="190" height="82"/>
        </g>
        <g transform="scale(.05) translate(6136 238)">
            <path d="M979 640l-73 10q-90 20-227 77l-42 19-229 75 5 1-85 10-65-4-19 2-30-5-29-8 6 3 5 3-39-11 5 5 4 5-6-1 65 25 57 9-50-6-42-10 80 24-83-20-17-7q56 28 141 30l1 1h-1v1l5-2q9 2 21 2t28-2l51-6 1 5 9-3 24-4 19-4 67-20 56-17 53-17 121-47q49-19 111-36l88-14 73 5 73 13 10-5-14-14h2q4 0-3-7l6 1-14-16 7 2-19-11-17-12-30-10-60-9zm-582 225q-4 2 1 3-1-2 3-2l3-1z" />
            <filter filterUnits="userSpaceOnUse" x="157" y="640" width="964" height="228"/>
        </g>
        <g transform="scale(.05) translate(6136 238)">
            <path d="M1420 842q-22 10-42 17l27-9 15-8zm-42 17l-33 11q16-5 33-11zm-751-65q-35 0-51 2l-84 13q-46 11-74 34l-3 11 20-1q-5 3 5 6l-4 2 19 4-6 3 19-2 18 1 28-3 52-4 70-7h20q84 0 230 28l50 8 91 19 82 13 88 4-8-1-8-2 102-5 68-13q1-1 17-11l30-13 26-14-12 4 34-22-6 1h-7l5-4q-43 20-62 24l-52 16 45-15 37-16-38 13-36 7 12-4q-26 8-49 11l-1-1h1v-1l-4 3-46 2-49 1v-5q-8-1-10-1-4 0 1 2l-23-2-18-2 3-1-73-8-59-13-57-15-142-29-136-16q-32-1-55-1z" />
            <filter filterUnits="userSpaceOnUse" x="415" y="794" width="1031" height="131"/>
        </g>
        <g transform="scale(.05) translate(6136 238)">
            <path d="M1403 776q-7 0-14 2l-8 6v6l-4 5-2 1-2 8h-2l1 11 5 4 10 8 20 6q19 5 58 31l12 6 34 25 19 10-1-2-1-2 22 12 7 4 7 3 6-3h15l-2-2 10-2-2-6 2-1-13-7q-7 0-11-4l10 2 8 2-13-11 18 7-24-11v-2l-1 1-7-6-8-6 2-4-1-2-1 2-3-3-3-3h1l-13-8-8-9-9-9-11-9-16-10-29-17-24-12-21-9q-6-2-13-2z" />
            <filter filterUnits="userSpaceOnUse" x="1371" y="776" width="222" height="144"/>
        </g>
    </g>
    <g id="cloud3">
        <g transform="scale(.05) translate(7261 1043)">
            <path d="M1385 470h-2l1 2v2l3-2q0-2-2-2zm18 91l-13 9-18 7q5-6 31-16zm-920-327q-75 0-145 32-90 41-143 86-73 62-84 128l9 21 14-14 14-7q-2 7 2 7 3 0 11-4l-2 5v4l15-6 15-6-4 10q8-12 24-19l30-11 40-26q21-14 80-41l52-22 55-17 90 6q47 20 98 55l95 76q61 51 105 76 25 14 92 35l89 20 89 3 157-15q102-17 151-64-3 0-12 7l-13 6q50-28 60-70l3-44q-3-23-13-39-36-53-104-68h-18l-19 1-115-5 11 2 11 2-70 12 11 3q8 1 10 5h-6l-4 3 62 1 54 10q59 5 92 26l-80-21-72-6 71 13q36 9 58 24-48-22-132-28h-28l115 16q66 16 88 38v2l-1-1-1 1 5 1 1 9-1-1v1l2 16-3 11-13 11-6-7q-6 3-9 5-4 2 3 2-9 9-27 13l-24 7 1-3q-48 16-124 24-19 2-42 2-29 0-65-3l-26-2-2-1 4 1-2-1-63-14q-51-13-90-36-38-23-106-82-70-59-112-86l-62-36-35-15-36-10q-38-8-75-8z" />
            <filter filterUnits="userSpaceOnUse" x="111" y="234" width="1360" height="391"/>
        </g>
        <g transform="scale(.05) translate(7261 1043)">
            <path d="M1497 643h-1l-4 1h2l3-1zm-20 25l1 1v1l-1-1-4-1zm-204 73l-4 3-4 3 10-1q6-4-2-5zm-40 95l-14 4-18 1 32-5zm-794-375l-60 1-43 6q-50 8-91 24-88 35-136 72-67 50-83 114l8 21 14-12 14-5q-3 7 4 7 3 0 9-2l-2 4-1 4q6-4 15-5l15-3q-5 5-4 8 8-10 23-15l27-7 20-10 17-10q21-12 75-33l51-20q32-12 55-17l18-4h-1l3-1 25-2h47q48 5 96 24l93 54 94 67 77 43q71 41 151 63 66 18 144 23 16 1 31 1 64 0 120-17l-13 1h-13q85-11 167-54l53-30 40-41 6-16 3-16q10-30 8-39l-7-10-16-5 6 5 5 5-54-4 9 5 8 7-2-1-1 1v2l6 2 1-3h2l5 1-1 4 3 1v-3l2-2h7l8-1h2l-1 1-7 6-2 3 6-6v1l-4 4-4 4 2-3-9-4-11 20q-13 21-30 32l37-51 1-2-7-2-1 1q-10 18-32 31l27-34h-3l-3 6-27 33-34 26-3-1-2 4-68 25-75 19-2-9-16 1q-7 1 2 3l-36 4-25-1 1-1-115-5q-40-6-88-27l-80-39-85-52-112-81q-66-45-123-65-65-23-130-23z" />
            <filter filterUnits="userSpaceOnUse" x="26" y="461" width="1489" height="390"/>
        </g>
        <g transform="scale(.05) translate(7261 1043)">
            <path d="M766 0l-69 4-53 7-42 10q-24 8-38 22l-2 10 10 4q-2 1 3 6l-3 2 10 6-2 2 9 1 9 4h14l26-3 35-10 126-8 25-1 88 7h43l-3-1-4-1h51l18 1 16-1 9-6 16-3 15-3-6-1 19-7-7-4 3-2h-33l-28 2 24-3 20-3h-20l-19-3 40-1 8-1-67 1v-1l-2 2-23-3-25-2v-5l-5-1 1 2-12-1-9-2h2l-37-2-30-5-29-5-72-4z" />
            <filter filterUnits="userSpaceOnUse" x="562" y="0" width="524" height="78"/>
        </g>
        <g transform="scale(.05) translate(7261 1043)">
            <path d="M888 96q-68 0-133 17-82 20-119 37-62 27-91 43-49 28-75 59l-2 12q8-5 23-7-5 4 0 4 2 0 7-1l-5 4 23-3-6 4 22-8 21-5 32-13 60-25 76-31q90-31 182-31 54 0 109 11l57 13q58 19 100 45 49 31 74 62 37 45 40 95l2-9q4 56-33 110l-57 62-15 18-31 25-32 20 13-4-42 26 9-1 8-1-5 4 75-41 58-47-49 43-45 31 48-29 41-29q-40 37-88 62l-20 11q87-39 146-111l2-1 2-5q23-22 37-58 16-40 16-78h5v-18q0-5-1-5t-1 7l-8-38-10-28 2 4q-23-49-71-86l-58-42-6-3-4-3q-42-24-70-33-28-11-80-23l-100-11q-16-1-33-1z" />
            <filter filterUnits="userSpaceOnUse" x="468" y="96" width="860" height="533"/>
        </g>
        <g transform="scale(.05) translate(7261 1043)">
            <path d="M850 161l-10 3v9h-1q-3 0-3 5l-3-1-3 10-2-1 2 7-1 8 5 11 11 18 20 22q31 35 39 94l3 20-4 38-10 33-15 34 3-2-25 32-22 20-3 9-10 10-11 9 6-2-14 14h4l4 2-2 2q21-12 29-15 12-12 21-17l-18 16-16 13q23-14 36-18l-34 22-7 4q25-10 56-39h1l-1 1h1l1-3 18-16 16-20 4 2q9-6 6-6-1 0-4 1l12-19v2l15-37q15-39 16-59l-1-32-6-38q-6-32-22-58l-25-40-23-28q-15-16-33-20z" />
            <filter filterUnits="userSpaceOnUse" x="802" y="161" width="158" height="409"/>
        </g>
        <g transform="scale(.05) translate(7261 1043)">
            <path d="M766 203l-9 2q-2 0-10 6-11 8-15 15l-8 14-4 13q-1 7 4 20l5 9 3 3 4 5 1 2 5 5v2l6 3h1v-3l-1-12q0-14 12-26l5-5 24-4-1-2 10 2 3 3 3 1 4-4h8l-1-2 7-2 2-5h1l-6-8-6-3 6 2 5 1-6-10 9 6-14-10 1-1-2 1-5-5-7-3 2-4h-2l-3-1-3-1 1-1h-11l-18-3z" />
            <filter filterUnits="userSpaceOnUse" x="720" y="202" width="107" height="100"/>
        </g>
        <g transform="scale(.05) translate(7261 1043)">
            <path d="M798 271l-8 1-9 4-15 11-10 12-6 11q-2 7-1 20l2 10 3 4 2 6v1l4 7v2l4 5h1v-3l1-12q3-13 17-23l4-4 8-1h7l7-2h1-1q-1 0 0-2l8 2 5 3 3-5 3-1 3-1v-2l5-3v-5l1-1-4-5-5-2h8l-4-8-3-2v-2l-1 2-3-4-4-2 1-4q0-1-1-1v2l-2-1-2-1 1-1h-8l-6-2-6-2z" />
            <filter filterUnits="userSpaceOnUse" x="749" y="271" width="88" height="95"/>
        </g>
        <g transform="scale(.05) translate(7261 1043)">
            <path d="M1084 199l8 7 3 2-10-9zm-51-30l-9 1-11 4-17 11-11 12-8 11q-4 7-4 21l2 9 3 4 1 6v2l4 7-1 1 6 6h1l2-3 4-12q7-15 23-24l5-3 10-1h8l9-1v-2l10 4 3 3 3 1 5-3 4 1 4 1v-3l8 1 2-5h1l-6-10-7-5 7 3 6 3q-7-6-7-12l2 2-2-2-5-4v-2l-1 1-5-6-7-3 1-4-1-1v1l-4-1-2-2 1-1-11-1-8-3-8-2z" />
            <filter filterUnits="userSpaceOnUse" x="971" y="169" width="123" height="96"/>
        </g>
        <g transform="scale(.05) translate(7261 1043)">
            <path d="M1030 247l-7 2-8 5-12 14-7 12-5 11v21l2 9 3 4 2 6v2l4 6v2l5 5h1l2-4 1-12q3-14 14-25l4-5 14-4 7-2-1-2 9 1 3 2h2l3-5 3-1 3-1v-2l5-3v-5l1-1-5-5-6-2h10l-6-8-4-2v-2l-1 2-4-4-5-2v-4q0-1-1-1v2l-2-1-2-1v-1l-9 1-13-2z" />
            <filter filterUnits="userSpaceOnUse" x="990" y="246" width="88" height="101"/>
        </g>
        <g transform="scale(.05) translate(7261 1043)">
            <path d="M701 644l-51 5q-80 15-155 50l-122 62-46 28h5l-50 27-39 18-8 10-17 10-16 10h4l4-1-22 14 5 1 4 1-3 2 41-15 32-16-27 16-24 12 25-9 24-7q10-5 23-11h1l-1 1v1l2-3 28-11 29-15 2 4q12-3 5-4 5-4 13-6l11-5-2 2 40-22q21-12 65-28l75-31q19-8 71-22l57-6 49 2 51 1 8-7-9-10q5 0 0-7h4l-9-12h5l-12-6-11-10-20-6-39-7z" />
            <filter filterUnits="userSpaceOnUse" x="188" y="644" width="604" height="237"/>
        </g>
        <g transform="scale(.05) translate(7261 1043)">
            <path d="M397 793q-128 22-187 89l-2 13 24-8q-5 4 0 4 2 0 7-1l-4 4 23-3-6 5q10-6 22-9l22-4 33-11q22-8 62-14l82-8q66 1 148 31l153 59 60 21 111 37 101 26 109 20-18-5 129 14 87-2 22-9 38-12 31-18-13 6 32-33-13 6 4-5q-25 27-64 33l-67 10 58-9q28-7 43-18-43 17-78 17h-10l-48 1-1-1h1v-1l-6 2-58-7-63-9 1-4-13-2-29-6-23-5h4l-93-22-72-23-70-26-166-66q-103-42-167-52l-136-5z" />
            <filter filterUnits="userSpaceOnUse" x="208" y="789" width="1255" height="266"/>
        </g>
        <g transform="scale(.05) translate(7261 1043)">
            <path d="M1431 925l-4 5-6 1h-2l-7 4-2-1v5l-4 6 2 6 6 12 16 11 44 32 9 4 25 20 14 7-1-3 15 9 5 4 5 3 5-4 6 1h5l-1-3 7-2v-5l1-1-8-7-7-3 7 2 6 1-7-10 9 6h2l-16-10-4-6-5-4 2-4v-1l-1 2-2-2-2-2h1l-8-6-10-12-7-6-28-17-16-11-13-10q-8-7-22-10z" />
            <filter filterUnits="userSpaceOnUse" x="1406" y="925" width="165" height="125"/>
        </g>
    </g>
</svg>
