<?xml version="1.0" standalone="yes"?>
<?xml-stylesheet type="text/css" href="/target/css/xue-hui.css" ?>
<svg id="svg--education" class="svg-container" viewBox="0 0 500 500" xmlns="http://www.w3.org/2000/svg">
    <path d="M158.95 262.3l-2.25.4-2 .6-1.55.6-1.25.5q-.7.35-1.15 1l-.1.5.3.2.05.3-.05.1.25.35-.1.1.3.1.3.2h.5l.9-.15 1.1-.6q1.35-.75 3.8-1.3l.75-.2 2.7-.2 1.3-.1-.2-.1 1.55.1 1.05.15.35-.2h.5l.5-.05-.2-.1.7-.1-.15-.3.15-.05-1.1-.35-.9-.15.8.05.7.05q-.9-.15-1.3-.5l-.65-.1v-.05h.05v-.05l-.1.05-.8-.2-.8-.1v-.2l-.2-.05q-.05 0 .05.1h-.4l-.35-.05.1-.05-1.25.05-1.9-.15zm45.75 6.75q-.05 0-.25.25-.2.2-.1.2l.1-.05.3-.35-.05-.05zm.1 1.8l-.15.1.05.05.1-.15zm-4.25-4.3l-2.65.4-1.15.1-1.2.1-2.25.1-4 .55-1.8.7-.75.6q-.6.15-1.1.55l-.35.05-1.2.85h-.4q.3.1-.05.55l-.7.85q-.15.3 0 .45l.3.15.55.5.55.35 2.75.05 6.4.5 1.15-.05 1.35.6q.8.35 1.05.55.45.35 1.1.35h.3l.05-.2.05-.2-.25.05-.1-.15.25-.05.1.15q.15.2 1.2.85l.2.55q.1.3.35.3h.05l.95-.6.6.05.55.1.05-.2.05-.2 1.1-.2.25-.4.35-.5.05.05.15-.1-.2-.65-.1-.6-.4-.15q-.25-.15-.2-.45.15-.05.25-.05.35 0 .5.35.2.3.5.3h.15l-.15-.8q-.15-.4.1-1 .15.45.65 1.15l.2.2-.45-1.1-.75-.8.1-.15-.15.1q.25-.6-.1-.9l-.45-.6.6-.65q.1-.25.05-.25t-.25.3h-.1q-.15 0-.1-.25l-.1-.3.15-.1-.95-.4q-.3-.05-.35-.6-.1-.55-.35-.6l-.85-.15zM170.9 237.55l-3.65.1q-1.9-.05-3.35-.05-1.4 0-2.3.1l-3 .2-3.65.35-6.15.75-4.65.7-3.8.6q-2.3.35-3.65 1l-.25.5.9.2q-.45.15.2.3l-.25.1q.4.1.9.35l-.3.1 1.85.3 1.4-.05 2.65-.2 3.35-.65 11.7-1.6 14.4-.7-.7-.1 4.75.15 3.25.3.9-.15 2.6.15-.25-.1 2 .1-.25-.15-.3-.2h.3l-3.25-.7-2.7-.3 2.35.2 2.05.2-3.5-.7 4.45.65-.85-.15-3.95-.55.35.05-2.25-.3v-.05h-.05l-.2.05-2.3-.25-2.45-.15v-.25l-.5-.05q-.2 0 .05.1l-1.15-.05-.95-.05.2-.05zm8.95 9.95l.05.05v-.05zm1-6.7l-.2.15-.3.05-.1-.05-.35.2-.1-.05-.3.4v.3l.2.5.65.6q.6.6 1.45 2.1l.25.4.45 1.45.3.7.1-.05.15.75.1.6.3.1.15.25.15.25.05-.15.3.3.25-.15h.05l.05-.55-.1-.5.15.4.1.35q-.05-.5.2-.75l-.05-.3.05-.05h-.05l.1-.45-.05-.4.2-.05.05-.1-.1.05v-.35l-.15-.65-.05-.5-.05-.5-.5-1.15-.7-1-.6-.8-.55-.65q-.35-.4-1-.65l-.5-.05zm-7.15 6.05l-2.5.4-2.3.65-1.7.6-1.4.65q-.8.4-1.15 1.15v.5l.35.15.1.3-.05.1.35.3-.1.15h.3l.35.2.45-.05.9-.2 1.15-.7q1.45-.75 4.2-1.3l.85-.2 2.95-.15 1.35-.15h.1-.1q-.05 0-.1-.1l1.75.1 1.2.15.35-.25 1-.05-.1-.15.75-.1-.1-.15-.1-.15.1-.05-1.2-.3-1-.1h.9l.75.05-1.4-.5-.7-.1h-.1l-.85-.2-.9-.1v-.2l-.25-.1q-.05 0 .05.15l-.4-.05-.35-.05.05-.05-1.35.05-2.1-.15zm-47.6 13.15l.25.35-.05.45q-.25-.1-.2-.35v-.45zm8.45 1.65q-.35.1-.1.3l.4-.05h.1-.1q-.1 0-.1-.1.05-.15-.2-.15zm-14.3-32.9l-.3.45-.6.4q-.2-.15-.45-.15-.35 0-.8.3-.05-.2-.35-.2l-.75.4q-.55.2-.7.4l-.1-.15-.25-.15q.25.4-.3.85l-.9.8q-.3.35-.2.75l.2.55.55 2.45q.4.95 2.4 3 1.75 2.15 3.1 5.05l2.1 5.3.55 1 .45 1 .7 3.75.55 3.4q.15 2 .85 3.6l.15-.35.2-.3.1 2.15.2 2.05-.15 1.5q-.2.9.1 1.4l1.1.75q.4.45.4 1.35 0 .95.35 1.3l.2-.25.15-.3.4.85.5.85.5-.25q.2-.2.6-.25v.15l.15.1.3-1.6.35-1.35q-.3-1.75-.05-2.45.45.75.35 2.15-.1 1.25.3 1.8l.4-1.85q.15-1 .75-1.65l-.15 1.8-.15 1.7.05.75.4-3-.05-2.95.2-.1v.05h.15l-.35-.2q.6-.65.5-2.05-.15-1.65.05-2.2l.9-.05.2-.45-.4.05q-.25-.4.05-1l.05-.85.2.15-.5-3.2q-.15-.85.05-2.55l.05-2.5-.65-2.6-1-3.2q-1.35-3.7-2.55-5.35l-1.1-2.05-1.15-2-2.05-3.35q-1.3-2-3.9-3.2l-1.95-.25zm256.95 104.8q-.1 0-.15.15 0 .45.55.45h.1q.45 0 .1-.45-.05.1-.15.1-.1 0-.2-.1t-.2-.1zm-9.55 3.7l1 .55 1.05.8h-.05q-.4 0-.95-.5l-1.05-.85zm94.35 3.1l.65.75q-.3-.4-.65-.75zm-16.9 3.6q-.1 0-.15.1.15.55 1.15.9.3.1.45.1.3 0-.25-.55 0 .05-.1.05-.15 0-.55-.3t-.55-.3zm-137.05-55.5h-.6q-7.55.2-11.75 2.1-2.75 1.25-4.65 3.3-1.9 2.2-2.4 4.75.2.85.75 1.95l1.1-.65 1.1-.1q-.3.8 1.05.8l-.1.3q-.15.1-.05.25l1.1.1 1 .15-.2.6q.4-.55 1.15-.55.15 0 .35.05l1.6.35 1.15-.1q.3-.15.9-.4l4.75-.4 3.7-.25q1.05-.05 1.95-.05 1.2 0 2.2.1 6.7.8 14.45 4.65 6.7 3.4 13.9 8.8l2.65 1.85 2.5 2 8.65 8.35 7.85 7.3q4.6 4.15 9.25 6.5l-.7-.7q-.7-.45-.7-.7 5.1 3.8 11.55 5.9l4.3 1.4 4.25.5 1.2-.4q.9-.45 1.2-.55l4-.55q2.5-.25 3.65-.85l-.8-.05-.75-.05 2.45-.85 2.3-1.05q-.2-.3-.9-.3-.65 0-.8-.35l.4-.1.25-.25-7.95.45-6.35-.35 5.55.1q3.2 0 4.7-.65l-4.75-.05q-2.45-.15-4.05-1 1.75.35 4.35.35 1.95 0 4.45-.2l1.9-.35-7.65.3q-4.1-.15-7.05-1.05l-.1-.2h.15l.05-.15-.6.2q-1-.75-4.5-2.3-3.4-1.65-4.7-2.9l.45-.75-.85-.85q-.15-.1-.2-.1-.15 0 .05.45l-2.1-1.65-1.4-1.35h.15l-6.95-5.95q-1.95-1.75-5.25-5.7l-5.25-5.85-6.75-5.9q-3.55-3-8.9-6.45-9.25-6-16.95-8.1l-7.2-2q-3.7-.8-6.55-.8zm123.05 55.45l1.75 1.2 1.9 1.55q-.55-.1-1.75-1.15l-1.9-1.6zm-200.2 12.05l-.4.85-.65.85q-.05-.3.4-.85l.65-.85zm95.6-91.65l-12.7.35q-13 1.7-20.35 5.25-5.15 2.5-8.45 5.8-3.55 3.5-5.1 7.8 0 .6.3 1.2l.3 1.15q.8-1.1 1.8-1.7l1.75-.9q-.4.8.1.8h.05l1.3-.45-.3.5-.2.45q.75-.45 1.9-.7l1.8-.55q-.75.75-.75 1 1.2-1.3 3.25-1.9l3.65-.8 5.55-1.95q4-1.3 11.6-2.15l7.85-.85 8.35-.35q7.05.15 14.05 1.55l7.1 1.75 7.1 2.45q13.55 5 26.45 15.45l4.7 3.75 4.5 3.95 15.5 16.35 6.9 7.25 7 7.3q8.25 8.25 16.45 13.45l-1.35-1.25q-1.25-.85-1.35-1.25 5.2 4.2 10.6 7 5.85 3.2 11.05 4.1l8.2.25q4.45-.85 6.1-4.15.4-.85.4-2l-.15-2.1q-.15-3.6-1.35-6.65-1.35-3.55-3.75-5.4-.05.35.75 1.15.7.9.6 1.2-3.15-3.85-6.8-5.1 0 .35.85 1.1.75.7.6 1.15-.6-.65-.9-.65-.1 0-.15.1 2.9 2.15 4.55 5.1 1.75 2.9 1.65 5.2.5 1.9 0 3.45-.55 1.7-2.2 2.2 1-.75 1.5-1.85.55-1 .55-2.7 0-1.65-.7-3.35-.7-1.75-1.85-2.95 1.95 3.65 1.85 6.35-.05 1.25-.5 1.95-.35.5-1.05.6l.65-.85q.35-.8.25-2.15-.2-2.7-2.1-5.55l-1.2-1.4q1.35 1.7 2.3 3.9.95 2.55.7 4.5l-.35 1.05-.6.55-1.4.55-.5.1h-.2l-.5.05h-.15l-.3.05h-.65l-.2-.2h.2l.1-.1-.1-.1-.8.35q-5.6-1.75-8.4-3.05-5.4-2.45-9.4-5.85l.5-.75-1.85-1.65q-.3-.25-.4-.25-.15 0 .35.7-2.1-1.3-4.2-3.5l-2.9-2.75.35.15q-6.6-5.9-12.7-12.45l-9.95-11.3q-6.4-7.7-9.85-11.2-5.8-5.8-12.25-11.25-7.65-6.55-17.05-11.7-4.4-2.35-8-3.9l-4.3-1.75-4.05-1.5q-8.1-2.9-16.4-4.05l-13.25-1.45zm98.9 95.9l-.3.05.45.3q.45 0 .15-.35zm-120.85 4.2l-.35.15q-.1-.05-.2-.05-.15 0-.15.15l.7.1q.5-.15 0-.35zm-69.9.55q-.35 0-.45.5-.05.35.1.35.1 0 .3-.1-.25-.15.05-.35l.05-.4h-.05zm66.4 5.8l-.75.15-.9.05.75-.2zm103.65-15.85l-5.25.35q-2.55.25-6.35 1.35-6.45 1.95-10 5.35l-3.2 3.2q-1.65 2-2.25 3.7-1.45 4-1.4 6.65.1 3.7 2.5 5.75l1.5.3q-.1-.45.15-.75l.45-.55q.1.15.3.15.25 0 .6-.35l.15.15.15.1.55-.5.5-.5.25.35q-.15-.45.3-.95l.8-.7.3-.65v-.5l.5-2.1q.3-2.25.95-3.5 1.45-2.9 5.5-5.05 3.55-1.85 8.35-2.65l1.7-.4 1.7-.3 6.5.3q3.25.35 5.75 1l6 1.6q0-.2-.45-.35l-.45-.35q5 2.25 6.65 3.25l2.05 1.65 1.95 1.55.75.15.8.2q.85.4 1.9 1.65l1.6 1.8-.15-.45-.2-.5 2.3 2.55.1-.65q-.15-.45.1-.65l.15.3q.05.15.15.15l.1-.05q-.4-1.15-1.5-2.85l-1.5-2.35-3.55-3.3q1.6.8 3.25 2.7l2.55 2.75-2.15-3.15-2.05-2.75q3.55 3.45 4.8 5.6l.9 1.4q-1.25-2.7-3.75-5.3-1.75-1.8-4.6-3.9v-.15l.05.05h.1v-.1l-.5-.05q-.9-1.15-3.3-2.45l-3.8-1.95.25-.65q-.75-.5-.9-.5-.1 0 .1.3-.85-.15-1.85-.75-.95-.55-1.5-.6l.35-.05q-2.75-.9-6.1-1.45l-4.8-1-4.85-.6zm-135.2-68.45l-1.3.45q-.8.15-1.2.45l.15-.8q-.4.95-1.6 1.65-1.45.75-2.1 1.2-.75.55-1.25 1.45l-.7 1.4q-2.5 4.4-3.05 5.65-1.05 2.35-2.1 7.9-1.7 6.4-4.35 12.65-1.6 3.95-6.1 12.3l-1.1 2.45-1.2 2.35-5.35 8.25-4.9 7.25q-2.9 4.1-4.9 7.95l.65-.55q.3-.55.55-.55h.05l-6.2 8.95-2.35 3q-1.4 1.75-1.95 3-.15.35-.15 1.1l-.1 1.2q-.25 1.1-1.55 3.1-1.25 1.9-1.45 2.9l.5-.5q.25-.45.45-.45h.05l-.85 2.1-.7 2.1.8-.35q.35-.3.6-.3.1 0 .2.05l-.25.35q-.15.2.05.3l2.35-3.1 2.15-2.65q2.1-3.7 3.35-5.05-.75 1.85-2.7 4.6-1.8 2.5-2.2 3.85l2.8-3.5q1.55-2 2.95-2.95-1 1.25-2.65 3.65l-2.4 3.4-1 1.55 4.4-5.95 4.15-6.05h.25l-.1.1.15.1v-.65q1.4-.95 3.4-3.9 2.35-3.4 3.3-4.35l.75.55.85-.85q.2-.25.05-.25-.1 0-.4.15.45-1.05 1.55-2.05l1.3-1.65-.1.25v.2l4.6-6.8q1.2-1.85 4-5.2l3.95-5.1 3.6-5.95 4.15-7.55q3.7-6.8 5.8-13.5.5-1.7 1.95-5.25l1.8-5.05q.45-1.7 1.4-4.15l1.65-4.15q1.9-5.05 1.9-9l-.55-.95-.5-.8-1 .75-1.1.4q.1-.6-.45-.6-.3 0-.8.15l.1-.35v-.35zm128.5 103.85l-.4.15-.45.05q.1-.2.4-.2zm-2.15 6.35q-.2.15.05.35 0-.15.1-.15h.05l.1-.15-.3-.05zm31.45-18.35l-.7.05-.55.3-2.2.95-1.35 1.1-1.35 1.3q-3.4 2.8-10.7 5.25l-2.2.9-4.2.75-3.75.55q-2.2.25-4 .8l.35.15.35.1-4.7.4-1.65-.05-1.6.15-.8.85-1.5.35q-1 .1-1.35.35.05.15.2.15h.1l.3.1-1.9.8.35.35.3.4h-.2l-.1.15 1.75.15 1.5.15 2.65-.15-2.3.35q-1.35 0-1.95.35l2 .2q1.1.05 1.8.45h-3.8l-.85.05 3.3.15 3.25-.15.05.1h-.05v.15l.2-.3 2.3.3 2.45-.05.05.7.5.1q.25 0-.05-.3.25-.1.5-.1.3 0 .65.1h.9l-.15.15 3.6-.5 2.9-.1 2.85-.15 3-.7 3.7-1.1q4.1-1.45 6.05-2.7.6-.4 2.3-1.25l2.1-1.3 3.4-2.45q1.95-1.55 2.6-3.85l-.2-1.5h-.55l-.55-.35q.2-.4-.45-.8l.1-.15.05-.2-.6-.35-.55-.4.1-.1.05-.2q-.15.1-.35.1-.2 0-.45-.1l-.95-.45zm-125.8-14.1q-.5 0 .05.25h-2.45l-1.75.05.15-.1q-3.2.3-7.3 1.4l-5.65 1.3q-3.3.8-5.35 1.7l-5.3 2.65q-2.6 1.35-6.1 3.85-5.7 3.9-9.2 7.9l-3.15 3.55q-1.85 2.05-2.75 3.55l-1.95 3.2q-1.15 1.9-1.75 3.3-1.85 4.1-.7 7.1l1.25 1 .2-.5.25-.2.65-.4q.05.3.4.3.25 0 .6-.15v.2l.1.2q.25-.2.75-.3l.7-.3.1.45q.1-.6.8-.95l1.25-.65.75-.8.45-.85 2.4-3.3 1.45-2.4 1.5-2.55q5.15-7.45 15.7-13.8 2.3-1.7 3.55-2.25 4.1-1.8 7.3-2.85 3.5-1.2 6.75-1.75l7.4-1.05-.65-.1-.7-.15q5.35 0 8.9.9 1.2.35 2.85 1.25l2.7 1.35.85.2 1 .15q1.25.5 2.45 1.85l2 2.05-.25-.55-.25-.55 2.75 3v-.75q-.15-.55.1-.75l.2.35.2.15q-.6-1.45-1.95-3.35l-2.1-2.65-5.1-3.45q2.25.65 4.6 2.75l1.75 1.7 1.6 1.5q-1-1.7-3-3.6l-3.25-2.95 3.9 2.9q1.8 1.55 3 3.35l1.1 1.6q-1.75-3.4-5.15-6.1-2.8-2.2-6.8-3.75l-.1-.15.15.05.05-.15-.65.1q-1.65-1.1-4.95-1.65l-5.25-.55v-.7q-.8-.1-1.1-.1zm104.3 48.25l-.4.05q-.3.1 0 .1l.4-.15zm29-29.45l-.15 1.25q-.05-.15-.1-.15-.1 0-.2.45l-.1-.35-.25 1.25-.15-.4.1 1.3-.1 1.25.3 1.8.5 3.2q.35 2.65.2 3.7l.05-.15q-.5 2.55-4.1 5-2.5 1.75-6.8 3.65l-2.75 1.15-5.3 1.7-4.8 1.25-5.1 1.3.3.05-5.45 1.1-4.2.7-1.05.45-1.95.45-1.8.4.75-.05-2.45.6.4.1.4.05-.35.1 4.15-.5 3.5-.6-3 .6-2.6.5 2.6-.3 2.15-.2-1.4.2 1.65-.25-.25.05 2.7-.45.05.05h-.05v.05l.3-.15 2.95-.4 3.1-.6.05.25q1.2-.15.6-.2l2.65-.5-.2.1 4.55-1.15 3.7-.95 3.55-1 3.8-1.4 4.45-2.1q4.75-2.5 6.75-5.5l1.25-2.45.05-.1q.5-2.1.15-4.2-.65-4.55-2.55-9.6l-.5-.35zm-38.75 30.85l-3.35.5-1.1.2 4.45-.7zm-41.3 25.5q-.15 0-.4.2-.2.25-.05.25h.15l.2-.2.15-.2h-.05zm3.15-38.9q-.5 0-1.05.05l-6.3.7q-3.4.75-5.5 2.5-.25.45-.35 1.05h.85l.65.2q-.5.3.35.6l-.2.1-.1.15.7.3.65.25-.4.2q.3-.1.65-.1.35 0 .75.1l1.3.4 1.95-.1 3.6-.1 2.25-.15h2.25q4.05.35 6.05 3.5 1.1 1.75 1.3 3.8.3 2.2-.15 4.4-.45 2.45-.9 3.4-1.4 2.9-3.7 5.5-2 2.35-4.35 4.15l-5 4 .55-.2q.3-.25.45-.25h.05l-6.4 4-2.35 1.15-2.2 1.25-.95 1.1-2.05 1.3-1.9 1.2.45-.15q.25-.2.35-.2l.1.05-2.5 1.8h.55l.5.05-.25.15-.1.15 4.7-2.05 3.8-2q-1.15.85-3.25 1.9-2.05 1-2.75 1.55l2.95-1.3q1.65-.75 2.7-1l-5.55 2.75-1.15.6q2.35-.95 9.4-4.7h.15l-.1.05q-.15.15-.1.15l.15-.05.25-.35q1.2-.3 3.35-1.6l3.4-2.05.25.4.75-.4q.25-.15.1-.15l-.25.05 1.6-1.05 1.1-.65v.05q2.65-1.9 4.7-4l3.7-3.6q2.05-2.15 3.1-4.2 1.45-2.7 2.05-5.6.45-1.7.45-3.65l-.05-1.85v-.45l-.05-.35v-.1l-.05-.25v-.1l-.15-.65q-.6-3.4-2.65-6.15-2-2.55-4.85-3.8-3.95-1.7-7.3-1.7zm9.55 86.7l-.2.05h-.25q.1.2.3.2h.1q.35-.05.05-.25zm-4.45 3.5l1.25.2h-.6l-.65-.2zm-23.25-7.75l-9.35.75-3.55.7-3.4.9q-4.6 1.65-5.4 2.05-2.9 1.35-4.35 3.45-.1.45-.05 1.05l1.4-.05q-.3.35.45.5l-.15.15-.1.1.65.15.65.15-.3.3 1.2-.2 1.25.1 1.75-.45 3.3-.9 4.35-1.55q5.1-1.6 12.9-1.6 1.8 0 3.7.1l3.3.05 11.6 1.75 5.8.85-.5-.2-.5-.2 6.75 1.3 2.35.55 2.2.4 1.35-.35 2.15.2 2.05.1-.4-.15-.4-.15 2.8-.1-.4-.3q-.35-.15-.4-.35l.3.05.15-.05q-3.45-.6-4.45-1l-3.8-.65 3.35.45 2.75.3-2.75-.65-2.45-.8 5.35 1 1.15.15-9.1-1.75-.05-.1h.05l.05-.05-.35.1q-.95-.5-3.15-.9l-3.4-.8.1-.45q-.65-.25-.8-.25-.15 0 .1.2l-1.6-.35-1-.3v-.05l-5.15-.9-4.05-.9-4.05-.8-4.45-.4-5.45-.2zm-143.05-238.55l.25.95.05 1.1q-.25-.25-.25-.95l-.05-1.1zm8.7 4.7q-.4.25-.1.75l.45-.05h.05-.05q-.2 0-.15-.35l-.2-.35zm-40.7 0l-.3.25-.3-.05-.05-.1-.45.25-.05-.15-.15.35-.3.3-.1.5v1l.5 1.25 1.2 3.95.3.75.4 2.65.25 1.3.05-.1q-.05-.1.05-.15l.15 1.55-.05.55q-.05.3.05.5l.25.3.2.95.1-.2.25.65.25-.2.05.1.15-1.1-.05-.9.1.8.1.7q.05-.9.25-1.35v1.65l.05-2.25h.05l-.05-.1.1-.75-.05-.8.25-.05.05-.15h-.1v-.35l-.05-.3.05.05-.15-1.15-.05-1.85-.45-2.05-.55-1.95-.45-1.5-.35-1.2-.7-1.4-.45-.2zm3.9-26.9l-15 .6-5.9.5-5.7.75-4.65.9-2.45.45q-1.1.25-2.5.8-1.05.5-4.1 2.3l-1.55.9-.35.35q-.8.95-1.05 1.95l.3 1 .2.4.1.5.75-.1.65.4q-.1.3.15.65l.25.5.1.35.05.35-.7.5-.4.15h.2l.05.05.25.2.35.15.6.1-.75.15-.3.25.3-.05 1.6-.1 1.6.1 2.65.4 1.45-.1.6-.3.7-.15 4.4-.3 3.8-.8 3.95-1q5.65-1.1 13.75-1.45 4.7-.2 14.45-.3l2.8-.25 2.75-.15 10.3-.1 1.15-.05.95.2q.6.2.85.45l.15.35.25 5.1q.15 4.65 1.1 9.65.25-.15.15-.85t.1-.85q.1 3.1 1.05 11.25l.15 3.95q.05 2.3.5 3.7l.6.95.7 1q.5 1.1.8 3.5.35 2.35.8 3.3.25-.15.1-.75-.1-.55.1-.7l.7 2.25.8 2.15.4-.75q.1-.6.45-.75l.05.4q0 .25.2.25h.05l-.25-4.1q-.2-2.5-.1-3.5-.85-4.5-.75-6.3.65 1.95.95 5.45.3 3.25.85 4.6l-.15-4.7q-.15-2.65.25-4.3.15 2.95.8 9l.25 1.9-.55-7.75-.75-7.55q0-.15.15-.15v.15l.2-.05-.45-.5q.45-1.65.1-5.3-.4-4.15-.25-5.6l.9-.05.15-1.2q0-.25-.1-.25t-.3.4q-.3-1.1-.05-2.65.25-1.4 0-2.1l.2.4-.55-8.65v-.2l-.3-2.15-.25-.9-.3-.8-1-1.75-.6-.8-1.1-1.05-1.65-1.2q-1.3-.8-2.7-1.25l-1.65-.4-.35-.1-1.05-.1h-.65l-3.15-.25-6.25-.5h-6.85l-8.55-.05zm133.75 178.15l-.15.15h-.1q-.1 0-.1.1.05.15.2.15.1 0 .2-.05.25-.15-.05-.35zm-2.1 6.35l-.55.15h-.6q.15-.15.55-.15zm-41.5-14.75l-1.45.5.2.7-.1.7q-.1-.05-.2-.05-.4 0-.4.8l-.2-.1-.25-.05-.05.9v.85l-.5-.25q.5.4.65 1.3l.3 1.5.7 1 .8.65 3.2 2.55q.9.55 2.45 1l2.65.65q9.4 2.3 16.2 2.6l1.55-.05 1.5-.1 5.45.3 4.85.05 5.15-.4-.45-.1-.4-.15 6-.15 2.1.2 2-.05 1.1-.8 1.95-.25 1.85-.25-.35-.1-.4-.15 2.55-.6-.4-.4-.35-.45q.15.05.25.05.15 0 .15-.15l-2.3-.3-1.95-.35-1.55.15-1.9-.15 3.05-.2 2.55-.15-2.6-.4-2.35-.6 2.6.15 2.45.15 1.1.05-4.3-.4-4.2-.05-.1-.15h.1v-.15l-.3.3-2.85-.4-3.05-.15.05-.7-.65-.15q-.3 0 .05.3l-1.4-.1-.9-.15v-.05l-4.25.05-3.35-.4-3.15-.55-3.35-.2-4.05-.4-6.9-1.05-2.65-.75-2.6-.9q-1.25-.35-4.25-2.05-2.85-1.55-5.1-1.95zm32.55 26.7l-.3.05.3.05q.3-.05 0-.1zm-38.1-14.75l-.5 1.35-.15-.15-.15.4-.1-.4-.25 1.5-.15-.5.25 1.55.35 1.4 1.2 1.75 2.6 2.35q1.1.85 3.8 1.9 6.4 2.65 13.45 4l2.65.45 4.95.75 4.45.45 4.7.15-.4-.05-.4-.1h5.5l3.75-.1 1-.35 1.75-.25 1.6-.3h-.65l2.15-.5-.35-.1-.35-.1.35-.1-3.7.3-1.35.15-1.75.05 2.7-.25 2.25-.3-2.3.15-2.05-.05 4.4-.35.9-.1-7.45.5-.05-.05h.05v-.05l-.25.1-2.6-.1-2.75-.1v-.2q-.45-.05-.6-.05-.1 0 .1.1l-1.3-.05-1-.1.15-.05-4.05-.3-3.15-.45-3.1-.65-7.3-1.6-6.6-2.15q-1.9-.65-4.75-2.3-1.9-1.05-3.3-2.65-1.65-1.95-1.85-3.9l-.35-.5zm-77.1-148.55l-.3.05.3.05q.25 0 0-.1zm-11.85-.5l-6.3.35-5.8.55-4.45.6-3.55.55q-2.15.35-3.45 1l-.25.5.9.2q-.5.15.15.3l-.2.1.8.35-.25.1 1.7.3 1.35-.05 2.45-.15 3.15-.6 11.05-1.2 2.15-.2h11.45l-.3-.1-.35-.05 4.5.3 3 .4.9-.1h.15q.95 0 2.65.55 0-.05-.25-.15l-.25-.15 1 .3q.7.3 1.1.75l-.25-.45-.2-.35.35.2-.4-.25.05.05-1.6-.85-1.45-.5-2.6-.4 2.3.3 2 .45-2-.65-1.7-.5-1.85-.25-.05-.05h.05v-.05l-.25.05-2.15-.35-2.3-.2v-.2l-.5-.05q-.1 0 .05.1l-1.1-.05-.8-.1-3.3-.05-2.7-.1-2.65-.15zM390.8 472.45l-.55.6q-.15.25-.05.25.05 0 .25-.15l.2-.35.15-.35zm-79.15 8.9q.25 0 .25.35l-.2-.15-.05-.2zm-3.85-16.1l-.55.35-.6-.1-.2-.1-.4.1q-.25.05-.35.2l-.15-.25-.25.6-.55.45q-.25.3-.1.8l.15 1.5 1.15 1.8 2.95 5.4.65.95 1.35 3.5.95 1.65.05-.2v-.15l.85 1.95.2.7.3.65.65.1.5.5.45.4v-.3l.8.45q0-.25.35-.5l.1.05-.3-1.25q-.5-.5-.5-.95l.55.8.5.55-.15-.75q-.15-.4 0-.8l.55 1.35.15.25-.4-1.15-.5-1.15.05-.05h-.1q.15-.4-.1-.95l-.25-.95.4-.15q.1-.25 0-.25-.05 0-.15.1l-.1-.4v-.3l.05-.05-.6-1.3-.2-1.15-.15-1.1-.5-1.15-.7-1.4q-.7-1.55-1.35-2.35l-.55-1-.55-.95-.85-1.65q-.55-1.1-1.65-2l-.9-.35zm69.85 20.85l-4.55 4.7-1.4 1.5 5.95-6.2zm31.55-37.5l-18.6 9.6q-3.15 1.6-6.05 2.65-2.6.95-6.45 1.7l-6.5 1.15-7.05 1.15-8.7.9-14.95.45-5.85-.25-5.6-.55-9.25-1.7-9.05-2q-.3.05-.6.25l-.55.2 1.1.8.8.8-.35-.05q-.45 0 .5.8l-.65-.15.9.9.9.8-.8-.15 2.2 1.2 2.05 1.35q1 .55 3.55 1.3l6.75 1.65 4.35.4 4.4.1q2.55.05 5 .05 13.7 0 24.8-1.65l5.65-1.1q5.65-1 10.45-2.35 4.75-1.4 8.95-3.25l2.15-.95-4.35 6.05.6-.6q.45-.6.65-.65l-7.6 9.15-2.85 3-2.65 2.9-1.1 1.95-2.45 2.9-2.3 2.7.55-.45.55-.5-3 3.8.7-.35q.4-.3.6-.3h.1l-.3.3q-.25.2-.15.25l3.15-3 2.65-2.6 4.6-4.95-3.9 4.4-3.3 3.75 3.6-3.5 3.25-2.95-2.1 2.15 2.25-2.3-.15.15 3.4-3.55q.05-.1.1-.1l.05.05-.1.1.05.05.3-.55 4-4.15 4-4.65.35.25q1.2-1.2 1-1.2-.05 0-.35.2l1.85-2.25 1.45-1.8-.2.4 13.55-18.15zm-66.25 29.6l-5.05.3-8.4 1.15q-4.55.95-6.3 1.55-6.55 2.15-9.05 4.6l-.2.45 1.15-.55q-.15.15-.05.15.1 0 .35-.1l-.15.2 1-.35-.3.25q.35-.25 2.2-.85l5-1.8 4.3-1.3q6.75-1.75 15.7-2l3.15-.1 5.8.2 10.45 1.1-.75-.2 6.4 1.15 4.25 1.1 1.2.15 3.3 1-.2-.1 2.55.85-.7-.45.4.1-4.15-1.65-3.6-1 3.15.85 2.6.85-4.95-1.8 5.1 1.7 1.05.4q-3.35-1.5-8.7-2.75l-.05-.05h-.25l-3.05-.75-3.25-.6v-.15q-1.05-.25-1.2-.25-.1 0 .55.2l-2.8-.45h.25l-4.9-.5-7.75-.55z"/>
    <g id="lightbulb">
        <path d="M143 16.8l-.1.05.05.15.05.1.15-.15q-.05-.15-.15-.15zm3.35 2.8v.25l-.15.25v-.25l.15-.25zm115.1 13.65l-.05.15-.05.1.25-.05-.15-.2zm.8 4.35l-.55.4.25-.25.3-.15zm-114.5-26.3q-1.1.8-2.8 3.45h-.1q0-.1-.05-.1l-.05.05.1.2q-.5.3-1 1.25l-.8 1.45-.4-.2q-.35.35-.2.35l.15-.05-.35.75-.25.45-.05-.05-.7 2.3-.6 1.8q-.45 1.15-.55 1.8l-.15 1.95.1 2.4q.1 2.2.7 3.95l.45 1.5.45 1.4.95 2.3q.6 1.35 1.9 2.15l1 .2q-.05-.2.45-.55l.6-.1.2.1.7-.5.2.2q-.1-.25.15-.55l.45-.5.1-.4-.05-.4-.25-1.45-.45-.95-.6-1q-1.35-2.6-1.6-6.9l-.15-1.35.35-2.5.55-2.2.55-2.35-.15.15-.15.15 1.2-2.55.6-.8.5-.8-.15-.75q.05-.35.4-.85l.4-.8h-.05q-.05 0-.1.1l-.2.05.45-1.2-.3-.05-.35-.05.05-.2-1.6 1.45-1 1.45q.15-.6.75-1.35l.7-1.15-1 .95-1 .8 1.7-2.05.35-.4zm121.25 19.6q-.95.2-2.3.8l-2.2 1-.05-.1v-.1l-.1.25h-.1q-.6 0-1.55.45l-1.65.75-.15-.4q-.9 0-.3.2l-.75.35q-.45.05-.6.2v-.1l-2.3 1.4-1.95.9-1.85.95-1.85 1.35-2.15 1.8q-2.35 2.15-3.25 3.5-1.65 1.9-2.25 2.95l-1.55 2.55q-.85 1.55-.75 3.2l.5.9q.1-.15.35-.15h.45q-.05.4.5.4v.25l.95.1-.05.25q.15-.25.6-.3h.75l.7-.6 1.25-1.3 1.15-2.35q1.6-2.95 5.7-6.5l1.2-1.2 5-3.15 2.45-1.65-.25.05-.25.05 3.05-1.6 1.15-.4 1.05-.5.35-.75.9-.65.85-.6h-.45l1.1-.95q-.1-.15-.3-.15l-.3-.2.15-.05v-.1l-2.3.65q-.95.7-1.8.85.5-.45 1.5-.85 1-.4 1.3-.75l-1.45.45-1.35.2 2.65-1.05.55-.25zm-209.5 24.6q-.1 0-.15.15h.1l.05.05.05.05h.05v-.2l-.1-.05zm4.25-.15l.25.5-.15-.2-.1-.3zm-3.5-7.8q-.15.05-.2.25l-.25.2v-.1l-.15-.05.05 1.15v1l.4 1.7-.5-1.45-.35-1.3.05 1.4-.15 1.25-.35-2.6-.1-.5q-.05.9.2 2.2l.5 2.1-.1.1.1.05q-.15.55.15 1.55l.4 1.55-.4.15q0 .35.05.35t.1-.1l.2.75.1.5h-.05l.95 2.2.65 1.75.6 1.75 1 1.7 1.4 1.95q1.65 2.05 2.85 3l1.15 1.1 1.2 1 2.05 1.6q1.25.9 2.8.95l.95-.3v-.35l.1-.4.45-.4h.25l.35-.8.2.05q-.2-.15-.15-.55l.15-.7-.1-.45-.3-.3-1.05-1.25q-.25-.25-.9-.6l-1.05-.6q-2.55-1.65-5.35-5.35l-1-1.1-2.25-4.5-1.15-2.3v.5l-.95-2.85q-.05-1.4-.4-2-.5-.2-.65-.4-.25-.25-.4-.9l-.35-.85q-.1.05-.05.2l-.05.2-.65-1.15zm229.85 53.5l-.15.1q-.15 0-.15.1l.35.05-.05-.25zm-1.4 4.35l-.4.15h-.45l.85-.15zm.05-4.35q-.25 0 0 .15l-1.15.05h-.8l.05-.1-3.65.5-2.95.2-2.9.35-3.05.8-3.7 1.3q-3.7 1.5-5.9 3.2l-2.15 1.6-1.85 1.7-1.35 1.6-1.2 1.7q-1.25 2.05-.9 3.95l.65.8q.2-.35.9-.45 0 .25.55.25l.05.25.95-.05v.25q.1-.3.6-.4l.75-.15.8-.75 1.45-1.4.85-1.15 1-1.3q2.9-3.15 9.7-5.55l1.1-.45 1.05-.4 7.9-1.4 4-.6-.35-.05-.4-.1 4.75-.35 1.65.05 1.55-.1.85-.55 1.45-.25 1.4-.25-.3-.05-.25-.1 1.85-.55q-.05-.15-.3-.2l-.3-.3.15.05q.1 0 .1-.15l-3.15-.2-2.65.15 2.3-.25 1.95-.25-3.8-.45h4.65l-3.25-.1-3.25.1-.05-.1h.05v-.1l-.25.2-2.25-.15-2.45.05-.05-.45q-.3-.05-.45-.05zm-253.35 22.2q.25 0 .75.35l-.4-.1-.45-.25h.1zm-3.6 2.7q-.25 0-.1.2l.1-.05q.05 0 .15.1h.15q.05-.2-.25-.2zm-9.5-8.1l.2.4.1.35-.15-.1h-.05l-.1.05 2.8 1.95q1.8.75 2.55 1.4-.9-.25-2.25-1.1l-1.95-.9 1.75 1.2q1 .65 1.5 1.3l-3.5-2.15-.75-.4q1.15.85 2.95 1.9l3 1.65v.15l-.05-.05v.1l.3-.05q.5.6 1.95 1.4l2.2 1.3-.25.4q.4.3.5.3.1 0 0-.15l1 .65.65.45h-.05l3.35 1.7 2.5 1.6 2.4 1.55 6.1 3.15 5.8 2.75 2.3 1.15 2.15 1.1 3.6 1.95q2.2 1.15 4.1 1.35l.9-.5-.25-.5-.1-.5h.1q.25 0 .25-.55l.15.05h.15q-.1-.2-.05-.6l-.1-.6.35.1-.65-.85-.4-1.05-.55-.65-.6-.45-2.4-1.75q-.6-.4-3.55-1.5l-5.85-2.6-5.85-2.8-2.3-.95-7.6-4q-1.75-.95-3.9-1.8l.3.3.25.25q-1.25-.75-4.45-2.35l-2.95-1.75h-1.05q-.55-.05-1.5-.6l-1.4-.55.25.25.2.2-2.05-.6zm255.85 70.05l-.15.1-.2.05.35.1q.3-.1 0-.25zm7.3 1.5l.1.05 1.25.15-1.35-.2zm1.35.2l3.4.5 1 .1-4.4-.6zm-10.9 2.45l-.5.1-.6-.05 1.1-.05zm-1.8-4.45l-4.5.1-3.6-.05q-.9-.05-1.65-.05-1.15 0-1.9.1l-3.75.55-4.6.95q-4.3 1.05-7.5 2.55l-2.8 1.25q-1.65.75-2.6 1.4-2.8 1.65-4.1 2.6-2.3 1.6-3.2 3.6l.1 1.05.65-.2.55.05q-.2.4.5.5l-.1.1-.1.15.6.15.6.1-.2.3q.35-.3 1-.3h1.1l.8-.25.65-.35 2.7-1.25 3.35-2.25q4.85-2.95 13.3-4.7l2.7-.65 5.2-.45 4.65-.15 4.95-.15-.45-.1-.4-.15 5.8.3 2 .3 1.9.15 1.15-.4 1.85.05h1.75l-.35-.1-.35-.15 2.45-.15-.35-.3-.3-.3.35-.05-3.9-.85-3.3-.35 2.9.2 2.45.15-2.45-.55-2.1-.55-2.4-.35-.05-.1h.05q.2 0 0-.1l-.3.15-2.8-.5-3-.25v-.45q-.55-.15-.7-.15-.2 0 .1.2l-1.4-.1-1-.1.05-.1zm-223.35 15.6l-.95.15.45-.1.5-.05zm-2.55 4.25q-.25.15 0 .25 0-.1.15-.1l.15-.1-.3-.05zm35.45-10.8l-.7.1-2.85.35-1.75.55-1.8.7q-3.9 1.35-12.4 2.95l-2.4.55-4.5.45-4.05.35-4.25.55.35.1.4.05-2.6.1-2.45.15q-1.15-.1-2.05-.1-.85 0-1.4.15l-.9.55-1.6.2-1.55.2.35.05.3.1-2.05.45.3.25.3.3h-.2l-.1.1 3.45.3 2.9-.05-2.5.2-2.15.15 2.15.2 1.95.35-4.15-.1h-.9l3.55.2 3.5-.05.05.1h-.05v.1l.25-.2 2.45.2h2.6v.45q.35.05.5.05.25 0 0-.15.25-.05.55-.05.3 0 .7.1l.8.05-.05.05 3.8-.35 3.05-.05 2.95-.05 3.15-.4 3.85-.65 6.45-1.4 2.5-.6 2.4-.65 4-1.05q2.4-.7 3.85-2l.3-.95-.55-.15-.45-.3q.5-.3-.15-.6l.1-.1.1-.1-.45-.35q-.25-.25-.45-.35l.3-.2-1-.15-.95-.45-.8-.1zM152.8 146.8q-.15 0-.2.15-.1.2.1.2h.05l.1-.15.05-.2h-.1zm14.95-32.75l-.5.05.05.5-.2.45q-.1-.1-.2-.1-.2 0-.35.4-.05-.15-.2-.15h-.05l-.5.85-.2-.15q.2.3 0 .7l-.35.7-.05.5.1.45.2 1.8.25 1.3.2 1.45q.05 2.25-1.2 5.2-1.1 2.35-3.1 5l-1.4 1.9-3.1 2.95-3 2.5-3.15 2.6.35-.1q.15-.15.25-.15h.05l-3.95 2.75-1.5.8-1.3.9-.5.95-1.15.95-1.1.95.3-.1q.15-.15.2-.15l.1.05-1.35 1.45.4.05.35.05-.15.1-.05.15 1.55-.8q.95-.5 1.35-.65 1.5-1.15 2.3-1.5l-1.95 1.4-1.6 1.2 1.8-.9q1-.55 1.75-.65-1.15.6-3.35 1.95l-.65.45 2.85-1.6 2.8-1.75.1.05-.05.05.05.05.1-.3q.8-.15 2.15-1l2.1-1.35.25.4.5-.25q.25-.1-.15-.1.35-.4 1-.65l.8-.45-.05.1 2.95-2.35q.55-.45 2.5-1.8l2.35-1.9 2.25-2.45 2.45-3.3q2.3-3.6 2.95-6.55l.6-2.8q.25-1.55.1-2.65-.3-2.95-.8-4.3-.85-2.25-2.7-3.15zm-47.3 50.7l1.05 1.55 1 1.95q-.45-.3-1.05-1.55l-1-1.95zm12.3 5.6l-.05.05q-.15.55.5 1.45.3.35.4.35.15 0 0-.65l-.1.05q-.15 0-.35-.6-.2-.6-.4-.6zm53.95 6.1l-.3 1.65-.6 1.85q-.1-.45.3-1.65l.6-1.85zm5.75 10.55q-.4.25-.35 1.1.05.4.2.4.15 0 .35-.4-.25 0-.05-.55t-.1-.55zm-38.85 3.25q-.15 0-.2.15l.15.15q-.05-.05.1-.15v-.15h-.05zm0 .3h.05-.05zm13.4-26.85l-.6.4-.85.15-.8.8-1.3 1.7q-.45.75-1 2.75-1.2 3.15-4.7 8.35l-.9 1.65-4.05 4.95q-1.05 1.1-1.95 2.6l.25-.15q.1-.15.2-.15h.05l-2.5 2.8q-.15.15-.95.85-.6.5-.85.95l-.1.85-.65 1q-.55.6-.65.95l.2-.1.2-.15-.7 1.45h.7l-.1.15v.1l2-1.6q.85-1.15 1.5-1.55l-1.2 1.45-1 1.2 1.3-.95q.65-.6 1.25-.8l-2.25 2.1-.45.5 2-1.75 1.8-1.85h.1v-.15l1.45-1.1 1.35-1.35.35.3.35-.25q.1-.1-.05-.1h-.1q.15-.35.6-.6.45-.25.55-.5l-.05.15 1.85-2.2 1.6-1.55 1.55-1.55 1.4-1.9 1.65-2.4q1.75-2.5 2.5-4.3l.95-1.7.9-1.65 1.4-2.85q.8-1.7.65-3.4l-.55-.85-.4.2h-.45q.05-.35-.55-.35l.05-.25h-1v-.3zm-23.4-110.45q-5.7 0-10.45 1.25-7.55 1.9-16 8.25-12.15 9.1-18.65 21.95-3.5 7.1-4.7 13.8-1.35 7.2-.25 14.55.3 2.35 1.25 5.3l1.65 5.1q2.55 7.65 8.5 17.8 3 5 9.35 14.8 6.95 11.1 9.7 15.85.1-.35-.6-1.55-.65-1.15-.55-1.5 5.75 11.2 8.55 20.15 1.05 3.35 1.7 7.5l.85 7.3q.05.65.45 2.1l.4 2.2v.9l-.05.25v.25l-.05.4-.35 1.95q-.45 1.85-1.3 3.65-1.1 2.35-3.55 6.2l1.05-1.1q.7-1.05 1-1.1l-2.7 4.2-2.95 3.7h.1q.4 0 1.35-.7.8-.65 1.2-.65.1 0 .2.05l-.7.65q-.45.4-.25.5 3.45-2.95 6.1-6.8 2.3-3.35 3.9-7.5l.5-2.3.1-.8.3-3.7q.1-2.85-.2-7.95 1.5 6.1.1 12.75-.65 2.9-2 5.9l-2.4 4.85q1.9-2.4 3.15-5.1l1.15-2.75.8-2.85q.65-2.75 1.3-10.2l-.05 5.6-.3 2.9-.65 3.05q-1.4 5.5-4.9 10.1l-2.8 3.6q3.5-3.55 5.55-7.5 1.3-2.45 2-4.75l.85-3.25.25-1.9q.6-4.35 0-9.4-.35-3.65-1.55-8.3l.1-.3.1.25.1.2.05-.2-.65-1.1-1.05-5.2-1.95-5.6-2.4-5.6-2.25-5.3.8-.4q-1.05-2.6-1.2-2.6-.1 0 .05.65-1.25-1.95-2.55-4.9l-1.6-3.3.1.05-4.3-6.95-4.65-7.1q-3.3-5.1-6-10.8-1.95-4.2-4.4-10.5-1.05-2.65-1.75-5.2-.85-3.1-1.05-5.55-.75-7.15.85-13.15 1.4-5.55 4.75-11.1 2.95-4.9 7.35-9.5l3.65-3.3 4.1-2.8q3.25-1.95 8.55-4.15 5.9-2.4 13.5-2.4 1.35 0 2.7.05 5.15.35 8.2 1.4 2.2.75 3.75 2.05 1.75 1.55 2.7 3.95l1.05 1 .9.75.1-3.5q0-1.75-.45-3.15.6.85.8.85.15 0 .15-.35.1-1-.55-2.35l.65.85.6.75-1.4-3.7q-.9-1.8-2.1-2.95l1.1.75q.65.5.95.6-2.05-1.85-5.7-4.4-2.9-2.05-5-2.9-2.1-.85-4.35-1.15l-3.6-.25q-2.15-.15-4.15-.15zm42.55 13.65q-4.05.7-6.85 2.85l-.35 1.1-.3 1.05 1.85-.1 1.5.45q-1.05.5.65 1.2l-.35.15q-.35.05-.35.25.65.15 1.45.65.8.55 1.25.7-.75.1-.85.35.35-.05.65-.05.95 0 1.95.5l2.3 1.4q1.35.8 3.75 1.4 2.7 1 7.1 4.15l4.6 3.3q2.7 2.05 4.5 4.05 3.6 3.85 5.9 8.5 2.45 5.05 3.05 10.2.6 5.3-.95 11.05-1.3 4.8-4.55 11l-2.2 4.1-2.4 4q-7.05 9.5-10.3 14.35-2.05 2.95-4.15 6.65-2.05 3.75-3.55 7.05-3.45 7.6-4.8 15.9l.5-1.35q.25-1.15.55-1.35-2.6 8.9-2.7 19.05l.05 6.7q.2 3.65 1.1 6.25l.9 1.55 1.05 1.55 2.45 5.4q1.55 3.25 3 4.6l-.5-1.05q-.55-.8-.4-1.05 3.15 4 4.95 5.4.15-.35-.35-1.2-.45-.8-.2-1.15l.4.5q.2.25.3.25l.1-.05q-2.1-3.05-3.25-5.3-1.45-2.85-1.9-4.9l-1.5-4.1q-.75-2.75-.9-5.35l2.25 8.2q1.4 4.2 3.15 6.2-1.8-4.2-2.5-6.5-1-3.5-.8-6.3.45 3.45 1.6 6.7 1.15 3.05 2.55 5.8l1.5 2.3q-2.85-4.85-4.45-10.2-1.6-5.55-1.75-11.2 0-.25.15-.25v.2l.1.15.1-.15-.4-.8.55-3.85.4-4.35q.55-5.4 1.75-8.65l.85.2.65-1.75q.1-.4.05-.4-.1 0-.45.45.3-1.85 1.3-3.95l1.1-2.6.05.1q2.5-6.8 5.25-11.9 1.85-3.35 6.2-8.65l7.1-8.9q3.95-5.5 7.2-11.15 4.7-8 6.35-16.3.85-4.15.9-7.85l-.2-4.05-.55-3.95q-1.4-7-5.15-13.4-6.6-11.1-13.8-16.1-8.2-5.85-15.15-7.35l-8.1-.35zm-58.1 42.45l-.15.2-.05-.05q-.05 0-.1.2 0 .2.1.2l.15-.05q.25-.2.05-.5zm83.6 5.85l-.1.2-.05-.05q-.05 0-.1.2 0 .2.1.2l.1-.05.05-.5zm-86.85 2.25l.15.05.35.1-.35.1-.35-.05q.05-.2.2-.2zm84.25 6l.1.05.25.05-.25.15-.3-.05q.05-.2.2-.2zm-91.15-15.45l-2.3.35-2.7.7q-2.85.75-4.55 1.9l-1.75.8q-1.05.45-1.65.85l-1.35.7-1.4.55-1.7.7q-.65.25-1.25.25-.85 0-1.7-.5l-1.1-.15h-.95l.05.15v1.2l-.05 1.3q-.25-.2-.4-.2-.2 0-.35.3-.15.4 0 1.05l-.35-.25-.35-.25.25 1.7q.25 1.15.45 1.5l-.9-.45q1.2.95 1.85 2l1.15 1.75q.5.55 1.15.7l.95.15 3.1.3q.7-.1 1.75-.75l1.65-1.05q3.9-2.35 9.45-3.9l.9-.45q.55-.3.85-.35l3.2-.25 2.85-.05 3.1-.25-.2-.2-.25-.25 3.6.55q.3.05 1.15.6l1.2.35.5-.35.6-.35q.2-.05.35-.05.5 0 1.05.4l.65.4.75.25q.15-.2-.1-.35-.25-.15-.15-.35.6.1 2.45 1.35.25-.25.15-.7-.15-.4.1-.7l.2.25.3.05-1.8-2.3-1.5-1.4-1.35-.45-1.4-.75h.25q1 0 2.25.75l1.2.7 1.3.6q-.75-1.05-2.2-1.95-1.2-.8-1.65-1.55l2.2 1.15 2.3 1.7 1.15 1.05q-1.5-2.1-4.1-3.4l-3.4-1.3v-.2h.05l.05-.15-.35.3q-.55-.8-1.95-1.05l-2.1-.6.15-.85q-.35-.3-.45-.3-.15 0 0 .4l-.95-.25-.65-.2.05-.15h-2.95l-2.25-.4-2.15-.35zm85.5 6.35l-1.9.5-2.2.9q-2.2 1-3.55 2.35l-1.35 1.1q-.85.55-1.3 1.1l-2.15 2.05q-1.25 1.3-2.05 3.9l-.15 1.95.3.3.25.6q-.2.4.1 1.25l-.05.15-.1.2.3.75.25.7-.2.35.15-.1q.2 0 .45.4l.55.9q.15.25.35.25h.1l.35-.2.8-.25.75-.3 1.9-2.35q1.35-1.7 3.15-2.95 1.15-.85 3.35-1.95l.65-.45q.45-.35.65-.4l2.45-.45 2.2-.2 2.4-.45-.2-.2-.2-.2 2.8.25.9.45.9.15.8-.9 1-.1.95-.05-.15-.2-.1-.25.75-.2.75-.25-.05-.55v-.6q.05.15.1.15t.15-.25l-1-.65-.9-.7-.8-.05q-.6-.1-.95-.4l1.6.1 1.4.2-1.2-.9q-.75-.4-1.05-1.05l1.35.55q.85.3 1.25.55l.55.2q-.8-.75-2.15-1.15l-2.25-.6v-.2h.05v-.15l-.2.3q-.4-.7-1.45-.85l-1.65-.4.15-.9-.35-.25h-.05q-.1 0 .05.4-.15.05-.25.05-.25 0-.5-.2l-.5-.25v-.1l-2.4.15-1.85-.3-1.75-.25zm-36.05 41.55q-.25.05-.3.45-.05.25.05.25.05 0 .2-.15-.15-.05.05-.3v-.25zm-24.9 6.95l-.15.15-.05-.05q-.05 0-.1.2t.05.2l.1-.05.15-.45zm12.25-38.3q-.9 0-1.8.1-3.05.5-5.5 2.1-4.3 2.8-5.8 6.05-.8 1.65-1.1 3.3-.35 2.15.7 3.65 1.05 1.45 2.95 1.55 1.55 0 2.75-.75l.5-.95-.7-.15-.45-.4.15-.3-.25-.35.25-.1-.35-.45-.25-.45.25-.1h-.1q-.35 0-.35-.3t.2-.3h.15l.4.45.05.15.2-.45q.8-2.25 1.65-3.35 2.55-3.1 6.15-3.3l1.85.15.95.25 1 .4q2 .8 3.7 2.15l2.35 2.35q1.65 2.7 1.9 6 .3 2.65-.45 5.75l-1.8 5.95.35-.45.3-.45q-1.75 3.75-3.6 6.45l-1.6 1.95-1.6 1.9-.25.65-.3.7-1.6 1.75-1.7 1.55.45-.2.4-.2-2.4 2.15.6-.05q.2-.05.35-.05.15 0 .2.1l-.25.15-.15.2 2.55-1.6 2-1.5 3.1-3.25q-.9 1.45-2.55 2.95l-2.5 2.35 2.75-2.1 2.4-1.95-4.95 4.45-1.2.85q4-2.25 8.25-7.7h.1l-.05.05.05.05.1-.4q1.1-.9 2.4-3.05l2.05-3.6.4.2.45-.75q.1-.2.05-.2t-.25.2l.8-1.85.55-1.25.05.1q1.05-3.2 1.3-6.4l.05-5.5q-.35-3.3-1.6-5.55-1.25-2.6-3.85-4.85-1.3-1.15-2.95-2.1l-1.55-.8-.4-.15-.15-.1h-.05l-.9-.4q-2.4-.9-4.85-.9zm-16.25 46.05l.1.05.3.15-.3.1-.3-.1q.1-.2.2-.2zm-5.55-10.55l-2.55.05q-2.9.1-4.7.7l-1.85.45-1.85.5-3.1.95q-1.9.7-3.6 2.85l-.85 1.8.25.4.05.65q-.3.3-.3 1.2l-.1.15-.15.15.05 1.55-.3.25h.1q.3 0 .4.5l.2 1.1q.15.3.4.35l.45-.05.95.05.9.05 1.35-.6 1.5-.8q2.15-1 4.65-1.4l4.45-.4.9-.2.85-.1 2.95.45 2.5.5 2.85.15-.2-.25-.15-.25 3.1.75.95.55q.45.3.8.3.15 0 .25-.05l.85-.9 1.05-.1 1-.1-.15-.2-.15-.25 1.45-.55-.1-.55q-.15-.2-.05-.6l.25-.15-1.8-1.15q-1.25 0-1.7-.45l1.55.1 1.25.05-1.1-.75q-.65-.35-.9-1.05l2.25.95.5.15q-.65-.55-1.85-.95l-1.95-.65v-.15h.05l.05-.2-.25.3q-.3-.7-1.25-.9-1.1-.3-1.4-.6l.25-.85-.25-.3h-.05q-.05 0 0 .35l-.15.05q-.25 0-.5-.35-.2-.25-.35-.25h-.1l.05-.15-2.25-.4q-.65-.05-1.7-.75-1.05-.7-1.65-.75l-2.05-.2zm54.05 15.15l.05.05.15.05q-.1.2-.2.2t-.15-.15q.05-.15.15-.15zm-.65-9.4l-1.05.15-1.4.4q-1.4.45-2.65 1.3l-1.15.55-1.15.6-1.05.55-1.05.35-1.4.65-2.3 1.25-1.5 1.2-.4.9q-.5.25-.9.9l-.3.15-.2.3-.2.4-.2.75-.45.05q.45.15.45.85l-.15 1.15.35.5.45.15 1.7.55 1.35-.35 1.4-.7q2.9-1.25 6.7-2.15l.6-.3.6-.2 3.25.2 1.7-.2-.05-.2-.1-.25.9.25.9.1.55.45.6.1.6-.95q.2-.25.45-.25.1 0 .2.05l.6-.2-.05-.2h-.05q-.05 0 0-.2.3-.25.95-.65-.15-.35.05-1.1l.15-.15-.55-.5-.45-.5-.45.05-.5-.35q.25-.15.45-.15.25 0 .5.15l.75-.05-.6-.65q-.35-.3-.4-.95l.65.4q.45.2.6.35l.3.05-1.05-.75-1.15-.4.05-.2v.05l.05-.1v-.1l-.15.35q-.1-.65-.65-.8-.65-.1-.75-.4l.25-.85q-.05-.2-.1-.2t-.1.35l-.15.05q-.15 0-.2-.25-.1-.2-.2-.2l-.05.05.05-.15-1.25-.05h-.05q-.35 0-.8-.45-.5-.5-.8-.5zm-28.55 46q-.25 0-.4.35-.1.2 0 .2l.2-.05.1-.25.1-.25zm-4.5-35.3q-.95 0-1.95.15-5.15.7-7.75 3.45-1.45 1.55-2.05 2.8-.85 1.6-.85 3.3 0 1.65.8 3.05.75 1.3 2 1.95l1.05-.1-.2-.7.1-.55q.1.05.2.05.2 0 .3-.45l.15.1.05.05h.05l.2-.55.2-.45.25.2q-.35-.5.45-1.3l.1-.35v-.3q0-.45.7-1.35 1.15-1.7 2.35-2.35 1.75-1 3.6-1 1.5 0 3.05.65 1.7.7 2.95 2.25 1.3 1.7 2.05 3.7.8 2.3.85 3.15.05 3.05-1.05 6.25-.9 2.65-2.5 5.15l-3.35 5.1.4-.35.4-.35-4.7 5.45-1.85 1.7-1.65 1.7-.6 1.35-1.5 1.7-1.4 1.65.4-.25.35-.25-1.7 2.35.5-.15.5-.1-.2.2q-.15.1-.05.15l3.65-3.1 2.95-2.9-2.45 2.65q-1.55 1.4-2.05 2.15l2.3-1.95q1.25-1.05 2.2-1.6l-1.05 1 1.1-1-.05.05 2.15-2.05h.1l-.05.1.05.05.15-.4q1.05-.6 2.65-2.4l2.6-2.85.35.3.6-.6q.15-.15.05-.15l-.25.1 1.2-1.45.9-1.15-.1.25q1.7-2.25 3.1-5.25l2.1-4.7q1.05-2.85 1.1-5.25.1-2.9-.9-5.95l-1.45-3.3-2.15-3q-2.35-2.6-5.55-3.6-1.95-.65-3.9-.65zm-3.8 43l-3.2 3-.85.85 4.05-3.85z"/>
    </g>
</svg>
