<svg class="svg-container" viewBox="0 0 500 500">
    <g>
        <path d="M126.963 396.252c-.499.923-.057 4.916.316 2.353-.499.203.186-2.555-.316-2.353zm-3.942 49.608c-1.905 9.413-2.504 18.781-4.793 30.172.621-9.63 3.097-21 3.38-34.529-.993 7.651-1.684 16.76-2.172 21.438-1.131 5.993-2.578 16.806-4.437 25.402-.391.013.201-1.653.218-2.339-.836.326-1.055 3.843-1.851 4.43.392-4.749 1.194-10.338 1.579-15.354-.55.572-.497 3.928-1.046 4.559.336-6.69 2.271-15.531 2.338-23.176.023-2.659-.448-4.644-.348-7.045.337-8.142 1.636-16.394 2.094-25.451.594-11.641.75-24.523.878-37.588-.484.909.081 4.616-.396 5.567l-.969-31.985c-.29-10.138-.859-20.12-1.504-30.086-.773-11.099-1.387-22.037-1.812-33.814-.219-6.081-.877-11.969-1.129-18.085-1.321-31.931-1.538-63.618-3.248-92.879-.511-8.822-1.472-18.008-1.661-26.432-.136-6.193-.055-14.038-.156-20.79-.044-3.118-.34-6.667.122-11.067.515-4.918 1.684-8.896 1.298-14.284.265.389.259 1.484.358 2.305.282-2.917 1.063-3.872 1.412-6.919.331.066.114 1.561.363 1.843.291-1.529.812-3.922 1.242-1.389.341-2.32.963-3.915.839-7.403.687 1.037 1.184.912 1.979 2.301 4.398 17.505 4.06 39.319 5.298 58.932.731 11.398.614 24.578 1.18 37.143.642 14.268.917 32.716 1.263 48.608l.752 28.587c.15 7.599.562 16.675.871 23.438.319 7.052.413 14.357.61 21.748l.364 11.254c.137 3.784.295 7.57.51 11.337.579 10.229.964 19.82 1.087 28.514-.209-.073-.161-.853-.195-1.402.474 5.011-.527 8.971-.109 16.396.66-3.549.308 1.272.149 3.753l-.891-.009c-.632 11.742-.265 27.248-2.017 37.46l.238 1.896c-.069.53-.194.25-.178-.011l.03-.469c-.146-.096-.179.173-.208.457-1.137 16.358-2.936 35.576-6.317 52.242l1.003-6.511c1.527-8.712 2.89-20.578 3.982-30.765zm-4.157-60.409c-.108-2.174.229-5.558-.19-6.959.127 2.174-.215 5.555.19 6.959zM373.341 97.746c.734.483 3.873-.035 1.848-.359l-1.848.359zm39.211 1.926c7.501 1.276 14.917 1.149 24.026 2.32-7.637.319-16.725-1.177-27.408-.636 6.077.532 13.3.532 17.016.62 4.784.638 13.396 1.064 20.298 1.934.033.39-1.317-.017-1.86.041.308.799 3.1.621 3.612 1.339-3.777.166-8.241-.052-12.229.06.482.494 3.133.099 3.663.584-5.313.359-12.404-.767-18.452-.25-2.104.174-3.655.798-5.561.862-6.462.229-13.046-.59-20.23-.655-9.236-.081-19.444.104-29.8.075.725.479 3.657-.122 4.416.34-8.141.459-16.178.764-25.363.911-8.043.126-15.969.402-23.891.63-8.82.255-17.5.518-26.84.702-4.824.097-9.493.675-14.338.896-25.283 1.147-50.349 2.42-73.407 5.299l-2.626.345-1.319.184-.661.094.271-.009-.005.001-.01.002-.021.004-.04.007-.081.015-.162.03-.323.061-5.168 1.003c-3.444.678-6.868 1.335-10.191 1.781-4.88.653-11.162 1.213-16.648 1.72-2.53.232-5.422.723-9.077.407-4.091-.36-7.386-1.474-11.881-1.19.332-.252 1.243-.233 1.927-.32-2.423-.32-3.196-1.131-5.702-1.594.072-.322 1.297-.057 1.541-.295-1.253-.335-3.193-.978-1.088-1.289-.948-.225-1.725-.501-2.649-.753-.936-.246-1.945-.453-3.315-.516.876-.612.819-1.116 1.983-1.812 7.21-1.609 14.889-2.663 22.808-3.746 7.903-1.076 15.99-2.155 23.677-3.6 2.232-.42 4.562-.797 6.962-1.142l3.65-.494 1.858-.229.936-.111.234-.028.059-.007.029-.003.015-.002.201-.008.117-.009.466-.037c4.967-.388 10.089-.758 15.066-1.271 11.311-1.176 25.982-2.022 38.65-2.604 7.501-.347 15.344-.774 22.815-.928 6.066-.127 13.347-.395 18.74-.542 11.225-.309 23.327.472 35.194.058 8.057-.278 15.605-.517 22.448-.6-.058.208-.671.157-1.104.188 3.942-.45 7.064.565 12.911.085-2.802-.633.999-.314 2.953-.188l.003.891c9.265.508 21.471-.34 29.573.89l1.487-.33c.42.043.203.182-.003.178l-.371-.007c-.07.151.143.171.367.186 12.936.335 28.151.679 41.49 2.254l-5.191-.333c-6.951-.651-16.373-1.029-24.447-1.459zm-47.659 6.298c-1.723.127-4.406-.207-5.516.216 1.723-.131 4.405.203 5.516-.216zM160.083 206.767c-.027.273.563.343.359.02l-.359-.02zm6.061 3.037c1.285.707 2.689.559 4.443.706-1.446.529-3.18.02-5.19.076 1.101.406 2.512.336 3.218.286.924.229 2.608.082 3.998-.014.047.188-.252.086-.349.154.136.369.655.08.834.392-.715.367-1.622.556-2.426.799.129.228.643-.111.785.094-1.072.496-2.588.205-3.859.509-.447.106-.803.423-1.221.439-1.431.076-2.789-.553-4.247-1.029-1.886-.621-3.926-1.574-5.663-3.014-.028.292.663.439.66.724-1.57-.868-2.993-2.011-4.305-3.584-1.144-1.379-2.174-2.833-3.021-4.4-.942-1.743-1.696-3.569-2.214-5.632-.263-1.061-.69-2.087-.853-3.219-.098-.698-.16-1.408-.177-2.125l-.003.084c-.259-2.629-.003-5.272.389-7.788.395-2.521.916-4.943 1.27-7.269.245-1.592.296-3.288.616-4.662.239-1.012.627-2.219.827-3.24.094-.474.072-1.027.422-1.604.389-.639 1.062-1.121.963-1.905.127.069.103.224.137.347.195-.396.596-.489.812-.921.166.021.036.232.156.285.168-.21.454-.558.639-.158l.334-.477c.103-.144.175-.354.155-.672.336.188.586.17.974.421 1.029 1.465 1.272 3.386 1.157 5.234-.11 1.868-.548 3.713-.785 5.508-.276 2.091-1.081 4.299-1.441 6.465-.42 2.462-1.046 5.445-1.118 7.786-.038.907.01 1.806.104 2.649l-.048-.431.036.759c.021.426.056.857.095 1.288.084 1.008.408 2.236.701 3.136.582 1.859 1.014 4.078 2.279 5.814.85 1.164 1.75 2.135 2.59 2.954-.081.066-.135-.028-.198-.071.62.328.662 1.087 1.597 1.537-.174-.547.224-.015.455.23l-.261.361c.575.585 1.402 1.041 2.217 1.421.818.384 1.62.708 2.227 1.166l.299-.1c.065.037.011.096-.024.086l-.062-.018c-.032.07.001.088.038.104 2.19.698 4.938.716 7.483.657-.325.051-.648.083-.972.119-1.313.03-3.052.06-4.473-.257zm-9.803-.702c-.332-.189-.655-.701-.971-.711.315.208.651.72.971.711zM237.256 152.229c.166.332 1.377.595.729.125l-.729-.125zm12.212 7.715c1.931 1.831 4.163 2.962 6.724 4.662-2.457-.838-4.823-2.878-8.18-4.529 1.699 1.307 3.878 2.481 4.992 3.067 1.303 1.017 3.869 2.383 5.925 3.51-.062.185-.419-.152-.604-.186-.056.405.879.626.914 1.014-1.259-.324-2.659-.948-3.946-1.438.048.29.977.458 1.049.742-1.797-.504-3.776-2.037-5.76-2.803-.694-.266-1.327-.26-1.93-.559-2.048-1.009-3.819-2.564-6.011-3.868-2.814-1.677-6.091-3.305-9.566-4.569.161.311 1.245.4 1.409.722-2.77-.866-5.536-1.535-8.727-2.092-2.799-.492-5.592-.653-8.386-.734-3.104-.091-6.162.014-9.443.203-1.696.101-3.323.469-5.014.682-8.815 1.125-17.523 2.856-25.046 5.769-2.265.879-4.508 2.065-6.576 2.888-1.525.6-3.45 1.295-4.973 2.04-.706.343-1.432.848-2.45 1.138-1.119.32-2.245.325-3.013 1.169-.022-.153.162-.291.275-.435-.576.259-.987.081-1.562.38-.108-.128.194-.26.157-.392-.337.101-.891.283-.643-.253-.491.24-.965.251-1.386.941-.057-.216-.141-.353-.224-.503-.089-.135-.188-.273-.239-.526.255-1.186 1.003-2.369 1.954-3.381.955-1.022 2.116-1.904 3.347-2.682 2.475-1.556 5.221-2.708 7.792-3.898 2.997-1.387 6.649-2.354 10.088-3.457 3.908-1.269 9.088-2.397 13.598-3.142 2.669-.447 5.471-.896 8.164-1.142 2.187-.203 4.812-.457 6.789-.569 2.061-.119 4.208-.052 6.409.091l6.635.523c3.046.222 5.939.662 8.526 1.326-.049.095-.272.007-.439-.021 1.545.187 2.572 1.003 4.788 1.561-.921-.675.426-.019 1.111.326l-.163.415c3.256 1.524 7.525 3.413 9.704 5.428l.547.13c.119.094.016.115-.047.076l-.113-.07c-.061.052 0 .099.066.146 3.915 2.532 8.208 5.195 12.06 7.408l-1.539-.78c-2.011-1.16-4.733-2.742-7.043-4.328zm-16.641-5.04c-.597-.151-1.458-.605-1.899-.519.607.12 1.46.578 1.899.519zM403.689 149.27c.191.376 1.62.906.86.279l-.86-.279zm14.318 12.088c2.015 3.018 4.333 5.706 6.218 9.647-2.095-2.912-4.132-6.838-7.953-10.192 1.879 2.175 4.081 4.762 5.11 6.187 1.153 1.958 3.265 5.435 4.41 8.489-.161.104-.291-.543-.443-.75-.271.315.429 1.412.221 1.788-.893-1.504-1.843-3.335-2.903-4.836-.081.314.738 1.238.656 1.572-1.414-1.972-2.841-4.95-4.838-6.898-.691-.674-1.387-1-1.994-1.607-2.057-2.057-3.942-4.387-6.481-6.427-3.252-2.623-7.213-5.015-11.395-7.078.188.355 1.5.685 1.694 1.052-3.346-1.495-6.707-2.789-10.617-4.042-3.428-1.091-6.897-1.854-10.387-2.419-3.887-.626-7.746-.975-11.9-1.11-2.148-.065-4.231.182-6.376.31-11.201.67-22.146 3.193-31.396 7.359-2.793 1.251-5.545 2.868-8.133 4.115-1.907.912-4.338 2.021-6.357 3.117-.936.502-1.931 1.194-3.349 1.711-1.583.58-3.057.75-4.535 1.866.045-.183.367-.373.584-.558-.929.389-1.411.225-2.396.628-.068-.152.427-.331.443-.488-.522.153-1.37.367-.735-.275-.776.279-1.391.298-2.408 1.026.122-.486-.051-.671.147-1.271 1.99-2.573 4.77-4.811 7.81-6.779 3.044-1.973 6.352-3.679 9.484-5.359 3.642-1.965 8.144-3.58 12.443-5.167 4.878-1.837 11.47-3.484 17.28-4.354 3.435-.535 7.065-.965 10.55-1.088 2.828-.109 6.229-.148 8.772-.037 5.314.215 10.911 1.473 16.383 2.702 3.724.832 7.171 1.877 10.211 3.077-.064.087-.325-.051-.523-.111 1.832.502 3.002 1.542 5.607 2.56-1.063-.877.504.063 1.303.559l-.205.396c1.896 1.137 4.13 2.38 6.205 3.775 2.08 1.382 3.994 2.916 5.285 4.392l.65.335c.14.146.015.132-.06.066l-.133-.117c-.075.036-.004.109.073.184 2.302 2.071 4.645 4.518 6.713 7.223 2.062 2.707 3.842 5.667 5.113 8.601-.367-.74-.757-1.468-1.157-2.192-1.511-2.972-4.135-6.674-6.691-9.582zm-19.692-10.246c-.722-.286-1.756-.936-2.298-.944.738.251 1.759.912 2.298.944zM423.009 226.661c-.267-.074-.483.518-.109.367l.109-.367zm-5.688 4.221c-1.36.432-2.254 1.39-3.728 2.077.834-1.088 2.434-1.624 3.614-3.137-.937.539-1.839 1.417-2.326 1.846-.792.34-1.979 1.243-3.062 1.783-.118-.152.163-.163.211-.255-.273-.281-.554.148-.826-.076.401-.55.996-1.032 1.446-1.568-.207-.136-.41.347-.616.223.525-.807 1.728-1.231 2.306-2.164.203-.321.194-.75.405-1.001.71-.856 1.778-1.318 2.678-2.147 1.155-1.063 2.327-2.343 3.549-3.61l-.643.425c.789-1.151 1.596-2.24 2.523-3.474.816-1.079 1.506-2.225 2.131-3.394.697-1.301 1.282-2.629 1.796-4.088.264-.756.26-1.577.394-2.357.719-4.079.228-8.193-1.587-11.396-.538-.972-1.36-1.87-1.809-2.751-.324-.651-.645-1.506-1.012-2.214-.166-.329-.477-.65-.478-1.212-.002-.621.321-1.317-.12-1.808.139-.016.19.099.276.167l.293-1.047c.15-.066.129.145.254.121.059-.224.155-.631.487-.428.025-.349.206-.687-.041-1.081.365-.027.58-.153 1.014-.162 2.944 1.12 4.1 3.928 5.617 6.346.901 1.425 1.403 3.268 2.028 5.063.739 2.038 1.1 4.897.976 7.393-.055 1.474-.205 3.036-.569 4.471-.29 1.166-.675 2.556-1.05 3.559-.774 2.112-2.34 3.939-3.509 5.861-.799 1.313-1.623 2.482-2.441 3.467-.072-.076.023-.145.065-.216-.318.704-1.092.794-1.652 1.74.587-.162-.012.243-.31.457l-.323-.306c-1.351 1.042-2.642 2.89-4.097 3.435l-.083.308c-.067.037-.086-.043-.058-.067l.05-.043c-.041-.065-.075-.046-.108-.024-1.771 1.473-3.825 3.207-5.922 4.288l.736-.528c1.054-.625 2.353-1.648 3.521-2.476zm3.736-8.123c.154-.254.59-.478.558-.758-.148.261-.584.48-.558.758zM223.764 182.631c.231.437.395-.168.079-.403l-.079.403zm4.711-.372c1.274.551 1.896-.245 3.188-.253-.462 1.156-1.963.735-2.796 2.038.851.021 1.543-.646 1.909-.946.736.096 1.67-.482 2.61-.648.205.327-.105.156-.115.275.435.643.55.128.964.671-.196.639-.658 1.032-.958 1.586.289.373.324-.281.609.064-.277.975-1.486.782-1.87 1.822-.136.364-.024 1.064-.208 1.298-.623.803-1.748.589-2.65 1.004-1.166.541-2.439 1.229-3.851 1.567.237.431.458-.249.697.159-.962.759-2.021 1.293-3.302 1.614-1.121.273-2.218.632-3.349.896-1.257.296-2.52.548-3.909.695-.712.08-1.446.611-2.211.755-3.994.75-8.227.699-13.027.869-1.444.057-3.231.348-4.479-.075-.917-.304-1.894-.959-2.785-1.452-.414-.224-1.039-.317-1.243-1.068-.237-.855.179-2.041-.672-2.345.229-.146.343-.023.501-.005-.119-.515.33-1.173.282-1.731.238-.228.237.083.442-.063.04-.374.245-.933.755-1.007.059-.445.395-1.007.052-1.23.57-.385.919-.741 1.593-1.17 2.236-.724 3.748-.719 5.036-.57 1.288.15 2.39.481 3.672.323 1.471-.19 2.659.215 4.056-.119 1.574-.374 3.21-.587 4.528-.848.785-.147 1.579-.435 2.29-.513.583-.059 1.279-.299 1.788-.434 1.035-.274 2.292.549 3.479.083.787-.312 1.517-.621 2.207-.821.045.204-.031.163-.069.2.293-.502.891.418 1.377-.2-.474-.529.011-.326.253-.263l.269.849c1.173.208 2.141-1.136 3.422-.518l.018-.396c.059.012.093.154.071.163l-.04.018c.053.143.083.147.111.146 1.449-.509 2.956-1.523 4.697-1.788l-.553.317c-.847.23-1.83.816-2.789 1.051zm-3.266 8.508c-.199.181-.652-.055-.692.385.201-.177.66.054.692-.385zM365.888 182.333c.229.436.396-.164.082-.403l-.082.403zm4.494-.363c1.226.521 1.678-.261 2.755-.304-.152 1.104-1.557.758-2.239 2.05.818 0 1.394-.684 1.67-.985.686.061 1.409-.538 2.132-.758.267.278-.044.15-.018.259.546.549.503.065 1.02.513.006.614-.336 1.046-.52 1.619.34.326.252-.314.587-.014-.089.992-1.298.939-1.585 2-.103.377.051 1.064-.123 1.318-.602.863-1.777.714-2.707 1.16-1.205.583-2.548 1.296-4.039 1.634.238.437.486-.253.727.158-1.028.768-2.16 1.302-3.519 1.609-1.188.268-2.354.612-3.551.865-1.33.282-2.662.528-4.122.66-.75.074-1.522.604-2.324.739-4.192.684-8.642.729-14.044-.033-1.618-.223-3.677-.404-5.054-1.31-1.005-.655-2.019-1.775-2.906-2.733-.412-.437-1.074-.845-1.132-1.788-.019-.528.132-1.084.215-1.59.078-.53.087-.909-.314-1.365.272-.038.358.182.512.271.021-.637.665-1.132.781-1.78.312-.107.214.228.464.183.149-.396.534-.88 1.062-.687.202-.44.742-.807.501-1.175.678-.126 1.138-.318 1.929-.442 2.371.299 3.808.861 4.987 1.372 1.173.519 2.157 1.056 3.396 1.092 1.408.023 2.446.482 3.791.215 1.501-.313 3.058-.509 4.417-.748.802-.133 1.646-.416 2.421-.482.633-.051 1.406-.284 1.976-.413 1.163-.266 2.553.562 3.858.104.868-.309 1.661-.618 2.391-.815.041.204-.038.164-.079.201.322-.503.923.425 1.434-.192-.476-.536.019-.324.261-.263l.26.852c1.204.214 2.133-1.122 3.36-.508l-.003-.391c.057.012.097.151.076.161l-.037.017c.058.142.085.146.112.145 1.357-.512 2.55-1.501 3.808-1.738l-.353.291c-.625.216-1.375.788-2.234 1.026zm-3.171 8.523c-.213.185-.683-.055-.737.385.215-.173.691.058.737-.385zM293.422 236.412c-.204.488-.468 2.682-.136 1.295l.136-1.295zm-6.128 26.791c-1.539 5.041-2.767 10.059-4.646 16.157 1.248-5.154 3.194-11.237 4.775-18.525-1.104 4.115-2.318 9.009-2.977 11.516-.974 3.214-2.579 9.008-4.021 13.628-.104.015.238-.886.318-1.252-.256.19-.705 2.072-.979 2.404l2.139-8.248-.79 2.459c.847-3.599 2.362-8.363 3.252-12.488.312-1.436.415-2.514.717-3.812 1.01-4.409 2.268-8.868 3.349-13.787 1.394-6.325 2.722-13.363 3.853-20.541-.197.482-.372 2.54-.579 3.044.822-5.652 1.539-11.249 2.149-17.661.527-5.617.811-11.174.872-16.727.067-6.184-.145-12.267-.722-18.782-.302-3.365-.802-6.601-1.322-9.948-1.386-8.737-3.338-17.338-6.091-25.485-2.693-8.188-5.695-16.071-9.232-23.295-2.128-4.357-4.663-8.706-7.12-12.563-1.792-2.846-4.227-6.335-6.64-9.015-1.111-1.241-2.453-2.562-4.117-4.173-1.866-1.774-3.406-3.269-5.927-4.493.209.032.711.301 1.093.496-1.29-.801-1.649-1.201-3.088-1.897.065-.066.767.287.926.294-.699-.395-1.842-.968-.55-.574-1.115-.536-1.856-.989-3.693-1.399.608-.03.564-.175 1.341-.166 2.372.387 4.837 1.277 7.186 2.586 2.354 1.307 4.592 3.017 6.652 4.958 4.131 3.894 7.549 8.648 10.489 13.287 3.437 5.398 6.585 12.112 9.323 18.593 1.563 3.678 3.19 7.97 4.712 12.416.763 2.222 1.501 4.482 2.214 6.711l.266.833.133.416.136.479.473 1.663c.302 1.12.612 2.237.882 3.322 1.323 5.149 2.471 10.603 3.257 15.851.66 4.261 1.251 9.39 1.54 13.231.634 8.013.439 16.632.018 25.036-.28 5.708-.776 11.032-1.375 15.826-.046-.048.022-.476.054-.78-.242 2.779-.784 4.922-1.31 9.009.466-1.921-.029.709-.287 2.061l-.22-.037c-1.173 6.414-2.662 14.845-4.211 20.319l-.145 1.03c-.075.284-.076.131-.043-.01l.059-.252c-.026-.056-.064.089-.103.242-2.057 8.819-4.74 19.079-7.481 27.991l.991-3.48c1.374-4.659 3.082-11.003 4.5-16.468zm5.066-32.999c.156-1.199.509-3.049.514-3.836-.137 1.201-.495 3.049-.514 3.836zM409.876 284.621c.413.688 3.174 1.324 1.651.31-.056.51-1.596-.828-1.651-.31zm28.251 21.362c1.85 3.044 3.694 5.998 5.347 9.283 1.645 3.275 3.093 6.896 3.902 11.039-1.294-3.259-2.563-6.885-4.494-10.63-1.916-3.73-4.524-7.566-8.117-10.813 1.741 2.137 3.603 4.506 5.16 6.784 1.565 2.271 2.833 4.433 3.615 5.942.771 2.07 1.872 4.931 2.703 8.104.847 3.167 1.415 6.63 1.552 9.71-.376.095-.202-1.149-.368-1.61-.706.419-.078 2.793-.728 3.338-.676-3.207-1.409-7.021-2.673-10.24-.319.542.76 2.597.41 3.167-.812-2.135-1.511-4.679-2.487-7.233-.967-2.549-2.227-5.099-3.868-7.093-1.145-1.392-2.424-2.067-3.46-3.256-3.521-3.995-6.988-8.285-11.857-11.752-6.238-4.437-13.942-7.944-21.939-10.751.402.64 2.863.898 3.277 1.563-6.377-1.95-12.735-3.488-20.059-4.922-6.417-1.244-12.834-1.928-19.245-2.324-7.144-.433-14.186-.463-21.731-.106-1.949.096-3.86.34-5.765.628l-2.854.452c-1.005.159-1.936.289-2.918.407-10.156 1.245-20.178 3.004-29.779 5.435-9.598 2.434-18.771 5.539-27.178 9.354-5.077 2.294-10.078 5.271-14.806 7.489l-11.966 5.509c-1.781.847-3.629 1.995-6.093 2.709-1.374.4-2.66.613-3.888.969-1.224.353-2.396.858-3.359 1.798-.006-.328.451-.642.747-.96-1.383.612-2.242.271-3.623.989-.193-.268.507-.592.47-.871-.783.256-2.057.715-1.355-.484-.582.271-1.116.452-1.67.741-.256.141-.566.341-.792.533-.123.108-.225.188-.37.354-.158.189-.318.396-.48.626-.131-.931-.548-1.238-.677-2.287.843-2.615 2.76-5.173 5.085-7.328 2.335-2.183 5.099-4.035 7.957-5.705 2.876-1.681 5.806-3.152 8.689-4.725l8.713-4.595c6.643-3.552 14.847-6.419 22.644-9.349 8.847-3.39 20.762-6.484 31.192-8.379 6.171-1.14 12.662-2.207 18.887-2.784l7.976-.759c2.765-.237 5.461-.41 7.769-.504 9.645-.395 19.896 1.065 29.989 2.178 6.865.758 13.3 1.894 19.07 3.389-.103.187-.604-.002-.976-.068 3.437.475 5.76 2.174 10.749 3.422-2.117-1.411.941-.02 2.51.726l-.314.833c3.706 1.687 8.083 3.5 12.21 5.729 4.125 2.205 7.979 4.861 10.549 7.608.446.244.833.33 1.28.583.276.275.032.259-.113.137l-.263-.218c-.145.078-.003.214.148.355 4.537 3.816 9.101 8.703 12.534 14.496 3.458 5.767 5.646 12.347 6.363 18.504-.275-1.578-.619-3.152-1.035-4.714-.724-3.169-1.993-6.841-3.783-10.417-1.776-3.586-4.064-7.043-6.414-10.006zm-37.873-16.204c-1.371-.344-3.369-1.327-4.362-1.184 1.389.283 3.371 1.278 4.362 1.184zM434.459 344.387c-.301-.025-.604.717-.16.454l.16-.454zm-6.735 6.668c-1.574 1.029-2.563 2.514-4.203 3.989.865-1.646 2.691-2.966 4.05-5.177-1.101.986-2.118 2.397-2.657 3.106-.908.741-2.214 2.338-3.397 3.513-.159-.111.168-.269.212-.398-.354-.18-.627.455-.976.345.397-.838 1.041-1.7 1.526-2.542-.258-.055-.451.606-.707.569.543-1.207 1.94-2.285 2.598-3.638.229-.471.213-.972.464-1.364.85-1.336 2.15-2.332 3.28-3.66 1.452-1.71 3.006-3.646 4.688-5.521-.297-.025-.543.707-.839.693 1.137-1.636 2.329-3.19 3.767-4.899 1.259-1.498 2.438-3.025 3.613-4.552 1.307-1.702 2.565-3.396 3.896-5.231.688-.948 1.15-2.022 1.771-3.021 3.24-5.208 6.124-10.587 7.634-15.96.461-1.617.69-3.389 1.173-4.855.361-1.078.905-2.396 1.276-3.566.172-.54.253-1.194.729-1.865.535-.746 1.317-1.246 1.447-2.236.105.105.036.296.036.453.309-.463.721-.492 1.062-.964.154.06-.033.283.07.369.224-.217.613-.557.671-.055.299-.346.689-.575.839-1.225.267.29.512.339.81.71 1.082 3.837-.502 7.875-1.412 11.69-.526 2.241-1.641 4.611-2.511 6.985-.978 2.709-2.659 6.013-4.259 8.764-.941 1.632-1.931 3.339-2.995 4.872-.863 1.246-1.866 2.759-2.65 3.856-1.637 2.295-3.898 4.314-5.68 6.634-1.212 1.574-2.361 3.027-3.445 4.299-.069-.079.051-.174.109-.263-.474.864-1.364 1.098-2.127 2.318.688-.302-.043.285-.404.6l-.336-.293c-1.686 1.518-3.275 4.036-4.962 5.156l-.099.386c-.078.064-.1-.021-.066-.059l.058-.067c-.047-.062-.086-.028-.126.009-2.08 2.316-4.356 5.143-6.636 7.388l.791-.95c1.145-1.206 2.577-2.94 3.917-4.343zm4.995-10.912c.23-.354.79-.732.812-1.072-.231.354-.79.733-.812 1.072zM379.725 312.81c.377.352 2.325.624 1.155.131l-1.155-.131zm23.034 7.774c4.242 1.979 8.618 3.287 13.802 5.525-4.527-1.249-9.654-3.653-16.035-5.331 3.512 1.356 7.763 2.683 9.934 3.409 2.725 1.188 7.72 2.981 11.65 4.664-.032.193-.771-.25-1.097-.321.073.44 1.735.867 1.939 1.309-2.238-.614-4.832-1.535-7.19-2.22.217.326 1.827.628 2.073.957-3.173-.807-7.186-2.659-10.819-3.522-1.265-.301-2.266-.288-3.398-.605-3.841-1.072-7.61-2.657-11.854-3.954-5.456-1.667-11.543-3.317-17.729-4.954.372.344 2.201.518 2.593.864l-15.311-3.33c-4.857-1.027-9.684-1.854-14.52-2.558-5.387-.78-10.706-1.378-16.442-1.801-2.964-.216-5.853-.124-8.829-.15-7.772-.072-15.501.338-22.953 1.379-7.45 1.038-14.62 2.717-21.211 5.044-3.979 1.401-7.939 3.272-11.586 4.842-2.687 1.149-6.078 2.616-8.894 4.093-1.302.681-2.712 1.577-4.632 2.382-2.141.903-4.07 1.356-6.127 2.885.083-.213.526-.485.832-.73-1.25.61-1.842.524-3.155 1.175-.064-.155.592-.455.637-.634-.688.277-1.798.688-.895-.156-1.03.469-1.815.621-3.199 1.648.224-.57.033-.74.368-1.453 2.883-3.301 6.76-6.288 11.009-8.895 4.255-2.611 8.881-4.834 13.319-6.877 5.158-2.395 11.478-4.292 17.547-5.952 6.888-1.945 16.093-3.391 24.085-3.913 4.73-.338 9.692-.511 14.411-.388 3.834.093 8.417.297 11.825.572 7.119.554 14.603 2.113 21.945 3.361 4.989.851 9.628 1.784 13.791 2.761-.06.092-.427-.023-.693-.072 2.449.365 4.215 1.327 7.798 2.021-1.606-.747.644.005 1.803.382l-.114.431c5.503 1.729 12.891 3.435 17.515 5.475l.928.107c.242.095.094.123-.027.084l-.219-.069c-.062.061.061.107.191.155 7.614 2.468 16.502 5.458 24.102 8.662l-2.997-1.114c-3.991-1.591-9.47-3.509-14.171-5.188zm-29.164-5.157c-1.046-.208-2.61-.78-3.328-.743 1.047.197 2.611.77 3.328.743z"/>
        <path stroke="#000" stroke-miterlimit="10" d="M143.015 44.955" fill="none"/>
        <path d="M201.521 43.808c.846.122 3.306-1.684 1.425-1.109l-1.425 1.109zm33.314-16.726c6.569-2.912 12.12-7.157 19.24-11.93-5.144 5.031-12.79 9.132-20.985 15.104 5.157-2.686 10.695-6.736 13.484-8.85 3.971-2.258 10.422-7.21 15.516-11.288.301.254-.879.875-1.199 1.276.771.37 2.482-1.649 3.334-1.502-2.35 2.712-5.548 5.535-8.337 8.14.676.064 2.298-1.929 2.985-1.93-3.483 3.774-9.45 7.277-13.84 11.139-1.529 1.352-2.396 2.731-3.883 3.845-5.041 3.784-10.916 6.514-17.002 9.94-7.834 4.413-16.614 9.119-25.754 13.439.846.128 3.165-1.656 4.031-1.565-6.949 3.889-13.966 7.45-22.085 11.288-7.11 3.361-14.068 6.784-20.984 10.266-7.701 3.881-15.209 7.812-23.132 12.312-4.12 2.316-7.896 4.95-12.004 7.33-10.72 6.208-21.423 12.306-31.621 18.657-10.196 6.345-19.896 12.949-28.568 19.985-5.238 4.239-10.239 9.144-15.033 13.223-3.537 2.993-8.046 6.7-11.647 10.158-1.669 1.594-3.37 3.594-5.984 5.544-2.912 2.182-5.806 3.502-8.17 6.725-.009-.392.534-.99.874-1.501-1.659 1.403-2.708 1.417-4.459 2.904-.219-.252.675-.952.625-1.274-.968.665-2.534 1.699-1.622-.026l-2.146 1.567-3.305-6.985c-.538.061-.485.146-.423.151.083.015.258-.007.481-.057.227-.05.501-.128.879-.235.193-.054.411-.115.702-.182.178-.036.251-.063.629-.115l.507-.051-.135.133-.448.171c-.166.064-.233.119-.285.169l-.167.154c-.179.2-.292.386-.386.573-.195.375-.382.775-.746 1.309l-.449.342c-.121.104-.244.177-.16.234l1.296 2.74c2.708-6.333 7.158-12.487 12.329-18.17 5.165-5.708 11.021-10.973 16.543-16.055 6.623-6.124 15.184-12.032 23.188-17.869 9.077-6.676 21.479-14.261 32.256-20.481 6.378-3.696 13.014-7.567 19.396-11.048 2.594-1.415 5.418-2.999 8.155-4.558l7.707-4.421c9.897-5.594 21.107-9.953 31.547-15.15 7.09-3.525 13.703-6.753 19.688-9.604.037.212-.525.414-.894.618 3.28-2.006 6.455-2.351 11.33-5.211-2.703.594.734-.695 2.476-1.403l.392.8c8.279-3.414 18.163-9.585 25.346-12.472l1.041-1.005c.361-.169.258.056.09.154l-.305.175c.021.165.203.077.393-.02 10.717-5.997 22.498-13.996 32.401-21.492-1.231 1.032-2.483 2.042-3.747 3.042-5.199 3.867-12.385 8.98-18.956 12.843zm-37.086 27.693c-1.463.839-3.976 1.65-4.78 2.489 1.47-.826 3.98-1.645 4.78-2.489zM254.916 213.61c.293.472 1.42-.101.661-.39l-.661.39zm14.56.927c2.82 1.015 5.591.591 9.03 1.33-2.882.682-6.295-.428-10.243.471 2.261.333 4.944.049 6.336-.024 1.789.44 5.021.47 7.62.977-.001.386-.5.051-.707.137.093.779 1.154.459 1.321 1.151-1.432.354-3.097.375-4.58.666.173.47 1.164-.045 1.354.408-1.977.619-4.594-.185-6.813.568-.771.262-1.328.938-2.022 1.074-2.354.465-4.776-.144-7.402-.02-3.372.162-7.084.547-10.859.665.288.468 1.327-.177 1.626.273-2.943.583-5.856.984-9.199 1.211-2.927.198-5.805.525-8.686.807-3.208.312-6.366.632-9.775.897-1.759.14-3.459.75-5.237.982-9.296 1.212-18.569 2.005-27.817 3.01-2.786.305-5.856.904-8.578.612-1.996-.21-4.47-.838-6.639-1.364-.998-.242-2.23-.314-3.449-1.24-1.365-1.042-2.111-2.606-3.88-3.001.228-.186.553-.03.839-.007-.756-.658-.706-1.496-1.431-2.251.166-.287.5.125.69-.061-.317-.479-.754-1.293.149-1.313-.479-.626-.728-1.461-1.625-1.833.583-.459.784-.916 1.507-1.42 3.322-.654 6.253-.51 9.177-.226 2.909.277 5.792.683 8.627.476 3.273-.236 6.876.151 10.421-.314 4.009-.513 9.107-.888 13.539-1.311 2.622-.241 5.368-.633 7.995-.801 2.135-.134 4.697-.462 6.616-.655 3.997-.399 8.372.315 12.649-.182 2.901-.334 5.63-.637 8.12-.796-.01.209-.236.164-.393.2 1.414-.492 2.604.484 4.718-.078-1.057-.589.35-.329 1.072-.232l.046.89c3.412.371 7.872-.743 10.921.252l.539-.372c.157.03.082.176.005.178l-.137.004c-.021.153.059.167.142.175 4.794-.032 10.511-.29 15.59.614l-1.975-.083c-2.641-.315-6.187-.288-9.202-.444zm-17.235 7.418c-.622.15-1.617-.146-2 .287.622-.15 1.616.145 2-.287zM394.325 211.327c.258.506 1.551.081.765-.302l-.765.302zm15.525 2.554c2.919 1.256 5.885 1.039 9.469 1.904-3.068.579-6.62-.743-10.921-.221 2.399.551 5.288.465 6.77.477 1.881.555 5.306.731 8.037 1.245.001.387-.526.046-.746.13.096.782 1.221.47 1.403 1.162-1.521.351-3.307.341-4.914.575.174.479 1.256-.005 1.449.452-2.154.567-4.956-.371-7.414.213-.856.204-1.515.834-2.287.911-2.617.263-5.217-.588-8.097-.761-3.706-.219-7.813-.311-11.963-.688.256.502 1.476-.002 1.746.483-3.298.198-6.54.204-10.23 0-3.23-.179-6.425-.212-9.613-.253-3.551-.053-7.044-.043-10.799-.043-1.94.004-3.833.508-5.782.647-10.244.666-20.147 1.876-30.067 3.506-2.982.489-6.233 1.312-9.214 1.208-2.184-.07-4.945-.536-7.381-.947-1.12-.188-2.482-.199-3.931-1.088-1.623-1.002-2.617-2.566-4.619-2.955.233-.188.61-.034.931-.016-.908-.657-.937-1.519-1.812-2.288.155-.29.566.125.758-.062-.398-.485-.954-1.327.037-1.339-.31-.333-.51-.685-.808-1.037-.144-.172-.315-.341-.502-.488-.171-.141-.378-.267-.638-.368.597-.463.781-.927 1.525-1.435 3.578-.634 6.747-.588 9.967-.445 3.196.138 6.398.351 9.5-.044 3.585-.456 7.625-.317 11.568-.98 4.464-.739 10.245-1.327 15.404-1.72l4.693-.343c1.424-.098 3.055-.194 4.531-.214l7.683-.203c4.616-.065 9.481 1.128 14.299 1.164 3.273.024 6.328.082 9.081.251-.039.206-.281.131-.457.146 1.617-.304 2.793.823 5.17.541-1.075-.722.424-.28 1.197-.092l-.064.888c3.672.815 8.605.257 11.754 1.568l.615-.312c.164.046.069.183-.013.177l-.147-.011c-.038.15.045.172.134.189 5.143.48 11.177.685 16.427 1.674l-2.055-.133c-2.745-.4-6.479-.596-9.674-1.025zm-19.509 5.378c-.699.068-1.75-.357-2.226.022.699-.066 1.751.356 2.226-.022zM228.008 460.391c.134-.837-1.684-3.19-1.097-1.369.374-.369.723 1.731 1.097 1.369zm-19.126-31.375c-3.804-6.156-8.934-11.077-14.804-17.648 5.813 4.561 11.158 11.588 18.195 18.969-3.355-4.792-8.245-9.754-10.785-12.26-2.862-3.664-8.833-9.474-13.623-14.23.216-.327 1 .8 1.449 1.081.266-.813-1.994-2.341-1.952-3.215 3.03 2.114 6.308 5.009 9.331 7.476-.036-.685-2.269-2.066-2.367-2.76 4.271 3.049 8.693 8.532 13.212 12.391 1.583 1.342 3.082 2.024 4.416 3.36 4.519 4.541 8.065 10.09 12.107 15.894 4.035 5.772 8.087 12.253 11.6 19.25l.465.927.879-.535c2.042-1.243 3.933-2.726 5.696-4.325-.832.155-2.747 2.517-3.679 2.571 6.427-5.232 10.58-12.215 17.378-18.381 5.762-5.553 11.542-10.926 17.459-16.142 6.597-5.798 13.197-11.376 20.401-17.25 3.717-3.036 7.037-6.341 10.722-9.457 9.617-8.132 19.218-16.18 28.287-24.375 9.084-8.209 17.597-16.465 25-25.14 4.503-5.22 8.812-11.08 13.347-15.989 3.332-3.606 7.793-8.009 11.65-11.867 1.78-1.779 3.667-3.983 6.63-6.061 3.328-2.326 6.503-3.56 9.701-6.688-.083.411-.8.988-1.244 1.493 1-.656 1.813-.968 2.611-1.27.806-.303 1.574-.549 2.649-1.185.147.305-.9.864-.923 1.201 1.101-.512 3.023-1.36 1.635.284.847-.457 1.657-.78 2.51-1.19.428-.206.875-.438 1.339-.718.229-.138.468-.292.67-.434l.161-.117-.114.107-.158.17-.13.161-.21.305-.058.098-.107.199c-.068.137-.128.277-.18.421l-.07.217c-.018.057-.083.305-.105.458-.062.354-.071.728-.032 1.08l.039.269.081.365c.067.245.162.493.28.729.225.468.617.913.789 1.071.416.445 1.202.816 1.299.836l.381.128.314.073c.146.027.295.047.443.056l.096.005h-.057l.039-.03.02-.016-.235-.031c-.3-.075-.654-.08-1.49-.556-.282-.17-.545-.382-.767-.613l-.16-.177-.231-.296c-.147-.209-.277-.438-.382-.678-.215-.484-.296-1.009-.307-1.295-.021-.349.01-.708.086-1.038.218-.856.533-1.188.617-1.299.172-.207.228-.233.297-.285l.155-.078c.088-.031.119-.007.159.009.13.092.164.26.202.424.062.342.062.742-.148 1.385-4.344 5.923-9.451 11.704-14.821 17.58-5.349 5.87-10.884 11.811-15.837 17.794-5.753 6.947-13.074 14.396-20.057 21.732-7.918 8.309-18.964 18.115-28.618 26.29-5.714 4.852-11.659 9.928-17.434 14.567-4.696 3.77-10.199 8.384-14.297 11.8-8.549 7.112-18.309 13.916-26.735 21.818-2.85 2.685-5.58 5.299-8.151 7.845l-1.903 1.893-.934.932-.351.349-.465.483c-.988 1.042-2.11 2.297-3.196 3.521-.116-.183.322-.586.575-.907-1.1 1.528-2.389 2.761-3.937 4.225-1.566 1.463-3.331 3.172-5.818 5.672 2.91-1.773-.603 1.071-2.736 2.443l-.532-.714c-.999.672-2.067 1.353-3.213 2.009l-8.215 4.708-3.784-8.2c-1.724-3.734-3.988-7.658-6.267-11.36-2.274-3.707-4.544-7.206-6.158-10.265l-1.109-.917c-.205-.34.029-.263.144-.105l.205.281c.161-.037.055-.209-.061-.387-7.09-9.952-17.069-20.401-26.072-29.605l3.619 3.432c4.674 4.778 10.936 11.232 15.679 17.252zm34.363 23.865c1.194-1.271 3.296-2.997 3.739-4.101-1.071 1.362-3.193 3.044-3.739 4.101zM258.012 410.232c-.334.376.398.537.473.065l-.473-.065zm2.674 6.441c-.107 1.684.986 2.514 1.398 4.206-1.412-.666-1.449-2.604-3.197-3.674.301 1.095 1.26 1.98 1.709 2.468.137.941 1.053 2.166 1.477 3.385-.311.228-.199-.148-.334-.172-.6.493-.002.684-.504 1.151-.75-.299-1.289-.896-1.971-1.284-.33.34.391.409.082.744-1.115-.372-1.225-1.841-2.455-2.289-.428-.155-1.137.006-1.438-.198-1.021-.688-1.145-2.032-1.896-3.062-.969-1.325-2.16-2.708-3.112-4.285-.33.375.45.481.138.852-1.164-.963-2.152-2.029-3.08-3.38-.81-1.185-1.714-2.285-2.584-3.411-.968-1.254-1.938-2.481-2.936-3.838-.519-.697-1.438-1.139-2.057-1.795-3.234-3.451-6.333-6.95-10.288-10.322-1.191-1.019-2.816-2.047-3.592-3.325-.568-.936-.995-2.25-1.444-3.419-.208-.534-.672-1.129-.39-2.032.321-1.02 1.363-1.887.899-2.891.27.054.281.265.393.413.235-.594.996-.796 1.325-1.473.33.001.125.322.376.367.276-.341.79-.821 1.23-.343.326-.501.956-.715.855-1.201.68.136 1.178.11 1.965.294 2.138 1.321 3.333 2.458 4.296 3.647.963 1.172 1.708 2.373 2.902 3.334 1.376 1.1 2.199 2.6 3.661 3.754 1.653 1.302 3.339 3.133 4.786 4.732.853.949 1.834 1.89 2.57 2.898.599.822 1.443 1.735 2.021 2.448 1.203 1.482 1.498 3.709 2.818 5.28.893 1.064 1.721 2.068 2.385 3.037-.18.105-.189-.014-.252-.061.717.338.143 1.358 1.076 1.949.27-.758.354-.028.43.325l-.74.496c.436 1.64 2.385 2.874 2.297 4.651l.439.011c.014.08-.125.13-.146.101l-.035-.054c-.133.077-.125.116-.111.155 1.191 1.924 2.9 3.984 3.727 6.323l-.527-.762c-.526-1.141-1.524-2.472-2.166-3.75zm-10.313-3.119c-.267-.19-.239-.779-.691-.718.264.192.238.78.691.718z"/>
    </g>
    <g>
        <path d="M214.153 320.63c-.043.3.331 1.44.247.669l-.247-.669zm-.054 14.558c-.77 2.677-1.383 5.36-3.011 8.384 1.071-2.614 2.395-5.759 2.771-9.665-.399 2.191-1.007 4.762-1.441 6.061-.635 1.644-1.878 4.6-3.51 6.666-.093-.038.272-.413.358-.597l-1.021.965c.772-1.167 1.595-2.585 2.143-3.923-.181.116-.492 1.025-.696 1.146.791-1.741 1.917-4.069 2.3-6.21.138-.74.1-1.31.212-1.976.373-2.258.822-4.571.85-7.133.027-3.281-.434-6.939-1.695-10.42-.021.28.457 1.224.41 1.52-.934-2.724-2.233-5.353-4.519-7.664-1.008-.994-2.158-1.845-3.446-2.395-1.284-.557-2.65-.885-4.027-1.078-3.077-.413-6.153-.222-9.402.216-1.681.234-3.277.652-4.934 1.04-8.648 2.068-16.894 5.319-24.193 8.916l-6.525 3.399c-1.545.76-3.521 1.686-5.193 2.54-.772.394-1.623.899-2.765 1.35-1.275.504-2.394.752-3.667 1.538.064-.109.333-.251.522-.379l-1.856.595c-.023-.082.366-.232.405-.324-.407.138-1.053.342-.486-.089-.607.234-1.071.308-1.896.813.168-.294.076-.385.313-.746 3.748-3.345 9.296-5.999 14.153-8.598 2.829-1.516 6.231-2.995 9.459-4.469 3.662-1.684 8.54-3.584 12.87-4.966 2.561-.824 5.272-1.625 7.92-2.209 2.148-.48 4.759-.971 6.753-1.202 2.076-.247 4.274-.319 6.542-.142 2.264.189 4.619.601 6.935 1.587.791.345 1.526.731 2.27 1.26.251.172.613.446.942.715.306.254.6.515.88.782 1.117 1.077 2.026 2.247 2.741 3.42-.058.008-.171-.211-.273-.354.928 1.298 1.294 2.511 2.171 4.6-.217-1.08.219.34.397 1.073l-.213.064c.452 1.719.865 3.706 1.064 5.655.206 1.946.202 3.848-.011 5.342l.058.553c-.019.155-.049.073-.044-.003l.009-.137c-.037-.027-.045.051-.054.134-.314 4.761-1.601 10.363-4.392 14.675.34-.564.652-1.142.945-1.725 1.251-2.319 2.32-5.672 2.877-8.605zm-2.834-16.946c-.242-.563-.555-1.477-.832-1.783.308.535.601 1.448.832 1.783zM209.425 393.994c-.066.335.338 1.574.24.739l-.24-.739zm8.723 8.474c1.122-.213 2.195-1.036 3.016-2.219.825-1.184 1.436-2.7 1.774-4.447-.118 1.473-.642 3.103-1.608 4.521-.966 1.415-2.368 2.57-4.135 2.773 1.025-.003 2.099-.471 2.914-1.197.823-.719 1.382-1.62 1.709-2.247.494-.777 1.016-2.015 1.284-3.431.28-1.412.294-2.982.057-4.313.092-.044.119.501.165.708.19-.174-.117-1.236-.034-1.492.535 1.415.652 3.305.461 4.953.163-.194.135-1.303.239-1.53.128 2.247-.923 5.24-2.451 7.238-.525.697-.913 1.256-1.594 1.714-.91.602-2.017.919-3.142.885-1.127-.029-2.247-.392-3.299-.935l-.019-.01-.028-.009c-.605-.185-1.195-.439-1.745-.783-1.702-1.027-2.826-2.945-3.491-5.021-.685-2.088-1.025-4.351-1.387-6.623-.067.337.286 1.601.229 1.951-.479-2.32-.791-4.677-1.583-7.047l-.001-.003-.002.001-3.989.771c-3.513.683-6.967 1.404-10.455 1.945-1.942.3-3.878.547-5.856.68-1.977.126-4.004.159-6.09-.151-1.074-.164-2.135-.39-3.158-.794-1.017-.401-2.009-1.004-2.77-1.896-1.009-1.16-1.495-2.693-1.605-4.166-.117-1.484.07-2.945.372-4.352.625-2.813 1.692-5.444 2.854-7.972.599-1.27 1.171-2.488 1.885-3.74.711-1.229 1.524-2.387 2.397-3.474 1.751-2.176 3.736-4.065 5.735-5.799 2.413-2.094 4.985-4.151 7.375-5.897 1.759-1.281 3.983-2.85 5.72-4.323l2.755-2.445c1.217-1.05 2.305-1.849 3.194-3.336-.011.142-.211.431-.347.659.595-.728.933-.876 1.496-1.693.067.062-.229.452-.22.564.318-.387.802-1.026.498-.237.223-.315.431-.574.635-.892.206-.314.395-.657.619-1.251.018.4.153.422.144.933-.692 2.983-2.759 6.008-5.331 8.507-2.57 2.534-5.57 4.691-8.303 6.81-3.173 2.458-6.995 5.078-9.931 8.18-1.665 1.748-3.379 3.892-4.597 6.323-1.327 2.589-2.537 5.271-3.319 7.783-.461 1.479-.798 3.011-.852 4.421-.061 1.42.216 2.628.791 3.417.454.655 1.256 1.211 2.323 1.576 1.054.37 2.282.539 3.352.615 4.522.291 9.853-.334 14.963-1.314 3.291-.643 6.398-1.314 9.294-1.834l2.089-.375.631 1.995.18.568c-.058-.014-.134-.315-.211-.525.714 1.899.702 3.415 1.235 5.968-.04-1.257.147.437.253 1.271l-.22.037c.265 1.988.708 4.226 1.513 5.971.806 1.778 1.926 2.746 3.142 3.277l.27.032-.333-.033.684.169.229.065c.13.071.047.071-.019.04l-.119-.057c-.039.024.028.061.1.098 1.041.492 2.137.724 3.14.537 1.004-.173 1.975-.762 2.78-1.686 1.631-1.854 2.452-4.711 2.431-7.214.023.652-.007 1.313-.096 1.968-.198 1.311-.657 2.847-1.464 4.167-.793 1.328-1.957 2.348-3.123 2.672zm-11.365-11.788c-.15-.752-.278-1.947-.484-2.414.189.749.304 1.942.484 2.414z"/>
    </g>
    <g>
        <path d="M180.764 319.506c.169.052.604-.308.25-.224l-.25.224zm6.315-2.789c1.306-.366 2.428-1.05 3.953-1.623-1.124.768-2.69 1.25-4.276 2.286 1.001-.402 2.111-1.039 2.688-1.353.809-.285 2.172-.972 3.32-1.426.052.083-.202.119-.277.183.142.146.543-.152.707-.043-.552.388-1.254.756-1.849 1.142l.627-.207c-.765.567-1.982.961-2.85 1.608-.303.225-.468.498-.755.679-.971.615-2.089.998-3.219 1.582-1.454.752-3.044 1.614-4.701 2.401l.741-.265c-1.246.734-2.506 1.407-3.983 2.097-1.293.603-2.566 1.205-3.855 1.77-1.437.626-2.862 1.22-4.424 1.791-.807.295-1.554.684-2.375.981-2.151.772-4.291 1.362-6.31 2.155-2.015.772-3.914 1.682-5.484 2.812-.948.685-1.777 1.542-2.518 2.238-.554.509-1.22 1.156-1.689 1.787-.217.294-.403.659-.771 1.023-.419.398-.893.688-1.097 1.312-.039-.069.022-.187.044-.286l-.663.594.003-.231c-.138.135-.382.357-.355.035-.198.213-.421.418-.568.872-.109-.196-.231-.223-.348-.475-.097-1.31.298-2.713 1.04-3.995.729-1.291 1.774-2.435 2.824-3.458 1.22-1.212 2.943-2.197 4.571-3.095 1.852-1.05 4.403-1.987 6.575-2.679l3.807-1.212c.959-.309 2.137-.76 2.998-1.096 1.804-.693 3.826-1.252 5.689-2.133l3.511-1.696c.013.052-.09.085-.155.123.576-.389 1.178-.387 2.047-.938-.509.071.123-.146.443-.267l.099.2c1.516-.593 3.322-1.765 4.718-2.172l.192-.197.02.04-.058.029.079.01c2.043-1.008 4.415-2.273 6.626-3.16l-.829.402c-1.134.496-2.618 1.255-3.913 1.855zm-6.748 5.286c-.262.159-.727.288-.86.466.262-.158.727-.287.86-.466zM171.101 328.546c.108.085.3-.146.108-.147l-.108.147zm3.133-1.157c.673-.078 1.139-.481 1.803-.769-.37.511-1.146.684-1.831 1.293.5-.163.982-.534 1.222-.718.39-.121.959-.525 1.401-.807.067.069-.062.08-.076.126.146.129.244-.084.391.013-.143.28-.414.53-.633.794l.301-.114c-.247.416-.863.605-1.211 1.035-.121.152-.154.363-.283.478-.443.385-1.043.516-1.609.81-.731.378-1.537.811-2.395 1.165l.398-.078c-.622.396-1.263.737-2.02 1.066-.663.288-1.305.6-1.951.903l-2.182 1.034c-.392.187-.724.48-1.104.697-1.974 1.132-3.934 2.315-5.352 3.814l-1.141 1.38c-.271.268-.622.558-.842.825-.108.124-.159.299-.363.364-.216.065-.545.037-.538.224l-.047-.103-.416.04-.056-.091c-.094.025-.237.032-.31-.071l-.178.037c-.059.006-.116.131-.132.241-.148-.111-.271-.131-.439-.272-.406-.618-.172-1.504.232-2.154.412-.677.978-1.234 1.472-1.819.58-.685 1.409-1.229 2.131-1.854.822-.717 1.98-1.459 2.991-2.049.599-.351 1.218-.727 1.832-1.023l1.521-.772c.918-.452 2.011-.649 2.962-1.115.646-.316 1.245-.608 1.794-.85l-.072.079c.277-.231.631-.1 1.051-.408-.288-.05.049-.105.216-.145l.091.203c.796-.203 1.64-.854 2.367-.926l.07-.136.021.039-.028.015.048.025c.983-.475 2.035-1.146 2.891-1.627l-.305.234c-.453.27-1.081.685-1.692.967zm-2.981 3.332c-.129.09-.384.105-.435.239.131-.088.386-.105.435-.239zM176.43 331.408c.095.09.231-.115.075-.133l-.075.133zm2.435-.904c.556-.048.891-.414 1.449-.667-.268.471-.907.612-1.397 1.161.398-.137.759-.471.94-.637.322-.104.764-.471 1.162-.72.068.068-.052.074-.062.116.147.128.223-.068.366.03-.115.256-.33.48-.492.72l.256-.097c-.172.379-.686.541-.926.938-.085.139-.08.343-.178.445-.332.355-.833.465-1.285.723-.583.335-1.235.707-1.942.984l.333-.047c-.504.342-1.038.617-1.67.867l-1.639.676-1.838.764c-.33.138-.607.388-.923.56-1.645.884-3.215 1.906-4.13 3.277-.277.411-.458.924-.704 1.257-.183.246-.443.514-.63.779-.087.122-.136.301-.353.388-.238.097-.595.079-.67.339l-.007-.14-.481.05-.021-.122c-.102.013-.288.043-.295-.124-.145.05-.332.047-.428.226l-.326-.39c-.31-1.441.613-2.484 1.283-3.575.396-.653 1.054-1.191 1.63-1.795.655-.693 1.652-1.384 2.529-1.891.519-.302 1.059-.62 1.588-.851l1.307-.598c.783-.342 1.698-.404 2.475-.751l1.441-.631-.054.069c.212-.196.51-.033.83-.293-.237-.074.032-.097.165-.12l.09.204c.637-.127 1.253-.688 1.84-.716l.04-.126.022.039-.021.012.043.026c.754-.398 1.516-.993 2.265-1.432l-.255.215c-.379.246-.858.617-1.327.858zm-2.159 3.019c-.105.077-.32.07-.357.197.106-.074.322-.069.357-.197zM192.974 339.598c-.042.154.311.454.22.17l-.22-.17zm-3.747 6.24c-1.107.241-2.081.626-3.333.626.961-.314 2.293-.316 3.557-1.244-.798.349-1.714.721-2.203.86-.658.069-1.789.243-2.686.162-.01-.096.168-.024.237-.051-.053-.19-.403-.088-.475-.259.471-.112 1.029-.166 1.514-.314l-.467-.041c.626-.225 1.543-.19 2.208-.611l.542-.485c.666-.399 1.439-.676 2.083-1.294.522-.507.97-1.151 1.311-1.862l.062-.129-.074-.109c-.244-.36-.495-.726-.779-1.07l.256.471c-.665-.712-1.374-1.347-2.277-1.926-.792-.508-1.681-.818-2.581-.981-1.005-.184-2.016-.184-3.081-.056-.553.068-1.062.289-1.591.449-2.766.852-5.256 2.385-7.174 4.23-.58.558-1.098 1.246-1.658 1.738-.412.362-.964.776-1.408 1.172-.206.183-.401.438-.769.594-.41.175-.867.176-1.166.556-.017-.072.058-.133.097-.198l-.694.127.063-.174c-.151.033-.394.071-.297-.153-.209.066-.422.044-.649.281-.042-.19-.134-.275-.169-.508.489-1.876 2.145-3.146 3.445-4.521.762-.808 1.805-1.522 2.764-2.301 1.087-.889 2.657-1.84 4.139-2.503.874-.395 1.825-.782 2.794-1.02.782-.199 1.759-.395 2.519-.463 1.588-.155 3.375.263 5.062.888 1.152.428 2.168 1.054 2.94 1.747-.042.033-.101-.04-.154-.078.521.323.673.832 1.299 1.414-.138-.419.161.063.3.312l-.178.134.525.842.625 1.002-.521 1.068c-.517 1.059-1.355 2.191-2.239 2.63l-.123.213-.027-.035.045-.035h-.073c-1.582 1.247-3.801 1.898-5.601 1.822.233-.015.467-.035.702-.062.952-.049 2.257-.364 3.358-.855zm1.442-5.891c-.158-.136-.309-.438-.481-.457.172.123.314.426.481.457zM173.234 348.448c-.07.099.028.014.066-.062l-.066.062zm.16.496c.002.278.139.21.245.393l-.45.004c.054.121.19.097.256.086.048.126.2.144.316.246l-.041.038.036.277c-.09.098-.189.107-.291.177l.064.101-.449.076-.209.211c-.194.052-.287-.168-.439-.243-.207-.09-.444-.199-.624-.386l.024.141c-.228-.053-.428-.168-.589-.357-.142-.163-.296-.32-.432-.495-.152-.193-.295-.396-.422-.631l-.333-.329c-.462-.653-.821-1.375-1.375-2.216-.167-.254-.429-.56-.47-.837-.032-.201.008-.451.028-.688.005-.104-.029-.261.123-.373.189-.15.475-.117.528-.427l.027.145c.125-.093.33-.062.456-.103l.045.102c.102-.034.227.023.293.114.101.003.253.056.272-.021l.394.296c.341.453.506.735.623.966.115.232.17.437.352.643.21.232.248.457.468.668.248.237.447.499.614.694l.289.318.204.211.103.403.192.104-.039.023.041.104.046-.019-.144.17c-.013.169.201.031.146.309l.053-.072-.02.04-.004-.001-.016.041c.122.09.309.091.481.282l-.078-.012-.294-.173zm-1.601.967c-.052-.009-.039-.117-.131-.062.051.008.041.118.131.062zM186.232 345.495c.103.078.191-.134.044-.136l-.044.136zm2.18-.997c.527-.032.847-.368 1.403-.541-.285.417-.899.496-1.329 1.024.362-.124.691-.424.869-.566.303-.071.739-.369 1.144-.526.055.079-.057.061-.072.099.124.151.214-.021.335.104-.133.219-.35.387-.508.59l.238-.047c-.176.323-.644.403-.849.762l-.136.408c-.269.31-.696.392-1.058.639-.465.319-.957.703-1.499 1.027l.274-.07c-.358.359-.74.676-1.209.982-.411.27-.801.561-1.197.843l-1.352.944c-.247.164-.426.433-.665.621-1.242.994-2.52 1.929-3.717 3.033-.361.332-.723.771-1.128.995-.297.163-.7.296-1.045.435-.158.064-.33.189-.589.142-.292-.055-.583-.293-.859-.141.006-.067.071-.079.111-.112-.181-.035-.241-.228-.408-.289l.073-.103c-.085-.061-.223-.173-.119-.296-.126-.068-.229-.21-.392-.159l.028-.502c.674-1.18 1.645-1.397 2.394-2.084.426-.394.974-.658 1.424-1.081.51-.478 1.198-.99 1.79-1.437.351-.265.705-.562 1.066-.802.295-.191.63-.457.887-.644.535-.387 1.263-.555 1.828-.982.383-.291.743-.561 1.084-.784l-.032.072c.143-.214.439-.094.673-.379-.228-.044.008-.097.125-.133l.121.188c.542-.187 1.032-.78 1.591-.824l.026-.123.024.037-.019.012.043.025c.67-.407 1.415-.962 2.196-1.269l-.268.172c-.385.186-.859.513-1.297.74zm-1.499 2.996c-.073.082-.257.097-.259.22.073-.081.258-.097.259-.22zM166.129 319.756c.081.101.217-.082.076-.12l-.076.12zm2.286-.53c.516.042.86-.255 1.408-.393-.3.4-.906.425-1.399.88.376-.069.736-.332.921-.459.307-.043.755-.313 1.156-.47.055.08-.057.061-.072.099.122.151.215-.021.336.104-.137.22-.361.39-.535.589l.246-.043c-.198.326-.686.387-.94.729-.09.118-.103.315-.2.399-.331.286-.794.313-1.222.498-.552.238-1.163.514-1.818.696l.303-.003c-.476.269-.971.475-1.555.643-.512.146-1.011.314-1.512.473l-1.693.544c-.303.099-.565.315-.857.448-1.524.689-2.964 1.516-3.898 2.711-.284.358-.496.827-.765 1.109l-.699.639c-.101.102-.176.264-.397.304-.245.041-.583-.054-.698.172l.018-.134-.471-.063.006-.123c-.099-.014-.287-.022-.257-.189-.149.015-.318-.045-.438.095l-.238-.445c-.042-1.4.917-2.136 1.606-3.058.408-.545 1.033-.958 1.583-1.463.626-.58 1.559-1.14 2.381-1.54.486-.24.993-.494 1.486-.664l1.218-.446 2.275-.458c.487-.17.931-.326 1.332-.447l-.053.062c.202-.166.46.031.764-.183-.209-.104.035-.091.155-.097l.069.212c.582-.04 1.177-.506 1.718-.444l.046-.116.017.041-.02.008.038.033c.719-.276 1.479-.726 2.234-1.001l-.263.158c-.382.159-.863.432-1.316.593zm-2.164 2.643c-.099.062-.292.028-.333.147.1-.059.294-.027.333-.147z"/>
    </g>
</svg>
